<?xml version="1.0" encoding="utf-8" standalone="no"?>
<!DOCTYPE svg PUBLIC "-//W3C//DTD SVG 1.1//EN"
  "http://www.w3.org/Graphics/SVG/1.1/DTD/svg11.dtd">
<svg xmlns:xlink="http://www.w3.org/1999/xlink" width="293.76pt" height="138.24pt" viewBox="0 0 293.76 138.24" xmlns="http://www.w3.org/2000/svg" version="1.1">
 <metadata>
  <rdf:RDF xmlns:dc="http://purl.org/dc/elements/1.1/" xmlns:cc="http://creativecommons.org/ns#" xmlns:rdf="http://www.w3.org/1999/02/22-rdf-syntax-ns#">
   <cc:Work>
    <dc:type rdf:resource="http://purl.org/dc/dcmitype/StillImage"/>
    <dc:date>2024-07-16T11:07:44.918214</dc:date>
    <dc:format>image/svg+xml</dc:format>
    <dc:creator>
     <cc:Agent>
      <dc:title>Matplotlib v3.9.1, https://matplotlib.org/</dc:title>
     </cc:Agent>
    </dc:creator>
   </cc:Work>
  </rdf:RDF>
 </metadata>
 <defs>
  <style type="text/css">*{stroke-linejoin: round; stroke-linecap: butt}</style>
 </defs>
 <g id="figure_1">
  <g id="patch_1">
   <path d="M 0 138.24 
L 293.76 138.24 
L 293.76 0 
L 0 0 
z
" style="fill: #ffffff"/>
  </g>
  <g id="axes_1">
   <g id="patch_2">
    <path d="M 32.81 109.24 
L 287.28 109.24 
L 287.28 18 
L 32.81 18 
z
" style="fill: #ffffff"/>
   </g>
   <g id="PolyCollection_1">
    <path d="M 44.573442 105.092727 
L 44.180194 105.092727 
L 44.182639 104.388948 
L 44.18979 103.685168 
L 44.201128 102.981388 
L 44.215856 102.277609 
L 44.232993 101.573829 
L 44.25148 100.87005 
L 44.27029 100.16627 
L 44.288513 99.46249 
L 44.305428 98.758711 
L 44.320528 98.054931 
L 44.33353 97.351152 
L 44.34435 96.647372 
L 44.353064 95.943592 
L 44.359863 95.239813 
L 44.365004 94.536033 
L 44.368767 93.832253 
L 44.371424 93.128474 
L 44.373213 92.424694 
L 44.374325 91.720915 
L 44.374891 91.017135 
L 44.374977 90.313355 
L 44.374584 89.609576 
L 44.373637 88.905796 
L 44.371987 88.202017 
L 44.369402 87.498237 
L 44.36557 86.794457 
L 44.360103 86.090678 
L 44.352553 85.386898 
L 44.342442 84.683118 
L 44.32931 83.979339 
L 44.312771 83.275559 
L 44.292594 82.57178 
L 44.268774 81.868 
L 44.241602 81.16422 
L 44.211707 80.460441 
L 44.180066 79.756661 
L 44.147962 79.052882 
L 44.116884 78.349102 
L 44.088392 77.645322 
L 44.063939 76.941543 
L 44.044686 76.237763 
L 44.03135 75.533983 
L 44.024084 74.830204 
L 44.022453 74.126424 
L 44.025474 73.422645 
L 44.031752 72.718865 
L 44.039674 72.015085 
L 44.047632 71.311306 
L 44.054246 70.607526 
L 44.058535 69.903747 
L 44.060023 69.199967 
L 44.058754 68.496187 
L 44.05522 67.792408 
L 44.050209 67.088628 
L 44.044613 66.384848 
L 44.039224 65.681069 
L 44.034544 64.977289 
L 44.030647 64.27351 
L 44.027104 63.56973 
L 44.022979 62.86595 
L 44.016887 62.162171 
L 44.007116 61.458391 
L 43.991782 60.754612 
L 43.969016 60.050832 
L 43.937168 59.347052 
L 43.895008 58.643273 
L 43.841924 57.939493 
L 43.778086 57.235713 
L 43.704568 56.531934 
L 43.623396 55.828154 
L 43.537512 55.124375 
L 43.45062 54.420595 
L 43.366938 53.716815 
L 43.290847 53.013036 
L 43.226486 52.309256 
L 43.177328 51.605477 
L 43.145802 50.901697 
L 43.133007 50.197917 
L 43.138567 49.494138 
L 43.160648 48.790358 
L 43.196142 48.086579 
L 43.24099 47.382799 
L 43.290608 46.679019 
L 43.340355 45.97524 
L 43.385991 45.27146 
L 43.424059 44.56768 
L 43.452179 43.863901 
L 43.469202 43.160121 
L 43.475249 42.456342 
L 43.471622 41.752562 
L 43.46063 41.048782 
L 43.44534 40.345003 
L 43.429278 39.641223 
L 43.416115 38.937444 
L 43.409348 38.233664 
L 43.412 37.529884 
L 43.426363 36.826105 
L 43.453801 36.122325 
L 43.494639 35.418545 
L 45.258997 35.418545 
L 45.258997 35.418545 
L 45.299836 36.122325 
L 45.327273 36.826105 
L 45.341636 37.529884 
L 45.344288 38.233664 
L 45.337522 38.937444 
L 45.324359 39.641223 
L 45.308296 40.345003 
L 45.293006 41.048782 
L 45.282014 41.752562 
L 45.278387 42.456342 
L 45.284434 43.160121 
L 45.301457 43.863901 
L 45.329577 44.56768 
L 45.367646 45.27146 
L 45.413281 45.97524 
L 45.463029 46.679019 
L 45.512647 47.382799 
L 45.557495 48.086579 
L 45.592988 48.790358 
L 45.615069 49.494138 
L 45.620629 50.197917 
L 45.607835 50.901697 
L 45.576308 51.605477 
L 45.52715 52.309256 
L 45.462789 53.013036 
L 45.386698 53.716815 
L 45.303016 54.420595 
L 45.216124 55.124375 
L 45.13024 55.828154 
L 45.049069 56.531934 
L 44.97555 57.235713 
L 44.911712 57.939493 
L 44.858628 58.643273 
L 44.816469 59.347052 
L 44.784621 60.050832 
L 44.761855 60.754612 
L 44.746521 61.458391 
L 44.736749 62.162171 
L 44.730658 62.86595 
L 44.726532 63.56973 
L 44.722989 64.27351 
L 44.719092 64.977289 
L 44.714412 65.681069 
L 44.709023 66.384848 
L 44.703428 67.088628 
L 44.698416 67.792408 
L 44.694882 68.496187 
L 44.693614 69.199967 
L 44.695102 69.903747 
L 44.69939 70.607526 
L 44.706004 71.311306 
L 44.713963 72.015085 
L 44.721885 72.718865 
L 44.728163 73.422645 
L 44.731183 74.126424 
L 44.729552 74.830204 
L 44.722287 75.533983 
L 44.70895 76.237763 
L 44.689698 76.941543 
L 44.665244 77.645322 
L 44.636752 78.349102 
L 44.605675 79.052882 
L 44.57357 79.756661 
L 44.54193 80.460441 
L 44.512035 81.16422 
L 44.484862 81.868 
L 44.461042 82.57178 
L 44.440865 83.275559 
L 44.424327 83.979339 
L 44.411194 84.683118 
L 44.401084 85.386898 
L 44.393534 86.090678 
L 44.388067 86.794457 
L 44.384235 87.498237 
L 44.38165 88.202017 
L 44.379999 88.905796 
L 44.379052 89.609576 
L 44.378659 90.313355 
L 44.378746 91.017135 
L 44.379311 91.720915 
L 44.380423 92.424694 
L 44.382213 93.128474 
L 44.38487 93.832253 
L 44.388633 94.536033 
L 44.393773 95.239813 
L 44.400572 95.943592 
L 44.409287 96.647372 
L 44.420107 97.351152 
L 44.433109 98.054931 
L 44.448209 98.758711 
L 44.465123 99.46249 
L 44.483347 100.16627 
L 44.502156 100.87005 
L 44.520643 101.573829 
L 44.53778 102.277609 
L 44.552508 102.981388 
L 44.563847 103.685168 
L 44.570998 104.388948 
L 44.573442 105.092727 
L 44.573442 105.092727 
z
" clip-path="url(#p851156b1f5)" style="fill: none; stroke: #fa8072; stroke-opacity: 0.8; stroke-width: 2"/>
   </g>
   <g id="PolyCollection_2">
    <path d="M 67.642955 88.503636 
L 67.377954 88.503636 
L 67.371202 87.900397 
L 67.367113 87.297157 
L 67.365847 86.693917 
L 67.367355 86.090678 
L 67.371362 85.487438 
L 67.377385 84.884198 
L 67.384752 84.280959 
L 67.392659 83.677719 
L 67.400225 83.074479 
L 67.406574 82.47124 
L 67.410908 81.868 
L 67.412594 81.26476 
L 67.411226 80.661521 
L 67.406671 80.058281 
L 67.399092 79.455041 
L 67.388928 78.851802 
L 67.376843 78.248562 
L 67.363639 77.645322 
L 67.350148 77.042083 
L 67.337116 76.438843 
L 67.325096 75.835603 
L 67.314378 75.232364 
L 67.304952 74.629124 
L 67.29654 74.025884 
L 67.288662 73.422645 
L 67.280757 72.819405 
L 67.272306 72.216165 
L 67.262954 71.612926 
L 67.252605 71.009686 
L 67.241456 70.406446 
L 67.229982 69.803207 
L 67.218864 69.199967 
L 67.208876 68.596727 
L 67.200747 67.993488 
L 67.195038 67.390248 
L 67.192028 66.787008 
L 67.191664 66.183769 
L 67.193558 65.580529 
L 67.197043 64.977289 
L 67.201279 64.37405 
L 67.205396 63.77081 
L 67.208634 63.16757 
L 67.210469 62.564331 
L 67.210692 61.961091 
L 67.209422 61.357851 
L 67.207053 60.754612 
L 67.204134 60.151372 
L 67.201219 59.548132 
L 67.198701 58.944893 
L 67.19668 58.341653 
L 67.194882 57.738413 
L 67.192658 57.135174 
L 67.189052 56.531934 
L 67.182941 55.928694 
L 67.173201 55.325455 
L 67.158888 54.722215 
L 67.139373 54.118975 
L 67.114437 53.515736 
L 67.084283 52.912496 
L 67.049486 52.309256 
L 67.010888 51.706017 
L 66.969448 51.102777 
L 66.926099 50.499537 
L 66.881623 49.896298 
L 66.836563 49.293058 
L 66.791211 48.689818 
L 66.745642 48.086579 
L 66.699806 47.483339 
L 66.653647 46.880099 
L 66.607213 46.27686 
L 66.560734 45.67362 
L 66.514638 45.07038 
L 66.469492 44.46714 
L 66.425881 43.863901 
L 66.384251 43.260661 
L 66.344762 42.657421 
L 66.307192 42.054182 
L 66.270938 41.450942 
L 66.235138 40.847702 
L 66.198886 40.244463 
L 66.161532 39.641223 
L 66.122972 39.037983 
L 66.083899 38.434744 
L 66.045916 37.831504 
L 66.011498 37.228264 
L 65.983789 36.625025 
L 65.966261 36.021785 
L 65.962291 35.418545 
L 65.974727 34.815306 
L 66.005512 34.212066 
L 66.055423 33.608826 
L 66.123959 33.005587 
L 66.209382 32.402347 
L 66.308893 31.799107 
L 66.418911 31.195868 
L 66.53541 30.592628 
L 66.654261 29.989388 
L 66.771557 29.386149 
L 66.883867 28.782909 
L 68.137042 28.782909 
L 68.137042 28.782909 
L 68.249352 29.386149 
L 68.366648 29.989388 
L 68.485499 30.592628 
L 68.601998 31.195868 
L 68.712016 31.799107 
L 68.811527 32.402347 
L 68.89695 33.005587 
L 68.965486 33.608826 
L 69.015397 34.212066 
L 69.046182 34.815306 
L 69.058618 35.418545 
L 69.054648 36.021785 
L 69.03712 36.625025 
L 69.009411 37.228264 
L 68.974993 37.831504 
L 68.93701 38.434744 
L 68.897937 39.037983 
L 68.859378 39.641223 
L 68.822023 40.244463 
L 68.785771 40.847702 
L 68.749971 41.450942 
L 68.713718 42.054182 
L 68.676147 42.657421 
L 68.636658 43.260661 
L 68.595029 43.863901 
L 68.551417 44.46714 
L 68.506271 45.07038 
L 68.460175 45.67362 
L 68.413696 46.27686 
L 68.367262 46.880099 
L 68.321103 47.483339 
L 68.275267 48.086579 
L 68.229698 48.689818 
L 68.184346 49.293058 
L 68.139287 49.896298 
L 68.09481 50.499537 
L 68.051461 51.102777 
L 68.010021 51.706017 
L 67.971423 52.309256 
L 67.936626 52.912496 
L 67.906472 53.515736 
L 67.881536 54.118975 
L 67.862021 54.722215 
L 67.847708 55.325455 
L 67.837969 55.928694 
L 67.831857 56.531934 
L 67.828251 57.135174 
L 67.826027 57.738413 
L 67.824229 58.341653 
L 67.822208 58.944893 
L 67.81969 59.548132 
L 67.816775 60.151372 
L 67.813856 60.754612 
L 67.811487 61.357851 
L 67.810217 61.961091 
L 67.810441 62.564331 
L 67.812276 63.16757 
L 67.815513 63.77081 
L 67.81963 64.37405 
L 67.823867 64.977289 
L 67.827351 65.580529 
L 67.829245 66.183769 
L 67.828881 66.787008 
L 67.825871 67.390248 
L 67.820162 67.993488 
L 67.812034 68.596727 
L 67.802045 69.199967 
L 67.790927 69.803207 
L 67.779453 70.406446 
L 67.768304 71.009686 
L 67.757955 71.612926 
L 67.748603 72.216165 
L 67.740152 72.819405 
L 67.732247 73.422645 
L 67.724369 74.025884 
L 67.715957 74.629124 
L 67.706531 75.232364 
L 67.695813 75.835603 
L 67.683794 76.438843 
L 67.670761 77.042083 
L 67.65727 77.645322 
L 67.644066 78.248562 
L 67.631981 78.851802 
L 67.621817 79.455041 
L 67.614238 80.058281 
L 67.609683 80.661521 
L 67.608315 81.26476 
L 67.610001 81.868 
L 67.614336 82.47124 
L 67.620684 83.074479 
L 67.62825 83.677719 
L 67.636157 84.280959 
L 67.643525 84.884198 
L 67.649547 85.487438 
L 67.653554 86.090678 
L 67.655062 86.693917 
L 67.653796 87.297157 
L 67.649707 87.900397 
L 67.642955 88.503636 
L 67.642955 88.503636 
z
" clip-path="url(#p851156b1f5)" style="fill: none; stroke: #fa8072; stroke-opacity: 0.8; stroke-width: 2"/>
   </g>
   <g id="PolyCollection_3">
    <path d="M 90.828497 61.961091 
L 90.459685 61.961091 
L 90.449792 61.625958 
L 90.441699 61.290825 
L 90.435024 60.955691 
L 90.429264 60.620558 
L 90.423865 60.285425 
L 90.418294 59.950292 
L 90.412072 59.615159 
L 90.404804 59.280026 
L 90.396178 58.944893 
L 90.385971 58.609759 
L 90.374057 58.274626 
L 90.360428 57.939493 
L 90.345226 57.60436 
L 90.328768 57.269227 
L 90.31155 56.934094 
L 90.294213 56.598961 
L 90.277472 56.263827 
L 90.262012 55.928694 
L 90.248368 55.593561 
L 90.236838 55.258428 
L 90.227427 54.923295 
L 90.219859 54.588162 
L 90.213637 54.253028 
L 90.208147 53.917895 
L 90.202764 53.582762 
L 90.196935 53.247629 
L 90.190217 52.912496 
L 90.182279 52.577363 
L 90.172858 52.24223 
L 90.161721 51.907096 
L 90.148639 51.571963 
L 90.133388 51.23683 
L 90.11579 50.901697 
L 90.095748 50.566564 
L 90.073284 50.231431 
L 90.048521 49.896298 
L 90.021633 49.561164 
L 89.992755 49.226031 
L 89.961892 48.890898 
L 89.928862 48.555765 
L 89.893287 48.220632 
L 89.854659 47.885499 
L 89.812441 47.550365 
L 89.766176 47.215232 
L 89.715551 46.880099 
L 89.660405 46.544966 
L 89.600664 46.209833 
L 89.536246 45.8747 
L 89.467001 45.539567 
L 89.392719 45.204433 
L 89.31327 44.8693 
L 89.228827 44.534167 
L 89.140133 44.199034 
L 89.048711 43.863901 
L 88.956906 43.528768 
L 88.867729 43.193635 
L 88.78447 42.858501 
L 88.710201 42.523368 
L 88.647274 42.188235 
L 88.596972 41.853102 
L 88.559436 41.517969 
L 88.533885 41.182836 
L 88.519089 40.847702 
L 88.513933 40.512569 
L 88.517908 40.177436 
L 88.531359 39.842303 
L 88.555407 39.50717 
L 88.591551 39.172037 
L 88.641072 38.836904 
L 88.704401 38.50177 
L 88.780637 38.166637 
L 88.867345 37.831504 
L 88.960679 37.496371 
L 89.055791 37.161238 
L 89.14741 36.826105 
L 89.230451 36.490972 
L 89.300544 36.155838 
L 89.3544 35.820705 
L 89.390015 35.485572 
L 89.406749 35.150439 
L 89.405315 34.815306 
L 89.387729 34.480173 
L 89.357221 34.145039 
L 89.318071 33.809906 
L 89.27534 33.474773 
L 89.234469 33.13964 
L 89.200755 32.804507 
L 89.178784 32.469374 
L 89.171904 32.134241 
L 89.181869 31.799107 
L 89.208743 31.463974 
L 89.251079 31.128841 
L 89.306349 30.793708 
L 89.371516 30.458575 
L 89.443613 30.123442 
L 89.520191 29.788309 
L 89.599559 29.453175 
L 89.680772 29.118042 
L 89.763421 28.782909 
L 91.524761 28.782909 
L 91.524761 28.782909 
L 91.607409 29.118042 
L 91.688622 29.453175 
L 91.767991 29.788309 
L 91.844569 30.123442 
L 91.916666 30.458575 
L 91.981833 30.793708 
L 92.037103 31.128841 
L 92.079439 31.463974 
L 92.106313 31.799107 
L 92.116278 32.134241 
L 92.109397 32.469374 
L 92.087426 32.804507 
L 92.053713 33.13964 
L 92.012842 33.474773 
L 91.970111 33.809906 
L 91.93096 34.145039 
L 91.900452 34.480173 
L 91.882867 34.815306 
L 91.881433 35.150439 
L 91.898167 35.485572 
L 91.933782 35.820705 
L 91.987638 36.155838 
L 92.057731 36.490972 
L 92.140772 36.826105 
L 92.232391 37.161238 
L 92.327503 37.496371 
L 92.420837 37.831504 
L 92.507544 38.166637 
L 92.583781 38.50177 
L 92.64711 38.836904 
L 92.696631 39.172037 
L 92.732775 39.50717 
L 92.756822 39.842303 
L 92.770274 40.177436 
L 92.774249 40.512569 
L 92.769093 40.847702 
L 92.754297 41.182836 
L 92.728746 41.517969 
L 92.69121 41.853102 
L 92.640908 42.188235 
L 92.577981 42.523368 
L 92.503712 42.858501 
L 92.420453 43.193635 
L 92.331275 43.528768 
L 92.239471 43.863901 
L 92.148049 44.199034 
L 92.059355 44.534167 
L 91.974912 44.8693 
L 91.895463 45.204433 
L 91.821181 45.539567 
L 91.751935 45.8747 
L 91.687518 46.209833 
L 91.627776 46.544966 
L 91.572631 46.880099 
L 91.522006 47.215232 
L 91.47574 47.550365 
L 91.433523 47.885499 
L 91.394895 48.220632 
L 91.35932 48.555765 
L 91.32629 48.890898 
L 91.295427 49.226031 
L 91.266549 49.561164 
L 91.239661 49.896298 
L 91.214898 50.231431 
L 91.192434 50.566564 
L 91.172392 50.901697 
L 91.154793 51.23683 
L 91.139543 51.571963 
L 91.126461 51.907096 
L 91.115324 52.24223 
L 91.105903 52.577363 
L 91.097965 52.912496 
L 91.091247 53.247629 
L 91.085417 53.582762 
L 91.080035 53.917895 
L 91.074545 54.253028 
L 91.068323 54.588162 
L 91.060755 54.923295 
L 91.051344 55.258428 
L 91.039814 55.593561 
L 91.02617 55.928694 
L 91.010709 56.263827 
L 90.993969 56.598961 
L 90.976632 56.934094 
L 90.959413 57.269227 
L 90.942955 57.60436 
L 90.927753 57.939493 
L 90.914124 58.274626 
L 90.90221 58.609759 
L 90.892004 58.944893 
L 90.883378 59.280026 
L 90.87611 59.615159 
L 90.869888 59.950292 
L 90.864317 60.285425 
L 90.858918 60.620558 
L 90.853157 60.955691 
L 90.846483 61.290825 
L 90.83839 61.625958 
L 90.828497 61.961091 
L 90.828497 61.961091 
z
" clip-path="url(#p851156b1f5)" style="fill: none; stroke: #fa8072; stroke-opacity: 0.8; stroke-width: 2"/>
   </g>
   <g id="PolyCollection_4">
    <path d="M 113.911112 71.914545 
L 113.644343 71.914545 
L 113.647822 71.411846 
L 113.657724 70.909146 
L 113.67258 70.406446 
L 113.69034 69.903747 
L 113.708838 69.401047 
L 113.726215 68.898347 
L 113.741184 68.395647 
L 113.753119 67.892948 
L 113.761958 67.390248 
L 113.76802 66.887548 
L 113.771774 66.384848 
L 113.77365 65.882149 
L 113.773878 65.379449 
L 113.772394 64.876749 
L 113.768781 64.37405 
L 113.762277 63.87135 
L 113.751847 63.36865 
L 113.736378 62.86595 
L 113.714975 62.363251 
L 113.687365 61.860551 
L 113.654297 61.357851 
L 113.617804 60.855152 
L 113.581191 60.352452 
L 113.54863 59.849752 
L 113.524425 59.347052 
L 113.512081 58.844353 
L 113.513476 58.341653 
L 113.52839 57.838953 
L 113.554553 57.336253 
L 113.588201 56.833554 
L 113.624937 56.330854 
L 113.660621 55.828154 
L 113.692027 55.325455 
L 113.717134 54.822755 
L 113.735049 54.320055 
L 113.745696 53.817355 
L 113.749431 53.314656 
L 113.746736 52.811956 
L 113.738071 52.309256 
L 113.723877 51.806556 
L 113.704671 51.303857 
L 113.681124 50.801157 
L 113.654058 50.298457 
L 113.624311 49.795758 
L 113.59252 49.293058 
L 113.558897 48.790358 
L 113.523084 48.287658 
L 113.484141 47.784959 
L 113.440641 47.282259 
L 113.390835 46.779559 
L 113.332839 46.27686 
L 113.264864 45.77416 
L 113.185514 45.27146 
L 113.094157 44.76876 
L 112.991264 44.266061 
L 112.878531 43.763361 
L 112.758662 43.260661 
L 112.634829 42.757961 
L 112.510091 42.255262 
L 112.387122 41.752562 
L 112.268484 41.249862 
L 112.157271 40.747163 
L 112.057653 40.244463 
L 111.97473 39.741763 
L 111.913442 39.239063 
L 111.876848 38.736364 
L 111.864498 38.233664 
L 111.871718 37.730964 
L 111.890181 37.228264 
L 111.909586 36.725565 
L 111.919823 36.222865 
L 111.912984 35.720165 
L 111.88485 35.217466 
L 111.835751 34.714766 
L 111.770808 34.212066 
L 111.699456 33.709366 
L 111.634048 33.206667 
L 111.587579 32.703967 
L 111.570972 32.201267 
L 111.59078 31.698567 
L 111.648176 31.195868 
L 111.739611 30.693168 
L 111.85875 30.190468 
L 111.998706 29.687769 
L 112.153558 29.185069 
L 112.318629 28.682369 
L 112.489748 28.179669 
L 112.662251 27.67697 
L 112.830467 27.17427 
L 112.988072 26.67157 
L 113.129117 26.168871 
L 113.249225 25.666171 
L 113.346432 25.163471 
L 113.42138 24.660771 
L 113.476907 24.158072 
L 113.517261 23.655372 
L 113.547199 23.152672 
L 113.571184 22.649972 
L 113.592777 22.147273 
L 113.962678 22.147273 
L 113.962678 22.147273 
L 113.984271 22.649972 
L 114.008255 23.152672 
L 114.038194 23.655372 
L 114.078548 24.158072 
L 114.134075 24.660771 
L 114.209022 25.163471 
L 114.306229 25.666171 
L 114.426338 26.168871 
L 114.567382 26.67157 
L 114.724987 27.17427 
L 114.893204 27.67697 
L 115.065707 28.179669 
L 115.236826 28.682369 
L 115.401896 29.185069 
L 115.556749 29.687769 
L 115.696705 30.190468 
L 115.815843 30.693168 
L 115.907279 31.195868 
L 115.964675 31.698567 
L 115.984482 32.201267 
L 115.967875 32.703967 
L 115.921407 33.206667 
L 115.855998 33.709366 
L 115.784646 34.212066 
L 115.719704 34.714766 
L 115.670604 35.217466 
L 115.64247 35.720165 
L 115.635632 36.222865 
L 115.645868 36.725565 
L 115.665273 37.228264 
L 115.683737 37.730964 
L 115.690957 38.233664 
L 115.678607 38.736364 
L 115.642012 39.239063 
L 115.580725 39.741763 
L 115.497801 40.244463 
L 115.398184 40.747163 
L 115.286971 41.249862 
L 115.168332 41.752562 
L 115.045364 42.255262 
L 114.920625 42.757961 
L 114.796793 43.260661 
L 114.676924 43.763361 
L 114.564191 44.266061 
L 114.461297 44.76876 
L 114.369941 45.27146 
L 114.290591 45.77416 
L 114.222616 46.27686 
L 114.16462 46.779559 
L 114.114813 47.282259 
L 114.071314 47.784959 
L 114.03237 48.287658 
L 113.996558 48.790358 
L 113.962934 49.293058 
L 113.931143 49.795758 
L 113.901396 50.298457 
L 113.87433 50.801157 
L 113.850784 51.303857 
L 113.831577 51.806556 
L 113.817383 52.309256 
L 113.808718 52.811956 
L 113.806023 53.314656 
L 113.809758 53.817355 
L 113.820406 54.320055 
L 113.838321 54.822755 
L 113.863427 55.325455 
L 113.894834 55.828154 
L 113.930518 56.330854 
L 113.967254 56.833554 
L 114.000902 57.336253 
L 114.027065 57.838953 
L 114.041978 58.341653 
L 114.043374 58.844353 
L 114.03103 59.347052 
L 114.006824 59.849752 
L 113.974264 60.352452 
L 113.93765 60.855152 
L 113.901158 61.357851 
L 113.868089 61.860551 
L 113.84048 62.363251 
L 113.819077 62.86595 
L 113.803607 63.36865 
L 113.793178 63.87135 
L 113.786673 64.37405 
L 113.783061 64.876749 
L 113.781577 65.379449 
L 113.781805 65.882149 
L 113.78368 66.384848 
L 113.787435 66.887548 
L 113.793496 67.390248 
L 113.802336 67.892948 
L 113.81427 68.395647 
L 113.82924 68.898347 
L 113.846616 69.401047 
L 113.865115 69.903747 
L 113.882875 70.406446 
L 113.89773 70.909146 
L 113.907633 71.411846 
L 113.911112 71.914545 
L 113.911112 71.914545 
z
" clip-path="url(#p851156b1f5)" style="fill: none; stroke: #fa8072; stroke-opacity: 0.8; stroke-width: 2"/>
   </g>
   <g id="PolyCollection_5">
    <path d="M 137.101694 61.961091 
L 136.721033 61.961091 
L 136.726463 61.592444 
L 136.741839 61.223798 
L 136.764678 60.855152 
L 136.791578 60.486505 
L 136.819046 60.117859 
L 136.844217 59.749212 
L 136.865271 59.380566 
L 136.881503 59.011919 
L 136.893107 58.643273 
L 136.900829 58.274626 
L 136.905627 57.90598 
L 136.908415 57.537333 
L 136.909934 57.168687 
L 136.910709 56.80004 
L 136.911081 56.431394 
L 136.911248 56.062747 
L 136.911319 55.694101 
L 136.911348 55.325455 
L 136.911358 54.956808 
L 136.911362 54.588162 
L 136.911363 54.219515 
L 136.911363 53.850869 
L 136.911363 53.482222 
L 136.911363 53.113576 
L 136.911362 52.744929 
L 136.911358 52.376283 
L 136.911348 52.007636 
L 136.911319 51.63899 
L 136.911248 51.270343 
L 136.911081 50.901697 
L 136.910709 50.533051 
L 136.909933 50.164404 
L 136.908413 49.795758 
L 136.90562 49.427111 
L 136.900807 49.058465 
L 136.893042 48.689818 
L 136.881326 48.321172 
L 136.86481 47.952525 
L 136.843085 47.583879 
L 136.816427 47.215232 
L 136.785857 46.846586 
L 136.752882 46.477939 
L 136.718883 46.109293 
L 136.684297 45.740646 
L 136.647925 45.372 
L 136.606799 45.003354 
L 136.556892 44.634707 
L 136.494675 44.266061 
L 136.419033 43.897414 
L 136.33275 43.528768 
L 136.242724 43.160121 
L 136.158464 42.791475 
L 136.089149 42.422828 
L 136.040276 42.054182 
L 136.011302 41.685535 
L 135.995452 41.316889 
L 135.981977 40.948242 
L 135.960036 40.579596 
L 135.922486 40.210949 
L 135.86778 39.842303 
L 135.798919 39.473657 
L 135.719822 39.10501 
L 135.630879 38.736364 
L 135.526135 38.367717 
L 135.394112 37.999071 
L 135.222687 37.630424 
L 135.006409 37.261778 
L 134.752992 36.893131 
L 134.485511 36.524485 
L 134.238238 36.155838 
L 134.046801 35.787192 
L 133.936148 35.418545 
L 133.911286 35.049899 
L 133.955066 34.681253 
L 134.034426 34.312606 
L 134.112851 33.94396 
L 134.16391 33.575313 
L 134.180176 33.206667 
L 134.173824 32.83802 
L 134.168921 32.469374 
L 134.189106 32.100727 
L 134.246303 31.732081 
L 134.335474 31.363434 
L 134.437536 30.994788 
L 134.52877 30.626141 
L 134.592237 30.257495 
L 134.625937 29.888848 
L 134.644183 29.520202 
L 134.671803 29.151556 
L 134.733982 28.782909 
L 134.846281 28.414263 
L 135.008975 28.045616 
L 135.207677 27.67697 
L 135.419389 27.308323 
L 135.620972 26.939677 
L 135.796441 26.57103 
L 135.94048 26.202384 
L 136.057523 25.833737 
L 136.157611 25.465091 
L 137.665117 25.465091 
L 137.665117 25.465091 
L 137.765204 25.833737 
L 137.882247 26.202384 
L 138.026286 26.57103 
L 138.201755 26.939677 
L 138.403338 27.308323 
L 138.61505 27.67697 
L 138.813752 28.045616 
L 138.976446 28.414263 
L 139.088745 28.782909 
L 139.150924 29.151556 
L 139.178544 29.520202 
L 139.196791 29.888848 
L 139.230491 30.257495 
L 139.293957 30.626141 
L 139.385192 30.994788 
L 139.487253 31.363434 
L 139.576425 31.732081 
L 139.633621 32.100727 
L 139.653806 32.469374 
L 139.648904 32.83802 
L 139.642551 33.206667 
L 139.658817 33.575313 
L 139.709876 33.94396 
L 139.788301 34.312606 
L 139.867661 34.681253 
L 139.911441 35.049899 
L 139.88658 35.418545 
L 139.775926 35.787192 
L 139.584489 36.155838 
L 139.337216 36.524485 
L 139.069735 36.893131 
L 138.816318 37.261778 
L 138.60004 37.630424 
L 138.428616 37.999071 
L 138.296592 38.367717 
L 138.191848 38.736364 
L 138.102905 39.10501 
L 138.023808 39.473657 
L 137.954947 39.842303 
L 137.900242 40.210949 
L 137.862691 40.579596 
L 137.84075 40.948242 
L 137.827276 41.316889 
L 137.811426 41.685535 
L 137.782452 42.054182 
L 137.733578 42.422828 
L 137.664263 42.791475 
L 137.580003 43.160121 
L 137.489977 43.528768 
L 137.403694 43.897414 
L 137.328052 44.266061 
L 137.265835 44.634707 
L 137.215929 45.003354 
L 137.174802 45.372 
L 137.13843 45.740646 
L 137.103844 46.109293 
L 137.069846 46.477939 
L 137.036871 46.846586 
L 137.0063 47.215232 
L 136.979642 47.583879 
L 136.957918 47.952525 
L 136.941402 48.321172 
L 136.929685 48.689818 
L 136.92192 49.058465 
L 136.917108 49.427111 
L 136.914314 49.795758 
L 136.912794 50.164404 
L 136.912018 50.533051 
L 136.911646 50.901697 
L 136.911479 51.270343 
L 136.911408 51.63899 
L 136.91138 52.007636 
L 136.911369 52.376283 
L 136.911365 52.744929 
L 136.911364 53.113576 
L 136.911364 53.482222 
L 136.911364 53.850869 
L 136.911364 54.219515 
L 136.911365 54.588162 
L 136.911369 54.956808 
L 136.91138 55.325455 
L 136.911408 55.694101 
L 136.911479 56.062747 
L 136.911646 56.431394 
L 136.912018 56.80004 
L 136.912794 57.168687 
L 136.914312 57.537333 
L 136.9171 57.90598 
L 136.921898 58.274626 
L 136.929621 58.643273 
L 136.941224 59.011919 
L 136.957456 59.380566 
L 136.978511 59.749212 
L 137.003681 60.117859 
L 137.031149 60.486505 
L 137.058049 60.855152 
L 137.080888 61.223798 
L 137.096264 61.592444 
L 137.101694 61.961091 
L 137.101694 61.961091 
z
" clip-path="url(#p851156b1f5)" style="fill: none; stroke: #fa8072; stroke-opacity: 0.8; stroke-width: 2"/>
   </g>
   <g id="PolyCollection_6">
    <path d="M 160.283065 48.689818 
L 159.806935 48.689818 
L 159.79974 48.455225 
L 159.794823 48.220632 
L 159.790484 47.986039 
L 159.784753 47.751445 
L 159.775727 47.516852 
L 159.761937 47.282259 
L 159.742672 47.047666 
L 159.718189 46.813073 
L 159.689748 46.578479 
L 159.659463 46.343886 
L 159.629965 46.109293 
L 159.603935 45.8747 
L 159.583585 45.640107 
L 159.570198 45.405513 
L 159.563804 45.17092 
L 159.563087 44.936327 
L 159.565555 44.701734 
L 159.567944 44.46714 
L 159.566814 44.232547 
L 159.559206 43.997954 
L 159.543261 43.763361 
L 159.51865 43.528768 
L 159.486743 43.294174 
L 159.450454 43.059581 
L 159.413781 42.824988 
L 159.38112 42.590395 
L 159.356465 42.355802 
L 159.342653 42.121208 
L 159.340805 41.886615 
L 159.350075 41.652022 
L 159.367762 41.417429 
L 159.389779 41.182836 
L 159.411385 40.948242 
L 159.428049 40.713649 
L 159.436265 40.479056 
L 159.434179 40.244463 
L 159.421879 40.00987 
L 159.401305 39.775276 
L 159.37578 39.540683 
L 159.34925 39.30609 
L 159.325381 39.071497 
L 159.306684 38.836904 
L 159.293857 38.60231 
L 159.28548 38.367717 
L 159.278156 38.133124 
L 159.267079 37.898531 
L 159.246957 37.663938 
L 159.213106 37.429344 
L 159.162514 37.194751 
L 159.094622 36.960158 
L 159.011654 36.725565 
L 158.918352 36.490972 
L 158.821111 36.256378 
L 158.726627 36.021785 
L 158.640283 35.787192 
L 158.564596 35.552599 
L 158.498057 35.318006 
L 158.434687 35.083412 
L 158.364516 34.848819 
L 158.275015 34.614226 
L 158.153337 34.379633 
L 157.989031 34.145039 
L 157.776734 33.910446 
L 157.518298 33.675853 
L 157.223841 33.44126 
L 156.911363 33.206667 
L 156.604828 32.972073 
L 156.330905 32.73748 
L 156.114889 32.502887 
L 155.976505 32.268294 
L 155.926421 32.033701 
L 155.96418 31.799107 
L 156.078022 31.564514 
L 156.246703 31.329921 
L 156.44299 31.095328 
L 156.638218 30.860735 
L 156.807042 30.626141 
L 156.931502 30.391548 
L 157.003682 30.156955 
L 157.026503 29.922362 
L 157.012579 29.687769 
L 156.981407 29.453175 
L 156.9555 29.218582 
L 156.956184 28.983989 
L 156.999881 28.749396 
L 157.095492 28.514803 
L 157.243312 28.280209 
L 157.435546 28.045616 
L 157.658212 27.811023 
L 157.893952 27.57643 
L 158.125163 27.341837 
L 158.33683 27.107243 
L 158.518606 26.87265 
L 158.665828 26.638057 
L 158.779449 26.403464 
L 158.865024 26.168871 
L 158.931073 25.934277 
L 158.987185 25.699684 
L 159.042247 25.465091 
L 161.047753 25.465091 
L 161.047753 25.465091 
L 161.102815 25.699684 
L 161.158927 25.934277 
L 161.224976 26.168871 
L 161.310551 26.403464 
L 161.424172 26.638057 
L 161.571394 26.87265 
L 161.75317 27.107243 
L 161.964837 27.341837 
L 162.196048 27.57643 
L 162.431788 27.811023 
L 162.654454 28.045616 
L 162.846688 28.280209 
L 162.994508 28.514803 
L 163.090119 28.749396 
L 163.133816 28.983989 
L 163.1345 29.218582 
L 163.108593 29.453175 
L 163.077421 29.687769 
L 163.063497 29.922362 
L 163.086318 30.156955 
L 163.158498 30.391548 
L 163.282958 30.626141 
L 163.451782 30.860735 
L 163.64701 31.095328 
L 163.843297 31.329921 
L 164.011978 31.564514 
L 164.12582 31.799107 
L 164.163579 32.033701 
L 164.113495 32.268294 
L 163.975111 32.502887 
L 163.759095 32.73748 
L 163.485172 32.972073 
L 163.178637 33.206667 
L 162.866159 33.44126 
L 162.571702 33.675853 
L 162.313266 33.910446 
L 162.100969 34.145039 
L 161.936663 34.379633 
L 161.814985 34.614226 
L 161.725484 34.848819 
L 161.655313 35.083412 
L 161.591943 35.318006 
L 161.525404 35.552599 
L 161.449717 35.787192 
L 161.363373 36.021785 
L 161.268889 36.256378 
L 161.171648 36.490972 
L 161.078346 36.725565 
L 160.995378 36.960158 
L 160.927486 37.194751 
L 160.876894 37.429344 
L 160.843043 37.663938 
L 160.822921 37.898531 
L 160.811844 38.133124 
L 160.80452 38.367717 
L 160.796143 38.60231 
L 160.783316 38.836904 
L 160.764619 39.071497 
L 160.74075 39.30609 
L 160.71422 39.540683 
L 160.688695 39.775276 
L 160.668121 40.00987 
L 160.655821 40.244463 
L 160.653735 40.479056 
L 160.661951 40.713649 
L 160.678615 40.948242 
L 160.700221 41.182836 
L 160.722238 41.417429 
L 160.739925 41.652022 
L 160.749195 41.886615 
L 160.747347 42.121208 
L 160.733535 42.355802 
L 160.70888 42.590395 
L 160.676219 42.824988 
L 160.639546 43.059581 
L 160.603257 43.294174 
L 160.57135 43.528768 
L 160.546739 43.763361 
L 160.530794 43.997954 
L 160.523186 44.232547 
L 160.522056 44.46714 
L 160.524445 44.701734 
L 160.526913 44.936327 
L 160.526196 45.17092 
L 160.519802 45.405513 
L 160.506415 45.640107 
L 160.486065 45.8747 
L 160.460035 46.109293 
L 160.430537 46.343886 
L 160.400252 46.578479 
L 160.371811 46.813073 
L 160.347328 47.047666 
L 160.328063 47.282259 
L 160.314273 47.516852 
L 160.305247 47.751445 
L 160.299516 47.986039 
L 160.295177 48.220632 
L 160.29026 48.455225 
L 160.283065 48.689818 
L 160.283065 48.689818 
z
" clip-path="url(#p851156b1f5)" style="fill: none; stroke: #fa8072; stroke-opacity: 0.8; stroke-width: 2"/>
   </g>
   <g id="PolyCollection_7">
    <path d="M 183.488309 42.054182 
L 182.868964 42.054182 
L 182.872062 41.886615 
L 182.883084 41.719049 
L 182.900115 41.551482 
L 182.920351 41.383916 
L 182.940332 41.216349 
L 182.956231 41.048782 
L 182.964185 40.881216 
L 182.960631 40.713649 
L 182.942648 40.546083 
L 182.908291 40.378516 
L 182.85691 40.210949 
L 182.789419 40.043383 
L 182.708467 39.875816 
L 182.61844 39.70825 
L 182.525246 39.540683 
L 182.43583 39.373117 
L 182.357448 39.20555 
L 182.296764 39.037983 
L 182.258891 38.870417 
L 182.246524 38.70285 
L 182.259305 38.535284 
L 182.293528 38.367717 
L 182.342215 38.200151 
L 182.395546 38.032584 
L 182.441574 37.865017 
L 182.467143 37.697451 
L 182.45896 37.529884 
L 182.404765 37.362318 
L 182.294598 37.194751 
L 182.122142 37.027185 
L 181.886032 36.859618 
L 181.590995 36.692051 
L 181.248557 36.524485 
L 180.877032 36.356918 
L 180.50057 36.189352 
L 180.147137 36.021785 
L 179.845564 35.854219 
L 179.621994 35.686652 
L 179.49628 35.519085 
L 179.478963 35.351519 
L 179.569373 35.183952 
L 179.755226 35.016386 
L 180.013745 34.848819 
L 180.314103 34.681253 
L 180.620712 34.513686 
L 180.89685 34.346119 
L 181.10815 34.178553 
L 181.225654 34.010986 
L 181.228292 33.84342 
L 181.104788 33.675853 
L 180.85499 33.508287 
L 180.49059 33.34072 
L 180.035045 33.173153 
L 179.522445 33.005587 
L 178.99512 32.83802 
L 178.499912 32.670454 
L 178.083342 32.502887 
L 177.786237 32.33532 
L 177.638616 32.167754 
L 177.655722 32.000187 
L 177.835967 31.832621 
L 178.161183 31.665054 
L 178.599142 31.497488 
L 179.107841 31.329921 
L 179.640757 31.162354 
L 180.152163 30.994788 
L 180.601746 30.827221 
L 180.958007 30.659655 
L 181.200307 30.492088 
L 181.319638 30.324522 
L 181.318399 30.156955 
L 181.209433 29.989388 
L 181.014502 29.821822 
L 180.762277 29.654255 
L 180.485822 29.486689 
L 180.219627 29.319122 
L 179.996306 29.151556 
L 179.843283 28.983989 
L 179.77989 28.816422 
L 179.815342 28.648856 
L 179.947968 28.481289 
L 180.16586 28.313723 
L 180.448826 28.146156 
L 180.7713 27.97859 
L 181.105679 27.811023 
L 181.425546 27.643456 
L 181.708316 27.47589 
L 181.937052 27.308323 
L 182.101382 27.140757 
L 182.197631 26.97319 
L 182.228364 26.805624 
L 182.201537 26.638057 
L 182.129409 26.47049 
L 182.027284 26.302924 
L 181.912115 26.135357 
L 181.800993 25.967791 
L 181.70959 25.800224 
L 181.650685 25.632657 
L 181.632966 25.465091 
L 184.724307 25.465091 
L 184.724307 25.465091 
L 184.706588 25.632657 
L 184.647683 25.800224 
L 184.556279 25.967791 
L 184.445158 26.135357 
L 184.329989 26.302924 
L 184.227864 26.47049 
L 184.155736 26.638057 
L 184.128909 26.805624 
L 184.159641 26.97319 
L 184.255891 27.140757 
L 184.420221 27.308323 
L 184.648957 27.47589 
L 184.931727 27.643456 
L 185.251594 27.811023 
L 185.585973 27.97859 
L 185.908446 28.146156 
L 186.191412 28.313723 
L 186.409305 28.481289 
L 186.541931 28.648856 
L 186.577383 28.816422 
L 186.51399 28.983989 
L 186.360967 29.151556 
L 186.137645 29.319122 
L 185.87145 29.486689 
L 185.594996 29.654255 
L 185.34277 29.821822 
L 185.14784 29.989388 
L 185.038873 30.156955 
L 185.037634 30.324522 
L 185.156965 30.492088 
L 185.399266 30.659655 
L 185.755527 30.827221 
L 186.20511 30.994788 
L 186.716516 31.162354 
L 187.249432 31.329921 
L 187.758131 31.497488 
L 188.196089 31.665054 
L 188.521306 31.832621 
L 188.701551 32.000187 
L 188.718657 32.167754 
L 188.571036 32.33532 
L 188.273931 32.502887 
L 187.857361 32.670454 
L 187.362152 32.83802 
L 186.834828 33.005587 
L 186.322228 33.173153 
L 185.866682 33.34072 
L 185.502283 33.508287 
L 185.252485 33.675853 
L 185.12898 33.84342 
L 185.131619 34.010986 
L 185.249123 34.178553 
L 185.460423 34.346119 
L 185.736561 34.513686 
L 186.04317 34.681253 
L 186.343528 34.848819 
L 186.602047 35.016386 
L 186.787899 35.183952 
L 186.87831 35.351519 
L 186.860993 35.519085 
L 186.735279 35.686652 
L 186.511708 35.854219 
L 186.210136 36.021785 
L 185.856703 36.189352 
L 185.48024 36.356918 
L 185.108716 36.524485 
L 184.766277 36.692051 
L 184.471241 36.859618 
L 184.235131 37.027185 
L 184.062674 37.194751 
L 183.952508 37.362318 
L 183.898312 37.529884 
L 183.89013 37.697451 
L 183.915699 37.865017 
L 183.961726 38.032584 
L 184.015057 38.200151 
L 184.063745 38.367717 
L 184.097968 38.535284 
L 184.110748 38.70285 
L 184.098381 38.870417 
L 184.060509 39.037983 
L 183.999825 39.20555 
L 183.921443 39.373117 
L 183.832026 39.540683 
L 183.738832 39.70825 
L 183.648806 39.875816 
L 183.567854 40.043383 
L 183.500363 40.210949 
L 183.448982 40.378516 
L 183.414625 40.546083 
L 183.396642 40.713649 
L 183.393088 40.881216 
L 183.401042 41.048782 
L 183.416941 41.216349 
L 183.436922 41.383916 
L 183.457158 41.551482 
L 183.474189 41.719049 
L 183.485211 41.886615 
L 183.488309 42.054182 
L 183.488309 42.054182 
z
" clip-path="url(#p851156b1f5)" style="fill: none; stroke: #fa8072; stroke-opacity: 0.8; stroke-width: 2"/>
   </g>
   <g id="PolyCollection_8">
    <path d="M 206.524007 58.643273 
L 206.100538 58.643273 
L 206.107987 58.274626 
L 206.1288 57.90598 
L 206.158882 57.537333 
L 206.192897 57.168687 
L 206.225792 56.80004 
L 206.253953 56.431394 
L 206.275662 56.062747 
L 206.290879 55.694101 
L 206.300636 55.325455 
L 206.30638 54.956808 
L 206.309495 54.588162 
L 206.311054 54.219515 
L 206.311775 53.850869 
L 206.312083 53.482222 
L 206.312206 53.113576 
L 206.312251 52.744929 
L 206.312266 52.376283 
L 206.312271 52.007636 
L 206.312272 51.63899 
L 206.312273 51.270343 
L 206.312273 50.901697 
L 206.312273 50.533051 
L 206.312273 50.164404 
L 206.312273 49.795758 
L 206.312273 49.427111 
L 206.312273 49.058465 
L 206.312273 48.689818 
L 206.312273 48.321172 
L 206.312273 47.952525 
L 206.312273 47.583879 
L 206.312273 47.215232 
L 206.312273 46.846586 
L 206.312273 46.477939 
L 206.312272 46.109293 
L 206.312272 45.740646 
L 206.312269 45.372 
L 206.312259 45.003354 
L 206.312229 44.634707 
L 206.312139 44.266061 
L 206.311894 43.897414 
L 206.311277 43.528768 
L 206.309835 43.160121 
L 206.306717 42.791475 
L 206.300483 42.422828 
L 206.288981 42.054182 
L 206.269425 41.685535 
L 206.238853 41.316889 
L 206.19503 40.948242 
L 206.137607 40.579596 
L 206.069042 40.210949 
L 205.994523 39.842303 
L 205.920327 39.473657 
L 205.85066 39.10501 
L 205.784037 38.736364 
L 205.711052 38.367717 
L 205.61548 37.999071 
L 205.47954 37.630424 
L 205.292165 37.261778 
L 205.056969 36.893131 
L 204.795619 36.524485 
L 204.543351 36.155838 
L 204.33663 35.787192 
L 204.197167 35.418545 
L 204.119542 35.049899 
L 204.069428 34.681253 
L 203.995397 34.312606 
L 203.850932 33.94396 
L 203.617587 33.575313 
L 203.318386 33.206667 
L 203.013832 32.83802 
L 202.780437 32.469374 
L 202.680115 32.100727 
L 202.73389 31.732081 
L 202.91218 31.363434 
L 203.146614 30.994788 
L 203.358312 30.626141 
L 203.489889 30.257495 
L 203.526896 29.888848 
L 203.499631 29.520202 
L 203.465458 29.151556 
L 203.480506 28.782909 
L 203.574014 28.414263 
L 203.736637 28.045616 
L 203.927141 27.67697 
L 204.093286 27.308323 
L 204.196597 26.939677 
L 204.229628 26.57103 
L 204.218558 26.202384 
L 204.210982 25.833737 
L 204.255346 25.465091 
L 204.381592 25.096444 
L 204.591071 24.727798 
L 204.858814 24.359152 
L 205.145441 23.990505 
L 205.412297 23.621859 
L 205.633198 23.253212 
L 205.799041 22.884566 
L 205.915365 22.515919 
L 205.99578 22.147273 
L 206.628766 22.147273 
L 206.628766 22.147273 
L 206.709181 22.515919 
L 206.825504 22.884566 
L 206.991347 23.253212 
L 207.212248 23.621859 
L 207.479105 23.990505 
L 207.765732 24.359152 
L 208.033474 24.727798 
L 208.242954 25.096444 
L 208.3692 25.465091 
L 208.413564 25.833737 
L 208.405987 26.202384 
L 208.394918 26.57103 
L 208.427949 26.939677 
L 208.531259 27.308323 
L 208.697405 27.67697 
L 208.887908 28.045616 
L 209.050531 28.414263 
L 209.144039 28.782909 
L 209.159088 29.151556 
L 209.124914 29.520202 
L 209.09765 29.888848 
L 209.134656 30.257495 
L 209.266233 30.626141 
L 209.477932 30.994788 
L 209.712365 31.363434 
L 209.890655 31.732081 
L 209.944431 32.100727 
L 209.844109 32.469374 
L 209.610713 32.83802 
L 209.306159 33.206667 
L 209.006959 33.575313 
L 208.773614 33.94396 
L 208.629148 34.312606 
L 208.555118 34.681253 
L 208.505003 35.049899 
L 208.427378 35.418545 
L 208.287916 35.787192 
L 208.081194 36.155838 
L 207.828927 36.524485 
L 207.567577 36.893131 
L 207.332381 37.261778 
L 207.145005 37.630424 
L 207.009066 37.999071 
L 206.913493 38.367717 
L 206.840508 38.736364 
L 206.773885 39.10501 
L 206.704219 39.473657 
L 206.630022 39.842303 
L 206.555503 40.210949 
L 206.486938 40.579596 
L 206.429516 40.948242 
L 206.385692 41.316889 
L 206.355121 41.685535 
L 206.335565 42.054182 
L 206.324063 42.422828 
L 206.317829 42.791475 
L 206.31471 43.160121 
L 206.313268 43.528768 
L 206.312651 43.897414 
L 206.312407 44.266061 
L 206.312317 44.634707 
L 206.312286 45.003354 
L 206.312277 45.372 
L 206.312274 45.740646 
L 206.312273 46.109293 
L 206.312273 46.477939 
L 206.312273 46.846586 
L 206.312273 47.215232 
L 206.312273 47.583879 
L 206.312273 47.952525 
L 206.312273 48.321172 
L 206.312273 48.689818 
L 206.312273 49.058465 
L 206.312273 49.427111 
L 206.312273 49.795758 
L 206.312273 50.164404 
L 206.312273 50.533051 
L 206.312273 50.901697 
L 206.312273 51.270343 
L 206.312273 51.63899 
L 206.312275 52.007636 
L 206.312279 52.376283 
L 206.312295 52.744929 
L 206.31234 53.113576 
L 206.312462 53.482222 
L 206.31277 53.850869 
L 206.313491 54.219515 
L 206.31505 54.588162 
L 206.318165 54.956808 
L 206.32391 55.325455 
L 206.333666 55.694101 
L 206.348883 56.062747 
L 206.370593 56.431394 
L 206.398754 56.80004 
L 206.431648 57.168687 
L 206.465663 57.537333 
L 206.495746 57.90598 
L 206.516558 58.274626 
L 206.524007 58.643273 
L 206.524007 58.643273 
z
" clip-path="url(#p851156b1f5)" style="fill: none; stroke: #fa8072; stroke-opacity: 0.8; stroke-width: 2"/>
   </g>
   <g id="PolyCollection_9">
    <path d="M 229.733453 42.054182 
L 229.158365 42.054182 
L 229.162641 41.853102 
L 229.176436 41.652022 
L 229.197508 41.450942 
L 229.222655 41.249862 
L 229.248177 41.048782 
L 229.270407 40.847702 
L 229.286213 40.646623 
L 229.293395 40.445543 
L 229.29096 40.244463 
L 229.27923 40.043383 
L 229.259801 39.842303 
L 229.235337 39.641223 
L 229.209202 39.440143 
L 229.184972 39.239063 
L 229.165846 39.037983 
L 229.154052 38.836904 
L 229.150329 38.635824 
L 229.153574 38.434744 
L 229.160735 38.233664 
L 229.166972 38.032584 
L 229.166088 37.831504 
L 229.151223 37.630424 
L 229.115746 37.429344 
L 229.054306 37.228264 
L 228.963935 37.027185 
L 228.845058 36.826105 
L 228.702208 36.625025 
L 228.5442 36.423945 
L 228.383566 36.222865 
L 228.235155 36.021785 
L 228.114014 35.820705 
L 228.032856 35.619625 
L 227.999597 35.418545 
L 228.015486 35.217466 
L 228.074252 35.016386 
L 228.162478 34.815306 
L 228.261142 34.614226 
L 228.348079 34.413146 
L 228.400945 34.212066 
L 228.400328 34.010986 
L 228.332616 33.809906 
L 228.192361 33.608826 
L 227.983824 33.407747 
L 227.721415 33.206667 
L 227.428732 33.005587 
L 227.136035 32.804507 
L 226.876251 32.603427 
L 226.679973 32.402347 
L 226.570243 32.201267 
L 226.558143 32.000187 
L 226.64009 31.799107 
L 226.797484 31.598028 
L 226.998787 31.396948 
L 227.203674 31.195868 
L 227.368536 30.994788 
L 227.452509 30.793708 
L 227.423258 30.592628 
L 227.261922 30.391548 
L 226.966701 30.190468 
L 226.554606 29.989388 
L 226.060883 29.788309 
L 225.535752 29.587229 
L 225.03842 29.386149 
L 224.628901 29.185069 
L 224.358834 28.983989 
L 224.262958 28.782909 
L 224.353044 28.581829 
L 224.615647 28.380749 
L 225.014194 28.179669 
L 225.494945 27.97859 
L 225.99551 27.77751 
L 226.454187 27.57643 
L 226.818463 27.37535 
L 227.051495 27.17427 
L 227.135976 26.97319 
L 227.075285 26.77211 
L 226.892135 26.57103 
L 226.625021 26.36995 
L 226.322842 26.168871 
L 226.038197 25.967791 
L 225.82009 25.766711 
L 225.707073 25.565631 
L 225.721966 25.364551 
L 225.869177 25.163471 
L 226.135141 24.962391 
L 226.491762 24.761311 
L 226.902016 24.560231 
L 227.326447 24.359152 
L 227.72921 24.158072 
L 228.082561 23.956992 
L 228.369262 23.755912 
L 228.582897 23.554832 
L 228.726533 23.353752 
L 228.81035 23.152672 
L 228.848888 22.951592 
L 228.858353 22.750512 
L 228.85433 22.549433 
L 228.850014 22.348353 
L 228.855069 22.147273 
L 230.036749 22.147273 
L 230.036749 22.147273 
L 230.041804 22.348353 
L 230.037489 22.549433 
L 230.033465 22.750512 
L 230.042931 22.951592 
L 230.081468 23.152672 
L 230.165285 23.353752 
L 230.308921 23.554832 
L 230.522557 23.755912 
L 230.809257 23.956992 
L 231.162608 24.158072 
L 231.565371 24.359152 
L 231.989802 24.560231 
L 232.400056 24.761311 
L 232.756677 24.962391 
L 233.022641 25.163471 
L 233.169852 25.364551 
L 233.184745 25.565631 
L 233.071728 25.766711 
L 232.853621 25.967791 
L 232.568976 26.168871 
L 232.266798 26.36995 
L 231.999683 26.57103 
L 231.816533 26.77211 
L 231.755842 26.97319 
L 231.840323 27.17427 
L 232.073355 27.37535 
L 232.437631 27.57643 
L 232.896308 27.77751 
L 233.396874 27.97859 
L 233.877624 28.179669 
L 234.276171 28.380749 
L 234.538774 28.581829 
L 234.628861 28.782909 
L 234.532984 28.983989 
L 234.262917 29.185069 
L 233.853399 29.386149 
L 233.356066 29.587229 
L 232.830935 29.788309 
L 232.337212 29.989388 
L 231.925117 30.190468 
L 231.629897 30.391548 
L 231.468561 30.592628 
L 231.439309 30.793708 
L 231.523282 30.994788 
L 231.688145 31.195868 
L 231.893031 31.396948 
L 232.094334 31.598028 
L 232.251728 31.799107 
L 232.333676 32.000187 
L 232.321575 32.201267 
L 232.211845 32.402347 
L 232.015567 32.603427 
L 231.755783 32.804507 
L 231.463086 33.005587 
L 231.170403 33.206667 
L 230.907994 33.407747 
L 230.699457 33.608826 
L 230.559202 33.809906 
L 230.49149 34.010986 
L 230.490873 34.212066 
L 230.543739 34.413146 
L 230.630676 34.614226 
L 230.729341 34.815306 
L 230.817566 35.016386 
L 230.876332 35.217466 
L 230.892221 35.418545 
L 230.858962 35.619625 
L 230.777804 35.820705 
L 230.656663 36.021785 
L 230.508252 36.222865 
L 230.347618 36.423945 
L 230.18961 36.625025 
L 230.04676 36.826105 
L 229.927883 37.027185 
L 229.837512 37.228264 
L 229.776072 37.429344 
L 229.740596 37.630424 
L 229.725731 37.831504 
L 229.724847 38.032584 
L 229.731083 38.233664 
L 229.738244 38.434744 
L 229.741489 38.635824 
L 229.737766 38.836904 
L 229.725972 39.037983 
L 229.706847 39.239063 
L 229.682616 39.440143 
L 229.656482 39.641223 
L 229.632017 39.842303 
L 229.612588 40.043383 
L 229.600859 40.244463 
L 229.598423 40.445543 
L 229.605605 40.646623 
L 229.621411 40.847702 
L 229.643641 41.048782 
L 229.669163 41.249862 
L 229.69431 41.450942 
L 229.715382 41.652022 
L 229.729177 41.853102 
L 229.733453 42.054182 
L 229.733453 42.054182 
z
" clip-path="url(#p851156b1f5)" style="fill: none; stroke: #fa8072; stroke-opacity: 0.8; stroke-width: 2"/>
   </g>
   <g id="PolyCollection_10">
    <path d="M 253.002189 35.418545 
L 252.156902 35.418545 
L 252.164728 35.284492 
L 252.187377 35.150439 
L 252.222269 35.016386 
L 252.265556 34.882332 
L 252.312629 34.748279 
L 252.358598 34.614226 
L 252.398584 34.480173 
L 252.427715 34.346119 
L 252.440811 34.212066 
L 252.431824 34.078013 
L 252.393209 33.94396 
L 252.315477 33.809906 
L 252.187228 33.675853 
L 251.995941 33.5418 
L 251.729724 33.407747 
L 251.379985 33.273693 
L 250.944723 33.13964 
L 250.4318 33.005587 
L 249.861321 32.871534 
L 249.266168 32.73748 
L 248.690015 32.603427 
L 248.182634 32.469374 
L 247.793067 32.33532 
L 247.56189 32.201267 
L 247.514271 32.067214 
L 247.655437 31.933161 
L 247.969678 31.799107 
L 248.423111 31.665054 
L 248.96948 31.531001 
L 249.557508 31.396948 
L 250.13806 31.262894 
L 250.669544 31.128841 
L 251.120641 30.994788 
L 251.470186 30.860735 
L 251.704783 30.726681 
L 251.815215 30.592628 
L 251.792934 30.458575 
L 251.627813 30.324522 
L 251.308047 30.190468 
L 250.822586 30.056415 
L 250.165864 29.922362 
L 249.343926 29.788309 
L 248.380451 29.654255 
L 247.320804 29.520202 
L 246.23235 29.386149 
L 245.199872 29.252096 
L 244.316093 29.118042 
L 243.668651 28.983989 
L 243.326099 28.849936 
L 243.326091 28.715882 
L 243.668621 28.581829 
L 244.31602 28.447776 
L 245.199704 28.313723 
L 246.231981 28.179669 
L 247.320027 28.045616 
L 248.378873 27.911563 
L 249.340843 27.77751 
L 250.160064 27.643456 
L 250.812079 27.509403 
L 251.289716 27.37535 
L 251.597016 27.241297 
L 251.743111 27.107243 
L 251.737595 26.97319 
L 251.588334 26.839137 
L 251.301955 26.705084 
L 250.8866 26.57103 
L 250.356007 26.436977 
L 249.733578 26.302924 
L 249.055023 26.168871 
L 248.36836 26.034817 
L 247.730625 25.900764 
L 247.201477 25.766711 
L 246.834799 25.632657 
L 246.670078 25.498604 
L 246.725622 25.364551 
L 246.995326 25.230498 
L 247.449824 25.096444 
L 248.041777 24.962391 
L 248.713976 24.828338 
L 249.408361 24.694285 
L 250.073999 24.560231 
L 250.672554 24.426178 
L 251.180621 24.292125 
L 251.589097 24.158072 
L 251.900419 24.024018 
L 252.124746 23.889965 
L 252.276121 23.755912 
L 252.369337 23.621859 
L 252.41788 23.487805 
L 252.432968 23.353752 
L 252.423467 23.219699 
L 252.396368 23.085646 
L 252.357485 22.951592 
L 252.31209 22.817539 
L 252.265305 22.683486 
L 252.222157 22.549433 
L 252.187328 22.415379 
L 252.164707 22.281326 
L 252.156894 22.147273 
L 253.002197 22.147273 
L 253.002197 22.147273 
L 252.994384 22.281326 
L 252.971763 22.415379 
L 252.936934 22.549433 
L 252.893786 22.683486 
L 252.847001 22.817539 
L 252.801606 22.951592 
L 252.762723 23.085646 
L 252.735624 23.219699 
L 252.726123 23.353752 
L 252.741211 23.487805 
L 252.789754 23.621859 
L 252.88297 23.755912 
L 253.034345 23.889965 
L 253.258672 24.024018 
L 253.569994 24.158072 
L 253.97847 24.292125 
L 254.486536 24.426178 
L 255.085092 24.560231 
L 255.75073 24.694285 
L 256.445115 24.828338 
L 257.117314 24.962391 
L 257.709267 25.096444 
L 258.163765 25.230498 
L 258.433469 25.364551 
L 258.489013 25.498604 
L 258.324292 25.632657 
L 257.957614 25.766711 
L 257.428466 25.900764 
L 256.790731 26.034817 
L 256.104068 26.168871 
L 255.425513 26.302924 
L 254.803084 26.436977 
L 254.272491 26.57103 
L 253.857136 26.705084 
L 253.570756 26.839137 
L 253.421496 26.97319 
L 253.41598 27.107243 
L 253.562075 27.241297 
L 253.869375 27.37535 
L 254.347012 27.509403 
L 254.999027 27.643456 
L 255.818248 27.77751 
L 256.780218 27.911563 
L 257.839064 28.045616 
L 258.92711 28.179669 
L 259.959387 28.313723 
L 260.843071 28.447776 
L 261.49047 28.581829 
L 261.833 28.715882 
L 261.832992 28.849936 
L 261.49044 28.983989 
L 260.842998 29.118042 
L 259.959219 29.252096 
L 258.926741 29.386149 
L 257.838287 29.520202 
L 256.77864 29.654255 
L 255.815165 29.788309 
L 254.993227 29.922362 
L 254.336505 30.056415 
L 253.851044 30.190468 
L 253.531278 30.324522 
L 253.366157 30.458575 
L 253.343876 30.592628 
L 253.454308 30.726681 
L 253.688905 30.860735 
L 254.03845 30.994788 
L 254.489547 31.128841 
L 255.021031 31.262894 
L 255.601583 31.396948 
L 256.189611 31.531001 
L 256.73598 31.665054 
L 257.189413 31.799107 
L 257.503654 31.933161 
L 257.64482 32.067214 
L 257.597201 32.201267 
L 257.366024 32.33532 
L 256.976457 32.469374 
L 256.469076 32.603427 
L 255.892923 32.73748 
L 255.29777 32.871534 
L 254.72729 33.005587 
L 254.214368 33.13964 
L 253.779106 33.273693 
L 253.429367 33.407747 
L 253.16315 33.5418 
L 252.971863 33.675853 
L 252.843614 33.809906 
L 252.765882 33.94396 
L 252.727267 34.078013 
L 252.71828 34.212066 
L 252.731376 34.346119 
L 252.760507 34.480173 
L 252.800493 34.614226 
L 252.846462 34.748279 
L 252.893535 34.882332 
L 252.936822 35.016386 
L 252.971714 35.150439 
L 252.994363 35.284492 
L 253.002189 35.418545 
L 253.002189 35.418545 
z
" clip-path="url(#p851156b1f5)" style="fill: none; stroke: #fa8072; stroke-opacity: 0.8; stroke-width: 2"/>
   </g>
   <g id="PolyCollection_11">
    <path d="M 276.027631 38.736364 
L 275.398733 38.736364 
L 275.402298 38.568797 
L 275.414341 38.40123 
L 275.432872 38.233664 
L 275.454963 38.066097 
L 275.476993 37.898531 
L 275.494962 37.730964 
L 275.50483 37.563398 
L 275.502856 37.395831 
L 275.485942 37.228264 
L 275.451974 37.060698 
L 275.40015 36.893131 
L 275.331285 36.725565 
L 275.24801 36.557998 
L 275.154816 36.390432 
L 275.057857 36.222865 
L 274.964457 36.055298 
L 274.882343 35.887732 
L 274.818667 35.720165 
L 274.778949 35.552599 
L 274.766108 35.385032 
L 274.779752 35.217466 
L 274.815823 35.049899 
L 274.866648 34.882332 
L 274.921378 34.714766 
L 274.966713 34.547199 
L 274.987862 34.379633 
L 274.969662 34.212066 
L 274.89785 34.0445 
L 274.760507 33.876933 
L 274.549667 33.709366 
L 274.262989 33.5418 
L 273.905318 33.374233 
L 273.489762 33.206667 
L 273.037922 33.0391 
L 272.578912 32.871534 
L 272.146987 32.703967 
L 271.777905 32.5364 
L 271.504469 32.368834 
L 271.35195 32.201267 
L 271.334253 32.033701 
L 271.451557 31.866134 
L 271.689922 31.698567 
L 272.02289 31.531001 
L 272.414765 31.363434 
L 272.824882 31.195868 
L 273.212124 31.028301 
L 273.539014 30.860735 
L 273.774948 30.693168 
L 273.898436 30.525601 
L 273.898434 30.358035 
L 273.774939 30.190468 
L 273.53899 30.022902 
L 273.212066 29.855335 
L 272.82475 29.687769 
L 272.414472 29.520202 
L 272.02226 29.352635 
L 271.688609 29.185069 
L 271.448912 29.017502 
L 271.329091 28.849936 
L 271.342198 28.682369 
L 271.486629 28.514803 
L 271.746307 28.347236 
L 272.092799 28.179669 
L 272.488939 28.012103 
L 272.893279 27.844536 
L 273.264619 27.67697 
L 273.566013 27.509403 
L 273.767885 27.341837 
L 273.850185 27.17427 
L 273.803687 27.006703 
L 273.630611 26.839137 
L 273.344635 26.67157 
L 272.970253 26.504004 
L 272.541284 26.336437 
L 272.098347 26.168871 
L 271.685234 26.001304 
L 271.344413 25.833737 
L 271.112181 25.666171 
L 271.014215 25.498604 
L 271.062363 25.331038 
L 271.253314 25.163471 
L 271.569455 24.995904 
L 271.981752 24.828338 
L 272.454088 24.660771 
L 272.948205 24.493205 
L 273.42835 24.325638 
L 273.864926 24.158072 
L 274.236708 23.990505 
L 274.531593 23.822938 
L 274.746113 23.655372 
L 274.884104 23.487805 
L 274.954969 23.320239 
L 274.971863 23.152672 
L 274.950008 22.985106 
L 274.905211 22.817539 
L 274.852574 22.649972 
L 274.805403 22.482406 
L 274.774296 22.314839 
L 274.766493 22.147273 
L 276.659871 22.147273 
L 276.659871 22.147273 
L 276.652067 22.314839 
L 276.620961 22.482406 
L 276.57379 22.649972 
L 276.521153 22.817539 
L 276.476355 22.985106 
L 276.454501 23.152672 
L 276.471395 23.320239 
L 276.54226 23.487805 
L 276.680251 23.655372 
L 276.894771 23.822938 
L 277.189656 23.990505 
L 277.561438 24.158072 
L 277.998013 24.325638 
L 278.478159 24.493205 
L 278.972275 24.660771 
L 279.444612 24.828338 
L 279.856908 24.995904 
L 280.173049 25.163471 
L 280.364001 25.331038 
L 280.412149 25.498604 
L 280.314183 25.666171 
L 280.081951 25.833737 
L 279.74113 26.001304 
L 279.328017 26.168871 
L 278.885079 26.336437 
L 278.456111 26.504004 
L 278.081729 26.67157 
L 277.795753 26.839137 
L 277.622677 27.006703 
L 277.576179 27.17427 
L 277.658478 27.341837 
L 277.86035 27.509403 
L 278.161744 27.67697 
L 278.533085 27.844536 
L 278.937425 28.012103 
L 279.333565 28.179669 
L 279.680057 28.347236 
L 279.939735 28.514803 
L 280.084166 28.682369 
L 280.097273 28.849936 
L 279.977451 29.017502 
L 279.737754 29.185069 
L 279.404104 29.352635 
L 279.011892 29.520202 
L 278.601614 29.687769 
L 278.214297 29.855335 
L 277.887374 30.022902 
L 277.651425 30.190468 
L 277.52793 30.358035 
L 277.527927 30.525601 
L 277.651415 30.693168 
L 277.88735 30.860735 
L 278.21424 31.028301 
L 278.601482 31.195868 
L 279.011599 31.363434 
L 279.403473 31.531001 
L 279.736442 31.698567 
L 279.974806 31.866134 
L 280.092111 32.033701 
L 280.074413 32.201267 
L 279.921895 32.368834 
L 279.648458 32.5364 
L 279.279377 32.703967 
L 278.847451 32.871534 
L 278.388441 33.0391 
L 277.936602 33.206667 
L 277.521045 33.374233 
L 277.163374 33.5418 
L 276.876697 33.709366 
L 276.665856 33.876933 
L 276.528514 34.0445 
L 276.456702 34.212066 
L 276.438502 34.379633 
L 276.459651 34.547199 
L 276.504986 34.714766 
L 276.559715 34.882332 
L 276.610541 35.049899 
L 276.646611 35.217466 
L 276.660256 35.385032 
L 276.647415 35.552599 
L 276.607696 35.720165 
L 276.544021 35.887732 
L 276.461907 36.055298 
L 276.368507 36.222865 
L 276.271547 36.390432 
L 276.178354 36.557998 
L 276.095079 36.725565 
L 276.026213 36.893131 
L 275.97439 37.060698 
L 275.940421 37.228264 
L 275.923508 37.395831 
L 275.921534 37.563398 
L 275.931402 37.730964 
L 275.949371 37.898531 
L 275.9714 38.066097 
L 275.993491 38.233664 
L 276.012023 38.40123 
L 276.024066 38.568797 
L 276.027631 38.736364 
L 276.027631 38.736364 
z
" clip-path="url(#p851156b1f5)" style="fill: none; stroke: #fa8072; stroke-opacity: 0.8; stroke-width: 2"/>
   </g>
   <g id="matplotlib.axis_1">
    <g id="xtick_1">
     <g id="line2d_1">
      <defs>
       <path id="m1ecec09575" d="M 0 0 
L 0 3.5 
" style="stroke: #000000; stroke-width: 0.8"/>
      </defs>
      <g>
       <use xlink:href="#m1ecec09575" x="44.376818" y="109.24" style="stroke: #000000; stroke-width: 0.8"/>
      </g>
     </g>
     <g id="text_1">
      <!-- 1 -->
      <g transform="translate(42.468068 120.799063) scale(0.06 -0.06)">
       <defs>
        <path id="DejaVuSans-31" d="M 794 531 
L 1825 531 
L 1825 4091 
L 703 3866 
L 703 4441 
L 1819 4666 
L 2450 4666 
L 2450 531 
L 3481 531 
L 3481 0 
L 794 0 
L 794 531 
z
" transform="scale(0.015625)"/>
       </defs>
       <use xlink:href="#DejaVuSans-31"/>
      </g>
     </g>
    </g>
    <g id="xtick_2">
     <g id="line2d_2">
      <g>
       <use xlink:href="#m1ecec09575" x="67.510455" y="109.24" style="stroke: #000000; stroke-width: 0.8"/>
      </g>
     </g>
     <g id="text_2">
      <!-- 2 -->
      <g transform="translate(65.601705 120.799063) scale(0.06 -0.06)">
       <defs>
        <path id="DejaVuSans-32" d="M 1228 531 
L 3431 531 
L 3431 0 
L 469 0 
L 469 531 
Q 828 903 1448 1529 
Q 2069 2156 2228 2338 
Q 2531 2678 2651 2914 
Q 2772 3150 2772 3378 
Q 2772 3750 2511 3984 
Q 2250 4219 1831 4219 
Q 1534 4219 1204 4116 
Q 875 4013 500 3803 
L 500 4441 
Q 881 4594 1212 4672 
Q 1544 4750 1819 4750 
Q 2544 4750 2975 4387 
Q 3406 4025 3406 3419 
Q 3406 3131 3298 2873 
Q 3191 2616 2906 2266 
Q 2828 2175 2409 1742 
Q 1991 1309 1228 531 
z
" transform="scale(0.015625)"/>
       </defs>
       <use xlink:href="#DejaVuSans-32"/>
      </g>
     </g>
    </g>
    <g id="xtick_3">
     <g id="line2d_3">
      <g>
       <use xlink:href="#m1ecec09575" x="90.644091" y="109.24" style="stroke: #000000; stroke-width: 0.8"/>
      </g>
     </g>
     <g id="text_3">
      <!-- 3 -->
      <g transform="translate(88.735341 120.799063) scale(0.06 -0.06)">
       <defs>
        <path id="DejaVuSans-33" d="M 2597 2516 
Q 3050 2419 3304 2112 
Q 3559 1806 3559 1356 
Q 3559 666 3084 287 
Q 2609 -91 1734 -91 
Q 1441 -91 1130 -33 
Q 819 25 488 141 
L 488 750 
Q 750 597 1062 519 
Q 1375 441 1716 441 
Q 2309 441 2620 675 
Q 2931 909 2931 1356 
Q 2931 1769 2642 2001 
Q 2353 2234 1838 2234 
L 1294 2234 
L 1294 2753 
L 1863 2753 
Q 2328 2753 2575 2939 
Q 2822 3125 2822 3475 
Q 2822 3834 2567 4026 
Q 2313 4219 1838 4219 
Q 1578 4219 1281 4162 
Q 984 4106 628 3988 
L 628 4550 
Q 988 4650 1302 4700 
Q 1616 4750 1894 4750 
Q 2613 4750 3031 4423 
Q 3450 4097 3450 3541 
Q 3450 3153 3228 2886 
Q 3006 2619 2597 2516 
z
" transform="scale(0.015625)"/>
       </defs>
       <use xlink:href="#DejaVuSans-33"/>
      </g>
     </g>
    </g>
    <g id="xtick_4">
     <g id="line2d_4">
      <g>
       <use xlink:href="#m1ecec09575" x="113.777727" y="109.24" style="stroke: #000000; stroke-width: 0.8"/>
      </g>
     </g>
     <g id="text_4">
      <!-- 4 -->
      <g transform="translate(111.868977 120.799063) scale(0.06 -0.06)">
       <defs>
        <path id="DejaVuSans-34" d="M 2419 4116 
L 825 1625 
L 2419 1625 
L 2419 4116 
z
M 2253 4666 
L 3047 4666 
L 3047 1625 
L 3713 1625 
L 3713 1100 
L 3047 1100 
L 3047 0 
L 2419 0 
L 2419 1100 
L 313 1100 
L 313 1709 
L 2253 4666 
z
" transform="scale(0.015625)"/>
       </defs>
       <use xlink:href="#DejaVuSans-34"/>
      </g>
     </g>
    </g>
    <g id="xtick_5">
     <g id="line2d_5">
      <g>
       <use xlink:href="#m1ecec09575" x="136.911364" y="109.24" style="stroke: #000000; stroke-width: 0.8"/>
      </g>
     </g>
     <g id="text_5">
      <!-- 5 -->
      <g transform="translate(135.002614 120.799063) scale(0.06 -0.06)">
       <defs>
        <path id="DejaVuSans-35" d="M 691 4666 
L 3169 4666 
L 3169 4134 
L 1269 4134 
L 1269 2991 
Q 1406 3038 1543 3061 
Q 1681 3084 1819 3084 
Q 2600 3084 3056 2656 
Q 3513 2228 3513 1497 
Q 3513 744 3044 326 
Q 2575 -91 1722 -91 
Q 1428 -91 1123 -41 
Q 819 9 494 109 
L 494 744 
Q 775 591 1075 516 
Q 1375 441 1709 441 
Q 2250 441 2565 725 
Q 2881 1009 2881 1497 
Q 2881 1984 2565 2268 
Q 2250 2553 1709 2553 
Q 1456 2553 1204 2497 
Q 953 2441 691 2322 
L 691 4666 
z
" transform="scale(0.015625)"/>
       </defs>
       <use xlink:href="#DejaVuSans-35"/>
      </g>
     </g>
    </g>
    <g id="xtick_6">
     <g id="line2d_6">
      <g>
       <use xlink:href="#m1ecec09575" x="160.045" y="109.24" style="stroke: #000000; stroke-width: 0.8"/>
      </g>
     </g>
     <g id="text_6">
      <!-- 6 -->
      <g transform="translate(158.13625 120.799063) scale(0.06 -0.06)">
       <defs>
        <path id="DejaVuSans-36" d="M 2113 2584 
Q 1688 2584 1439 2293 
Q 1191 2003 1191 1497 
Q 1191 994 1439 701 
Q 1688 409 2113 409 
Q 2538 409 2786 701 
Q 3034 994 3034 1497 
Q 3034 2003 2786 2293 
Q 2538 2584 2113 2584 
z
M 3366 4563 
L 3366 3988 
Q 3128 4100 2886 4159 
Q 2644 4219 2406 4219 
Q 1781 4219 1451 3797 
Q 1122 3375 1075 2522 
Q 1259 2794 1537 2939 
Q 1816 3084 2150 3084 
Q 2853 3084 3261 2657 
Q 3669 2231 3669 1497 
Q 3669 778 3244 343 
Q 2819 -91 2113 -91 
Q 1303 -91 875 529 
Q 447 1150 447 2328 
Q 447 3434 972 4092 
Q 1497 4750 2381 4750 
Q 2619 4750 2861 4703 
Q 3103 4656 3366 4563 
z
" transform="scale(0.015625)"/>
       </defs>
       <use xlink:href="#DejaVuSans-36"/>
      </g>
     </g>
    </g>
    <g id="xtick_7">
     <g id="line2d_7">
      <g>
       <use xlink:href="#m1ecec09575" x="183.178636" y="109.24" style="stroke: #000000; stroke-width: 0.8"/>
      </g>
     </g>
     <g id="text_7">
      <!-- 7 -->
      <g transform="translate(181.269886 120.799063) scale(0.06 -0.06)">
       <defs>
        <path id="DejaVuSans-37" d="M 525 4666 
L 3525 4666 
L 3525 4397 
L 1831 0 
L 1172 0 
L 2766 4134 
L 525 4134 
L 525 4666 
z
" transform="scale(0.015625)"/>
       </defs>
       <use xlink:href="#DejaVuSans-37"/>
      </g>
     </g>
    </g>
    <g id="xtick_8">
     <g id="line2d_8">
      <g>
       <use xlink:href="#m1ecec09575" x="206.312273" y="109.24" style="stroke: #000000; stroke-width: 0.8"/>
      </g>
     </g>
     <g id="text_8">
      <!-- 8 -->
      <g transform="translate(204.403523 120.799063) scale(0.06 -0.06)">
       <defs>
        <path id="DejaVuSans-38" d="M 2034 2216 
Q 1584 2216 1326 1975 
Q 1069 1734 1069 1313 
Q 1069 891 1326 650 
Q 1584 409 2034 409 
Q 2484 409 2743 651 
Q 3003 894 3003 1313 
Q 3003 1734 2745 1975 
Q 2488 2216 2034 2216 
z
M 1403 2484 
Q 997 2584 770 2862 
Q 544 3141 544 3541 
Q 544 4100 942 4425 
Q 1341 4750 2034 4750 
Q 2731 4750 3128 4425 
Q 3525 4100 3525 3541 
Q 3525 3141 3298 2862 
Q 3072 2584 2669 2484 
Q 3125 2378 3379 2068 
Q 3634 1759 3634 1313 
Q 3634 634 3220 271 
Q 2806 -91 2034 -91 
Q 1263 -91 848 271 
Q 434 634 434 1313 
Q 434 1759 690 2068 
Q 947 2378 1403 2484 
z
M 1172 3481 
Q 1172 3119 1398 2916 
Q 1625 2713 2034 2713 
Q 2441 2713 2670 2916 
Q 2900 3119 2900 3481 
Q 2900 3844 2670 4047 
Q 2441 4250 2034 4250 
Q 1625 4250 1398 4047 
Q 1172 3844 1172 3481 
z
" transform="scale(0.015625)"/>
       </defs>
       <use xlink:href="#DejaVuSans-38"/>
      </g>
     </g>
    </g>
    <g id="xtick_9">
     <g id="line2d_9">
      <g>
       <use xlink:href="#m1ecec09575" x="229.445909" y="109.24" style="stroke: #000000; stroke-width: 0.8"/>
      </g>
     </g>
     <g id="text_9">
      <!-- 9 -->
      <g transform="translate(227.537159 120.799063) scale(0.06 -0.06)">
       <defs>
        <path id="DejaVuSans-39" d="M 703 97 
L 703 672 
Q 941 559 1184 500 
Q 1428 441 1663 441 
Q 2288 441 2617 861 
Q 2947 1281 2994 2138 
Q 2813 1869 2534 1725 
Q 2256 1581 1919 1581 
Q 1219 1581 811 2004 
Q 403 2428 403 3163 
Q 403 3881 828 4315 
Q 1253 4750 1959 4750 
Q 2769 4750 3195 4129 
Q 3622 3509 3622 2328 
Q 3622 1225 3098 567 
Q 2575 -91 1691 -91 
Q 1453 -91 1209 -44 
Q 966 3 703 97 
z
M 1959 2075 
Q 2384 2075 2632 2365 
Q 2881 2656 2881 3163 
Q 2881 3666 2632 3958 
Q 2384 4250 1959 4250 
Q 1534 4250 1286 3958 
Q 1038 3666 1038 3163 
Q 1038 2656 1286 2365 
Q 1534 2075 1959 2075 
z
" transform="scale(0.015625)"/>
       </defs>
       <use xlink:href="#DejaVuSans-39"/>
      </g>
     </g>
    </g>
    <g id="xtick_10">
     <g id="line2d_10">
      <g>
       <use xlink:href="#m1ecec09575" x="252.579545" y="109.24" style="stroke: #000000; stroke-width: 0.8"/>
      </g>
     </g>
     <g id="text_10">
      <!-- 10 -->
      <g transform="translate(248.762045 120.799063) scale(0.06 -0.06)">
       <defs>
        <path id="DejaVuSans-30" d="M 2034 4250 
Q 1547 4250 1301 3770 
Q 1056 3291 1056 2328 
Q 1056 1369 1301 889 
Q 1547 409 2034 409 
Q 2525 409 2770 889 
Q 3016 1369 3016 2328 
Q 3016 3291 2770 3770 
Q 2525 4250 2034 4250 
z
M 2034 4750 
Q 2819 4750 3233 4129 
Q 3647 3509 3647 2328 
Q 3647 1150 3233 529 
Q 2819 -91 2034 -91 
Q 1250 -91 836 529 
Q 422 1150 422 2328 
Q 422 3509 836 4129 
Q 1250 4750 2034 4750 
z
" transform="scale(0.015625)"/>
       </defs>
       <use xlink:href="#DejaVuSans-31"/>
       <use xlink:href="#DejaVuSans-30" x="63.623047"/>
      </g>
     </g>
    </g>
    <g id="xtick_11">
     <g id="line2d_11">
      <g>
       <use xlink:href="#m1ecec09575" x="275.713182" y="109.24" style="stroke: #000000; stroke-width: 0.8"/>
      </g>
     </g>
     <g id="text_11">
      <!-- 11 -->
      <g transform="translate(271.895682 120.799063) scale(0.06 -0.06)">
       <use xlink:href="#DejaVuSans-31"/>
       <use xlink:href="#DejaVuSans-31" x="63.623047"/>
      </g>
     </g>
    </g>
    <g id="text_12">
     <!-- Number of Mice in Treatment Group -->
     <g transform="translate(106.289219 130.605938) scale(0.06 -0.06)">
      <defs>
       <path id="DejaVuSans-4e" d="M 628 4666 
L 1478 4666 
L 3547 763 
L 3547 4666 
L 4159 4666 
L 4159 0 
L 3309 0 
L 1241 3903 
L 1241 0 
L 628 0 
L 628 4666 
z
" transform="scale(0.015625)"/>
       <path id="DejaVuSans-75" d="M 544 1381 
L 544 3500 
L 1119 3500 
L 1119 1403 
Q 1119 906 1312 657 
Q 1506 409 1894 409 
Q 2359 409 2629 706 
Q 2900 1003 2900 1516 
L 2900 3500 
L 3475 3500 
L 3475 0 
L 2900 0 
L 2900 538 
Q 2691 219 2414 64 
Q 2138 -91 1772 -91 
Q 1169 -91 856 284 
Q 544 659 544 1381 
z
M 1991 3584 
L 1991 3584 
z
" transform="scale(0.015625)"/>
       <path id="DejaVuSans-6d" d="M 3328 2828 
Q 3544 3216 3844 3400 
Q 4144 3584 4550 3584 
Q 5097 3584 5394 3201 
Q 5691 2819 5691 2113 
L 5691 0 
L 5113 0 
L 5113 2094 
Q 5113 2597 4934 2840 
Q 4756 3084 4391 3084 
Q 3944 3084 3684 2787 
Q 3425 2491 3425 1978 
L 3425 0 
L 2847 0 
L 2847 2094 
Q 2847 2600 2669 2842 
Q 2491 3084 2119 3084 
Q 1678 3084 1418 2786 
Q 1159 2488 1159 1978 
L 1159 0 
L 581 0 
L 581 3500 
L 1159 3500 
L 1159 2956 
Q 1356 3278 1631 3431 
Q 1906 3584 2284 3584 
Q 2666 3584 2933 3390 
Q 3200 3197 3328 2828 
z
" transform="scale(0.015625)"/>
       <path id="DejaVuSans-62" d="M 3116 1747 
Q 3116 2381 2855 2742 
Q 2594 3103 2138 3103 
Q 1681 3103 1420 2742 
Q 1159 2381 1159 1747 
Q 1159 1113 1420 752 
Q 1681 391 2138 391 
Q 2594 391 2855 752 
Q 3116 1113 3116 1747 
z
M 1159 2969 
Q 1341 3281 1617 3432 
Q 1894 3584 2278 3584 
Q 2916 3584 3314 3078 
Q 3713 2572 3713 1747 
Q 3713 922 3314 415 
Q 2916 -91 2278 -91 
Q 1894 -91 1617 61 
Q 1341 213 1159 525 
L 1159 0 
L 581 0 
L 581 4863 
L 1159 4863 
L 1159 2969 
z
" transform="scale(0.015625)"/>
       <path id="DejaVuSans-65" d="M 3597 1894 
L 3597 1613 
L 953 1613 
Q 991 1019 1311 708 
Q 1631 397 2203 397 
Q 2534 397 2845 478 
Q 3156 559 3463 722 
L 3463 178 
Q 3153 47 2828 -22 
Q 2503 -91 2169 -91 
Q 1331 -91 842 396 
Q 353 884 353 1716 
Q 353 2575 817 3079 
Q 1281 3584 2069 3584 
Q 2775 3584 3186 3129 
Q 3597 2675 3597 1894 
z
M 3022 2063 
Q 3016 2534 2758 2815 
Q 2500 3097 2075 3097 
Q 1594 3097 1305 2825 
Q 1016 2553 972 2059 
L 3022 2063 
z
" transform="scale(0.015625)"/>
       <path id="DejaVuSans-72" d="M 2631 2963 
Q 2534 3019 2420 3045 
Q 2306 3072 2169 3072 
Q 1681 3072 1420 2755 
Q 1159 2438 1159 1844 
L 1159 0 
L 581 0 
L 581 3500 
L 1159 3500 
L 1159 2956 
Q 1341 3275 1631 3429 
Q 1922 3584 2338 3584 
Q 2397 3584 2469 3576 
Q 2541 3569 2628 3553 
L 2631 2963 
z
" transform="scale(0.015625)"/>
       <path id="DejaVuSans-20" transform="scale(0.015625)"/>
       <path id="DejaVuSans-6f" d="M 1959 3097 
Q 1497 3097 1228 2736 
Q 959 2375 959 1747 
Q 959 1119 1226 758 
Q 1494 397 1959 397 
Q 2419 397 2687 759 
Q 2956 1122 2956 1747 
Q 2956 2369 2687 2733 
Q 2419 3097 1959 3097 
z
M 1959 3584 
Q 2709 3584 3137 3096 
Q 3566 2609 3566 1747 
Q 3566 888 3137 398 
Q 2709 -91 1959 -91 
Q 1206 -91 779 398 
Q 353 888 353 1747 
Q 353 2609 779 3096 
Q 1206 3584 1959 3584 
z
" transform="scale(0.015625)"/>
       <path id="DejaVuSans-66" d="M 2375 4863 
L 2375 4384 
L 1825 4384 
Q 1516 4384 1395 4259 
Q 1275 4134 1275 3809 
L 1275 3500 
L 2222 3500 
L 2222 3053 
L 1275 3053 
L 1275 0 
L 697 0 
L 697 3053 
L 147 3053 
L 147 3500 
L 697 3500 
L 697 3744 
Q 697 4328 969 4595 
Q 1241 4863 1831 4863 
L 2375 4863 
z
" transform="scale(0.015625)"/>
       <path id="DejaVuSans-4d" d="M 628 4666 
L 1569 4666 
L 2759 1491 
L 3956 4666 
L 4897 4666 
L 4897 0 
L 4281 0 
L 4281 4097 
L 3078 897 
L 2444 897 
L 1241 4097 
L 1241 0 
L 628 0 
L 628 4666 
z
" transform="scale(0.015625)"/>
       <path id="DejaVuSans-69" d="M 603 3500 
L 1178 3500 
L 1178 0 
L 603 0 
L 603 3500 
z
M 603 4863 
L 1178 4863 
L 1178 4134 
L 603 4134 
L 603 4863 
z
" transform="scale(0.015625)"/>
       <path id="DejaVuSans-63" d="M 3122 3366 
L 3122 2828 
Q 2878 2963 2633 3030 
Q 2388 3097 2138 3097 
Q 1578 3097 1268 2742 
Q 959 2388 959 1747 
Q 959 1106 1268 751 
Q 1578 397 2138 397 
Q 2388 397 2633 464 
Q 2878 531 3122 666 
L 3122 134 
Q 2881 22 2623 -34 
Q 2366 -91 2075 -91 
Q 1284 -91 818 406 
Q 353 903 353 1747 
Q 353 2603 823 3093 
Q 1294 3584 2113 3584 
Q 2378 3584 2631 3529 
Q 2884 3475 3122 3366 
z
" transform="scale(0.015625)"/>
       <path id="DejaVuSans-6e" d="M 3513 2113 
L 3513 0 
L 2938 0 
L 2938 2094 
Q 2938 2591 2744 2837 
Q 2550 3084 2163 3084 
Q 1697 3084 1428 2787 
Q 1159 2491 1159 1978 
L 1159 0 
L 581 0 
L 581 3500 
L 1159 3500 
L 1159 2956 
Q 1366 3272 1645 3428 
Q 1925 3584 2291 3584 
Q 2894 3584 3203 3211 
Q 3513 2838 3513 2113 
z
" transform="scale(0.015625)"/>
       <path id="DejaVuSans-54" d="M -19 4666 
L 3928 4666 
L 3928 4134 
L 2272 4134 
L 2272 0 
L 1638 0 
L 1638 4134 
L -19 4134 
L -19 4666 
z
" transform="scale(0.015625)"/>
       <path id="DejaVuSans-61" d="M 2194 1759 
Q 1497 1759 1228 1600 
Q 959 1441 959 1056 
Q 959 750 1161 570 
Q 1363 391 1709 391 
Q 2188 391 2477 730 
Q 2766 1069 2766 1631 
L 2766 1759 
L 2194 1759 
z
M 3341 1997 
L 3341 0 
L 2766 0 
L 2766 531 
Q 2569 213 2275 61 
Q 1981 -91 1556 -91 
Q 1019 -91 701 211 
Q 384 513 384 1019 
Q 384 1609 779 1909 
Q 1175 2209 1959 2209 
L 2766 2209 
L 2766 2266 
Q 2766 2663 2505 2880 
Q 2244 3097 1772 3097 
Q 1472 3097 1187 3025 
Q 903 2953 641 2809 
L 641 3341 
Q 956 3463 1253 3523 
Q 1550 3584 1831 3584 
Q 2591 3584 2966 3190 
Q 3341 2797 3341 1997 
z
" transform="scale(0.015625)"/>
       <path id="DejaVuSans-74" d="M 1172 4494 
L 1172 3500 
L 2356 3500 
L 2356 3053 
L 1172 3053 
L 1172 1153 
Q 1172 725 1289 603 
Q 1406 481 1766 481 
L 2356 481 
L 2356 0 
L 1766 0 
Q 1100 0 847 248 
Q 594 497 594 1153 
L 594 3053 
L 172 3053 
L 172 3500 
L 594 3500 
L 594 4494 
L 1172 4494 
z
" transform="scale(0.015625)"/>
       <path id="DejaVuSans-47" d="M 3809 666 
L 3809 1919 
L 2778 1919 
L 2778 2438 
L 4434 2438 
L 4434 434 
Q 4069 175 3628 42 
Q 3188 -91 2688 -91 
Q 1594 -91 976 548 
Q 359 1188 359 2328 
Q 359 3472 976 4111 
Q 1594 4750 2688 4750 
Q 3144 4750 3555 4637 
Q 3966 4525 4313 4306 
L 4313 3634 
Q 3963 3931 3569 4081 
Q 3175 4231 2741 4231 
Q 1884 4231 1454 3753 
Q 1025 3275 1025 2328 
Q 1025 1384 1454 906 
Q 1884 428 2741 428 
Q 3075 428 3337 486 
Q 3600 544 3809 666 
z
" transform="scale(0.015625)"/>
       <path id="DejaVuSans-70" d="M 1159 525 
L 1159 -1331 
L 581 -1331 
L 581 3500 
L 1159 3500 
L 1159 2969 
Q 1341 3281 1617 3432 
Q 1894 3584 2278 3584 
Q 2916 3584 3314 3078 
Q 3713 2572 3713 1747 
Q 3713 922 3314 415 
Q 2916 -91 2278 -91 
Q 1894 -91 1617 61 
Q 1341 213 1159 525 
z
M 3116 1747 
Q 3116 2381 2855 2742 
Q 2594 3103 2138 3103 
Q 1681 3103 1420 2742 
Q 1159 2381 1159 1747 
Q 1159 1113 1420 752 
Q 1681 391 2138 391 
Q 2594 391 2855 752 
Q 3116 1113 3116 1747 
z
" transform="scale(0.015625)"/>
      </defs>
      <use xlink:href="#DejaVuSans-4e"/>
      <use xlink:href="#DejaVuSans-75" x="74.804688"/>
      <use xlink:href="#DejaVuSans-6d" x="138.183594"/>
      <use xlink:href="#DejaVuSans-62" x="235.595703"/>
      <use xlink:href="#DejaVuSans-65" x="299.072266"/>
      <use xlink:href="#DejaVuSans-72" x="360.595703"/>
      <use xlink:href="#DejaVuSans-20" x="401.708984"/>
      <use xlink:href="#DejaVuSans-6f" x="433.496094"/>
      <use xlink:href="#DejaVuSans-66" x="494.677734"/>
      <use xlink:href="#DejaVuSans-20" x="529.882812"/>
      <use xlink:href="#DejaVuSans-4d" x="561.669922"/>
      <use xlink:href="#DejaVuSans-69" x="647.949219"/>
      <use xlink:href="#DejaVuSans-63" x="675.732422"/>
      <use xlink:href="#DejaVuSans-65" x="730.712891"/>
      <use xlink:href="#DejaVuSans-20" x="792.236328"/>
      <use xlink:href="#DejaVuSans-69" x="824.023438"/>
      <use xlink:href="#DejaVuSans-6e" x="851.806641"/>
      <use xlink:href="#DejaVuSans-20" x="915.185547"/>
      <use xlink:href="#DejaVuSans-54" x="946.972656"/>
      <use xlink:href="#DejaVuSans-72" x="993.306641"/>
      <use xlink:href="#DejaVuSans-65" x="1032.169922"/>
      <use xlink:href="#DejaVuSans-61" x="1093.693359"/>
      <use xlink:href="#DejaVuSans-74" x="1154.972656"/>
      <use xlink:href="#DejaVuSans-6d" x="1194.181641"/>
      <use xlink:href="#DejaVuSans-65" x="1291.59375"/>
      <use xlink:href="#DejaVuSans-6e" x="1353.117188"/>
      <use xlink:href="#DejaVuSans-74" x="1416.496094"/>
      <use xlink:href="#DejaVuSans-20" x="1455.705078"/>
      <use xlink:href="#DejaVuSans-47" x="1487.492188"/>
      <use xlink:href="#DejaVuSans-72" x="1564.982422"/>
      <use xlink:href="#DejaVuSans-6f" x="1603.845703"/>
      <use xlink:href="#DejaVuSans-75" x="1665.027344"/>
      <use xlink:href="#DejaVuSans-70" x="1728.40625"/>
     </g>
    </g>
   </g>
   <g id="matplotlib.axis_2">
    <g id="ytick_1">
     <g id="line2d_12">
      <path d="M 32.81 95.802836 
L 287.28 95.802836 
" clip-path="url(#p851156b1f5)" style="fill: none; stroke-dasharray: 2.96,1.28; stroke-dashoffset: 0; stroke: #000000; stroke-opacity: 0.3; stroke-width: 0.8"/>
     </g>
     <g id="line2d_13">
      <defs>
       <path id="mbf32573632" d="M 0 0 
L -3.5 0 
" style="stroke: #000000; stroke-width: 0.8"/>
      </defs>
      <g>
       <use xlink:href="#mbf32573632" x="32.81" y="95.802836" style="stroke: #000000; stroke-width: 0.8"/>
      </g>
     </g>
     <g id="text_13">
      <!-- 0.4 -->
      <g transform="translate(16.268125 98.082368) scale(0.06 -0.06)">
       <defs>
        <path id="DejaVuSans-2e" d="M 684 794 
L 1344 794 
L 1344 0 
L 684 0 
L 684 794 
z
" transform="scale(0.015625)"/>
       </defs>
       <use xlink:href="#DejaVuSans-30"/>
       <use xlink:href="#DejaVuSans-2e" x="63.623047"/>
       <use xlink:href="#DejaVuSans-34" x="95.410156"/>
      </g>
     </g>
    </g>
    <g id="ytick_2">
     <g id="line2d_14">
      <path d="M 32.81 71.250982 
L 287.28 71.250982 
" clip-path="url(#p851156b1f5)" style="fill: none; stroke-dasharray: 2.96,1.28; stroke-dashoffset: 0; stroke: #000000; stroke-opacity: 0.3; stroke-width: 0.8"/>
     </g>
     <g id="line2d_15">
      <g>
       <use xlink:href="#mbf32573632" x="32.81" y="71.250982" style="stroke: #000000; stroke-width: 0.8"/>
      </g>
     </g>
     <g id="text_14">
      <!-- 0.6 -->
      <g transform="translate(16.268125 73.530513) scale(0.06 -0.06)">
       <use xlink:href="#DejaVuSans-30"/>
       <use xlink:href="#DejaVuSans-2e" x="63.623047"/>
       <use xlink:href="#DejaVuSans-36" x="95.410156"/>
      </g>
     </g>
    </g>
    <g id="ytick_3">
     <g id="line2d_16">
      <path d="M 32.81 46.699127 
L 287.28 46.699127 
" clip-path="url(#p851156b1f5)" style="fill: none; stroke-dasharray: 2.96,1.28; stroke-dashoffset: 0; stroke: #000000; stroke-opacity: 0.3; stroke-width: 0.8"/>
     </g>
     <g id="line2d_17">
      <g>
       <use xlink:href="#mbf32573632" x="32.81" y="46.699127" style="stroke: #000000; stroke-width: 0.8"/>
      </g>
     </g>
     <g id="text_15">
      <!-- 0.8 -->
      <g transform="translate(16.268125 48.978659) scale(0.06 -0.06)">
       <use xlink:href="#DejaVuSans-30"/>
       <use xlink:href="#DejaVuSans-2e" x="63.623047"/>
       <use xlink:href="#DejaVuSans-38" x="95.410156"/>
      </g>
     </g>
    </g>
    <g id="ytick_4">
     <g id="line2d_18">
      <path d="M 32.81 22.147273 
L 287.28 22.147273 
" clip-path="url(#p851156b1f5)" style="fill: none; stroke-dasharray: 2.96,1.28; stroke-dashoffset: 0; stroke: #000000; stroke-opacity: 0.3; stroke-width: 0.8"/>
     </g>
     <g id="line2d_19">
      <g>
       <use xlink:href="#mbf32573632" x="32.81" y="22.147273" style="stroke: #000000; stroke-width: 0.8"/>
      </g>
     </g>
     <g id="text_16">
      <!-- 1.0 -->
      <g transform="translate(16.268125 24.426804) scale(0.06 -0.06)">
       <use xlink:href="#DejaVuSans-31"/>
       <use xlink:href="#DejaVuSans-2e" x="63.623047"/>
       <use xlink:href="#DejaVuSans-30" x="95.410156"/>
      </g>
     </g>
    </g>
    <g id="text_17">
     <!-- Fraction of Overlapping Hits -->
     <g transform="translate(11.020313 105.512656) rotate(-90) scale(0.06 -0.06)">
      <defs>
       <path id="DejaVuSans-46" d="M 628 4666 
L 3309 4666 
L 3309 4134 
L 1259 4134 
L 1259 2759 
L 3109 2759 
L 3109 2228 
L 1259 2228 
L 1259 0 
L 628 0 
L 628 4666 
z
" transform="scale(0.015625)"/>
       <path id="DejaVuSans-4f" d="M 2522 4238 
Q 1834 4238 1429 3725 
Q 1025 3213 1025 2328 
Q 1025 1447 1429 934 
Q 1834 422 2522 422 
Q 3209 422 3611 934 
Q 4013 1447 4013 2328 
Q 4013 3213 3611 3725 
Q 3209 4238 2522 4238 
z
M 2522 4750 
Q 3503 4750 4090 4092 
Q 4678 3434 4678 2328 
Q 4678 1225 4090 567 
Q 3503 -91 2522 -91 
Q 1538 -91 948 565 
Q 359 1222 359 2328 
Q 359 3434 948 4092 
Q 1538 4750 2522 4750 
z
" transform="scale(0.015625)"/>
       <path id="DejaVuSans-76" d="M 191 3500 
L 800 3500 
L 1894 563 
L 2988 3500 
L 3597 3500 
L 2284 0 
L 1503 0 
L 191 3500 
z
" transform="scale(0.015625)"/>
       <path id="DejaVuSans-6c" d="M 603 4863 
L 1178 4863 
L 1178 0 
L 603 0 
L 603 4863 
z
" transform="scale(0.015625)"/>
       <path id="DejaVuSans-67" d="M 2906 1791 
Q 2906 2416 2648 2759 
Q 2391 3103 1925 3103 
Q 1463 3103 1205 2759 
Q 947 2416 947 1791 
Q 947 1169 1205 825 
Q 1463 481 1925 481 
Q 2391 481 2648 825 
Q 2906 1169 2906 1791 
z
M 3481 434 
Q 3481 -459 3084 -895 
Q 2688 -1331 1869 -1331 
Q 1566 -1331 1297 -1286 
Q 1028 -1241 775 -1147 
L 775 -588 
Q 1028 -725 1275 -790 
Q 1522 -856 1778 -856 
Q 2344 -856 2625 -561 
Q 2906 -266 2906 331 
L 2906 616 
Q 2728 306 2450 153 
Q 2172 0 1784 0 
Q 1141 0 747 490 
Q 353 981 353 1791 
Q 353 2603 747 3093 
Q 1141 3584 1784 3584 
Q 2172 3584 2450 3431 
Q 2728 3278 2906 2969 
L 2906 3500 
L 3481 3500 
L 3481 434 
z
" transform="scale(0.015625)"/>
       <path id="DejaVuSans-48" d="M 628 4666 
L 1259 4666 
L 1259 2753 
L 3553 2753 
L 3553 4666 
L 4184 4666 
L 4184 0 
L 3553 0 
L 3553 2222 
L 1259 2222 
L 1259 0 
L 628 0 
L 628 4666 
z
" transform="scale(0.015625)"/>
       <path id="DejaVuSans-73" d="M 2834 3397 
L 2834 2853 
Q 2591 2978 2328 3040 
Q 2066 3103 1784 3103 
Q 1356 3103 1142 2972 
Q 928 2841 928 2578 
Q 928 2378 1081 2264 
Q 1234 2150 1697 2047 
L 1894 2003 
Q 2506 1872 2764 1633 
Q 3022 1394 3022 966 
Q 3022 478 2636 193 
Q 2250 -91 1575 -91 
Q 1294 -91 989 -36 
Q 684 19 347 128 
L 347 722 
Q 666 556 975 473 
Q 1284 391 1588 391 
Q 1994 391 2212 530 
Q 2431 669 2431 922 
Q 2431 1156 2273 1281 
Q 2116 1406 1581 1522 
L 1381 1569 
Q 847 1681 609 1914 
Q 372 2147 372 2553 
Q 372 3047 722 3315 
Q 1072 3584 1716 3584 
Q 2034 3584 2315 3537 
Q 2597 3491 2834 3397 
z
" transform="scale(0.015625)"/>
      </defs>
      <use xlink:href="#DejaVuSans-46"/>
      <use xlink:href="#DejaVuSans-72" x="50.269531"/>
      <use xlink:href="#DejaVuSans-61" x="91.382812"/>
      <use xlink:href="#DejaVuSans-63" x="152.662109"/>
      <use xlink:href="#DejaVuSans-74" x="207.642578"/>
      <use xlink:href="#DejaVuSans-69" x="246.851562"/>
      <use xlink:href="#DejaVuSans-6f" x="274.634766"/>
      <use xlink:href="#DejaVuSans-6e" x="335.816406"/>
      <use xlink:href="#DejaVuSans-20" x="399.195312"/>
      <use xlink:href="#DejaVuSans-6f" x="430.982422"/>
      <use xlink:href="#DejaVuSans-66" x="492.164062"/>
      <use xlink:href="#DejaVuSans-20" x="527.369141"/>
      <use xlink:href="#DejaVuSans-4f" x="559.15625"/>
      <use xlink:href="#DejaVuSans-76" x="637.867188"/>
      <use xlink:href="#DejaVuSans-65" x="697.046875"/>
      <use xlink:href="#DejaVuSans-72" x="758.570312"/>
      <use xlink:href="#DejaVuSans-6c" x="799.683594"/>
      <use xlink:href="#DejaVuSans-61" x="827.466797"/>
      <use xlink:href="#DejaVuSans-70" x="888.746094"/>
      <use xlink:href="#DejaVuSans-70" x="952.222656"/>
      <use xlink:href="#DejaVuSans-69" x="1015.699219"/>
      <use xlink:href="#DejaVuSans-6e" x="1043.482422"/>
      <use xlink:href="#DejaVuSans-67" x="1106.861328"/>
      <use xlink:href="#DejaVuSans-20" x="1170.337891"/>
      <use xlink:href="#DejaVuSans-48" x="1202.125"/>
      <use xlink:href="#DejaVuSans-69" x="1277.320312"/>
      <use xlink:href="#DejaVuSans-74" x="1305.103516"/>
      <use xlink:href="#DejaVuSans-73" x="1344.3125"/>
     </g>
    </g>
   </g>
   <g id="line2d_20">
    <path d="M 44.376818 75.232364 
L 44.376818 35.418545 
" clip-path="url(#p851156b1f5)" style="fill: none; stroke: #1a1a1a; stroke-linecap: square"/>
   </g>
   <g id="line2d_21">
    <path d="M 44.376818 58.643273 
L 44.376818 39.565818 
" clip-path="url(#p851156b1f5)" style="fill: none; stroke: #1a1a1a; stroke-width: 2; stroke-linecap: square"/>
   </g>
   <g id="line2d_22">
    <path d="M 44.376818 48.689818 
" clip-path="url(#p851156b1f5)" style="fill: none; stroke: #fa8072; stroke-width: 1.5; stroke-linecap: square"/>
    <defs>
     <path id="mb4e80fe614" d="M 0.833333 0 
L -0.833333 -0 
" style="stroke: #ffffff; stroke-width: 0.4"/>
    </defs>
    <g clip-path="url(#p851156b1f5)">
     <use xlink:href="#mb4e80fe614" x="44.376818" y="48.689818" style="fill: #ffffff; stroke: #ffffff; stroke-width: 0.4"/>
    </g>
   </g>
   <g id="line2d_23">
    <path d="M 67.510455 68.596727 
L 67.510455 28.782909 
" clip-path="url(#p851156b1f5)" style="fill: none; stroke: #1a1a1a; stroke-linecap: square"/>
   </g>
   <g id="line2d_24">
    <path d="M 67.510455 51.178182 
L 67.510455 35.418545 
" clip-path="url(#p851156b1f5)" style="fill: none; stroke: #1a1a1a; stroke-width: 2; stroke-linecap: square"/>
   </g>
   <g id="line2d_25">
    <path d="M 67.510455 42.054182 
" clip-path="url(#p851156b1f5)" style="fill: none; stroke: #fa8072; stroke-width: 1.5; stroke-linecap: square"/>
    <g clip-path="url(#p851156b1f5)">
     <use xlink:href="#mb4e80fe614" x="67.510455" y="42.054182" style="fill: #ffffff; stroke: #ffffff; stroke-width: 0.4"/>
    </g>
   </g>
   <g id="line2d_26">
    <path d="M 90.644091 58.643273 
L 90.644091 28.782909 
" clip-path="url(#p851156b1f5)" style="fill: none; stroke: #1a1a1a; stroke-linecap: square"/>
   </g>
   <g id="line2d_27">
    <path d="M 90.644091 45.372 
L 90.644091 35.418545 
" clip-path="url(#p851156b1f5)" style="fill: none; stroke: #1a1a1a; stroke-width: 2; stroke-linecap: square"/>
   </g>
   <g id="line2d_28">
    <path d="M 90.644091 38.736364 
" clip-path="url(#p851156b1f5)" style="fill: none; stroke: #fa8072; stroke-width: 1.5; stroke-linecap: square"/>
    <g clip-path="url(#p851156b1f5)">
     <use xlink:href="#mb4e80fe614" x="90.644091" y="38.736364" style="fill: #ffffff; stroke: #ffffff; stroke-width: 0.4"/>
    </g>
   </g>
   <g id="line2d_29">
    <path d="M 113.777727 48.689818 
L 113.777727 22.147273 
" clip-path="url(#p851156b1f5)" style="fill: none; stroke: #1a1a1a; stroke-linecap: square"/>
   </g>
   <g id="line2d_30">
    <path d="M 113.777727 38.736364 
L 113.777727 32.100727 
" clip-path="url(#p851156b1f5)" style="fill: none; stroke: #1a1a1a; stroke-width: 2; stroke-linecap: square"/>
   </g>
   <g id="line2d_31">
    <path d="M 113.777727 35.418545 
" clip-path="url(#p851156b1f5)" style="fill: none; stroke: #fa8072; stroke-width: 1.5; stroke-linecap: square"/>
    <g clip-path="url(#p851156b1f5)">
     <use xlink:href="#mb4e80fe614" x="113.777727" y="35.418545" style="fill: #ffffff; stroke: #ffffff; stroke-width: 0.4"/>
    </g>
   </g>
   <g id="line2d_32">
    <path d="M 136.911364 42.054182 
L 136.911364 25.465091 
" clip-path="url(#p851156b1f5)" style="fill: none; stroke: #1a1a1a; stroke-linecap: square"/>
   </g>
   <g id="line2d_33">
    <path d="M 136.911364 35.418545 
L 136.911364 29.612364 
" clip-path="url(#p851156b1f5)" style="fill: none; stroke: #1a1a1a; stroke-width: 2; stroke-linecap: square"/>
   </g>
   <g id="line2d_34">
    <path d="M 136.911364 33.759636 
" clip-path="url(#p851156b1f5)" style="fill: none; stroke: #fa8072; stroke-width: 1.5; stroke-linecap: square"/>
    <g clip-path="url(#p851156b1f5)">
     <use xlink:href="#mb4e80fe614" x="136.911364" y="33.759636" style="fill: #ffffff; stroke: #ffffff; stroke-width: 0.4"/>
    </g>
   </g>
   <g id="line2d_35">
    <path d="M 160.045 45.372 
L 160.045 25.465091 
" clip-path="url(#p851156b1f5)" style="fill: none; stroke: #1a1a1a; stroke-linecap: square"/>
   </g>
   <g id="line2d_36">
    <path d="M 160.045 35.418545 
L 160.045 28.782909 
" clip-path="url(#p851156b1f5)" style="fill: none; stroke: #1a1a1a; stroke-width: 2; stroke-linecap: square"/>
   </g>
   <g id="line2d_37">
    <path d="M 160.045 32.100727 
" clip-path="url(#p851156b1f5)" style="fill: none; stroke: #fa8072; stroke-width: 1.5; stroke-linecap: square"/>
    <g clip-path="url(#p851156b1f5)">
     <use xlink:href="#mb4e80fe614" x="160.045" y="32.100727" style="fill: #ffffff; stroke: #ffffff; stroke-width: 0.4"/>
    </g>
   </g>
   <g id="line2d_38">
    <path d="M 183.178636 42.054182 
L 183.178636 25.465091 
" clip-path="url(#p851156b1f5)" style="fill: none; stroke: #1a1a1a; stroke-linecap: square"/>
   </g>
   <g id="line2d_39">
    <path d="M 183.178636 35.418545 
L 183.178636 28.782909 
" clip-path="url(#p851156b1f5)" style="fill: none; stroke: #1a1a1a; stroke-width: 2; stroke-linecap: square"/>
   </g>
   <g id="line2d_40">
    <path d="M 183.178636 32.100727 
" clip-path="url(#p851156b1f5)" style="fill: none; stroke: #fa8072; stroke-width: 1.5; stroke-linecap: square"/>
    <g clip-path="url(#p851156b1f5)">
     <use xlink:href="#mb4e80fe614" x="183.178636" y="32.100727" style="fill: #ffffff; stroke: #ffffff; stroke-width: 0.4"/>
    </g>
   </g>
   <g id="line2d_41">
    <path d="M 206.312273 35.418545 
L 206.312273 25.465091 
" clip-path="url(#p851156b1f5)" style="fill: none; stroke: #1a1a1a; stroke-linecap: square"/>
   </g>
   <g id="line2d_42">
    <path d="M 206.312273 32.100727 
L 206.312273 28.782909 
" clip-path="url(#p851156b1f5)" style="fill: none; stroke: #1a1a1a; stroke-width: 2; stroke-linecap: square"/>
   </g>
   <g id="line2d_43">
    <path d="M 206.312273 32.100727 
" clip-path="url(#p851156b1f5)" style="fill: none; stroke: #fa8072; stroke-width: 1.5; stroke-linecap: square"/>
    <g clip-path="url(#p851156b1f5)">
     <use xlink:href="#mb4e80fe614" x="206.312273" y="32.100727" style="fill: #ffffff; stroke: #ffffff; stroke-width: 0.4"/>
    </g>
   </g>
   <g id="line2d_44">
    <path d="M 229.445909 42.054182 
L 229.445909 22.147273 
" clip-path="url(#p851156b1f5)" style="fill: none; stroke: #1a1a1a; stroke-linecap: square"/>
   </g>
   <g id="line2d_45">
    <path d="M 229.445909 32.100727 
L 229.445909 25.465091 
" clip-path="url(#p851156b1f5)" style="fill: none; stroke: #1a1a1a; stroke-width: 2; stroke-linecap: square"/>
   </g>
   <g id="line2d_46">
    <path d="M 229.445909 28.782909 
" clip-path="url(#p851156b1f5)" style="fill: none; stroke: #fa8072; stroke-width: 1.5; stroke-linecap: square"/>
    <g clip-path="url(#p851156b1f5)">
     <use xlink:href="#mb4e80fe614" x="229.445909" y="28.782909" style="fill: #ffffff; stroke: #ffffff; stroke-width: 0.4"/>
    </g>
   </g>
   <g id="line2d_47">
    <path d="M 252.579545 35.418545 
L 252.579545 22.147273 
" clip-path="url(#p851156b1f5)" style="fill: none; stroke: #1a1a1a; stroke-linecap: square"/>
   </g>
   <g id="line2d_48">
    <path d="M 252.579545 31.271273 
L 252.579545 25.465091 
" clip-path="url(#p851156b1f5)" style="fill: none; stroke: #1a1a1a; stroke-width: 2; stroke-linecap: square"/>
   </g>
   <g id="line2d_49">
    <path d="M 252.579545 28.782909 
" clip-path="url(#p851156b1f5)" style="fill: none; stroke: #fa8072; stroke-width: 1.5; stroke-linecap: square"/>
    <g clip-path="url(#p851156b1f5)">
     <use xlink:href="#mb4e80fe614" x="252.579545" y="28.782909" style="fill: #ffffff; stroke: #ffffff; stroke-width: 0.4"/>
    </g>
   </g>
   <g id="line2d_50">
    <path d="M 275.713182 38.736364 
L 275.713182 22.147273 
" clip-path="url(#p851156b1f5)" style="fill: none; stroke: #1a1a1a; stroke-linecap: square"/>
   </g>
   <g id="line2d_51">
    <path d="M 275.713182 32.100727 
L 275.713182 25.465091 
" clip-path="url(#p851156b1f5)" style="fill: none; stroke: #1a1a1a; stroke-width: 2; stroke-linecap: square"/>
   </g>
   <g id="line2d_52">
    <path d="M 275.713182 28.782909 
" clip-path="url(#p851156b1f5)" style="fill: none; stroke: #fa8072; stroke-width: 1.5; stroke-linecap: square"/>
    <g clip-path="url(#p851156b1f5)">
     <use xlink:href="#mb4e80fe614" x="275.713182" y="28.782909" style="fill: #ffffff; stroke: #ffffff; stroke-width: 0.4"/>
    </g>
   </g>
   <g id="line2d_53">
    <path d="M 44.376818 48.689818 
L 67.510455 42.054182 
L 90.644091 38.736364 
L 113.777727 35.418545 
L 136.911364 33.759636 
L 160.045 32.100727 
L 183.178636 32.100727 
L 206.312273 32.100727 
L 229.445909 28.782909 
L 252.579545 28.782909 
L 275.713182 28.782909 
" clip-path="url(#p851156b1f5)" style="fill: none; stroke: #8b0000; stroke-linecap: square"/>
    <defs>
     <path id="m8d8ed5dc43" d="M 0 1.253314 
C 0.332383 1.253314 0.651197 1.121257 0.886227 0.886227 
C 1.121257 0.651197 1.253314 0.332383 1.253314 0 
C 1.253314 -0.332383 1.121257 -0.651197 0.886227 -0.886227 
C 0.651197 -1.121257 0.332383 -1.253314 0 -1.253314 
C -0.332383 -1.253314 -0.651197 -1.121257 -0.886227 -0.886227 
C -1.121257 -0.651197 -1.253314 -0.332383 -1.253314 0 
C -1.253314 0.332383 -1.121257 0.651197 -0.886227 0.886227 
C -0.651197 1.121257 -0.332383 1.253314 0 1.253314 
z
" style="stroke: #8b0000; stroke-width: 0.75"/>
    </defs>
    <g clip-path="url(#p851156b1f5)">
     <use xlink:href="#m8d8ed5dc43" x="44.376818" y="48.689818" style="fill: #8b0000; stroke: #8b0000; stroke-width: 0.75"/>
     <use xlink:href="#m8d8ed5dc43" x="67.510455" y="42.054182" style="fill: #8b0000; stroke: #8b0000; stroke-width: 0.75"/>
     <use xlink:href="#m8d8ed5dc43" x="90.644091" y="38.736364" style="fill: #8b0000; stroke: #8b0000; stroke-width: 0.75"/>
     <use xlink:href="#m8d8ed5dc43" x="113.777727" y="35.418545" style="fill: #8b0000; stroke: #8b0000; stroke-width: 0.75"/>
     <use xlink:href="#m8d8ed5dc43" x="136.911364" y="33.759636" style="fill: #8b0000; stroke: #8b0000; stroke-width: 0.75"/>
     <use xlink:href="#m8d8ed5dc43" x="160.045" y="32.100727" style="fill: #8b0000; stroke: #8b0000; stroke-width: 0.75"/>
     <use xlink:href="#m8d8ed5dc43" x="183.178636" y="32.100727" style="fill: #8b0000; stroke: #8b0000; stroke-width: 0.75"/>
     <use xlink:href="#m8d8ed5dc43" x="206.312273" y="32.100727" style="fill: #8b0000; stroke: #8b0000; stroke-width: 0.75"/>
     <use xlink:href="#m8d8ed5dc43" x="229.445909" y="28.782909" style="fill: #8b0000; stroke: #8b0000; stroke-width: 0.75"/>
     <use xlink:href="#m8d8ed5dc43" x="252.579545" y="28.782909" style="fill: #8b0000; stroke: #8b0000; stroke-width: 0.75"/>
     <use xlink:href="#m8d8ed5dc43" x="275.713182" y="28.782909" style="fill: #8b0000; stroke: #8b0000; stroke-width: 0.75"/>
    </g>
   </g>
   <g id="line2d_54">
    <path clip-path="url(#p851156b1f5)" style="fill: none; stroke: #8b0000; stroke-linecap: square"/>
   </g>
   <g id="line2d_55">
    <path clip-path="url(#p851156b1f5)" style="fill: none; stroke: #8b0000; stroke-linecap: square"/>
   </g>
   <g id="line2d_56">
    <path clip-path="url(#p851156b1f5)" style="fill: none; stroke: #8b0000; stroke-linecap: square"/>
   </g>
   <g id="line2d_57">
    <path clip-path="url(#p851156b1f5)" style="fill: none; stroke: #8b0000; stroke-linecap: square"/>
   </g>
   <g id="line2d_58">
    <path clip-path="url(#p851156b1f5)" style="fill: none; stroke: #8b0000; stroke-linecap: square"/>
   </g>
   <g id="line2d_59">
    <path clip-path="url(#p851156b1f5)" style="fill: none; stroke: #8b0000; stroke-linecap: square"/>
   </g>
   <g id="line2d_60">
    <path clip-path="url(#p851156b1f5)" style="fill: none; stroke: #8b0000; stroke-linecap: square"/>
   </g>
   <g id="line2d_61">
    <path clip-path="url(#p851156b1f5)" style="fill: none; stroke: #8b0000; stroke-linecap: square"/>
   </g>
   <g id="line2d_62">
    <path clip-path="url(#p851156b1f5)" style="fill: none; stroke: #8b0000; stroke-linecap: square"/>
   </g>
   <g id="line2d_63">
    <path clip-path="url(#p851156b1f5)" style="fill: none; stroke: #8b0000; stroke-linecap: square"/>
   </g>
   <g id="line2d_64">
    <path clip-path="url(#p851156b1f5)" style="fill: none; stroke: #8b0000; stroke-linecap: square"/>
   </g>
   <g id="patch_3">
    <path d="M 32.81 109.24 
L 32.81 18 
" style="fill: none; stroke: #000000; stroke-width: 0.8; stroke-linejoin: miter; stroke-linecap: square"/>
   </g>
   <g id="patch_4">
    <path d="M 287.28 109.24 
L 287.28 18 
" style="fill: none; stroke: #000000; stroke-width: 0.8; stroke-linejoin: miter; stroke-linecap: square"/>
   </g>
   <g id="patch_5">
    <path d="M 32.81 109.24 
L 287.28 109.24 
" style="fill: none; stroke: #000000; stroke-width: 0.8; stroke-linejoin: miter; stroke-linecap: square"/>
   </g>
   <g id="patch_6">
    <path d="M 32.81 18 
L 287.28 18 
" style="fill: none; stroke: #000000; stroke-width: 0.8; stroke-linejoin: miter; stroke-linecap: square"/>
   </g>
   <g id="text_18">
    <!-- Fraction of Overlapping Hits in Bootstraps compared to Standard -->
    <g transform="translate(43.279 12) scale(0.072 -0.072)">
     <defs>
      <path id="DejaVuSans-42" d="M 1259 2228 
L 1259 519 
L 2272 519 
Q 2781 519 3026 730 
Q 3272 941 3272 1375 
Q 3272 1813 3026 2020 
Q 2781 2228 2272 2228 
L 1259 2228 
z
M 1259 4147 
L 1259 2741 
L 2194 2741 
Q 2656 2741 2882 2914 
Q 3109 3088 3109 3444 
Q 3109 3797 2882 3972 
Q 2656 4147 2194 4147 
L 1259 4147 
z
M 628 4666 
L 2241 4666 
Q 2963 4666 3353 4366 
Q 3744 4066 3744 3513 
Q 3744 3084 3544 2831 
Q 3344 2578 2956 2516 
Q 3422 2416 3680 2098 
Q 3938 1781 3938 1306 
Q 3938 681 3513 340 
Q 3088 0 2303 0 
L 628 0 
L 628 4666 
z
" transform="scale(0.015625)"/>
      <path id="DejaVuSans-64" d="M 2906 2969 
L 2906 4863 
L 3481 4863 
L 3481 0 
L 2906 0 
L 2906 525 
Q 2725 213 2448 61 
Q 2172 -91 1784 -91 
Q 1150 -91 751 415 
Q 353 922 353 1747 
Q 353 2572 751 3078 
Q 1150 3584 1784 3584 
Q 2172 3584 2448 3432 
Q 2725 3281 2906 2969 
z
M 947 1747 
Q 947 1113 1208 752 
Q 1469 391 1925 391 
Q 2381 391 2643 752 
Q 2906 1113 2906 1747 
Q 2906 2381 2643 2742 
Q 2381 3103 1925 3103 
Q 1469 3103 1208 2742 
Q 947 2381 947 1747 
z
" transform="scale(0.015625)"/>
      <path id="DejaVuSans-53" d="M 3425 4513 
L 3425 3897 
Q 3066 4069 2747 4153 
Q 2428 4238 2131 4238 
Q 1616 4238 1336 4038 
Q 1056 3838 1056 3469 
Q 1056 3159 1242 3001 
Q 1428 2844 1947 2747 
L 2328 2669 
Q 3034 2534 3370 2195 
Q 3706 1856 3706 1288 
Q 3706 609 3251 259 
Q 2797 -91 1919 -91 
Q 1588 -91 1214 -16 
Q 841 59 441 206 
L 441 856 
Q 825 641 1194 531 
Q 1563 422 1919 422 
Q 2459 422 2753 634 
Q 3047 847 3047 1241 
Q 3047 1584 2836 1778 
Q 2625 1972 2144 2069 
L 1759 2144 
Q 1053 2284 737 2584 
Q 422 2884 422 3419 
Q 422 4038 858 4394 
Q 1294 4750 2059 4750 
Q 2388 4750 2728 4690 
Q 3069 4631 3425 4513 
z
" transform="scale(0.015625)"/>
     </defs>
     <use xlink:href="#DejaVuSans-46"/>
     <use xlink:href="#DejaVuSans-72" x="50.269531"/>
     <use xlink:href="#DejaVuSans-61" x="91.382812"/>
     <use xlink:href="#DejaVuSans-63" x="152.662109"/>
     <use xlink:href="#DejaVuSans-74" x="207.642578"/>
     <use xlink:href="#DejaVuSans-69" x="246.851562"/>
     <use xlink:href="#DejaVuSans-6f" x="274.634766"/>
     <use xlink:href="#DejaVuSans-6e" x="335.816406"/>
     <use xlink:href="#DejaVuSans-20" x="399.195312"/>
     <use xlink:href="#DejaVuSans-6f" x="430.982422"/>
     <use xlink:href="#DejaVuSans-66" x="492.164062"/>
     <use xlink:href="#DejaVuSans-20" x="527.369141"/>
     <use xlink:href="#DejaVuSans-4f" x="559.15625"/>
     <use xlink:href="#DejaVuSans-76" x="637.867188"/>
     <use xlink:href="#DejaVuSans-65" x="697.046875"/>
     <use xlink:href="#DejaVuSans-72" x="758.570312"/>
     <use xlink:href="#DejaVuSans-6c" x="799.683594"/>
     <use xlink:href="#DejaVuSans-61" x="827.466797"/>
     <use xlink:href="#DejaVuSans-70" x="888.746094"/>
     <use xlink:href="#DejaVuSans-70" x="952.222656"/>
     <use xlink:href="#DejaVuSans-69" x="1015.699219"/>
     <use xlink:href="#DejaVuSans-6e" x="1043.482422"/>
     <use xlink:href="#DejaVuSans-67" x="1106.861328"/>
     <use xlink:href="#DejaVuSans-20" x="1170.337891"/>
     <use xlink:href="#DejaVuSans-48" x="1202.125"/>
     <use xlink:href="#DejaVuSans-69" x="1277.320312"/>
     <use xlink:href="#DejaVuSans-74" x="1305.103516"/>
     <use xlink:href="#DejaVuSans-73" x="1344.3125"/>
     <use xlink:href="#DejaVuSans-20" x="1396.412109"/>
     <use xlink:href="#DejaVuSans-69" x="1428.199219"/>
     <use xlink:href="#DejaVuSans-6e" x="1455.982422"/>
     <use xlink:href="#DejaVuSans-20" x="1519.361328"/>
     <use xlink:href="#DejaVuSans-42" x="1551.148438"/>
     <use xlink:href="#DejaVuSans-6f" x="1619.751953"/>
     <use xlink:href="#DejaVuSans-6f" x="1680.933594"/>
     <use xlink:href="#DejaVuSans-74" x="1742.115234"/>
     <use xlink:href="#DejaVuSans-73" x="1781.324219"/>
     <use xlink:href="#DejaVuSans-74" x="1833.423828"/>
     <use xlink:href="#DejaVuSans-72" x="1872.632812"/>
     <use xlink:href="#DejaVuSans-61" x="1913.746094"/>
     <use xlink:href="#DejaVuSans-70" x="1975.025391"/>
     <use xlink:href="#DejaVuSans-73" x="2038.501953"/>
     <use xlink:href="#DejaVuSans-20" x="2090.601562"/>
     <use xlink:href="#DejaVuSans-63" x="2122.388672"/>
     <use xlink:href="#DejaVuSans-6f" x="2177.369141"/>
     <use xlink:href="#DejaVuSans-6d" x="2238.550781"/>
     <use xlink:href="#DejaVuSans-70" x="2335.962891"/>
     <use xlink:href="#DejaVuSans-61" x="2399.439453"/>
     <use xlink:href="#DejaVuSans-72" x="2460.71875"/>
     <use xlink:href="#DejaVuSans-65" x="2499.582031"/>
     <use xlink:href="#DejaVuSans-64" x="2561.105469"/>
     <use xlink:href="#DejaVuSans-20" x="2624.582031"/>
     <use xlink:href="#DejaVuSans-74" x="2656.369141"/>
     <use xlink:href="#DejaVuSans-6f" x="2695.578125"/>
     <use xlink:href="#DejaVuSans-20" x="2756.759766"/>
     <use xlink:href="#DejaVuSans-53" x="2788.546875"/>
     <use xlink:href="#DejaVuSans-74" x="2852.023438"/>
     <use xlink:href="#DejaVuSans-61" x="2891.232422"/>
     <use xlink:href="#DejaVuSans-6e" x="2952.511719"/>
     <use xlink:href="#DejaVuSans-64" x="3015.890625"/>
     <use xlink:href="#DejaVuSans-61" x="3079.367188"/>
     <use xlink:href="#DejaVuSans-72" x="3140.646484"/>
     <use xlink:href="#DejaVuSans-64" x="3180.009766"/>
    </g>
   </g>
  </g>
 </g>
 <defs>
  <clipPath id="p851156b1f5">
   <rect x="32.81" y="18" width="254.47" height="91.24"/>
  </clipPath>
 </defs>
</svg>
