<?xml version="1.0" encoding="utf-8" standalone="no"?>
<!DOCTYPE svg PUBLIC "-//W3C//DTD SVG 1.1//EN"
  "http://www.w3.org/Graphics/SVG/1.1/DTD/svg11.dtd">
<svg xmlns:xlink="http://www.w3.org/1999/xlink" width="720pt" height="360pt" viewBox="0 0 720 360" xmlns="http://www.w3.org/2000/svg" version="1.1">
 <metadata>
  <rdf:RDF xmlns:dc="http://purl.org/dc/elements/1.1/" xmlns:cc="http://creativecommons.org/ns#" xmlns:rdf="http://www.w3.org/1999/02/22-rdf-syntax-ns#">
   <cc:Work>
    <dc:type rdf:resource="http://purl.org/dc/dcmitype/StillImage"/>
    <dc:date>2024-07-12T15:30:50.062217</dc:date>
    <dc:format>image/svg+xml</dc:format>
    <dc:creator>
     <cc:Agent>
      <dc:title>Matplotlib v3.9.1, https://matplotlib.org/</dc:title>
     </cc:Agent>
    </dc:creator>
   </cc:Work>
  </rdf:RDF>
 </metadata>
 <defs>
  <style type="text/css">*{stroke-linejoin: round; stroke-linecap: butt}</style>
 </defs>
 <g id="figure_1">
  <g id="patch_1">
   <path d="M 0 360 
L 720 360 
L 720 0 
L 0 0 
z
" style="fill: #ffffff"/>
  </g>
  <g id="axes_1">
   <g id="patch_2">
    <path d="M 55.7 319 
L 709.2 319 
L 709.2 25.92 
L 55.7 25.92 
z
" style="fill: #ffffff"/>
   </g>
   <g id="PolyCollection_1">
    <path d="M 89.429091 295.806513 
L 87.320909 295.806513 
L 87.103558 294.722864 
L 86.853104 293.639215 
L 86.567155 292.555566 
L 86.243707 291.471917 
L 85.881268 290.388268 
L 85.478983 289.304619 
L 85.036758 288.22097 
L 84.555365 287.137321 
L 84.036538 286.053672 
L 83.483033 284.970023 
L 82.898664 283.886374 
L 82.2883 282.802725 
L 81.657825 281.719076 
L 81.014048 280.635427 
L 80.364578 279.551778 
L 79.717653 278.468129 
L 79.081939 277.38448 
L 78.466286 276.300831 
L 77.879475 275.217182 
L 77.329941 274.133533 
L 76.825502 273.049884 
L 76.37309 271.966235 
L 75.978509 270.882586 
L 75.646223 269.798937 
L 75.379188 268.715288 
L 75.178731 267.631639 
L 75.044498 266.54799 
L 74.974452 265.464341 
L 74.964945 264.380692 
L 75.010849 263.297043 
L 75.105743 262.213394 
L 75.242151 261.129745 
L 75.411822 260.046096 
L 75.606036 258.962447 
L 75.815915 257.878798 
L 76.03274 256.795149 
L 76.248245 255.7115 
L 76.454872 254.627851 
L 76.645983 253.544202 
L 76.816012 252.460553 
L 76.960545 251.376904 
L 77.076329 250.293255 
L 77.161217 249.209606 
L 77.214033 248.125957 
L 77.234386 247.042308 
L 77.222436 245.958659 
L 77.178625 244.87501 
L 77.103409 243.791361 
L 76.99698 242.707712 
L 76.859039 241.624063 
L 76.688597 240.540414 
L 76.483864 239.456765 
L 76.242205 238.373116 
L 75.960197 237.289467 
L 75.633778 236.205818 
L 75.258495 235.122169 
L 74.829841 234.03852 
L 74.343657 232.954871 
L 73.796598 231.871222 
L 73.186614 230.787573 
L 72.513434 229.703924 
L 71.779013 228.620275 
L 70.987906 227.536626 
L 70.147539 226.452977 
L 69.268356 225.369328 
L 68.363814 224.285679 
L 67.450205 223.20203 
L 66.546316 222.118381 
L 65.67293 221.034732 
L 64.852168 219.951083 
L 64.106728 218.867434 
L 63.459027 217.783785 
L 62.930314 216.700136 
L 62.539789 215.616487 
L 62.303776 214.532838 
L 62.235 213.449189 
L 62.342012 212.36554 
L 62.628785 211.281891 
L 63.094517 210.198242 
L 63.733641 209.114593 
L 64.53604 208.030944 
L 65.487467 206.947295 
L 66.57012 205.863646 
L 67.763364 204.779997 
L 69.044533 203.696348 
L 70.389792 202.612699 
L 71.774996 201.52905 
L 73.176503 200.445401 
L 74.571923 199.361752 
L 75.940746 198.278103 
L 77.264847 197.194454 
L 78.528847 196.110805 
L 79.720325 195.027156 
L 80.829898 193.943507 
L 81.851156 192.859858 
L 82.780507 191.776209 
L 83.616916 190.69256 
L 84.361586 189.608911 
L 85.0176 188.525262 
L 91.7324 188.525262 
L 91.7324 188.525262 
L 92.388414 189.608911 
L 93.133084 190.69256 
L 93.969493 191.776209 
L 94.898844 192.859858 
L 95.920102 193.943507 
L 97.029675 195.027156 
L 98.221153 196.110805 
L 99.485153 197.194454 
L 100.809254 198.278103 
L 102.178077 199.361752 
L 103.573497 200.445401 
L 104.975004 201.52905 
L 106.360208 202.612699 
L 107.705467 203.696348 
L 108.986636 204.779997 
L 110.17988 205.863646 
L 111.262533 206.947295 
L 112.21396 208.030944 
L 113.016359 209.114593 
L 113.655483 210.198242 
L 114.121215 211.281891 
L 114.407988 212.36554 
L 114.515 213.449189 
L 114.446224 214.532838 
L 114.210211 215.616487 
L 113.819686 216.700136 
L 113.290973 217.783785 
L 112.643272 218.867434 
L 111.897832 219.951083 
L 111.07707 221.034732 
L 110.203684 222.118381 
L 109.299795 223.20203 
L 108.386186 224.285679 
L 107.481644 225.369328 
L 106.602461 226.452977 
L 105.762094 227.536626 
L 104.970987 228.620275 
L 104.236566 229.703924 
L 103.563386 230.787573 
L 102.953402 231.871222 
L 102.406343 232.954871 
L 101.920159 234.03852 
L 101.491505 235.122169 
L 101.116222 236.205818 
L 100.789803 237.289467 
L 100.507795 238.373116 
L 100.266136 239.456765 
L 100.061403 240.540414 
L 99.890961 241.624063 
L 99.75302 242.707712 
L 99.646591 243.791361 
L 99.571375 244.87501 
L 99.527564 245.958659 
L 99.515614 247.042308 
L 99.535967 248.125957 
L 99.588783 249.209606 
L 99.673671 250.293255 
L 99.789455 251.376904 
L 99.933988 252.460553 
L 100.104017 253.544202 
L 100.295128 254.627851 
L 100.501755 255.7115 
L 100.71726 256.795149 
L 100.934085 257.878798 
L 101.143964 258.962447 
L 101.338178 260.046096 
L 101.507849 261.129745 
L 101.644257 262.213394 
L 101.739151 263.297043 
L 101.785055 264.380692 
L 101.775548 265.464341 
L 101.705502 266.54799 
L 101.571269 267.631639 
L 101.370812 268.715288 
L 101.103777 269.798937 
L 100.771491 270.882586 
L 100.37691 271.966235 
L 99.924498 273.049884 
L 99.420059 274.133533 
L 98.870525 275.217182 
L 98.283714 276.300831 
L 97.668061 277.38448 
L 97.032347 278.468129 
L 96.385422 279.551778 
L 95.735952 280.635427 
L 95.092175 281.719076 
L 94.4617 282.802725 
L 93.851336 283.886374 
L 93.266967 284.970023 
L 92.713462 286.053672 
L 92.194635 287.137321 
L 91.713242 288.22097 
L 91.271017 289.304619 
L 90.868732 290.388268 
L 90.506293 291.471917 
L 90.182845 292.555566 
L 89.896896 293.639215 
L 89.646442 294.722864 
L 89.429091 295.806513 
L 89.429091 295.806513 
z
" clip-path="url(#p3dfc339bfe)" style="fill: none; stroke: #fa8072; stroke-opacity: 0.8; stroke-width: 2"/>
   </g>
   <g id="PolyCollection_2">
    <path d="M 154.425022 298.683375 
L 153.024978 298.683375 
L 152.837894 296.636337 
L 152.61371 294.589298 
L 152.34878 292.542259 
L 152.040084 290.49522 
L 151.685502 288.448182 
L 151.284103 286.401143 
L 150.836406 284.354104 
L 150.344602 282.307066 
L 149.812704 280.260027 
L 149.246611 278.212988 
L 148.654055 276.16595 
L 148.04443 274.118911 
L 147.428489 272.071872 
L 146.817925 270.024834 
L 146.224845 267.977795 
L 145.661172 265.930756 
L 145.138021 263.883717 
L 144.665079 261.836679 
L 144.250047 259.78964 
L 143.898195 257.742601 
L 143.612059 255.695563 
L 143.391329 253.648524 
L 143.232913 251.601485 
L 143.131219 249.554447 
L 143.07859 247.507408 
L 143.0659 245.460369 
L 143.083238 243.41333 
L 143.120622 241.366292 
L 143.168705 239.319253 
L 143.219385 237.272214 
L 143.266289 235.225176 
L 143.305079 233.178137 
L 143.333563 231.131098 
L 143.351607 229.08406 
L 143.360861 227.037021 
L 143.364325 224.989982 
L 143.365814 222.942944 
L 143.369368 220.895905 
L 143.378665 218.848866 
L 143.396499 216.801827 
L 143.424379 214.754789 
L 143.462265 212.70775 
L 143.508494 210.660711 
L 143.559871 208.613673 
L 143.611942 206.566634 
L 143.659394 204.519595 
L 143.696561 202.472557 
L 143.717984 200.425518 
L 143.718965 198.378479 
L 143.696077 196.33144 
L 143.647571 194.284402 
L 143.573668 192.237363 
L 143.476686 190.190324 
L 143.361022 188.143286 
L 143.232968 186.096247 
L 143.100405 184.049208 
L 142.972376 182.00217 
L 142.858592 179.955131 
L 142.7689 177.908092 
L 142.712745 175.861054 
L 142.698679 173.814015 
L 142.733924 171.766976 
L 142.824027 169.719937 
L 142.97262 167.672899 
L 143.181293 165.62586 
L 143.449568 163.578821 
L 143.774991 161.531783 
L 144.153307 159.484744 
L 144.578715 157.437705 
L 145.044176 155.390667 
L 145.541762 153.343628 
L 146.063017 151.296589 
L 146.59931 149.249551 
L 147.142171 147.202512 
L 147.683584 145.155473 
L 148.21623 143.108434 
L 148.733674 141.061396 
L 149.23049 139.014357 
L 149.702325 136.967318 
L 150.145903 134.92028 
L 150.558989 132.873241 
L 150.940299 130.826202 
L 151.289395 128.779164 
L 151.606551 126.732125 
L 151.892623 124.685086 
L 152.14891 122.638047 
L 152.377034 120.591009 
L 152.578826 118.54397 
L 152.75624 116.496931 
L 152.911275 114.449893 
L 153.045923 112.402854 
L 153.162128 110.355815 
L 153.261756 108.308777 
L 153.346583 106.261738 
L 153.418283 104.214699 
L 153.47842 102.167661 
L 153.528448 100.120622 
L 153.569709 98.073583 
L 153.603431 96.026544 
L 153.846569 96.026544 
L 153.846569 96.026544 
L 153.880291 98.073583 
L 153.921552 100.120622 
L 153.97158 102.167661 
L 154.031717 104.214699 
L 154.103417 106.261738 
L 154.188244 108.308777 
L 154.287872 110.355815 
L 154.404077 112.402854 
L 154.538725 114.449893 
L 154.69376 116.496931 
L 154.871174 118.54397 
L 155.072966 120.591009 
L 155.30109 122.638047 
L 155.557377 124.685086 
L 155.843449 126.732125 
L 156.160605 128.779164 
L 156.509701 130.826202 
L 156.891011 132.873241 
L 157.304097 134.92028 
L 157.747675 136.967318 
L 158.21951 139.014357 
L 158.716326 141.061396 
L 159.23377 143.108434 
L 159.766416 145.155473 
L 160.307829 147.202512 
L 160.85069 149.249551 
L 161.386983 151.296589 
L 161.908238 153.343628 
L 162.405824 155.390667 
L 162.871285 157.437705 
L 163.296693 159.484744 
L 163.675009 161.531783 
L 164.000432 163.578821 
L 164.268707 165.62586 
L 164.47738 167.672899 
L 164.625973 169.719937 
L 164.716076 171.766976 
L 164.751321 173.814015 
L 164.737255 175.861054 
L 164.6811 177.908092 
L 164.591408 179.955131 
L 164.477624 182.00217 
L 164.349595 184.049208 
L 164.217032 186.096247 
L 164.088978 188.143286 
L 163.973314 190.190324 
L 163.876332 192.237363 
L 163.802429 194.284402 
L 163.753923 196.33144 
L 163.731035 198.378479 
L 163.732016 200.425518 
L 163.753439 202.472557 
L 163.790606 204.519595 
L 163.838058 206.566634 
L 163.890129 208.613673 
L 163.941506 210.660711 
L 163.987735 212.70775 
L 164.025621 214.754789 
L 164.053501 216.801827 
L 164.071335 218.848866 
L 164.080632 220.895905 
L 164.084186 222.942944 
L 164.085675 224.989982 
L 164.089139 227.037021 
L 164.098393 229.08406 
L 164.116437 231.131098 
L 164.144921 233.178137 
L 164.183711 235.225176 
L 164.230615 237.272214 
L 164.281295 239.319253 
L 164.329378 241.366292 
L 164.366762 243.41333 
L 164.3841 245.460369 
L 164.37141 247.507408 
L 164.318781 249.554447 
L 164.217087 251.601485 
L 164.058671 253.648524 
L 163.837941 255.695563 
L 163.551805 257.742601 
L 163.199953 259.78964 
L 162.784921 261.836679 
L 162.311979 263.883717 
L 161.788828 265.930756 
L 161.225155 267.977795 
L 160.632075 270.024834 
L 160.021511 272.071872 
L 159.40557 274.118911 
L 158.795945 276.16595 
L 158.203389 278.212988 
L 157.637296 280.260027 
L 157.105398 282.307066 
L 156.613594 284.354104 
L 156.165897 286.401143 
L 155.764498 288.448182 
L 155.409916 290.49522 
L 155.10122 292.542259 
L 154.83629 294.589298 
L 154.612106 296.636337 
L 154.425022 298.683375 
L 154.425022 298.683375 
z
" clip-path="url(#p3dfc339bfe)" style="fill: none; stroke: #fa8072; stroke-opacity: 0.8; stroke-width: 2"/>
   </g>
   <g id="PolyCollection_3">
    <path d="M 219.309125 295.450107 
L 218.840875 295.450107 
L 218.759274 293.066044 
L 218.656466 290.681981 
L 218.529338 288.297918 
L 218.374938 285.913855 
L 218.190608 283.529792 
L 217.974067 281.145729 
L 217.723457 278.761666 
L 217.437317 276.377604 
L 217.114504 273.993541 
L 216.754054 271.609478 
L 216.355024 269.225415 
L 215.91635 266.841352 
L 215.436755 264.457289 
L 214.914755 262.073226 
L 214.348791 259.689163 
L 213.737501 257.3051 
L 213.080121 254.921037 
L 212.376991 252.536974 
L 211.630114 250.152911 
L 210.843693 247.768848 
L 210.024597 245.384785 
L 209.182659 243.000723 
L 208.330773 240.61666 
L 207.484723 238.232597 
L 206.662742 235.848534 
L 205.884791 233.464471 
L 205.171593 231.080408 
L 204.543479 228.696345 
L 204.019117 226.312282 
L 203.61423 223.928219 
L 203.340405 221.544156 
L 203.20411 219.160093 
L 203.206016 216.77603 
L 203.34072 214.391967 
L 203.596904 212.007904 
L 203.957956 209.623842 
L 204.403004 207.239779 
L 204.908298 204.855716 
L 205.448819 202.471653 
L 205.999973 200.08759 
L 206.539226 197.703527 
L 207.047533 195.319464 
L 207.51044 192.935401 
L 207.918778 190.551338 
L 208.268891 188.167275 
L 208.562412 185.783212 
L 208.805621 183.399149 
L 209.008471 181.015086 
L 209.183387 178.631023 
L 209.343971 176.246961 
L 209.503734 173.862898 
L 209.674987 171.478835 
L 209.867966 169.094772 
L 210.090266 166.710709 
L 210.346604 164.326646 
L 210.638877 161.942583 
L 210.966475 159.55852 
L 211.326768 157.174457 
L 211.715665 154.790394 
L 212.128172 152.406331 
L 212.558871 150.022268 
L 213.002272 147.638205 
L 213.453033 145.254142 
L 213.906035 142.870079 
L 214.356372 140.486017 
L 214.799285 138.101954 
L 215.230086 135.717891 
L 215.644124 133.333828 
L 216.036814 130.949765 
L 216.403743 128.565702 
L 216.740848 126.181639 
L 217.04464 123.797576 
L 217.312456 121.413513 
L 217.542688 119.02945 
L 217.734972 116.645387 
L 217.890292 114.261324 
L 218.010987 111.877261 
L 218.100655 109.493198 
L 218.163949 107.109136 
L 218.206281 104.725073 
L 218.233464 102.34101 
L 218.251319 99.956947 
L 218.265292 97.572884 
L 218.280102 95.188821 
L 218.299477 92.804758 
L 218.325979 90.420695 
L 218.360949 88.036632 
L 218.40456 85.652569 
L 218.455973 83.268506 
L 218.513565 80.884443 
L 218.575205 78.50038 
L 218.638531 76.116317 
L 218.701217 73.732255 
L 218.761183 71.348192 
L 218.816746 68.964129 
L 218.866707 66.580066 
L 218.910364 64.196003 
L 218.947484 61.81194 
L 218.978221 59.427877 
L 219.171779 59.427877 
L 219.171779 59.427877 
L 219.202516 61.81194 
L 219.239636 64.196003 
L 219.283293 66.580066 
L 219.333254 68.964129 
L 219.388817 71.348192 
L 219.448783 73.732255 
L 219.511469 76.116317 
L 219.574795 78.50038 
L 219.636435 80.884443 
L 219.694027 83.268506 
L 219.74544 85.652569 
L 219.789051 88.036632 
L 219.824021 90.420695 
L 219.850523 92.804758 
L 219.869898 95.188821 
L 219.884708 97.572884 
L 219.898681 99.956947 
L 219.916536 102.34101 
L 219.943719 104.725073 
L 219.986051 107.109136 
L 220.049345 109.493198 
L 220.139013 111.877261 
L 220.259708 114.261324 
L 220.415028 116.645387 
L 220.607312 119.02945 
L 220.837544 121.413513 
L 221.10536 123.797576 
L 221.409152 126.181639 
L 221.746257 128.565702 
L 222.113186 130.949765 
L 222.505876 133.333828 
L 222.919914 135.717891 
L 223.350715 138.101954 
L 223.793628 140.486017 
L 224.243965 142.870079 
L 224.696967 145.254142 
L 225.147728 147.638205 
L 225.591129 150.022268 
L 226.021828 152.406331 
L 226.434335 154.790394 
L 226.823232 157.174457 
L 227.183525 159.55852 
L 227.511123 161.942583 
L 227.803396 164.326646 
L 228.059734 166.710709 
L 228.282034 169.094772 
L 228.475013 171.478835 
L 228.646266 173.862898 
L 228.806029 176.246961 
L 228.966613 178.631023 
L 229.141529 181.015086 
L 229.344379 183.399149 
L 229.587588 185.783212 
L 229.881109 188.167275 
L 230.231222 190.551338 
L 230.63956 192.935401 
L 231.102467 195.319464 
L 231.610774 197.703527 
L 232.150027 200.08759 
L 232.701181 202.471653 
L 233.241702 204.855716 
L 233.746996 207.239779 
L 234.192044 209.623842 
L 234.553096 212.007904 
L 234.80928 214.391967 
L 234.943984 216.77603 
L 234.94589 219.160093 
L 234.809595 221.544156 
L 234.53577 223.928219 
L 234.130883 226.312282 
L 233.606521 228.696345 
L 232.978407 231.080408 
L 232.265209 233.464471 
L 231.487258 235.848534 
L 230.665277 238.232597 
L 229.819227 240.61666 
L 228.967341 243.000723 
L 228.125403 245.384785 
L 227.306307 247.768848 
L 226.519886 250.152911 
L 225.773009 252.536974 
L 225.069879 254.921037 
L 224.412499 257.3051 
L 223.801209 259.689163 
L 223.235245 262.073226 
L 222.713245 264.457289 
L 222.23365 266.841352 
L 221.794976 269.225415 
L 221.395946 271.609478 
L 221.035496 273.993541 
L 220.712683 276.377604 
L 220.426543 278.761666 
L 220.175933 281.145729 
L 219.959392 283.529792 
L 219.775062 285.913855 
L 219.620662 288.297918 
L 219.493534 290.681981 
L 219.390726 293.066044 
L 219.309125 295.450107 
L 219.309125 295.450107 
z
" clip-path="url(#p3dfc339bfe)" style="fill: none; stroke: #fa8072; stroke-opacity: 0.8; stroke-width: 2"/>
   </g>
   <g id="PolyCollection_4">
    <path d="M 284.602008 291.149987 
L 284.247992 291.149987 
L 284.18589 288.651623 
L 284.106145 286.15326 
L 284.005198 283.654897 
L 283.87922 281.156534 
L 283.724225 278.658171 
L 283.536229 276.159807 
L 283.311446 273.661444 
L 283.046522 271.163081 
L 282.738793 268.664718 
L 282.386567 266.166355 
L 281.989387 263.667991 
L 281.548286 261.169628 
L 281.065979 258.671265 
L 280.546979 256.172902 
L 279.997622 253.674539 
L 279.425962 251.176175 
L 278.841537 248.677812 
L 278.255012 246.179449 
L 277.677687 243.681086 
L 277.12093 241.182723 
L 276.59554 238.684359 
L 276.11112 236.185996 
L 275.675493 233.687633 
L 275.294227 231.18927 
L 274.970318 228.690907 
L 274.704064 226.192543 
L 274.493143 223.69418 
L 274.332898 221.195817 
L 274.216801 218.697454 
L 274.137038 216.19909 
L 274.085175 213.700727 
L 274.052822 211.202364 
L 274.032242 208.704001 
L 274.016845 206.205638 
L 274.001532 203.707274 
L 273.982875 201.208911 
L 273.959131 198.710548 
L 273.930113 196.212185 
L 273.89695 193.713822 
L 273.861785 191.215458 
L 273.827443 188.717095 
L 273.797108 186.218732 
L 273.774041 183.720369 
L 273.761352 181.222006 
L 273.761829 178.723642 
L 273.777837 176.225279 
L 273.81126 173.726916 
L 273.863487 171.228553 
L 273.935431 168.73019 
L 274.027554 166.231826 
L 274.139918 163.733463 
L 274.272228 161.2351 
L 274.423887 158.736737 
L 274.594043 156.238374 
L 274.781647 153.74001 
L 274.985517 151.241647 
L 275.2044 148.743284 
L 275.437046 146.244921 
L 275.682281 143.746558 
L 275.939075 141.248194 
L 276.2066 138.749831 
L 276.48426 136.251468 
L 276.771695 133.753105 
L 277.068746 131.254742 
L 277.375372 128.756378 
L 277.69154 126.258015 
L 278.01708 123.759652 
L 278.351533 121.261289 
L 278.694014 118.762926 
L 279.043096 116.264562 
L 279.396762 113.766199 
L 279.752413 111.267836 
L 280.106954 108.769473 
L 280.456942 106.27111 
L 280.79879 103.772746 
L 281.128997 101.274383 
L 281.444382 98.77602 
L 281.742284 96.277657 
L 282.020716 93.779294 
L 282.278452 91.28093 
L 282.515033 88.782567 
L 282.730707 86.284204 
L 282.926315 83.785841 
L 283.103124 81.287478 
L 283.262664 78.789114 
L 283.406557 76.290751 
L 283.536374 73.792388 
L 283.65354 71.294025 
L 283.759263 68.795662 
L 283.854525 66.297298 
L 283.940097 63.798935 
L 284.01658 61.300572 
L 284.084461 58.802209 
L 284.14417 56.303846 
L 284.196133 53.805482 
L 284.240808 51.307119 
L 284.278701 48.808756 
L 284.310381 46.310393 
L 284.336464 43.812029 
L 284.513536 43.812029 
L 284.513536 43.812029 
L 284.539619 46.310393 
L 284.571299 48.808756 
L 284.609192 51.307119 
L 284.653867 53.805482 
L 284.70583 56.303846 
L 284.765539 58.802209 
L 284.83342 61.300572 
L 284.909903 63.798935 
L 284.995475 66.297298 
L 285.090737 68.795662 
L 285.19646 71.294025 
L 285.313626 73.792388 
L 285.443443 76.290751 
L 285.587336 78.789114 
L 285.746876 81.287478 
L 285.923685 83.785841 
L 286.119293 86.284204 
L 286.334967 88.782567 
L 286.571548 91.28093 
L 286.829284 93.779294 
L 287.107716 96.277657 
L 287.405618 98.77602 
L 287.721003 101.274383 
L 288.05121 103.772746 
L 288.393058 106.27111 
L 288.743046 108.769473 
L 289.097587 111.267836 
L 289.453238 113.766199 
L 289.806904 116.264562 
L 290.155986 118.762926 
L 290.498467 121.261289 
L 290.83292 123.759652 
L 291.15846 126.258015 
L 291.474628 128.756378 
L 291.781254 131.254742 
L 292.078305 133.753105 
L 292.36574 136.251468 
L 292.6434 138.749831 
L 292.910925 141.248194 
L 293.167719 143.746558 
L 293.412954 146.244921 
L 293.6456 148.743284 
L 293.864483 151.241647 
L 294.068353 153.74001 
L 294.255957 156.238374 
L 294.426113 158.736737 
L 294.577772 161.2351 
L 294.710082 163.733463 
L 294.822446 166.231826 
L 294.914569 168.73019 
L 294.986513 171.228553 
L 295.03874 173.726916 
L 295.072163 176.225279 
L 295.088171 178.723642 
L 295.088648 181.222006 
L 295.075959 183.720369 
L 295.052892 186.218732 
L 295.022557 188.717095 
L 294.988215 191.215458 
L 294.95305 193.713822 
L 294.919887 196.212185 
L 294.890869 198.710548 
L 294.867125 201.208911 
L 294.848468 203.707274 
L 294.833155 206.205638 
L 294.817758 208.704001 
L 294.797178 211.202364 
L 294.764825 213.700727 
L 294.712962 216.19909 
L 294.633199 218.697454 
L 294.517102 221.195817 
L 294.356857 223.69418 
L 294.145936 226.192543 
L 293.879682 228.690907 
L 293.555773 231.18927 
L 293.174507 233.687633 
L 292.73888 236.185996 
L 292.25446 238.684359 
L 291.72907 241.182723 
L 291.172313 243.681086 
L 290.594988 246.179449 
L 290.008463 248.677812 
L 289.424038 251.176175 
L 288.852378 253.674539 
L 288.303021 256.172902 
L 287.784021 258.671265 
L 287.301714 261.169628 
L 286.860613 263.667991 
L 286.463433 266.166355 
L 286.111207 268.664718 
L 285.803478 271.163081 
L 285.538554 273.661444 
L 285.313771 276.159807 
L 285.125775 278.658171 
L 284.97078 281.156534 
L 284.844802 283.654897 
L 284.743855 286.15326 
L 284.66411 288.651623 
L 284.602008 291.149987 
L 284.602008 291.149987 
z
" clip-path="url(#p3dfc339bfe)" style="fill: none; stroke: #fa8072; stroke-opacity: 0.8; stroke-width: 2"/>
   </g>
   <g id="PolyCollection_5">
    <path d="M 349.859789 305.678182 
L 349.690211 305.678182 
L 349.664942 302.986905 
L 349.633882 300.295629 
L 349.59619 297.604353 
L 349.551004 294.913076 
L 349.497453 292.2218 
L 349.434667 289.530523 
L 349.361777 286.839247 
L 349.277909 284.147971 
L 349.182178 281.456694 
L 349.073665 278.765418 
L 348.951401 276.074141 
L 348.814347 273.382865 
L 348.661376 270.691589 
L 348.491271 268.000312 
L 348.302733 265.309036 
L 348.094404 262.617759 
L 347.864925 259.926483 
L 347.612995 257.235207 
L 347.337474 254.54393 
L 347.03749 251.852654 
L 346.712564 249.161377 
L 346.362751 246.470101 
L 345.988772 243.778825 
L 345.592141 241.087548 
L 345.175274 238.396272 
L 344.741561 235.704995 
L 344.295399 233.013719 
L 343.842166 230.322443 
L 343.388134 227.631166 
L 342.940307 224.93989 
L 342.506194 222.248613 
L 342.093518 219.557337 
L 341.709866 216.866061 
L 341.362326 214.174784 
L 341.057108 211.483508 
L 340.799198 208.792231 
L 340.592073 206.100955 
L 340.437501 203.409679 
L 340.335439 200.718402 
L 340.284057 198.027126 
L 340.279865 195.335849 
L 340.31794 192.644573 
L 340.392223 189.953297 
L 340.49586 187.26202 
L 340.621548 184.570744 
L 340.761856 181.879467 
L 340.909507 179.188191 
L 341.057589 176.496915 
L 341.199717 173.805638 
L 341.330132 171.114362 
L 341.443782 168.423085 
L 341.536368 165.731809 
L 341.604418 163.040533 
L 341.645367 160.349256 
L 341.657664 157.65798 
L 341.640897 154.966703 
L 341.595919 152.275427 
L 341.524945 149.584151 
L 341.431595 146.892874 
L 341.320866 144.201598 
L 341.198997 141.510321 
L 341.073242 138.819045 
L 340.951549 136.127769 
L 340.842163 133.436492 
L 340.7532 130.745216 
L 340.692216 128.053939 
L 340.665828 125.362663 
L 340.679402 122.671387 
L 340.736849 119.98011 
L 340.84053 117.288834 
L 340.991267 114.597557 
L 341.188458 111.906281 
L 341.430242 109.215005 
L 341.713718 106.523728 
L 342.035167 103.832452 
L 342.390258 101.141175 
L 342.774231 98.449899 
L 343.18203 95.758623 
L 343.608414 93.067346 
L 344.04803 90.37607 
L 344.495479 87.684793 
L 344.94537 84.993517 
L 345.392394 82.302241 
L 345.831406 79.610964 
L 346.257531 76.919688 
L 346.666274 74.228411 
L 347.053643 71.537135 
L 347.416263 68.845859 
L 347.751468 66.154582 
L 348.057373 63.463306 
L 348.332899 60.772029 
L 348.577769 58.080753 
L 348.792457 55.389477 
L 348.978106 52.6982 
L 349.136417 50.006924 
L 349.269522 47.315647 
L 349.37985 44.624371 
L 349.469992 41.933095 
L 349.542582 39.241818 
L 350.007418 39.241818 
L 350.007418 39.241818 
L 350.080008 41.933095 
L 350.17015 44.624371 
L 350.280478 47.315647 
L 350.413583 50.006924 
L 350.571894 52.6982 
L 350.757543 55.389477 
L 350.972231 58.080753 
L 351.217101 60.772029 
L 351.492627 63.463306 
L 351.798532 66.154582 
L 352.133737 68.845859 
L 352.496357 71.537135 
L 352.883726 74.228411 
L 353.292469 76.919688 
L 353.718594 79.610964 
L 354.157606 82.302241 
L 354.60463 84.993517 
L 355.054521 87.684793 
L 355.50197 90.37607 
L 355.941586 93.067346 
L 356.36797 95.758623 
L 356.775769 98.449899 
L 357.159742 101.141175 
L 357.514833 103.832452 
L 357.836282 106.523728 
L 358.119758 109.215005 
L 358.361542 111.906281 
L 358.558733 114.597557 
L 358.70947 117.288834 
L 358.813151 119.98011 
L 358.870598 122.671387 
L 358.884172 125.362663 
L 358.857784 128.053939 
L 358.7968 130.745216 
L 358.707837 133.436492 
L 358.598451 136.127769 
L 358.476758 138.819045 
L 358.351003 141.510321 
L 358.229134 144.201598 
L 358.118405 146.892874 
L 358.025055 149.584151 
L 357.954081 152.275427 
L 357.909103 154.966703 
L 357.892336 157.65798 
L 357.904633 160.349256 
L 357.945582 163.040533 
L 358.013632 165.731809 
L 358.106218 168.423085 
L 358.219868 171.114362 
L 358.350283 173.805638 
L 358.492411 176.496915 
L 358.640493 179.188191 
L 358.788144 181.879467 
L 358.928452 184.570744 
L 359.05414 187.26202 
L 359.157777 189.953297 
L 359.23206 192.644573 
L 359.270135 195.335849 
L 359.265943 198.027126 
L 359.214561 200.718402 
L 359.112499 203.409679 
L 358.957927 206.100955 
L 358.750802 208.792231 
L 358.492892 211.483508 
L 358.187674 214.174784 
L 357.840134 216.866061 
L 357.456482 219.557337 
L 357.043806 222.248613 
L 356.609693 224.93989 
L 356.161866 227.631166 
L 355.707834 230.322443 
L 355.254601 233.013719 
L 354.808439 235.704995 
L 354.374726 238.396272 
L 353.957859 241.087548 
L 353.561228 243.778825 
L 353.187249 246.470101 
L 352.837436 249.161377 
L 352.51251 251.852654 
L 352.212526 254.54393 
L 351.937005 257.235207 
L 351.685075 259.926483 
L 351.455596 262.617759 
L 351.247267 265.309036 
L 351.058729 268.000312 
L 350.888624 270.691589 
L 350.735653 273.382865 
L 350.598599 276.074141 
L 350.476335 278.765418 
L 350.367822 281.456694 
L 350.272091 284.147971 
L 350.188223 286.839247 
L 350.115333 289.530523 
L 350.052547 292.2218 
L 349.998996 294.913076 
L 349.95381 297.604353 
L 349.916118 300.295629 
L 349.885058 302.986905 
L 349.859789 305.678182 
L 349.859789 305.678182 
z
" clip-path="url(#p3dfc339bfe)" style="fill: none; stroke: #fa8072; stroke-opacity: 0.8; stroke-width: 2"/>
   </g>
   <g id="PolyCollection_6">
    <path d="M 415.331597 255.606735 
L 414.918403 255.606735 
L 414.852043 253.625246 
L 414.768536 251.643757 
L 414.664809 249.662268 
L 414.537632 247.680779 
L 414.383711 245.69929 
L 414.199818 243.717801 
L 413.982936 241.736312 
L 413.730419 239.754822 
L 413.440165 237.773333 
L 413.110772 235.791844 
L 412.741695 233.810355 
L 412.333357 231.828866 
L 411.887234 229.847377 
L 411.405873 227.865888 
L 410.89287 225.884399 
L 410.352775 223.902909 
L 409.790946 221.92142 
L 409.213352 219.939931 
L 408.626336 217.958442 
L 408.036357 215.976953 
L 407.44973 213.995464 
L 406.87238 212.013975 
L 406.309625 210.032486 
L 405.766021 208.050997 
L 405.245256 206.069507 
L 404.750121 204.088018 
L 404.282547 202.106529 
L 403.843709 200.12504 
L 403.434181 198.143551 
L 403.054127 196.162062 
L 402.703517 194.180573 
L 402.382335 192.199084 
L 402.090757 190.217595 
L 401.829297 188.236105 
L 401.598891 186.254616 
L 401.400908 184.273127 
L 401.237104 182.291638 
L 401.109504 180.310149 
L 401.020243 178.32866 
L 400.971368 176.347171 
L 400.964632 174.365682 
L 401.001302 172.384192 
L 401.081997 170.402703 
L 401.206569 168.421214 
L 401.374049 166.439725 
L 401.582635 164.458236 
L 401.829744 162.476747 
L 402.112087 160.495258 
L 402.425773 158.513769 
L 402.766416 156.53228 
L 403.129224 154.55079 
L 403.509074 152.569301 
L 403.900567 150.587812 
L 404.298063 148.606323 
L 404.695711 146.624834 
L 405.087496 144.643345 
L 405.467318 142.661856 
L 405.829109 140.680367 
L 406.167014 138.698878 
L 406.475626 136.717388 
L 406.750259 134.735899 
L 406.987265 132.75441 
L 407.18433 130.772921 
L 407.340756 128.791432 
L 407.457661 126.809943 
L 407.538094 124.828454 
L 407.587019 122.846965 
L 407.611176 120.865475 
L 407.618804 118.883986 
L 407.619249 116.902497 
L 407.622473 114.921008 
L 407.638513 112.939519 
L 407.676913 110.95803 
L 407.746183 108.976541 
L 407.853326 106.995052 
L 408.003457 105.013563 
L 408.199546 103.032073 
L 408.442304 101.050584 
L 408.730208 99.069095 
L 409.05965 97.087606 
L 409.425221 95.106117 
L 409.820063 93.124628 
L 410.236299 91.143139 
L 410.665483 89.16165 
L 411.099049 87.18016 
L 411.528727 85.198671 
L 411.946904 83.217182 
L 412.346919 81.235693 
L 412.723262 79.254204 
L 413.0717 77.272715 
L 413.389312 75.291226 
L 413.674452 73.309737 
L 413.926647 71.328248 
L 414.146453 69.346758 
L 414.335274 67.365269 
L 414.495168 65.38378 
L 414.628658 63.402291 
L 414.738542 61.420802 
L 414.827732 59.439313 
L 415.422268 59.439313 
L 415.422268 59.439313 
L 415.511458 61.420802 
L 415.621342 63.402291 
L 415.754832 65.38378 
L 415.914726 67.365269 
L 416.103547 69.346758 
L 416.323353 71.328248 
L 416.575548 73.309737 
L 416.860688 75.291226 
L 417.1783 77.272715 
L 417.526738 79.254204 
L 417.903081 81.235693 
L 418.303096 83.217182 
L 418.721273 85.198671 
L 419.150951 87.18016 
L 419.584517 89.16165 
L 420.013701 91.143139 
L 420.429937 93.124628 
L 420.824779 95.106117 
L 421.19035 97.087606 
L 421.519792 99.069095 
L 421.807696 101.050584 
L 422.050454 103.032073 
L 422.246543 105.013563 
L 422.396674 106.995052 
L 422.503817 108.976541 
L 422.573087 110.95803 
L 422.611487 112.939519 
L 422.627527 114.921008 
L 422.630751 116.902497 
L 422.631196 118.883986 
L 422.638824 120.865475 
L 422.662981 122.846965 
L 422.711906 124.828454 
L 422.792339 126.809943 
L 422.909244 128.791432 
L 423.06567 130.772921 
L 423.262735 132.75441 
L 423.499741 134.735899 
L 423.774374 136.717388 
L 424.082986 138.698878 
L 424.420891 140.680367 
L 424.782682 142.661856 
L 425.162504 144.643345 
L 425.554289 146.624834 
L 425.951937 148.606323 
L 426.349433 150.587812 
L 426.740926 152.569301 
L 427.120776 154.55079 
L 427.483584 156.53228 
L 427.824227 158.513769 
L 428.137913 160.495258 
L 428.420256 162.476747 
L 428.667365 164.458236 
L 428.875951 166.439725 
L 429.043431 168.421214 
L 429.168003 170.402703 
L 429.248698 172.384192 
L 429.285368 174.365682 
L 429.278632 176.347171 
L 429.229757 178.32866 
L 429.140496 180.310149 
L 429.012896 182.291638 
L 428.849092 184.273127 
L 428.651109 186.254616 
L 428.420703 188.236105 
L 428.159243 190.217595 
L 427.867665 192.199084 
L 427.546483 194.180573 
L 427.195873 196.162062 
L 426.815819 198.143551 
L 426.406291 200.12504 
L 425.967453 202.106529 
L 425.499879 204.088018 
L 425.004744 206.069507 
L 424.483979 208.050997 
L 423.940375 210.032486 
L 423.37762 212.013975 
L 422.80027 213.995464 
L 422.213643 215.976953 
L 421.623664 217.958442 
L 421.036648 219.939931 
L 420.459054 221.92142 
L 419.897225 223.902909 
L 419.35713 225.884399 
L 418.844127 227.865888 
L 418.362766 229.847377 
L 417.916643 231.828866 
L 417.508305 233.810355 
L 417.139228 235.791844 
L 416.809835 237.773333 
L 416.519581 239.754822 
L 416.267064 241.736312 
L 416.050182 243.717801 
L 415.866289 245.69929 
L 415.712368 247.680779 
L 415.585191 249.662268 
L 415.481464 251.643757 
L 415.397957 253.625246 
L 415.331597 255.606735 
L 415.331597 255.606735 
z
" clip-path="url(#p3dfc339bfe)" style="fill: none; stroke: #fa8072; stroke-opacity: 0.8; stroke-width: 2"/>
   </g>
   <g id="PolyCollection_7">
    <path d="M 480.613729 269.203445 
L 480.336271 269.203445 
L 480.29398 266.947275 
L 480.241927 264.691105 
L 480.178861 262.434935 
L 480.10366 260.178765 
L 480.015423 257.922594 
L 479.91357 255.666424 
L 479.79793 253.410254 
L 479.668828 251.154084 
L 479.527142 248.897914 
L 479.374324 246.641744 
L 479.212388 244.385574 
L 479.043837 242.129404 
L 478.871547 239.873234 
L 478.698594 237.617063 
L 478.528043 235.360893 
L 478.362704 233.104723 
L 478.204882 230.848553 
L 478.056132 228.592383 
L 477.917051 226.336213 
L 477.787123 224.080043 
L 477.664651 221.823873 
L 477.546767 219.567702 
L 477.429557 217.311532 
L 477.308264 215.055362 
L 477.177596 212.799192 
L 477.032089 210.543022 
L 476.86651 208.286852 
L 476.676274 206.030682 
L 476.457821 203.774512 
L 476.208949 201.518341 
L 475.929042 199.262171 
L 475.619207 197.006001 
L 475.282271 194.749831 
L 474.922671 192.493661 
L 474.546217 190.237491 
L 474.159769 187.981321 
L 473.770833 185.725151 
L 473.387114 183.46898 
L 473.016064 181.21281 
L 472.66444 178.95664 
L 472.33792 176.70047 
L 472.040785 174.4443 
L 471.775703 172.18813 
L 471.543611 169.93196 
L 471.343717 167.67579 
L 471.173606 165.41962 
L 471.029454 163.163449 
L 470.90633 160.907279 
L 470.798555 158.651109 
L 470.700105 156.394939 
L 470.605025 154.138769 
L 470.507806 151.882599 
L 470.403724 149.626429 
L 470.289089 147.370259 
L 470.161405 145.114088 
L 470.019424 142.857918 
L 469.863105 140.601748 
L 469.693484 138.345578 
L 469.512487 136.089408 
L 469.322717 133.833238 
L 469.127244 131.577068 
L 468.929431 129.320898 
L 468.732823 127.064727 
L 468.541109 124.808557 
L 468.358163 122.552387 
L 468.188137 120.296217 
L 468.035594 118.040047 
L 467.905633 115.783877 
L 467.803977 113.527707 
L 467.736974 111.271537 
L 467.711494 109.015367 
L 467.734704 106.759196 
L 467.813718 104.503026 
L 467.955155 102.246856 
L 468.164625 99.990686 
L 468.446213 97.734516 
L 468.801994 95.478346 
L 469.231659 93.222176 
L 469.73227 90.966006 
L 470.2982 88.709835 
L 470.921268 86.453665 
L 471.591048 84.197495 
L 472.295349 81.941325 
L 473.020819 79.685155 
L 473.753606 77.428985 
L 474.480052 75.172815 
L 475.187332 72.916645 
L 475.864016 70.660474 
L 476.500502 68.404304 
L 477.089303 66.148134 
L 477.625183 63.891964 
L 478.105146 61.635794 
L 478.528292 59.379624 
L 478.895578 57.123454 
L 479.209501 54.867284 
L 479.473748 52.611113 
L 479.692837 50.354943 
L 479.871772 48.098773 
L 480.015743 45.842603 
L 480.934257 45.842603 
L 480.934257 45.842603 
L 481.078228 48.098773 
L 481.257163 50.354943 
L 481.476252 52.611113 
L 481.740499 54.867284 
L 482.054422 57.123454 
L 482.421708 59.379624 
L 482.844854 61.635794 
L 483.324817 63.891964 
L 483.860697 66.148134 
L 484.449498 68.404304 
L 485.085984 70.660474 
L 485.762668 72.916645 
L 486.469948 75.172815 
L 487.196394 77.428985 
L 487.929181 79.685155 
L 488.654651 81.941325 
L 489.358952 84.197495 
L 490.028732 86.453665 
L 490.6518 88.709835 
L 491.21773 90.966006 
L 491.718341 93.222176 
L 492.148006 95.478346 
L 492.503787 97.734516 
L 492.785375 99.990686 
L 492.994845 102.246856 
L 493.136282 104.503026 
L 493.215296 106.759196 
L 493.238506 109.015367 
L 493.213026 111.271537 
L 493.146023 113.527707 
L 493.044367 115.783877 
L 492.914406 118.040047 
L 492.761863 120.296217 
L 492.591837 122.552387 
L 492.408891 124.808557 
L 492.217177 127.064727 
L 492.020569 129.320898 
L 491.822756 131.577068 
L 491.627283 133.833238 
L 491.437513 136.089408 
L 491.256516 138.345578 
L 491.086895 140.601748 
L 490.930576 142.857918 
L 490.788595 145.114088 
L 490.660911 147.370259 
L 490.546276 149.626429 
L 490.442194 151.882599 
L 490.344975 154.138769 
L 490.249895 156.394939 
L 490.151445 158.651109 
L 490.04367 160.907279 
L 489.920546 163.163449 
L 489.776394 165.41962 
L 489.606283 167.67579 
L 489.406389 169.93196 
L 489.174297 172.18813 
L 488.909215 174.4443 
L 488.61208 176.70047 
L 488.28556 178.95664 
L 487.933936 181.21281 
L 487.562886 183.46898 
L 487.179167 185.725151 
L 486.790231 187.981321 
L 486.403783 190.237491 
L 486.027329 192.493661 
L 485.667729 194.749831 
L 485.330793 197.006001 
L 485.020958 199.262171 
L 484.741051 201.518341 
L 484.492179 203.774512 
L 484.273726 206.030682 
L 484.08349 208.286852 
L 483.917911 210.543022 
L 483.772404 212.799192 
L 483.641736 215.055362 
L 483.520443 217.311532 
L 483.403233 219.567702 
L 483.285349 221.823873 
L 483.162877 224.080043 
L 483.032949 226.336213 
L 482.893868 228.592383 
L 482.745118 230.848553 
L 482.587296 233.104723 
L 482.421957 235.360893 
L 482.251406 237.617063 
L 482.078453 239.873234 
L 481.906163 242.129404 
L 481.737612 244.385574 
L 481.575676 246.641744 
L 481.422858 248.897914 
L 481.281172 251.154084 
L 481.15207 253.410254 
L 481.03643 255.666424 
L 480.934577 257.922594 
L 480.84634 260.178765 
L 480.771139 262.434935 
L 480.708073 264.691105 
L 480.65602 266.947275 
L 480.613729 269.203445 
L 480.613729 269.203445 
z
" clip-path="url(#p3dfc339bfe)" style="fill: none; stroke: #fa8072; stroke-opacity: 0.8; stroke-width: 2"/>
   </g>
   <g id="PolyCollection_8">
    <path d="M 545.970846 255.588968 
L 545.679154 255.588968 
L 545.633187 253.507252 
L 545.576082 251.425536 
L 545.506213 249.343821 
L 545.422011 247.262105 
L 545.322053 245.180389 
L 545.205153 243.098673 
L 545.070446 241.016957 
L 544.917475 238.935241 
L 544.746247 236.853525 
L 544.557271 234.771809 
L 544.351557 232.690093 
L 544.130592 230.608378 
L 543.896266 228.526662 
L 543.650782 226.444946 
L 543.396534 224.36323 
L 543.13598 222.281514 
L 542.871508 220.199798 
L 542.605326 218.118082 
L 542.339366 216.036366 
L 542.075224 213.954651 
L 541.814133 211.872935 
L 541.556975 209.791219 
L 541.304316 207.709503 
L 541.056466 205.627787 
L 540.813546 203.546071 
L 540.57556 201.464355 
L 540.342451 199.382639 
L 540.114142 197.300924 
L 539.890551 195.219208 
L 539.671582 193.137492 
L 539.457089 191.055776 
L 539.246812 188.97406 
L 539.040296 186.892344 
L 538.8368 184.810628 
L 538.635199 182.728912 
L 538.43389 180.647197 
L 538.230732 178.565481 
L 538.023014 176.483765 
L 537.807487 174.402049 
L 537.580463 172.320333 
L 537.338001 170.238617 
L 537.076177 168.156901 
L 536.791432 166.075185 
L 536.480978 163.993469 
L 536.143224 161.911754 
L 535.778183 159.830038 
L 535.387803 157.748322 
L 534.976171 155.666606 
L 534.549557 153.58489 
L 534.116249 151.503174 
L 533.686192 149.421458 
L 533.270433 147.339742 
L 532.880419 145.258027 
L 532.527207 143.176311 
L 532.220657 141.094595 
L 531.968705 139.012879 
L 531.776771 136.931163 
L 531.647385 134.849447 
L 531.580069 132.767731 
L 531.571491 130.686015 
L 531.615878 128.6043 
L 531.705658 126.522584 
L 531.832266 124.440868 
L 531.987027 122.359152 
L 532.162039 120.277436 
L 532.350965 118.19572 
L 532.549651 116.114004 
L 532.756503 114.032288 
L 532.972598 111.950572 
L 533.201503 109.868857 
L 533.448834 107.787141 
L 533.72158 105.705425 
L 534.027293 103.623709 
L 534.373196 101.541993 
L 534.765319 99.460277 
L 535.207748 97.378561 
L 535.702051 95.296845 
L 536.246946 93.21513 
L 536.838223 91.133414 
L 537.46893 89.051698 
L 538.129783 86.969982 
L 538.809761 84.888266 
L 539.496811 82.80655 
L 540.178596 80.724834 
L 540.843225 78.643118 
L 541.479887 76.561403 
L 542.079362 74.479687 
L 542.634372 72.397971 
L 543.139764 70.316255 
L 543.592534 68.234539 
L 543.991706 66.152823 
L 544.33811 64.071107 
L 544.634072 61.989391 
L 544.883077 59.907675 
L 545.089411 57.82596 
L 545.25783 55.744244 
L 545.393262 53.662528 
L 545.500565 51.580812 
L 545.58434 49.499096 
L 546.06566 49.499096 
L 546.06566 49.499096 
L 546.149435 51.580812 
L 546.256738 53.662528 
L 546.39217 55.744244 
L 546.560589 57.82596 
L 546.766923 59.907675 
L 547.015928 61.989391 
L 547.31189 64.071107 
L 547.658294 66.152823 
L 548.057466 68.234539 
L 548.510236 70.316255 
L 549.015628 72.397971 
L 549.570638 74.479687 
L 550.170113 76.561403 
L 550.806775 78.643118 
L 551.471404 80.724834 
L 552.153189 82.80655 
L 552.840239 84.888266 
L 553.520217 86.969982 
L 554.18107 89.051698 
L 554.811777 91.133414 
L 555.403054 93.21513 
L 555.947949 95.296845 
L 556.442252 97.378561 
L 556.884681 99.460277 
L 557.276804 101.541993 
L 557.622707 103.623709 
L 557.92842 105.705425 
L 558.201166 107.787141 
L 558.448497 109.868857 
L 558.677402 111.950572 
L 558.893497 114.032288 
L 559.100349 116.114004 
L 559.299035 118.19572 
L 559.487961 120.277436 
L 559.662973 122.359152 
L 559.817734 124.440868 
L 559.944342 126.522584 
L 560.034122 128.6043 
L 560.078509 130.686015 
L 560.069931 132.767731 
L 560.002615 134.849447 
L 559.873229 136.931163 
L 559.681295 139.012879 
L 559.429343 141.094595 
L 559.122793 143.176311 
L 558.769581 145.258027 
L 558.379567 147.339742 
L 557.963808 149.421458 
L 557.533751 151.503174 
L 557.100443 153.58489 
L 556.673829 155.666606 
L 556.262197 157.748322 
L 555.871817 159.830038 
L 555.506776 161.911754 
L 555.169022 163.993469 
L 554.858568 166.075185 
L 554.573823 168.156901 
L 554.311999 170.238617 
L 554.069537 172.320333 
L 553.842513 174.402049 
L 553.626986 176.483765 
L 553.419268 178.565481 
L 553.21611 180.647197 
L 553.014801 182.728912 
L 552.8132 184.810628 
L 552.609704 186.892344 
L 552.403188 188.97406 
L 552.192911 191.055776 
L 551.978418 193.137492 
L 551.759449 195.219208 
L 551.535858 197.300924 
L 551.307549 199.382639 
L 551.07444 201.464355 
L 550.836454 203.546071 
L 550.593534 205.627787 
L 550.345684 207.709503 
L 550.093025 209.791219 
L 549.835867 211.872935 
L 549.574776 213.954651 
L 549.310634 216.036366 
L 549.044674 218.118082 
L 548.778492 220.199798 
L 548.51402 222.281514 
L 548.253466 224.36323 
L 547.999218 226.444946 
L 547.753734 228.526662 
L 547.519408 230.608378 
L 547.298443 232.690093 
L 547.092729 234.771809 
L 546.903753 236.853525 
L 546.732525 238.935241 
L 546.579554 241.016957 
L 546.444847 243.098673 
L 546.327947 245.180389 
L 546.227989 247.262105 
L 546.143787 249.343821 
L 546.073918 251.425536 
L 546.016813 253.507252 
L 545.970846 255.588968 
L 545.970846 255.588968 
z
" clip-path="url(#p3dfc339bfe)" style="fill: none; stroke: #fa8072; stroke-opacity: 0.8; stroke-width: 2"/>
   </g>
   <g id="PolyCollection_9">
    <path d="M 611.380713 254.066974 
L 610.969287 254.066974 
L 610.908513 252.016005 
L 610.834952 249.965037 
L 610.747482 247.914068 
L 610.645295 245.8631 
L 610.527991 243.812131 
L 610.395662 241.761163 
L 610.248935 239.710194 
L 610.088998 237.659226 
L 609.917572 235.608257 
L 609.736853 233.557289 
L 609.549425 231.50632 
L 609.358134 229.455352 
L 609.165961 227.404383 
L 608.975872 225.353415 
L 608.790686 223.302446 
L 608.612933 221.251478 
L 608.44473 219.200509 
L 608.287652 217.149541 
L 608.14261 215.098572 
L 608.009722 213.047603 
L 607.888193 210.996635 
L 607.776192 208.945666 
L 607.670759 206.894698 
L 607.567752 204.843729 
L 607.461858 202.792761 
L 607.346688 200.741792 
L 607.21498 198.690824 
L 607.058909 196.639855 
L 606.870496 194.588887 
L 606.642108 192.537918 
L 606.367002 190.48695 
L 606.039871 188.435981 
L 605.657357 186.385013 
L 605.218454 184.334044 
L 604.724786 182.283076 
L 604.180709 180.232107 
L 603.593219 178.181139 
L 602.971675 176.13017 
L 602.327345 174.079202 
L 601.672808 172.028233 
L 601.021262 169.977265 
L 600.385786 167.926296 
L 599.778614 165.875328 
L 599.210495 163.824359 
L 598.690163 161.77339 
L 598.223984 159.722422 
L 597.815786 157.671453 
L 597.46689 155.620485 
L 597.176331 153.569516 
L 596.941233 151.518548 
L 596.757303 149.467579 
L 596.619387 147.416611 
L 596.522039 145.365642 
L 596.460033 143.314674 
L 596.428789 141.263705 
L 596.424672 139.212737 
L 596.445149 137.161768 
L 596.488801 135.1108 
L 596.555214 133.059831 
L 596.644766 131.008863 
L 596.758362 128.957894 
L 596.897142 126.906926 
L 597.062212 124.855957 
L 597.25442 122.804989 
L 597.474207 120.75402 
L 597.721542 118.703052 
L 597.995932 116.652083 
L 598.296511 114.601115 
L 598.622168 112.550146 
L 598.971708 110.499177 
L 599.343998 108.448209 
L 599.738088 106.39724 
L 600.153273 104.346272 
L 600.589086 102.295303 
L 601.045217 100.244335 
L 601.521367 98.193366 
L 602.017052 96.142398 
L 602.531378 94.091429 
L 603.062827 92.040461 
L 603.609079 89.989492 
L 604.166894 87.938524 
L 604.732088 85.887555 
L 605.299599 83.836587 
L 605.863652 81.785618 
L 606.418008 79.73465 
L 606.956265 77.683681 
L 607.472199 75.632713 
L 607.96009 73.581744 
L 608.415027 71.530776 
L 608.833137 69.479807 
L 609.211748 67.428839 
L 609.549449 65.37787 
L 609.84608 63.326901 
L 610.102623 61.275933 
L 610.32105 59.224964 
L 610.504111 57.173996 
L 610.655116 55.123027 
L 610.777705 53.072059 
L 610.875643 51.02109 
L 611.474357 51.02109 
L 611.474357 51.02109 
L 611.572295 53.072059 
L 611.694884 55.123027 
L 611.845889 57.173996 
L 612.02895 59.224964 
L 612.247377 61.275933 
L 612.50392 63.326901 
L 612.800551 65.37787 
L 613.138252 67.428839 
L 613.516863 69.479807 
L 613.934973 71.530776 
L 614.38991 73.581744 
L 614.877801 75.632713 
L 615.393735 77.683681 
L 615.931992 79.73465 
L 616.486348 81.785618 
L 617.050401 83.836587 
L 617.617912 85.887555 
L 618.183106 87.938524 
L 618.740921 89.989492 
L 619.287173 92.040461 
L 619.818622 94.091429 
L 620.332948 96.142398 
L 620.828633 98.193366 
L 621.304783 100.244335 
L 621.760914 102.295303 
L 622.196727 104.346272 
L 622.611912 106.39724 
L 623.006002 108.448209 
L 623.378292 110.499177 
L 623.727832 112.550146 
L 624.053489 114.601115 
L 624.354068 116.652083 
L 624.628458 118.703052 
L 624.875793 120.75402 
L 625.09558 122.804989 
L 625.287788 124.855957 
L 625.452858 126.906926 
L 625.591638 128.957894 
L 625.705234 131.008863 
L 625.794786 133.059831 
L 625.861199 135.1108 
L 625.904851 137.161768 
L 625.925328 139.212737 
L 625.921211 141.263705 
L 625.889967 143.314674 
L 625.827961 145.365642 
L 625.730613 147.416611 
L 625.592697 149.467579 
L 625.408767 151.518548 
L 625.173669 153.569516 
L 624.88311 155.620485 
L 624.534214 157.671453 
L 624.126016 159.722422 
L 623.659837 161.77339 
L 623.139505 163.824359 
L 622.571386 165.875328 
L 621.964214 167.926296 
L 621.328738 169.977265 
L 620.677192 172.028233 
L 620.022655 174.079202 
L 619.378325 176.13017 
L 618.756781 178.181139 
L 618.169291 180.232107 
L 617.625214 182.283076 
L 617.131546 184.334044 
L 616.692643 186.385013 
L 616.310129 188.435981 
L 615.982998 190.48695 
L 615.707892 192.537918 
L 615.479504 194.588887 
L 615.291091 196.639855 
L 615.13502 198.690824 
L 615.003312 200.741792 
L 614.888142 202.792761 
L 614.782248 204.843729 
L 614.679241 206.894698 
L 614.573808 208.945666 
L 614.461807 210.996635 
L 614.340278 213.047603 
L 614.20739 215.098572 
L 614.062348 217.149541 
L 613.90527 219.200509 
L 613.737067 221.251478 
L 613.559314 223.302446 
L 613.374128 225.353415 
L 613.184039 227.404383 
L 612.991866 229.455352 
L 612.800575 231.50632 
L 612.613147 233.557289 
L 612.432428 235.608257 
L 612.261002 237.659226 
L 612.101065 239.710194 
L 611.954338 241.761163 
L 611.822009 243.812131 
L 611.704705 245.8631 
L 611.602518 247.914068 
L 611.515048 249.965037 
L 611.441487 252.016005 
L 611.380713 254.066974 
L 611.380713 254.066974 
z
" clip-path="url(#p3dfc339bfe)" style="fill: none; stroke: #fa8072; stroke-opacity: 0.8; stroke-width: 2"/>
   </g>
   <g id="PolyCollection_10">
    <path d="M 676.685152 222.711882 
L 676.364848 222.711882 
L 676.315178 220.892007 
L 676.253214 219.072132 
L 676.176856 217.252257 
L 676.083895 215.432382 
L 675.972059 213.612507 
L 675.83908 211.792632 
L 675.682765 209.972756 
L 675.501075 208.152881 
L 675.292213 206.333006 
L 675.054708 204.513131 
L 674.787496 202.693256 
L 674.490002 200.873381 
L 674.162204 199.053506 
L 673.804697 197.233631 
L 673.418728 195.413756 
L 673.006228 193.59388 
L 672.569818 191.774005 
L 672.112797 189.95413 
L 671.639111 188.134255 
L 671.153296 186.31438 
L 670.660409 184.494505 
L 670.165934 182.67463 
L 669.675668 180.854755 
L 669.19559 179.03488 
L 668.731726 177.215004 
L 668.289986 175.395129 
L 667.876 173.575254 
L 667.49495 171.755379 
L 667.151392 169.935504 
L 666.849081 168.115629 
L 666.590804 166.295754 
L 666.378223 164.475879 
L 666.211737 162.656004 
L 666.090377 160.836128 
L 666.011737 159.016253 
L 665.971959 157.196378 
L 665.965772 155.376503 
L 665.986604 153.556628 
L 666.02676 151.736753 
L 666.077674 149.916878 
L 666.130216 148.097003 
L 666.175056 146.277128 
L 666.203057 144.457252 
L 666.205681 142.637377 
L 666.17538 140.817502 
L 666.105953 138.997627 
L 665.992842 137.177752 
L 665.83335 135.357877 
L 665.626777 133.538002 
L 665.374448 131.718127 
L 665.079658 129.898252 
L 664.747521 128.078376 
L 664.384747 126.258501 
L 663.999364 124.438626 
L 663.600401 122.618751 
L 663.197557 120.798876 
L 662.800874 118.979001 
L 662.420431 117.159126 
L 662.066071 115.339251 
L 661.747165 113.519376 
L 661.472424 111.699501 
L 661.249738 109.879625 
L 661.086052 108.05975 
L 660.987261 106.239875 
L 660.958116 104.42 
L 661.002138 102.600125 
L 661.121543 100.78025 
L 661.317168 98.960375 
L 661.588423 97.1405 
L 661.933266 95.320625 
L 662.34822 93.500749 
L 662.828441 91.680874 
L 663.367835 89.860999 
L 663.959233 88.041124 
L 664.594616 86.221249 
L 665.265369 84.401374 
L 665.96255 82.581499 
L 666.677169 80.761624 
L 667.400431 78.941749 
L 668.123953 77.121873 
L 668.839938 75.301998 
L 669.54129 73.482123 
L 670.221698 71.662248 
L 670.875671 69.842373 
L 671.498546 68.022498 
L 672.086482 66.202623 
L 672.636445 64.382748 
L 673.14618 62.562873 
L 673.614198 60.742997 
L 674.039748 58.923122 
L 674.422797 57.103247 
L 674.763986 55.283372 
L 675.064593 53.463497 
L 675.32646 51.643622 
L 675.551918 49.823747 
L 675.743692 48.003872 
L 675.90479 46.183997 
L 676.038398 44.364121 
L 676.147763 42.544246 
L 676.902237 42.544246 
L 676.902237 42.544246 
L 677.011602 44.364121 
L 677.14521 46.183997 
L 677.306308 48.003872 
L 677.498082 49.823747 
L 677.72354 51.643622 
L 677.985407 53.463497 
L 678.286014 55.283372 
L 678.627203 57.103247 
L 679.010252 58.923122 
L 679.435802 60.742997 
L 679.90382 62.562873 
L 680.413555 64.382748 
L 680.963518 66.202623 
L 681.551454 68.022498 
L 682.174329 69.842373 
L 682.828302 71.662248 
L 683.50871 73.482123 
L 684.210062 75.301998 
L 684.926047 77.121873 
L 685.649569 78.941749 
L 686.372831 80.761624 
L 687.08745 82.581499 
L 687.784631 84.401374 
L 688.455384 86.221249 
L 689.090767 88.041124 
L 689.682165 89.860999 
L 690.221559 91.680874 
L 690.70178 93.500749 
L 691.116734 95.320625 
L 691.461577 97.1405 
L 691.732832 98.960375 
L 691.928457 100.78025 
L 692.047862 102.600125 
L 692.091884 104.42 
L 692.062739 106.239875 
L 691.963948 108.05975 
L 691.800262 109.879625 
L 691.577576 111.699501 
L 691.302835 113.519376 
L 690.983929 115.339251 
L 690.629569 117.159126 
L 690.249126 118.979001 
L 689.852443 120.798876 
L 689.449599 122.618751 
L 689.050636 124.438626 
L 688.665253 126.258501 
L 688.302479 128.078376 
L 687.970342 129.898252 
L 687.675552 131.718127 
L 687.423223 133.538002 
L 687.21665 135.357877 
L 687.057158 137.177752 
L 686.944047 138.997627 
L 686.87462 140.817502 
L 686.844319 142.637377 
L 686.846943 144.457252 
L 686.874944 146.277128 
L 686.919784 148.097003 
L 686.972326 149.916878 
L 687.02324 151.736753 
L 687.063396 153.556628 
L 687.084228 155.376503 
L 687.078041 157.196378 
L 687.038263 159.016253 
L 686.959623 160.836128 
L 686.838263 162.656004 
L 686.671777 164.475879 
L 686.459196 166.295754 
L 686.200919 168.115629 
L 685.898608 169.935504 
L 685.55505 171.755379 
L 685.174 173.575254 
L 684.760014 175.395129 
L 684.318274 177.215004 
L 683.85441 179.03488 
L 683.374332 180.854755 
L 682.884066 182.67463 
L 682.389591 184.494505 
L 681.896704 186.31438 
L 681.410889 188.134255 
L 680.937203 189.95413 
L 680.480182 191.774005 
L 680.043772 193.59388 
L 679.631272 195.413756 
L 679.245303 197.233631 
L 678.887796 199.053506 
L 678.559998 200.873381 
L 678.262504 202.693256 
L 677.995292 204.513131 
L 677.757787 206.333006 
L 677.548925 208.152881 
L 677.367235 209.972756 
L 677.21092 211.792632 
L 677.077941 213.612507 
L 676.966105 215.432382 
L 676.873144 217.252257 
L 676.796786 219.072132 
L 676.734822 220.892007 
L 676.685152 222.711882 
L 676.685152 222.711882 
z
" clip-path="url(#p3dfc339bfe)" style="fill: none; stroke: #fa8072; stroke-opacity: 0.8; stroke-width: 2"/>
   </g>
   <g id="matplotlib.axis_1">
    <g id="xtick_1">
     <g id="line2d_1">
      <defs>
       <path id="m30ff0775b2" d="M 0 0 
L 0 3.5 
" style="stroke: #000000; stroke-width: 0.8"/>
      </defs>
      <g>
       <use xlink:href="#m30ff0775b2" x="88.375" y="319" style="stroke: #000000; stroke-width: 0.8"/>
      </g>
     </g>
     <g id="text_1">
      <!-- 1 -->
      <g transform="translate(85.19375 333.598437) scale(0.1 -0.1)">
       <defs>
        <path id="DejaVuSans-31" d="M 794 531 
L 1825 531 
L 1825 4091 
L 703 3866 
L 703 4441 
L 1819 4666 
L 2450 4666 
L 2450 531 
L 3481 531 
L 3481 0 
L 794 0 
L 794 531 
z
" transform="scale(0.015625)"/>
       </defs>
       <use xlink:href="#DejaVuSans-31"/>
      </g>
     </g>
    </g>
    <g id="xtick_2">
     <g id="line2d_2">
      <g>
       <use xlink:href="#m30ff0775b2" x="153.725" y="319" style="stroke: #000000; stroke-width: 0.8"/>
      </g>
     </g>
     <g id="text_2">
      <!-- 2 -->
      <g transform="translate(150.54375 333.598437) scale(0.1 -0.1)">
       <defs>
        <path id="DejaVuSans-32" d="M 1228 531 
L 3431 531 
L 3431 0 
L 469 0 
L 469 531 
Q 828 903 1448 1529 
Q 2069 2156 2228 2338 
Q 2531 2678 2651 2914 
Q 2772 3150 2772 3378 
Q 2772 3750 2511 3984 
Q 2250 4219 1831 4219 
Q 1534 4219 1204 4116 
Q 875 4013 500 3803 
L 500 4441 
Q 881 4594 1212 4672 
Q 1544 4750 1819 4750 
Q 2544 4750 2975 4387 
Q 3406 4025 3406 3419 
Q 3406 3131 3298 2873 
Q 3191 2616 2906 2266 
Q 2828 2175 2409 1742 
Q 1991 1309 1228 531 
z
" transform="scale(0.015625)"/>
       </defs>
       <use xlink:href="#DejaVuSans-32"/>
      </g>
     </g>
    </g>
    <g id="xtick_3">
     <g id="line2d_3">
      <g>
       <use xlink:href="#m30ff0775b2" x="219.075" y="319" style="stroke: #000000; stroke-width: 0.8"/>
      </g>
     </g>
     <g id="text_3">
      <!-- 3 -->
      <g transform="translate(215.89375 333.598437) scale(0.1 -0.1)">
       <defs>
        <path id="DejaVuSans-33" d="M 2597 2516 
Q 3050 2419 3304 2112 
Q 3559 1806 3559 1356 
Q 3559 666 3084 287 
Q 2609 -91 1734 -91 
Q 1441 -91 1130 -33 
Q 819 25 488 141 
L 488 750 
Q 750 597 1062 519 
Q 1375 441 1716 441 
Q 2309 441 2620 675 
Q 2931 909 2931 1356 
Q 2931 1769 2642 2001 
Q 2353 2234 1838 2234 
L 1294 2234 
L 1294 2753 
L 1863 2753 
Q 2328 2753 2575 2939 
Q 2822 3125 2822 3475 
Q 2822 3834 2567 4026 
Q 2313 4219 1838 4219 
Q 1578 4219 1281 4162 
Q 984 4106 628 3988 
L 628 4550 
Q 988 4650 1302 4700 
Q 1616 4750 1894 4750 
Q 2613 4750 3031 4423 
Q 3450 4097 3450 3541 
Q 3450 3153 3228 2886 
Q 3006 2619 2597 2516 
z
" transform="scale(0.015625)"/>
       </defs>
       <use xlink:href="#DejaVuSans-33"/>
      </g>
     </g>
    </g>
    <g id="xtick_4">
     <g id="line2d_4">
      <g>
       <use xlink:href="#m30ff0775b2" x="284.425" y="319" style="stroke: #000000; stroke-width: 0.8"/>
      </g>
     </g>
     <g id="text_4">
      <!-- 4 -->
      <g transform="translate(281.24375 333.598437) scale(0.1 -0.1)">
       <defs>
        <path id="DejaVuSans-34" d="M 2419 4116 
L 825 1625 
L 2419 1625 
L 2419 4116 
z
M 2253 4666 
L 3047 4666 
L 3047 1625 
L 3713 1625 
L 3713 1100 
L 3047 1100 
L 3047 0 
L 2419 0 
L 2419 1100 
L 313 1100 
L 313 1709 
L 2253 4666 
z
" transform="scale(0.015625)"/>
       </defs>
       <use xlink:href="#DejaVuSans-34"/>
      </g>
     </g>
    </g>
    <g id="xtick_5">
     <g id="line2d_5">
      <g>
       <use xlink:href="#m30ff0775b2" x="349.775" y="319" style="stroke: #000000; stroke-width: 0.8"/>
      </g>
     </g>
     <g id="text_5">
      <!-- 5 -->
      <g transform="translate(346.59375 333.598437) scale(0.1 -0.1)">
       <defs>
        <path id="DejaVuSans-35" d="M 691 4666 
L 3169 4666 
L 3169 4134 
L 1269 4134 
L 1269 2991 
Q 1406 3038 1543 3061 
Q 1681 3084 1819 3084 
Q 2600 3084 3056 2656 
Q 3513 2228 3513 1497 
Q 3513 744 3044 326 
Q 2575 -91 1722 -91 
Q 1428 -91 1123 -41 
Q 819 9 494 109 
L 494 744 
Q 775 591 1075 516 
Q 1375 441 1709 441 
Q 2250 441 2565 725 
Q 2881 1009 2881 1497 
Q 2881 1984 2565 2268 
Q 2250 2553 1709 2553 
Q 1456 2553 1204 2497 
Q 953 2441 691 2322 
L 691 4666 
z
" transform="scale(0.015625)"/>
       </defs>
       <use xlink:href="#DejaVuSans-35"/>
      </g>
     </g>
    </g>
    <g id="xtick_6">
     <g id="line2d_6">
      <g>
       <use xlink:href="#m30ff0775b2" x="415.125" y="319" style="stroke: #000000; stroke-width: 0.8"/>
      </g>
     </g>
     <g id="text_6">
      <!-- 6 -->
      <g transform="translate(411.94375 333.598437) scale(0.1 -0.1)">
       <defs>
        <path id="DejaVuSans-36" d="M 2113 2584 
Q 1688 2584 1439 2293 
Q 1191 2003 1191 1497 
Q 1191 994 1439 701 
Q 1688 409 2113 409 
Q 2538 409 2786 701 
Q 3034 994 3034 1497 
Q 3034 2003 2786 2293 
Q 2538 2584 2113 2584 
z
M 3366 4563 
L 3366 3988 
Q 3128 4100 2886 4159 
Q 2644 4219 2406 4219 
Q 1781 4219 1451 3797 
Q 1122 3375 1075 2522 
Q 1259 2794 1537 2939 
Q 1816 3084 2150 3084 
Q 2853 3084 3261 2657 
Q 3669 2231 3669 1497 
Q 3669 778 3244 343 
Q 2819 -91 2113 -91 
Q 1303 -91 875 529 
Q 447 1150 447 2328 
Q 447 3434 972 4092 
Q 1497 4750 2381 4750 
Q 2619 4750 2861 4703 
Q 3103 4656 3366 4563 
z
" transform="scale(0.015625)"/>
       </defs>
       <use xlink:href="#DejaVuSans-36"/>
      </g>
     </g>
    </g>
    <g id="xtick_7">
     <g id="line2d_7">
      <g>
       <use xlink:href="#m30ff0775b2" x="480.475" y="319" style="stroke: #000000; stroke-width: 0.8"/>
      </g>
     </g>
     <g id="text_7">
      <!-- 7 -->
      <g transform="translate(477.29375 333.598437) scale(0.1 -0.1)">
       <defs>
        <path id="DejaVuSans-37" d="M 525 4666 
L 3525 4666 
L 3525 4397 
L 1831 0 
L 1172 0 
L 2766 4134 
L 525 4134 
L 525 4666 
z
" transform="scale(0.015625)"/>
       </defs>
       <use xlink:href="#DejaVuSans-37"/>
      </g>
     </g>
    </g>
    <g id="xtick_8">
     <g id="line2d_8">
      <g>
       <use xlink:href="#m30ff0775b2" x="545.825" y="319" style="stroke: #000000; stroke-width: 0.8"/>
      </g>
     </g>
     <g id="text_8">
      <!-- 8 -->
      <g transform="translate(542.64375 333.598437) scale(0.1 -0.1)">
       <defs>
        <path id="DejaVuSans-38" d="M 2034 2216 
Q 1584 2216 1326 1975 
Q 1069 1734 1069 1313 
Q 1069 891 1326 650 
Q 1584 409 2034 409 
Q 2484 409 2743 651 
Q 3003 894 3003 1313 
Q 3003 1734 2745 1975 
Q 2488 2216 2034 2216 
z
M 1403 2484 
Q 997 2584 770 2862 
Q 544 3141 544 3541 
Q 544 4100 942 4425 
Q 1341 4750 2034 4750 
Q 2731 4750 3128 4425 
Q 3525 4100 3525 3541 
Q 3525 3141 3298 2862 
Q 3072 2584 2669 2484 
Q 3125 2378 3379 2068 
Q 3634 1759 3634 1313 
Q 3634 634 3220 271 
Q 2806 -91 2034 -91 
Q 1263 -91 848 271 
Q 434 634 434 1313 
Q 434 1759 690 2068 
Q 947 2378 1403 2484 
z
M 1172 3481 
Q 1172 3119 1398 2916 
Q 1625 2713 2034 2713 
Q 2441 2713 2670 2916 
Q 2900 3119 2900 3481 
Q 2900 3844 2670 4047 
Q 2441 4250 2034 4250 
Q 1625 4250 1398 4047 
Q 1172 3844 1172 3481 
z
" transform="scale(0.015625)"/>
       </defs>
       <use xlink:href="#DejaVuSans-38"/>
      </g>
     </g>
    </g>
    <g id="xtick_9">
     <g id="line2d_9">
      <g>
       <use xlink:href="#m30ff0775b2" x="611.175" y="319" style="stroke: #000000; stroke-width: 0.8"/>
      </g>
     </g>
     <g id="text_9">
      <!-- 9 -->
      <g transform="translate(607.99375 333.598437) scale(0.1 -0.1)">
       <defs>
        <path id="DejaVuSans-39" d="M 703 97 
L 703 672 
Q 941 559 1184 500 
Q 1428 441 1663 441 
Q 2288 441 2617 861 
Q 2947 1281 2994 2138 
Q 2813 1869 2534 1725 
Q 2256 1581 1919 1581 
Q 1219 1581 811 2004 
Q 403 2428 403 3163 
Q 403 3881 828 4315 
Q 1253 4750 1959 4750 
Q 2769 4750 3195 4129 
Q 3622 3509 3622 2328 
Q 3622 1225 3098 567 
Q 2575 -91 1691 -91 
Q 1453 -91 1209 -44 
Q 966 3 703 97 
z
M 1959 2075 
Q 2384 2075 2632 2365 
Q 2881 2656 2881 3163 
Q 2881 3666 2632 3958 
Q 2384 4250 1959 4250 
Q 1534 4250 1286 3958 
Q 1038 3666 1038 3163 
Q 1038 2656 1286 2365 
Q 1534 2075 1959 2075 
z
" transform="scale(0.015625)"/>
       </defs>
       <use xlink:href="#DejaVuSans-39"/>
      </g>
     </g>
    </g>
    <g id="xtick_10">
     <g id="line2d_10">
      <g>
       <use xlink:href="#m30ff0775b2" x="676.525" y="319" style="stroke: #000000; stroke-width: 0.8"/>
      </g>
     </g>
     <g id="text_10">
      <!-- 10 -->
      <g transform="translate(670.1625 333.598437) scale(0.1 -0.1)">
       <defs>
        <path id="DejaVuSans-30" d="M 2034 4250 
Q 1547 4250 1301 3770 
Q 1056 3291 1056 2328 
Q 1056 1369 1301 889 
Q 1547 409 2034 409 
Q 2525 409 2770 889 
Q 3016 1369 3016 2328 
Q 3016 3291 2770 3770 
Q 2525 4250 2034 4250 
z
M 2034 4750 
Q 2819 4750 3233 4129 
Q 3647 3509 3647 2328 
Q 3647 1150 3233 529 
Q 2819 -91 2034 -91 
Q 1250 -91 836 529 
Q 422 1150 422 2328 
Q 422 3509 836 4129 
Q 1250 4750 2034 4750 
z
" transform="scale(0.015625)"/>
       </defs>
       <use xlink:href="#DejaVuSans-31"/>
       <use xlink:href="#DejaVuSans-30" x="63.623047"/>
      </g>
     </g>
    </g>
    <g id="text_11">
     <!-- Number of Mice in Treatment Group -->
     <g transform="translate(292.857031 347.276563) scale(0.1 -0.1)">
      <defs>
       <path id="DejaVuSans-4e" d="M 628 4666 
L 1478 4666 
L 3547 763 
L 3547 4666 
L 4159 4666 
L 4159 0 
L 3309 0 
L 1241 3903 
L 1241 0 
L 628 0 
L 628 4666 
z
" transform="scale(0.015625)"/>
       <path id="DejaVuSans-75" d="M 544 1381 
L 544 3500 
L 1119 3500 
L 1119 1403 
Q 1119 906 1312 657 
Q 1506 409 1894 409 
Q 2359 409 2629 706 
Q 2900 1003 2900 1516 
L 2900 3500 
L 3475 3500 
L 3475 0 
L 2900 0 
L 2900 538 
Q 2691 219 2414 64 
Q 2138 -91 1772 -91 
Q 1169 -91 856 284 
Q 544 659 544 1381 
z
M 1991 3584 
L 1991 3584 
z
" transform="scale(0.015625)"/>
       <path id="DejaVuSans-6d" d="M 3328 2828 
Q 3544 3216 3844 3400 
Q 4144 3584 4550 3584 
Q 5097 3584 5394 3201 
Q 5691 2819 5691 2113 
L 5691 0 
L 5113 0 
L 5113 2094 
Q 5113 2597 4934 2840 
Q 4756 3084 4391 3084 
Q 3944 3084 3684 2787 
Q 3425 2491 3425 1978 
L 3425 0 
L 2847 0 
L 2847 2094 
Q 2847 2600 2669 2842 
Q 2491 3084 2119 3084 
Q 1678 3084 1418 2786 
Q 1159 2488 1159 1978 
L 1159 0 
L 581 0 
L 581 3500 
L 1159 3500 
L 1159 2956 
Q 1356 3278 1631 3431 
Q 1906 3584 2284 3584 
Q 2666 3584 2933 3390 
Q 3200 3197 3328 2828 
z
" transform="scale(0.015625)"/>
       <path id="DejaVuSans-62" d="M 3116 1747 
Q 3116 2381 2855 2742 
Q 2594 3103 2138 3103 
Q 1681 3103 1420 2742 
Q 1159 2381 1159 1747 
Q 1159 1113 1420 752 
Q 1681 391 2138 391 
Q 2594 391 2855 752 
Q 3116 1113 3116 1747 
z
M 1159 2969 
Q 1341 3281 1617 3432 
Q 1894 3584 2278 3584 
Q 2916 3584 3314 3078 
Q 3713 2572 3713 1747 
Q 3713 922 3314 415 
Q 2916 -91 2278 -91 
Q 1894 -91 1617 61 
Q 1341 213 1159 525 
L 1159 0 
L 581 0 
L 581 4863 
L 1159 4863 
L 1159 2969 
z
" transform="scale(0.015625)"/>
       <path id="DejaVuSans-65" d="M 3597 1894 
L 3597 1613 
L 953 1613 
Q 991 1019 1311 708 
Q 1631 397 2203 397 
Q 2534 397 2845 478 
Q 3156 559 3463 722 
L 3463 178 
Q 3153 47 2828 -22 
Q 2503 -91 2169 -91 
Q 1331 -91 842 396 
Q 353 884 353 1716 
Q 353 2575 817 3079 
Q 1281 3584 2069 3584 
Q 2775 3584 3186 3129 
Q 3597 2675 3597 1894 
z
M 3022 2063 
Q 3016 2534 2758 2815 
Q 2500 3097 2075 3097 
Q 1594 3097 1305 2825 
Q 1016 2553 972 2059 
L 3022 2063 
z
" transform="scale(0.015625)"/>
       <path id="DejaVuSans-72" d="M 2631 2963 
Q 2534 3019 2420 3045 
Q 2306 3072 2169 3072 
Q 1681 3072 1420 2755 
Q 1159 2438 1159 1844 
L 1159 0 
L 581 0 
L 581 3500 
L 1159 3500 
L 1159 2956 
Q 1341 3275 1631 3429 
Q 1922 3584 2338 3584 
Q 2397 3584 2469 3576 
Q 2541 3569 2628 3553 
L 2631 2963 
z
" transform="scale(0.015625)"/>
       <path id="DejaVuSans-20" transform="scale(0.015625)"/>
       <path id="DejaVuSans-6f" d="M 1959 3097 
Q 1497 3097 1228 2736 
Q 959 2375 959 1747 
Q 959 1119 1226 758 
Q 1494 397 1959 397 
Q 2419 397 2687 759 
Q 2956 1122 2956 1747 
Q 2956 2369 2687 2733 
Q 2419 3097 1959 3097 
z
M 1959 3584 
Q 2709 3584 3137 3096 
Q 3566 2609 3566 1747 
Q 3566 888 3137 398 
Q 2709 -91 1959 -91 
Q 1206 -91 779 398 
Q 353 888 353 1747 
Q 353 2609 779 3096 
Q 1206 3584 1959 3584 
z
" transform="scale(0.015625)"/>
       <path id="DejaVuSans-66" d="M 2375 4863 
L 2375 4384 
L 1825 4384 
Q 1516 4384 1395 4259 
Q 1275 4134 1275 3809 
L 1275 3500 
L 2222 3500 
L 2222 3053 
L 1275 3053 
L 1275 0 
L 697 0 
L 697 3053 
L 147 3053 
L 147 3500 
L 697 3500 
L 697 3744 
Q 697 4328 969 4595 
Q 1241 4863 1831 4863 
L 2375 4863 
z
" transform="scale(0.015625)"/>
       <path id="DejaVuSans-4d" d="M 628 4666 
L 1569 4666 
L 2759 1491 
L 3956 4666 
L 4897 4666 
L 4897 0 
L 4281 0 
L 4281 4097 
L 3078 897 
L 2444 897 
L 1241 4097 
L 1241 0 
L 628 0 
L 628 4666 
z
" transform="scale(0.015625)"/>
       <path id="DejaVuSans-69" d="M 603 3500 
L 1178 3500 
L 1178 0 
L 603 0 
L 603 3500 
z
M 603 4863 
L 1178 4863 
L 1178 4134 
L 603 4134 
L 603 4863 
z
" transform="scale(0.015625)"/>
       <path id="DejaVuSans-63" d="M 3122 3366 
L 3122 2828 
Q 2878 2963 2633 3030 
Q 2388 3097 2138 3097 
Q 1578 3097 1268 2742 
Q 959 2388 959 1747 
Q 959 1106 1268 751 
Q 1578 397 2138 397 
Q 2388 397 2633 464 
Q 2878 531 3122 666 
L 3122 134 
Q 2881 22 2623 -34 
Q 2366 -91 2075 -91 
Q 1284 -91 818 406 
Q 353 903 353 1747 
Q 353 2603 823 3093 
Q 1294 3584 2113 3584 
Q 2378 3584 2631 3529 
Q 2884 3475 3122 3366 
z
" transform="scale(0.015625)"/>
       <path id="DejaVuSans-6e" d="M 3513 2113 
L 3513 0 
L 2938 0 
L 2938 2094 
Q 2938 2591 2744 2837 
Q 2550 3084 2163 3084 
Q 1697 3084 1428 2787 
Q 1159 2491 1159 1978 
L 1159 0 
L 581 0 
L 581 3500 
L 1159 3500 
L 1159 2956 
Q 1366 3272 1645 3428 
Q 1925 3584 2291 3584 
Q 2894 3584 3203 3211 
Q 3513 2838 3513 2113 
z
" transform="scale(0.015625)"/>
       <path id="DejaVuSans-54" d="M -19 4666 
L 3928 4666 
L 3928 4134 
L 2272 4134 
L 2272 0 
L 1638 0 
L 1638 4134 
L -19 4134 
L -19 4666 
z
" transform="scale(0.015625)"/>
       <path id="DejaVuSans-61" d="M 2194 1759 
Q 1497 1759 1228 1600 
Q 959 1441 959 1056 
Q 959 750 1161 570 
Q 1363 391 1709 391 
Q 2188 391 2477 730 
Q 2766 1069 2766 1631 
L 2766 1759 
L 2194 1759 
z
M 3341 1997 
L 3341 0 
L 2766 0 
L 2766 531 
Q 2569 213 2275 61 
Q 1981 -91 1556 -91 
Q 1019 -91 701 211 
Q 384 513 384 1019 
Q 384 1609 779 1909 
Q 1175 2209 1959 2209 
L 2766 2209 
L 2766 2266 
Q 2766 2663 2505 2880 
Q 2244 3097 1772 3097 
Q 1472 3097 1187 3025 
Q 903 2953 641 2809 
L 641 3341 
Q 956 3463 1253 3523 
Q 1550 3584 1831 3584 
Q 2591 3584 2966 3190 
Q 3341 2797 3341 1997 
z
" transform="scale(0.015625)"/>
       <path id="DejaVuSans-74" d="M 1172 4494 
L 1172 3500 
L 2356 3500 
L 2356 3053 
L 1172 3053 
L 1172 1153 
Q 1172 725 1289 603 
Q 1406 481 1766 481 
L 2356 481 
L 2356 0 
L 1766 0 
Q 1100 0 847 248 
Q 594 497 594 1153 
L 594 3053 
L 172 3053 
L 172 3500 
L 594 3500 
L 594 4494 
L 1172 4494 
z
" transform="scale(0.015625)"/>
       <path id="DejaVuSans-47" d="M 3809 666 
L 3809 1919 
L 2778 1919 
L 2778 2438 
L 4434 2438 
L 4434 434 
Q 4069 175 3628 42 
Q 3188 -91 2688 -91 
Q 1594 -91 976 548 
Q 359 1188 359 2328 
Q 359 3472 976 4111 
Q 1594 4750 2688 4750 
Q 3144 4750 3555 4637 
Q 3966 4525 4313 4306 
L 4313 3634 
Q 3963 3931 3569 4081 
Q 3175 4231 2741 4231 
Q 1884 4231 1454 3753 
Q 1025 3275 1025 2328 
Q 1025 1384 1454 906 
Q 1884 428 2741 428 
Q 3075 428 3337 486 
Q 3600 544 3809 666 
z
" transform="scale(0.015625)"/>
       <path id="DejaVuSans-70" d="M 1159 525 
L 1159 -1331 
L 581 -1331 
L 581 3500 
L 1159 3500 
L 1159 2969 
Q 1341 3281 1617 3432 
Q 1894 3584 2278 3584 
Q 2916 3584 3314 3078 
Q 3713 2572 3713 1747 
Q 3713 922 3314 415 
Q 2916 -91 2278 -91 
Q 1894 -91 1617 61 
Q 1341 213 1159 525 
z
M 3116 1747 
Q 3116 2381 2855 2742 
Q 2594 3103 2138 3103 
Q 1681 3103 1420 2742 
Q 1159 2381 1159 1747 
Q 1159 1113 1420 752 
Q 1681 391 2138 391 
Q 2594 391 2855 752 
Q 3116 1113 3116 1747 
z
" transform="scale(0.015625)"/>
      </defs>
      <use xlink:href="#DejaVuSans-4e"/>
      <use xlink:href="#DejaVuSans-75" x="74.804688"/>
      <use xlink:href="#DejaVuSans-6d" x="138.183594"/>
      <use xlink:href="#DejaVuSans-62" x="235.595703"/>
      <use xlink:href="#DejaVuSans-65" x="299.072266"/>
      <use xlink:href="#DejaVuSans-72" x="360.595703"/>
      <use xlink:href="#DejaVuSans-20" x="401.708984"/>
      <use xlink:href="#DejaVuSans-6f" x="433.496094"/>
      <use xlink:href="#DejaVuSans-66" x="494.677734"/>
      <use xlink:href="#DejaVuSans-20" x="529.882812"/>
      <use xlink:href="#DejaVuSans-4d" x="561.669922"/>
      <use xlink:href="#DejaVuSans-69" x="647.949219"/>
      <use xlink:href="#DejaVuSans-63" x="675.732422"/>
      <use xlink:href="#DejaVuSans-65" x="730.712891"/>
      <use xlink:href="#DejaVuSans-20" x="792.236328"/>
      <use xlink:href="#DejaVuSans-69" x="824.023438"/>
      <use xlink:href="#DejaVuSans-6e" x="851.806641"/>
      <use xlink:href="#DejaVuSans-20" x="915.185547"/>
      <use xlink:href="#DejaVuSans-54" x="946.972656"/>
      <use xlink:href="#DejaVuSans-72" x="993.306641"/>
      <use xlink:href="#DejaVuSans-65" x="1032.169922"/>
      <use xlink:href="#DejaVuSans-61" x="1093.693359"/>
      <use xlink:href="#DejaVuSans-74" x="1154.972656"/>
      <use xlink:href="#DejaVuSans-6d" x="1194.181641"/>
      <use xlink:href="#DejaVuSans-65" x="1291.59375"/>
      <use xlink:href="#DejaVuSans-6e" x="1353.117188"/>
      <use xlink:href="#DejaVuSans-74" x="1416.496094"/>
      <use xlink:href="#DejaVuSans-20" x="1455.705078"/>
      <use xlink:href="#DejaVuSans-47" x="1487.492188"/>
      <use xlink:href="#DejaVuSans-72" x="1564.982422"/>
      <use xlink:href="#DejaVuSans-6f" x="1603.845703"/>
      <use xlink:href="#DejaVuSans-75" x="1665.027344"/>
      <use xlink:href="#DejaVuSans-70" x="1728.40625"/>
     </g>
    </g>
   </g>
   <g id="matplotlib.axis_2">
    <g id="ytick_1">
     <g id="line2d_11">
      <path d="M 55.7 313.863372 
L 709.2 313.863372 
" clip-path="url(#p3dfc339bfe)" style="fill: none; stroke-dasharray: 2.96,1.28; stroke-dashoffset: 0; stroke: #000000; stroke-opacity: 0.3; stroke-width: 0.8"/>
     </g>
     <g id="line2d_12">
      <defs>
       <path id="m7e065d7bf9" d="M 0 0 
L -3.5 0 
" style="stroke: #000000; stroke-width: 0.8"/>
      </defs>
      <g>
       <use xlink:href="#m7e065d7bf9" x="55.7" y="313.863372" style="stroke: #000000; stroke-width: 0.8"/>
      </g>
     </g>
     <g id="text_12">
      <!-- 0.2 -->
      <g transform="translate(24.417188 317.662591) scale(0.1 -0.1)">
       <defs>
        <path id="DejaVuSans-2212" d="M 678 2272 
L 4684 2272 
L 4684 1741 
L 678 1741 
L 678 2272 
z
" transform="scale(0.015625)"/>
        <path id="DejaVuSans-2e" d="M 684 794 
L 1344 794 
L 1344 0 
L 684 0 
L 684 794 
z
" transform="scale(0.015625)"/>
       </defs>
       <use xlink:href="#DejaVuSans-2212"/>
       <use xlink:href="#DejaVuSans-30" x="83.789062"/>
       <use xlink:href="#DejaVuSans-2e" x="147.412109"/>
       <use xlink:href="#DejaVuSans-32" x="179.199219"/>
      </g>
     </g>
    </g>
    <g id="ytick_2">
     <g id="line2d_13">
      <path d="M 55.7 272.039839 
L 709.2 272.039839 
" clip-path="url(#p3dfc339bfe)" style="fill: none; stroke-dasharray: 2.96,1.28; stroke-dashoffset: 0; stroke: #000000; stroke-opacity: 0.3; stroke-width: 0.8"/>
     </g>
     <g id="line2d_14">
      <g>
       <use xlink:href="#m7e065d7bf9" x="55.7" y="272.039839" style="stroke: #000000; stroke-width: 0.8"/>
      </g>
     </g>
     <g id="text_13">
      <!-- 0.0 -->
      <g transform="translate(32.796875 275.839058) scale(0.1 -0.1)">
       <use xlink:href="#DejaVuSans-30"/>
       <use xlink:href="#DejaVuSans-2e" x="63.623047"/>
       <use xlink:href="#DejaVuSans-30" x="95.410156"/>
      </g>
     </g>
    </g>
    <g id="ytick_3">
     <g id="line2d_15">
      <path d="M 55.7 230.216307 
L 709.2 230.216307 
" clip-path="url(#p3dfc339bfe)" style="fill: none; stroke-dasharray: 2.96,1.28; stroke-dashoffset: 0; stroke: #000000; stroke-opacity: 0.3; stroke-width: 0.8"/>
     </g>
     <g id="line2d_16">
      <g>
       <use xlink:href="#m7e065d7bf9" x="55.7" y="230.216307" style="stroke: #000000; stroke-width: 0.8"/>
      </g>
     </g>
     <g id="text_14">
      <!-- 0.2 -->
      <g transform="translate(32.796875 234.015526) scale(0.1 -0.1)">
       <use xlink:href="#DejaVuSans-30"/>
       <use xlink:href="#DejaVuSans-2e" x="63.623047"/>
       <use xlink:href="#DejaVuSans-32" x="95.410156"/>
      </g>
     </g>
    </g>
    <g id="ytick_4">
     <g id="line2d_17">
      <path d="M 55.7 188.392774 
L 709.2 188.392774 
" clip-path="url(#p3dfc339bfe)" style="fill: none; stroke-dasharray: 2.96,1.28; stroke-dashoffset: 0; stroke: #000000; stroke-opacity: 0.3; stroke-width: 0.8"/>
     </g>
     <g id="line2d_18">
      <g>
       <use xlink:href="#m7e065d7bf9" x="55.7" y="188.392774" style="stroke: #000000; stroke-width: 0.8"/>
      </g>
     </g>
     <g id="text_15">
      <!-- 0.4 -->
      <g transform="translate(32.796875 192.191993) scale(0.1 -0.1)">
       <use xlink:href="#DejaVuSans-30"/>
       <use xlink:href="#DejaVuSans-2e" x="63.623047"/>
       <use xlink:href="#DejaVuSans-34" x="95.410156"/>
      </g>
     </g>
    </g>
    <g id="ytick_5">
     <g id="line2d_19">
      <path d="M 55.7 146.569242 
L 709.2 146.569242 
" clip-path="url(#p3dfc339bfe)" style="fill: none; stroke-dasharray: 2.96,1.28; stroke-dashoffset: 0; stroke: #000000; stroke-opacity: 0.3; stroke-width: 0.8"/>
     </g>
     <g id="line2d_20">
      <g>
       <use xlink:href="#m7e065d7bf9" x="55.7" y="146.569242" style="stroke: #000000; stroke-width: 0.8"/>
      </g>
     </g>
     <g id="text_16">
      <!-- 0.6 -->
      <g transform="translate(32.796875 150.368461) scale(0.1 -0.1)">
       <use xlink:href="#DejaVuSans-30"/>
       <use xlink:href="#DejaVuSans-2e" x="63.623047"/>
       <use xlink:href="#DejaVuSans-36" x="95.410156"/>
      </g>
     </g>
    </g>
    <g id="ytick_6">
     <g id="line2d_21">
      <path d="M 55.7 104.745709 
L 709.2 104.745709 
" clip-path="url(#p3dfc339bfe)" style="fill: none; stroke-dasharray: 2.96,1.28; stroke-dashoffset: 0; stroke: #000000; stroke-opacity: 0.3; stroke-width: 0.8"/>
     </g>
     <g id="line2d_22">
      <g>
       <use xlink:href="#m7e065d7bf9" x="55.7" y="104.745709" style="stroke: #000000; stroke-width: 0.8"/>
      </g>
     </g>
     <g id="text_17">
      <!-- 0.8 -->
      <g transform="translate(32.796875 108.544928) scale(0.1 -0.1)">
       <use xlink:href="#DejaVuSans-30"/>
       <use xlink:href="#DejaVuSans-2e" x="63.623047"/>
       <use xlink:href="#DejaVuSans-38" x="95.410156"/>
      </g>
     </g>
    </g>
    <g id="ytick_7">
     <g id="line2d_23">
      <path d="M 55.7 62.922177 
L 709.2 62.922177 
" clip-path="url(#p3dfc339bfe)" style="fill: none; stroke-dasharray: 2.96,1.28; stroke-dashoffset: 0; stroke: #000000; stroke-opacity: 0.3; stroke-width: 0.8"/>
     </g>
     <g id="line2d_24">
      <g>
       <use xlink:href="#m7e065d7bf9" x="55.7" y="62.922177" style="stroke: #000000; stroke-width: 0.8"/>
      </g>
     </g>
     <g id="text_18">
      <!-- 1.0 -->
      <g transform="translate(32.796875 66.721395) scale(0.1 -0.1)">
       <use xlink:href="#DejaVuSans-31"/>
       <use xlink:href="#DejaVuSans-2e" x="63.623047"/>
       <use xlink:href="#DejaVuSans-30" x="95.410156"/>
      </g>
     </g>
    </g>
    <g id="text_19">
     <!-- Fraction of Overlapping Hits -->
     <g transform="translate(18.3375 242.281094) rotate(-90) scale(0.1 -0.1)">
      <defs>
       <path id="DejaVuSans-46" d="M 628 4666 
L 3309 4666 
L 3309 4134 
L 1259 4134 
L 1259 2759 
L 3109 2759 
L 3109 2228 
L 1259 2228 
L 1259 0 
L 628 0 
L 628 4666 
z
" transform="scale(0.015625)"/>
       <path id="DejaVuSans-4f" d="M 2522 4238 
Q 1834 4238 1429 3725 
Q 1025 3213 1025 2328 
Q 1025 1447 1429 934 
Q 1834 422 2522 422 
Q 3209 422 3611 934 
Q 4013 1447 4013 2328 
Q 4013 3213 3611 3725 
Q 3209 4238 2522 4238 
z
M 2522 4750 
Q 3503 4750 4090 4092 
Q 4678 3434 4678 2328 
Q 4678 1225 4090 567 
Q 3503 -91 2522 -91 
Q 1538 -91 948 565 
Q 359 1222 359 2328 
Q 359 3434 948 4092 
Q 1538 4750 2522 4750 
z
" transform="scale(0.015625)"/>
       <path id="DejaVuSans-76" d="M 191 3500 
L 800 3500 
L 1894 563 
L 2988 3500 
L 3597 3500 
L 2284 0 
L 1503 0 
L 191 3500 
z
" transform="scale(0.015625)"/>
       <path id="DejaVuSans-6c" d="M 603 4863 
L 1178 4863 
L 1178 0 
L 603 0 
L 603 4863 
z
" transform="scale(0.015625)"/>
       <path id="DejaVuSans-67" d="M 2906 1791 
Q 2906 2416 2648 2759 
Q 2391 3103 1925 3103 
Q 1463 3103 1205 2759 
Q 947 2416 947 1791 
Q 947 1169 1205 825 
Q 1463 481 1925 481 
Q 2391 481 2648 825 
Q 2906 1169 2906 1791 
z
M 3481 434 
Q 3481 -459 3084 -895 
Q 2688 -1331 1869 -1331 
Q 1566 -1331 1297 -1286 
Q 1028 -1241 775 -1147 
L 775 -588 
Q 1028 -725 1275 -790 
Q 1522 -856 1778 -856 
Q 2344 -856 2625 -561 
Q 2906 -266 2906 331 
L 2906 616 
Q 2728 306 2450 153 
Q 2172 0 1784 0 
Q 1141 0 747 490 
Q 353 981 353 1791 
Q 353 2603 747 3093 
Q 1141 3584 1784 3584 
Q 2172 3584 2450 3431 
Q 2728 3278 2906 2969 
L 2906 3500 
L 3481 3500 
L 3481 434 
z
" transform="scale(0.015625)"/>
       <path id="DejaVuSans-48" d="M 628 4666 
L 1259 4666 
L 1259 2753 
L 3553 2753 
L 3553 4666 
L 4184 4666 
L 4184 0 
L 3553 0 
L 3553 2222 
L 1259 2222 
L 1259 0 
L 628 0 
L 628 4666 
z
" transform="scale(0.015625)"/>
       <path id="DejaVuSans-73" d="M 2834 3397 
L 2834 2853 
Q 2591 2978 2328 3040 
Q 2066 3103 1784 3103 
Q 1356 3103 1142 2972 
Q 928 2841 928 2578 
Q 928 2378 1081 2264 
Q 1234 2150 1697 2047 
L 1894 2003 
Q 2506 1872 2764 1633 
Q 3022 1394 3022 966 
Q 3022 478 2636 193 
Q 2250 -91 1575 -91 
Q 1294 -91 989 -36 
Q 684 19 347 128 
L 347 722 
Q 666 556 975 473 
Q 1284 391 1588 391 
Q 1994 391 2212 530 
Q 2431 669 2431 922 
Q 2431 1156 2273 1281 
Q 2116 1406 1581 1522 
L 1381 1569 
Q 847 1681 609 1914 
Q 372 2147 372 2553 
Q 372 3047 722 3315 
Q 1072 3584 1716 3584 
Q 2034 3584 2315 3537 
Q 2597 3491 2834 3397 
z
" transform="scale(0.015625)"/>
      </defs>
      <use xlink:href="#DejaVuSans-46"/>
      <use xlink:href="#DejaVuSans-72" x="50.269531"/>
      <use xlink:href="#DejaVuSans-61" x="91.382812"/>
      <use xlink:href="#DejaVuSans-63" x="152.662109"/>
      <use xlink:href="#DejaVuSans-74" x="207.642578"/>
      <use xlink:href="#DejaVuSans-69" x="246.851562"/>
      <use xlink:href="#DejaVuSans-6f" x="274.634766"/>
      <use xlink:href="#DejaVuSans-6e" x="335.816406"/>
      <use xlink:href="#DejaVuSans-20" x="399.195312"/>
      <use xlink:href="#DejaVuSans-6f" x="430.982422"/>
      <use xlink:href="#DejaVuSans-66" x="492.164062"/>
      <use xlink:href="#DejaVuSans-20" x="527.369141"/>
      <use xlink:href="#DejaVuSans-4f" x="559.15625"/>
      <use xlink:href="#DejaVuSans-76" x="637.867188"/>
      <use xlink:href="#DejaVuSans-65" x="697.046875"/>
      <use xlink:href="#DejaVuSans-72" x="758.570312"/>
      <use xlink:href="#DejaVuSans-6c" x="799.683594"/>
      <use xlink:href="#DejaVuSans-61" x="827.466797"/>
      <use xlink:href="#DejaVuSans-70" x="888.746094"/>
      <use xlink:href="#DejaVuSans-70" x="952.222656"/>
      <use xlink:href="#DejaVuSans-69" x="1015.699219"/>
      <use xlink:href="#DejaVuSans-6e" x="1043.482422"/>
      <use xlink:href="#DejaVuSans-67" x="1106.861328"/>
      <use xlink:href="#DejaVuSans-20" x="1170.337891"/>
      <use xlink:href="#DejaVuSans-48" x="1202.125"/>
      <use xlink:href="#DejaVuSans-69" x="1277.320312"/>
      <use xlink:href="#DejaVuSans-74" x="1305.103516"/>
      <use xlink:href="#DejaVuSans-73" x="1344.3125"/>
     </g>
    </g>
   </g>
   <g id="line2d_25">
    <path d="M 88.375 272.039839 
L 88.375 212.291936 
" clip-path="url(#p3dfc339bfe)" style="fill: none; stroke: #1a1a1a; stroke-linecap: square"/>
   </g>
   <g id="line2d_26">
    <path d="M 88.375 262.081855 
L 88.375 212.291936 
" clip-path="url(#p3dfc339bfe)" style="fill: none; stroke: #1a1a1a; stroke-width: 7; stroke-linecap: square"/>
   </g>
   <g id="line2d_27">
    <path d="M 88.375 212.291936 
" clip-path="url(#p3dfc339bfe)" style="fill: none; stroke: #fa8072; stroke-width: 1.5; stroke-linecap: square"/>
    <defs>
     <path id="m06b6f1dd18" d="M 2.916667 0 
L -2.916667 -0 
" style="stroke: #ffffff; stroke-width: 1.4"/>
    </defs>
    <g clip-path="url(#p3dfc339bfe)">
     <use xlink:href="#m06b6f1dd18" x="88.375" y="212.291936" style="fill: #ffffff; stroke: #ffffff; stroke-width: 1.4"/>
    </g>
   </g>
   <g id="line2d_28">
    <path d="M 153.725 262.081855 
L 153.725 132.628064 
" clip-path="url(#p3dfc339bfe)" style="fill: none; stroke: #1a1a1a; stroke-linecap: square"/>
   </g>
   <g id="line2d_29">
    <path d="M 153.725 252.123871 
L 153.725 172.46 
" clip-path="url(#p3dfc339bfe)" style="fill: none; stroke: #1a1a1a; stroke-width: 7; stroke-linecap: square"/>
   </g>
   <g id="line2d_30">
    <path d="M 153.725 212.291936 
" clip-path="url(#p3dfc339bfe)" style="fill: none; stroke: #fa8072; stroke-width: 1.5; stroke-linecap: square"/>
    <g clip-path="url(#p3dfc339bfe)">
     <use xlink:href="#m06b6f1dd18" x="153.725" y="212.291936" style="fill: #ffffff; stroke: #ffffff; stroke-width: 1.4"/>
    </g>
   </g>
   <g id="line2d_31">
    <path d="M 219.075 262.081855 
L 219.075 132.628064 
" clip-path="url(#p3dfc339bfe)" style="fill: none; stroke: #1a1a1a; stroke-linecap: square"/>
   </g>
   <g id="line2d_32">
    <path d="M 219.075 222.24992 
L 219.075 172.46 
" clip-path="url(#p3dfc339bfe)" style="fill: none; stroke: #1a1a1a; stroke-width: 7; stroke-linecap: square"/>
   </g>
   <g id="line2d_33">
    <path d="M 219.075 212.291936 
" clip-path="url(#p3dfc339bfe)" style="fill: none; stroke: #fa8072; stroke-width: 1.5; stroke-linecap: square"/>
    <g clip-path="url(#p3dfc339bfe)">
     <use xlink:href="#m06b6f1dd18" x="219.075" y="212.291936" style="fill: #ffffff; stroke: #ffffff; stroke-width: 1.4"/>
    </g>
   </g>
   <g id="line2d_34">
    <path d="M 284.425 252.123871 
L 284.425 82.838145 
" clip-path="url(#p3dfc339bfe)" style="fill: none; stroke: #1a1a1a; stroke-linecap: square"/>
   </g>
   <g id="line2d_35">
    <path d="M 284.425 222.24992 
L 284.425 152.544032 
" clip-path="url(#p3dfc339bfe)" style="fill: none; stroke: #1a1a1a; stroke-width: 7; stroke-linecap: square"/>
   </g>
   <g id="line2d_36">
    <path d="M 284.425 182.417984 
" clip-path="url(#p3dfc339bfe)" style="fill: none; stroke: #fa8072; stroke-width: 1.5; stroke-linecap: square"/>
    <g clip-path="url(#p3dfc339bfe)">
     <use xlink:href="#m06b6f1dd18" x="284.425" y="182.417984" style="fill: #ffffff; stroke: #ffffff; stroke-width: 1.4"/>
    </g>
   </g>
   <g id="line2d_37">
    <path d="M 349.775 262.081855 
L 349.775 82.838145 
" clip-path="url(#p3dfc339bfe)" style="fill: none; stroke: #1a1a1a; stroke-linecap: square"/>
   </g>
   <g id="line2d_38">
    <path d="M 349.775 202.333952 
L 349.775 122.67008 
" clip-path="url(#p3dfc339bfe)" style="fill: none; stroke: #1a1a1a; stroke-width: 7; stroke-linecap: square"/>
   </g>
   <g id="line2d_39">
    <path d="M 349.775 162.502016 
" clip-path="url(#p3dfc339bfe)" style="fill: none; stroke: #fa8072; stroke-width: 1.5; stroke-linecap: square"/>
    <g clip-path="url(#p3dfc339bfe)">
     <use xlink:href="#m06b6f1dd18" x="349.775" y="162.502016" style="fill: #ffffff; stroke: #ffffff; stroke-width: 1.4"/>
    </g>
   </g>
   <g id="line2d_40">
    <path d="M 415.125 222.24992 
L 415.125 92.796129 
" clip-path="url(#p3dfc339bfe)" style="fill: none; stroke: #1a1a1a; stroke-linecap: square"/>
   </g>
   <g id="line2d_41">
    <path d="M 415.125 192.375968 
L 415.125 142.586048 
" clip-path="url(#p3dfc339bfe)" style="fill: none; stroke: #1a1a1a; stroke-width: 7; stroke-linecap: square"/>
   </g>
   <g id="line2d_42">
    <path d="M 415.125 167.481008 
" clip-path="url(#p3dfc339bfe)" style="fill: none; stroke: #fa8072; stroke-width: 1.5; stroke-linecap: square"/>
    <g clip-path="url(#p3dfc339bfe)">
     <use xlink:href="#m06b6f1dd18" x="415.125" y="167.481008" style="fill: #ffffff; stroke: #ffffff; stroke-width: 1.4"/>
    </g>
   </g>
   <g id="line2d_43">
    <path d="M 480.475 232.207904 
L 480.475 82.838145 
" clip-path="url(#p3dfc339bfe)" style="fill: none; stroke: #1a1a1a; stroke-linecap: square"/>
   </g>
   <g id="line2d_44">
    <path d="M 480.475 162.502016 
L 480.475 102.754112 
" clip-path="url(#p3dfc339bfe)" style="fill: none; stroke: #1a1a1a; stroke-width: 7; stroke-linecap: square"/>
   </g>
   <g id="line2d_45">
    <path d="M 480.475 132.628064 
" clip-path="url(#p3dfc339bfe)" style="fill: none; stroke: #fa8072; stroke-width: 1.5; stroke-linecap: square"/>
    <g clip-path="url(#p3dfc339bfe)">
     <use xlink:href="#m06b6f1dd18" x="480.475" y="132.628064" style="fill: #ffffff; stroke: #ffffff; stroke-width: 1.4"/>
    </g>
   </g>
   <g id="line2d_46">
    <path d="M 545.825 222.24992 
L 545.825 82.838145 
" clip-path="url(#p3dfc339bfe)" style="fill: none; stroke: #1a1a1a; stroke-linecap: square"/>
   </g>
   <g id="line2d_47">
    <path d="M 545.825 162.502016 
L 545.825 105.243608 
" clip-path="url(#p3dfc339bfe)" style="fill: none; stroke: #1a1a1a; stroke-width: 7; stroke-linecap: square"/>
   </g>
   <g id="line2d_48">
    <path d="M 545.825 137.607056 
" clip-path="url(#p3dfc339bfe)" style="fill: none; stroke: #fa8072; stroke-width: 1.5; stroke-linecap: square"/>
    <g clip-path="url(#p3dfc339bfe)">
     <use xlink:href="#m06b6f1dd18" x="545.825" y="137.607056" style="fill: #ffffff; stroke: #ffffff; stroke-width: 1.4"/>
    </g>
   </g>
   <g id="line2d_49">
    <path d="M 611.175 222.24992 
L 611.175 82.838145 
" clip-path="url(#p3dfc339bfe)" style="fill: none; stroke: #1a1a1a; stroke-linecap: square"/>
   </g>
   <g id="line2d_50">
    <path d="M 611.175 162.502016 
L 611.175 112.712096 
" clip-path="url(#p3dfc339bfe)" style="fill: none; stroke: #1a1a1a; stroke-width: 7; stroke-linecap: square"/>
   </g>
   <g id="line2d_51">
    <path d="M 611.175 137.607056 
" clip-path="url(#p3dfc339bfe)" style="fill: none; stroke: #fa8072; stroke-width: 1.5; stroke-linecap: square"/>
    <g clip-path="url(#p3dfc339bfe)">
     <use xlink:href="#m06b6f1dd18" x="611.175" y="137.607056" style="fill: #ffffff; stroke: #ffffff; stroke-width: 1.4"/>
    </g>
   </g>
   <g id="line2d_52">
    <path d="M 676.525 192.375968 
L 676.525 72.880161 
" clip-path="url(#p3dfc339bfe)" style="fill: none; stroke: #1a1a1a; stroke-linecap: square"/>
   </g>
   <g id="line2d_53">
    <path d="M 676.525 152.544032 
L 676.525 95.285625 
" clip-path="url(#p3dfc339bfe)" style="fill: none; stroke: #1a1a1a; stroke-width: 7; stroke-linecap: square"/>
   </g>
   <g id="line2d_54">
    <path d="M 676.525 117.691088 
" clip-path="url(#p3dfc339bfe)" style="fill: none; stroke: #fa8072; stroke-width: 1.5; stroke-linecap: square"/>
    <g clip-path="url(#p3dfc339bfe)">
     <use xlink:href="#m06b6f1dd18" x="676.525" y="117.691088" style="fill: #ffffff; stroke: #ffffff; stroke-width: 1.4"/>
    </g>
   </g>
   <g id="patch_3">
    <path d="M 55.7 319 
L 55.7 25.92 
" style="fill: none; stroke: #000000; stroke-width: 0.8; stroke-linejoin: miter; stroke-linecap: square"/>
   </g>
   <g id="patch_4">
    <path d="M 709.2 319 
L 709.2 25.92 
" style="fill: none; stroke: #000000; stroke-width: 0.8; stroke-linejoin: miter; stroke-linecap: square"/>
   </g>
   <g id="patch_5">
    <path d="M 55.7 319 
L 709.2 319 
" style="fill: none; stroke: #000000; stroke-width: 0.8; stroke-linejoin: miter; stroke-linecap: square"/>
   </g>
   <g id="patch_6">
    <path d="M 55.7 25.92 
L 709.2 25.92 
" style="fill: none; stroke: #000000; stroke-width: 0.8; stroke-linejoin: miter; stroke-linecap: square"/>
   </g>
   <g id="text_20">
    <!-- Fraction of Overlapping Hits in Bootstraps compared to Standard -->
    <g transform="translate(187.84 19.92) scale(0.12 -0.12)">
     <defs>
      <path id="DejaVuSans-42" d="M 1259 2228 
L 1259 519 
L 2272 519 
Q 2781 519 3026 730 
Q 3272 941 3272 1375 
Q 3272 1813 3026 2020 
Q 2781 2228 2272 2228 
L 1259 2228 
z
M 1259 4147 
L 1259 2741 
L 2194 2741 
Q 2656 2741 2882 2914 
Q 3109 3088 3109 3444 
Q 3109 3797 2882 3972 
Q 2656 4147 2194 4147 
L 1259 4147 
z
M 628 4666 
L 2241 4666 
Q 2963 4666 3353 4366 
Q 3744 4066 3744 3513 
Q 3744 3084 3544 2831 
Q 3344 2578 2956 2516 
Q 3422 2416 3680 2098 
Q 3938 1781 3938 1306 
Q 3938 681 3513 340 
Q 3088 0 2303 0 
L 628 0 
L 628 4666 
z
" transform="scale(0.015625)"/>
      <path id="DejaVuSans-64" d="M 2906 2969 
L 2906 4863 
L 3481 4863 
L 3481 0 
L 2906 0 
L 2906 525 
Q 2725 213 2448 61 
Q 2172 -91 1784 -91 
Q 1150 -91 751 415 
Q 353 922 353 1747 
Q 353 2572 751 3078 
Q 1150 3584 1784 3584 
Q 2172 3584 2448 3432 
Q 2725 3281 2906 2969 
z
M 947 1747 
Q 947 1113 1208 752 
Q 1469 391 1925 391 
Q 2381 391 2643 752 
Q 2906 1113 2906 1747 
Q 2906 2381 2643 2742 
Q 2381 3103 1925 3103 
Q 1469 3103 1208 2742 
Q 947 2381 947 1747 
z
" transform="scale(0.015625)"/>
      <path id="DejaVuSans-53" d="M 3425 4513 
L 3425 3897 
Q 3066 4069 2747 4153 
Q 2428 4238 2131 4238 
Q 1616 4238 1336 4038 
Q 1056 3838 1056 3469 
Q 1056 3159 1242 3001 
Q 1428 2844 1947 2747 
L 2328 2669 
Q 3034 2534 3370 2195 
Q 3706 1856 3706 1288 
Q 3706 609 3251 259 
Q 2797 -91 1919 -91 
Q 1588 -91 1214 -16 
Q 841 59 441 206 
L 441 856 
Q 825 641 1194 531 
Q 1563 422 1919 422 
Q 2459 422 2753 634 
Q 3047 847 3047 1241 
Q 3047 1584 2836 1778 
Q 2625 1972 2144 2069 
L 1759 2144 
Q 1053 2284 737 2584 
Q 422 2884 422 3419 
Q 422 4038 858 4394 
Q 1294 4750 2059 4750 
Q 2388 4750 2728 4690 
Q 3069 4631 3425 4513 
z
" transform="scale(0.015625)"/>
     </defs>
     <use xlink:href="#DejaVuSans-46"/>
     <use xlink:href="#DejaVuSans-72" x="50.269531"/>
     <use xlink:href="#DejaVuSans-61" x="91.382812"/>
     <use xlink:href="#DejaVuSans-63" x="152.662109"/>
     <use xlink:href="#DejaVuSans-74" x="207.642578"/>
     <use xlink:href="#DejaVuSans-69" x="246.851562"/>
     <use xlink:href="#DejaVuSans-6f" x="274.634766"/>
     <use xlink:href="#DejaVuSans-6e" x="335.816406"/>
     <use xlink:href="#DejaVuSans-20" x="399.195312"/>
     <use xlink:href="#DejaVuSans-6f" x="430.982422"/>
     <use xlink:href="#DejaVuSans-66" x="492.164062"/>
     <use xlink:href="#DejaVuSans-20" x="527.369141"/>
     <use xlink:href="#DejaVuSans-4f" x="559.15625"/>
     <use xlink:href="#DejaVuSans-76" x="637.867188"/>
     <use xlink:href="#DejaVuSans-65" x="697.046875"/>
     <use xlink:href="#DejaVuSans-72" x="758.570312"/>
     <use xlink:href="#DejaVuSans-6c" x="799.683594"/>
     <use xlink:href="#DejaVuSans-61" x="827.466797"/>
     <use xlink:href="#DejaVuSans-70" x="888.746094"/>
     <use xlink:href="#DejaVuSans-70" x="952.222656"/>
     <use xlink:href="#DejaVuSans-69" x="1015.699219"/>
     <use xlink:href="#DejaVuSans-6e" x="1043.482422"/>
     <use xlink:href="#DejaVuSans-67" x="1106.861328"/>
     <use xlink:href="#DejaVuSans-20" x="1170.337891"/>
     <use xlink:href="#DejaVuSans-48" x="1202.125"/>
     <use xlink:href="#DejaVuSans-69" x="1277.320312"/>
     <use xlink:href="#DejaVuSans-74" x="1305.103516"/>
     <use xlink:href="#DejaVuSans-73" x="1344.3125"/>
     <use xlink:href="#DejaVuSans-20" x="1396.412109"/>
     <use xlink:href="#DejaVuSans-69" x="1428.199219"/>
     <use xlink:href="#DejaVuSans-6e" x="1455.982422"/>
     <use xlink:href="#DejaVuSans-20" x="1519.361328"/>
     <use xlink:href="#DejaVuSans-42" x="1551.148438"/>
     <use xlink:href="#DejaVuSans-6f" x="1619.751953"/>
     <use xlink:href="#DejaVuSans-6f" x="1680.933594"/>
     <use xlink:href="#DejaVuSans-74" x="1742.115234"/>
     <use xlink:href="#DejaVuSans-73" x="1781.324219"/>
     <use xlink:href="#DejaVuSans-74" x="1833.423828"/>
     <use xlink:href="#DejaVuSans-72" x="1872.632812"/>
     <use xlink:href="#DejaVuSans-61" x="1913.746094"/>
     <use xlink:href="#DejaVuSans-70" x="1975.025391"/>
     <use xlink:href="#DejaVuSans-73" x="2038.501953"/>
     <use xlink:href="#DejaVuSans-20" x="2090.601562"/>
     <use xlink:href="#DejaVuSans-63" x="2122.388672"/>
     <use xlink:href="#DejaVuSans-6f" x="2177.369141"/>
     <use xlink:href="#DejaVuSans-6d" x="2238.550781"/>
     <use xlink:href="#DejaVuSans-70" x="2335.962891"/>
     <use xlink:href="#DejaVuSans-61" x="2399.439453"/>
     <use xlink:href="#DejaVuSans-72" x="2460.71875"/>
     <use xlink:href="#DejaVuSans-65" x="2499.582031"/>
     <use xlink:href="#DejaVuSans-64" x="2561.105469"/>
     <use xlink:href="#DejaVuSans-20" x="2624.582031"/>
     <use xlink:href="#DejaVuSans-74" x="2656.369141"/>
     <use xlink:href="#DejaVuSans-6f" x="2695.578125"/>
     <use xlink:href="#DejaVuSans-20" x="2756.759766"/>
     <use xlink:href="#DejaVuSans-53" x="2788.546875"/>
     <use xlink:href="#DejaVuSans-74" x="2852.023438"/>
     <use xlink:href="#DejaVuSans-61" x="2891.232422"/>
     <use xlink:href="#DejaVuSans-6e" x="2952.511719"/>
     <use xlink:href="#DejaVuSans-64" x="3015.890625"/>
     <use xlink:href="#DejaVuSans-61" x="3079.367188"/>
     <use xlink:href="#DejaVuSans-72" x="3140.646484"/>
     <use xlink:href="#DejaVuSans-64" x="3180.009766"/>
    </g>
   </g>
  </g>
 </g>
 <defs>
  <clipPath id="p3dfc339bfe">
   <rect x="55.7" y="25.92" width="653.5" height="293.08"/>
  </clipPath>
 </defs>
</svg>
