<?xml version="1.0" encoding="utf-8" standalone="no"?>
<!DOCTYPE svg PUBLIC "-//W3C//DTD SVG 1.1//EN"
  "http://www.w3.org/Graphics/SVG/1.1/DTD/svg11.dtd">
<svg xmlns:xlink="http://www.w3.org/1999/xlink" width="293.76pt" height="138.24pt" viewBox="0 0 293.76 138.24" xmlns="http://www.w3.org/2000/svg" version="1.1">
 <metadata>
  <rdf:RDF xmlns:dc="http://purl.org/dc/elements/1.1/" xmlns:cc="http://creativecommons.org/ns#" xmlns:rdf="http://www.w3.org/1999/02/22-rdf-syntax-ns#">
   <cc:Work>
    <dc:type rdf:resource="http://purl.org/dc/dcmitype/StillImage"/>
    <dc:date>2024-07-15T15:31:58.262599</dc:date>
    <dc:format>image/svg+xml</dc:format>
    <dc:creator>
     <cc:Agent>
      <dc:title>Matplotlib v3.9.1, https://matplotlib.org/</dc:title>
     </cc:Agent>
    </dc:creator>
   </cc:Work>
  </rdf:RDF>
 </metadata>
 <defs>
  <style type="text/css">*{stroke-linejoin: round; stroke-linecap: butt}</style>
 </defs>
 <g id="figure_1">
  <g id="patch_1">
   <path d="M 0 138.24 
L 293.76 138.24 
L 293.76 0 
L 0 0 
z
" style="fill: #ffffff"/>
  </g>
  <g id="axes_1">
   <g id="patch_2">
    <path d="M 37.85 109.24 
L 287.28 109.24 
L 287.28 18 
L 37.85 18 
z
" style="fill: #ffffff"/>
   </g>
   <g id="PolyCollection_1">
    <path d="M 50.723829 102.019535 
L 49.919171 102.019535 
L 49.836212 101.68218 
L 49.740618 101.344824 
L 49.631476 101.007469 
L 49.508021 100.670114 
L 49.369684 100.332758 
L 49.216139 99.995403 
L 49.047349 99.658047 
L 48.863609 99.320692 
L 48.665582 98.983336 
L 48.454318 98.645981 
L 48.231274 98.308625 
L 47.998309 97.97127 
L 47.757667 97.633915 
L 47.511948 97.296559 
L 47.264056 96.959204 
L 47.017136 96.621848 
L 46.774494 96.284493 
L 46.53951 95.947137 
L 46.315534 95.609782 
L 46.105786 95.272426 
L 45.91325 94.935071 
L 45.740572 94.597716 
L 45.589967 94.26036 
L 45.463139 93.923005 
L 45.361216 93.585649 
L 45.284705 93.248294 
L 45.233471 92.910938 
L 45.206735 92.573583 
L 45.203107 92.236227 
L 45.220628 91.898872 
L 45.256847 91.561517 
L 45.308912 91.224161 
L 45.373672 90.886806 
L 45.4478 90.54945 
L 45.527908 90.212095 
L 45.610666 89.874739 
L 45.692921 89.537384 
L 45.771787 89.200028 
L 45.844731 88.862673 
L 45.909628 88.525318 
L 45.964794 88.187962 
L 46.008987 87.850607 
L 46.041387 87.513251 
L 46.061546 87.175896 
L 46.069314 86.83854 
L 46.064753 86.501185 
L 46.048031 86.163829 
L 46.019322 85.826474 
L 45.978701 85.489118 
L 45.92605 85.151763 
L 45.860996 84.814408 
L 45.782853 84.477052 
L 45.690616 84.139697 
L 45.582978 83.802341 
L 45.458389 83.464986 
L 45.31515 83.12763 
L 45.15154 82.790275 
L 44.965972 82.452919 
L 44.757168 82.115564 
L 44.524347 81.778209 
L 44.267406 81.440853 
L 43.98709 81.103498 
L 43.685137 80.766142 
L 43.364383 80.428787 
L 43.028814 80.091431 
L 42.683566 79.754076 
L 42.334856 79.41672 
L 41.989857 79.079365 
L 41.6565 78.74201 
L 41.343229 78.404654 
L 41.058707 78.067299 
L 40.81149 77.729943 
L 40.60969 77.392588 
L 40.460633 77.055232 
L 40.370551 76.717877 
L 40.3443 76.380521 
L 40.385145 76.043166 
L 40.494601 75.705811 
L 40.672363 75.368455 
L 40.916306 75.0311 
L 41.222569 74.693744 
L 41.585712 74.356389 
L 41.998943 74.019033 
L 42.454384 73.681678 
L 42.943384 73.344322 
L 43.456848 73.006967 
L 43.985557 72.669612 
L 44.520488 72.332256 
L 45.053097 71.994901 
L 45.575554 71.657545 
L 46.080941 71.32019 
L 46.563388 70.982834 
L 47.018156 70.645479 
L 47.441661 70.308123 
L 47.831458 69.970768 
L 48.186176 69.633412 
L 48.505419 69.296057 
L 48.789647 68.958702 
L 49.040037 68.621346 
L 51.602963 68.621346 
L 51.602963 68.621346 
L 51.853353 68.958702 
L 52.137581 69.296057 
L 52.456824 69.633412 
L 52.811542 69.970768 
L 53.201339 70.308123 
L 53.624844 70.645479 
L 54.079612 70.982834 
L 54.562059 71.32019 
L 55.067446 71.657545 
L 55.589903 71.994901 
L 56.122512 72.332256 
L 56.657443 72.669612 
L 57.186152 73.006967 
L 57.699616 73.344322 
L 58.188616 73.681678 
L 58.644057 74.019033 
L 59.057288 74.356389 
L 59.420431 74.693744 
L 59.726694 75.0311 
L 59.970637 75.368455 
L 60.148399 75.705811 
L 60.257855 76.043166 
L 60.2987 76.380521 
L 60.272449 76.717877 
L 60.182367 77.055232 
L 60.03331 77.392588 
L 59.83151 77.729943 
L 59.584293 78.067299 
L 59.299771 78.404654 
L 58.9865 78.74201 
L 58.653143 79.079365 
L 58.308144 79.41672 
L 57.959434 79.754076 
L 57.614186 80.091431 
L 57.278617 80.428787 
L 56.957863 80.766142 
L 56.65591 81.103498 
L 56.375594 81.440853 
L 56.118653 81.778209 
L 55.885832 82.115564 
L 55.677028 82.452919 
L 55.49146 82.790275 
L 55.32785 83.12763 
L 55.184611 83.464986 
L 55.060022 83.802341 
L 54.952384 84.139697 
L 54.860147 84.477052 
L 54.782004 84.814408 
L 54.71695 85.151763 
L 54.664299 85.489118 
L 54.623678 85.826474 
L 54.594969 86.163829 
L 54.578247 86.501185 
L 54.573686 86.83854 
L 54.581454 87.175896 
L 54.601613 87.513251 
L 54.634013 87.850607 
L 54.678206 88.187962 
L 54.733372 88.525318 
L 54.798269 88.862673 
L 54.871213 89.200028 
L 54.950079 89.537384 
L 55.032334 89.874739 
L 55.115092 90.212095 
L 55.1952 90.54945 
L 55.269328 90.886806 
L 55.334088 91.224161 
L 55.386153 91.561517 
L 55.422372 91.898872 
L 55.439893 92.236227 
L 55.436265 92.573583 
L 55.409529 92.910938 
L 55.358295 93.248294 
L 55.281784 93.585649 
L 55.179861 93.923005 
L 55.053033 94.26036 
L 54.902428 94.597716 
L 54.72975 94.935071 
L 54.537214 95.272426 
L 54.327466 95.609782 
L 54.10349 95.947137 
L 53.868506 96.284493 
L 53.625864 96.621848 
L 53.378944 96.959204 
L 53.131052 97.296559 
L 52.885333 97.633915 
L 52.644691 97.97127 
L 52.411726 98.308625 
L 52.188682 98.645981 
L 51.977418 98.983336 
L 51.779391 99.320692 
L 51.595651 99.658047 
L 51.426861 99.995403 
L 51.273316 100.332758 
L 51.134979 100.670114 
L 51.011524 101.007469 
L 50.902382 101.344824 
L 50.806788 101.68218 
L 50.723829 102.019535 
L 50.723829 102.019535 
z
" clip-path="url(#p071dee529e)" style="fill: none; stroke: #fa8072; stroke-opacity: 0.8; stroke-width: 2"/>
   </g>
   <g id="PolyCollection_2">
    <path d="M 75.531687 102.915144 
L 74.997313 102.915144 
L 74.925906 102.277871 
L 74.840339 101.640599 
L 74.73922 101.003326 
L 74.621396 100.366054 
L 74.486058 99.728782 
L 74.33285 99.091509 
L 74.161972 98.454237 
L 73.974259 97.816964 
L 73.771242 97.179692 
L 73.555174 96.542419 
L 73.329005 95.905147 
L 73.096321 95.267874 
L 72.861227 94.630602 
L 72.628185 93.993329 
L 72.401816 93.356057 
L 72.186672 92.718785 
L 71.986994 92.081512 
L 71.80648 91.44424 
L 71.648069 90.806967 
L 71.513773 90.169695 
L 71.40456 89.532422 
L 71.320311 88.89515 
L 71.259846 88.257877 
L 71.221031 87.620605 
L 71.200944 86.983333 
L 71.1961 86.34606 
L 71.202718 85.708788 
L 71.216987 85.071515 
L 71.235339 84.434243 
L 71.254683 83.79697 
L 71.272585 83.159698 
L 71.287391 82.522425 
L 71.298262 81.885153 
L 71.30515 81.24788 
L 71.308682 80.610608 
L 71.310004 79.973336 
L 71.310572 79.336063 
L 71.311929 78.698791 
L 71.315477 78.061518 
L 71.322284 77.424246 
L 71.332926 76.786973 
L 71.347386 76.149701 
L 71.365031 75.512428 
L 71.384641 74.875156 
L 71.404515 74.237883 
L 71.422627 73.600611 
L 71.436813 72.963339 
L 71.44499 72.326066 
L 71.445364 71.688794 
L 71.436628 71.051521 
L 71.418114 70.414249 
L 71.389907 69.776976 
L 71.35289 69.139704 
L 71.308743 68.502431 
L 71.259867 67.865159 
L 71.20927 67.227886 
L 71.160404 66.590614 
L 71.116974 65.953342 
L 71.08274 65.316069 
L 71.061307 64.678797 
L 71.055938 64.041524 
L 71.06939 63.404252 
L 71.103781 62.766979 
L 71.160497 62.129707 
L 71.240144 61.492434 
L 71.34254 60.855162 
L 71.466748 60.217889 
L 71.611145 59.580617 
L 71.773516 58.943345 
L 71.951175 58.306072 
L 72.141095 57.6688 
L 72.34005 57.031527 
L 72.544744 56.394255 
L 72.751945 55.756982 
L 72.958593 55.11971 
L 73.161895 54.482437 
L 73.359394 53.845165 
L 73.549021 53.207893 
L 73.729112 52.57062 
L 73.898419 51.933348 
L 74.056087 51.296075 
L 74.201626 50.658803 
L 74.33487 50.02153 
L 74.455923 49.384258 
L 74.565112 48.746985 
L 74.662933 48.109713 
L 74.750004 47.47244 
L 74.827025 46.835168 
L 74.89474 46.197896 
L 74.953915 45.560623 
L 75.005308 44.923351 
L 75.049661 44.286078 
L 75.087687 43.648806 
L 75.120065 43.011533 
L 75.147431 42.374261 
L 75.170385 41.736988 
L 75.189479 41.099716 
L 75.205228 40.462443 
L 75.218099 39.825171 
L 75.310901 39.825171 
L 75.310901 39.825171 
L 75.323772 40.462443 
L 75.339521 41.099716 
L 75.358615 41.736988 
L 75.381569 42.374261 
L 75.408935 43.011533 
L 75.441313 43.648806 
L 75.479339 44.286078 
L 75.523692 44.923351 
L 75.575085 45.560623 
L 75.63426 46.197896 
L 75.701975 46.835168 
L 75.778996 47.47244 
L 75.866067 48.109713 
L 75.963888 48.746985 
L 76.073077 49.384258 
L 76.19413 50.02153 
L 76.327374 50.658803 
L 76.472913 51.296075 
L 76.630581 51.933348 
L 76.799888 52.57062 
L 76.979979 53.207893 
L 77.169606 53.845165 
L 77.367105 54.482437 
L 77.570407 55.11971 
L 77.777055 55.756982 
L 77.984256 56.394255 
L 78.18895 57.031527 
L 78.387905 57.6688 
L 78.577825 58.306072 
L 78.755484 58.943345 
L 78.917855 59.580617 
L 79.062252 60.217889 
L 79.18646 60.855162 
L 79.288856 61.492434 
L 79.368503 62.129707 
L 79.425219 62.766979 
L 79.45961 63.404252 
L 79.473062 64.041524 
L 79.467693 64.678797 
L 79.44626 65.316069 
L 79.412026 65.953342 
L 79.368596 66.590614 
L 79.31973 67.227886 
L 79.269133 67.865159 
L 79.220257 68.502431 
L 79.17611 69.139704 
L 79.139093 69.776976 
L 79.110886 70.414249 
L 79.092372 71.051521 
L 79.083636 71.688794 
L 79.08401 72.326066 
L 79.092187 72.963339 
L 79.106373 73.600611 
L 79.124485 74.237883 
L 79.144359 74.875156 
L 79.163969 75.512428 
L 79.181614 76.149701 
L 79.196074 76.786973 
L 79.206716 77.424246 
L 79.213523 78.061518 
L 79.217071 78.698791 
L 79.218428 79.336063 
L 79.218996 79.973336 
L 79.220318 80.610608 
L 79.22385 81.24788 
L 79.230738 81.885153 
L 79.241609 82.522425 
L 79.256415 83.159698 
L 79.274317 83.79697 
L 79.293661 84.434243 
L 79.312013 85.071515 
L 79.326282 85.708788 
L 79.3329 86.34606 
L 79.328056 86.983333 
L 79.307969 87.620605 
L 79.269154 88.257877 
L 79.208689 88.89515 
L 79.12444 89.532422 
L 79.015227 90.169695 
L 78.880931 90.806967 
L 78.72252 91.44424 
L 78.542006 92.081512 
L 78.342328 92.718785 
L 78.127184 93.356057 
L 77.900815 93.993329 
L 77.667773 94.630602 
L 77.432679 95.267874 
L 77.199995 95.905147 
L 76.973826 96.542419 
L 76.757758 97.179692 
L 76.554741 97.816964 
L 76.367028 98.454237 
L 76.19615 99.091509 
L 76.042942 99.728782 
L 75.907604 100.366054 
L 75.78978 101.003326 
L 75.688661 101.640599 
L 75.603094 102.277871 
L 75.531687 102.915144 
L 75.531687 102.915144 
z
" clip-path="url(#p071dee529e)" style="fill: none; stroke: #fa8072; stroke-opacity: 0.8; stroke-width: 2"/>
   </g>
   <g id="PolyCollection_3">
    <path d="M 100.296861 101.908581 
L 100.118139 101.908581 
L 100.086993 101.166388 
L 100.047753 100.424195 
L 99.99923 99.682002 
L 99.940298 98.939809 
L 99.869943 98.197617 
L 99.787292 97.455424 
L 99.691639 96.713231 
L 99.582424 95.971038 
L 99.459212 95.228845 
L 99.321634 94.486652 
L 99.169331 93.744459 
L 99.001896 93.002266 
L 98.818843 92.260073 
L 98.619604 91.51788 
L 98.403585 90.775687 
L 98.170266 90.033494 
L 97.919355 89.291301 
L 97.650982 88.549109 
L 97.365912 87.806916 
L 97.065748 87.064723 
L 96.753113 86.32253 
L 96.431759 85.580337 
L 96.106609 84.838144 
L 95.783685 84.095951 
L 95.469949 83.353758 
L 95.173018 82.611565 
L 94.900802 81.869372 
L 94.661062 81.127179 
L 94.460922 80.384986 
L 94.306383 79.642793 
L 94.201869 78.900601 
L 94.149847 78.158408 
L 94.150575 77.416215 
L 94.201989 76.674022 
L 94.29977 75.931829 
L 94.437578 75.189636 
L 94.607445 74.447443 
L 94.800307 73.70525 
L 95.006615 72.963057 
L 95.216981 72.220864 
L 95.422805 71.478671 
L 95.616817 70.736478 
L 95.793501 69.994285 
L 95.949357 69.252093 
L 96.082989 68.5099 
L 96.195021 67.767707 
L 96.28785 67.025514 
L 96.365275 66.283321 
L 96.432037 65.541128 
L 96.493329 64.798935 
L 96.554308 64.056742 
L 96.619673 63.314549 
L 96.693329 62.572356 
L 96.778178 61.830163 
L 96.876018 61.08797 
L 96.987573 60.345777 
L 97.112612 59.603585 
L 97.25013 58.861392 
L 97.398565 58.119199 
L 97.556012 57.377006 
L 97.720403 56.634813 
L 97.889642 55.89262 
L 98.061689 55.150427 
L 98.234593 54.408234 
L 98.406479 53.666041 
L 98.575531 52.923848 
L 98.739961 52.181655 
L 98.897992 51.439462 
L 99.047875 50.697269 
L 99.187926 49.955077 
L 99.316593 49.212884 
L 99.432546 48.470691 
L 99.534767 47.728498 
L 99.622642 46.986305 
L 99.696034 46.244112 
L 99.755317 45.501919 
L 99.801384 44.759726 
L 99.835609 44.017533 
L 99.859767 43.27534 
L 99.875925 42.533147 
L 99.8863 41.790954 
L 99.893115 41.048762 
L 99.898448 40.306569 
L 99.904101 39.564376 
L 99.911496 38.822183 
L 99.921611 38.07999 
L 99.934959 37.337797 
L 99.951604 36.595604 
L 99.971228 35.853411 
L 99.99321 35.111218 
L 100.016737 34.369025 
L 100.040907 33.626832 
L 100.064833 32.884639 
L 100.087721 32.142446 
L 100.108929 31.400254 
L 100.127998 30.658061 
L 100.144661 29.915868 
L 100.158829 29.173675 
L 100.170561 28.431482 
L 100.244439 28.431482 
L 100.244439 28.431482 
L 100.256171 29.173675 
L 100.270339 29.915868 
L 100.287002 30.658061 
L 100.306071 31.400254 
L 100.327279 32.142446 
L 100.350167 32.884639 
L 100.374093 33.626832 
L 100.398263 34.369025 
L 100.42179 35.111218 
L 100.443772 35.853411 
L 100.463396 36.595604 
L 100.480041 37.337797 
L 100.493389 38.07999 
L 100.503504 38.822183 
L 100.510899 39.564376 
L 100.516552 40.306569 
L 100.521885 41.048762 
L 100.5287 41.790954 
L 100.539075 42.533147 
L 100.555233 43.27534 
L 100.579391 44.017533 
L 100.613616 44.759726 
L 100.659683 45.501919 
L 100.718966 46.244112 
L 100.792358 46.986305 
L 100.880233 47.728498 
L 100.982454 48.470691 
L 101.098407 49.212884 
L 101.227074 49.955077 
L 101.367125 50.697269 
L 101.517008 51.439462 
L 101.675039 52.181655 
L 101.839469 52.923848 
L 102.008521 53.666041 
L 102.180407 54.408234 
L 102.353311 55.150427 
L 102.525358 55.89262 
L 102.694597 56.634813 
L 102.858988 57.377006 
L 103.016435 58.119199 
L 103.16487 58.861392 
L 103.302388 59.603585 
L 103.427427 60.345777 
L 103.538982 61.08797 
L 103.636822 61.830163 
L 103.721671 62.572356 
L 103.795327 63.314549 
L 103.860692 64.056742 
L 103.921671 64.798935 
L 103.982963 65.541128 
L 104.049725 66.283321 
L 104.12715 67.025514 
L 104.219979 67.767707 
L 104.332011 68.5099 
L 104.465643 69.252093 
L 104.621499 69.994285 
L 104.798183 70.736478 
L 104.992195 71.478671 
L 105.198019 72.220864 
L 105.408385 72.963057 
L 105.614693 73.70525 
L 105.807555 74.447443 
L 105.977422 75.189636 
L 106.11523 75.931829 
L 106.213011 76.674022 
L 106.264425 77.416215 
L 106.265153 78.158408 
L 106.213131 78.900601 
L 106.108617 79.642793 
L 105.954078 80.384986 
L 105.753938 81.127179 
L 105.514198 81.869372 
L 105.241982 82.611565 
L 104.945051 83.353758 
L 104.631315 84.095951 
L 104.308391 84.838144 
L 103.983241 85.580337 
L 103.661887 86.32253 
L 103.349252 87.064723 
L 103.049088 87.806916 
L 102.764018 88.549109 
L 102.495645 89.291301 
L 102.244734 90.033494 
L 102.011415 90.775687 
L 101.795396 91.51788 
L 101.596157 92.260073 
L 101.413104 93.002266 
L 101.245669 93.744459 
L 101.093366 94.486652 
L 100.955788 95.228845 
L 100.832576 95.971038 
L 100.723361 96.713231 
L 100.627708 97.455424 
L 100.545057 98.197617 
L 100.474702 98.939809 
L 100.41577 99.682002 
L 100.367247 100.424195 
L 100.328007 101.166388 
L 100.296861 101.908581 
L 100.296861 101.908581 
z
" clip-path="url(#p071dee529e)" style="fill: none; stroke: #fa8072; stroke-opacity: 0.8; stroke-width: 2"/>
   </g>
   <g id="PolyCollection_4">
    <path d="M 125.218061 100.569892 
L 125.082939 100.569892 
L 125.059236 99.792116 
L 125.028798 99.01434 
L 124.990269 98.236563 
L 124.942185 97.458787 
L 124.883026 96.681011 
L 124.811271 95.903235 
L 124.725475 95.125458 
L 124.624358 94.347682 
L 124.506903 93.569906 
L 124.372464 92.79213 
L 124.220867 92.014354 
L 124.052507 91.236577 
L 123.868418 90.458801 
L 123.670324 89.681025 
L 123.460644 88.903249 
L 123.242451 88.125472 
L 123.019386 87.347696 
L 122.795519 86.56992 
L 122.575164 85.792144 
L 122.362659 85.014367 
L 122.162126 84.236591 
L 121.977231 83.458815 
L 121.81096 82.681039 
L 121.665437 81.903262 
L 121.541806 81.125486 
L 121.440182 80.34771 
L 121.359676 79.569934 
L 121.298514 78.792158 
L 121.254202 78.014381 
L 121.223757 77.236605 
L 121.203962 76.458829 
L 121.191613 75.681053 
L 121.183758 74.903276 
L 121.177881 74.1255 
L 121.172037 73.347724 
L 121.164916 72.569948 
L 121.155853 71.792171 
L 121.144777 71.014395 
L 121.13212 70.236619 
L 121.118698 69.458843 
L 121.10559 68.681067 
L 121.094012 67.90329 
L 121.085208 67.125514 
L 121.080364 66.347738 
L 121.080546 65.569962 
L 121.086656 64.792185 
L 121.099413 64.014409 
L 121.119348 63.236633 
L 121.146807 62.458857 
L 121.181969 61.68108 
L 121.224856 60.903304 
L 121.275357 60.125528 
L 121.333243 59.347752 
L 121.398188 58.569975 
L 121.469794 57.792199 
L 121.547607 57.014423 
L 121.631151 56.236647 
L 121.719948 55.458871 
L 121.81355 54.681094 
L 121.911565 53.903318 
L 122.013674 53.125542 
L 122.119652 52.347766 
L 122.229362 51.569989 
L 122.342741 50.792213 
L 122.459775 50.014437 
L 122.580451 49.236661 
L 122.704704 48.458884 
L 122.83236 47.681108 
L 122.963079 46.903332 
L 123.096317 46.125556 
L 123.231306 45.347779 
L 123.367052 44.570003 
L 123.502374 43.792227 
L 123.635959 43.014451 
L 123.766436 42.236675 
L 123.892471 41.458898 
L 124.012848 40.681122 
L 124.126552 39.903346 
L 124.232825 39.12557 
L 124.331199 38.347793 
L 124.421497 37.570017 
L 124.503817 36.792241 
L 124.578477 36.014465 
L 124.645962 35.236688 
L 124.706856 34.458912 
L 124.761777 33.681136 
L 124.811327 32.90336 
L 124.856046 32.125584 
L 124.896399 31.347807 
L 124.932759 30.570031 
L 124.965421 29.792255 
L 124.994613 29.014479 
L 125.020522 28.236702 
L 125.043312 27.458926 
L 125.063145 26.68115 
L 125.080197 25.903374 
L 125.09466 25.125597 
L 125.106752 24.347821 
L 125.116707 23.570045 
L 125.184293 23.570045 
L 125.184293 23.570045 
L 125.194248 24.347821 
L 125.20634 25.125597 
L 125.220803 25.903374 
L 125.237855 26.68115 
L 125.257688 27.458926 
L 125.280478 28.236702 
L 125.306387 29.014479 
L 125.335579 29.792255 
L 125.368241 30.570031 
L 125.404601 31.347807 
L 125.444954 32.125584 
L 125.489673 32.90336 
L 125.539223 33.681136 
L 125.594144 34.458912 
L 125.655038 35.236688 
L 125.722523 36.014465 
L 125.797183 36.792241 
L 125.879503 37.570017 
L 125.969801 38.347793 
L 126.068175 39.12557 
L 126.174448 39.903346 
L 126.288152 40.681122 
L 126.408529 41.458898 
L 126.534564 42.236675 
L 126.665041 43.014451 
L 126.798626 43.792227 
L 126.933948 44.570003 
L 127.069694 45.347779 
L 127.204683 46.125556 
L 127.337921 46.903332 
L 127.46864 47.681108 
L 127.596296 48.458884 
L 127.720549 49.236661 
L 127.841225 50.014437 
L 127.958259 50.792213 
L 128.071638 51.569989 
L 128.181348 52.347766 
L 128.287326 53.125542 
L 128.389435 53.903318 
L 128.48745 54.681094 
L 128.581052 55.458871 
L 128.669849 56.236647 
L 128.753393 57.014423 
L 128.831206 57.792199 
L 128.902812 58.569975 
L 128.967757 59.347752 
L 129.025643 60.125528 
L 129.076144 60.903304 
L 129.119031 61.68108 
L 129.154193 62.458857 
L 129.181652 63.236633 
L 129.201587 64.014409 
L 129.214344 64.792185 
L 129.220454 65.569962 
L 129.220636 66.347738 
L 129.215792 67.125514 
L 129.206988 67.90329 
L 129.19541 68.681067 
L 129.182302 69.458843 
L 129.16888 70.236619 
L 129.156223 71.014395 
L 129.145147 71.792171 
L 129.136084 72.569948 
L 129.128963 73.347724 
L 129.123119 74.1255 
L 129.117242 74.903276 
L 129.109387 75.681053 
L 129.097038 76.458829 
L 129.077243 77.236605 
L 129.046798 78.014381 
L 129.002486 78.792158 
L 128.941324 79.569934 
L 128.860818 80.34771 
L 128.759194 81.125486 
L 128.635563 81.903262 
L 128.49004 82.681039 
L 128.323769 83.458815 
L 128.138874 84.236591 
L 127.938341 85.014367 
L 127.725836 85.792144 
L 127.505481 86.56992 
L 127.281614 87.347696 
L 127.058549 88.125472 
L 126.840356 88.903249 
L 126.630676 89.681025 
L 126.432582 90.458801 
L 126.248493 91.236577 
L 126.080133 92.014354 
L 125.928536 92.79213 
L 125.794097 93.569906 
L 125.676642 94.347682 
L 125.575525 95.125458 
L 125.489729 95.903235 
L 125.417974 96.681011 
L 125.358815 97.458787 
L 125.310731 98.236563 
L 125.272202 99.01434 
L 125.241764 99.792116 
L 125.218061 100.569892 
L 125.218061 100.569892 
z
" clip-path="url(#p071dee529e)" style="fill: none; stroke: #fa8072; stroke-opacity: 0.8; stroke-width: 2"/>
   </g>
   <g id="PolyCollection_5">
    <path d="M 150.125863 105.092727 
L 150.061137 105.092727 
L 150.051493 104.254894 
L 150.039638 103.417062 
L 150.025251 102.579229 
L 150.008004 101.741396 
L 149.987565 100.903563 
L 149.963601 100.06573 
L 149.93578 99.227897 
L 149.903769 98.390064 
L 149.86723 97.552231 
L 149.825812 96.714399 
L 149.779146 95.876566 
L 149.726835 95.038733 
L 149.668448 94.2009 
L 149.603522 93.363067 
L 149.53156 92.525234 
L 149.452045 91.687401 
L 149.364456 90.849568 
L 149.268299 90.011736 
L 149.163137 89.173903 
L 149.048638 88.33607 
L 148.924619 87.498237 
L 148.791102 86.660404 
L 148.64836 85.822571 
L 148.496973 84.984738 
L 148.337862 84.146905 
L 148.172321 83.309073 
L 148.002028 82.47124 
L 147.829037 81.633407 
L 147.65574 80.795574 
L 147.484812 79.957741 
L 147.319119 79.119908 
L 147.161607 78.282075 
L 147.015173 77.444242 
L 146.882523 76.60641 
L 146.766027 75.768577 
L 146.667587 74.930744 
L 146.588531 74.092911 
L 146.529533 73.255078 
L 146.490578 72.417245 
L 146.470966 71.579412 
L 146.469366 70.741579 
L 146.483899 69.903747 
L 146.512251 69.065914 
L 146.551808 68.228081 
L 146.599781 67.390248 
L 146.653334 66.552415 
L 146.70969 65.714582 
L 146.76621 64.876749 
L 146.820458 64.038916 
L 146.870236 63.201084 
L 146.913614 62.363251 
L 146.948952 61.525418 
L 146.974926 60.687585 
L 146.990555 59.849752 
L 146.995249 59.011919 
L 146.988849 58.174086 
L 146.971682 57.336253 
L 146.944592 56.498421 
L 146.908962 55.660588 
L 146.866699 54.822755 
L 146.820183 53.984922 
L 146.772185 53.147089 
L 146.725737 52.309256 
L 146.683986 51.471423 
L 146.65003 50.63359 
L 146.626754 49.795758 
L 146.616682 48.957925 
L 146.621863 48.120092 
L 146.643789 47.282259 
L 146.683362 46.444426 
L 146.740896 45.606593 
L 146.816161 44.76876 
L 146.908446 43.930927 
L 147.016644 43.093095 
L 147.139335 42.255262 
L 147.274868 41.417429 
L 147.421424 40.579596 
L 147.577074 39.741763 
L 147.739817 38.90393 
L 147.907612 38.066097 
L 148.078395 37.228264 
L 148.250111 36.390432 
L 148.420733 35.552599 
L 148.588296 34.714766 
L 148.750941 33.876933 
L 148.906951 33.0391 
L 149.054804 32.201267 
L 149.19321 31.363434 
L 149.321152 30.525601 
L 149.43791 29.687769 
L 149.543074 28.849936 
L 149.636537 28.012103 
L 149.71848 27.17427 
L 149.789339 26.336437 
L 149.849763 25.498604 
L 149.900568 24.660771 
L 149.942678 23.822938 
L 149.977084 22.985106 
L 150.00479 22.147273 
L 150.18221 22.147273 
L 150.18221 22.147273 
L 150.209916 22.985106 
L 150.244322 23.822938 
L 150.286432 24.660771 
L 150.337237 25.498604 
L 150.397661 26.336437 
L 150.46852 27.17427 
L 150.550463 28.012103 
L 150.643926 28.849936 
L 150.74909 29.687769 
L 150.865848 30.525601 
L 150.99379 31.363434 
L 151.132196 32.201267 
L 151.280049 33.0391 
L 151.436059 33.876933 
L 151.598704 34.714766 
L 151.766267 35.552599 
L 151.936889 36.390432 
L 152.108605 37.228264 
L 152.279388 38.066097 
L 152.447183 38.90393 
L 152.609926 39.741763 
L 152.765576 40.579596 
L 152.912132 41.417429 
L 153.047665 42.255262 
L 153.170356 43.093095 
L 153.278554 43.930927 
L 153.370839 44.76876 
L 153.446104 45.606593 
L 153.503638 46.444426 
L 153.543211 47.282259 
L 153.565137 48.120092 
L 153.570318 48.957925 
L 153.560246 49.795758 
L 153.53697 50.63359 
L 153.503014 51.471423 
L 153.461263 52.309256 
L 153.414815 53.147089 
L 153.366817 53.984922 
L 153.320301 54.822755 
L 153.278038 55.660588 
L 153.242408 56.498421 
L 153.215318 57.336253 
L 153.198151 58.174086 
L 153.191751 59.011919 
L 153.196445 59.849752 
L 153.212074 60.687585 
L 153.238048 61.525418 
L 153.273386 62.363251 
L 153.316764 63.201084 
L 153.366542 64.038916 
L 153.42079 64.876749 
L 153.47731 65.714582 
L 153.533666 66.552415 
L 153.587219 67.390248 
L 153.635192 68.228081 
L 153.674749 69.065914 
L 153.703101 69.903747 
L 153.717634 70.741579 
L 153.716034 71.579412 
L 153.696422 72.417245 
L 153.657467 73.255078 
L 153.598469 74.092911 
L 153.519413 74.930744 
L 153.420973 75.768577 
L 153.304477 76.60641 
L 153.171827 77.444242 
L 153.025393 78.282075 
L 152.867881 79.119908 
L 152.702188 79.957741 
L 152.53126 80.795574 
L 152.357963 81.633407 
L 152.184972 82.47124 
L 152.014679 83.309073 
L 151.849138 84.146905 
L 151.690027 84.984738 
L 151.53864 85.822571 
L 151.395898 86.660404 
L 151.262381 87.498237 
L 151.138362 88.33607 
L 151.023863 89.173903 
L 150.918701 90.011736 
L 150.822544 90.849568 
L 150.734955 91.687401 
L 150.65544 92.525234 
L 150.583478 93.363067 
L 150.518552 94.2009 
L 150.460165 95.038733 
L 150.407854 95.876566 
L 150.361188 96.714399 
L 150.31977 97.552231 
L 150.283231 98.390064 
L 150.25122 99.227897 
L 150.223399 100.06573 
L 150.199435 100.903563 
L 150.178996 101.741396 
L 150.161749 102.579229 
L 150.147362 103.417062 
L 150.135507 104.254894 
L 150.125863 105.092727 
L 150.125863 105.092727 
z
" clip-path="url(#p071dee529e)" style="fill: none; stroke: #fa8072; stroke-opacity: 0.8; stroke-width: 2"/>
   </g>
   <g id="PolyCollection_6">
    <path d="M 175.115355 89.504769 
L 174.957645 89.504769 
L 174.932317 88.887903 
L 174.900444 88.271037 
L 174.860853 87.654171 
L 174.812311 87.037305 
L 174.753562 86.420439 
L 174.683374 85.803574 
L 174.600593 85.186708 
L 174.504212 84.569842 
L 174.393427 83.952976 
L 174.267703 83.33611 
L 174.126832 82.719244 
L 173.970977 82.102378 
L 173.800699 81.485512 
L 173.616971 80.868646 
L 173.421167 80.25178 
L 173.215022 79.634914 
L 173.000581 79.018048 
L 172.780123 78.401182 
L 172.556069 77.784316 
L 172.330884 77.167451 
L 172.106978 76.550585 
L 171.886613 75.933719 
L 171.671819 75.316853 
L 171.464335 74.699987 
L 171.265567 74.083121 
L 171.076583 73.466255 
L 170.898118 72.849389 
L 170.73062 72.232523 
L 170.57431 71.615657 
L 170.42925 70.998791 
L 170.295428 70.381925 
L 170.172838 69.765059 
L 170.061548 69.148193 
L 169.961753 68.531327 
L 169.873811 67.914462 
L 169.798244 67.297596 
L 169.735723 66.68073 
L 169.68702 66.063864 
L 169.652951 65.446998 
L 169.634296 64.830132 
L 169.631725 64.213266 
L 169.645721 63.5964 
L 169.676521 62.979534 
L 169.724068 62.362668 
L 169.787992 61.745802 
L 169.867606 61.128936 
L 169.961923 60.51207 
L 170.069689 59.895204 
L 170.189418 59.278339 
L 170.319436 58.661473 
L 170.457913 58.044607 
L 170.602896 57.427741 
L 170.752322 56.810875 
L 170.90404 56.194009 
L 171.055815 55.577143 
L 171.205353 54.960277 
L 171.350325 54.343411 
L 171.488414 53.726545 
L 171.617387 53.109679 
L 171.735179 52.492813 
L 171.840002 51.875947 
L 171.930463 51.259081 
L 172.005679 50.642215 
L 172.065384 50.02535 
L 172.110005 49.408484 
L 172.140705 48.791618 
L 172.159379 48.174752 
L 172.168599 47.557886 
L 172.171511 46.94102 
L 172.171681 46.324154 
L 172.172911 45.707288 
L 172.179033 45.090422 
L 172.19369 44.473556 
L 172.220129 43.85669 
L 172.261024 43.239824 
L 172.318326 42.622958 
L 172.39317 42.006092 
L 172.485827 41.389227 
L 172.595715 40.772361 
L 172.721458 40.155495 
L 172.86099 39.538629 
L 173.011694 38.921763 
L 173.170565 38.304897 
L 173.334377 37.688031 
L 173.499862 37.071165 
L 173.663863 36.454299 
L 173.823474 35.837433 
L 173.976153 35.220567 
L 174.119797 34.603701 
L 174.25279 33.986835 
L 174.374017 33.369969 
L 174.48285 32.753104 
L 174.579109 32.136238 
L 174.663005 31.519372 
L 174.735075 30.902506 
L 174.796104 30.28564 
L 174.847055 29.668774 
L 174.888995 29.051908 
L 174.923038 28.435042 
L 175.149962 28.435042 
L 175.149962 28.435042 
L 175.184005 29.051908 
L 175.225945 29.668774 
L 175.276896 30.28564 
L 175.337925 30.902506 
L 175.409995 31.519372 
L 175.493891 32.136238 
L 175.59015 32.753104 
L 175.698983 33.369969 
L 175.82021 33.986835 
L 175.953203 34.603701 
L 176.096847 35.220567 
L 176.249526 35.837433 
L 176.409137 36.454299 
L 176.573138 37.071165 
L 176.738623 37.688031 
L 176.902435 38.304897 
L 177.061306 38.921763 
L 177.21201 39.538629 
L 177.351542 40.155495 
L 177.477285 40.772361 
L 177.587173 41.389227 
L 177.67983 42.006092 
L 177.754674 42.622958 
L 177.811976 43.239824 
L 177.852871 43.85669 
L 177.87931 44.473556 
L 177.893967 45.090422 
L 177.900089 45.707288 
L 177.901319 46.324154 
L 177.901489 46.94102 
L 177.904401 47.557886 
L 177.913621 48.174752 
L 177.932295 48.791618 
L 177.962995 49.408484 
L 178.007616 50.02535 
L 178.067321 50.642215 
L 178.142537 51.259081 
L 178.232998 51.875947 
L 178.337821 52.492813 
L 178.455613 53.109679 
L 178.584586 53.726545 
L 178.722675 54.343411 
L 178.867647 54.960277 
L 179.017185 55.577143 
L 179.16896 56.194009 
L 179.320678 56.810875 
L 179.470104 57.427741 
L 179.615087 58.044607 
L 179.753564 58.661473 
L 179.883582 59.278339 
L 180.003311 59.895204 
L 180.111077 60.51207 
L 180.205394 61.128936 
L 180.285008 61.745802 
L 180.348932 62.362668 
L 180.396479 62.979534 
L 180.427279 63.5964 
L 180.441275 64.213266 
L 180.438704 64.830132 
L 180.420049 65.446998 
L 180.38598 66.063864 
L 180.337277 66.68073 
L 180.274756 67.297596 
L 180.199189 67.914462 
L 180.111247 68.531327 
L 180.011452 69.148193 
L 179.900162 69.765059 
L 179.777572 70.381925 
L 179.64375 70.998791 
L 179.49869 71.615657 
L 179.34238 72.232523 
L 179.174882 72.849389 
L 178.996417 73.466255 
L 178.807433 74.083121 
L 178.608665 74.699987 
L 178.401181 75.316853 
L 178.186387 75.933719 
L 177.966022 76.550585 
L 177.742116 77.167451 
L 177.516931 77.784316 
L 177.292877 78.401182 
L 177.072419 79.018048 
L 176.857978 79.634914 
L 176.651833 80.25178 
L 176.456029 80.868646 
L 176.272301 81.485512 
L 176.102023 82.102378 
L 175.946168 82.719244 
L 175.805297 83.33611 
L 175.679573 83.952976 
L 175.568788 84.569842 
L 175.472407 85.186708 
L 175.389626 85.803574 
L 175.319438 86.420439 
L 175.260689 87.037305 
L 175.212147 87.654171 
L 175.172556 88.271037 
L 175.140683 88.887903 
L 175.115355 89.504769 
L 175.115355 89.504769 
z
" clip-path="url(#p071dee529e)" style="fill: none; stroke: #fa8072; stroke-opacity: 0.8; stroke-width: 2"/>
   </g>
   <g id="PolyCollection_7">
    <path d="M 200.03245 93.73762 
L 199.92655 93.73762 
L 199.910408 93.035241 
L 199.89054 92.332863 
L 199.866469 91.630485 
L 199.837766 90.928107 
L 199.804087 90.225729 
L 199.765212 89.523351 
L 199.721074 88.820973 
L 199.671798 88.118595 
L 199.617718 87.416217 
L 199.55939 86.713839 
L 199.497582 86.011461 
L 199.433249 85.309083 
L 199.367489 84.606705 
L 199.301476 83.904327 
L 199.236379 83.201949 
L 199.173272 82.499571 
L 199.113034 81.797193 
L 199.056259 81.094814 
L 199.003174 80.392436 
L 198.953582 79.690058 
L 198.906837 78.98768 
L 198.861843 78.285302 
L 198.817105 77.582924 
L 198.77081 76.880546 
L 198.720936 76.178168 
L 198.665398 75.47579 
L 198.6022 74.773412 
L 198.52959 74.071034 
L 198.44621 73.368656 
L 198.35122 72.666278 
L 198.244384 71.9639 
L 198.126125 71.261522 
L 197.997523 70.559144 
L 197.860269 69.856765 
L 197.716583 69.154387 
L 197.569082 68.452009 
L 197.420632 67.749631 
L 197.274173 67.047253 
L 197.132549 66.344875 
L 196.99834 65.642497 
L 196.873713 64.940119 
L 196.760301 64.237741 
L 196.659124 63.535363 
L 196.570539 62.832985 
L 196.494242 62.130607 
L 196.429314 61.428229 
L 196.374293 60.725851 
L 196.327299 60.023473 
L 196.286163 59.321095 
L 196.248587 58.618717 
L 196.212296 57.916338 
L 196.175189 57.21396 
L 196.135463 56.511582 
L 196.091709 55.809204 
L 196.042974 55.106826 
L 195.988782 54.404448 
L 195.929118 53.70207 
L 195.864376 52.999692 
L 195.795292 52.297314 
L 195.72286 51.594936 
L 195.648252 50.892558 
L 195.57275 50.19018 
L 195.497708 49.487802 
L 195.424534 48.785424 
L 195.354706 48.083046 
L 195.28981 47.380668 
L 195.231587 46.67829 
L 195.181983 45.975911 
L 195.143183 45.273533 
L 195.117609 44.571155 
L 195.107884 43.868777 
L 195.116742 43.166399 
L 195.146901 42.464021 
L 195.200885 41.761643 
L 195.280836 41.059265 
L 195.388313 40.356887 
L 195.524109 39.654509 
L 195.688105 38.952131 
L 195.87918 38.249753 
L 196.095186 37.547375 
L 196.333001 36.844997 
L 196.588644 36.142619 
L 196.857464 35.440241 
L 197.134364 34.737862 
L 197.414057 34.035484 
L 197.691329 33.333106 
L 197.961286 32.630728 
L 198.219565 31.92835 
L 198.462501 31.225972 
L 198.687236 30.523594 
L 198.891773 29.821216 
L 199.074966 29.118838 
L 199.236474 28.41646 
L 199.376661 27.714082 
L 199.49648 27.011704 
L 199.597339 26.309326 
L 199.680961 25.606948 
L 199.749258 24.90457 
L 199.804209 24.202192 
L 200.154791 24.202192 
L 200.154791 24.202192 
L 200.209742 24.90457 
L 200.278039 25.606948 
L 200.361661 26.309326 
L 200.46252 27.011704 
L 200.582339 27.714082 
L 200.722526 28.41646 
L 200.884034 29.118838 
L 201.067227 29.821216 
L 201.271764 30.523594 
L 201.496499 31.225972 
L 201.739435 31.92835 
L 201.997714 32.630728 
L 202.267671 33.333106 
L 202.544943 34.035484 
L 202.824636 34.737862 
L 203.101536 35.440241 
L 203.370356 36.142619 
L 203.625999 36.844997 
L 203.863814 37.547375 
L 204.07982 38.249753 
L 204.270895 38.952131 
L 204.434891 39.654509 
L 204.570687 40.356887 
L 204.678164 41.059265 
L 204.758115 41.761643 
L 204.812099 42.464021 
L 204.842258 43.166399 
L 204.851116 43.868777 
L 204.841391 44.571155 
L 204.815817 45.273533 
L 204.777017 45.975911 
L 204.727413 46.67829 
L 204.66919 47.380668 
L 204.604294 48.083046 
L 204.534466 48.785424 
L 204.461292 49.487802 
L 204.38625 50.19018 
L 204.310748 50.892558 
L 204.23614 51.594936 
L 204.163708 52.297314 
L 204.094624 52.999692 
L 204.029882 53.70207 
L 203.970218 54.404448 
L 203.916026 55.106826 
L 203.867291 55.809204 
L 203.823537 56.511582 
L 203.783811 57.21396 
L 203.746704 57.916338 
L 203.710413 58.618717 
L 203.672837 59.321095 
L 203.631701 60.023473 
L 203.584707 60.725851 
L 203.529686 61.428229 
L 203.464758 62.130607 
L 203.388461 62.832985 
L 203.299876 63.535363 
L 203.198699 64.237741 
L 203.085287 64.940119 
L 202.96066 65.642497 
L 202.826451 66.344875 
L 202.684827 67.047253 
L 202.538368 67.749631 
L 202.389918 68.452009 
L 202.242417 69.154387 
L 202.098731 69.856765 
L 201.961477 70.559144 
L 201.832875 71.261522 
L 201.714616 71.9639 
L 201.60778 72.666278 
L 201.51279 73.368656 
L 201.42941 74.071034 
L 201.3568 74.773412 
L 201.293602 75.47579 
L 201.238064 76.178168 
L 201.18819 76.880546 
L 201.141895 77.582924 
L 201.097157 78.285302 
L 201.052163 78.98768 
L 201.005418 79.690058 
L 200.955826 80.392436 
L 200.902741 81.094814 
L 200.845966 81.797193 
L 200.785728 82.499571 
L 200.722621 83.201949 
L 200.657524 83.904327 
L 200.591511 84.606705 
L 200.525751 85.309083 
L 200.461418 86.011461 
L 200.39961 86.713839 
L 200.341282 87.416217 
L 200.287202 88.118595 
L 200.237926 88.820973 
L 200.193788 89.523351 
L 200.154913 90.225729 
L 200.121234 90.928107 
L 200.092531 91.630485 
L 200.06846 92.332863 
L 200.048592 93.035241 
L 200.03245 93.73762 
L 200.03245 93.73762 
z
" clip-path="url(#p071dee529e)" style="fill: none; stroke: #fa8072; stroke-opacity: 0.8; stroke-width: 2"/>
   </g>
   <g id="PolyCollection_8">
    <path d="M 224.978167 89.499238 
L 224.866833 89.499238 
L 224.849288 88.85117 
L 224.827492 88.203102 
L 224.800824 87.555034 
L 224.768686 86.906966 
L 224.730534 86.258898 
L 224.685915 85.61083 
L 224.634499 84.962762 
L 224.576113 84.314694 
L 224.510758 83.666626 
L 224.438629 83.018558 
L 224.360112 82.37049 
L 224.275773 81.722422 
L 224.186335 81.074354 
L 224.092637 80.426287 
L 223.995595 79.778219 
L 223.896146 79.130151 
L 223.795202 78.482083 
L 223.693604 77.834015 
L 223.592092 77.185947 
L 223.491273 76.537879 
L 223.391619 75.889811 
L 223.293466 75.241743 
L 223.197031 74.593675 
L 223.102431 73.945607 
L 223.009712 73.297539 
L 222.918877 72.649471 
L 222.829903 72.001403 
L 222.742761 71.353335 
L 222.65742 70.705267 
L 222.573844 70.057199 
L 222.491975 69.409131 
L 222.411716 68.761063 
L 222.332892 68.112995 
L 222.255221 67.464927 
L 222.178273 66.816859 
L 222.101437 66.168791 
L 222.023895 65.520724 
L 221.944613 64.872656 
L 221.86235 64.224588 
L 221.775699 63.57652 
L 221.683155 62.928452 
L 221.583221 62.280384 
L 221.474538 61.632316 
L 221.356043 60.984248 
L 221.227128 60.33618 
L 221.087798 59.688112 
L 220.938797 59.040044 
L 220.781684 58.391976 
L 220.618852 57.743908 
L 220.453466 57.09584 
L 220.28932 56.447772 
L 220.130632 55.799704 
L 219.98177 55.151636 
L 219.846955 54.503568 
L 219.72995 53.8555 
L 219.633784 53.207432 
L 219.560526 52.559364 
L 219.511142 51.911296 
L 219.485449 51.263228 
L 219.482174 50.615161 
L 219.499116 49.967093 
L 219.533384 49.319025 
L 219.581708 48.670957 
L 219.640777 48.022889 
L 219.707577 47.374821 
L 219.779687 46.726753 
L 219.855522 46.078685 
L 219.934474 45.430617 
L 220.016953 44.782549 
L 220.104323 44.134481 
L 220.198725 43.486413 
L 220.302827 42.838345 
L 220.419513 42.190277 
L 220.551538 41.542209 
L 220.701205 40.894141 
L 220.870073 40.246073 
L 221.05874 39.598005 
L 221.266717 38.949937 
L 221.492398 38.301869 
L 221.733128 37.653801 
L 221.985365 37.005733 
L 222.244901 36.357665 
L 222.507136 35.709598 
L 222.767362 35.06153 
L 223.02104 34.413462 
L 223.264043 33.765394 
L 223.492853 33.117326 
L 223.704691 32.469258 
L 223.897591 31.82119 
L 224.070405 31.173122 
L 224.222762 30.525054 
L 224.354979 29.876986 
L 224.467943 29.228918 
L 224.562984 28.58085 
L 224.641738 27.932782 
L 224.706021 27.284714 
L 224.757713 26.636646 
L 224.798669 25.988578 
L 224.830644 25.34051 
L 225.014356 25.34051 
L 225.014356 25.34051 
L 225.046331 25.988578 
L 225.087287 26.636646 
L 225.138979 27.284714 
L 225.203262 27.932782 
L 225.282016 28.58085 
L 225.377057 29.228918 
L 225.490021 29.876986 
L 225.622238 30.525054 
L 225.774595 31.173122 
L 225.947409 31.82119 
L 226.140309 32.469258 
L 226.352147 33.117326 
L 226.580957 33.765394 
L 226.82396 34.413462 
L 227.077638 35.06153 
L 227.337864 35.709598 
L 227.600099 36.357665 
L 227.859635 37.005733 
L 228.111872 37.653801 
L 228.352602 38.301869 
L 228.578283 38.949937 
L 228.78626 39.598005 
L 228.974927 40.246073 
L 229.143795 40.894141 
L 229.293462 41.542209 
L 229.425487 42.190277 
L 229.542173 42.838345 
L 229.646275 43.486413 
L 229.740677 44.134481 
L 229.828047 44.782549 
L 229.910526 45.430617 
L 229.989478 46.078685 
L 230.065313 46.726753 
L 230.137423 47.374821 
L 230.204223 48.022889 
L 230.263292 48.670957 
L 230.311616 49.319025 
L 230.345884 49.967093 
L 230.362826 50.615161 
L 230.359551 51.263228 
L 230.333858 51.911296 
L 230.284474 52.559364 
L 230.211216 53.207432 
L 230.11505 53.8555 
L 229.998045 54.503568 
L 229.86323 55.151636 
L 229.714368 55.799704 
L 229.55568 56.447772 
L 229.391534 57.09584 
L 229.226148 57.743908 
L 229.063316 58.391976 
L 228.906203 59.040044 
L 228.757202 59.688112 
L 228.617872 60.33618 
L 228.488957 60.984248 
L 228.370462 61.632316 
L 228.261779 62.280384 
L 228.161845 62.928452 
L 228.069301 63.57652 
L 227.98265 64.224588 
L 227.900387 64.872656 
L 227.821105 65.520724 
L 227.743563 66.168791 
L 227.666727 66.816859 
L 227.589779 67.464927 
L 227.512108 68.112995 
L 227.433284 68.761063 
L 227.353025 69.409131 
L 227.271156 70.057199 
L 227.18758 70.705267 
L 227.102239 71.353335 
L 227.015097 72.001403 
L 226.926123 72.649471 
L 226.835288 73.297539 
L 226.742569 73.945607 
L 226.647969 74.593675 
L 226.551534 75.241743 
L 226.453381 75.889811 
L 226.353727 76.537879 
L 226.252908 77.185947 
L 226.151396 77.834015 
L 226.049798 78.482083 
L 225.948854 79.130151 
L 225.849405 79.778219 
L 225.752363 80.426287 
L 225.658665 81.074354 
L 225.569227 81.722422 
L 225.484888 82.37049 
L 225.406371 83.018558 
L 225.334242 83.666626 
L 225.268887 84.314694 
L 225.210501 84.962762 
L 225.159085 85.61083 
L 225.114466 86.258898 
L 225.076314 86.906966 
L 225.044176 87.555034 
L 225.017508 88.203102 
L 224.995712 88.85117 
L 224.978167 89.499238 
L 224.978167 89.499238 
z
" clip-path="url(#p071dee529e)" style="fill: none; stroke: #fa8072; stroke-opacity: 0.8; stroke-width: 2"/>
   </g>
   <g id="PolyCollection_9">
    <path d="M 249.944017 89.025419 
L 249.786983 89.025419 
L 249.763786 88.386923 
L 249.735709 87.748428 
L 249.702324 87.109932 
L 249.66332 86.471436 
L 249.618548 85.83294 
L 249.56804 85.194444 
L 249.512037 84.555948 
L 249.450991 83.917452 
L 249.385561 83.278957 
L 249.316583 82.640461 
L 249.245045 82.001965 
L 249.172033 81.363469 
L 249.098683 80.724973 
L 249.02613 80.086477 
L 248.955447 79.447981 
L 248.887602 78.809486 
L 248.823402 78.17099 
L 248.763448 77.532494 
L 248.708087 76.893998 
L 248.657366 76.255502 
L 248.610981 75.617006 
L 248.568232 74.97851 
L 248.52799 74.340014 
L 248.488674 73.701519 
L 248.448256 73.063023 
L 248.404297 72.424527 
L 248.354027 71.786031 
L 248.294457 71.147535 
L 248.222543 70.509039 
L 248.135371 69.870543 
L 248.030368 69.232048 
L 247.905507 68.593552 
L 247.759508 67.955056 
L 247.591986 67.31656 
L 247.403562 66.678064 
L 247.195896 66.039568 
L 246.971661 65.401072 
L 246.734428 64.762577 
L 246.488498 64.124081 
L 246.238673 63.485585 
L 245.989989 62.847089 
L 245.747438 62.208593 
L 245.51569 61.570097 
L 245.298849 60.931601 
L 245.100247 60.293105 
L 244.922314 59.65461 
L 244.766512 59.016114 
L 244.633344 58.377618 
L 244.522443 57.739122 
L 244.43271 57.100626 
L 244.362506 56.46213 
L 244.309867 55.823634 
L 244.27271 55.185139 
L 244.249044 54.546643 
L 244.237118 53.908147 
L 244.235547 53.269651 
L 244.243363 52.631155 
L 244.260024 51.992659 
L 244.285373 51.354163 
L 244.319553 50.715667 
L 244.362911 50.077172 
L 244.415881 49.438676 
L 244.478885 48.80018 
L 244.552248 48.161684 
L 244.636137 47.523188 
L 244.73054 46.884692 
L 244.835271 46.246196 
L 244.949997 45.607701 
L 245.074294 44.969205 
L 245.207708 44.330709 
L 245.349805 43.692213 
L 245.500222 43.053717 
L 245.658692 42.415221 
L 245.825034 41.776725 
L 245.999132 41.13823 
L 246.18087 40.499734 
L 246.370065 39.861238 
L 246.566374 39.222742 
L 246.76922 38.584246 
L 246.977715 37.94575 
L 247.190623 37.307254 
L 247.406348 36.668758 
L 247.622958 36.030263 
L 247.838248 35.391767 
L 248.049836 34.753271 
L 248.25528 34.114775 
L 248.452203 33.476279 
L 248.638423 32.837783 
L 248.812065 32.199287 
L 248.97165 31.560792 
L 249.116159 30.922296 
L 249.245054 30.2838 
L 249.358273 29.645304 
L 249.456192 29.006808 
L 249.539562 28.368312 
L 249.609433 27.729816 
L 249.667069 27.091321 
L 249.713859 26.452825 
L 249.751241 25.814329 
L 249.979759 25.814329 
L 249.979759 25.814329 
L 250.017141 26.452825 
L 250.063931 27.091321 
L 250.121567 27.729816 
L 250.191438 28.368312 
L 250.274808 29.006808 
L 250.372727 29.645304 
L 250.485946 30.2838 
L 250.614841 30.922296 
L 250.75935 31.560792 
L 250.918935 32.199287 
L 251.092577 32.837783 
L 251.278797 33.476279 
L 251.47572 34.114775 
L 251.681164 34.753271 
L 251.892752 35.391767 
L 252.108042 36.030263 
L 252.324652 36.668758 
L 252.540377 37.307254 
L 252.753285 37.94575 
L 252.96178 38.584246 
L 253.164626 39.222742 
L 253.360935 39.861238 
L 253.55013 40.499734 
L 253.731868 41.13823 
L 253.905966 41.776725 
L 254.072308 42.415221 
L 254.230778 43.053717 
L 254.381195 43.692213 
L 254.523292 44.330709 
L 254.656706 44.969205 
L 254.781003 45.607701 
L 254.895729 46.246196 
L 255.00046 46.884692 
L 255.094863 47.523188 
L 255.178752 48.161684 
L 255.252115 48.80018 
L 255.315119 49.438676 
L 255.368089 50.077172 
L 255.411447 50.715667 
L 255.445627 51.354163 
L 255.470976 51.992659 
L 255.487637 52.631155 
L 255.495453 53.269651 
L 255.493882 53.908147 
L 255.481956 54.546643 
L 255.45829 55.185139 
L 255.421133 55.823634 
L 255.368494 56.46213 
L 255.29829 57.100626 
L 255.208557 57.739122 
L 255.097656 58.377618 
L 254.964488 59.016114 
L 254.808686 59.65461 
L 254.630753 60.293105 
L 254.432151 60.931601 
L 254.21531 61.570097 
L 253.983562 62.208593 
L 253.741011 62.847089 
L 253.492327 63.485585 
L 253.242502 64.124081 
L 252.996572 64.762577 
L 252.759339 65.401072 
L 252.535104 66.039568 
L 252.327438 66.678064 
L 252.139014 67.31656 
L 251.971492 67.955056 
L 251.825493 68.593552 
L 251.700632 69.232048 
L 251.595629 69.870543 
L 251.508457 70.509039 
L 251.436543 71.147535 
L 251.376973 71.786031 
L 251.326703 72.424527 
L 251.282744 73.063023 
L 251.242326 73.701519 
L 251.20301 74.340014 
L 251.162768 74.97851 
L 251.120019 75.617006 
L 251.073634 76.255502 
L 251.022913 76.893998 
L 250.967552 77.532494 
L 250.907598 78.17099 
L 250.843398 78.809486 
L 250.775553 79.447981 
L 250.70487 80.086477 
L 250.632317 80.724973 
L 250.558967 81.363469 
L 250.485955 82.001965 
L 250.414417 82.640461 
L 250.345439 83.278957 
L 250.280009 83.917452 
L 250.218963 84.555948 
L 250.16296 85.194444 
L 250.112452 85.83294 
L 250.06768 86.471436 
L 250.028676 87.109932 
L 249.995291 87.748428 
L 249.967214 88.386923 
L 249.944017 89.025419 
L 249.944017 89.025419 
z
" clip-path="url(#p071dee529e)" style="fill: none; stroke: #fa8072; stroke-opacity: 0.8; stroke-width: 2"/>
   </g>
   <g id="PolyCollection_10">
    <path d="M 274.869627 79.26413 
L 274.747373 79.26413 
L 274.728415 78.697577 
L 274.704764 78.131024 
L 274.675619 77.564471 
L 274.640138 76.997918 
L 274.597452 76.431364 
L 274.546696 75.864811 
L 274.487033 75.298258 
L 274.417685 74.731705 
L 274.337966 74.165152 
L 274.247314 73.598599 
L 274.145324 73.032045 
L 274.031775 72.465492 
L 273.90666 71.898939 
L 273.770206 71.332386 
L 273.622888 70.765833 
L 273.465444 70.19928 
L 273.298873 69.632726 
L 273.124436 69.066173 
L 272.943638 68.49962 
L 272.75821 67.933067 
L 272.570084 67.366514 
L 272.381351 66.79996 
L 272.194225 66.233407 
L 272.010987 65.666854 
L 271.833938 65.100301 
L 271.665333 64.533748 
L 271.507322 63.967195 
L 271.361881 63.400641 
L 271.230751 62.834088 
L 271.115364 62.267535 
L 271.016784 61.700982 
L 270.935645 61.134429 
L 270.8721 60.567876 
L 270.825779 60.001322 
L 270.795764 59.434769 
L 270.780581 58.868216 
L 270.778219 58.301663 
L 270.786171 57.73511 
L 270.801498 57.168556 
L 270.820931 56.602003 
L 270.840985 56.03545 
L 270.8581 55.468897 
L 270.868787 54.902344 
L 270.869789 54.335791 
L 270.858224 53.769237 
L 270.831724 53.202684 
L 270.788552 52.636131 
L 270.727676 52.069578 
L 270.648831 51.503025 
L 270.552521 50.936472 
L 270.440005 50.369918 
L 270.313234 49.803365 
L 270.174769 49.236812 
L 270.027675 48.670259 
L 269.875397 48.103706 
L 269.721638 47.537152 
L 269.570231 46.970599 
L 269.425022 46.404046 
L 269.289769 45.837493 
L 269.168048 45.27094 
L 269.063184 44.704387 
L 268.978188 44.137833 
L 268.915712 43.57128 
L 268.878005 43.004727 
L 268.866881 42.438174 
L 268.883684 41.871621 
L 268.929259 41.305068 
L 269.003925 40.738514 
L 269.107459 40.171961 
L 269.23908 39.605408 
L 269.397461 39.038855 
L 269.580753 38.472302 
L 269.786631 37.905748 
L 270.012357 37.339195 
L 270.254873 36.772642 
L 270.510887 36.206089 
L 270.77699 35.639536 
L 271.049748 35.072983 
L 271.325805 34.506429 
L 271.601961 33.939876 
L 271.87524 33.373323 
L 272.142935 32.80677 
L 272.402635 32.240217 
L 272.652246 31.673664 
L 272.889987 31.10711 
L 273.114392 30.540557 
L 273.324304 29.974004 
L 273.518861 29.407451 
L 273.697496 28.840898 
L 273.859921 28.274344 
L 274.006124 27.707791 
L 274.136351 27.141238 
L 274.251087 26.574685 
L 274.351037 26.008132 
L 274.437091 25.441579 
L 274.510288 24.875025 
L 274.571776 24.308472 
L 274.622772 23.741919 
L 274.664515 23.175366 
L 274.952485 23.175366 
L 274.952485 23.175366 
L 274.994228 23.741919 
L 275.045224 24.308472 
L 275.106712 24.875025 
L 275.179909 25.441579 
L 275.265963 26.008132 
L 275.365913 26.574685 
L 275.480649 27.141238 
L 275.610876 27.707791 
L 275.757079 28.274344 
L 275.919504 28.840898 
L 276.098139 29.407451 
L 276.292696 29.974004 
L 276.502608 30.540557 
L 276.727013 31.10711 
L 276.964754 31.673664 
L 277.214365 32.240217 
L 277.474065 32.80677 
L 277.74176 33.373323 
L 278.015039 33.939876 
L 278.291195 34.506429 
L 278.567252 35.072983 
L 278.84001 35.639536 
L 279.106113 36.206089 
L 279.362127 36.772642 
L 279.604643 37.339195 
L 279.830369 37.905748 
L 280.036247 38.472302 
L 280.219539 39.038855 
L 280.37792 39.605408 
L 280.509541 40.171961 
L 280.613075 40.738514 
L 280.687741 41.305068 
L 280.733316 41.871621 
L 280.750119 42.438174 
L 280.738995 43.004727 
L 280.701288 43.57128 
L 280.638812 44.137833 
L 280.553816 44.704387 
L 280.448952 45.27094 
L 280.327231 45.837493 
L 280.191978 46.404046 
L 280.046769 46.970599 
L 279.895362 47.537152 
L 279.741603 48.103706 
L 279.589325 48.670259 
L 279.442231 49.236812 
L 279.303766 49.803365 
L 279.176995 50.369918 
L 279.064479 50.936472 
L 278.968169 51.503025 
L 278.889324 52.069578 
L 278.828448 52.636131 
L 278.785276 53.202684 
L 278.758776 53.769237 
L 278.747211 54.335791 
L 278.748213 54.902344 
L 278.7589 55.468897 
L 278.776015 56.03545 
L 278.796069 56.602003 
L 278.815502 57.168556 
L 278.830829 57.73511 
L 278.838781 58.301663 
L 278.836419 58.868216 
L 278.821236 59.434769 
L 278.791221 60.001322 
L 278.7449 60.567876 
L 278.681355 61.134429 
L 278.600216 61.700982 
L 278.501636 62.267535 
L 278.386249 62.834088 
L 278.255119 63.400641 
L 278.109678 63.967195 
L 277.951667 64.533748 
L 277.783062 65.100301 
L 277.606013 65.666854 
L 277.422775 66.233407 
L 277.235649 66.79996 
L 277.046916 67.366514 
L 276.85879 67.933067 
L 276.673362 68.49962 
L 276.492564 69.066173 
L 276.318127 69.632726 
L 276.151556 70.19928 
L 275.994112 70.765833 
L 275.846794 71.332386 
L 275.71034 71.898939 
L 275.585225 72.465492 
L 275.471676 73.032045 
L 275.369686 73.598599 
L 275.279034 74.165152 
L 275.199315 74.731705 
L 275.129967 75.298258 
L 275.070304 75.864811 
L 275.019548 76.431364 
L 274.976862 76.997918 
L 274.941381 77.564471 
L 274.912236 78.131024 
L 274.888585 78.697577 
L 274.869627 79.26413 
L 274.869627 79.26413 
z
" clip-path="url(#p071dee529e)" style="fill: none; stroke: #fa8072; stroke-opacity: 0.8; stroke-width: 2"/>
   </g>
   <g id="matplotlib.axis_1">
    <g id="xtick_1">
     <g id="line2d_1">
      <defs>
       <path id="m43a76148cc" d="M 0 0 
L 0 3.5 
" style="stroke: #000000; stroke-width: 0.8"/>
      </defs>
      <g>
       <use xlink:href="#m43a76148cc" x="50.3215" y="109.24" style="stroke: #000000; stroke-width: 0.8"/>
      </g>
     </g>
     <g id="text_1">
      <!-- 1 -->
      <g transform="translate(48.41275 120.799063) scale(0.06 -0.06)">
       <defs>
        <path id="DejaVuSans-31" d="M 794 531 
L 1825 531 
L 1825 4091 
L 703 3866 
L 703 4441 
L 1819 4666 
L 2450 4666 
L 2450 531 
L 3481 531 
L 3481 0 
L 794 0 
L 794 531 
z
" transform="scale(0.015625)"/>
       </defs>
       <use xlink:href="#DejaVuSans-31"/>
      </g>
     </g>
    </g>
    <g id="xtick_2">
     <g id="line2d_2">
      <g>
       <use xlink:href="#m43a76148cc" x="75.2645" y="109.24" style="stroke: #000000; stroke-width: 0.8"/>
      </g>
     </g>
     <g id="text_2">
      <!-- 2 -->
      <g transform="translate(73.35575 120.799063) scale(0.06 -0.06)">
       <defs>
        <path id="DejaVuSans-32" d="M 1228 531 
L 3431 531 
L 3431 0 
L 469 0 
L 469 531 
Q 828 903 1448 1529 
Q 2069 2156 2228 2338 
Q 2531 2678 2651 2914 
Q 2772 3150 2772 3378 
Q 2772 3750 2511 3984 
Q 2250 4219 1831 4219 
Q 1534 4219 1204 4116 
Q 875 4013 500 3803 
L 500 4441 
Q 881 4594 1212 4672 
Q 1544 4750 1819 4750 
Q 2544 4750 2975 4387 
Q 3406 4025 3406 3419 
Q 3406 3131 3298 2873 
Q 3191 2616 2906 2266 
Q 2828 2175 2409 1742 
Q 1991 1309 1228 531 
z
" transform="scale(0.015625)"/>
       </defs>
       <use xlink:href="#DejaVuSans-32"/>
      </g>
     </g>
    </g>
    <g id="xtick_3">
     <g id="line2d_3">
      <g>
       <use xlink:href="#m43a76148cc" x="100.2075" y="109.24" style="stroke: #000000; stroke-width: 0.8"/>
      </g>
     </g>
     <g id="text_3">
      <!-- 3 -->
      <g transform="translate(98.29875 120.799063) scale(0.06 -0.06)">
       <defs>
        <path id="DejaVuSans-33" d="M 2597 2516 
Q 3050 2419 3304 2112 
Q 3559 1806 3559 1356 
Q 3559 666 3084 287 
Q 2609 -91 1734 -91 
Q 1441 -91 1130 -33 
Q 819 25 488 141 
L 488 750 
Q 750 597 1062 519 
Q 1375 441 1716 441 
Q 2309 441 2620 675 
Q 2931 909 2931 1356 
Q 2931 1769 2642 2001 
Q 2353 2234 1838 2234 
L 1294 2234 
L 1294 2753 
L 1863 2753 
Q 2328 2753 2575 2939 
Q 2822 3125 2822 3475 
Q 2822 3834 2567 4026 
Q 2313 4219 1838 4219 
Q 1578 4219 1281 4162 
Q 984 4106 628 3988 
L 628 4550 
Q 988 4650 1302 4700 
Q 1616 4750 1894 4750 
Q 2613 4750 3031 4423 
Q 3450 4097 3450 3541 
Q 3450 3153 3228 2886 
Q 3006 2619 2597 2516 
z
" transform="scale(0.015625)"/>
       </defs>
       <use xlink:href="#DejaVuSans-33"/>
      </g>
     </g>
    </g>
    <g id="xtick_4">
     <g id="line2d_4">
      <g>
       <use xlink:href="#m43a76148cc" x="125.1505" y="109.24" style="stroke: #000000; stroke-width: 0.8"/>
      </g>
     </g>
     <g id="text_4">
      <!-- 4 -->
      <g transform="translate(123.24175 120.799063) scale(0.06 -0.06)">
       <defs>
        <path id="DejaVuSans-34" d="M 2419 4116 
L 825 1625 
L 2419 1625 
L 2419 4116 
z
M 2253 4666 
L 3047 4666 
L 3047 1625 
L 3713 1625 
L 3713 1100 
L 3047 1100 
L 3047 0 
L 2419 0 
L 2419 1100 
L 313 1100 
L 313 1709 
L 2253 4666 
z
" transform="scale(0.015625)"/>
       </defs>
       <use xlink:href="#DejaVuSans-34"/>
      </g>
     </g>
    </g>
    <g id="xtick_5">
     <g id="line2d_5">
      <g>
       <use xlink:href="#m43a76148cc" x="150.0935" y="109.24" style="stroke: #000000; stroke-width: 0.8"/>
      </g>
     </g>
     <g id="text_5">
      <!-- 5 -->
      <g transform="translate(148.18475 120.799063) scale(0.06 -0.06)">
       <defs>
        <path id="DejaVuSans-35" d="M 691 4666 
L 3169 4666 
L 3169 4134 
L 1269 4134 
L 1269 2991 
Q 1406 3038 1543 3061 
Q 1681 3084 1819 3084 
Q 2600 3084 3056 2656 
Q 3513 2228 3513 1497 
Q 3513 744 3044 326 
Q 2575 -91 1722 -91 
Q 1428 -91 1123 -41 
Q 819 9 494 109 
L 494 744 
Q 775 591 1075 516 
Q 1375 441 1709 441 
Q 2250 441 2565 725 
Q 2881 1009 2881 1497 
Q 2881 1984 2565 2268 
Q 2250 2553 1709 2553 
Q 1456 2553 1204 2497 
Q 953 2441 691 2322 
L 691 4666 
z
" transform="scale(0.015625)"/>
       </defs>
       <use xlink:href="#DejaVuSans-35"/>
      </g>
     </g>
    </g>
    <g id="xtick_6">
     <g id="line2d_6">
      <g>
       <use xlink:href="#m43a76148cc" x="175.0365" y="109.24" style="stroke: #000000; stroke-width: 0.8"/>
      </g>
     </g>
     <g id="text_6">
      <!-- 6 -->
      <g transform="translate(173.12775 120.799063) scale(0.06 -0.06)">
       <defs>
        <path id="DejaVuSans-36" d="M 2113 2584 
Q 1688 2584 1439 2293 
Q 1191 2003 1191 1497 
Q 1191 994 1439 701 
Q 1688 409 2113 409 
Q 2538 409 2786 701 
Q 3034 994 3034 1497 
Q 3034 2003 2786 2293 
Q 2538 2584 2113 2584 
z
M 3366 4563 
L 3366 3988 
Q 3128 4100 2886 4159 
Q 2644 4219 2406 4219 
Q 1781 4219 1451 3797 
Q 1122 3375 1075 2522 
Q 1259 2794 1537 2939 
Q 1816 3084 2150 3084 
Q 2853 3084 3261 2657 
Q 3669 2231 3669 1497 
Q 3669 778 3244 343 
Q 2819 -91 2113 -91 
Q 1303 -91 875 529 
Q 447 1150 447 2328 
Q 447 3434 972 4092 
Q 1497 4750 2381 4750 
Q 2619 4750 2861 4703 
Q 3103 4656 3366 4563 
z
" transform="scale(0.015625)"/>
       </defs>
       <use xlink:href="#DejaVuSans-36"/>
      </g>
     </g>
    </g>
    <g id="xtick_7">
     <g id="line2d_7">
      <g>
       <use xlink:href="#m43a76148cc" x="199.9795" y="109.24" style="stroke: #000000; stroke-width: 0.8"/>
      </g>
     </g>
     <g id="text_7">
      <!-- 7 -->
      <g transform="translate(198.07075 120.799063) scale(0.06 -0.06)">
       <defs>
        <path id="DejaVuSans-37" d="M 525 4666 
L 3525 4666 
L 3525 4397 
L 1831 0 
L 1172 0 
L 2766 4134 
L 525 4134 
L 525 4666 
z
" transform="scale(0.015625)"/>
       </defs>
       <use xlink:href="#DejaVuSans-37"/>
      </g>
     </g>
    </g>
    <g id="xtick_8">
     <g id="line2d_8">
      <g>
       <use xlink:href="#m43a76148cc" x="224.9225" y="109.24" style="stroke: #000000; stroke-width: 0.8"/>
      </g>
     </g>
     <g id="text_8">
      <!-- 8 -->
      <g transform="translate(223.01375 120.799063) scale(0.06 -0.06)">
       <defs>
        <path id="DejaVuSans-38" d="M 2034 2216 
Q 1584 2216 1326 1975 
Q 1069 1734 1069 1313 
Q 1069 891 1326 650 
Q 1584 409 2034 409 
Q 2484 409 2743 651 
Q 3003 894 3003 1313 
Q 3003 1734 2745 1975 
Q 2488 2216 2034 2216 
z
M 1403 2484 
Q 997 2584 770 2862 
Q 544 3141 544 3541 
Q 544 4100 942 4425 
Q 1341 4750 2034 4750 
Q 2731 4750 3128 4425 
Q 3525 4100 3525 3541 
Q 3525 3141 3298 2862 
Q 3072 2584 2669 2484 
Q 3125 2378 3379 2068 
Q 3634 1759 3634 1313 
Q 3634 634 3220 271 
Q 2806 -91 2034 -91 
Q 1263 -91 848 271 
Q 434 634 434 1313 
Q 434 1759 690 2068 
Q 947 2378 1403 2484 
z
M 1172 3481 
Q 1172 3119 1398 2916 
Q 1625 2713 2034 2713 
Q 2441 2713 2670 2916 
Q 2900 3119 2900 3481 
Q 2900 3844 2670 4047 
Q 2441 4250 2034 4250 
Q 1625 4250 1398 4047 
Q 1172 3844 1172 3481 
z
" transform="scale(0.015625)"/>
       </defs>
       <use xlink:href="#DejaVuSans-38"/>
      </g>
     </g>
    </g>
    <g id="xtick_9">
     <g id="line2d_9">
      <g>
       <use xlink:href="#m43a76148cc" x="249.8655" y="109.24" style="stroke: #000000; stroke-width: 0.8"/>
      </g>
     </g>
     <g id="text_9">
      <!-- 9 -->
      <g transform="translate(247.95675 120.799063) scale(0.06 -0.06)">
       <defs>
        <path id="DejaVuSans-39" d="M 703 97 
L 703 672 
Q 941 559 1184 500 
Q 1428 441 1663 441 
Q 2288 441 2617 861 
Q 2947 1281 2994 2138 
Q 2813 1869 2534 1725 
Q 2256 1581 1919 1581 
Q 1219 1581 811 2004 
Q 403 2428 403 3163 
Q 403 3881 828 4315 
Q 1253 4750 1959 4750 
Q 2769 4750 3195 4129 
Q 3622 3509 3622 2328 
Q 3622 1225 3098 567 
Q 2575 -91 1691 -91 
Q 1453 -91 1209 -44 
Q 966 3 703 97 
z
M 1959 2075 
Q 2384 2075 2632 2365 
Q 2881 2656 2881 3163 
Q 2881 3666 2632 3958 
Q 2384 4250 1959 4250 
Q 1534 4250 1286 3958 
Q 1038 3666 1038 3163 
Q 1038 2656 1286 2365 
Q 1534 2075 1959 2075 
z
" transform="scale(0.015625)"/>
       </defs>
       <use xlink:href="#DejaVuSans-39"/>
      </g>
     </g>
    </g>
    <g id="xtick_10">
     <g id="line2d_10">
      <g>
       <use xlink:href="#m43a76148cc" x="274.8085" y="109.24" style="stroke: #000000; stroke-width: 0.8"/>
      </g>
     </g>
     <g id="text_10">
      <!-- 10 -->
      <g transform="translate(270.991 120.799063) scale(0.06 -0.06)">
       <defs>
        <path id="DejaVuSans-30" d="M 2034 4250 
Q 1547 4250 1301 3770 
Q 1056 3291 1056 2328 
Q 1056 1369 1301 889 
Q 1547 409 2034 409 
Q 2525 409 2770 889 
Q 3016 1369 3016 2328 
Q 3016 3291 2770 3770 
Q 2525 4250 2034 4250 
z
M 2034 4750 
Q 2819 4750 3233 4129 
Q 3647 3509 3647 2328 
Q 3647 1150 3233 529 
Q 2819 -91 2034 -91 
Q 1250 -91 836 529 
Q 422 1150 422 2328 
Q 422 3509 836 4129 
Q 1250 4750 2034 4750 
z
" transform="scale(0.015625)"/>
       </defs>
       <use xlink:href="#DejaVuSans-31"/>
       <use xlink:href="#DejaVuSans-30" x="63.623047"/>
      </g>
     </g>
    </g>
    <g id="text_11">
     <!-- Number of Mice in Treatment Group -->
     <g transform="translate(108.809219 130.605938) scale(0.06 -0.06)">
      <defs>
       <path id="DejaVuSans-4e" d="M 628 4666 
L 1478 4666 
L 3547 763 
L 3547 4666 
L 4159 4666 
L 4159 0 
L 3309 0 
L 1241 3903 
L 1241 0 
L 628 0 
L 628 4666 
z
" transform="scale(0.015625)"/>
       <path id="DejaVuSans-75" d="M 544 1381 
L 544 3500 
L 1119 3500 
L 1119 1403 
Q 1119 906 1312 657 
Q 1506 409 1894 409 
Q 2359 409 2629 706 
Q 2900 1003 2900 1516 
L 2900 3500 
L 3475 3500 
L 3475 0 
L 2900 0 
L 2900 538 
Q 2691 219 2414 64 
Q 2138 -91 1772 -91 
Q 1169 -91 856 284 
Q 544 659 544 1381 
z
M 1991 3584 
L 1991 3584 
z
" transform="scale(0.015625)"/>
       <path id="DejaVuSans-6d" d="M 3328 2828 
Q 3544 3216 3844 3400 
Q 4144 3584 4550 3584 
Q 5097 3584 5394 3201 
Q 5691 2819 5691 2113 
L 5691 0 
L 5113 0 
L 5113 2094 
Q 5113 2597 4934 2840 
Q 4756 3084 4391 3084 
Q 3944 3084 3684 2787 
Q 3425 2491 3425 1978 
L 3425 0 
L 2847 0 
L 2847 2094 
Q 2847 2600 2669 2842 
Q 2491 3084 2119 3084 
Q 1678 3084 1418 2786 
Q 1159 2488 1159 1978 
L 1159 0 
L 581 0 
L 581 3500 
L 1159 3500 
L 1159 2956 
Q 1356 3278 1631 3431 
Q 1906 3584 2284 3584 
Q 2666 3584 2933 3390 
Q 3200 3197 3328 2828 
z
" transform="scale(0.015625)"/>
       <path id="DejaVuSans-62" d="M 3116 1747 
Q 3116 2381 2855 2742 
Q 2594 3103 2138 3103 
Q 1681 3103 1420 2742 
Q 1159 2381 1159 1747 
Q 1159 1113 1420 752 
Q 1681 391 2138 391 
Q 2594 391 2855 752 
Q 3116 1113 3116 1747 
z
M 1159 2969 
Q 1341 3281 1617 3432 
Q 1894 3584 2278 3584 
Q 2916 3584 3314 3078 
Q 3713 2572 3713 1747 
Q 3713 922 3314 415 
Q 2916 -91 2278 -91 
Q 1894 -91 1617 61 
Q 1341 213 1159 525 
L 1159 0 
L 581 0 
L 581 4863 
L 1159 4863 
L 1159 2969 
z
" transform="scale(0.015625)"/>
       <path id="DejaVuSans-65" d="M 3597 1894 
L 3597 1613 
L 953 1613 
Q 991 1019 1311 708 
Q 1631 397 2203 397 
Q 2534 397 2845 478 
Q 3156 559 3463 722 
L 3463 178 
Q 3153 47 2828 -22 
Q 2503 -91 2169 -91 
Q 1331 -91 842 396 
Q 353 884 353 1716 
Q 353 2575 817 3079 
Q 1281 3584 2069 3584 
Q 2775 3584 3186 3129 
Q 3597 2675 3597 1894 
z
M 3022 2063 
Q 3016 2534 2758 2815 
Q 2500 3097 2075 3097 
Q 1594 3097 1305 2825 
Q 1016 2553 972 2059 
L 3022 2063 
z
" transform="scale(0.015625)"/>
       <path id="DejaVuSans-72" d="M 2631 2963 
Q 2534 3019 2420 3045 
Q 2306 3072 2169 3072 
Q 1681 3072 1420 2755 
Q 1159 2438 1159 1844 
L 1159 0 
L 581 0 
L 581 3500 
L 1159 3500 
L 1159 2956 
Q 1341 3275 1631 3429 
Q 1922 3584 2338 3584 
Q 2397 3584 2469 3576 
Q 2541 3569 2628 3553 
L 2631 2963 
z
" transform="scale(0.015625)"/>
       <path id="DejaVuSans-20" transform="scale(0.015625)"/>
       <path id="DejaVuSans-6f" d="M 1959 3097 
Q 1497 3097 1228 2736 
Q 959 2375 959 1747 
Q 959 1119 1226 758 
Q 1494 397 1959 397 
Q 2419 397 2687 759 
Q 2956 1122 2956 1747 
Q 2956 2369 2687 2733 
Q 2419 3097 1959 3097 
z
M 1959 3584 
Q 2709 3584 3137 3096 
Q 3566 2609 3566 1747 
Q 3566 888 3137 398 
Q 2709 -91 1959 -91 
Q 1206 -91 779 398 
Q 353 888 353 1747 
Q 353 2609 779 3096 
Q 1206 3584 1959 3584 
z
" transform="scale(0.015625)"/>
       <path id="DejaVuSans-66" d="M 2375 4863 
L 2375 4384 
L 1825 4384 
Q 1516 4384 1395 4259 
Q 1275 4134 1275 3809 
L 1275 3500 
L 2222 3500 
L 2222 3053 
L 1275 3053 
L 1275 0 
L 697 0 
L 697 3053 
L 147 3053 
L 147 3500 
L 697 3500 
L 697 3744 
Q 697 4328 969 4595 
Q 1241 4863 1831 4863 
L 2375 4863 
z
" transform="scale(0.015625)"/>
       <path id="DejaVuSans-4d" d="M 628 4666 
L 1569 4666 
L 2759 1491 
L 3956 4666 
L 4897 4666 
L 4897 0 
L 4281 0 
L 4281 4097 
L 3078 897 
L 2444 897 
L 1241 4097 
L 1241 0 
L 628 0 
L 628 4666 
z
" transform="scale(0.015625)"/>
       <path id="DejaVuSans-69" d="M 603 3500 
L 1178 3500 
L 1178 0 
L 603 0 
L 603 3500 
z
M 603 4863 
L 1178 4863 
L 1178 4134 
L 603 4134 
L 603 4863 
z
" transform="scale(0.015625)"/>
       <path id="DejaVuSans-63" d="M 3122 3366 
L 3122 2828 
Q 2878 2963 2633 3030 
Q 2388 3097 2138 3097 
Q 1578 3097 1268 2742 
Q 959 2388 959 1747 
Q 959 1106 1268 751 
Q 1578 397 2138 397 
Q 2388 397 2633 464 
Q 2878 531 3122 666 
L 3122 134 
Q 2881 22 2623 -34 
Q 2366 -91 2075 -91 
Q 1284 -91 818 406 
Q 353 903 353 1747 
Q 353 2603 823 3093 
Q 1294 3584 2113 3584 
Q 2378 3584 2631 3529 
Q 2884 3475 3122 3366 
z
" transform="scale(0.015625)"/>
       <path id="DejaVuSans-6e" d="M 3513 2113 
L 3513 0 
L 2938 0 
L 2938 2094 
Q 2938 2591 2744 2837 
Q 2550 3084 2163 3084 
Q 1697 3084 1428 2787 
Q 1159 2491 1159 1978 
L 1159 0 
L 581 0 
L 581 3500 
L 1159 3500 
L 1159 2956 
Q 1366 3272 1645 3428 
Q 1925 3584 2291 3584 
Q 2894 3584 3203 3211 
Q 3513 2838 3513 2113 
z
" transform="scale(0.015625)"/>
       <path id="DejaVuSans-54" d="M -19 4666 
L 3928 4666 
L 3928 4134 
L 2272 4134 
L 2272 0 
L 1638 0 
L 1638 4134 
L -19 4134 
L -19 4666 
z
" transform="scale(0.015625)"/>
       <path id="DejaVuSans-61" d="M 2194 1759 
Q 1497 1759 1228 1600 
Q 959 1441 959 1056 
Q 959 750 1161 570 
Q 1363 391 1709 391 
Q 2188 391 2477 730 
Q 2766 1069 2766 1631 
L 2766 1759 
L 2194 1759 
z
M 3341 1997 
L 3341 0 
L 2766 0 
L 2766 531 
Q 2569 213 2275 61 
Q 1981 -91 1556 -91 
Q 1019 -91 701 211 
Q 384 513 384 1019 
Q 384 1609 779 1909 
Q 1175 2209 1959 2209 
L 2766 2209 
L 2766 2266 
Q 2766 2663 2505 2880 
Q 2244 3097 1772 3097 
Q 1472 3097 1187 3025 
Q 903 2953 641 2809 
L 641 3341 
Q 956 3463 1253 3523 
Q 1550 3584 1831 3584 
Q 2591 3584 2966 3190 
Q 3341 2797 3341 1997 
z
" transform="scale(0.015625)"/>
       <path id="DejaVuSans-74" d="M 1172 4494 
L 1172 3500 
L 2356 3500 
L 2356 3053 
L 1172 3053 
L 1172 1153 
Q 1172 725 1289 603 
Q 1406 481 1766 481 
L 2356 481 
L 2356 0 
L 1766 0 
Q 1100 0 847 248 
Q 594 497 594 1153 
L 594 3053 
L 172 3053 
L 172 3500 
L 594 3500 
L 594 4494 
L 1172 4494 
z
" transform="scale(0.015625)"/>
       <path id="DejaVuSans-47" d="M 3809 666 
L 3809 1919 
L 2778 1919 
L 2778 2438 
L 4434 2438 
L 4434 434 
Q 4069 175 3628 42 
Q 3188 -91 2688 -91 
Q 1594 -91 976 548 
Q 359 1188 359 2328 
Q 359 3472 976 4111 
Q 1594 4750 2688 4750 
Q 3144 4750 3555 4637 
Q 3966 4525 4313 4306 
L 4313 3634 
Q 3963 3931 3569 4081 
Q 3175 4231 2741 4231 
Q 1884 4231 1454 3753 
Q 1025 3275 1025 2328 
Q 1025 1384 1454 906 
Q 1884 428 2741 428 
Q 3075 428 3337 486 
Q 3600 544 3809 666 
z
" transform="scale(0.015625)"/>
       <path id="DejaVuSans-70" d="M 1159 525 
L 1159 -1331 
L 581 -1331 
L 581 3500 
L 1159 3500 
L 1159 2969 
Q 1341 3281 1617 3432 
Q 1894 3584 2278 3584 
Q 2916 3584 3314 3078 
Q 3713 2572 3713 1747 
Q 3713 922 3314 415 
Q 2916 -91 2278 -91 
Q 1894 -91 1617 61 
Q 1341 213 1159 525 
z
M 3116 1747 
Q 3116 2381 2855 2742 
Q 2594 3103 2138 3103 
Q 1681 3103 1420 2742 
Q 1159 2381 1159 1747 
Q 1159 1113 1420 752 
Q 1681 391 2138 391 
Q 2594 391 2855 752 
Q 3116 1113 3116 1747 
z
" transform="scale(0.015625)"/>
      </defs>
      <use xlink:href="#DejaVuSans-4e"/>
      <use xlink:href="#DejaVuSans-75" x="74.804688"/>
      <use xlink:href="#DejaVuSans-6d" x="138.183594"/>
      <use xlink:href="#DejaVuSans-62" x="235.595703"/>
      <use xlink:href="#DejaVuSans-65" x="299.072266"/>
      <use xlink:href="#DejaVuSans-72" x="360.595703"/>
      <use xlink:href="#DejaVuSans-20" x="401.708984"/>
      <use xlink:href="#DejaVuSans-6f" x="433.496094"/>
      <use xlink:href="#DejaVuSans-66" x="494.677734"/>
      <use xlink:href="#DejaVuSans-20" x="529.882812"/>
      <use xlink:href="#DejaVuSans-4d" x="561.669922"/>
      <use xlink:href="#DejaVuSans-69" x="647.949219"/>
      <use xlink:href="#DejaVuSans-63" x="675.732422"/>
      <use xlink:href="#DejaVuSans-65" x="730.712891"/>
      <use xlink:href="#DejaVuSans-20" x="792.236328"/>
      <use xlink:href="#DejaVuSans-69" x="824.023438"/>
      <use xlink:href="#DejaVuSans-6e" x="851.806641"/>
      <use xlink:href="#DejaVuSans-20" x="915.185547"/>
      <use xlink:href="#DejaVuSans-54" x="946.972656"/>
      <use xlink:href="#DejaVuSans-72" x="993.306641"/>
      <use xlink:href="#DejaVuSans-65" x="1032.169922"/>
      <use xlink:href="#DejaVuSans-61" x="1093.693359"/>
      <use xlink:href="#DejaVuSans-74" x="1154.972656"/>
      <use xlink:href="#DejaVuSans-6d" x="1194.181641"/>
      <use xlink:href="#DejaVuSans-65" x="1291.59375"/>
      <use xlink:href="#DejaVuSans-6e" x="1353.117188"/>
      <use xlink:href="#DejaVuSans-74" x="1416.496094"/>
      <use xlink:href="#DejaVuSans-20" x="1455.705078"/>
      <use xlink:href="#DejaVuSans-47" x="1487.492188"/>
      <use xlink:href="#DejaVuSans-72" x="1564.982422"/>
      <use xlink:href="#DejaVuSans-6f" x="1603.845703"/>
      <use xlink:href="#DejaVuSans-75" x="1665.027344"/>
      <use xlink:href="#DejaVuSans-70" x="1728.40625"/>
     </g>
    </g>
   </g>
   <g id="matplotlib.axis_2">
    <g id="ytick_1">
     <g id="line2d_11">
      <path d="M 37.85 94.62063 
L 287.28 94.62063 
" clip-path="url(#p071dee529e)" style="fill: none; stroke-dasharray: 2.96,1.28; stroke-dashoffset: 0; stroke: #000000; stroke-opacity: 0.3; stroke-width: 0.8"/>
     </g>
     <g id="line2d_12">
      <defs>
       <path id="m066917376b" d="M 0 0 
L -3.5 0 
" style="stroke: #000000; stroke-width: 0.8"/>
      </defs>
      <g>
       <use xlink:href="#m066917376b" x="37.85" y="94.62063" style="stroke: #000000; stroke-width: 0.8"/>
      </g>
     </g>
     <g id="text_12">
      <!-- 0.00 -->
      <g transform="translate(17.490625 96.900161) scale(0.06 -0.06)">
       <defs>
        <path id="DejaVuSans-2e" d="M 684 794 
L 1344 794 
L 1344 0 
L 684 0 
L 684 794 
z
" transform="scale(0.015625)"/>
       </defs>
       <use xlink:href="#DejaVuSans-30"/>
       <use xlink:href="#DejaVuSans-2e" x="63.623047"/>
       <use xlink:href="#DejaVuSans-30" x="95.410156"/>
       <use xlink:href="#DejaVuSans-30" x="159.033203"/>
      </g>
     </g>
    </g>
    <g id="ytick_2">
     <g id="line2d_13">
      <path d="M 37.85 78.345299 
L 287.28 78.345299 
" clip-path="url(#p071dee529e)" style="fill: none; stroke-dasharray: 2.96,1.28; stroke-dashoffset: 0; stroke: #000000; stroke-opacity: 0.3; stroke-width: 0.8"/>
     </g>
     <g id="line2d_14">
      <g>
       <use xlink:href="#m066917376b" x="37.85" y="78.345299" style="stroke: #000000; stroke-width: 0.8"/>
      </g>
     </g>
     <g id="text_13">
      <!-- 0.25 -->
      <g transform="translate(17.490625 80.62483) scale(0.06 -0.06)">
       <use xlink:href="#DejaVuSans-30"/>
       <use xlink:href="#DejaVuSans-2e" x="63.623047"/>
       <use xlink:href="#DejaVuSans-32" x="95.410156"/>
       <use xlink:href="#DejaVuSans-35" x="159.033203"/>
      </g>
     </g>
    </g>
    <g id="ytick_3">
     <g id="line2d_15">
      <path d="M 37.85 62.069969 
L 287.28 62.069969 
" clip-path="url(#p071dee529e)" style="fill: none; stroke-dasharray: 2.96,1.28; stroke-dashoffset: 0; stroke: #000000; stroke-opacity: 0.3; stroke-width: 0.8"/>
     </g>
     <g id="line2d_16">
      <g>
       <use xlink:href="#m066917376b" x="37.85" y="62.069969" style="stroke: #000000; stroke-width: 0.8"/>
      </g>
     </g>
     <g id="text_14">
      <!-- 0.50 -->
      <g transform="translate(17.490625 64.3495) scale(0.06 -0.06)">
       <use xlink:href="#DejaVuSans-30"/>
       <use xlink:href="#DejaVuSans-2e" x="63.623047"/>
       <use xlink:href="#DejaVuSans-35" x="95.410156"/>
       <use xlink:href="#DejaVuSans-30" x="159.033203"/>
      </g>
     </g>
    </g>
    <g id="ytick_4">
     <g id="line2d_17">
      <path d="M 37.85 45.794638 
L 287.28 45.794638 
" clip-path="url(#p071dee529e)" style="fill: none; stroke-dasharray: 2.96,1.28; stroke-dashoffset: 0; stroke: #000000; stroke-opacity: 0.3; stroke-width: 0.8"/>
     </g>
     <g id="line2d_18">
      <g>
       <use xlink:href="#m066917376b" x="37.85" y="45.794638" style="stroke: #000000; stroke-width: 0.8"/>
      </g>
     </g>
     <g id="text_15">
      <!-- 0.75 -->
      <g transform="translate(17.490625 48.074169) scale(0.06 -0.06)">
       <use xlink:href="#DejaVuSans-30"/>
       <use xlink:href="#DejaVuSans-2e" x="63.623047"/>
       <use xlink:href="#DejaVuSans-37" x="95.410156"/>
       <use xlink:href="#DejaVuSans-35" x="159.033203"/>
      </g>
     </g>
    </g>
    <g id="ytick_5">
     <g id="line2d_19">
      <path d="M 37.85 29.519307 
L 287.28 29.519307 
" clip-path="url(#p071dee529e)" style="fill: none; stroke-dasharray: 2.96,1.28; stroke-dashoffset: 0; stroke: #000000; stroke-opacity: 0.3; stroke-width: 0.8"/>
     </g>
     <g id="line2d_20">
      <g>
       <use xlink:href="#m066917376b" x="37.85" y="29.519307" style="stroke: #000000; stroke-width: 0.8"/>
      </g>
     </g>
     <g id="text_16">
      <!-- 1.00 -->
      <g transform="translate(17.490625 31.798839) scale(0.06 -0.06)">
       <use xlink:href="#DejaVuSans-31"/>
       <use xlink:href="#DejaVuSans-2e" x="63.623047"/>
       <use xlink:href="#DejaVuSans-30" x="95.410156"/>
       <use xlink:href="#DejaVuSans-30" x="159.033203"/>
      </g>
     </g>
    </g>
    <g id="text_17">
     <!-- Fraction of Overlapping Hits -->
     <g transform="translate(12.242812 105.512656) rotate(-90) scale(0.06 -0.06)">
      <defs>
       <path id="DejaVuSans-46" d="M 628 4666 
L 3309 4666 
L 3309 4134 
L 1259 4134 
L 1259 2759 
L 3109 2759 
L 3109 2228 
L 1259 2228 
L 1259 0 
L 628 0 
L 628 4666 
z
" transform="scale(0.015625)"/>
       <path id="DejaVuSans-4f" d="M 2522 4238 
Q 1834 4238 1429 3725 
Q 1025 3213 1025 2328 
Q 1025 1447 1429 934 
Q 1834 422 2522 422 
Q 3209 422 3611 934 
Q 4013 1447 4013 2328 
Q 4013 3213 3611 3725 
Q 3209 4238 2522 4238 
z
M 2522 4750 
Q 3503 4750 4090 4092 
Q 4678 3434 4678 2328 
Q 4678 1225 4090 567 
Q 3503 -91 2522 -91 
Q 1538 -91 948 565 
Q 359 1222 359 2328 
Q 359 3434 948 4092 
Q 1538 4750 2522 4750 
z
" transform="scale(0.015625)"/>
       <path id="DejaVuSans-76" d="M 191 3500 
L 800 3500 
L 1894 563 
L 2988 3500 
L 3597 3500 
L 2284 0 
L 1503 0 
L 191 3500 
z
" transform="scale(0.015625)"/>
       <path id="DejaVuSans-6c" d="M 603 4863 
L 1178 4863 
L 1178 0 
L 603 0 
L 603 4863 
z
" transform="scale(0.015625)"/>
       <path id="DejaVuSans-67" d="M 2906 1791 
Q 2906 2416 2648 2759 
Q 2391 3103 1925 3103 
Q 1463 3103 1205 2759 
Q 947 2416 947 1791 
Q 947 1169 1205 825 
Q 1463 481 1925 481 
Q 2391 481 2648 825 
Q 2906 1169 2906 1791 
z
M 3481 434 
Q 3481 -459 3084 -895 
Q 2688 -1331 1869 -1331 
Q 1566 -1331 1297 -1286 
Q 1028 -1241 775 -1147 
L 775 -588 
Q 1028 -725 1275 -790 
Q 1522 -856 1778 -856 
Q 2344 -856 2625 -561 
Q 2906 -266 2906 331 
L 2906 616 
Q 2728 306 2450 153 
Q 2172 0 1784 0 
Q 1141 0 747 490 
Q 353 981 353 1791 
Q 353 2603 747 3093 
Q 1141 3584 1784 3584 
Q 2172 3584 2450 3431 
Q 2728 3278 2906 2969 
L 2906 3500 
L 3481 3500 
L 3481 434 
z
" transform="scale(0.015625)"/>
       <path id="DejaVuSans-48" d="M 628 4666 
L 1259 4666 
L 1259 2753 
L 3553 2753 
L 3553 4666 
L 4184 4666 
L 4184 0 
L 3553 0 
L 3553 2222 
L 1259 2222 
L 1259 0 
L 628 0 
L 628 4666 
z
" transform="scale(0.015625)"/>
       <path id="DejaVuSans-73" d="M 2834 3397 
L 2834 2853 
Q 2591 2978 2328 3040 
Q 2066 3103 1784 3103 
Q 1356 3103 1142 2972 
Q 928 2841 928 2578 
Q 928 2378 1081 2264 
Q 1234 2150 1697 2047 
L 1894 2003 
Q 2506 1872 2764 1633 
Q 3022 1394 3022 966 
Q 3022 478 2636 193 
Q 2250 -91 1575 -91 
Q 1294 -91 989 -36 
Q 684 19 347 128 
L 347 722 
Q 666 556 975 473 
Q 1284 391 1588 391 
Q 1994 391 2212 530 
Q 2431 669 2431 922 
Q 2431 1156 2273 1281 
Q 2116 1406 1581 1522 
L 1381 1569 
Q 847 1681 609 1914 
Q 372 2147 372 2553 
Q 372 3047 722 3315 
Q 1072 3584 1716 3584 
Q 2034 3584 2315 3537 
Q 2597 3491 2834 3397 
z
" transform="scale(0.015625)"/>
      </defs>
      <use xlink:href="#DejaVuSans-46"/>
      <use xlink:href="#DejaVuSans-72" x="50.269531"/>
      <use xlink:href="#DejaVuSans-61" x="91.382812"/>
      <use xlink:href="#DejaVuSans-63" x="152.662109"/>
      <use xlink:href="#DejaVuSans-74" x="207.642578"/>
      <use xlink:href="#DejaVuSans-69" x="246.851562"/>
      <use xlink:href="#DejaVuSans-6f" x="274.634766"/>
      <use xlink:href="#DejaVuSans-6e" x="335.816406"/>
      <use xlink:href="#DejaVuSans-20" x="399.195312"/>
      <use xlink:href="#DejaVuSans-6f" x="430.982422"/>
      <use xlink:href="#DejaVuSans-66" x="492.164062"/>
      <use xlink:href="#DejaVuSans-20" x="527.369141"/>
      <use xlink:href="#DejaVuSans-4f" x="559.15625"/>
      <use xlink:href="#DejaVuSans-76" x="637.867188"/>
      <use xlink:href="#DejaVuSans-65" x="697.046875"/>
      <use xlink:href="#DejaVuSans-72" x="758.570312"/>
      <use xlink:href="#DejaVuSans-6c" x="799.683594"/>
      <use xlink:href="#DejaVuSans-61" x="827.466797"/>
      <use xlink:href="#DejaVuSans-70" x="888.746094"/>
      <use xlink:href="#DejaVuSans-70" x="952.222656"/>
      <use xlink:href="#DejaVuSans-69" x="1015.699219"/>
      <use xlink:href="#DejaVuSans-6e" x="1043.482422"/>
      <use xlink:href="#DejaVuSans-67" x="1106.861328"/>
      <use xlink:href="#DejaVuSans-20" x="1170.337891"/>
      <use xlink:href="#DejaVuSans-48" x="1202.125"/>
      <use xlink:href="#DejaVuSans-69" x="1277.320312"/>
      <use xlink:href="#DejaVuSans-74" x="1305.103516"/>
      <use xlink:href="#DejaVuSans-73" x="1344.3125"/>
     </g>
    </g>
   </g>
   <g id="line2d_21">
    <path d="M 50.3215 94.62063 
L 50.3215 76.020252 
" clip-path="url(#p071dee529e)" style="fill: none; stroke: #1a1a1a; stroke-linecap: square"/>
   </g>
   <g id="line2d_22">
    <path d="M 50.3215 91.520567 
L 50.3215 76.020252 
" clip-path="url(#p071dee529e)" style="fill: none; stroke: #1a1a1a; stroke-width: 3; stroke-linecap: square"/>
   </g>
   <g id="line2d_23">
    <path d="M 50.3215 76.020252 
" clip-path="url(#p071dee529e)" style="fill: none; stroke: #fa8072; stroke-width: 1.5; stroke-linecap: square"/>
    <defs>
     <path id="meddc142535" d="M 1.25 0 
L -1.25 -0 
" style="stroke: #ffffff; stroke-width: 0.6"/>
    </defs>
    <g clip-path="url(#p071dee529e)">
     <use xlink:href="#meddc142535" x="50.3215" y="76.020252" style="fill: #ffffff; stroke: #ffffff; stroke-width: 0.6"/>
    </g>
   </g>
   <g id="line2d_24">
    <path d="M 75.2645 91.520567 
L 75.2645 51.219748 
" clip-path="url(#p071dee529e)" style="fill: none; stroke: #1a1a1a; stroke-linecap: square"/>
   </g>
   <g id="line2d_25">
    <path d="M 75.2645 88.420504 
L 75.2645 63.62 
" clip-path="url(#p071dee529e)" style="fill: none; stroke: #1a1a1a; stroke-width: 3; stroke-linecap: square"/>
   </g>
   <g id="line2d_26">
    <path d="M 75.2645 76.020252 
" clip-path="url(#p071dee529e)" style="fill: none; stroke: #fa8072; stroke-width: 1.5; stroke-linecap: square"/>
    <g clip-path="url(#p071dee529e)">
     <use xlink:href="#meddc142535" x="75.2645" y="76.020252" style="fill: #ffffff; stroke: #ffffff; stroke-width: 0.6"/>
    </g>
   </g>
   <g id="line2d_27">
    <path d="M 100.2075 91.520567 
L 100.2075 51.219748 
" clip-path="url(#p071dee529e)" style="fill: none; stroke: #1a1a1a; stroke-linecap: square"/>
   </g>
   <g id="line2d_28">
    <path d="M 100.2075 79.120315 
L 100.2075 63.62 
" clip-path="url(#p071dee529e)" style="fill: none; stroke: #1a1a1a; stroke-width: 3; stroke-linecap: square"/>
   </g>
   <g id="line2d_29">
    <path d="M 100.2075 76.020252 
" clip-path="url(#p071dee529e)" style="fill: none; stroke: #fa8072; stroke-width: 1.5; stroke-linecap: square"/>
    <g clip-path="url(#p071dee529e)">
     <use xlink:href="#meddc142535" x="100.2075" y="76.020252" style="fill: #ffffff; stroke: #ffffff; stroke-width: 0.6"/>
    </g>
   </g>
   <g id="line2d_30">
    <path d="M 125.1505 88.420504 
L 125.1505 35.719433 
" clip-path="url(#p071dee529e)" style="fill: none; stroke: #1a1a1a; stroke-linecap: square"/>
   </g>
   <g id="line2d_31">
    <path d="M 125.1505 79.120315 
L 125.1505 57.419874 
" clip-path="url(#p071dee529e)" style="fill: none; stroke: #1a1a1a; stroke-width: 3; stroke-linecap: square"/>
   </g>
   <g id="line2d_32">
    <path d="M 125.1505 66.720063 
" clip-path="url(#p071dee529e)" style="fill: none; stroke: #fa8072; stroke-width: 1.5; stroke-linecap: square"/>
    <g clip-path="url(#p071dee529e)">
     <use xlink:href="#meddc142535" x="125.1505" y="66.720063" style="fill: #ffffff; stroke: #ffffff; stroke-width: 0.6"/>
    </g>
   </g>
   <g id="line2d_33">
    <path d="M 150.0935 91.520567 
L 150.0935 35.719433 
" clip-path="url(#p071dee529e)" style="fill: none; stroke: #1a1a1a; stroke-linecap: square"/>
   </g>
   <g id="line2d_34">
    <path d="M 150.0935 72.920189 
L 150.0935 48.119685 
" clip-path="url(#p071dee529e)" style="fill: none; stroke: #1a1a1a; stroke-width: 3; stroke-linecap: square"/>
   </g>
   <g id="line2d_35">
    <path d="M 150.0935 60.519937 
" clip-path="url(#p071dee529e)" style="fill: none; stroke: #fa8072; stroke-width: 1.5; stroke-linecap: square"/>
    <g clip-path="url(#p071dee529e)">
     <use xlink:href="#meddc142535" x="150.0935" y="60.519937" style="fill: #ffffff; stroke: #ffffff; stroke-width: 0.6"/>
    </g>
   </g>
   <g id="line2d_36">
    <path d="M 175.0365 79.120315 
L 175.0365 38.819496 
" clip-path="url(#p071dee529e)" style="fill: none; stroke: #1a1a1a; stroke-linecap: square"/>
   </g>
   <g id="line2d_37">
    <path d="M 175.0365 69.820126 
L 175.0365 54.319811 
" clip-path="url(#p071dee529e)" style="fill: none; stroke: #1a1a1a; stroke-width: 3; stroke-linecap: square"/>
   </g>
   <g id="line2d_38">
    <path d="M 175.0365 62.069969 
" clip-path="url(#p071dee529e)" style="fill: none; stroke: #fa8072; stroke-width: 1.5; stroke-linecap: square"/>
    <g clip-path="url(#p071dee529e)">
     <use xlink:href="#meddc142535" x="175.0365" y="62.069969" style="fill: #ffffff; stroke: #ffffff; stroke-width: 0.6"/>
    </g>
   </g>
   <g id="line2d_39">
    <path d="M 199.9795 82.220378 
L 199.9795 35.719433 
" clip-path="url(#p071dee529e)" style="fill: none; stroke: #1a1a1a; stroke-linecap: square"/>
   </g>
   <g id="line2d_40">
    <path d="M 199.9795 60.519937 
L 199.9795 41.919559 
" clip-path="url(#p071dee529e)" style="fill: none; stroke: #1a1a1a; stroke-width: 3; stroke-linecap: square"/>
   </g>
   <g id="line2d_41">
    <path d="M 199.9795 51.219748 
" clip-path="url(#p071dee529e)" style="fill: none; stroke: #fa8072; stroke-width: 1.5; stroke-linecap: square"/>
    <g clip-path="url(#p071dee529e)">
     <use xlink:href="#meddc142535" x="199.9795" y="51.219748" style="fill: #ffffff; stroke: #ffffff; stroke-width: 0.6"/>
    </g>
   </g>
   <g id="line2d_42">
    <path d="M 224.9225 79.120315 
L 224.9225 35.719433 
" clip-path="url(#p071dee529e)" style="fill: none; stroke: #1a1a1a; stroke-linecap: square"/>
   </g>
   <g id="line2d_43">
    <path d="M 224.9225 60.519937 
L 224.9225 42.694575 
" clip-path="url(#p071dee529e)" style="fill: none; stroke: #1a1a1a; stroke-width: 3; stroke-linecap: square"/>
   </g>
   <g id="line2d_44">
    <path d="M 224.9225 52.76978 
" clip-path="url(#p071dee529e)" style="fill: none; stroke: #fa8072; stroke-width: 1.5; stroke-linecap: square"/>
    <g clip-path="url(#p071dee529e)">
     <use xlink:href="#meddc142535" x="224.9225" y="52.76978" style="fill: #ffffff; stroke: #ffffff; stroke-width: 0.6"/>
    </g>
   </g>
   <g id="line2d_45">
    <path d="M 249.8655 79.120315 
L 249.8655 35.719433 
" clip-path="url(#p071dee529e)" style="fill: none; stroke: #1a1a1a; stroke-linecap: square"/>
   </g>
   <g id="line2d_46">
    <path d="M 249.8655 60.519937 
L 249.8655 45.019622 
" clip-path="url(#p071dee529e)" style="fill: none; stroke: #1a1a1a; stroke-width: 3; stroke-linecap: square"/>
   </g>
   <g id="line2d_47">
    <path d="M 249.8655 52.76978 
" clip-path="url(#p071dee529e)" style="fill: none; stroke: #fa8072; stroke-width: 1.5; stroke-linecap: square"/>
    <g clip-path="url(#p071dee529e)">
     <use xlink:href="#meddc142535" x="249.8655" y="52.76978" style="fill: #ffffff; stroke: #ffffff; stroke-width: 0.6"/>
    </g>
   </g>
   <g id="line2d_48">
    <path d="M 274.8085 69.820126 
L 274.8085 32.61937 
" clip-path="url(#p071dee529e)" style="fill: none; stroke: #1a1a1a; stroke-linecap: square"/>
   </g>
   <g id="line2d_49">
    <path d="M 274.8085 57.419874 
L 274.8085 39.594512 
" clip-path="url(#p071dee529e)" style="fill: none; stroke: #1a1a1a; stroke-width: 3; stroke-linecap: square"/>
   </g>
   <g id="line2d_50">
    <path d="M 274.8085 46.569654 
" clip-path="url(#p071dee529e)" style="fill: none; stroke: #fa8072; stroke-width: 1.5; stroke-linecap: square"/>
    <g clip-path="url(#p071dee529e)">
     <use xlink:href="#meddc142535" x="274.8085" y="46.569654" style="fill: #ffffff; stroke: #ffffff; stroke-width: 0.6"/>
    </g>
   </g>
   <g id="line2d_51">
    <path d="M 50.3215 76.020252 
L 75.2645 76.020252 
L 100.2075 76.020252 
L 125.1505 66.720063 
L 150.0935 60.519937 
L 175.0365 62.069969 
L 199.9795 51.219748 
L 224.9225 52.76978 
L 249.8655 52.76978 
L 274.8085 46.569654 
" clip-path="url(#p071dee529e)" style="fill: none; stroke: #8b0000; stroke-linecap: square"/>
    <defs>
     <path id="m3037c3f57a" d="M 0 1.253314 
C 0.332383 1.253314 0.651197 1.121257 0.886227 0.886227 
C 1.121257 0.651197 1.253314 0.332383 1.253314 0 
C 1.253314 -0.332383 1.121257 -0.651197 0.886227 -0.886227 
C 0.651197 -1.121257 0.332383 -1.253314 0 -1.253314 
C -0.332383 -1.253314 -0.651197 -1.121257 -0.886227 -0.886227 
C -1.121257 -0.651197 -1.253314 -0.332383 -1.253314 0 
C -1.253314 0.332383 -1.121257 0.651197 -0.886227 0.886227 
C -0.651197 1.121257 -0.332383 1.253314 0 1.253314 
z
" style="stroke: #8b0000; stroke-width: 0.75"/>
    </defs>
    <g clip-path="url(#p071dee529e)">
     <use xlink:href="#m3037c3f57a" x="50.3215" y="76.020252" style="fill: #8b0000; stroke: #8b0000; stroke-width: 0.75"/>
     <use xlink:href="#m3037c3f57a" x="75.2645" y="76.020252" style="fill: #8b0000; stroke: #8b0000; stroke-width: 0.75"/>
     <use xlink:href="#m3037c3f57a" x="100.2075" y="76.020252" style="fill: #8b0000; stroke: #8b0000; stroke-width: 0.75"/>
     <use xlink:href="#m3037c3f57a" x="125.1505" y="66.720063" style="fill: #8b0000; stroke: #8b0000; stroke-width: 0.75"/>
     <use xlink:href="#m3037c3f57a" x="150.0935" y="60.519937" style="fill: #8b0000; stroke: #8b0000; stroke-width: 0.75"/>
     <use xlink:href="#m3037c3f57a" x="175.0365" y="62.069969" style="fill: #8b0000; stroke: #8b0000; stroke-width: 0.75"/>
     <use xlink:href="#m3037c3f57a" x="199.9795" y="51.219748" style="fill: #8b0000; stroke: #8b0000; stroke-width: 0.75"/>
     <use xlink:href="#m3037c3f57a" x="224.9225" y="52.76978" style="fill: #8b0000; stroke: #8b0000; stroke-width: 0.75"/>
     <use xlink:href="#m3037c3f57a" x="249.8655" y="52.76978" style="fill: #8b0000; stroke: #8b0000; stroke-width: 0.75"/>
     <use xlink:href="#m3037c3f57a" x="274.8085" y="46.569654" style="fill: #8b0000; stroke: #8b0000; stroke-width: 0.75"/>
    </g>
   </g>
   <g id="line2d_52">
    <path clip-path="url(#p071dee529e)" style="fill: none; stroke: #8b0000; stroke-linecap: square"/>
   </g>
   <g id="line2d_53">
    <path clip-path="url(#p071dee529e)" style="fill: none; stroke: #8b0000; stroke-linecap: square"/>
   </g>
   <g id="line2d_54">
    <path clip-path="url(#p071dee529e)" style="fill: none; stroke: #8b0000; stroke-linecap: square"/>
   </g>
   <g id="line2d_55">
    <path clip-path="url(#p071dee529e)" style="fill: none; stroke: #8b0000; stroke-linecap: square"/>
   </g>
   <g id="line2d_56">
    <path clip-path="url(#p071dee529e)" style="fill: none; stroke: #8b0000; stroke-linecap: square"/>
   </g>
   <g id="line2d_57">
    <path clip-path="url(#p071dee529e)" style="fill: none; stroke: #8b0000; stroke-linecap: square"/>
   </g>
   <g id="line2d_58">
    <path clip-path="url(#p071dee529e)" style="fill: none; stroke: #8b0000; stroke-linecap: square"/>
   </g>
   <g id="line2d_59">
    <path clip-path="url(#p071dee529e)" style="fill: none; stroke: #8b0000; stroke-linecap: square"/>
   </g>
   <g id="line2d_60">
    <path clip-path="url(#p071dee529e)" style="fill: none; stroke: #8b0000; stroke-linecap: square"/>
   </g>
   <g id="line2d_61">
    <path clip-path="url(#p071dee529e)" style="fill: none; stroke: #8b0000; stroke-linecap: square"/>
   </g>
   <g id="patch_3">
    <path d="M 37.85 109.24 
L 37.85 18 
" style="fill: none; stroke: #000000; stroke-width: 0.8; stroke-linejoin: miter; stroke-linecap: square"/>
   </g>
   <g id="patch_4">
    <path d="M 287.28 109.24 
L 287.28 18 
" style="fill: none; stroke: #000000; stroke-width: 0.8; stroke-linejoin: miter; stroke-linecap: square"/>
   </g>
   <g id="patch_5">
    <path d="M 37.85 109.24 
L 287.28 109.24 
" style="fill: none; stroke: #000000; stroke-width: 0.8; stroke-linejoin: miter; stroke-linecap: square"/>
   </g>
   <g id="patch_6">
    <path d="M 37.85 18 
L 287.28 18 
" style="fill: none; stroke: #000000; stroke-width: 0.8; stroke-linejoin: miter; stroke-linecap: square"/>
   </g>
   <g id="text_18">
    <!-- Fraction of Overlapping Hits in Bootstraps compared to Standard -->
    <g transform="translate(45.799 12) scale(0.072 -0.072)">
     <defs>
      <path id="DejaVuSans-42" d="M 1259 2228 
L 1259 519 
L 2272 519 
Q 2781 519 3026 730 
Q 3272 941 3272 1375 
Q 3272 1813 3026 2020 
Q 2781 2228 2272 2228 
L 1259 2228 
z
M 1259 4147 
L 1259 2741 
L 2194 2741 
Q 2656 2741 2882 2914 
Q 3109 3088 3109 3444 
Q 3109 3797 2882 3972 
Q 2656 4147 2194 4147 
L 1259 4147 
z
M 628 4666 
L 2241 4666 
Q 2963 4666 3353 4366 
Q 3744 4066 3744 3513 
Q 3744 3084 3544 2831 
Q 3344 2578 2956 2516 
Q 3422 2416 3680 2098 
Q 3938 1781 3938 1306 
Q 3938 681 3513 340 
Q 3088 0 2303 0 
L 628 0 
L 628 4666 
z
" transform="scale(0.015625)"/>
      <path id="DejaVuSans-64" d="M 2906 2969 
L 2906 4863 
L 3481 4863 
L 3481 0 
L 2906 0 
L 2906 525 
Q 2725 213 2448 61 
Q 2172 -91 1784 -91 
Q 1150 -91 751 415 
Q 353 922 353 1747 
Q 353 2572 751 3078 
Q 1150 3584 1784 3584 
Q 2172 3584 2448 3432 
Q 2725 3281 2906 2969 
z
M 947 1747 
Q 947 1113 1208 752 
Q 1469 391 1925 391 
Q 2381 391 2643 752 
Q 2906 1113 2906 1747 
Q 2906 2381 2643 2742 
Q 2381 3103 1925 3103 
Q 1469 3103 1208 2742 
Q 947 2381 947 1747 
z
" transform="scale(0.015625)"/>
      <path id="DejaVuSans-53" d="M 3425 4513 
L 3425 3897 
Q 3066 4069 2747 4153 
Q 2428 4238 2131 4238 
Q 1616 4238 1336 4038 
Q 1056 3838 1056 3469 
Q 1056 3159 1242 3001 
Q 1428 2844 1947 2747 
L 2328 2669 
Q 3034 2534 3370 2195 
Q 3706 1856 3706 1288 
Q 3706 609 3251 259 
Q 2797 -91 1919 -91 
Q 1588 -91 1214 -16 
Q 841 59 441 206 
L 441 856 
Q 825 641 1194 531 
Q 1563 422 1919 422 
Q 2459 422 2753 634 
Q 3047 847 3047 1241 
Q 3047 1584 2836 1778 
Q 2625 1972 2144 2069 
L 1759 2144 
Q 1053 2284 737 2584 
Q 422 2884 422 3419 
Q 422 4038 858 4394 
Q 1294 4750 2059 4750 
Q 2388 4750 2728 4690 
Q 3069 4631 3425 4513 
z
" transform="scale(0.015625)"/>
     </defs>
     <use xlink:href="#DejaVuSans-46"/>
     <use xlink:href="#DejaVuSans-72" x="50.269531"/>
     <use xlink:href="#DejaVuSans-61" x="91.382812"/>
     <use xlink:href="#DejaVuSans-63" x="152.662109"/>
     <use xlink:href="#DejaVuSans-74" x="207.642578"/>
     <use xlink:href="#DejaVuSans-69" x="246.851562"/>
     <use xlink:href="#DejaVuSans-6f" x="274.634766"/>
     <use xlink:href="#DejaVuSans-6e" x="335.816406"/>
     <use xlink:href="#DejaVuSans-20" x="399.195312"/>
     <use xlink:href="#DejaVuSans-6f" x="430.982422"/>
     <use xlink:href="#DejaVuSans-66" x="492.164062"/>
     <use xlink:href="#DejaVuSans-20" x="527.369141"/>
     <use xlink:href="#DejaVuSans-4f" x="559.15625"/>
     <use xlink:href="#DejaVuSans-76" x="637.867188"/>
     <use xlink:href="#DejaVuSans-65" x="697.046875"/>
     <use xlink:href="#DejaVuSans-72" x="758.570312"/>
     <use xlink:href="#DejaVuSans-6c" x="799.683594"/>
     <use xlink:href="#DejaVuSans-61" x="827.466797"/>
     <use xlink:href="#DejaVuSans-70" x="888.746094"/>
     <use xlink:href="#DejaVuSans-70" x="952.222656"/>
     <use xlink:href="#DejaVuSans-69" x="1015.699219"/>
     <use xlink:href="#DejaVuSans-6e" x="1043.482422"/>
     <use xlink:href="#DejaVuSans-67" x="1106.861328"/>
     <use xlink:href="#DejaVuSans-20" x="1170.337891"/>
     <use xlink:href="#DejaVuSans-48" x="1202.125"/>
     <use xlink:href="#DejaVuSans-69" x="1277.320312"/>
     <use xlink:href="#DejaVuSans-74" x="1305.103516"/>
     <use xlink:href="#DejaVuSans-73" x="1344.3125"/>
     <use xlink:href="#DejaVuSans-20" x="1396.412109"/>
     <use xlink:href="#DejaVuSans-69" x="1428.199219"/>
     <use xlink:href="#DejaVuSans-6e" x="1455.982422"/>
     <use xlink:href="#DejaVuSans-20" x="1519.361328"/>
     <use xlink:href="#DejaVuSans-42" x="1551.148438"/>
     <use xlink:href="#DejaVuSans-6f" x="1619.751953"/>
     <use xlink:href="#DejaVuSans-6f" x="1680.933594"/>
     <use xlink:href="#DejaVuSans-74" x="1742.115234"/>
     <use xlink:href="#DejaVuSans-73" x="1781.324219"/>
     <use xlink:href="#DejaVuSans-74" x="1833.423828"/>
     <use xlink:href="#DejaVuSans-72" x="1872.632812"/>
     <use xlink:href="#DejaVuSans-61" x="1913.746094"/>
     <use xlink:href="#DejaVuSans-70" x="1975.025391"/>
     <use xlink:href="#DejaVuSans-73" x="2038.501953"/>
     <use xlink:href="#DejaVuSans-20" x="2090.601562"/>
     <use xlink:href="#DejaVuSans-63" x="2122.388672"/>
     <use xlink:href="#DejaVuSans-6f" x="2177.369141"/>
     <use xlink:href="#DejaVuSans-6d" x="2238.550781"/>
     <use xlink:href="#DejaVuSans-70" x="2335.962891"/>
     <use xlink:href="#DejaVuSans-61" x="2399.439453"/>
     <use xlink:href="#DejaVuSans-72" x="2460.71875"/>
     <use xlink:href="#DejaVuSans-65" x="2499.582031"/>
     <use xlink:href="#DejaVuSans-64" x="2561.105469"/>
     <use xlink:href="#DejaVuSans-20" x="2624.582031"/>
     <use xlink:href="#DejaVuSans-74" x="2656.369141"/>
     <use xlink:href="#DejaVuSans-6f" x="2695.578125"/>
     <use xlink:href="#DejaVuSans-20" x="2756.759766"/>
     <use xlink:href="#DejaVuSans-53" x="2788.546875"/>
     <use xlink:href="#DejaVuSans-74" x="2852.023438"/>
     <use xlink:href="#DejaVuSans-61" x="2891.232422"/>
     <use xlink:href="#DejaVuSans-6e" x="2952.511719"/>
     <use xlink:href="#DejaVuSans-64" x="3015.890625"/>
     <use xlink:href="#DejaVuSans-61" x="3079.367188"/>
     <use xlink:href="#DejaVuSans-72" x="3140.646484"/>
     <use xlink:href="#DejaVuSans-64" x="3180.009766"/>
    </g>
   </g>
  </g>
 </g>
 <defs>
  <clipPath id="p071dee529e">
   <rect x="37.85" y="18" width="249.43" height="91.24"/>
  </clipPath>
 </defs>
</svg>
