<?xml version="1.0" encoding="utf-8" standalone="no"?>
<!DOCTYPE svg PUBLIC "-//W3C//DTD SVG 1.1//EN"
  "http://www.w3.org/Graphics/SVG/1.1/DTD/svg11.dtd">
<svg xmlns:xlink="http://www.w3.org/1999/xlink" width="440.64pt" height="207.36pt" viewBox="0 0 440.64 207.36" xmlns="http://www.w3.org/2000/svg" version="1.1">
 <metadata>
  <rdf:RDF xmlns:dc="http://purl.org/dc/elements/1.1/" xmlns:cc="http://creativecommons.org/ns#" xmlns:rdf="http://www.w3.org/1999/02/22-rdf-syntax-ns#">
   <cc:Work>
    <dc:type rdf:resource="http://purl.org/dc/dcmitype/StillImage"/>
    <dc:date>2024-07-18T09:17:52.552111</dc:date>
    <dc:format>image/svg+xml</dc:format>
    <dc:creator>
     <cc:Agent>
      <dc:title>Matplotlib v3.9.1, https://matplotlib.org/</dc:title>
     </cc:Agent>
    </dc:creator>
   </cc:Work>
  </rdf:RDF>
 </metadata>
 <defs>
  <style type="text/css">*{stroke-linejoin: round; stroke-linecap: butt}</style>
 </defs>
 <g id="figure_1">
  <g id="patch_1">
   <path d="M 0 207.36 
L 440.64 207.36 
L 440.64 0 
L 0 0 
z
" style="fill: #ffffff"/>
  </g>
  <g id="axes_1">
   <g id="patch_2">
    <path d="M 32.81 178.36 
L 434.16 178.36 
L 434.16 18 
L 32.81 18 
z
" style="fill: #ffffff"/>
   </g>
   <g id="PolyCollection_1">
    <path d="M 53.486839 187.637423 
L 52.268161 187.637423 
L 52.076903 186.987201 
L 51.845429 186.336979 
L 51.571886 185.686756 
L 51.256382 185.036534 
L 50.90137 184.386312 
L 50.511866 183.73609 
L 50.095415 183.085868 
L 49.661781 182.435646 
L 49.222357 181.785424 
L 48.78934 181.135202 
L 48.374768 180.48498 
L 47.989548 179.834758 
L 47.642609 179.184535 
L 47.340321 178.534313 
L 47.086283 177.884091 
L 46.881497 177.233869 
L 46.724915 176.583647 
L 46.614245 175.933425 
L 46.546867 175.283203 
L 46.520673 174.632981 
L 46.534674 173.982759 
L 46.589241 173.332536 
L 46.68593 172.682314 
L 46.826924 172.032092 
L 47.014188 171.38187 
L 47.248498 170.731648 
L 47.528516 170.081426 
L 47.850093 169.431204 
L 48.205913 168.780982 
L 48.585546 168.13076 
L 48.975907 167.480538 
L 49.362054 166.830315 
L 49.728219 166.180093 
L 50.058938 165.529871 
L 50.340163 164.879649 
L 50.560241 164.229427 
L 50.710699 163.579205 
L 50.786776 162.928983 
L 50.787692 162.278761 
L 50.716655 161.628539 
L 50.580612 160.978316 
L 50.389766 160.328094 
L 50.156883 159.677872 
L 49.896423 159.02765 
L 49.623556 158.377428 
L 49.353123 157.727206 
L 49.098642 157.076984 
L 48.871451 156.426762 
L 48.68009 155.77654 
L 48.529984 155.126318 
L 48.423474 154.476095 
L 48.360174 153.825873 
L 48.337589 153.175651 
L 48.351899 152.525429 
L 48.398752 151.875207 
L 48.473942 151.224985 
L 48.573847 150.574763 
L 48.695559 149.924541 
L 48.836669 149.274319 
L 48.994763 148.624096 
L 49.1667 147.973874 
L 49.347796 147.323652 
L 49.531046 146.67343 
L 49.706508 146.023208 
L 49.860948 145.372986 
L 49.977836 144.722764 
L 50.037719 144.072542 
L 50.019009 143.42232 
L 49.899175 142.772098 
L 49.656301 142.121875 
L 49.270972 141.471653 
L 48.728377 140.821431 
L 48.020496 140.171209 
L 47.148189 139.520987 
L 46.122926 138.870765 
L 44.967915 138.220543 
L 43.718351 137.570321 
L 42.420573 136.920099 
L 41.130024 136.269876 
L 39.908037 135.619654 
L 38.817639 134.969432 
L 37.91874 134.31921 
L 37.263207 133.668988 
L 36.890367 133.018766 
L 36.8235 132.368544 
L 37.067779 131.718322 
L 37.609903 131.0681 
L 38.419494 130.417878 
L 39.452068 129.767655 
L 40.653183 129.117433 
L 41.963251 128.467211 
L 43.322433 127.816989 
L 44.675065 127.166767 
L 45.973191 126.516545 
L 47.178937 125.866323 
L 48.265621 125.216101 
L 49.217698 124.565879 
L 50.029734 123.915656 
L 50.704709 123.265434 
L 55.050291 123.265434 
L 55.050291 123.265434 
L 55.725266 123.915656 
L 56.537302 124.565879 
L 57.489379 125.216101 
L 58.576063 125.866323 
L 59.781809 126.516545 
L 61.079935 127.166767 
L 62.432567 127.816989 
L 63.791749 128.467211 
L 65.101817 129.117433 
L 66.302932 129.767655 
L 67.335506 130.417878 
L 68.145097 131.0681 
L 68.687221 131.718322 
L 68.9315 132.368544 
L 68.864633 133.018766 
L 68.491793 133.668988 
L 67.83626 134.31921 
L 66.937361 134.969432 
L 65.846963 135.619654 
L 64.624976 136.269876 
L 63.334427 136.920099 
L 62.036649 137.570321 
L 60.787085 138.220543 
L 59.632074 138.870765 
L 58.606811 139.520987 
L 57.734504 140.171209 
L 57.026623 140.821431 
L 56.484028 141.471653 
L 56.098699 142.121875 
L 55.855825 142.772098 
L 55.735991 143.42232 
L 55.717281 144.072542 
L 55.777164 144.722764 
L 55.894052 145.372986 
L 56.048492 146.023208 
L 56.223954 146.67343 
L 56.407204 147.323652 
L 56.5883 147.973874 
L 56.760237 148.624096 
L 56.918331 149.274319 
L 57.059441 149.924541 
L 57.181153 150.574763 
L 57.281058 151.224985 
L 57.356248 151.875207 
L 57.403101 152.525429 
L 57.417411 153.175651 
L 57.394826 153.825873 
L 57.331526 154.476095 
L 57.225016 155.126318 
L 57.07491 155.77654 
L 56.883549 156.426762 
L 56.656358 157.076984 
L 56.401877 157.727206 
L 56.131444 158.377428 
L 55.858577 159.02765 
L 55.598117 159.677872 
L 55.365234 160.328094 
L 55.174388 160.978316 
L 55.038345 161.628539 
L 54.967308 162.278761 
L 54.968224 162.928983 
L 55.044301 163.579205 
L 55.194759 164.229427 
L 55.414837 164.879649 
L 55.696062 165.529871 
L 56.026781 166.180093 
L 56.392946 166.830315 
L 56.779093 167.480538 
L 57.169454 168.13076 
L 57.549087 168.780982 
L 57.904907 169.431204 
L 58.226484 170.081426 
L 58.506502 170.731648 
L 58.740812 171.38187 
L 58.928076 172.032092 
L 59.06907 172.682314 
L 59.165759 173.332536 
L 59.220326 173.982759 
L 59.234327 174.632981 
L 59.208133 175.283203 
L 59.140755 175.933425 
L 59.030085 176.583647 
L 58.873503 177.233869 
L 58.668717 177.884091 
L 58.414679 178.534313 
L 58.112391 179.184535 
L 57.765452 179.834758 
L 57.380232 180.48498 
L 56.96566 181.135202 
L 56.532643 181.785424 
L 56.093219 182.435646 
L 55.659585 183.085868 
L 55.243134 183.73609 
L 54.85363 184.386312 
L 54.498618 185.036534 
L 54.183114 185.686756 
L 53.909571 186.336979 
L 53.678097 186.987201 
L 53.486839 187.637423 
L 53.486839 187.637423 
z
" clip-path="url(#p3df709e95e)" style="fill: none; stroke: #fa8072; stroke-opacity: 0.8; stroke-width: 2"/>
   </g>
   <g id="PolyCollection_2">
    <path d="M 93.3513 185.611871 
L 92.6737 185.611871 
L 92.529905 184.30837 
L 92.34364 183.004869 
L 92.110067 181.701368 
L 91.826583 180.397867 
L 91.493693 179.094366 
L 91.115697 177.790865 
L 90.70106 176.487364 
L 90.262358 175.183863 
L 89.815786 173.880362 
L 89.38022 172.576861 
L 88.975938 171.27336 
L 88.62309 169.969859 
L 88.340063 168.666358 
L 88.141869 167.362857 
L 88.038702 166.059356 
L 88.034821 164.755855 
L 88.127871 163.452354 
L 88.308788 162.148853 
L 88.562335 160.845352 
L 88.868268 159.541851 
L 89.20302 158.23835 
L 89.541707 156.934849 
L 89.860219 155.631348 
L 90.137124 154.327847 
L 90.355186 153.024346 
L 90.502361 151.720845 
L 90.572255 150.417344 
L 90.564087 149.113843 
L 90.482272 147.810342 
L 90.335753 146.506841 
L 90.137193 145.20334 
L 89.9021 143.899839 
L 89.647915 142.596338 
L 89.393077 141.292837 
L 89.156034 139.989336 
L 88.954194 138.685835 
L 88.80281 137.382334 
L 88.713869 136.078833 
L 88.69505 134.775332 
L 88.748902 133.471831 
L 88.872385 132.16833 
L 89.0569 130.864829 
L 89.288872 129.561328 
L 89.550875 128.257827 
L 89.823177 126.954326 
L 90.085515 125.650825 
L 90.318866 124.347324 
L 90.506998 123.043823 
L 90.637647 121.740322 
L 90.703207 120.436821 
L 90.700952 119.13332 
L 90.632819 117.829819 
L 90.504857 116.526318 
L 90.32643 115.222817 
L 90.109283 113.919316 
L 89.866549 112.615815 
L 89.611788 111.312314 
L 89.358111 110.008813 
L 89.117451 108.705312 
L 88.900021 107.401811 
L 88.713964 106.09831 
L 88.565209 104.794809 
L 88.457503 103.491308 
L 88.392596 102.187807 
L 88.370545 100.884306 
L 88.390092 99.580805 
L 88.449073 98.277304 
L 88.544812 96.973803 
L 88.674442 95.670302 
L 88.835107 94.366801 
L 89.024016 93.0633 
L 89.238344 91.759799 
L 89.474996 90.456298 
L 89.730307 89.152797 
L 89.999764 87.849296 
L 90.277853 86.545795 
L 90.558106 85.242294 
L 90.833401 83.938793 
L 91.096503 82.635292 
L 91.340763 81.331791 
L 91.560857 80.02829 
L 91.753398 78.724789 
L 91.917304 77.421288 
L 92.05382 76.117787 
L 92.166184 74.814286 
L 92.259003 73.510785 
L 92.337464 72.207284 
L 92.406538 70.903783 
L 92.470322 69.600282 
L 92.531627 68.296781 
L 92.591851 66.99328 
L 92.651124 65.689779 
L 92.708638 64.386278 
L 92.763067 63.082777 
L 92.812991 61.779276 
L 92.857226 60.475775 
L 92.895028 59.172274 
L 92.926169 57.868773 
L 92.9509 56.565272 
L 93.0741 56.565272 
L 93.0741 56.565272 
L 93.098831 57.868773 
L 93.129972 59.172274 
L 93.167774 60.475775 
L 93.212009 61.779276 
L 93.261933 63.082777 
L 93.316362 64.386278 
L 93.373876 65.689779 
L 93.433149 66.99328 
L 93.493373 68.296781 
L 93.554678 69.600282 
L 93.618462 70.903783 
L 93.687536 72.207284 
L 93.765997 73.510785 
L 93.858816 74.814286 
L 93.97118 76.117787 
L 94.107696 77.421288 
L 94.271602 78.724789 
L 94.464143 80.02829 
L 94.684237 81.331791 
L 94.928497 82.635292 
L 95.191599 83.938793 
L 95.466894 85.242294 
L 95.747147 86.545795 
L 96.025236 87.849296 
L 96.294693 89.152797 
L 96.550004 90.456298 
L 96.786656 91.759799 
L 97.000984 93.0633 
L 97.189893 94.366801 
L 97.350558 95.670302 
L 97.480188 96.973803 
L 97.575927 98.277304 
L 97.634908 99.580805 
L 97.654455 100.884306 
L 97.632404 102.187807 
L 97.567497 103.491308 
L 97.459791 104.794809 
L 97.311036 106.09831 
L 97.124979 107.401811 
L 96.907549 108.705312 
L 96.666889 110.008813 
L 96.413212 111.312314 
L 96.158451 112.615815 
L 95.915717 113.919316 
L 95.69857 115.222817 
L 95.520143 116.526318 
L 95.392181 117.829819 
L 95.324048 119.13332 
L 95.321793 120.436821 
L 95.387353 121.740322 
L 95.518002 123.043823 
L 95.706134 124.347324 
L 95.939485 125.650825 
L 96.201823 126.954326 
L 96.474125 128.257827 
L 96.736128 129.561328 
L 96.9681 130.864829 
L 97.152615 132.16833 
L 97.276098 133.471831 
L 97.32995 134.775332 
L 97.311131 136.078833 
L 97.22219 137.382334 
L 97.070806 138.685835 
L 96.868966 139.989336 
L 96.631923 141.292837 
L 96.377085 142.596338 
L 96.1229 143.899839 
L 95.887807 145.20334 
L 95.689247 146.506841 
L 95.542728 147.810342 
L 95.460913 149.113843 
L 95.452745 150.417344 
L 95.522639 151.720845 
L 95.669814 153.024346 
L 95.887876 154.327847 
L 96.164781 155.631348 
L 96.483293 156.934849 
L 96.82198 158.23835 
L 97.156732 159.541851 
L 97.462665 160.845352 
L 97.716212 162.148853 
L 97.897129 163.452354 
L 97.990179 164.755855 
L 97.986298 166.059356 
L 97.883131 167.362857 
L 97.684937 168.666358 
L 97.40191 169.969859 
L 97.049062 171.27336 
L 96.64478 172.576861 
L 96.209214 173.880362 
L 95.762642 175.183863 
L 95.32394 176.487364 
L 94.909303 177.790865 
L 94.531307 179.094366 
L 94.198417 180.397867 
L 93.914933 181.701368 
L 93.68136 183.004869 
L 93.495095 184.30837 
L 93.3513 185.611871 
L 93.3513 185.611871 
z
" clip-path="url(#p3df709e95e)" style="fill: none; stroke: #fa8072; stroke-opacity: 0.8; stroke-width: 2"/>
   </g>
   <g id="PolyCollection_3">
    <path d="M 133.268953 184.598619 
L 133.026047 184.598619 
L 132.958554 183.007055 
L 132.867799 181.415491 
L 132.753116 179.823927 
L 132.617088 178.232362 
L 132.465773 176.640798 
L 132.30792 175.049234 
L 132.153134 173.45767 
L 132.009362 171.866106 
L 131.880451 170.274541 
L 131.764597 168.682977 
L 131.654279 167.091413 
L 131.537789 165.499849 
L 131.401887 163.908284 
L 131.234751 162.31672 
L 131.028336 160.725156 
L 130.779537 159.133592 
L 130.490047 157.542028 
L 130.165239 155.950463 
L 129.812621 154.358899 
L 129.440451 152.767335 
L 129.056852 151.175771 
L 128.669552 149.584207 
L 128.286155 147.992642 
L 127.91475 146.401078 
L 127.564644 144.809514 
L 127.246974 143.21795 
L 126.974973 141.626385 
L 126.763654 140.034821 
L 126.628709 138.443257 
L 126.584539 136.851693 
L 126.641542 135.260129 
L 126.803163 133.668564 
L 127.063532 132.077 
L 127.406611 130.485436 
L 127.80754 128.893872 
L 128.236143 127.302307 
L 128.661782 125.710743 
L 129.058149 124.119179 
L 129.406574 122.527615 
L 129.696967 120.936051 
L 129.926422 119.344486 
L 130.096363 117.752922 
L 130.209552 116.161358 
L 130.268217 114.569794 
L 130.273968 112.978229 
L 130.229384 111.386665 
L 130.140411 109.795101 
L 130.018328 108.203537 
L 129.880184 106.611973 
L 129.747165 105.020408 
L 129.641196 103.428844 
L 129.580805 101.83728 
L 129.577561 100.245716 
L 129.634204 98.654151 
L 129.744915 97.062587 
L 129.89743 95.471023 
L 130.076175 93.879459 
L 130.26547 92.287895 
L 130.452064 90.69633 
L 130.626687 89.104766 
L 130.784596 87.513202 
L 130.925341 85.921638 
L 131.051963 84.330074 
L 131.169839 82.738509 
L 131.285352 81.146945 
L 131.404575 79.555381 
L 131.532156 77.963817 
L 131.670581 76.372252 
L 131.819896 74.780688 
L 131.977864 73.189124 
L 132.140432 71.59756 
L 132.302399 70.005996 
L 132.458119 68.414431 
L 132.602196 66.822867 
L 132.730081 65.231303 
L 132.838505 63.639739 
L 132.925681 62.048174 
L 132.991206 60.45661 
L 133.035723 58.865046 
L 133.060435 57.273482 
L 133.066669 55.681918 
L 133.055685 54.090353 
L 133.028815 52.498789 
L 132.987937 50.907225 
L 132.936067 49.315661 
L 132.877819 47.724096 
L 132.819417 46.132532 
L 132.768096 44.540968 
L 132.730949 42.949404 
L 132.713503 41.35784 
L 132.718471 39.766275 
L 132.745113 38.174711 
L 132.789446 36.583147 
L 132.845229 34.991583 
L 132.905404 33.400018 
L 132.963541 31.808454 
L 133.014884 30.21689 
L 133.056799 28.625326 
L 133.088647 27.033762 
L 133.206353 27.033762 
L 133.206353 27.033762 
L 133.238201 28.625326 
L 133.280116 30.21689 
L 133.331459 31.808454 
L 133.389596 33.400018 
L 133.449771 34.991583 
L 133.505554 36.583147 
L 133.549887 38.174711 
L 133.576529 39.766275 
L 133.581497 41.35784 
L 133.564051 42.949404 
L 133.526904 44.540968 
L 133.475583 46.132532 
L 133.417181 47.724096 
L 133.358933 49.315661 
L 133.307063 50.907225 
L 133.266185 52.498789 
L 133.239315 54.090353 
L 133.228331 55.681918 
L 133.234565 57.273482 
L 133.259277 58.865046 
L 133.303794 60.45661 
L 133.369319 62.048174 
L 133.456495 63.639739 
L 133.564919 65.231303 
L 133.692804 66.822867 
L 133.836881 68.414431 
L 133.992601 70.005996 
L 134.154568 71.59756 
L 134.317136 73.189124 
L 134.475104 74.780688 
L 134.624419 76.372252 
L 134.762844 77.963817 
L 134.890425 79.555381 
L 135.009648 81.146945 
L 135.125161 82.738509 
L 135.243037 84.330074 
L 135.369659 85.921638 
L 135.510404 87.513202 
L 135.668313 89.104766 
L 135.842936 90.69633 
L 136.02953 92.287895 
L 136.218825 93.879459 
L 136.39757 95.471023 
L 136.550085 97.062587 
L 136.660796 98.654151 
L 136.717439 100.245716 
L 136.714195 101.83728 
L 136.653804 103.428844 
L 136.547835 105.020408 
L 136.414816 106.611973 
L 136.276672 108.203537 
L 136.154589 109.795101 
L 136.065616 111.386665 
L 136.021032 112.978229 
L 136.026783 114.569794 
L 136.085448 116.161358 
L 136.198637 117.752922 
L 136.368578 119.344486 
L 136.598033 120.936051 
L 136.888426 122.527615 
L 137.236851 124.119179 
L 137.633218 125.710743 
L 138.058857 127.302307 
L 138.48746 128.893872 
L 138.888389 130.485436 
L 139.231468 132.077 
L 139.491837 133.668564 
L 139.653458 135.260129 
L 139.710461 136.851693 
L 139.666291 138.443257 
L 139.531346 140.034821 
L 139.320027 141.626385 
L 139.048026 143.21795 
L 138.730356 144.809514 
L 138.38025 146.401078 
L 138.008845 147.992642 
L 137.625448 149.584207 
L 137.238148 151.175771 
L 136.854549 152.767335 
L 136.482379 154.358899 
L 136.129761 155.950463 
L 135.804953 157.542028 
L 135.515463 159.133592 
L 135.266664 160.725156 
L 135.060249 162.31672 
L 134.893113 163.908284 
L 134.757211 165.499849 
L 134.640721 167.091413 
L 134.530403 168.682977 
L 134.414549 170.274541 
L 134.285638 171.866106 
L 134.141866 173.45767 
L 133.98708 175.049234 
L 133.829227 176.640798 
L 133.677912 178.232362 
L 133.541884 179.823927 
L 133.427201 181.415491 
L 133.336446 183.007055 
L 133.268953 184.598619 
L 133.268953 184.598619 
z
" clip-path="url(#p3df709e95e)" style="fill: none; stroke: #fa8072; stroke-opacity: 0.8; stroke-width: 2"/>
   </g>
   <g id="PolyCollection_4">
    <path d="M 173.345085 179.246833 
L 173.219915 179.246833 
L 173.186749 177.609119 
L 173.140736 175.971405 
L 173.079071 174.333692 
L 172.999064 172.695978 
L 172.898304 171.058264 
L 172.77477 169.42055 
L 172.626859 167.782836 
L 172.453389 166.145123 
L 172.253598 164.507409 
L 172.027259 162.869695 
L 171.77495 161.231981 
L 171.498503 159.594267 
L 171.201566 157.956554 
L 170.890143 156.31884 
L 170.572913 154.681126 
L 170.261163 153.043412 
L 169.96822 151.405698 
L 169.708369 149.767985 
L 169.495375 148.130271 
L 169.340816 146.492557 
L 169.252468 144.854843 
L 169.233014 143.217129 
L 169.27926 141.579416 
L 169.382036 139.941702 
L 169.52681 138.303988 
L 169.69504 136.666274 
L 169.866122 135.02856 
L 170.019767 133.390847 
L 170.138512 131.753133 
L 170.210027 130.115419 
L 170.228852 128.477705 
L 170.197191 126.839991 
L 170.124502 125.202278 
L 170.025802 123.564564 
L 169.918831 121.92685 
L 169.820572 120.289136 
L 169.743864 118.651422 
L 169.694938 117.013709 
L 169.672605 115.375995 
L 169.669384 113.738281 
L 169.674317 112.100567 
L 169.676653 110.462853 
L 169.669267 108.82514 
L 169.650727 107.187426 
L 169.625402 105.549712 
L 169.601633 103.911998 
L 169.588697 102.274284 
L 169.593643 100.636571 
L 169.61911 98.998857 
L 169.662775 97.361143 
L 169.718501 95.723429 
L 169.778628 94.085716 
L 169.836546 92.448002 
L 169.888669 90.810288 
L 169.935241 89.172574 
L 169.979869 87.53486 
L 170.028097 85.897147 
L 170.085568 84.259433 
L 170.156358 82.621719 
L 170.2419 80.984005 
L 170.340656 79.346291 
L 170.448498 77.708578 
L 170.559577 76.070864 
L 170.667442 74.43315 
L 170.766189 72.795436 
L 170.851468 71.157722 
L 170.921265 69.520009 
L 170.976379 67.882295 
L 171.02054 66.244581 
L 171.060109 64.606867 
L 171.10334 62.969153 
L 171.159212 61.33144 
L 171.235974 59.693726 
L 171.339605 58.056012 
L 171.472511 56.418298 
L 171.632749 54.780584 
L 171.814017 53.142871 
L 172.006465 51.505157 
L 172.198206 49.867443 
L 172.377204 48.229729 
L 172.533169 46.592015 
L 172.659072 44.954302 
L 172.75201 43.316588 
L 172.813323 41.678874 
L 172.847998 40.04116 
L 172.863539 38.403446 
L 172.868547 36.765733 
L 172.871282 35.128019 
L 172.878451 33.490305 
L 172.894402 31.852591 
L 172.920834 30.214877 
L 172.95701 28.577164 
L 173.000359 26.93945 
L 173.047308 25.301736 
L 173.094124 23.664022 
L 173.137602 22.026308 
L 173.175493 20.388595 
L 173.206641 18.750881 
L 173.230882 17.113167 
L 173.334118 17.113167 
L 173.334118 17.113167 
L 173.358359 18.750881 
L 173.389507 20.388595 
L 173.427398 22.026308 
L 173.470876 23.664022 
L 173.517692 25.301736 
L 173.564641 26.93945 
L 173.60799 28.577164 
L 173.644166 30.214877 
L 173.670598 31.852591 
L 173.686549 33.490305 
L 173.693718 35.128019 
L 173.696453 36.765733 
L 173.701461 38.403446 
L 173.717002 40.04116 
L 173.751677 41.678874 
L 173.81299 43.316588 
L 173.905928 44.954302 
L 174.031831 46.592015 
L 174.187796 48.229729 
L 174.366794 49.867443 
L 174.558535 51.505157 
L 174.750983 53.142871 
L 174.932251 54.780584 
L 175.092489 56.418298 
L 175.225395 58.056012 
L 175.329026 59.693726 
L 175.405788 61.33144 
L 175.46166 62.969153 
L 175.504891 64.606867 
L 175.54446 66.244581 
L 175.588621 67.882295 
L 175.643735 69.520009 
L 175.713532 71.157722 
L 175.798811 72.795436 
L 175.897558 74.43315 
L 176.005423 76.070864 
L 176.116502 77.708578 
L 176.224344 79.346291 
L 176.3231 80.984005 
L 176.408642 82.621719 
L 176.479432 84.259433 
L 176.536903 85.897147 
L 176.585131 87.53486 
L 176.629759 89.172574 
L 176.676331 90.810288 
L 176.728454 92.448002 
L 176.786372 94.085716 
L 176.846499 95.723429 
L 176.902225 97.361143 
L 176.94589 98.998857 
L 176.971357 100.636571 
L 176.976303 102.274284 
L 176.963367 103.911998 
L 176.939598 105.549712 
L 176.914273 107.187426 
L 176.895733 108.82514 
L 176.888347 110.462853 
L 176.890683 112.100567 
L 176.895616 113.738281 
L 176.892395 115.375995 
L 176.870062 117.013709 
L 176.821136 118.651422 
L 176.744428 120.289136 
L 176.646169 121.92685 
L 176.539198 123.564564 
L 176.440498 125.202278 
L 176.367809 126.839991 
L 176.336148 128.477705 
L 176.354973 130.115419 
L 176.426488 131.753133 
L 176.545233 133.390847 
L 176.698878 135.02856 
L 176.86996 136.666274 
L 177.03819 138.303988 
L 177.182964 139.941702 
L 177.28574 141.579416 
L 177.331986 143.217129 
L 177.312532 144.854843 
L 177.224184 146.492557 
L 177.069625 148.130271 
L 176.856631 149.767985 
L 176.59678 151.405698 
L 176.303837 153.043412 
L 175.992087 154.681126 
L 175.674857 156.31884 
L 175.363434 157.956554 
L 175.066497 159.594267 
L 174.79005 161.231981 
L 174.537741 162.869695 
L 174.311402 164.507409 
L 174.111611 166.145123 
L 173.938141 167.782836 
L 173.79023 169.42055 
L 173.666696 171.058264 
L 173.565936 172.695978 
L 173.485929 174.333692 
L 173.424264 175.971405 
L 173.378251 177.609119 
L 173.345085 179.246833 
L 173.345085 179.246833 
z
" clip-path="url(#p3df709e95e)" style="fill: none; stroke: #fa8072; stroke-opacity: 0.8; stroke-width: 2"/>
   </g>
   <g id="PolyCollection_5">
    <path d="M 213.461844 188.926453 
L 213.373156 188.926453 
L 213.353245 187.170324 
L 213.32767 185.414196 
L 213.296261 183.658067 
L 213.259402 181.901939 
L 213.218081 180.14581 
L 213.173798 178.389682 
L 213.128325 176.633554 
L 213.083334 174.877425 
L 213.039958 173.121297 
L 212.998401 171.365168 
L 212.957701 169.60904 
L 212.915737 167.852911 
L 212.869502 166.096783 
L 212.815609 164.340655 
L 212.750907 162.584526 
L 212.67306 160.828398 
L 212.580962 159.072269 
L 212.474861 157.316141 
L 212.356176 155.560012 
L 212.227045 153.803884 
L 212.089698 152.047755 
L 211.945823 150.291627 
L 211.796053 148.535499 
L 211.639733 146.77937 
L 211.47505 145.023242 
L 211.299546 143.267113 
L 211.110985 141.510985 
L 210.908411 139.754856 
L 210.693221 137.998728 
L 210.469975 136.2426 
L 210.246699 134.486471 
L 210.034493 132.730343 
L 209.846385 130.974214 
L 209.695559 129.218086 
L 209.593255 127.461957 
L 209.546782 125.705829 
L 209.558094 123.949701 
L 209.62327 122.193572 
L 209.733056 120.437444 
L 209.874313 118.681315 
L 210.03205 116.925187 
L 210.191557 115.169058 
L 210.340229 113.41293 
L 210.468778 111.656802 
L 210.571762 109.900673 
L 210.647537 108.144545 
L 210.697829 106.388416 
L 210.727115 104.632288 
L 210.741934 102.876159 
L 210.750119 101.120031 
L 210.759921 99.363903 
L 210.778956 97.607774 
L 210.81301 95.851646 
L 210.864847 94.095517 
L 210.933238 92.339389 
L 211.012487 90.58326 
L 211.092678 88.827132 
L 211.160736 87.071004 
L 211.202254 85.314875 
L 211.203831 83.558747 
L 211.155545 81.802618 
L 211.053099 80.04649 
L 210.899196 78.290361 
L 210.703826 76.534233 
L 210.483309 74.778105 
L 210.258206 73.021976 
L 210.05042 71.265848 
L 209.879989 69.509719 
L 209.762152 67.753591 
L 209.705241 65.997462 
L 209.709793 64.241334 
L 209.769041 62.485206 
L 209.870663 60.729077 
L 209.999399 58.972949 
L 210.139974 57.21682 
L 210.279698 55.460692 
L 210.410252 53.704563 
L 210.528348 51.948435 
L 210.635289 50.192307 
L 210.73569 48.436178 
L 210.835799 46.68005 
L 210.941871 44.923921 
L 211.058945 43.167793 
L 211.190176 41.411664 
L 211.336685 39.655536 
L 211.497767 37.899408 
L 211.671249 36.143279 
L 211.853855 34.387151 
L 212.041511 32.631022 
L 212.229598 30.874894 
L 212.413233 29.118765 
L 212.587596 27.362637 
L 212.748321 25.606509 
L 212.891896 23.85038 
L 213.015985 22.094252 
L 213.119603 20.338123 
L 213.203104 18.581995 
L 213.267984 16.825866 
L 213.316554 15.069738 
L 213.518446 15.069738 
L 213.518446 15.069738 
L 213.567016 16.825866 
L 213.631896 18.581995 
L 213.715397 20.338123 
L 213.819015 22.094252 
L 213.943104 23.85038 
L 214.086679 25.606509 
L 214.247404 27.362637 
L 214.421767 29.118765 
L 214.605402 30.874894 
L 214.793489 32.631022 
L 214.981145 34.387151 
L 215.163751 36.143279 
L 215.337233 37.899408 
L 215.498315 39.655536 
L 215.644824 41.411664 
L 215.776055 43.167793 
L 215.893129 44.923921 
L 215.999201 46.68005 
L 216.09931 48.436178 
L 216.199711 50.192307 
L 216.306652 51.948435 
L 216.424748 53.704563 
L 216.555302 55.460692 
L 216.695026 57.21682 
L 216.835601 58.972949 
L 216.964337 60.729077 
L 217.065959 62.485206 
L 217.125207 64.241334 
L 217.129759 65.997462 
L 217.072848 67.753591 
L 216.955011 69.509719 
L 216.78458 71.265848 
L 216.576794 73.021976 
L 216.351691 74.778105 
L 216.131174 76.534233 
L 215.935804 78.290361 
L 215.781901 80.04649 
L 215.679455 81.802618 
L 215.631169 83.558747 
L 215.632746 85.314875 
L 215.674264 87.071004 
L 215.742322 88.827132 
L 215.822513 90.58326 
L 215.901762 92.339389 
L 215.970153 94.095517 
L 216.02199 95.851646 
L 216.056044 97.607774 
L 216.075079 99.363903 
L 216.084881 101.120031 
L 216.093066 102.876159 
L 216.107885 104.632288 
L 216.137171 106.388416 
L 216.187463 108.144545 
L 216.263238 109.900673 
L 216.366222 111.656802 
L 216.494771 113.41293 
L 216.643443 115.169058 
L 216.80295 116.925187 
L 216.960687 118.681315 
L 217.101944 120.437444 
L 217.21173 122.193572 
L 217.276906 123.949701 
L 217.288218 125.705829 
L 217.241745 127.461957 
L 217.139441 129.218086 
L 216.988615 130.974214 
L 216.800507 132.730343 
L 216.588301 134.486471 
L 216.365025 136.2426 
L 216.141779 137.998728 
L 215.926589 139.754856 
L 215.724015 141.510985 
L 215.535454 143.267113 
L 215.35995 145.023242 
L 215.195267 146.77937 
L 215.038947 148.535499 
L 214.889177 150.291627 
L 214.745302 152.047755 
L 214.607955 153.803884 
L 214.478824 155.560012 
L 214.360139 157.316141 
L 214.254038 159.072269 
L 214.16194 160.828398 
L 214.084093 162.584526 
L 214.019391 164.340655 
L 213.965498 166.096783 
L 213.919263 167.852911 
L 213.877299 169.60904 
L 213.836599 171.365168 
L 213.795042 173.121297 
L 213.751666 174.877425 
L 213.706675 176.633554 
L 213.661202 178.389682 
L 213.616919 180.14581 
L 213.575598 181.901939 
L 213.538739 183.658067 
L 213.50733 185.414196 
L 213.481755 187.170324 
L 213.461844 188.926453 
L 213.461844 188.926453 
z
" clip-path="url(#p3df709e95e)" style="fill: none; stroke: #fa8072; stroke-opacity: 0.8; stroke-width: 2"/>
   </g>
   <g id="PolyCollection_6">
    <path d="M 253.622724 154.162806 
L 253.482276 154.162806 
L 253.448199 152.877574 
L 253.401553 151.592342 
L 253.339435 150.30711 
L 253.258884 149.021877 
L 253.157096 147.736645 
L 253.031686 146.451413 
L 252.880982 145.166181 
L 252.704339 143.880948 
L 252.502433 142.595716 
L 252.27748 141.310484 
L 252.033334 140.025252 
L 251.77538 138.740019 
L 251.510214 137.454787 
L 251.245096 136.169555 
L 250.987248 134.884323 
L 250.743102 133.59909 
L 250.517658 132.313858 
L 250.314054 131.028626 
L 250.133467 129.743394 
L 249.975331 128.458161 
L 249.83782 127.172929 
L 249.718452 125.887697 
L 249.614663 124.602464 
L 249.524198 123.317232 
L 249.445238 122.032 
L 249.376249 120.746768 
L 249.315623 119.461535 
L 249.261247 118.176303 
L 249.210195 116.891071 
L 249.158663 115.605839 
L 249.102277 114.320606 
L 249.036752 113.035374 
L 248.958794 111.750142 
L 248.867064 110.46491 
L 248.762938 109.179677 
L 248.650865 107.894445 
L 248.538162 106.609213 
L 248.434245 105.323981 
L 248.349404 104.038748 
L 248.293343 102.753516 
L 248.273769 101.468284 
L 248.295284 100.183051 
L 248.358746 98.897819 
L 248.461188 97.612587 
L 248.596243 96.327355 
L 248.754964 95.042122 
L 248.926921 93.75689 
L 249.101409 92.471658 
L 249.268688 91.186426 
L 249.421117 89.901193 
L 249.554106 88.615961 
L 249.666733 87.330729 
L 249.761923 86.045497 
L 249.84607 84.760264 
L 249.928093 83.475032 
L 250.017995 82.1898 
L 250.125128 80.904568 
L 250.256461 79.619335 
L 250.415157 78.334103 
L 250.599766 77.048871 
L 250.804154 75.763639 
L 251.018198 74.478406 
L 251.229079 73.193174 
L 251.422911 71.907942 
L 251.586411 70.622709 
L 251.708374 69.337477 
L 251.780761 68.052245 
L 251.799357 66.767013 
L 251.764003 65.48178 
L 251.678463 64.196548 
L 251.549997 62.911316 
L 251.388696 61.626084 
L 251.206639 60.340851 
L 251.016938 59.055619 
L 250.832744 57.770387 
L 250.666318 56.485155 
L 250.528245 55.199922 
L 250.426893 53.91469 
L 250.368105 52.629458 
L 250.355151 51.344226 
L 250.388859 50.058993 
L 250.467875 48.773761 
L 250.588992 47.488529 
L 250.747502 46.203297 
L 250.937538 44.918064 
L 251.152407 43.632832 
L 251.384906 42.3476 
L 251.627614 41.062367 
L 251.873178 39.777135 
L 252.114592 38.491903 
L 252.345482 37.206671 
L 252.560376 35.921438 
L 252.75496 34.636206 
L 252.926266 33.350974 
L 253.072773 32.065742 
L 253.194382 30.780509 
L 253.292262 29.495277 
L 253.368592 28.210045 
L 253.426218 26.924813 
L 253.678782 26.924813 
L 253.678782 26.924813 
L 253.736408 28.210045 
L 253.812738 29.495277 
L 253.910618 30.780509 
L 254.032227 32.065742 
L 254.178734 33.350974 
L 254.35004 34.636206 
L 254.544624 35.921438 
L 254.759518 37.206671 
L 254.990408 38.491903 
L 255.231822 39.777135 
L 255.477386 41.062367 
L 255.720094 42.3476 
L 255.952593 43.632832 
L 256.167462 44.918064 
L 256.357498 46.203297 
L 256.516008 47.488529 
L 256.637125 48.773761 
L 256.716141 50.058993 
L 256.749849 51.344226 
L 256.736895 52.629458 
L 256.678107 53.91469 
L 256.576755 55.199922 
L 256.438682 56.485155 
L 256.272256 57.770387 
L 256.088062 59.055619 
L 255.898361 60.340851 
L 255.716304 61.626084 
L 255.555003 62.911316 
L 255.426537 64.196548 
L 255.340997 65.48178 
L 255.305643 66.767013 
L 255.324239 68.052245 
L 255.396626 69.337477 
L 255.518589 70.622709 
L 255.682089 71.907942 
L 255.875921 73.193174 
L 256.086802 74.478406 
L 256.300846 75.763639 
L 256.505234 77.048871 
L 256.689843 78.334103 
L 256.848539 79.619335 
L 256.979872 80.904568 
L 257.087005 82.1898 
L 257.176907 83.475032 
L 257.25893 84.760264 
L 257.343077 86.045497 
L 257.438267 87.330729 
L 257.550894 88.615961 
L 257.683883 89.901193 
L 257.836312 91.186426 
L 258.003591 92.471658 
L 258.178079 93.75689 
L 258.350036 95.042122 
L 258.508757 96.327355 
L 258.643812 97.612587 
L 258.746254 98.897819 
L 258.809716 100.183051 
L 258.831231 101.468284 
L 258.811657 102.753516 
L 258.755596 104.038748 
L 258.670755 105.323981 
L 258.566838 106.609213 
L 258.454135 107.894445 
L 258.342062 109.179677 
L 258.237936 110.46491 
L 258.146206 111.750142 
L 258.068248 113.035374 
L 258.002723 114.320606 
L 257.946337 115.605839 
L 257.894805 116.891071 
L 257.843753 118.176303 
L 257.789377 119.461535 
L 257.728751 120.746768 
L 257.659762 122.032 
L 257.580802 123.317232 
L 257.490337 124.602464 
L 257.386548 125.887697 
L 257.26718 127.172929 
L 257.129669 128.458161 
L 256.971533 129.743394 
L 256.790946 131.028626 
L 256.587342 132.313858 
L 256.361898 133.59909 
L 256.117752 134.884323 
L 255.859904 136.169555 
L 255.594786 137.454787 
L 255.32962 138.740019 
L 255.071666 140.025252 
L 254.82752 141.310484 
L 254.602567 142.595716 
L 254.400661 143.880948 
L 254.224018 145.166181 
L 254.073314 146.451413 
L 253.947904 147.736645 
L 253.846116 149.021877 
L 253.765565 150.30711 
L 253.703447 151.592342 
L 253.656801 152.877574 
L 253.622724 154.162806 
L 253.622724 154.162806 
z
" clip-path="url(#p3df709e95e)" style="fill: none; stroke: #fa8072; stroke-opacity: 0.8; stroke-width: 2"/>
   </g>
   <g id="PolyCollection_7">
    <path d="M 293.746873 163.324414 
L 293.628127 163.324414 
L 293.599643 161.854099 
L 293.561414 160.383784 
L 293.511875 158.913469 
L 293.449884 157.443153 
L 293.37497 155.972838 
L 293.287559 154.502523 
L 293.189143 153.032208 
L 293.082346 151.561892 
L 292.970887 150.091577 
L 292.859407 148.621262 
L 292.753183 147.150947 
L 292.657731 145.680631 
L 292.57833 144.210316 
L 292.519516 142.740001 
L 292.484589 141.269686 
L 292.475202 139.79937 
L 292.491069 138.329055 
L 292.529851 136.85874 
L 292.587216 135.388425 
L 292.657073 133.918109 
L 292.73196 132.447794 
L 292.803531 130.977479 
L 292.86312 129.507164 
L 292.902339 128.036848 
L 292.91368 126.566533 
L 292.891097 125.096218 
L 292.830526 123.625903 
L 292.730308 122.155587 
L 292.591464 120.685272 
L 292.417753 119.214957 
L 292.215475 117.744642 
L 291.992971 116.274326 
L 291.759841 114.804011 
L 291.52595 113.333696 
L 291.300375 111.863381 
L 291.090471 110.393065 
L 290.901274 108.92275 
L 290.735366 107.452435 
L 290.593255 105.98212 
L 290.474162 104.511804 
L 290.376987 103.041489 
L 290.301168 101.571174 
L 290.247146 100.100859 
L 290.21629 98.630543 
L 290.210267 97.160228 
L 290.230047 95.689913 
L 290.274845 94.219598 
L 290.341326 92.749282 
L 290.423347 91.278967 
L 290.512332 89.808652 
L 290.598214 88.338337 
L 290.670718 86.868021 
L 290.720684 85.397706 
L 290.741153 83.927391 
L 290.728036 82.457076 
L 290.680324 80.98676 
L 290.599907 79.516445 
L 290.491169 78.04613 
L 290.360496 76.575815 
L 290.215797 75.105499 
L 290.06605 73.635184 
L 289.920797 72.164869 
L 289.78949 70.694554 
L 289.680607 69.224238 
L 289.600569 67.753923 
L 289.552586 66.283608 
L 289.535697 64.813293 
L 289.544299 63.342977 
L 289.568434 61.872662 
L 289.594953 60.402347 
L 289.609453 58.932032 
L 289.598695 57.461716 
L 289.553038 55.991401 
L 289.468394 54.521086 
L 289.347307 53.050771 
L 289.198954 51.580455 
L 289.038096 50.11014 
L 288.88322 48.639825 
L 288.754227 47.16951 
L 288.670065 45.699194 
L 288.646627 44.228879 
L 288.695171 42.758564 
L 288.821354 41.288249 
L 289.024938 39.817933 
L 289.300092 38.347618 
L 289.636211 36.877303 
L 290.019099 35.406988 
L 290.432366 33.936673 
L 290.858883 32.466357 
L 291.282141 30.996042 
L 291.687418 29.525727 
L 292.062652 28.055412 
L 292.399 26.585096 
L 292.691055 25.114781 
L 292.936743 23.644466 
L 293.136945 22.174151 
L 293.294905 20.703835 
L 293.415523 19.23352 
L 293.50461 17.763205 
L 293.87039 17.763205 
L 293.87039 17.763205 
L 293.959477 19.23352 
L 294.080095 20.703835 
L 294.238055 22.174151 
L 294.438257 23.644466 
L 294.683945 25.114781 
L 294.976 26.585096 
L 295.312348 28.055412 
L 295.687582 29.525727 
L 296.092859 30.996042 
L 296.516117 32.466357 
L 296.942634 33.936673 
L 297.355901 35.406988 
L 297.738789 36.877303 
L 298.074908 38.347618 
L 298.350062 39.817933 
L 298.553646 41.288249 
L 298.679829 42.758564 
L 298.728373 44.228879 
L 298.704935 45.699194 
L 298.620773 47.16951 
L 298.49178 48.639825 
L 298.336904 50.11014 
L 298.176046 51.580455 
L 298.027693 53.050771 
L 297.906606 54.521086 
L 297.821962 55.991401 
L 297.776305 57.461716 
L 297.765547 58.932032 
L 297.780047 60.402347 
L 297.806566 61.872662 
L 297.830701 63.342977 
L 297.839303 64.813293 
L 297.822414 66.283608 
L 297.774431 67.753923 
L 297.694393 69.224238 
L 297.58551 70.694554 
L 297.454203 72.164869 
L 297.30895 73.635184 
L 297.159203 75.105499 
L 297.014504 76.575815 
L 296.883831 78.04613 
L 296.775093 79.516445 
L 296.694676 80.98676 
L 296.646964 82.457076 
L 296.633847 83.927391 
L 296.654316 85.397706 
L 296.704282 86.868021 
L 296.776786 88.338337 
L 296.862668 89.808652 
L 296.951653 91.278967 
L 297.033674 92.749282 
L 297.100155 94.219598 
L 297.144953 95.689913 
L 297.164733 97.160228 
L 297.15871 98.630543 
L 297.127854 100.100859 
L 297.073832 101.571174 
L 296.998013 103.041489 
L 296.900838 104.511804 
L 296.781745 105.98212 
L 296.639634 107.452435 
L 296.473726 108.92275 
L 296.284529 110.393065 
L 296.074625 111.863381 
L 295.84905 113.333696 
L 295.615159 114.804011 
L 295.382029 116.274326 
L 295.159525 117.744642 
L 294.957247 119.214957 
L 294.783536 120.685272 
L 294.644692 122.155587 
L 294.544474 123.625903 
L 294.483903 125.096218 
L 294.46132 126.566533 
L 294.472661 128.036848 
L 294.51188 129.507164 
L 294.571469 130.977479 
L 294.64304 132.447794 
L 294.717927 133.918109 
L 294.787784 135.388425 
L 294.845149 136.85874 
L 294.883931 138.329055 
L 294.899798 139.79937 
L 294.890411 141.269686 
L 294.855484 142.740001 
L 294.79667 144.210316 
L 294.717269 145.680631 
L 294.621817 147.150947 
L 294.515593 148.621262 
L 294.404113 150.091577 
L 294.292654 151.561892 
L 294.185857 153.032208 
L 294.087441 154.502523 
L 294.00003 155.972838 
L 293.925116 157.443153 
L 293.863125 158.913469 
L 293.813586 160.383784 
L 293.775357 161.854099 
L 293.746873 163.324414 
L 293.746873 163.324414 
z
" clip-path="url(#p3df709e95e)" style="fill: none; stroke: #fa8072; stroke-opacity: 0.8; stroke-width: 2"/>
   </g>
   <g id="PolyCollection_8">
    <path d="M 333.885597 154.155358 
L 333.759403 154.155358 
L 333.728634 152.793143 
L 333.687327 151.430928 
L 333.633891 150.068713 
L 333.567235 148.706498 
L 333.487016 147.344283 
L 333.393829 145.982068 
L 333.289304 144.619853 
L 333.1761 143.257638 
L 333.057773 141.895423 
L 332.938526 140.533208 
L 332.822844 139.170993 
L 332.715028 137.808778 
L 332.618663 136.446563 
L 332.536063 135.084348 
L 332.467814 133.722133 
L 332.412502 132.359918 
L 332.36677 130.997703 
L 332.32576 129.635488 
L 332.283923 128.273273 
L 332.236073 126.911058 
L 332.17846 125.548843 
L 332.109599 124.186628 
L 332.030632 122.824413 
L 331.945078 121.462197 
L 331.858018 120.099982 
L 331.7749 118.737767 
L 331.700252 117.375552 
L 331.636629 116.013337 
L 331.584065 114.651122 
L 331.540139 113.288907 
L 331.500623 111.926692 
L 331.460542 110.564477 
L 331.415373 109.202262 
L 331.362145 107.840047 
L 331.300213 106.477832 
L 331.231592 105.115617 
L 331.160803 103.753402 
L 331.094231 102.391187 
L 331.039057 101.028972 
L 331.001813 99.666757 
L 330.986716 98.304542 
L 330.993997 96.942327 
L 331.01855 95.580112 
L 331.049335 94.217897 
L 331.069891 92.855682 
L 331.060221 91.493467 
L 330.999943 90.131252 
L 330.872263 88.769037 
L 330.667933 87.406822 
L 330.388229 86.044607 
L 330.046063 84.682392 
L 329.664745 83.320177 
L 329.274517 81.957962 
L 328.907568 80.595747 
L 328.592722 79.233532 
L 328.351033 77.871317 
L 328.193315 76.509102 
L 328.12003 75.146887 
L 328.123304 73.784672 
L 328.190302 72.422456 
L 328.306858 71.060241 
L 328.460332 69.698026 
L 328.640993 68.335811 
L 328.841744 66.973596 
L 329.056547 65.611381 
L 329.278293 64.249166 
L 329.497021 62.886951 
L 329.699278 61.524736 
L 329.869021 60.162521 
L 329.990003 58.800306 
L 330.049073 57.438091 
L 330.03951 56.075876 
L 329.963448 54.713661 
L 329.832678 53.351446 
L 329.66754 51.989231 
L 329.494142 50.627016 
L 329.34055 49.264801 
L 329.232805 47.902586 
L 329.191585 46.540371 
L 329.230043 45.178156 
L 329.353011 43.815941 
L 329.557435 42.453726 
L 329.83369 41.091511 
L 330.167373 39.729296 
L 330.541245 38.367081 
L 330.937076 37.004866 
L 331.337268 35.642651 
L 331.72615 34.280436 
L 332.090919 32.918221 
L 332.422169 31.556006 
L 332.714021 30.193791 
L 332.963896 28.831576 
L 333.172022 27.469361 
L 333.340788 26.107146 
L 333.474061 24.744931 
L 333.576546 23.382715 
L 333.653255 22.0205 
L 333.709099 20.658285 
L 333.7486 19.29607 
L 333.8964 19.29607 
L 333.8964 19.29607 
L 333.935901 20.658285 
L 333.991745 22.0205 
L 334.068454 23.382715 
L 334.170939 24.744931 
L 334.304212 26.107146 
L 334.472978 27.469361 
L 334.681104 28.831576 
L 334.930979 30.193791 
L 335.222831 31.556006 
L 335.554081 32.918221 
L 335.91885 34.280436 
L 336.307732 35.642651 
L 336.707924 37.004866 
L 337.103755 38.367081 
L 337.477627 39.729296 
L 337.81131 41.091511 
L 338.087565 42.453726 
L 338.291989 43.815941 
L 338.414957 45.178156 
L 338.453415 46.540371 
L 338.412195 47.902586 
L 338.30445 49.264801 
L 338.150858 50.627016 
L 337.97746 51.989231 
L 337.812322 53.351446 
L 337.681552 54.713661 
L 337.60549 56.075876 
L 337.595927 57.438091 
L 337.654997 58.800306 
L 337.775979 60.162521 
L 337.945722 61.524736 
L 338.147979 62.886951 
L 338.366707 64.249166 
L 338.588453 65.611381 
L 338.803256 66.973596 
L 339.004007 68.335811 
L 339.184668 69.698026 
L 339.338142 71.060241 
L 339.454698 72.422456 
L 339.521696 73.784672 
L 339.52497 75.146887 
L 339.451685 76.509102 
L 339.293967 77.871317 
L 339.052278 79.233532 
L 338.737432 80.595747 
L 338.370483 81.957962 
L 337.980255 83.320177 
L 337.598937 84.682392 
L 337.256771 86.044607 
L 336.977067 87.406822 
L 336.772737 88.769037 
L 336.645057 90.131252 
L 336.584779 91.493467 
L 336.575109 92.855682 
L 336.595665 94.217897 
L 336.62645 95.580112 
L 336.651003 96.942327 
L 336.658284 98.304542 
L 336.643187 99.666757 
L 336.605943 101.028972 
L 336.550769 102.391187 
L 336.484197 103.753402 
L 336.413408 105.115617 
L 336.344787 106.477832 
L 336.282855 107.840047 
L 336.229627 109.202262 
L 336.184458 110.564477 
L 336.144377 111.926692 
L 336.104861 113.288907 
L 336.060935 114.651122 
L 336.008371 116.013337 
L 335.944748 117.375552 
L 335.8701 118.737767 
L 335.786982 120.099982 
L 335.699922 121.462197 
L 335.614368 122.824413 
L 335.535401 124.186628 
L 335.46654 125.548843 
L 335.408927 126.911058 
L 335.361077 128.273273 
L 335.31924 129.635488 
L 335.27823 130.997703 
L 335.232498 132.359918 
L 335.177186 133.722133 
L 335.108937 135.084348 
L 335.026337 136.446563 
L 334.929972 137.808778 
L 334.822156 139.170993 
L 334.706474 140.533208 
L 334.587227 141.895423 
L 334.4689 143.257638 
L 334.355696 144.619853 
L 334.251171 145.982068 
L 334.157984 147.344283 
L 334.077765 148.706498 
L 334.011109 150.068713 
L 333.957673 151.430928 
L 333.916366 152.793143 
L 333.885597 154.155358 
L 333.885597 154.155358 
z
" clip-path="url(#p3df709e95e)" style="fill: none; stroke: #fa8072; stroke-opacity: 0.8; stroke-width: 2"/>
   </g>
   <g id="PolyCollection_9">
    <path d="M 374.075176 153.517312 
L 373.839824 153.517312 
L 373.78459 152.167986 
L 373.713527 150.818661 
L 373.626861 149.469336 
L 373.526964 148.120011 
L 373.418543 146.770686 
L 373.308311 145.42136 
L 373.204045 144.072035 
L 373.113143 142.72271 
L 373.040961 141.373385 
L 372.989382 140.02406 
L 372.95607 138.674734 
L 372.934756 137.325409 
L 372.91662 135.976084 
L 372.892532 134.626759 
L 372.855594 133.277434 
L 372.803293 131.928108 
L 372.738623 130.578783 
L 372.669767 129.229458 
L 372.60836 127.880133 
L 372.566701 126.530808 
L 372.554667 125.181482 
L 372.5771 123.832157 
L 372.632362 122.482832 
L 372.712363 121.133507 
L 372.803988 119.784182 
L 372.891455 118.434856 
L 372.958947 117.085531 
L 372.992887 115.736206 
L 372.983409 114.386881 
L 372.924877 113.037556 
L 372.815591 111.68823 
L 372.656976 110.338905 
L 372.452615 108.98958 
L 372.207422 107.640255 
L 371.927107 106.29093 
L 371.617985 104.941604 
L 371.287046 103.592279 
L 370.942158 102.242954 
L 370.59223 100.893629 
L 370.247195 99.544304 
L 369.917709 98.194978 
L 369.614535 96.845653 
L 369.347714 95.496328 
L 369.125643 94.147003 
L 368.954252 92.797678 
L 368.836388 91.448352 
L 368.771477 90.099027 
L 368.755449 88.749702 
L 368.780921 87.400377 
L 368.837644 86.051052 
L 368.913277 84.701726 
L 368.994518 83.352401 
L 369.068559 82.003076 
L 369.124704 80.653751 
L 369.155843 79.304426 
L 369.159457 77.9551 
L 369.137846 76.605775 
L 369.097486 75.25645 
L 369.047604 73.907125 
L 368.998318 72.5578 
L 368.958763 71.208475 
L 368.935675 69.859149 
L 368.932708 68.509824 
L 368.950574 67.160499 
L 368.98784 65.811174 
L 369.042056 64.461849 
L 369.110838 63.112523 
L 369.192593 61.763198 
L 369.286695 60.413873 
L 369.393115 59.064548 
L 369.511685 57.715223 
L 369.641254 56.365897 
L 369.779079 55.016572 
L 369.920707 53.667247 
L 370.06048 52.317922 
L 370.192584 50.968597 
L 370.312402 49.619271 
L 370.417796 48.269946 
L 370.509946 46.920621 
L 370.593489 45.571296 
L 370.675875 44.221971 
L 370.766084 42.872645 
L 370.873014 41.52332 
L 371.003913 40.173995 
L 371.163205 38.82467 
L 371.351895 37.475345 
L 371.567601 36.126019 
L 371.805067 34.776694 
L 372.05697 33.427369 
L 372.314814 32.078044 
L 372.569791 30.728719 
L 372.813543 29.379393 
L 373.038814 28.030068 
L 373.239973 26.680743 
L 373.413371 25.331418 
L 373.557493 23.982093 
L 373.672862 22.632767 
L 373.761708 21.283442 
L 373.827464 19.934117 
L 374.087536 19.934117 
L 374.087536 19.934117 
L 374.153292 21.283442 
L 374.242138 22.632767 
L 374.357507 23.982093 
L 374.501629 25.331418 
L 374.675027 26.680743 
L 374.876186 28.030068 
L 375.101457 29.379393 
L 375.345209 30.728719 
L 375.600186 32.078044 
L 375.85803 33.427369 
L 376.109933 34.776694 
L 376.347399 36.126019 
L 376.563105 37.475345 
L 376.751795 38.82467 
L 376.911087 40.173995 
L 377.041986 41.52332 
L 377.148916 42.872645 
L 377.239125 44.221971 
L 377.321511 45.571296 
L 377.405054 46.920621 
L 377.497204 48.269946 
L 377.602598 49.619271 
L 377.722416 50.968597 
L 377.85452 52.317922 
L 377.994293 53.667247 
L 378.135921 55.016572 
L 378.273746 56.365897 
L 378.403315 57.715223 
L 378.521885 59.064548 
L 378.628305 60.413873 
L 378.722407 61.763198 
L 378.804162 63.112523 
L 378.872944 64.461849 
L 378.92716 65.811174 
L 378.964426 67.160499 
L 378.982292 68.509824 
L 378.979325 69.859149 
L 378.956237 71.208475 
L 378.916682 72.5578 
L 378.867396 73.907125 
L 378.817514 75.25645 
L 378.777154 76.605775 
L 378.755543 77.9551 
L 378.759157 79.304426 
L 378.790296 80.653751 
L 378.846441 82.003076 
L 378.920482 83.352401 
L 379.001723 84.701726 
L 379.077356 86.051052 
L 379.134079 87.400377 
L 379.159551 88.749702 
L 379.143523 90.099027 
L 379.078612 91.448352 
L 378.960748 92.797678 
L 378.789357 94.147003 
L 378.567286 95.496328 
L 378.300465 96.845653 
L 377.997291 98.194978 
L 377.667805 99.544304 
L 377.32277 100.893629 
L 376.972842 102.242954 
L 376.627954 103.592279 
L 376.297015 104.941604 
L 375.987893 106.29093 
L 375.707578 107.640255 
L 375.462385 108.98958 
L 375.258024 110.338905 
L 375.099409 111.68823 
L 374.990123 113.037556 
L 374.931591 114.386881 
L 374.922113 115.736206 
L 374.956053 117.085531 
L 375.023545 118.434856 
L 375.111012 119.784182 
L 375.202637 121.133507 
L 375.282638 122.482832 
L 375.3379 123.832157 
L 375.360333 125.181482 
L 375.348299 126.530808 
L 375.30664 127.880133 
L 375.245233 129.229458 
L 375.176377 130.578783 
L 375.111707 131.928108 
L 375.059406 133.277434 
L 375.022468 134.626759 
L 374.99838 135.976084 
L 374.980244 137.325409 
L 374.95893 138.674734 
L 374.925618 140.02406 
L 374.874039 141.373385 
L 374.801857 142.72271 
L 374.710955 144.072035 
L 374.606689 145.42136 
L 374.496457 146.770686 
L 374.388036 148.120011 
L 374.288139 149.469336 
L 374.201473 150.818661 
L 374.13041 152.167986 
L 374.075176 153.517312 
L 374.075176 153.517312 
z
" clip-path="url(#p3df709e95e)" style="fill: none; stroke: #fa8072; stroke-opacity: 0.8; stroke-width: 2"/>
   </g>
   <g id="PolyCollection_10">
    <path d="M 414.159683 129.987821 
L 414.025317 129.987821 
L 413.994691 128.805306 
L 413.954266 127.622791 
L 413.90264 126.440276 
L 413.838764 125.257761 
L 413.76206 124.075246 
L 413.672465 122.892731 
L 413.570386 121.710216 
L 413.456568 120.527701 
L 413.33191 119.345186 
L 413.197271 118.162672 
L 413.053309 116.980157 
L 412.90042 115.797642 
L 412.738774 114.615127 
L 412.568465 113.432612 
L 412.389745 112.250097 
L 412.203296 111.067582 
L 412.010476 109.885067 
L 411.813485 108.702552 
L 411.615382 107.520038 
L 411.41991 106.337523 
L 411.231146 105.155008 
L 411.053017 103.972493 
L 410.888785 102.789978 
L 410.740622 101.607463 
L 410.609413 100.424948 
L 410.494826 99.242433 
L 410.39569 98.059918 
L 410.310574 96.877404 
L 410.238469 95.694889 
L 410.179381 94.512374 
L 410.134705 93.329859 
L 410.107253 92.147344 
L 410.100875 90.964829 
L 410.119708 89.782314 
L 410.167163 88.599799 
L 410.24485 87.417284 
L 410.351677 86.234769 
L 410.483357 85.052255 
L 410.632482 83.86974 
L 410.789182 82.687225 
L 410.942264 81.50471 
L 411.08059 80.322195 
L 411.194411 79.13968 
L 411.276378 77.957165 
L 411.322071 76.77465 
L 411.329975 75.592135 
L 411.300992 74.409621 
L 411.237663 73.227106 
L 411.143307 72.044591 
L 411.021293 70.862076 
L 410.874589 69.679561 
L 410.705666 68.497046 
L 410.516738 67.314531 
L 410.310243 66.132016 
L 410.089432 64.949501 
L 409.858885 63.766987 
L 409.624767 62.584472 
L 409.394701 61.401957 
L 409.177181 60.219442 
L 408.98056 59.036927 
L 408.81179 57.854412 
L 408.675175 56.671897 
L 408.571484 55.489382 
L 408.49769 54.306867 
L 408.447535 53.124352 
L 408.41287 51.941838 
L 408.38557 50.759323 
L 408.359626 49.576808 
L 408.332937 48.394293 
L 408.308381 47.211778 
L 408.293824 46.029263 
L 408.300994 44.846748 
L 408.343349 43.664233 
L 408.433357 42.481718 
L 408.579732 41.299204 
L 408.785271 40.116689 
L 409.045795 38.934174 
L 409.350474 37.751659 
L 409.683504 36.569144 
L 410.026762 35.386629 
L 410.362852 34.204114 
L 410.67788 33.021599 
L 410.963388 31.839084 
L 411.217082 30.65657 
L 411.442317 29.474055 
L 411.646538 28.29154 
L 411.839099 27.109025 
L 412.028977 25.92651 
L 412.222847 24.743995 
L 412.423885 23.56148 
L 412.631438 22.378965 
L 412.841534 21.19645 
L 413.047996 20.013936 
L 413.24384 18.831421 
L 413.422623 17.648906 
L 413.579474 16.466391 
L 413.711663 15.283876 
L 413.818678 14.101361 
L 413.901921 12.918846 
L 414.283079 12.918846 
L 414.283079 12.918846 
L 414.366322 14.101361 
L 414.473337 15.283876 
L 414.605526 16.466391 
L 414.762377 17.648906 
L 414.94116 18.831421 
L 415.137004 20.013936 
L 415.343466 21.19645 
L 415.553562 22.378965 
L 415.761115 23.56148 
L 415.962153 24.743995 
L 416.156023 25.92651 
L 416.345901 27.109025 
L 416.538462 28.29154 
L 416.742683 29.474055 
L 416.967918 30.65657 
L 417.221612 31.839084 
L 417.50712 33.021599 
L 417.822148 34.204114 
L 418.158238 35.386629 
L 418.501496 36.569144 
L 418.834526 37.751659 
L 419.139205 38.934174 
L 419.399729 40.116689 
L 419.605268 41.299204 
L 419.751643 42.481718 
L 419.841651 43.664233 
L 419.884006 44.846748 
L 419.891176 46.029263 
L 419.876619 47.211778 
L 419.852063 48.394293 
L 419.825374 49.576808 
L 419.79943 50.759323 
L 419.77213 51.941838 
L 419.737465 53.124352 
L 419.68731 54.306867 
L 419.613516 55.489382 
L 419.509825 56.671897 
L 419.37321 57.854412 
L 419.20444 59.036927 
L 419.007819 60.219442 
L 418.790299 61.401957 
L 418.560233 62.584472 
L 418.326115 63.766987 
L 418.095568 64.949501 
L 417.874757 66.132016 
L 417.668262 67.314531 
L 417.479334 68.497046 
L 417.310411 69.679561 
L 417.163707 70.862076 
L 417.041693 72.044591 
L 416.947337 73.227106 
L 416.884008 74.409621 
L 416.855025 75.592135 
L 416.862929 76.77465 
L 416.908622 77.957165 
L 416.990589 79.13968 
L 417.10441 80.322195 
L 417.242736 81.50471 
L 417.395818 82.687225 
L 417.552518 83.86974 
L 417.701643 85.052255 
L 417.833323 86.234769 
L 417.94015 87.417284 
L 418.017837 88.599799 
L 418.065292 89.782314 
L 418.084125 90.964829 
L 418.077747 92.147344 
L 418.050295 93.329859 
L 418.005619 94.512374 
L 417.946531 95.694889 
L 417.874426 96.877404 
L 417.78931 98.059918 
L 417.690174 99.242433 
L 417.575587 100.424948 
L 417.444378 101.607463 
L 417.296215 102.789978 
L 417.131983 103.972493 
L 416.953854 105.155008 
L 416.76509 106.337523 
L 416.569618 107.520038 
L 416.371515 108.702552 
L 416.174524 109.885067 
L 415.981704 111.067582 
L 415.795255 112.250097 
L 415.616535 113.432612 
L 415.446226 114.615127 
L 415.28458 115.797642 
L 415.131691 116.980157 
L 414.987729 118.162672 
L 414.85309 119.345186 
L 414.728432 120.527701 
L 414.614614 121.710216 
L 414.512535 122.892731 
L 414.42294 124.075246 
L 414.346236 125.257761 
L 414.28236 126.440276 
L 414.230734 127.622791 
L 414.190309 128.805306 
L 414.159683 129.987821 
L 414.159683 129.987821 
z
" clip-path="url(#p3df709e95e)" style="fill: none; stroke: #fa8072; stroke-opacity: 0.8; stroke-width: 2"/>
   </g>
   <g id="matplotlib.axis_1">
    <g id="xtick_1">
     <g id="line2d_1">
      <defs>
       <path id="md63b90297f" d="M 0 0 
L 0 3.5 
" style="stroke: #000000; stroke-width: 0.8"/>
      </defs>
      <g>
       <use xlink:href="#md63b90297f" x="52.8775" y="178.36" style="stroke: #000000; stroke-width: 0.8"/>
      </g>
     </g>
     <g id="text_1">
      <!-- 1 -->
      <g transform="translate(50.96875 189.919063) scale(0.06 -0.06)">
       <defs>
        <path id="DejaVuSans-31" d="M 794 531 
L 1825 531 
L 1825 4091 
L 703 3866 
L 703 4441 
L 1819 4666 
L 2450 4666 
L 2450 531 
L 3481 531 
L 3481 0 
L 794 0 
L 794 531 
z
" transform="scale(0.015625)"/>
       </defs>
       <use xlink:href="#DejaVuSans-31"/>
      </g>
     </g>
    </g>
    <g id="xtick_2">
     <g id="line2d_2">
      <g>
       <use xlink:href="#md63b90297f" x="93.0125" y="178.36" style="stroke: #000000; stroke-width: 0.8"/>
      </g>
     </g>
     <g id="text_2">
      <!-- 2 -->
      <g transform="translate(91.10375 189.919063) scale(0.06 -0.06)">
       <defs>
        <path id="DejaVuSans-32" d="M 1228 531 
L 3431 531 
L 3431 0 
L 469 0 
L 469 531 
Q 828 903 1448 1529 
Q 2069 2156 2228 2338 
Q 2531 2678 2651 2914 
Q 2772 3150 2772 3378 
Q 2772 3750 2511 3984 
Q 2250 4219 1831 4219 
Q 1534 4219 1204 4116 
Q 875 4013 500 3803 
L 500 4441 
Q 881 4594 1212 4672 
Q 1544 4750 1819 4750 
Q 2544 4750 2975 4387 
Q 3406 4025 3406 3419 
Q 3406 3131 3298 2873 
Q 3191 2616 2906 2266 
Q 2828 2175 2409 1742 
Q 1991 1309 1228 531 
z
" transform="scale(0.015625)"/>
       </defs>
       <use xlink:href="#DejaVuSans-32"/>
      </g>
     </g>
    </g>
    <g id="xtick_3">
     <g id="line2d_3">
      <g>
       <use xlink:href="#md63b90297f" x="133.1475" y="178.36" style="stroke: #000000; stroke-width: 0.8"/>
      </g>
     </g>
     <g id="text_3">
      <!-- 3 -->
      <g transform="translate(131.23875 189.919063) scale(0.06 -0.06)">
       <defs>
        <path id="DejaVuSans-33" d="M 2597 2516 
Q 3050 2419 3304 2112 
Q 3559 1806 3559 1356 
Q 3559 666 3084 287 
Q 2609 -91 1734 -91 
Q 1441 -91 1130 -33 
Q 819 25 488 141 
L 488 750 
Q 750 597 1062 519 
Q 1375 441 1716 441 
Q 2309 441 2620 675 
Q 2931 909 2931 1356 
Q 2931 1769 2642 2001 
Q 2353 2234 1838 2234 
L 1294 2234 
L 1294 2753 
L 1863 2753 
Q 2328 2753 2575 2939 
Q 2822 3125 2822 3475 
Q 2822 3834 2567 4026 
Q 2313 4219 1838 4219 
Q 1578 4219 1281 4162 
Q 984 4106 628 3988 
L 628 4550 
Q 988 4650 1302 4700 
Q 1616 4750 1894 4750 
Q 2613 4750 3031 4423 
Q 3450 4097 3450 3541 
Q 3450 3153 3228 2886 
Q 3006 2619 2597 2516 
z
" transform="scale(0.015625)"/>
       </defs>
       <use xlink:href="#DejaVuSans-33"/>
      </g>
     </g>
    </g>
    <g id="xtick_4">
     <g id="line2d_4">
      <g>
       <use xlink:href="#md63b90297f" x="173.2825" y="178.36" style="stroke: #000000; stroke-width: 0.8"/>
      </g>
     </g>
     <g id="text_4">
      <!-- 4 -->
      <g transform="translate(171.37375 189.919063) scale(0.06 -0.06)">
       <defs>
        <path id="DejaVuSans-34" d="M 2419 4116 
L 825 1625 
L 2419 1625 
L 2419 4116 
z
M 2253 4666 
L 3047 4666 
L 3047 1625 
L 3713 1625 
L 3713 1100 
L 3047 1100 
L 3047 0 
L 2419 0 
L 2419 1100 
L 313 1100 
L 313 1709 
L 2253 4666 
z
" transform="scale(0.015625)"/>
       </defs>
       <use xlink:href="#DejaVuSans-34"/>
      </g>
     </g>
    </g>
    <g id="xtick_5">
     <g id="line2d_5">
      <g>
       <use xlink:href="#md63b90297f" x="213.4175" y="178.36" style="stroke: #000000; stroke-width: 0.8"/>
      </g>
     </g>
     <g id="text_5">
      <!-- 5 -->
      <g transform="translate(211.50875 189.919063) scale(0.06 -0.06)">
       <defs>
        <path id="DejaVuSans-35" d="M 691 4666 
L 3169 4666 
L 3169 4134 
L 1269 4134 
L 1269 2991 
Q 1406 3038 1543 3061 
Q 1681 3084 1819 3084 
Q 2600 3084 3056 2656 
Q 3513 2228 3513 1497 
Q 3513 744 3044 326 
Q 2575 -91 1722 -91 
Q 1428 -91 1123 -41 
Q 819 9 494 109 
L 494 744 
Q 775 591 1075 516 
Q 1375 441 1709 441 
Q 2250 441 2565 725 
Q 2881 1009 2881 1497 
Q 2881 1984 2565 2268 
Q 2250 2553 1709 2553 
Q 1456 2553 1204 2497 
Q 953 2441 691 2322 
L 691 4666 
z
" transform="scale(0.015625)"/>
       </defs>
       <use xlink:href="#DejaVuSans-35"/>
      </g>
     </g>
    </g>
    <g id="xtick_6">
     <g id="line2d_6">
      <g>
       <use xlink:href="#md63b90297f" x="253.5525" y="178.36" style="stroke: #000000; stroke-width: 0.8"/>
      </g>
     </g>
     <g id="text_6">
      <!-- 6 -->
      <g transform="translate(251.64375 189.919063) scale(0.06 -0.06)">
       <defs>
        <path id="DejaVuSans-36" d="M 2113 2584 
Q 1688 2584 1439 2293 
Q 1191 2003 1191 1497 
Q 1191 994 1439 701 
Q 1688 409 2113 409 
Q 2538 409 2786 701 
Q 3034 994 3034 1497 
Q 3034 2003 2786 2293 
Q 2538 2584 2113 2584 
z
M 3366 4563 
L 3366 3988 
Q 3128 4100 2886 4159 
Q 2644 4219 2406 4219 
Q 1781 4219 1451 3797 
Q 1122 3375 1075 2522 
Q 1259 2794 1537 2939 
Q 1816 3084 2150 3084 
Q 2853 3084 3261 2657 
Q 3669 2231 3669 1497 
Q 3669 778 3244 343 
Q 2819 -91 2113 -91 
Q 1303 -91 875 529 
Q 447 1150 447 2328 
Q 447 3434 972 4092 
Q 1497 4750 2381 4750 
Q 2619 4750 2861 4703 
Q 3103 4656 3366 4563 
z
" transform="scale(0.015625)"/>
       </defs>
       <use xlink:href="#DejaVuSans-36"/>
      </g>
     </g>
    </g>
    <g id="xtick_7">
     <g id="line2d_7">
      <g>
       <use xlink:href="#md63b90297f" x="293.6875" y="178.36" style="stroke: #000000; stroke-width: 0.8"/>
      </g>
     </g>
     <g id="text_7">
      <!-- 7 -->
      <g transform="translate(291.77875 189.919063) scale(0.06 -0.06)">
       <defs>
        <path id="DejaVuSans-37" d="M 525 4666 
L 3525 4666 
L 3525 4397 
L 1831 0 
L 1172 0 
L 2766 4134 
L 525 4134 
L 525 4666 
z
" transform="scale(0.015625)"/>
       </defs>
       <use xlink:href="#DejaVuSans-37"/>
      </g>
     </g>
    </g>
    <g id="xtick_8">
     <g id="line2d_8">
      <g>
       <use xlink:href="#md63b90297f" x="333.8225" y="178.36" style="stroke: #000000; stroke-width: 0.8"/>
      </g>
     </g>
     <g id="text_8">
      <!-- 8 -->
      <g transform="translate(331.91375 189.919063) scale(0.06 -0.06)">
       <defs>
        <path id="DejaVuSans-38" d="M 2034 2216 
Q 1584 2216 1326 1975 
Q 1069 1734 1069 1313 
Q 1069 891 1326 650 
Q 1584 409 2034 409 
Q 2484 409 2743 651 
Q 3003 894 3003 1313 
Q 3003 1734 2745 1975 
Q 2488 2216 2034 2216 
z
M 1403 2484 
Q 997 2584 770 2862 
Q 544 3141 544 3541 
Q 544 4100 942 4425 
Q 1341 4750 2034 4750 
Q 2731 4750 3128 4425 
Q 3525 4100 3525 3541 
Q 3525 3141 3298 2862 
Q 3072 2584 2669 2484 
Q 3125 2378 3379 2068 
Q 3634 1759 3634 1313 
Q 3634 634 3220 271 
Q 2806 -91 2034 -91 
Q 1263 -91 848 271 
Q 434 634 434 1313 
Q 434 1759 690 2068 
Q 947 2378 1403 2484 
z
M 1172 3481 
Q 1172 3119 1398 2916 
Q 1625 2713 2034 2713 
Q 2441 2713 2670 2916 
Q 2900 3119 2900 3481 
Q 2900 3844 2670 4047 
Q 2441 4250 2034 4250 
Q 1625 4250 1398 4047 
Q 1172 3844 1172 3481 
z
" transform="scale(0.015625)"/>
       </defs>
       <use xlink:href="#DejaVuSans-38"/>
      </g>
     </g>
    </g>
    <g id="xtick_9">
     <g id="line2d_9">
      <g>
       <use xlink:href="#md63b90297f" x="373.9575" y="178.36" style="stroke: #000000; stroke-width: 0.8"/>
      </g>
     </g>
     <g id="text_9">
      <!-- 9 -->
      <g transform="translate(372.04875 189.919063) scale(0.06 -0.06)">
       <defs>
        <path id="DejaVuSans-39" d="M 703 97 
L 703 672 
Q 941 559 1184 500 
Q 1428 441 1663 441 
Q 2288 441 2617 861 
Q 2947 1281 2994 2138 
Q 2813 1869 2534 1725 
Q 2256 1581 1919 1581 
Q 1219 1581 811 2004 
Q 403 2428 403 3163 
Q 403 3881 828 4315 
Q 1253 4750 1959 4750 
Q 2769 4750 3195 4129 
Q 3622 3509 3622 2328 
Q 3622 1225 3098 567 
Q 2575 -91 1691 -91 
Q 1453 -91 1209 -44 
Q 966 3 703 97 
z
M 1959 2075 
Q 2384 2075 2632 2365 
Q 2881 2656 2881 3163 
Q 2881 3666 2632 3958 
Q 2384 4250 1959 4250 
Q 1534 4250 1286 3958 
Q 1038 3666 1038 3163 
Q 1038 2656 1286 2365 
Q 1534 2075 1959 2075 
z
" transform="scale(0.015625)"/>
       </defs>
       <use xlink:href="#DejaVuSans-39"/>
      </g>
     </g>
    </g>
    <g id="xtick_10">
     <g id="line2d_10">
      <g>
       <use xlink:href="#md63b90297f" x="414.0925" y="178.36" style="stroke: #000000; stroke-width: 0.8"/>
      </g>
     </g>
     <g id="text_10">
      <!-- 10 -->
      <g transform="translate(410.275 189.919063) scale(0.06 -0.06)">
       <defs>
        <path id="DejaVuSans-30" d="M 2034 4250 
Q 1547 4250 1301 3770 
Q 1056 3291 1056 2328 
Q 1056 1369 1301 889 
Q 1547 409 2034 409 
Q 2525 409 2770 889 
Q 3016 1369 3016 2328 
Q 3016 3291 2770 3770 
Q 2525 4250 2034 4250 
z
M 2034 4750 
Q 2819 4750 3233 4129 
Q 3647 3509 3647 2328 
Q 3647 1150 3233 529 
Q 2819 -91 2034 -91 
Q 1250 -91 836 529 
Q 422 1150 422 2328 
Q 422 3509 836 4129 
Q 1250 4750 2034 4750 
z
" transform="scale(0.015625)"/>
       </defs>
       <use xlink:href="#DejaVuSans-31"/>
       <use xlink:href="#DejaVuSans-30" x="63.623047"/>
      </g>
     </g>
    </g>
    <g id="text_11">
     <!-- Number of Mice in Treatment Group -->
     <g transform="translate(179.729219 199.725938) scale(0.06 -0.06)">
      <defs>
       <path id="DejaVuSans-4e" d="M 628 4666 
L 1478 4666 
L 3547 763 
L 3547 4666 
L 4159 4666 
L 4159 0 
L 3309 0 
L 1241 3903 
L 1241 0 
L 628 0 
L 628 4666 
z
" transform="scale(0.015625)"/>
       <path id="DejaVuSans-75" d="M 544 1381 
L 544 3500 
L 1119 3500 
L 1119 1403 
Q 1119 906 1312 657 
Q 1506 409 1894 409 
Q 2359 409 2629 706 
Q 2900 1003 2900 1516 
L 2900 3500 
L 3475 3500 
L 3475 0 
L 2900 0 
L 2900 538 
Q 2691 219 2414 64 
Q 2138 -91 1772 -91 
Q 1169 -91 856 284 
Q 544 659 544 1381 
z
M 1991 3584 
L 1991 3584 
z
" transform="scale(0.015625)"/>
       <path id="DejaVuSans-6d" d="M 3328 2828 
Q 3544 3216 3844 3400 
Q 4144 3584 4550 3584 
Q 5097 3584 5394 3201 
Q 5691 2819 5691 2113 
L 5691 0 
L 5113 0 
L 5113 2094 
Q 5113 2597 4934 2840 
Q 4756 3084 4391 3084 
Q 3944 3084 3684 2787 
Q 3425 2491 3425 1978 
L 3425 0 
L 2847 0 
L 2847 2094 
Q 2847 2600 2669 2842 
Q 2491 3084 2119 3084 
Q 1678 3084 1418 2786 
Q 1159 2488 1159 1978 
L 1159 0 
L 581 0 
L 581 3500 
L 1159 3500 
L 1159 2956 
Q 1356 3278 1631 3431 
Q 1906 3584 2284 3584 
Q 2666 3584 2933 3390 
Q 3200 3197 3328 2828 
z
" transform="scale(0.015625)"/>
       <path id="DejaVuSans-62" d="M 3116 1747 
Q 3116 2381 2855 2742 
Q 2594 3103 2138 3103 
Q 1681 3103 1420 2742 
Q 1159 2381 1159 1747 
Q 1159 1113 1420 752 
Q 1681 391 2138 391 
Q 2594 391 2855 752 
Q 3116 1113 3116 1747 
z
M 1159 2969 
Q 1341 3281 1617 3432 
Q 1894 3584 2278 3584 
Q 2916 3584 3314 3078 
Q 3713 2572 3713 1747 
Q 3713 922 3314 415 
Q 2916 -91 2278 -91 
Q 1894 -91 1617 61 
Q 1341 213 1159 525 
L 1159 0 
L 581 0 
L 581 4863 
L 1159 4863 
L 1159 2969 
z
" transform="scale(0.015625)"/>
       <path id="DejaVuSans-65" d="M 3597 1894 
L 3597 1613 
L 953 1613 
Q 991 1019 1311 708 
Q 1631 397 2203 397 
Q 2534 397 2845 478 
Q 3156 559 3463 722 
L 3463 178 
Q 3153 47 2828 -22 
Q 2503 -91 2169 -91 
Q 1331 -91 842 396 
Q 353 884 353 1716 
Q 353 2575 817 3079 
Q 1281 3584 2069 3584 
Q 2775 3584 3186 3129 
Q 3597 2675 3597 1894 
z
M 3022 2063 
Q 3016 2534 2758 2815 
Q 2500 3097 2075 3097 
Q 1594 3097 1305 2825 
Q 1016 2553 972 2059 
L 3022 2063 
z
" transform="scale(0.015625)"/>
       <path id="DejaVuSans-72" d="M 2631 2963 
Q 2534 3019 2420 3045 
Q 2306 3072 2169 3072 
Q 1681 3072 1420 2755 
Q 1159 2438 1159 1844 
L 1159 0 
L 581 0 
L 581 3500 
L 1159 3500 
L 1159 2956 
Q 1341 3275 1631 3429 
Q 1922 3584 2338 3584 
Q 2397 3584 2469 3576 
Q 2541 3569 2628 3553 
L 2631 2963 
z
" transform="scale(0.015625)"/>
       <path id="DejaVuSans-20" transform="scale(0.015625)"/>
       <path id="DejaVuSans-6f" d="M 1959 3097 
Q 1497 3097 1228 2736 
Q 959 2375 959 1747 
Q 959 1119 1226 758 
Q 1494 397 1959 397 
Q 2419 397 2687 759 
Q 2956 1122 2956 1747 
Q 2956 2369 2687 2733 
Q 2419 3097 1959 3097 
z
M 1959 3584 
Q 2709 3584 3137 3096 
Q 3566 2609 3566 1747 
Q 3566 888 3137 398 
Q 2709 -91 1959 -91 
Q 1206 -91 779 398 
Q 353 888 353 1747 
Q 353 2609 779 3096 
Q 1206 3584 1959 3584 
z
" transform="scale(0.015625)"/>
       <path id="DejaVuSans-66" d="M 2375 4863 
L 2375 4384 
L 1825 4384 
Q 1516 4384 1395 4259 
Q 1275 4134 1275 3809 
L 1275 3500 
L 2222 3500 
L 2222 3053 
L 1275 3053 
L 1275 0 
L 697 0 
L 697 3053 
L 147 3053 
L 147 3500 
L 697 3500 
L 697 3744 
Q 697 4328 969 4595 
Q 1241 4863 1831 4863 
L 2375 4863 
z
" transform="scale(0.015625)"/>
       <path id="DejaVuSans-4d" d="M 628 4666 
L 1569 4666 
L 2759 1491 
L 3956 4666 
L 4897 4666 
L 4897 0 
L 4281 0 
L 4281 4097 
L 3078 897 
L 2444 897 
L 1241 4097 
L 1241 0 
L 628 0 
L 628 4666 
z
" transform="scale(0.015625)"/>
       <path id="DejaVuSans-69" d="M 603 3500 
L 1178 3500 
L 1178 0 
L 603 0 
L 603 3500 
z
M 603 4863 
L 1178 4863 
L 1178 4134 
L 603 4134 
L 603 4863 
z
" transform="scale(0.015625)"/>
       <path id="DejaVuSans-63" d="M 3122 3366 
L 3122 2828 
Q 2878 2963 2633 3030 
Q 2388 3097 2138 3097 
Q 1578 3097 1268 2742 
Q 959 2388 959 1747 
Q 959 1106 1268 751 
Q 1578 397 2138 397 
Q 2388 397 2633 464 
Q 2878 531 3122 666 
L 3122 134 
Q 2881 22 2623 -34 
Q 2366 -91 2075 -91 
Q 1284 -91 818 406 
Q 353 903 353 1747 
Q 353 2603 823 3093 
Q 1294 3584 2113 3584 
Q 2378 3584 2631 3529 
Q 2884 3475 3122 3366 
z
" transform="scale(0.015625)"/>
       <path id="DejaVuSans-6e" d="M 3513 2113 
L 3513 0 
L 2938 0 
L 2938 2094 
Q 2938 2591 2744 2837 
Q 2550 3084 2163 3084 
Q 1697 3084 1428 2787 
Q 1159 2491 1159 1978 
L 1159 0 
L 581 0 
L 581 3500 
L 1159 3500 
L 1159 2956 
Q 1366 3272 1645 3428 
Q 1925 3584 2291 3584 
Q 2894 3584 3203 3211 
Q 3513 2838 3513 2113 
z
" transform="scale(0.015625)"/>
       <path id="DejaVuSans-54" d="M -19 4666 
L 3928 4666 
L 3928 4134 
L 2272 4134 
L 2272 0 
L 1638 0 
L 1638 4134 
L -19 4134 
L -19 4666 
z
" transform="scale(0.015625)"/>
       <path id="DejaVuSans-61" d="M 2194 1759 
Q 1497 1759 1228 1600 
Q 959 1441 959 1056 
Q 959 750 1161 570 
Q 1363 391 1709 391 
Q 2188 391 2477 730 
Q 2766 1069 2766 1631 
L 2766 1759 
L 2194 1759 
z
M 3341 1997 
L 3341 0 
L 2766 0 
L 2766 531 
Q 2569 213 2275 61 
Q 1981 -91 1556 -91 
Q 1019 -91 701 211 
Q 384 513 384 1019 
Q 384 1609 779 1909 
Q 1175 2209 1959 2209 
L 2766 2209 
L 2766 2266 
Q 2766 2663 2505 2880 
Q 2244 3097 1772 3097 
Q 1472 3097 1187 3025 
Q 903 2953 641 2809 
L 641 3341 
Q 956 3463 1253 3523 
Q 1550 3584 1831 3584 
Q 2591 3584 2966 3190 
Q 3341 2797 3341 1997 
z
" transform="scale(0.015625)"/>
       <path id="DejaVuSans-74" d="M 1172 4494 
L 1172 3500 
L 2356 3500 
L 2356 3053 
L 1172 3053 
L 1172 1153 
Q 1172 725 1289 603 
Q 1406 481 1766 481 
L 2356 481 
L 2356 0 
L 1766 0 
Q 1100 0 847 248 
Q 594 497 594 1153 
L 594 3053 
L 172 3053 
L 172 3500 
L 594 3500 
L 594 4494 
L 1172 4494 
z
" transform="scale(0.015625)"/>
       <path id="DejaVuSans-47" d="M 3809 666 
L 3809 1919 
L 2778 1919 
L 2778 2438 
L 4434 2438 
L 4434 434 
Q 4069 175 3628 42 
Q 3188 -91 2688 -91 
Q 1594 -91 976 548 
Q 359 1188 359 2328 
Q 359 3472 976 4111 
Q 1594 4750 2688 4750 
Q 3144 4750 3555 4637 
Q 3966 4525 4313 4306 
L 4313 3634 
Q 3963 3931 3569 4081 
Q 3175 4231 2741 4231 
Q 1884 4231 1454 3753 
Q 1025 3275 1025 2328 
Q 1025 1384 1454 906 
Q 1884 428 2741 428 
Q 3075 428 3337 486 
Q 3600 544 3809 666 
z
" transform="scale(0.015625)"/>
       <path id="DejaVuSans-70" d="M 1159 525 
L 1159 -1331 
L 581 -1331 
L 581 3500 
L 1159 3500 
L 1159 2969 
Q 1341 3281 1617 3432 
Q 1894 3584 2278 3584 
Q 2916 3584 3314 3078 
Q 3713 2572 3713 1747 
Q 3713 922 3314 415 
Q 2916 -91 2278 -91 
Q 1894 -91 1617 61 
Q 1341 213 1159 525 
z
M 3116 1747 
Q 3116 2381 2855 2742 
Q 2594 3103 2138 3103 
Q 1681 3103 1420 2742 
Q 1159 2381 1159 1747 
Q 1159 1113 1420 752 
Q 1681 391 2138 391 
Q 2594 391 2855 752 
Q 3116 1113 3116 1747 
z
" transform="scale(0.015625)"/>
      </defs>
      <use xlink:href="#DejaVuSans-4e"/>
      <use xlink:href="#DejaVuSans-75" x="74.804688"/>
      <use xlink:href="#DejaVuSans-6d" x="138.183594"/>
      <use xlink:href="#DejaVuSans-62" x="235.595703"/>
      <use xlink:href="#DejaVuSans-65" x="299.072266"/>
      <use xlink:href="#DejaVuSans-72" x="360.595703"/>
      <use xlink:href="#DejaVuSans-20" x="401.708984"/>
      <use xlink:href="#DejaVuSans-6f" x="433.496094"/>
      <use xlink:href="#DejaVuSans-66" x="494.677734"/>
      <use xlink:href="#DejaVuSans-20" x="529.882812"/>
      <use xlink:href="#DejaVuSans-4d" x="561.669922"/>
      <use xlink:href="#DejaVuSans-69" x="647.949219"/>
      <use xlink:href="#DejaVuSans-63" x="675.732422"/>
      <use xlink:href="#DejaVuSans-65" x="730.712891"/>
      <use xlink:href="#DejaVuSans-20" x="792.236328"/>
      <use xlink:href="#DejaVuSans-69" x="824.023438"/>
      <use xlink:href="#DejaVuSans-6e" x="851.806641"/>
      <use xlink:href="#DejaVuSans-20" x="915.185547"/>
      <use xlink:href="#DejaVuSans-54" x="946.972656"/>
      <use xlink:href="#DejaVuSans-72" x="993.306641"/>
      <use xlink:href="#DejaVuSans-65" x="1032.169922"/>
      <use xlink:href="#DejaVuSans-61" x="1093.693359"/>
      <use xlink:href="#DejaVuSans-74" x="1154.972656"/>
      <use xlink:href="#DejaVuSans-6d" x="1194.181641"/>
      <use xlink:href="#DejaVuSans-65" x="1291.59375"/>
      <use xlink:href="#DejaVuSans-6e" x="1353.117188"/>
      <use xlink:href="#DejaVuSans-74" x="1416.496094"/>
      <use xlink:href="#DejaVuSans-20" x="1455.705078"/>
      <use xlink:href="#DejaVuSans-47" x="1487.492188"/>
      <use xlink:href="#DejaVuSans-72" x="1564.982422"/>
      <use xlink:href="#DejaVuSans-6f" x="1603.845703"/>
      <use xlink:href="#DejaVuSans-75" x="1665.027344"/>
      <use xlink:href="#DejaVuSans-70" x="1728.40625"/>
     </g>
    </g>
   </g>
   <g id="matplotlib.axis_2">
    <g id="ytick_1">
     <g id="line2d_11">
      <path d="M 32.81 178.36 
L 434.16 178.36 
" clip-path="url(#p3df709e95e)" style="fill: none; stroke-dasharray: 2.96,1.28; stroke-dashoffset: 0; stroke: #000000; stroke-opacity: 0.3; stroke-width: 0.8"/>
     </g>
     <g id="line2d_12">
      <defs>
       <path id="m037b601531" d="M 0 0 
L -3.5 0 
" style="stroke: #000000; stroke-width: 0.8"/>
      </defs>
      <g>
       <use xlink:href="#m037b601531" x="32.81" y="178.36" style="stroke: #000000; stroke-width: 0.8"/>
      </g>
     </g>
     <g id="text_12">
      <!-- 0.0 -->
      <g transform="translate(16.268125 180.639531) scale(0.06 -0.06)">
       <defs>
        <path id="DejaVuSans-2e" d="M 684 794 
L 1344 794 
L 1344 0 
L 684 0 
L 684 794 
z
" transform="scale(0.015625)"/>
       </defs>
       <use xlink:href="#DejaVuSans-30"/>
       <use xlink:href="#DejaVuSans-2e" x="63.623047"/>
       <use xlink:href="#DejaVuSans-30" x="95.410156"/>
      </g>
     </g>
    </g>
    <g id="ytick_2">
     <g id="line2d_13">
      <path d="M 32.81 146.288 
L 434.16 146.288 
" clip-path="url(#p3df709e95e)" style="fill: none; stroke-dasharray: 2.96,1.28; stroke-dashoffset: 0; stroke: #000000; stroke-opacity: 0.3; stroke-width: 0.8"/>
     </g>
     <g id="line2d_14">
      <g>
       <use xlink:href="#m037b601531" x="32.81" y="146.288" style="stroke: #000000; stroke-width: 0.8"/>
      </g>
     </g>
     <g id="text_13">
      <!-- 0.2 -->
      <g transform="translate(16.268125 148.567531) scale(0.06 -0.06)">
       <use xlink:href="#DejaVuSans-30"/>
       <use xlink:href="#DejaVuSans-2e" x="63.623047"/>
       <use xlink:href="#DejaVuSans-32" x="95.410156"/>
      </g>
     </g>
    </g>
    <g id="ytick_3">
     <g id="line2d_15">
      <path d="M 32.81 114.216 
L 434.16 114.216 
" clip-path="url(#p3df709e95e)" style="fill: none; stroke-dasharray: 2.96,1.28; stroke-dashoffset: 0; stroke: #000000; stroke-opacity: 0.3; stroke-width: 0.8"/>
     </g>
     <g id="line2d_16">
      <g>
       <use xlink:href="#m037b601531" x="32.81" y="114.216" style="stroke: #000000; stroke-width: 0.8"/>
      </g>
     </g>
     <g id="text_14">
      <!-- 0.4 -->
      <g transform="translate(16.268125 116.495531) scale(0.06 -0.06)">
       <use xlink:href="#DejaVuSans-30"/>
       <use xlink:href="#DejaVuSans-2e" x="63.623047"/>
       <use xlink:href="#DejaVuSans-34" x="95.410156"/>
      </g>
     </g>
    </g>
    <g id="ytick_4">
     <g id="line2d_17">
      <path d="M 32.81 82.144 
L 434.16 82.144 
" clip-path="url(#p3df709e95e)" style="fill: none; stroke-dasharray: 2.96,1.28; stroke-dashoffset: 0; stroke: #000000; stroke-opacity: 0.3; stroke-width: 0.8"/>
     </g>
     <g id="line2d_18">
      <g>
       <use xlink:href="#m037b601531" x="32.81" y="82.144" style="stroke: #000000; stroke-width: 0.8"/>
      </g>
     </g>
     <g id="text_15">
      <!-- 0.6 -->
      <g transform="translate(16.268125 84.423531) scale(0.06 -0.06)">
       <use xlink:href="#DejaVuSans-30"/>
       <use xlink:href="#DejaVuSans-2e" x="63.623047"/>
       <use xlink:href="#DejaVuSans-36" x="95.410156"/>
      </g>
     </g>
    </g>
    <g id="ytick_5">
     <g id="line2d_19">
      <path d="M 32.81 50.072 
L 434.16 50.072 
" clip-path="url(#p3df709e95e)" style="fill: none; stroke-dasharray: 2.96,1.28; stroke-dashoffset: 0; stroke: #000000; stroke-opacity: 0.3; stroke-width: 0.8"/>
     </g>
     <g id="line2d_20">
      <g>
       <use xlink:href="#m037b601531" x="32.81" y="50.072" style="stroke: #000000; stroke-width: 0.8"/>
      </g>
     </g>
     <g id="text_16">
      <!-- 0.8 -->
      <g transform="translate(16.268125 52.351531) scale(0.06 -0.06)">
       <use xlink:href="#DejaVuSans-30"/>
       <use xlink:href="#DejaVuSans-2e" x="63.623047"/>
       <use xlink:href="#DejaVuSans-38" x="95.410156"/>
      </g>
     </g>
    </g>
    <g id="ytick_6">
     <g id="line2d_21">
      <path d="M 32.81 18 
L 434.16 18 
" clip-path="url(#p3df709e95e)" style="fill: none; stroke-dasharray: 2.96,1.28; stroke-dashoffset: 0; stroke: #000000; stroke-opacity: 0.3; stroke-width: 0.8"/>
     </g>
     <g id="line2d_22">
      <g>
       <use xlink:href="#m037b601531" x="32.81" y="18" style="stroke: #000000; stroke-width: 0.8"/>
      </g>
     </g>
     <g id="text_17">
      <!-- 1.0 -->
      <g transform="translate(16.268125 20.279531) scale(0.06 -0.06)">
       <use xlink:href="#DejaVuSans-31"/>
       <use xlink:href="#DejaVuSans-2e" x="63.623047"/>
       <use xlink:href="#DejaVuSans-30" x="95.410156"/>
      </g>
     </g>
    </g>
    <g id="text_18">
     <!-- Fraction of Overlapping Hits -->
     <g transform="translate(11.020312 140.072656) rotate(-90) scale(0.06 -0.06)">
      <defs>
       <path id="DejaVuSans-46" d="M 628 4666 
L 3309 4666 
L 3309 4134 
L 1259 4134 
L 1259 2759 
L 3109 2759 
L 3109 2228 
L 1259 2228 
L 1259 0 
L 628 0 
L 628 4666 
z
" transform="scale(0.015625)"/>
       <path id="DejaVuSans-4f" d="M 2522 4238 
Q 1834 4238 1429 3725 
Q 1025 3213 1025 2328 
Q 1025 1447 1429 934 
Q 1834 422 2522 422 
Q 3209 422 3611 934 
Q 4013 1447 4013 2328 
Q 4013 3213 3611 3725 
Q 3209 4238 2522 4238 
z
M 2522 4750 
Q 3503 4750 4090 4092 
Q 4678 3434 4678 2328 
Q 4678 1225 4090 567 
Q 3503 -91 2522 -91 
Q 1538 -91 948 565 
Q 359 1222 359 2328 
Q 359 3434 948 4092 
Q 1538 4750 2522 4750 
z
" transform="scale(0.015625)"/>
       <path id="DejaVuSans-76" d="M 191 3500 
L 800 3500 
L 1894 563 
L 2988 3500 
L 3597 3500 
L 2284 0 
L 1503 0 
L 191 3500 
z
" transform="scale(0.015625)"/>
       <path id="DejaVuSans-6c" d="M 603 4863 
L 1178 4863 
L 1178 0 
L 603 0 
L 603 4863 
z
" transform="scale(0.015625)"/>
       <path id="DejaVuSans-67" d="M 2906 1791 
Q 2906 2416 2648 2759 
Q 2391 3103 1925 3103 
Q 1463 3103 1205 2759 
Q 947 2416 947 1791 
Q 947 1169 1205 825 
Q 1463 481 1925 481 
Q 2391 481 2648 825 
Q 2906 1169 2906 1791 
z
M 3481 434 
Q 3481 -459 3084 -895 
Q 2688 -1331 1869 -1331 
Q 1566 -1331 1297 -1286 
Q 1028 -1241 775 -1147 
L 775 -588 
Q 1028 -725 1275 -790 
Q 1522 -856 1778 -856 
Q 2344 -856 2625 -561 
Q 2906 -266 2906 331 
L 2906 616 
Q 2728 306 2450 153 
Q 2172 0 1784 0 
Q 1141 0 747 490 
Q 353 981 353 1791 
Q 353 2603 747 3093 
Q 1141 3584 1784 3584 
Q 2172 3584 2450 3431 
Q 2728 3278 2906 2969 
L 2906 3500 
L 3481 3500 
L 3481 434 
z
" transform="scale(0.015625)"/>
       <path id="DejaVuSans-48" d="M 628 4666 
L 1259 4666 
L 1259 2753 
L 3553 2753 
L 3553 4666 
L 4184 4666 
L 4184 0 
L 3553 0 
L 3553 2222 
L 1259 2222 
L 1259 0 
L 628 0 
L 628 4666 
z
" transform="scale(0.015625)"/>
       <path id="DejaVuSans-73" d="M 2834 3397 
L 2834 2853 
Q 2591 2978 2328 3040 
Q 2066 3103 1784 3103 
Q 1356 3103 1142 2972 
Q 928 2841 928 2578 
Q 928 2378 1081 2264 
Q 1234 2150 1697 2047 
L 1894 2003 
Q 2506 1872 2764 1633 
Q 3022 1394 3022 966 
Q 3022 478 2636 193 
Q 2250 -91 1575 -91 
Q 1294 -91 989 -36 
Q 684 19 347 128 
L 347 722 
Q 666 556 975 473 
Q 1284 391 1588 391 
Q 1994 391 2212 530 
Q 2431 669 2431 922 
Q 2431 1156 2273 1281 
Q 2116 1406 1581 1522 
L 1381 1569 
Q 847 1681 609 1914 
Q 372 2147 372 2553 
Q 372 3047 722 3315 
Q 1072 3584 1716 3584 
Q 2034 3584 2315 3537 
Q 2597 3491 2834 3397 
z
" transform="scale(0.015625)"/>
      </defs>
      <use xlink:href="#DejaVuSans-46"/>
      <use xlink:href="#DejaVuSans-72" x="50.269531"/>
      <use xlink:href="#DejaVuSans-61" x="91.382812"/>
      <use xlink:href="#DejaVuSans-63" x="152.662109"/>
      <use xlink:href="#DejaVuSans-74" x="207.642578"/>
      <use xlink:href="#DejaVuSans-69" x="246.851562"/>
      <use xlink:href="#DejaVuSans-6f" x="274.634766"/>
      <use xlink:href="#DejaVuSans-6e" x="335.816406"/>
      <use xlink:href="#DejaVuSans-20" x="399.195312"/>
      <use xlink:href="#DejaVuSans-6f" x="430.982422"/>
      <use xlink:href="#DejaVuSans-66" x="492.164062"/>
      <use xlink:href="#DejaVuSans-20" x="527.369141"/>
      <use xlink:href="#DejaVuSans-4f" x="559.15625"/>
      <use xlink:href="#DejaVuSans-76" x="637.867188"/>
      <use xlink:href="#DejaVuSans-65" x="697.046875"/>
      <use xlink:href="#DejaVuSans-72" x="758.570312"/>
      <use xlink:href="#DejaVuSans-6c" x="799.683594"/>
      <use xlink:href="#DejaVuSans-61" x="827.466797"/>
      <use xlink:href="#DejaVuSans-70" x="888.746094"/>
      <use xlink:href="#DejaVuSans-70" x="952.222656"/>
      <use xlink:href="#DejaVuSans-69" x="1015.699219"/>
      <use xlink:href="#DejaVuSans-6e" x="1043.482422"/>
      <use xlink:href="#DejaVuSans-67" x="1106.861328"/>
      <use xlink:href="#DejaVuSans-20" x="1170.337891"/>
      <use xlink:href="#DejaVuSans-48" x="1202.125"/>
      <use xlink:href="#DejaVuSans-69" x="1277.320312"/>
      <use xlink:href="#DejaVuSans-74" x="1305.103516"/>
      <use xlink:href="#DejaVuSans-73" x="1344.3125"/>
     </g>
    </g>
   </g>
   <g id="line2d_23">
    <path d="M 52.8775 178.36 
L 52.8775 132.542857 
" clip-path="url(#p3df709e95e)" style="fill: none; stroke: #1a1a1a; stroke-linecap: square"/>
   </g>
   <g id="line2d_24">
    <path d="M 52.8775 170.72381 
L 52.8775 132.542857 
" clip-path="url(#p3df709e95e)" style="fill: none; stroke: #1a1a1a; stroke-width: 2; stroke-linecap: square"/>
   </g>
   <g id="line2d_25">
    <path d="M 52.8775 132.542857 
" clip-path="url(#p3df709e95e)" style="fill: none; stroke: #fa8072; stroke-width: 1.5; stroke-linecap: square"/>
    <defs>
     <path id="m56668238e7" d="M 0.833333 0 
L -0.833333 -0 
" style="stroke: #ffffff; stroke-width: 0.4"/>
    </defs>
    <g clip-path="url(#p3df709e95e)">
     <use xlink:href="#m56668238e7" x="52.8775" y="132.542857" style="fill: #ffffff; stroke: #ffffff; stroke-width: 0.4"/>
    </g>
   </g>
   <g id="line2d_26">
    <path d="M 93.0125 170.72381 
L 93.0125 71.453333 
" clip-path="url(#p3df709e95e)" style="fill: none; stroke: #1a1a1a; stroke-linecap: square"/>
   </g>
   <g id="line2d_27">
    <path d="M 93.0125 163.087619 
L 93.0125 101.998095 
" clip-path="url(#p3df709e95e)" style="fill: none; stroke: #1a1a1a; stroke-width: 2; stroke-linecap: square"/>
   </g>
   <g id="line2d_28">
    <path d="M 93.0125 132.542857 
" clip-path="url(#p3df709e95e)" style="fill: none; stroke: #fa8072; stroke-width: 1.5; stroke-linecap: square"/>
    <g clip-path="url(#p3df709e95e)">
     <use xlink:href="#m56668238e7" x="93.0125" y="132.542857" style="fill: #ffffff; stroke: #ffffff; stroke-width: 0.4"/>
    </g>
   </g>
   <g id="line2d_29">
    <path d="M 133.1475 170.72381 
L 133.1475 71.453333 
" clip-path="url(#p3df709e95e)" style="fill: none; stroke: #1a1a1a; stroke-linecap: square"/>
   </g>
   <g id="line2d_30">
    <path d="M 133.1475 140.179048 
L 133.1475 101.998095 
" clip-path="url(#p3df709e95e)" style="fill: none; stroke: #1a1a1a; stroke-width: 2; stroke-linecap: square"/>
   </g>
   <g id="line2d_31">
    <path d="M 133.1475 132.542857 
" clip-path="url(#p3df709e95e)" style="fill: none; stroke: #fa8072; stroke-width: 1.5; stroke-linecap: square"/>
    <g clip-path="url(#p3df709e95e)">
     <use xlink:href="#m56668238e7" x="133.1475" y="132.542857" style="fill: #ffffff; stroke: #ffffff; stroke-width: 0.4"/>
    </g>
   </g>
   <g id="line2d_32">
    <path d="M 173.2825 163.087619 
L 173.2825 33.272381 
" clip-path="url(#p3df709e95e)" style="fill: none; stroke: #1a1a1a; stroke-linecap: square"/>
   </g>
   <g id="line2d_33">
    <path d="M 173.2825 140.179048 
L 173.2825 86.725714 
" clip-path="url(#p3df709e95e)" style="fill: none; stroke: #1a1a1a; stroke-width: 2; stroke-linecap: square"/>
   </g>
   <g id="line2d_34">
    <path d="M 173.2825 109.634286 
" clip-path="url(#p3df709e95e)" style="fill: none; stroke: #fa8072; stroke-width: 1.5; stroke-linecap: square"/>
    <g clip-path="url(#p3df709e95e)">
     <use xlink:href="#m56668238e7" x="173.2825" y="109.634286" style="fill: #ffffff; stroke: #ffffff; stroke-width: 0.4"/>
    </g>
   </g>
   <g id="line2d_35">
    <path d="M 213.4175 170.72381 
L 213.4175 33.272381 
" clip-path="url(#p3df709e95e)" style="fill: none; stroke: #1a1a1a; stroke-linecap: square"/>
   </g>
   <g id="line2d_36">
    <path d="M 213.4175 124.906667 
L 213.4175 63.817143 
" clip-path="url(#p3df709e95e)" style="fill: none; stroke: #1a1a1a; stroke-width: 2; stroke-linecap: square"/>
   </g>
   <g id="line2d_37">
    <path d="M 213.4175 94.361905 
" clip-path="url(#p3df709e95e)" style="fill: none; stroke: #fa8072; stroke-width: 1.5; stroke-linecap: square"/>
    <g clip-path="url(#p3df709e95e)">
     <use xlink:href="#m56668238e7" x="213.4175" y="94.361905" style="fill: #ffffff; stroke: #ffffff; stroke-width: 0.4"/>
    </g>
   </g>
   <g id="line2d_38">
    <path d="M 253.5525 140.179048 
L 253.5525 40.908571 
" clip-path="url(#p3df709e95e)" style="fill: none; stroke: #1a1a1a; stroke-linecap: square"/>
   </g>
   <g id="line2d_39">
    <path d="M 253.5525 117.270476 
L 253.5525 79.089524 
" clip-path="url(#p3df709e95e)" style="fill: none; stroke: #1a1a1a; stroke-width: 2; stroke-linecap: square"/>
   </g>
   <g id="line2d_40">
    <path d="M 253.5525 98.18 
" clip-path="url(#p3df709e95e)" style="fill: none; stroke: #fa8072; stroke-width: 1.5; stroke-linecap: square"/>
    <g clip-path="url(#p3df709e95e)">
     <use xlink:href="#m56668238e7" x="253.5525" y="98.18" style="fill: #ffffff; stroke: #ffffff; stroke-width: 0.4"/>
    </g>
   </g>
   <g id="line2d_41">
    <path d="M 293.6875 147.815238 
L 293.6875 33.272381 
" clip-path="url(#p3df709e95e)" style="fill: none; stroke: #1a1a1a; stroke-linecap: square"/>
   </g>
   <g id="line2d_42">
    <path d="M 293.6875 94.361905 
L 293.6875 48.544762 
" clip-path="url(#p3df709e95e)" style="fill: none; stroke: #1a1a1a; stroke-width: 2; stroke-linecap: square"/>
   </g>
   <g id="line2d_43">
    <path d="M 293.6875 71.453333 
" clip-path="url(#p3df709e95e)" style="fill: none; stroke: #fa8072; stroke-width: 1.5; stroke-linecap: square"/>
    <g clip-path="url(#p3df709e95e)">
     <use xlink:href="#m56668238e7" x="293.6875" y="71.453333" style="fill: #ffffff; stroke: #ffffff; stroke-width: 0.4"/>
    </g>
   </g>
   <g id="line2d_44">
    <path d="M 333.8225 140.179048 
L 333.8225 33.272381 
" clip-path="url(#p3df709e95e)" style="fill: none; stroke: #1a1a1a; stroke-linecap: square"/>
   </g>
   <g id="line2d_45">
    <path d="M 333.8225 94.361905 
L 333.8225 50.45381 
" clip-path="url(#p3df709e95e)" style="fill: none; stroke: #1a1a1a; stroke-width: 2; stroke-linecap: square"/>
   </g>
   <g id="line2d_46">
    <path d="M 333.8225 75.271429 
" clip-path="url(#p3df709e95e)" style="fill: none; stroke: #fa8072; stroke-width: 1.5; stroke-linecap: square"/>
    <g clip-path="url(#p3df709e95e)">
     <use xlink:href="#m56668238e7" x="333.8225" y="75.271429" style="fill: #ffffff; stroke: #ffffff; stroke-width: 0.4"/>
    </g>
   </g>
   <g id="line2d_47">
    <path d="M 373.9575 140.179048 
L 373.9575 33.272381 
" clip-path="url(#p3df709e95e)" style="fill: none; stroke: #1a1a1a; stroke-linecap: square"/>
   </g>
   <g id="line2d_48">
    <path d="M 373.9575 94.361905 
L 373.9575 56.180952 
" clip-path="url(#p3df709e95e)" style="fill: none; stroke: #1a1a1a; stroke-width: 2; stroke-linecap: square"/>
   </g>
   <g id="line2d_49">
    <path d="M 373.9575 75.271429 
" clip-path="url(#p3df709e95e)" style="fill: none; stroke: #fa8072; stroke-width: 1.5; stroke-linecap: square"/>
    <g clip-path="url(#p3df709e95e)">
     <use xlink:href="#m56668238e7" x="373.9575" y="75.271429" style="fill: #ffffff; stroke: #ffffff; stroke-width: 0.4"/>
    </g>
   </g>
   <g id="line2d_50">
    <path d="M 414.0925 117.270476 
L 414.0925 25.63619 
" clip-path="url(#p3df709e95e)" style="fill: none; stroke: #1a1a1a; stroke-linecap: square"/>
   </g>
   <g id="line2d_51">
    <path d="M 414.0925 86.725714 
L 414.0925 42.817619 
" clip-path="url(#p3df709e95e)" style="fill: none; stroke: #1a1a1a; stroke-width: 2; stroke-linecap: square"/>
   </g>
   <g id="line2d_52">
    <path d="M 414.0925 59.999048 
" clip-path="url(#p3df709e95e)" style="fill: none; stroke: #fa8072; stroke-width: 1.5; stroke-linecap: square"/>
    <g clip-path="url(#p3df709e95e)">
     <use xlink:href="#m56668238e7" x="414.0925" y="59.999048" style="fill: #ffffff; stroke: #ffffff; stroke-width: 0.4"/>
    </g>
   </g>
   <g id="line2d_53">
    <path d="M 52.8775 132.542857 
L 93.0125 132.542857 
L 133.1475 132.542857 
L 173.2825 109.634286 
L 213.4175 94.361905 
L 253.5525 98.18 
L 293.6875 71.453333 
L 333.8225 75.271429 
L 373.9575 75.271429 
L 414.0925 59.999048 
" clip-path="url(#p3df709e95e)" style="fill: none; stroke: #8b0000; stroke-linecap: square"/>
    <defs>
     <path id="mb3ba886799" d="M 0 1.253314 
C 0.332383 1.253314 0.651197 1.121257 0.886227 0.886227 
C 1.121257 0.651197 1.253314 0.332383 1.253314 0 
C 1.253314 -0.332383 1.121257 -0.651197 0.886227 -0.886227 
C 0.651197 -1.121257 0.332383 -1.253314 0 -1.253314 
C -0.332383 -1.253314 -0.651197 -1.121257 -0.886227 -0.886227 
C -1.121257 -0.651197 -1.253314 -0.332383 -1.253314 0 
C -1.253314 0.332383 -1.121257 0.651197 -0.886227 0.886227 
C -0.651197 1.121257 -0.332383 1.253314 0 1.253314 
z
" style="stroke: #8b0000; stroke-width: 0.75"/>
    </defs>
    <g clip-path="url(#p3df709e95e)">
     <use xlink:href="#mb3ba886799" x="52.8775" y="132.542857" style="fill: #8b0000; stroke: #8b0000; stroke-width: 0.75"/>
     <use xlink:href="#mb3ba886799" x="93.0125" y="132.542857" style="fill: #8b0000; stroke: #8b0000; stroke-width: 0.75"/>
     <use xlink:href="#mb3ba886799" x="133.1475" y="132.542857" style="fill: #8b0000; stroke: #8b0000; stroke-width: 0.75"/>
     <use xlink:href="#mb3ba886799" x="173.2825" y="109.634286" style="fill: #8b0000; stroke: #8b0000; stroke-width: 0.75"/>
     <use xlink:href="#mb3ba886799" x="213.4175" y="94.361905" style="fill: #8b0000; stroke: #8b0000; stroke-width: 0.75"/>
     <use xlink:href="#mb3ba886799" x="253.5525" y="98.18" style="fill: #8b0000; stroke: #8b0000; stroke-width: 0.75"/>
     <use xlink:href="#mb3ba886799" x="293.6875" y="71.453333" style="fill: #8b0000; stroke: #8b0000; stroke-width: 0.75"/>
     <use xlink:href="#mb3ba886799" x="333.8225" y="75.271429" style="fill: #8b0000; stroke: #8b0000; stroke-width: 0.75"/>
     <use xlink:href="#mb3ba886799" x="373.9575" y="75.271429" style="fill: #8b0000; stroke: #8b0000; stroke-width: 0.75"/>
     <use xlink:href="#mb3ba886799" x="414.0925" y="59.999048" style="fill: #8b0000; stroke: #8b0000; stroke-width: 0.75"/>
    </g>
   </g>
   <g id="line2d_54">
    <path clip-path="url(#p3df709e95e)" style="fill: none; stroke: #8b0000; stroke-linecap: square"/>
   </g>
   <g id="line2d_55">
    <path clip-path="url(#p3df709e95e)" style="fill: none; stroke: #8b0000; stroke-linecap: square"/>
   </g>
   <g id="line2d_56">
    <path clip-path="url(#p3df709e95e)" style="fill: none; stroke: #8b0000; stroke-linecap: square"/>
   </g>
   <g id="line2d_57">
    <path clip-path="url(#p3df709e95e)" style="fill: none; stroke: #8b0000; stroke-linecap: square"/>
   </g>
   <g id="line2d_58">
    <path clip-path="url(#p3df709e95e)" style="fill: none; stroke: #8b0000; stroke-linecap: square"/>
   </g>
   <g id="line2d_59">
    <path clip-path="url(#p3df709e95e)" style="fill: none; stroke: #8b0000; stroke-linecap: square"/>
   </g>
   <g id="line2d_60">
    <path clip-path="url(#p3df709e95e)" style="fill: none; stroke: #8b0000; stroke-linecap: square"/>
   </g>
   <g id="line2d_61">
    <path clip-path="url(#p3df709e95e)" style="fill: none; stroke: #8b0000; stroke-linecap: square"/>
   </g>
   <g id="line2d_62">
    <path clip-path="url(#p3df709e95e)" style="fill: none; stroke: #8b0000; stroke-linecap: square"/>
   </g>
   <g id="line2d_63">
    <path clip-path="url(#p3df709e95e)" style="fill: none; stroke: #8b0000; stroke-linecap: square"/>
   </g>
   <g id="patch_3">
    <path d="M 32.81 178.36 
L 32.81 18 
" style="fill: none; stroke: #000000; stroke-width: 0.8; stroke-linejoin: miter; stroke-linecap: square"/>
   </g>
   <g id="patch_4">
    <path d="M 434.16 178.36 
L 434.16 18 
" style="fill: none; stroke: #000000; stroke-width: 0.8; stroke-linejoin: miter; stroke-linecap: square"/>
   </g>
   <g id="patch_5">
    <path d="M 32.81 178.36 
L 434.16 178.36 
" style="fill: none; stroke: #000000; stroke-width: 0.8; stroke-linejoin: miter; stroke-linecap: square"/>
   </g>
   <g id="patch_6">
    <path d="M 32.81 18 
L 434.16 18 
" style="fill: none; stroke: #000000; stroke-width: 0.8; stroke-linejoin: miter; stroke-linecap: square"/>
   </g>
   <g id="text_19">
    <!-- Fraction of Overlapping Hits in Bootstraps compared to Standard -->
    <g transform="translate(116.719 12) scale(0.072 -0.072)">
     <defs>
      <path id="DejaVuSans-42" d="M 1259 2228 
L 1259 519 
L 2272 519 
Q 2781 519 3026 730 
Q 3272 941 3272 1375 
Q 3272 1813 3026 2020 
Q 2781 2228 2272 2228 
L 1259 2228 
z
M 1259 4147 
L 1259 2741 
L 2194 2741 
Q 2656 2741 2882 2914 
Q 3109 3088 3109 3444 
Q 3109 3797 2882 3972 
Q 2656 4147 2194 4147 
L 1259 4147 
z
M 628 4666 
L 2241 4666 
Q 2963 4666 3353 4366 
Q 3744 4066 3744 3513 
Q 3744 3084 3544 2831 
Q 3344 2578 2956 2516 
Q 3422 2416 3680 2098 
Q 3938 1781 3938 1306 
Q 3938 681 3513 340 
Q 3088 0 2303 0 
L 628 0 
L 628 4666 
z
" transform="scale(0.015625)"/>
      <path id="DejaVuSans-64" d="M 2906 2969 
L 2906 4863 
L 3481 4863 
L 3481 0 
L 2906 0 
L 2906 525 
Q 2725 213 2448 61 
Q 2172 -91 1784 -91 
Q 1150 -91 751 415 
Q 353 922 353 1747 
Q 353 2572 751 3078 
Q 1150 3584 1784 3584 
Q 2172 3584 2448 3432 
Q 2725 3281 2906 2969 
z
M 947 1747 
Q 947 1113 1208 752 
Q 1469 391 1925 391 
Q 2381 391 2643 752 
Q 2906 1113 2906 1747 
Q 2906 2381 2643 2742 
Q 2381 3103 1925 3103 
Q 1469 3103 1208 2742 
Q 947 2381 947 1747 
z
" transform="scale(0.015625)"/>
      <path id="DejaVuSans-53" d="M 3425 4513 
L 3425 3897 
Q 3066 4069 2747 4153 
Q 2428 4238 2131 4238 
Q 1616 4238 1336 4038 
Q 1056 3838 1056 3469 
Q 1056 3159 1242 3001 
Q 1428 2844 1947 2747 
L 2328 2669 
Q 3034 2534 3370 2195 
Q 3706 1856 3706 1288 
Q 3706 609 3251 259 
Q 2797 -91 1919 -91 
Q 1588 -91 1214 -16 
Q 841 59 441 206 
L 441 856 
Q 825 641 1194 531 
Q 1563 422 1919 422 
Q 2459 422 2753 634 
Q 3047 847 3047 1241 
Q 3047 1584 2836 1778 
Q 2625 1972 2144 2069 
L 1759 2144 
Q 1053 2284 737 2584 
Q 422 2884 422 3419 
Q 422 4038 858 4394 
Q 1294 4750 2059 4750 
Q 2388 4750 2728 4690 
Q 3069 4631 3425 4513 
z
" transform="scale(0.015625)"/>
     </defs>
     <use xlink:href="#DejaVuSans-46"/>
     <use xlink:href="#DejaVuSans-72" x="50.269531"/>
     <use xlink:href="#DejaVuSans-61" x="91.382812"/>
     <use xlink:href="#DejaVuSans-63" x="152.662109"/>
     <use xlink:href="#DejaVuSans-74" x="207.642578"/>
     <use xlink:href="#DejaVuSans-69" x="246.851562"/>
     <use xlink:href="#DejaVuSans-6f" x="274.634766"/>
     <use xlink:href="#DejaVuSans-6e" x="335.816406"/>
     <use xlink:href="#DejaVuSans-20" x="399.195312"/>
     <use xlink:href="#DejaVuSans-6f" x="430.982422"/>
     <use xlink:href="#DejaVuSans-66" x="492.164062"/>
     <use xlink:href="#DejaVuSans-20" x="527.369141"/>
     <use xlink:href="#DejaVuSans-4f" x="559.15625"/>
     <use xlink:href="#DejaVuSans-76" x="637.867188"/>
     <use xlink:href="#DejaVuSans-65" x="697.046875"/>
     <use xlink:href="#DejaVuSans-72" x="758.570312"/>
     <use xlink:href="#DejaVuSans-6c" x="799.683594"/>
     <use xlink:href="#DejaVuSans-61" x="827.466797"/>
     <use xlink:href="#DejaVuSans-70" x="888.746094"/>
     <use xlink:href="#DejaVuSans-70" x="952.222656"/>
     <use xlink:href="#DejaVuSans-69" x="1015.699219"/>
     <use xlink:href="#DejaVuSans-6e" x="1043.482422"/>
     <use xlink:href="#DejaVuSans-67" x="1106.861328"/>
     <use xlink:href="#DejaVuSans-20" x="1170.337891"/>
     <use xlink:href="#DejaVuSans-48" x="1202.125"/>
     <use xlink:href="#DejaVuSans-69" x="1277.320312"/>
     <use xlink:href="#DejaVuSans-74" x="1305.103516"/>
     <use xlink:href="#DejaVuSans-73" x="1344.3125"/>
     <use xlink:href="#DejaVuSans-20" x="1396.412109"/>
     <use xlink:href="#DejaVuSans-69" x="1428.199219"/>
     <use xlink:href="#DejaVuSans-6e" x="1455.982422"/>
     <use xlink:href="#DejaVuSans-20" x="1519.361328"/>
     <use xlink:href="#DejaVuSans-42" x="1551.148438"/>
     <use xlink:href="#DejaVuSans-6f" x="1619.751953"/>
     <use xlink:href="#DejaVuSans-6f" x="1680.933594"/>
     <use xlink:href="#DejaVuSans-74" x="1742.115234"/>
     <use xlink:href="#DejaVuSans-73" x="1781.324219"/>
     <use xlink:href="#DejaVuSans-74" x="1833.423828"/>
     <use xlink:href="#DejaVuSans-72" x="1872.632812"/>
     <use xlink:href="#DejaVuSans-61" x="1913.746094"/>
     <use xlink:href="#DejaVuSans-70" x="1975.025391"/>
     <use xlink:href="#DejaVuSans-73" x="2038.501953"/>
     <use xlink:href="#DejaVuSans-20" x="2090.601562"/>
     <use xlink:href="#DejaVuSans-63" x="2122.388672"/>
     <use xlink:href="#DejaVuSans-6f" x="2177.369141"/>
     <use xlink:href="#DejaVuSans-6d" x="2238.550781"/>
     <use xlink:href="#DejaVuSans-70" x="2335.962891"/>
     <use xlink:href="#DejaVuSans-61" x="2399.439453"/>
     <use xlink:href="#DejaVuSans-72" x="2460.71875"/>
     <use xlink:href="#DejaVuSans-65" x="2499.582031"/>
     <use xlink:href="#DejaVuSans-64" x="2561.105469"/>
     <use xlink:href="#DejaVuSans-20" x="2624.582031"/>
     <use xlink:href="#DejaVuSans-74" x="2656.369141"/>
     <use xlink:href="#DejaVuSans-6f" x="2695.578125"/>
     <use xlink:href="#DejaVuSans-20" x="2756.759766"/>
     <use xlink:href="#DejaVuSans-53" x="2788.546875"/>
     <use xlink:href="#DejaVuSans-74" x="2852.023438"/>
     <use xlink:href="#DejaVuSans-61" x="2891.232422"/>
     <use xlink:href="#DejaVuSans-6e" x="2952.511719"/>
     <use xlink:href="#DejaVuSans-64" x="3015.890625"/>
     <use xlink:href="#DejaVuSans-61" x="3079.367188"/>
     <use xlink:href="#DejaVuSans-72" x="3140.646484"/>
     <use xlink:href="#DejaVuSans-64" x="3180.009766"/>
    </g>
   </g>
  </g>
 </g>
 <defs>
  <clipPath id="p3df709e95e">
   <rect x="32.81" y="18" width="401.35" height="160.36"/>
  </clipPath>
 </defs>
</svg>
