<?xml version="1.0" encoding="utf-8" standalone="no"?>
<!DOCTYPE svg PUBLIC "-//W3C//DTD SVG 1.1//EN"
  "http://www.w3.org/Graphics/SVG/1.1/DTD/svg11.dtd">
<svg xmlns:xlink="http://www.w3.org/1999/xlink" width="440.64pt" height="207.36pt" viewBox="0 0 440.64 207.36" xmlns="http://www.w3.org/2000/svg" version="1.1">
 <metadata>
  <rdf:RDF xmlns:dc="http://purl.org/dc/elements/1.1/" xmlns:cc="http://creativecommons.org/ns#" xmlns:rdf="http://www.w3.org/1999/02/22-rdf-syntax-ns#">
   <cc:Work>
    <dc:type rdf:resource="http://purl.org/dc/dcmitype/StillImage"/>
    <dc:date>2024-10-07T11:45:48.954555</dc:date>
    <dc:format>image/svg+xml</dc:format>
    <dc:creator>
     <cc:Agent>
      <dc:title>Matplotlib v3.9.1, https://matplotlib.org/</dc:title>
     </cc:Agent>
    </dc:creator>
   </cc:Work>
  </rdf:RDF>
 </metadata>
 <defs>
  <style type="text/css">*{stroke-linejoin: round; stroke-linecap: butt}</style>
 </defs>
 <g id="figure_1">
  <g id="patch_1">
   <path d="M 0 207.36 
L 440.64 207.36 
L 440.64 0 
L 0 0 
z
" style="fill: #ffffff"/>
  </g>
  <g id="axes_1">
   <g id="patch_2">
    <path d="M 32.81 178.36 
L 434.16 178.36 
L 434.16 18 
L 32.81 18 
z
" style="fill: #ffffff"/>
   </g>
   <g id="PolyCollection_1">
    <path d="M 53.062026 193.60097 
L 52.692974 193.60097 
L 52.609699 192.166256 
L 52.501478 190.731542 
L 52.366488 189.296827 
L 52.205056 187.862113 
L 52.020259 186.427398 
L 51.818222 184.992684 
L 51.607979 183.55797 
L 51.400846 182.123255 
L 51.209354 180.688541 
L 51.045887 179.253827 
L 50.921253 177.819112 
L 50.843425 176.384398 
L 50.816646 174.949683 
L 50.84103 173.514969 
L 50.91267 172.080255 
L 51.024192 170.64554 
L 51.165621 169.210826 
L 51.325418 167.776112 
L 51.491541 166.341397 
L 51.652433 164.906683 
L 51.797859 163.471968 
L 51.919546 162.037254 
L 52.011626 160.60254 
L 52.070852 159.167825 
L 52.096606 157.733111 
L 52.090706 156.298397 
L 52.057032 154.863682 
L 52.001037 153.428968 
L 51.929176 151.994253 
L 51.848347 150.559539 
L 51.765401 149.124825 
L 51.686754 147.69011 
L 51.618112 146.255396 
L 51.564286 144.820682 
L 51.529055 143.385967 
L 51.515024 141.951253 
L 51.523472 140.516538 
L 51.5542 139.081824 
L 51.605451 137.64711 
L 51.67397 136.212395 
L 51.755259 134.777681 
L 51.844054 133.342967 
L 51.934968 131.908252 
L 52.023174 130.473538 
L 52.104979 129.038823 
L 52.178149 127.604109 
L 52.241886 126.169395 
L 52.296456 124.73468 
L 52.342562 123.299966 
L 52.380633 121.865252 
L 52.410218 120.430537 
L 52.429661 118.995823 
L 52.436176 117.561108 
L 52.426334 116.126394 
L 52.396897 114.69168 
L 52.34582 113.256965 
L 52.273227 111.822251 
L 52.182121 110.387537 
L 52.078621 108.952822 
L 51.971618 107.518108 
L 51.871826 106.083393 
L 51.790356 104.648679 
L 51.737082 103.213965 
L 51.71909 101.77925 
L 51.739565 100.344536 
L 51.797336 98.909822 
L 51.887176 97.475107 
L 52.000772 96.040393 
L 52.128131 94.605678 
L 52.259106 93.170964 
L 52.384736 91.73625 
L 52.498167 90.301535 
L 52.595067 88.866821 
L 52.673553 87.432107 
L 52.733757 85.997392 
L 52.777215 84.562678 
L 52.806233 83.127963 
L 52.823363 81.693249 
L 52.831051 80.258535 
L 52.831463 78.82382 
L 52.826463 77.389106 
L 52.817675 75.954392 
L 52.806578 74.519677 
L 52.79458 73.084963 
L 52.783036 71.650248 
L 52.773209 70.215534 
L 52.766177 68.78082 
L 52.762724 67.346105 
L 52.763249 65.911391 
L 52.767718 64.476677 
L 52.775681 63.041962 
L 52.786352 61.607248 
L 52.798745 60.172533 
L 52.811823 58.737819 
L 52.824637 57.303105 
L 52.836432 55.86839 
L 52.846707 54.433676 
L 52.855215 52.998962 
L 52.861934 51.564247 
L 52.893066 51.564247 
L 52.893066 51.564247 
L 52.899785 52.998962 
L 52.908293 54.433676 
L 52.918568 55.86839 
L 52.930363 57.303105 
L 52.943177 58.737819 
L 52.956255 60.172533 
L 52.968648 61.607248 
L 52.979319 63.041962 
L 52.987282 64.476677 
L 52.991751 65.911391 
L 52.992276 67.346105 
L 52.988823 68.78082 
L 52.981791 70.215534 
L 52.971964 71.650248 
L 52.96042 73.084963 
L 52.948422 74.519677 
L 52.937325 75.954392 
L 52.928537 77.389106 
L 52.923537 78.82382 
L 52.923949 80.258535 
L 52.931637 81.693249 
L 52.948767 83.127963 
L 52.977785 84.562678 
L 53.021243 85.997392 
L 53.081447 87.432107 
L 53.159933 88.866821 
L 53.256833 90.301535 
L 53.370264 91.73625 
L 53.495894 93.170964 
L 53.626869 94.605678 
L 53.754228 96.040393 
L 53.867824 97.475107 
L 53.957664 98.909822 
L 54.015435 100.344536 
L 54.03591 101.77925 
L 54.017918 103.213965 
L 53.964644 104.648679 
L 53.883174 106.083393 
L 53.783382 107.518108 
L 53.676379 108.952822 
L 53.572879 110.387537 
L 53.481773 111.822251 
L 53.40918 113.256965 
L 53.358103 114.69168 
L 53.328666 116.126394 
L 53.318824 117.561108 
L 53.325339 118.995823 
L 53.344782 120.430537 
L 53.374367 121.865252 
L 53.412438 123.299966 
L 53.458544 124.73468 
L 53.513114 126.169395 
L 53.576851 127.604109 
L 53.650021 129.038823 
L 53.731826 130.473538 
L 53.820032 131.908252 
L 53.910946 133.342967 
L 53.999741 134.777681 
L 54.08103 136.212395 
L 54.149549 137.64711 
L 54.2008 139.081824 
L 54.231528 140.516538 
L 54.239976 141.951253 
L 54.225945 143.385967 
L 54.190714 144.820682 
L 54.136888 146.255396 
L 54.068246 147.69011 
L 53.989599 149.124825 
L 53.906653 150.559539 
L 53.825824 151.994253 
L 53.753963 153.428968 
L 53.697968 154.863682 
L 53.664294 156.298397 
L 53.658394 157.733111 
L 53.684148 159.167825 
L 53.743374 160.60254 
L 53.835454 162.037254 
L 53.957141 163.471968 
L 54.102567 164.906683 
L 54.263459 166.341397 
L 54.429582 167.776112 
L 54.589379 169.210826 
L 54.730808 170.64554 
L 54.84233 172.080255 
L 54.91397 173.514969 
L 54.938354 174.949683 
L 54.911575 176.384398 
L 54.833747 177.819112 
L 54.709113 179.253827 
L 54.545646 180.688541 
L 54.354154 182.123255 
L 54.147021 183.55797 
L 53.936778 184.992684 
L 53.734741 186.427398 
L 53.549944 187.862113 
L 53.388512 189.296827 
L 53.253522 190.731542 
L 53.145301 192.166256 
L 53.062026 193.60097 
L 53.062026 193.60097 
z
" clip-path="url(#pa8d218ff50)" style="fill: none; stroke: #fa8072; stroke-opacity: 0.8; stroke-width: 2"/>
   </g>
   <g id="PolyCollection_2">
    <path d="M 93.025218 190.427799 
L 92.999782 190.427799 
L 92.993911 188.564207 
L 92.986283 186.700615 
L 92.976788 184.837023 
L 92.965454 182.973431 
L 92.952454 181.10984 
L 92.938072 179.246248 
L 92.92262 177.382656 
L 92.906325 175.519064 
L 92.889193 173.655472 
L 92.870893 171.79188 
L 92.850693 169.928288 
L 92.827467 168.064696 
L 92.799778 166.201104 
L 92.766032 164.337512 
L 92.724672 162.473921 
L 92.674379 160.610329 
L 92.614251 158.746737 
L 92.543948 156.883145 
L 92.463792 155.019553 
L 92.374836 153.155961 
L 92.278889 151.292369 
L 92.178514 149.428777 
L 92.076968 147.565185 
L 91.978083 145.701593 
L 91.886055 143.838002 
L 91.805159 141.97441 
L 91.739382 140.110818 
L 91.692026 138.247226 
L 91.66534 136.383634 
L 91.660225 134.520042 
L 91.676092 132.65645 
L 91.710877 130.792858 
L 91.761246 128.929266 
L 91.822923 127.065674 
L 91.891101 125.202083 
L 91.96087 123.338491 
L 92.027591 121.474899 
L 92.087219 119.611307 
L 92.13656 117.747715 
L 92.17349 115.884123 
L 92.197161 114.020531 
L 92.208157 112.156939 
L 92.208576 110.293347 
L 92.201929 108.429755 
L 92.192811 106.566164 
L 92.186311 104.702572 
L 92.187213 102.83898 
L 92.199126 100.975388 
L 92.223725 99.111796 
L 92.260273 97.248204 
L 92.305559 95.384612 
L 92.354289 93.52102 
L 92.399885 91.657428 
L 92.435541 89.793836 
L 92.45536 87.930245 
L 92.45538 86.066653 
L 92.434305 84.203061 
L 92.393821 82.339469 
L 92.33843 80.475877 
L 92.274816 78.612285 
L 92.210838 76.748693 
L 92.154311 74.885101 
L 92.111799 73.021509 
L 92.087644 71.157917 
L 92.083409 69.294326 
L 92.097849 67.430734 
L 92.127394 65.567142 
L 92.167029 63.70355 
L 92.211361 61.839958 
L 92.255635 59.976366 
L 92.296498 58.112774 
L 92.332363 56.249182 
L 92.363347 54.38559 
L 92.390854 52.521998 
L 92.416943 50.658407 
L 92.443651 48.794815 
L 92.472444 46.931223 
L 92.503885 45.067631 
L 92.537571 43.204039 
L 92.572316 41.340447 
L 92.606497 39.476855 
L 92.638482 37.613263 
L 92.667025 35.749671 
L 92.691553 33.886079 
L 92.712272 32.022488 
L 92.730104 30.158896 
L 92.746445 28.295304 
L 92.762833 26.431712 
L 92.7806 24.56812 
L 92.800584 22.704528 
L 92.822977 20.840936 
L 92.847328 18.977344 
L 92.872688 17.113752 
L 92.897843 15.25016 
L 92.92157 13.386569 
L 92.942855 11.522977 
L 92.961034 9.659385 
L 92.975831 7.795793 
L 92.987323 5.932201 
L 93.037677 5.932201 
L 93.037677 5.932201 
L 93.049169 7.795793 
L 93.063966 9.659385 
L 93.082145 11.522977 
L 93.10343 13.386569 
L 93.127157 15.25016 
L 93.152312 17.113752 
L 93.177672 18.977344 
L 93.202023 20.840936 
L 93.224416 22.704528 
L 93.2444 24.56812 
L 93.262167 26.431712 
L 93.278555 28.295304 
L 93.294896 30.158896 
L 93.312728 32.022488 
L 93.333447 33.886079 
L 93.357975 35.749671 
L 93.386518 37.613263 
L 93.418503 39.476855 
L 93.452684 41.340447 
L 93.487429 43.204039 
L 93.521115 45.067631 
L 93.552556 46.931223 
L 93.581349 48.794815 
L 93.608057 50.658407 
L 93.634146 52.521998 
L 93.661653 54.38559 
L 93.692637 56.249182 
L 93.728502 58.112774 
L 93.769365 59.976366 
L 93.813639 61.839958 
L 93.857971 63.70355 
L 93.897606 65.567142 
L 93.927151 67.430734 
L 93.941591 69.294326 
L 93.937356 71.157917 
L 93.913201 73.021509 
L 93.870689 74.885101 
L 93.814162 76.748693 
L 93.750184 78.612285 
L 93.68657 80.475877 
L 93.631179 82.339469 
L 93.590695 84.203061 
L 93.56962 86.066653 
L 93.56964 87.930245 
L 93.589459 89.793836 
L 93.625115 91.657428 
L 93.670711 93.52102 
L 93.719441 95.384612 
L 93.764727 97.248204 
L 93.801275 99.111796 
L 93.825874 100.975388 
L 93.837787 102.83898 
L 93.838689 104.702572 
L 93.832189 106.566164 
L 93.823071 108.429755 
L 93.816424 110.293347 
L 93.816843 112.156939 
L 93.827839 114.020531 
L 93.85151 115.884123 
L 93.88844 117.747715 
L 93.937781 119.611307 
L 93.997409 121.474899 
L 94.06413 123.338491 
L 94.133899 125.202083 
L 94.202077 127.065674 
L 94.263754 128.929266 
L 94.314123 130.792858 
L 94.348908 132.65645 
L 94.364775 134.520042 
L 94.35966 136.383634 
L 94.332974 138.247226 
L 94.285618 140.110818 
L 94.219841 141.97441 
L 94.138945 143.838002 
L 94.046917 145.701593 
L 93.948032 147.565185 
L 93.846486 149.428777 
L 93.746111 151.292369 
L 93.650164 153.155961 
L 93.561208 155.019553 
L 93.481052 156.883145 
L 93.410749 158.746737 
L 93.350621 160.610329 
L 93.300328 162.473921 
L 93.258968 164.337512 
L 93.225222 166.201104 
L 93.197533 168.064696 
L 93.174307 169.928288 
L 93.154107 171.79188 
L 93.135807 173.655472 
L 93.118675 175.519064 
L 93.10238 177.382656 
L 93.086928 179.246248 
L 93.072546 181.10984 
L 93.059546 182.973431 
L 93.048212 184.837023 
L 93.038717 186.700615 
L 93.031089 188.564207 
L 93.025218 190.427799 
L 93.025218 190.427799 
z
" clip-path="url(#pa8d218ff50)" style="fill: none; stroke: #fa8072; stroke-opacity: 0.8; stroke-width: 2"/>
   </g>
   <g id="PolyCollection_3">
    <path d="M 133.162878 183.481269 
L 133.132122 183.481269 
L 133.12468 181.687585 
L 133.114602 179.893901 
L 133.101374 178.100217 
L 133.084518 176.306533 
L 133.063631 174.512849 
L 133.038416 172.719166 
L 133.008702 170.925482 
L 132.974454 169.131798 
L 132.935794 167.338114 
L 132.893012 165.54443 
L 132.846604 163.750746 
L 132.797314 161.957062 
L 132.746181 160.163378 
L 132.694563 158.369694 
L 132.644116 156.57601 
L 132.596706 154.782326 
L 132.554245 152.988642 
L 132.518468 151.194958 
L 132.490667 149.401274 
L 132.471458 147.60759 
L 132.460604 145.813906 
L 132.456962 144.020222 
L 132.458566 142.226538 
L 132.462851 140.432854 
L 132.466974 138.63917 
L 132.4682 136.845486 
L 132.464267 135.051802 
L 132.453695 133.258118 
L 132.43598 131.464434 
L 132.41166 129.67075 
L 132.382249 127.877066 
L 132.350067 126.083382 
L 132.31797 124.289698 
L 132.289034 122.496014 
L 132.266206 120.702331 
L 132.251958 118.908647 
L 132.247967 117.114963 
L 132.254875 115.321279 
L 132.272143 113.527595 
L 132.298047 111.733911 
L 132.329833 109.940227 
L 132.364029 108.146543 
L 132.396869 106.352859 
L 132.424784 104.559175 
L 132.444853 102.765491 
L 132.455141 100.971807 
L 132.454853 99.178123 
L 132.444283 97.384439 
L 132.424571 95.590755 
L 132.397354 93.797071 
L 132.364395 92.003387 
L 132.327294 90.209703 
L 132.287352 88.416019 
L 132.245607 86.622335 
L 132.202995 84.828651 
L 132.160588 83.034967 
L 132.11978 81.241283 
L 132.082363 79.447599 
L 132.05044 77.653915 
L 132.026187 75.860231 
L 132.011525 74.066547 
L 132.00779 72.272863 
L 132.015491 70.47918 
L 132.034207 68.685496 
L 132.062662 66.891812 
L 132.098928 65.098128 
L 132.140717 63.304444 
L 132.185675 61.51076 
L 132.231644 59.717076 
L 132.276839 57.923392 
L 132.319937 56.129708 
L 132.360094 54.336024 
L 132.39691 52.54234 
L 132.430354 50.748656 
L 132.460684 48.954972 
L 132.488349 47.161288 
L 132.513904 45.367604 
L 132.53793 43.57392 
L 132.560979 41.780236 
L 132.583546 39.986552 
L 132.606073 38.192868 
L 132.628973 36.399184 
L 132.652665 34.6055 
L 132.677593 32.811816 
L 132.704214 31.018132 
L 132.732944 29.224448 
L 132.76407 27.430764 
L 132.797649 25.63708 
L 132.833423 23.843396 
L 132.870789 22.049712 
L 132.908827 20.256029 
L 132.9464 18.462345 
L 132.982301 16.668661 
L 133.015412 14.874977 
L 133.04485 13.081293 
L 133.070059 11.287609 
L 133.09084 9.493925 
L 133.107329 7.700241 
L 133.11992 5.906557 
L 133.17508 5.906557 
L 133.17508 5.906557 
L 133.187671 7.700241 
L 133.20416 9.493925 
L 133.224941 11.287609 
L 133.25015 13.081293 
L 133.279588 14.874977 
L 133.312699 16.668661 
L 133.3486 18.462345 
L 133.386173 20.256029 
L 133.424211 22.049712 
L 133.461577 23.843396 
L 133.497351 25.63708 
L 133.53093 27.430764 
L 133.562056 29.224448 
L 133.590786 31.018132 
L 133.617407 32.811816 
L 133.642335 34.6055 
L 133.666027 36.399184 
L 133.688927 38.192868 
L 133.711454 39.986552 
L 133.734021 41.780236 
L 133.75707 43.57392 
L 133.781096 45.367604 
L 133.806651 47.161288 
L 133.834316 48.954972 
L 133.864646 50.748656 
L 133.89809 52.54234 
L 133.934906 54.336024 
L 133.975063 56.129708 
L 134.018161 57.923392 
L 134.063356 59.717076 
L 134.109325 61.51076 
L 134.154283 63.304444 
L 134.196072 65.098128 
L 134.232338 66.891812 
L 134.260793 68.685496 
L 134.279509 70.47918 
L 134.28721 72.272863 
L 134.283475 74.066547 
L 134.268813 75.860231 
L 134.24456 77.653915 
L 134.212637 79.447599 
L 134.17522 81.241283 
L 134.134412 83.034967 
L 134.092005 84.828651 
L 134.049393 86.622335 
L 134.007648 88.416019 
L 133.967706 90.209703 
L 133.930605 92.003387 
L 133.897646 93.797071 
L 133.870429 95.590755 
L 133.850717 97.384439 
L 133.840147 99.178123 
L 133.839859 100.971807 
L 133.850147 102.765491 
L 133.870216 104.559175 
L 133.898131 106.352859 
L 133.930971 108.146543 
L 133.965167 109.940227 
L 133.996953 111.733911 
L 134.022857 113.527595 
L 134.040125 115.321279 
L 134.047033 117.114963 
L 134.043042 118.908647 
L 134.028794 120.702331 
L 134.005966 122.496014 
L 133.97703 124.289698 
L 133.944933 126.083382 
L 133.912751 127.877066 
L 133.88334 129.67075 
L 133.85902 131.464434 
L 133.841305 133.258118 
L 133.830733 135.051802 
L 133.8268 136.845486 
L 133.828026 138.63917 
L 133.832149 140.432854 
L 133.836434 142.226538 
L 133.838038 144.020222 
L 133.834396 145.813906 
L 133.823542 147.60759 
L 133.804333 149.401274 
L 133.776532 151.194958 
L 133.740755 152.988642 
L 133.698294 154.782326 
L 133.650884 156.57601 
L 133.600437 158.369694 
L 133.548819 160.163378 
L 133.497686 161.957062 
L 133.448396 163.750746 
L 133.401988 165.54443 
L 133.359206 167.338114 
L 133.320546 169.131798 
L 133.286298 170.925482 
L 133.256584 172.719166 
L 133.231369 174.512849 
L 133.210482 176.306533 
L 133.193626 178.100217 
L 133.180398 179.893901 
L 133.17032 181.687585 
L 133.162878 183.481269 
L 133.162878 183.481269 
z
" clip-path="url(#pa8d218ff50)" style="fill: none; stroke: #fa8072; stroke-opacity: 0.8; stroke-width: 2"/>
   </g>
   <g id="PolyCollection_4">
    <path d="M 173.300571 136.921389 
L 173.264429 136.921389 
L 173.256198 135.575326 
L 173.24542 134.229264 
L 173.231832 132.883202 
L 173.215344 131.537139 
L 173.196092 130.191077 
L 173.174464 128.845015 
L 173.151098 127.498953 
L 173.126837 126.15289 
L 173.102654 124.806828 
L 173.079561 123.460766 
L 173.058512 122.114703 
L 173.040326 120.768641 
L 173.025639 119.422579 
L 173.014877 118.076516 
L 173.008259 116.730454 
L 173.005804 115.384392 
L 173.007331 114.038329 
L 173.012445 112.692267 
L 173.020509 111.346205 
L 173.030606 110.000143 
L 173.041518 108.65408 
L 173.051729 107.308018 
L 173.059474 105.961956 
L 173.062841 104.615893 
L 173.059908 103.269831 
L 173.048905 101.923769 
L 173.028377 100.577706 
L 172.997316 99.231644 
L 172.955268 97.885582 
L 172.902383 96.539519 
L 172.839429 95.193457 
L 172.767767 93.847395 
L 172.689303 92.501332 
L 172.606416 91.15527 
L 172.521851 89.809208 
L 172.438586 88.463146 
L 172.35966 87.117083 
L 172.287953 85.771021 
L 172.225951 84.424959 
L 172.175514 83.078896 
L 172.137683 81.732834 
L 172.112588 80.386772 
L 172.099471 79.040709 
L 172.096851 77.694647 
L 172.102794 76.348585 
L 172.115247 75.002522 
L 172.132343 73.65646 
L 172.15263 72.310398 
L 172.175153 70.964336 
L 172.199377 69.618273 
L 172.225009 68.272211 
L 172.251745 66.926149 
L 172.27906 65.580086 
L 172.306078 64.234024 
L 172.331577 62.887962 
L 172.354109 61.541899 
L 172.372198 60.195837 
L 172.384549 58.849775 
L 172.390217 57.503712 
L 172.388672 56.15765 
L 172.379785 54.811588 
L 172.363729 53.465525 
L 172.340862 52.119463 
L 172.311632 50.773401 
L 172.27653 49.427339 
L 172.236116 48.081276 
L 172.191084 46.735214 
L 172.142331 45.389152 
L 172.090998 44.043089 
L 172.038442 42.697027 
L 171.98613 41.350965 
L 171.935477 40.004902 
L 171.887651 38.65884 
L 171.843412 37.312778 
L 171.803009 35.966715 
L 171.766194 34.620653 
L 171.732349 33.274591 
L 171.700736 31.928528 
L 171.670829 30.582466 
L 171.642683 29.236404 
L 171.617268 27.890342 
L 171.596676 26.544279 
L 171.584143 25.198217 
L 171.583809 23.852155 
L 171.600222 22.506092 
L 171.637637 21.16003 
L 171.699214 19.813968 
L 171.786281 18.467905 
L 171.897841 17.121843 
L 172.03043 15.775781 
L 172.178412 14.429718 
L 172.334648 13.083656 
L 172.491415 11.737594 
L 172.641387 10.391532 
L 172.778486 9.045469 
L 172.89845 7.699407 
L 172.999052 6.353345 
L 173.079988 5.007282 
L 173.142504 3.66122 
L 173.422496 3.66122 
L 173.422496 3.66122 
L 173.485012 5.007282 
L 173.565948 6.353345 
L 173.66655 7.699407 
L 173.786514 9.045469 
L 173.923613 10.391532 
L 174.073585 11.737594 
L 174.230352 13.083656 
L 174.386588 14.429718 
L 174.53457 15.775781 
L 174.667159 17.121843 
L 174.778719 18.467905 
L 174.865786 19.813968 
L 174.927363 21.16003 
L 174.964778 22.506092 
L 174.981191 23.852155 
L 174.980857 25.198217 
L 174.968324 26.544279 
L 174.947732 27.890342 
L 174.922317 29.236404 
L 174.894171 30.582466 
L 174.864264 31.928528 
L 174.832651 33.274591 
L 174.798806 34.620653 
L 174.761991 35.966715 
L 174.721588 37.312778 
L 174.677349 38.65884 
L 174.629523 40.004902 
L 174.57887 41.350965 
L 174.526558 42.697027 
L 174.474002 44.043089 
L 174.422669 45.389152 
L 174.373916 46.735214 
L 174.328884 48.081276 
L 174.28847 49.427339 
L 174.253368 50.773401 
L 174.224138 52.119463 
L 174.201271 53.465525 
L 174.185215 54.811588 
L 174.176328 56.15765 
L 174.174783 57.503712 
L 174.180451 58.849775 
L 174.192802 60.195837 
L 174.210891 61.541899 
L 174.233423 62.887962 
L 174.258922 64.234024 
L 174.28594 65.580086 
L 174.313255 66.926149 
L 174.339991 68.272211 
L 174.365623 69.618273 
L 174.389847 70.964336 
L 174.41237 72.310398 
L 174.432657 73.65646 
L 174.449753 75.002522 
L 174.462206 76.348585 
L 174.468149 77.694647 
L 174.465529 79.040709 
L 174.452412 80.386772 
L 174.427317 81.732834 
L 174.389486 83.078896 
L 174.339049 84.424959 
L 174.277047 85.771021 
L 174.20534 87.117083 
L 174.126414 88.463146 
L 174.043149 89.809208 
L 173.958584 91.15527 
L 173.875697 92.501332 
L 173.797233 93.847395 
L 173.725571 95.193457 
L 173.662617 96.539519 
L 173.609732 97.885582 
L 173.567684 99.231644 
L 173.536623 100.577706 
L 173.516095 101.923769 
L 173.505092 103.269831 
L 173.502159 104.615893 
L 173.505526 105.961956 
L 173.513271 107.308018 
L 173.523482 108.65408 
L 173.534394 110.000143 
L 173.544491 111.346205 
L 173.552555 112.692267 
L 173.557669 114.038329 
L 173.559196 115.384392 
L 173.556741 116.730454 
L 173.550123 118.076516 
L 173.539361 119.422579 
L 173.524674 120.768641 
L 173.506488 122.114703 
L 173.485439 123.460766 
L 173.462346 124.806828 
L 173.438163 126.15289 
L 173.413902 127.498953 
L 173.390536 128.845015 
L 173.368908 130.191077 
L 173.349656 131.537139 
L 173.333168 132.883202 
L 173.31958 134.229264 
L 173.308802 135.575326 
L 173.300571 136.921389 
L 173.300571 136.921389 
z
" clip-path="url(#pa8d218ff50)" style="fill: none; stroke: #fa8072; stroke-opacity: 0.8; stroke-width: 2"/>
   </g>
   <g id="PolyCollection_5">
    <path d="M 213.436435 129.121173 
L 213.398565 129.121173 
L 213.390044 127.862265 
L 213.378914 126.603357 
L 213.3649 125.344449 
L 213.347883 124.08554 
L 213.327946 122.826632 
L 213.305384 121.567724 
L 213.280688 120.308816 
L 213.254488 119.049908 
L 213.227476 117.790999 
L 213.200324 116.532091 
L 213.173618 115.273183 
L 213.147832 114.014275 
L 213.123346 112.755367 
L 213.100505 111.496458 
L 213.079693 110.23755 
L 213.061394 108.978642 
L 213.046199 107.719734 
L 213.034743 106.460826 
L 213.027562 105.201917 
L 213.024887 103.943009 
L 213.026428 102.684101 
L 213.031206 101.425193 
L 213.037471 100.166285 
L 213.042774 98.907376 
L 213.044171 97.648468 
L 213.038555 96.38956 
L 213.023056 95.130652 
L 212.995433 93.871744 
L 212.954405 92.612835 
L 212.899871 91.353927 
L 212.832986 90.095019 
L 212.756107 88.836111 
L 212.672612 87.577203 
L 212.586636 86.318294 
L 212.502731 85.059386 
L 212.425504 83.800478 
L 212.359232 82.54157 
L 212.307511 81.282662 
L 212.272941 80.023753 
L 212.256891 78.764845 
L 212.259345 77.505937 
L 212.278852 76.247029 
L 212.312567 74.988121 
L 212.356404 73.729212 
L 212.40528 72.470304 
L 212.453447 71.211396 
L 212.494911 69.952488 
L 212.523904 68.69358 
L 212.53539 67.434671 
L 212.525554 66.175763 
L 212.492248 64.916855 
L 212.435321 63.657947 
L 212.356827 62.399039 
L 212.261019 61.140131 
L 212.154142 59.881222 
L 212.043968 58.622314 
L 211.939089 57.363406 
L 211.848041 56.104498 
L 211.778324 54.84559 
L 211.735501 53.586681 
L 211.722512 52.327773 
L 211.739345 51.068865 
L 211.783145 49.809957 
L 211.84873 48.551049 
L 211.929404 47.29214 
L 212.017895 46.033232 
L 212.107221 44.774324 
L 212.191324 43.515416 
L 212.2654 42.256508 
L 212.325915 40.997599 
L 212.370415 39.738691 
L 212.397236 38.479783 
L 212.405275 37.220875 
L 212.393898 35.961967 
L 212.363029 34.703058 
L 212.313395 33.44415 
L 212.246826 32.185242 
L 212.166509 30.926334 
L 212.077097 29.667426 
L 211.984593 28.408517 
L 211.896018 27.149609 
L 211.818864 25.890701 
L 211.760441 24.631793 
L 211.727179 23.372885 
L 211.723991 22.113976 
L 211.753754 20.855068 
L 211.816977 19.59616 
L 211.911693 18.337252 
L 212.033599 17.078344 
L 212.176448 15.819435 
L 212.33266 14.560527 
L 212.494092 13.301619 
L 212.652858 12.042711 
L 212.802082 10.783803 
L 212.936471 9.524894 
L 213.052632 8.265986 
L 213.149107 7.007078 
L 213.226154 5.74817 
L 213.285355 4.489262 
L 213.549645 4.489262 
L 213.549645 4.489262 
L 213.608846 5.74817 
L 213.685893 7.007078 
L 213.782368 8.265986 
L 213.898529 9.524894 
L 214.032918 10.783803 
L 214.182142 12.042711 
L 214.340908 13.301619 
L 214.50234 14.560527 
L 214.658552 15.819435 
L 214.801401 17.078344 
L 214.923307 18.337252 
L 215.018023 19.59616 
L 215.081246 20.855068 
L 215.111009 22.113976 
L 215.107821 23.372885 
L 215.074559 24.631793 
L 215.016136 25.890701 
L 214.938982 27.149609 
L 214.850407 28.408517 
L 214.757903 29.667426 
L 214.668491 30.926334 
L 214.588174 32.185242 
L 214.521605 33.44415 
L 214.471971 34.703058 
L 214.441102 35.961967 
L 214.429725 37.220875 
L 214.437764 38.479783 
L 214.464585 39.738691 
L 214.509085 40.997599 
L 214.5696 42.256508 
L 214.643676 43.515416 
L 214.727779 44.774324 
L 214.817105 46.033232 
L 214.905596 47.29214 
L 214.98627 48.551049 
L 215.051855 49.809957 
L 215.095655 51.068865 
L 215.112488 52.327773 
L 215.099499 53.586681 
L 215.056676 54.84559 
L 214.986959 56.104498 
L 214.895911 57.363406 
L 214.791032 58.622314 
L 214.680858 59.881222 
L 214.573981 61.140131 
L 214.478173 62.399039 
L 214.399679 63.657947 
L 214.342752 64.916855 
L 214.309446 66.175763 
L 214.29961 67.434671 
L 214.311096 68.69358 
L 214.340089 69.952488 
L 214.381553 71.211396 
L 214.42972 72.470304 
L 214.478596 73.729212 
L 214.522433 74.988121 
L 214.556148 76.247029 
L 214.575655 77.505937 
L 214.578109 78.764845 
L 214.562059 80.023753 
L 214.527489 81.282662 
L 214.475768 82.54157 
L 214.409496 83.800478 
L 214.332269 85.059386 
L 214.248364 86.318294 
L 214.162388 87.577203 
L 214.078893 88.836111 
L 214.002014 90.095019 
L 213.935129 91.353927 
L 213.880595 92.612835 
L 213.839567 93.871744 
L 213.811944 95.130652 
L 213.796445 96.38956 
L 213.790829 97.648468 
L 213.792226 98.907376 
L 213.797529 100.166285 
L 213.803794 101.425193 
L 213.808572 102.684101 
L 213.810113 103.943009 
L 213.807438 105.201917 
L 213.800257 106.460826 
L 213.788801 107.719734 
L 213.773606 108.978642 
L 213.755307 110.23755 
L 213.734495 111.496458 
L 213.711654 112.755367 
L 213.687168 114.014275 
L 213.661382 115.273183 
L 213.634676 116.532091 
L 213.607524 117.790999 
L 213.580512 119.049908 
L 213.554312 120.308816 
L 213.529616 121.567724 
L 213.507054 122.826632 
L 213.487117 124.08554 
L 213.4701 125.344449 
L 213.456086 126.603357 
L 213.444956 127.862265 
L 213.436435 129.121173 
L 213.436435 129.121173 
z
" clip-path="url(#pa8d218ff50)" style="fill: none; stroke: #fa8072; stroke-opacity: 0.8; stroke-width: 2"/>
   </g>
   <g id="PolyCollection_6">
    <path d="M 253.819188 66.968364 
L 253.285812 66.968364 
L 253.190337 66.40166 
L 253.07277 65.834956 
L 252.932582 65.268252 
L 252.770893 64.701549 
L 252.59076 64.134845 
L 252.397251 63.568141 
L 252.197246 63.001437 
L 251.998929 62.434733 
L 251.810997 61.868029 
L 251.641694 61.301325 
L 251.497793 60.734621 
L 251.383727 60.167918 
L 251.30101 59.601214 
L 251.248096 59.03451 
L 251.220714 58.467806 
L 251.212628 57.901102 
L 251.216688 57.334398 
L 251.225954 56.767694 
L 251.234683 56.20099 
L 251.23897 55.634286 
L 251.236931 55.067583 
L 251.22843 54.500879 
L 251.214437 53.934175 
L 251.196212 53.367471 
L 251.174557 52.800767 
L 251.149322 52.234063 
L 251.119333 51.667359 
L 251.08275 51.100655 
L 251.037777 50.533951 
L 250.983539 49.967248 
L 250.920875 49.400544 
L 250.85283 48.83384 
L 250.784664 48.267136 
L 250.723338 47.700432 
L 250.676553 47.133728 
L 250.651513 46.567024 
L 250.653697 46.00032 
L 250.685882 45.433616 
L 250.747649 44.866913 
L 250.835462 44.300209 
L 250.943307 43.733505 
L 251.063741 43.166801 
L 251.18913 42.600097 
L 251.312801 42.033393 
L 251.429903 41.466689 
L 251.537804 40.899985 
L 251.636015 40.333281 
L 251.725691 39.766578 
L 251.80887 39.199874 
L 251.887653 38.63317 
L 251.963504 38.066466 
L 252.036808 37.499762 
L 252.106733 36.933058 
L 252.171389 36.366354 
L 252.228165 35.79965 
L 252.274141 35.232946 
L 252.30643 34.666243 
L 252.322395 34.099539 
L 252.31969 33.532835 
L 252.296193 32.966131 
L 252.249905 32.399427 
L 252.178939 31.832723 
L 252.081683 31.266019 
L 251.957179 30.699315 
L 251.80569 30.132611 
L 251.629347 29.565908 
L 251.432707 28.999204 
L 251.223049 28.4325 
L 251.010254 27.865796 
L 250.806181 27.299092 
L 250.623582 26.732388 
L 250.474678 26.165684 
L 250.369634 25.59898 
L 250.315217 25.032277 
L 250.313884 24.465573 
L 250.363503 23.898869 
L 250.45777 23.332165 
L 250.587255 22.765461 
L 250.740873 22.198757 
L 250.907511 21.632053 
L 251.077519 21.065349 
L 251.243784 20.498645 
L 251.402258 19.931942 
L 251.551881 19.365238 
L 251.693988 18.798534 
L 251.831383 18.23183 
L 251.967291 17.665126 
L 252.10441 17.098422 
L 252.244236 16.531718 
L 252.386734 15.965014 
L 252.530381 15.39831 
L 252.672492 14.831607 
L 252.809737 14.264903 
L 252.938702 13.698199 
L 253.056398 13.131495 
L 253.160623 12.564791 
L 253.250152 11.998087 
L 253.324753 11.431383 
L 253.385067 10.864679 
L 253.719933 10.864679 
L 253.719933 10.864679 
L 253.780247 11.431383 
L 253.854848 11.998087 
L 253.944377 12.564791 
L 254.048602 13.131495 
L 254.166298 13.698199 
L 254.295263 14.264903 
L 254.432508 14.831607 
L 254.574619 15.39831 
L 254.718266 15.965014 
L 254.860764 16.531718 
L 255.00059 17.098422 
L 255.137709 17.665126 
L 255.273617 18.23183 
L 255.411012 18.798534 
L 255.553119 19.365238 
L 255.702742 19.931942 
L 255.861216 20.498645 
L 256.027481 21.065349 
L 256.197489 21.632053 
L 256.364127 22.198757 
L 256.517745 22.765461 
L 256.64723 23.332165 
L 256.741497 23.898869 
L 256.791116 24.465573 
L 256.789783 25.032277 
L 256.735366 25.59898 
L 256.630322 26.165684 
L 256.481418 26.732388 
L 256.298819 27.299092 
L 256.094746 27.865796 
L 255.881951 28.4325 
L 255.672293 28.999204 
L 255.475653 29.565908 
L 255.29931 30.132611 
L 255.147821 30.699315 
L 255.023317 31.266019 
L 254.926061 31.832723 
L 254.855095 32.399427 
L 254.808807 32.966131 
L 254.78531 33.532835 
L 254.782605 34.099539 
L 254.79857 34.666243 
L 254.830859 35.232946 
L 254.876835 35.79965 
L 254.933611 36.366354 
L 254.998267 36.933058 
L 255.068192 37.499762 
L 255.141496 38.066466 
L 255.217347 38.63317 
L 255.29613 39.199874 
L 255.379309 39.766578 
L 255.468985 40.333281 
L 255.567196 40.899985 
L 255.675097 41.466689 
L 255.792199 42.033393 
L 255.91587 42.600097 
L 256.041259 43.166801 
L 256.161693 43.733505 
L 256.269538 44.300209 
L 256.357351 44.866913 
L 256.419118 45.433616 
L 256.451303 46.00032 
L 256.453487 46.567024 
L 256.428447 47.133728 
L 256.381662 47.700432 
L 256.320336 48.267136 
L 256.25217 48.83384 
L 256.184125 49.400544 
L 256.121461 49.967248 
L 256.067223 50.533951 
L 256.02225 51.100655 
L 255.985667 51.667359 
L 255.955678 52.234063 
L 255.930443 52.800767 
L 255.908788 53.367471 
L 255.890563 53.934175 
L 255.87657 54.500879 
L 255.868069 55.067583 
L 255.86603 55.634286 
L 255.870317 56.20099 
L 255.879046 56.767694 
L 255.888312 57.334398 
L 255.892372 57.901102 
L 255.884286 58.467806 
L 255.856904 59.03451 
L 255.80399 59.601214 
L 255.721273 60.167918 
L 255.607207 60.734621 
L 255.463306 61.301325 
L 255.294003 61.868029 
L 255.106071 62.434733 
L 254.907754 63.001437 
L 254.707749 63.568141 
L 254.51424 64.134845 
L 254.334107 64.701549 
L 254.172418 65.268252 
L 254.03223 65.834956 
L 253.914663 66.40166 
L 253.819188 66.968364 
L 253.819188 66.968364 
z
" clip-path="url(#pa8d218ff50)" style="fill: none; stroke: #fa8072; stroke-opacity: 0.8; stroke-width: 2"/>
   </g>
   <g id="PolyCollection_7">
    <path d="M 293.781987 74.384502 
L 293.593013 74.384502 
L 293.55624 73.738403 
L 293.510234 73.092304 
L 293.4547 72.446205 
L 293.390072 71.800106 
L 293.317627 71.154008 
L 293.239469 70.507909 
L 293.158373 69.86181 
L 293.077481 69.215711 
L 292.999888 68.569612 
L 292.928197 67.923513 
L 292.864131 67.277414 
L 292.808311 66.631316 
L 292.760253 65.985217 
L 292.718609 65.339118 
L 292.68161 64.693019 
L 292.647593 64.04692 
L 292.615493 63.400821 
L 292.585166 62.754722 
L 292.557429 62.108624 
L 292.533837 61.462525 
L 292.516205 60.816426 
L 292.506042 60.170327 
L 292.504008 59.524228 
L 292.509559 58.878129 
L 292.52084 58.232031 
L 292.534848 57.585932 
L 292.547779 56.939833 
L 292.555463 56.293734 
L 292.553742 55.647635 
L 292.538733 55.001536 
L 292.506946 54.355437 
L 292.455317 53.709339 
L 292.381277 53.06324 
L 292.28295 52.417141 
L 292.159554 51.771042 
L 292.01198 51.124943 
L 291.843425 50.478844 
L 291.65987 49.832745 
L 291.470193 49.186647 
L 291.285743 48.540548 
L 291.119314 47.894449 
L 290.983639 47.24835 
L 290.889648 46.602251 
L 290.844836 45.956152 
L 290.852102 45.310054 
L 290.909322 44.663955 
L 291.009759 44.017856 
L 291.143223 43.371757 
L 291.297701 42.725658 
L 291.461117 42.079559 
L 291.622838 41.43346 
L 291.774668 40.787362 
L 291.911206 40.141263 
L 292.029607 39.495164 
L 292.128957 38.849065 
L 292.209469 38.202966 
L 292.271766 37.556867 
L 292.31637 36.910768 
L 292.343473 36.26467 
L 292.352899 35.618571 
L 292.344178 34.972472 
L 292.316603 34.326373 
L 292.269227 33.680274 
L 292.200819 33.034175 
L 292.109875 32.388077 
L 291.994803 31.741978 
L 291.854368 31.095879 
L 291.688404 30.44978 
L 291.498662 29.803681 
L 291.289595 29.157582 
L 291.068784 28.511483 
L 290.846797 27.865385 
L 290.636339 27.219286 
L 290.450773 26.573187 
L 290.302253 25.927088 
L 290.199867 25.280989 
L 290.148233 24.63489 
L 290.146892 23.988791 
L 290.190687 23.342693 
L 290.271056 22.696594 
L 290.377935 22.050495 
L 290.50182 21.404396 
L 290.635502 20.758297 
L 290.775083 20.112198 
L 290.920076 19.466099 
L 291.072652 18.820001 
L 291.236276 18.173902 
L 291.414138 17.527803 
L 291.607772 16.881704 
L 291.816192 16.235605 
L 292.035688 15.589506 
L 292.260264 14.943408 
L 292.482556 14.297309 
L 292.694954 13.65121 
L 292.890675 13.005111 
L 293.064579 12.359012 
L 293.213606 11.712913 
L 293.336831 11.066814 
L 293.435195 10.420716 
L 293.939805 10.420716 
L 293.939805 10.420716 
L 294.038169 11.066814 
L 294.161394 11.712913 
L 294.310421 12.359012 
L 294.484325 13.005111 
L 294.680046 13.65121 
L 294.892444 14.297309 
L 295.114736 14.943408 
L 295.339312 15.589506 
L 295.558808 16.235605 
L 295.767228 16.881704 
L 295.960862 17.527803 
L 296.138724 18.173902 
L 296.302348 18.820001 
L 296.454924 19.466099 
L 296.599917 20.112198 
L 296.739498 20.758297 
L 296.87318 21.404396 
L 296.997065 22.050495 
L 297.103944 22.696594 
L 297.184313 23.342693 
L 297.228108 23.988791 
L 297.226767 24.63489 
L 297.175133 25.280989 
L 297.072747 25.927088 
L 296.924227 26.573187 
L 296.738661 27.219286 
L 296.528203 27.865385 
L 296.306216 28.511483 
L 296.085405 29.157582 
L 295.876338 29.803681 
L 295.686596 30.44978 
L 295.520632 31.095879 
L 295.380197 31.741978 
L 295.265125 32.388077 
L 295.174181 33.034175 
L 295.105773 33.680274 
L 295.058397 34.326373 
L 295.030822 34.972472 
L 295.022101 35.618571 
L 295.031527 36.26467 
L 295.05863 36.910768 
L 295.103234 37.556867 
L 295.165531 38.202966 
L 295.246043 38.849065 
L 295.345393 39.495164 
L 295.463794 40.141263 
L 295.600332 40.787362 
L 295.752162 41.43346 
L 295.913883 42.079559 
L 296.077299 42.725658 
L 296.231777 43.371757 
L 296.365241 44.017856 
L 296.465678 44.663955 
L 296.522898 45.310054 
L 296.530164 45.956152 
L 296.485352 46.602251 
L 296.391361 47.24835 
L 296.255686 47.894449 
L 296.089257 48.540548 
L 295.904807 49.186647 
L 295.71513 49.832745 
L 295.531575 50.478844 
L 295.36302 51.124943 
L 295.215446 51.771042 
L 295.09205 52.417141 
L 294.993723 53.06324 
L 294.919683 53.709339 
L 294.868054 54.355437 
L 294.836267 55.001536 
L 294.821258 55.647635 
L 294.819537 56.293734 
L 294.827221 56.939833 
L 294.840152 57.585932 
L 294.85416 58.232031 
L 294.865441 58.878129 
L 294.870992 59.524228 
L 294.868958 60.170327 
L 294.858795 60.816426 
L 294.841163 61.462525 
L 294.817571 62.108624 
L 294.789834 62.754722 
L 294.759507 63.400821 
L 294.727407 64.04692 
L 294.69339 64.693019 
L 294.656391 65.339118 
L 294.614747 65.985217 
L 294.566689 66.631316 
L 294.510869 67.277414 
L 294.446803 67.923513 
L 294.375112 68.569612 
L 294.297519 69.215711 
L 294.216627 69.86181 
L 294.135531 70.507909 
L 294.057373 71.154008 
L 293.984928 71.800106 
L 293.9203 72.446205 
L 293.864766 73.092304 
L 293.81876 73.738403 
L 293.781987 74.384502 
L 293.781987 74.384502 
z
" clip-path="url(#pa8d218ff50)" style="fill: none; stroke: #fa8072; stroke-opacity: 0.8; stroke-width: 2"/>
   </g>
   <g id="PolyCollection_8">
    <path d="M 333.866036 58.320412 
L 333.778964 58.320412 
L 333.762218 57.857989 
L 333.741347 57.395565 
L 333.716253 56.933141 
L 333.687163 56.470717 
L 333.654658 56.008293 
L 333.619633 55.54587 
L 333.583164 55.083446 
L 333.546272 54.621022 
L 333.50961 54.158598 
L 333.4731 53.696174 
L 333.435589 53.233751 
L 333.394595 52.771327 
L 333.346248 52.308903 
L 333.285468 51.846479 
L 333.206455 51.384056 
L 333.103465 50.921632 
L 332.971818 50.459208 
L 332.809007 49.996784 
L 332.615721 49.53436 
L 332.39658 49.071937 
L 332.16036 48.609513 
L 331.919581 48.147089 
L 331.689391 47.684665 
L 331.485848 47.222241 
L 331.323806 46.759818 
L 331.214746 46.297394 
L 331.164934 45.83497 
L 331.174259 45.372546 
L 331.236012 44.910122 
L 331.337689 44.447699 
L 331.462725 43.985275 
L 331.592891 43.522851 
L 331.710936 43.060427 
L 331.803058 42.598004 
L 331.860774 42.13558 
L 331.8819 41.673156 
L 331.870477 41.210732 
L 331.835704 40.748308 
L 331.790048 40.285885 
L 331.746873 39.823461 
L 331.718 39.361037 
L 331.711596 38.898613 
L 331.730757 38.436189 
L 331.773015 37.973766 
L 331.830828 37.511342 
L 331.892988 37.048918 
L 331.946659 36.586494 
L 331.979727 36.12407 
L 331.983027 35.661647 
L 331.952069 35.199223 
L 331.887963 34.736799 
L 331.797364 34.274375 
L 331.691428 33.811952 
L 331.583941 33.349528 
L 331.488927 32.887104 
L 331.418126 32.42468 
L 331.378812 31.962256 
L 331.372311 31.499833 
L 331.393538 31.037409 
L 331.431653 30.574985 
L 331.471767 30.112561 
L 331.49743 29.650137 
L 331.493497 29.187714 
L 331.448883 28.72529 
L 331.358708 28.262866 
L 331.225443 27.800442 
L 331.058786 27.338018 
L 330.87424 26.875595 
L 330.69056 26.413171 
L 330.526453 25.950747 
L 330.397096 25.488323 
L 330.311056 25.0259 
L 330.268227 24.563476 
L 330.259192 24.101052 
L 330.266255 23.638628 
L 330.266047 23.176204 
L 330.233379 22.713781 
L 330.145733 22.251357 
L 329.987682 21.788933 
L 329.754447 21.326509 
L 329.453949 20.864085 
L 329.106909 20.401662 
L 328.744864 19.939238 
L 328.406335 19.476814 
L 328.13172 19.01439 
L 327.957714 18.551966 
L 327.912209 18.089543 
L 328.010501 17.627119 
L 328.253442 17.164695 
L 328.627761 16.702271 
L 329.108405 16.239848 
L 329.66238 15.777424 
L 330.253313 15.315 
L 330.845957 14.852576 
L 331.409905 14.390152 
L 331.922061 13.927729 
L 332.367712 13.465305 
L 332.740299 13.002881 
L 333.040206 12.540457 
L 334.604794 12.540457 
L 334.604794 12.540457 
L 334.904701 13.002881 
L 335.277288 13.465305 
L 335.722939 13.927729 
L 336.235095 14.390152 
L 336.799043 14.852576 
L 337.391687 15.315 
L 337.98262 15.777424 
L 338.536595 16.239848 
L 339.017239 16.702271 
L 339.391558 17.164695 
L 339.634499 17.627119 
L 339.732791 18.089543 
L 339.687286 18.551966 
L 339.51328 19.01439 
L 339.238665 19.476814 
L 338.900136 19.939238 
L 338.538091 20.401662 
L 338.191051 20.864085 
L 337.890553 21.326509 
L 337.657318 21.788933 
L 337.499267 22.251357 
L 337.411621 22.713781 
L 337.378953 23.176204 
L 337.378745 23.638628 
L 337.385808 24.101052 
L 337.376773 24.563476 
L 337.333944 25.0259 
L 337.247904 25.488323 
L 337.118547 25.950747 
L 336.95444 26.413171 
L 336.77076 26.875595 
L 336.586214 27.338018 
L 336.419557 27.800442 
L 336.286292 28.262866 
L 336.196117 28.72529 
L 336.151503 29.187714 
L 336.14757 29.650137 
L 336.173233 30.112561 
L 336.213347 30.574985 
L 336.251462 31.037409 
L 336.272689 31.499833 
L 336.266188 31.962256 
L 336.226874 32.42468 
L 336.156073 32.887104 
L 336.061059 33.349528 
L 335.953572 33.811952 
L 335.847636 34.274375 
L 335.757037 34.736799 
L 335.692931 35.199223 
L 335.661973 35.661647 
L 335.665273 36.12407 
L 335.698341 36.586494 
L 335.752012 37.048918 
L 335.814172 37.511342 
L 335.871985 37.973766 
L 335.914243 38.436189 
L 335.933404 38.898613 
L 335.927 39.361037 
L 335.898127 39.823461 
L 335.854952 40.285885 
L 335.809296 40.748308 
L 335.774523 41.210732 
L 335.7631 41.673156 
L 335.784226 42.13558 
L 335.841942 42.598004 
L 335.934064 43.060427 
L 336.052109 43.522851 
L 336.182275 43.985275 
L 336.307311 44.447699 
L 336.408988 44.910122 
L 336.470741 45.372546 
L 336.480066 45.83497 
L 336.430254 46.297394 
L 336.321194 46.759818 
L 336.159152 47.222241 
L 335.955609 47.684665 
L 335.725419 48.147089 
L 335.48464 48.609513 
L 335.24842 49.071937 
L 335.029279 49.53436 
L 334.835993 49.996784 
L 334.673182 50.459208 
L 334.541535 50.921632 
L 334.438545 51.384056 
L 334.359532 51.846479 
L 334.298752 52.308903 
L 334.250405 52.771327 
L 334.209411 53.233751 
L 334.1719 53.696174 
L 334.13539 54.158598 
L 334.098728 54.621022 
L 334.061836 55.083446 
L 334.025367 55.54587 
L 333.990342 56.008293 
L 333.957837 56.470717 
L 333.928747 56.933141 
L 333.903653 57.395565 
L 333.882782 57.857989 
L 333.866036 58.320412 
L 333.866036 58.320412 
z
" clip-path="url(#pa8d218ff50)" style="fill: none; stroke: #fa8072; stroke-opacity: 0.8; stroke-width: 2"/>
   </g>
   <g id="PolyCollection_9">
    <path d="M 374.015272 49.995411 
L 373.899728 49.995411 
L 373.876379 49.630743 
L 373.847128 49.266075 
L 373.811987 48.901407 
L 373.771603 48.536739 
L 373.727362 48.172072 
L 373.681385 47.807404 
L 373.636399 47.442736 
L 373.59545 47.078068 
L 373.5615 46.7134 
L 373.536942 46.348732 
L 373.523098 45.984064 
L 373.519785 45.619396 
L 373.52501 45.254728 
L 373.534832 44.89006 
L 373.54343 44.525392 
L 373.54337 44.160724 
L 373.526072 43.796056 
L 373.482483 43.431388 
L 373.403947 43.06672 
L 373.283268 42.702052 
L 373.115898 42.337384 
L 372.901155 41.972716 
L 372.643272 41.608048 
L 372.352033 41.243381 
L 372.042745 40.878713 
L 371.735357 40.514045 
L 371.452665 40.149377 
L 371.21775 39.784709 
L 371.050993 39.420041 
L 370.967146 39.055373 
L 370.973001 38.690705 
L 371.066109 38.326037 
L 371.23478 37.961369 
L 371.45938 37.596701 
L 371.714659 37.232033 
L 371.972685 36.867365 
L 372.205937 36.502697 
L 372.390109 36.138029 
L 372.506395 35.773361 
L 372.543092 35.408693 
L 372.496529 35.044025 
L 372.371347 34.679357 
L 372.180132 34.314689 
L 371.942398 33.950022 
L 371.682875 33.585354 
L 371.429119 33.220686 
L 371.208597 32.856018 
L 371.0455 32.49135 
L 370.957721 32.126682 
L 370.954456 31.762014 
L 371.034821 31.397346 
L 371.187759 31.032678 
L 371.393221 30.66801 
L 371.624439 30.303342 
L 371.850898 29.938674 
L 372.041606 29.574006 
L 372.168269 29.209338 
L 372.208118 28.84467 
L 372.146225 28.480002 
L 371.977242 28.115334 
L 371.70646 27.750666 
L 371.350048 27.385998 
L 370.934304 27.021331 
L 370.493709 26.656663 
L 370.067758 26.291995 
L 369.696707 25.927327 
L 369.416676 25.562659 
L 369.25476 25.197991 
L 369.224927 24.833323 
L 369.325394 24.468655 
L 369.537948 24.103987 
L 369.829326 23.739319 
L 370.154414 23.374651 
L 370.46076 23.009983 
L 370.69383 22.645315 
L 370.802448 22.280647 
L 370.74403 21.915979 
L 370.489337 21.551311 
L 370.026517 21.186643 
L 369.364107 20.821975 
L 368.532557 20.457307 
L 367.583688 20.092639 
L 366.587574 19.727972 
L 365.626626 19.363304 
L 364.787175 18.998636 
L 364.14948 18.633968 
L 363.777641 18.2693 
L 363.711182 17.904632 
L 363.959907 17.539964 
L 364.503089 17.175296 
L 365.293159 16.810628 
L 366.263158 16.44596 
L 367.336439 16.081292 
L 368.43678 15.716624 
L 369.497125 15.351956 
L 370.465677 14.987288 
L 371.308775 14.62262 
L 372.010685 14.257952 
L 372.571015 13.893284 
L 375.343985 13.893284 
L 375.343985 13.893284 
L 375.904315 14.257952 
L 376.606225 14.62262 
L 377.449323 14.987288 
L 378.417875 15.351956 
L 379.47822 15.716624 
L 380.578561 16.081292 
L 381.651842 16.44596 
L 382.621841 16.810628 
L 383.411911 17.175296 
L 383.955093 17.539964 
L 384.203818 17.904632 
L 384.137359 18.2693 
L 383.76552 18.633968 
L 383.127825 18.998636 
L 382.288374 19.363304 
L 381.327426 19.727972 
L 380.331312 20.092639 
L 379.382443 20.457307 
L 378.550893 20.821975 
L 377.888483 21.186643 
L 377.425663 21.551311 
L 377.17097 21.915979 
L 377.112552 22.280647 
L 377.22117 22.645315 
L 377.45424 23.009983 
L 377.760586 23.374651 
L 378.085674 23.739319 
L 378.377052 24.103987 
L 378.589606 24.468655 
L 378.690073 24.833323 
L 378.66024 25.197991 
L 378.498324 25.562659 
L 378.218293 25.927327 
L 377.847242 26.291995 
L 377.421291 26.656663 
L 376.980696 27.021331 
L 376.564952 27.385998 
L 376.20854 27.750666 
L 375.937758 28.115334 
L 375.768775 28.480002 
L 375.706882 28.84467 
L 375.746731 29.209338 
L 375.873394 29.574006 
L 376.064102 29.938674 
L 376.290561 30.303342 
L 376.521779 30.66801 
L 376.727241 31.032678 
L 376.880179 31.397346 
L 376.960544 31.762014 
L 376.957279 32.126682 
L 376.8695 32.49135 
L 376.706403 32.856018 
L 376.485881 33.220686 
L 376.232125 33.585354 
L 375.972602 33.950022 
L 375.734868 34.314689 
L 375.543653 34.679357 
L 375.418471 35.044025 
L 375.371908 35.408693 
L 375.408605 35.773361 
L 375.524891 36.138029 
L 375.709063 36.502697 
L 375.942315 36.867365 
L 376.200341 37.232033 
L 376.45562 37.596701 
L 376.68022 37.961369 
L 376.848891 38.326037 
L 376.941999 38.690705 
L 376.947854 39.055373 
L 376.864007 39.420041 
L 376.69725 39.784709 
L 376.462335 40.149377 
L 376.179643 40.514045 
L 375.872255 40.878713 
L 375.562967 41.243381 
L 375.271728 41.608048 
L 375.013845 41.972716 
L 374.799102 42.337384 
L 374.631732 42.702052 
L 374.511053 43.06672 
L 374.432517 43.431388 
L 374.388928 43.796056 
L 374.37163 44.160724 
L 374.37157 44.525392 
L 374.380168 44.89006 
L 374.38999 45.254728 
L 374.395215 45.619396 
L 374.391902 45.984064 
L 374.378058 46.348732 
L 374.3535 46.7134 
L 374.31955 47.078068 
L 374.278601 47.442736 
L 374.233615 47.807404 
L 374.187638 48.172072 
L 374.143397 48.536739 
L 374.103013 48.901407 
L 374.067872 49.266075 
L 374.038621 49.630743 
L 374.015272 49.995411 
L 374.015272 49.995411 
z
" clip-path="url(#pa8d218ff50)" style="fill: none; stroke: #fa8072; stroke-opacity: 0.8; stroke-width: 2"/>
   </g>
   <g id="PolyCollection_10">
    <path d="M 414.290081 49.490947 
L 413.894919 49.490947 
L 413.805237 49.136471 
L 413.690716 48.781994 
L 413.55189 48.427517 
L 413.392733 48.07304 
L 413.221133 47.718563 
L 413.048677 47.364087 
L 412.889596 47.00961 
L 412.758937 46.655133 
L 412.670256 46.300656 
L 412.633307 45.94618 
L 412.652277 45.591703 
L 412.725007 45.237226 
L 412.843396 44.882749 
L 412.994884 44.528273 
L 413.164645 44.173796 
L 413.337949 43.819319 
L 413.502197 43.464842 
L 413.648238 43.110366 
L 413.770851 42.755889 
L 413.868471 42.401412 
L 413.942392 42.046935 
L 413.995743 41.692459 
L 414.032501 41.337982 
L 414.056706 40.983505 
L 414.071952 40.629028 
L 414.081139 40.274552 
L 414.086424 39.920075 
L 414.089297 39.565598 
L 414.090704 39.211121 
L 414.091168 38.856645 
L 414.090888 38.502168 
L 414.089773 38.147691 
L 414.087447 37.793214 
L 414.083196 37.438738 
L 414.0759 37.084261 
L 414.063963 36.729784 
L 414.045288 36.375307 
L 414.017354 36.020831 
L 413.977435 35.666354 
L 413.923003 35.311877 
L 413.852308 34.9574 
L 413.765057 34.602923 
L 413.663069 34.248447 
L 413.550704 33.89397 
L 413.434889 33.539493 
L 413.32459 33.185016 
L 413.229738 32.83054 
L 413.159716 32.476063 
L 413.121697 32.121586 
L 413.119169 31.767109 
L 413.15094 31.412633 
L 413.210799 31.058156 
L 413.287828 30.703679 
L 413.367183 30.349202 
L 413.431102 29.994726 
L 413.459949 29.640249 
L 413.433252 29.285772 
L 413.330898 28.931295 
L 413.134778 28.576819 
L 412.831132 28.222342 
L 412.413641 27.867865 
L 411.886884 27.513388 
L 411.269369 27.158912 
L 410.595043 26.804435 
L 409.912206 26.449958 
L 409.279212 26.095481 
L 408.757119 25.741005 
L 408.400395 25.386528 
L 408.247498 25.032051 
L 408.313431 24.677574 
L 408.585934 24.323098 
L 409.026084 23.968621 
L 409.572882 23.614144 
L 410.150445 23.259667 
L 410.675988 22.905191 
L 411.067087 22.550714 
L 411.247484 22.196237 
L 411.151744 21.84176 
L 410.729764 21.487284 
L 409.952226 21.132807 
L 408.817389 20.77833 
L 407.358371 20.423853 
L 405.648761 20.069376 
L 403.803616 19.7149 
L 401.973184 19.360423 
L 400.328163 19.005946 
L 399.037714 18.651469 
L 398.243965 18.296993 
L 398.0385 17.942516 
L 398.446512 17.588039 
L 399.422739 17.233562 
L 400.860312 16.879086 
L 402.610347 16.524609 
L 404.507426 16.170132 
L 406.39505 15.815655 
L 408.145786 15.461179 
L 409.672873 15.106702 
L 410.932606 14.752225 
L 411.91911 14.397748 
L 416.26589 14.397748 
L 416.26589 14.397748 
L 417.252394 14.752225 
L 418.512127 15.106702 
L 420.039214 15.461179 
L 421.78995 15.815655 
L 423.677574 16.170132 
L 425.574653 16.524609 
L 427.324688 16.879086 
L 428.762261 17.233562 
L 429.738488 17.588039 
L 430.1465 17.942516 
L 429.941035 18.296993 
L 429.147286 18.651469 
L 427.856837 19.005946 
L 426.211816 19.360423 
L 424.381384 19.7149 
L 422.536239 20.069376 
L 420.826629 20.423853 
L 419.367611 20.77833 
L 418.232774 21.132807 
L 417.455236 21.487284 
L 417.033256 21.84176 
L 416.937516 22.196237 
L 417.117913 22.550714 
L 417.509012 22.905191 
L 418.034555 23.259667 
L 418.612118 23.614144 
L 419.158916 23.968621 
L 419.599066 24.323098 
L 419.871569 24.677574 
L 419.937502 25.032051 
L 419.784605 25.386528 
L 419.427881 25.741005 
L 418.905788 26.095481 
L 418.272794 26.449958 
L 417.589957 26.804435 
L 416.915631 27.158912 
L 416.298116 27.513388 
L 415.771359 27.867865 
L 415.353868 28.222342 
L 415.050222 28.576819 
L 414.854102 28.931295 
L 414.751748 29.285772 
L 414.725051 29.640249 
L 414.753898 29.994726 
L 414.817817 30.349202 
L 414.897172 30.703679 
L 414.974201 31.058156 
L 415.03406 31.412633 
L 415.065831 31.767109 
L 415.063303 32.121586 
L 415.025284 32.476063 
L 414.955262 32.83054 
L 414.86041 33.185016 
L 414.750111 33.539493 
L 414.634296 33.89397 
L 414.521931 34.248447 
L 414.419943 34.602923 
L 414.332692 34.9574 
L 414.261997 35.311877 
L 414.207565 35.666354 
L 414.167646 36.020831 
L 414.139712 36.375307 
L 414.121037 36.729784 
L 414.1091 37.084261 
L 414.101804 37.438738 
L 414.097553 37.793214 
L 414.095227 38.147691 
L 414.094112 38.502168 
L 414.093832 38.856645 
L 414.094296 39.211121 
L 414.095703 39.565598 
L 414.098576 39.920075 
L 414.103861 40.274552 
L 414.113048 40.629028 
L 414.128294 40.983505 
L 414.152499 41.337982 
L 414.189257 41.692459 
L 414.242608 42.046935 
L 414.316529 42.401412 
L 414.414149 42.755889 
L 414.536762 43.110366 
L 414.682803 43.464842 
L 414.847051 43.819319 
L 415.020355 44.173796 
L 415.190116 44.528273 
L 415.341604 44.882749 
L 415.459993 45.237226 
L 415.532723 45.591703 
L 415.551693 45.94618 
L 415.514744 46.300656 
L 415.426063 46.655133 
L 415.295404 47.00961 
L 415.136323 47.364087 
L 414.963867 47.718563 
L 414.792267 48.07304 
L 414.63311 48.427517 
L 414.494284 48.781994 
L 414.379763 49.136471 
L 414.290081 49.490947 
L 414.290081 49.490947 
z
" clip-path="url(#pa8d218ff50)" style="fill: none; stroke: #fa8072; stroke-opacity: 0.8; stroke-width: 2"/>
   </g>
   <g id="matplotlib.axis_1">
    <g id="xtick_1">
     <g id="line2d_1">
      <defs>
       <path id="m2713d25536" d="M 0 0 
L 0 3.5 
" style="stroke: #000000; stroke-width: 0.8"/>
      </defs>
      <g>
       <use xlink:href="#m2713d25536" x="52.8775" y="178.36" style="stroke: #000000; stroke-width: 0.8"/>
      </g>
     </g>
     <g id="text_1">
      <!-- 1 -->
      <g transform="translate(50.96875 189.919063) scale(0.06 -0.06)">
       <defs>
        <path id="DejaVuSans-31" d="M 794 531 
L 1825 531 
L 1825 4091 
L 703 3866 
L 703 4441 
L 1819 4666 
L 2450 4666 
L 2450 531 
L 3481 531 
L 3481 0 
L 794 0 
L 794 531 
z
" transform="scale(0.015625)"/>
       </defs>
       <use xlink:href="#DejaVuSans-31"/>
      </g>
     </g>
    </g>
    <g id="xtick_2">
     <g id="line2d_2">
      <g>
       <use xlink:href="#m2713d25536" x="93.0125" y="178.36" style="stroke: #000000; stroke-width: 0.8"/>
      </g>
     </g>
     <g id="text_2">
      <!-- 2 -->
      <g transform="translate(91.10375 189.919063) scale(0.06 -0.06)">
       <defs>
        <path id="DejaVuSans-32" d="M 1228 531 
L 3431 531 
L 3431 0 
L 469 0 
L 469 531 
Q 828 903 1448 1529 
Q 2069 2156 2228 2338 
Q 2531 2678 2651 2914 
Q 2772 3150 2772 3378 
Q 2772 3750 2511 3984 
Q 2250 4219 1831 4219 
Q 1534 4219 1204 4116 
Q 875 4013 500 3803 
L 500 4441 
Q 881 4594 1212 4672 
Q 1544 4750 1819 4750 
Q 2544 4750 2975 4387 
Q 3406 4025 3406 3419 
Q 3406 3131 3298 2873 
Q 3191 2616 2906 2266 
Q 2828 2175 2409 1742 
Q 1991 1309 1228 531 
z
" transform="scale(0.015625)"/>
       </defs>
       <use xlink:href="#DejaVuSans-32"/>
      </g>
     </g>
    </g>
    <g id="xtick_3">
     <g id="line2d_3">
      <g>
       <use xlink:href="#m2713d25536" x="133.1475" y="178.36" style="stroke: #000000; stroke-width: 0.8"/>
      </g>
     </g>
     <g id="text_3">
      <!-- 3 -->
      <g transform="translate(131.23875 189.919063) scale(0.06 -0.06)">
       <defs>
        <path id="DejaVuSans-33" d="M 2597 2516 
Q 3050 2419 3304 2112 
Q 3559 1806 3559 1356 
Q 3559 666 3084 287 
Q 2609 -91 1734 -91 
Q 1441 -91 1130 -33 
Q 819 25 488 141 
L 488 750 
Q 750 597 1062 519 
Q 1375 441 1716 441 
Q 2309 441 2620 675 
Q 2931 909 2931 1356 
Q 2931 1769 2642 2001 
Q 2353 2234 1838 2234 
L 1294 2234 
L 1294 2753 
L 1863 2753 
Q 2328 2753 2575 2939 
Q 2822 3125 2822 3475 
Q 2822 3834 2567 4026 
Q 2313 4219 1838 4219 
Q 1578 4219 1281 4162 
Q 984 4106 628 3988 
L 628 4550 
Q 988 4650 1302 4700 
Q 1616 4750 1894 4750 
Q 2613 4750 3031 4423 
Q 3450 4097 3450 3541 
Q 3450 3153 3228 2886 
Q 3006 2619 2597 2516 
z
" transform="scale(0.015625)"/>
       </defs>
       <use xlink:href="#DejaVuSans-33"/>
      </g>
     </g>
    </g>
    <g id="xtick_4">
     <g id="line2d_4">
      <g>
       <use xlink:href="#m2713d25536" x="173.2825" y="178.36" style="stroke: #000000; stroke-width: 0.8"/>
      </g>
     </g>
     <g id="text_4">
      <!-- 4 -->
      <g transform="translate(171.37375 189.919063) scale(0.06 -0.06)">
       <defs>
        <path id="DejaVuSans-34" d="M 2419 4116 
L 825 1625 
L 2419 1625 
L 2419 4116 
z
M 2253 4666 
L 3047 4666 
L 3047 1625 
L 3713 1625 
L 3713 1100 
L 3047 1100 
L 3047 0 
L 2419 0 
L 2419 1100 
L 313 1100 
L 313 1709 
L 2253 4666 
z
" transform="scale(0.015625)"/>
       </defs>
       <use xlink:href="#DejaVuSans-34"/>
      </g>
     </g>
    </g>
    <g id="xtick_5">
     <g id="line2d_5">
      <g>
       <use xlink:href="#m2713d25536" x="213.4175" y="178.36" style="stroke: #000000; stroke-width: 0.8"/>
      </g>
     </g>
     <g id="text_5">
      <!-- 5 -->
      <g transform="translate(211.50875 189.919063) scale(0.06 -0.06)">
       <defs>
        <path id="DejaVuSans-35" d="M 691 4666 
L 3169 4666 
L 3169 4134 
L 1269 4134 
L 1269 2991 
Q 1406 3038 1543 3061 
Q 1681 3084 1819 3084 
Q 2600 3084 3056 2656 
Q 3513 2228 3513 1497 
Q 3513 744 3044 326 
Q 2575 -91 1722 -91 
Q 1428 -91 1123 -41 
Q 819 9 494 109 
L 494 744 
Q 775 591 1075 516 
Q 1375 441 1709 441 
Q 2250 441 2565 725 
Q 2881 1009 2881 1497 
Q 2881 1984 2565 2268 
Q 2250 2553 1709 2553 
Q 1456 2553 1204 2497 
Q 953 2441 691 2322 
L 691 4666 
z
" transform="scale(0.015625)"/>
       </defs>
       <use xlink:href="#DejaVuSans-35"/>
      </g>
     </g>
    </g>
    <g id="xtick_6">
     <g id="line2d_6">
      <g>
       <use xlink:href="#m2713d25536" x="253.5525" y="178.36" style="stroke: #000000; stroke-width: 0.8"/>
      </g>
     </g>
     <g id="text_6">
      <!-- 6 -->
      <g transform="translate(251.64375 189.919063) scale(0.06 -0.06)">
       <defs>
        <path id="DejaVuSans-36" d="M 2113 2584 
Q 1688 2584 1439 2293 
Q 1191 2003 1191 1497 
Q 1191 994 1439 701 
Q 1688 409 2113 409 
Q 2538 409 2786 701 
Q 3034 994 3034 1497 
Q 3034 2003 2786 2293 
Q 2538 2584 2113 2584 
z
M 3366 4563 
L 3366 3988 
Q 3128 4100 2886 4159 
Q 2644 4219 2406 4219 
Q 1781 4219 1451 3797 
Q 1122 3375 1075 2522 
Q 1259 2794 1537 2939 
Q 1816 3084 2150 3084 
Q 2853 3084 3261 2657 
Q 3669 2231 3669 1497 
Q 3669 778 3244 343 
Q 2819 -91 2113 -91 
Q 1303 -91 875 529 
Q 447 1150 447 2328 
Q 447 3434 972 4092 
Q 1497 4750 2381 4750 
Q 2619 4750 2861 4703 
Q 3103 4656 3366 4563 
z
" transform="scale(0.015625)"/>
       </defs>
       <use xlink:href="#DejaVuSans-36"/>
      </g>
     </g>
    </g>
    <g id="xtick_7">
     <g id="line2d_7">
      <g>
       <use xlink:href="#m2713d25536" x="293.6875" y="178.36" style="stroke: #000000; stroke-width: 0.8"/>
      </g>
     </g>
     <g id="text_7">
      <!-- 7 -->
      <g transform="translate(291.77875 189.919063) scale(0.06 -0.06)">
       <defs>
        <path id="DejaVuSans-37" d="M 525 4666 
L 3525 4666 
L 3525 4397 
L 1831 0 
L 1172 0 
L 2766 4134 
L 525 4134 
L 525 4666 
z
" transform="scale(0.015625)"/>
       </defs>
       <use xlink:href="#DejaVuSans-37"/>
      </g>
     </g>
    </g>
    <g id="xtick_8">
     <g id="line2d_8">
      <g>
       <use xlink:href="#m2713d25536" x="333.8225" y="178.36" style="stroke: #000000; stroke-width: 0.8"/>
      </g>
     </g>
     <g id="text_8">
      <!-- 8 -->
      <g transform="translate(331.91375 189.919063) scale(0.06 -0.06)">
       <defs>
        <path id="DejaVuSans-38" d="M 2034 2216 
Q 1584 2216 1326 1975 
Q 1069 1734 1069 1313 
Q 1069 891 1326 650 
Q 1584 409 2034 409 
Q 2484 409 2743 651 
Q 3003 894 3003 1313 
Q 3003 1734 2745 1975 
Q 2488 2216 2034 2216 
z
M 1403 2484 
Q 997 2584 770 2862 
Q 544 3141 544 3541 
Q 544 4100 942 4425 
Q 1341 4750 2034 4750 
Q 2731 4750 3128 4425 
Q 3525 4100 3525 3541 
Q 3525 3141 3298 2862 
Q 3072 2584 2669 2484 
Q 3125 2378 3379 2068 
Q 3634 1759 3634 1313 
Q 3634 634 3220 271 
Q 2806 -91 2034 -91 
Q 1263 -91 848 271 
Q 434 634 434 1313 
Q 434 1759 690 2068 
Q 947 2378 1403 2484 
z
M 1172 3481 
Q 1172 3119 1398 2916 
Q 1625 2713 2034 2713 
Q 2441 2713 2670 2916 
Q 2900 3119 2900 3481 
Q 2900 3844 2670 4047 
Q 2441 4250 2034 4250 
Q 1625 4250 1398 4047 
Q 1172 3844 1172 3481 
z
" transform="scale(0.015625)"/>
       </defs>
       <use xlink:href="#DejaVuSans-38"/>
      </g>
     </g>
    </g>
    <g id="xtick_9">
     <g id="line2d_9">
      <g>
       <use xlink:href="#m2713d25536" x="373.9575" y="178.36" style="stroke: #000000; stroke-width: 0.8"/>
      </g>
     </g>
     <g id="text_9">
      <!-- 9 -->
      <g transform="translate(372.04875 189.919063) scale(0.06 -0.06)">
       <defs>
        <path id="DejaVuSans-39" d="M 703 97 
L 703 672 
Q 941 559 1184 500 
Q 1428 441 1663 441 
Q 2288 441 2617 861 
Q 2947 1281 2994 2138 
Q 2813 1869 2534 1725 
Q 2256 1581 1919 1581 
Q 1219 1581 811 2004 
Q 403 2428 403 3163 
Q 403 3881 828 4315 
Q 1253 4750 1959 4750 
Q 2769 4750 3195 4129 
Q 3622 3509 3622 2328 
Q 3622 1225 3098 567 
Q 2575 -91 1691 -91 
Q 1453 -91 1209 -44 
Q 966 3 703 97 
z
M 1959 2075 
Q 2384 2075 2632 2365 
Q 2881 2656 2881 3163 
Q 2881 3666 2632 3958 
Q 2384 4250 1959 4250 
Q 1534 4250 1286 3958 
Q 1038 3666 1038 3163 
Q 1038 2656 1286 2365 
Q 1534 2075 1959 2075 
z
" transform="scale(0.015625)"/>
       </defs>
       <use xlink:href="#DejaVuSans-39"/>
      </g>
     </g>
    </g>
    <g id="xtick_10">
     <g id="line2d_10">
      <g>
       <use xlink:href="#m2713d25536" x="414.0925" y="178.36" style="stroke: #000000; stroke-width: 0.8"/>
      </g>
     </g>
     <g id="text_10">
      <!-- 10 -->
      <g transform="translate(410.275 189.919063) scale(0.06 -0.06)">
       <defs>
        <path id="DejaVuSans-30" d="M 2034 4250 
Q 1547 4250 1301 3770 
Q 1056 3291 1056 2328 
Q 1056 1369 1301 889 
Q 1547 409 2034 409 
Q 2525 409 2770 889 
Q 3016 1369 3016 2328 
Q 3016 3291 2770 3770 
Q 2525 4250 2034 4250 
z
M 2034 4750 
Q 2819 4750 3233 4129 
Q 3647 3509 3647 2328 
Q 3647 1150 3233 529 
Q 2819 -91 2034 -91 
Q 1250 -91 836 529 
Q 422 1150 422 2328 
Q 422 3509 836 4129 
Q 1250 4750 2034 4750 
z
" transform="scale(0.015625)"/>
       </defs>
       <use xlink:href="#DejaVuSans-31"/>
       <use xlink:href="#DejaVuSans-30" x="63.623047"/>
      </g>
     </g>
    </g>
    <g id="text_11">
     <!-- Number of Mice in Treatment Group -->
     <g transform="translate(179.729219 199.725938) scale(0.06 -0.06)">
      <defs>
       <path id="DejaVuSans-4e" d="M 628 4666 
L 1478 4666 
L 3547 763 
L 3547 4666 
L 4159 4666 
L 4159 0 
L 3309 0 
L 1241 3903 
L 1241 0 
L 628 0 
L 628 4666 
z
" transform="scale(0.015625)"/>
       <path id="DejaVuSans-75" d="M 544 1381 
L 544 3500 
L 1119 3500 
L 1119 1403 
Q 1119 906 1312 657 
Q 1506 409 1894 409 
Q 2359 409 2629 706 
Q 2900 1003 2900 1516 
L 2900 3500 
L 3475 3500 
L 3475 0 
L 2900 0 
L 2900 538 
Q 2691 219 2414 64 
Q 2138 -91 1772 -91 
Q 1169 -91 856 284 
Q 544 659 544 1381 
z
M 1991 3584 
L 1991 3584 
z
" transform="scale(0.015625)"/>
       <path id="DejaVuSans-6d" d="M 3328 2828 
Q 3544 3216 3844 3400 
Q 4144 3584 4550 3584 
Q 5097 3584 5394 3201 
Q 5691 2819 5691 2113 
L 5691 0 
L 5113 0 
L 5113 2094 
Q 5113 2597 4934 2840 
Q 4756 3084 4391 3084 
Q 3944 3084 3684 2787 
Q 3425 2491 3425 1978 
L 3425 0 
L 2847 0 
L 2847 2094 
Q 2847 2600 2669 2842 
Q 2491 3084 2119 3084 
Q 1678 3084 1418 2786 
Q 1159 2488 1159 1978 
L 1159 0 
L 581 0 
L 581 3500 
L 1159 3500 
L 1159 2956 
Q 1356 3278 1631 3431 
Q 1906 3584 2284 3584 
Q 2666 3584 2933 3390 
Q 3200 3197 3328 2828 
z
" transform="scale(0.015625)"/>
       <path id="DejaVuSans-62" d="M 3116 1747 
Q 3116 2381 2855 2742 
Q 2594 3103 2138 3103 
Q 1681 3103 1420 2742 
Q 1159 2381 1159 1747 
Q 1159 1113 1420 752 
Q 1681 391 2138 391 
Q 2594 391 2855 752 
Q 3116 1113 3116 1747 
z
M 1159 2969 
Q 1341 3281 1617 3432 
Q 1894 3584 2278 3584 
Q 2916 3584 3314 3078 
Q 3713 2572 3713 1747 
Q 3713 922 3314 415 
Q 2916 -91 2278 -91 
Q 1894 -91 1617 61 
Q 1341 213 1159 525 
L 1159 0 
L 581 0 
L 581 4863 
L 1159 4863 
L 1159 2969 
z
" transform="scale(0.015625)"/>
       <path id="DejaVuSans-65" d="M 3597 1894 
L 3597 1613 
L 953 1613 
Q 991 1019 1311 708 
Q 1631 397 2203 397 
Q 2534 397 2845 478 
Q 3156 559 3463 722 
L 3463 178 
Q 3153 47 2828 -22 
Q 2503 -91 2169 -91 
Q 1331 -91 842 396 
Q 353 884 353 1716 
Q 353 2575 817 3079 
Q 1281 3584 2069 3584 
Q 2775 3584 3186 3129 
Q 3597 2675 3597 1894 
z
M 3022 2063 
Q 3016 2534 2758 2815 
Q 2500 3097 2075 3097 
Q 1594 3097 1305 2825 
Q 1016 2553 972 2059 
L 3022 2063 
z
" transform="scale(0.015625)"/>
       <path id="DejaVuSans-72" d="M 2631 2963 
Q 2534 3019 2420 3045 
Q 2306 3072 2169 3072 
Q 1681 3072 1420 2755 
Q 1159 2438 1159 1844 
L 1159 0 
L 581 0 
L 581 3500 
L 1159 3500 
L 1159 2956 
Q 1341 3275 1631 3429 
Q 1922 3584 2338 3584 
Q 2397 3584 2469 3576 
Q 2541 3569 2628 3553 
L 2631 2963 
z
" transform="scale(0.015625)"/>
       <path id="DejaVuSans-20" transform="scale(0.015625)"/>
       <path id="DejaVuSans-6f" d="M 1959 3097 
Q 1497 3097 1228 2736 
Q 959 2375 959 1747 
Q 959 1119 1226 758 
Q 1494 397 1959 397 
Q 2419 397 2687 759 
Q 2956 1122 2956 1747 
Q 2956 2369 2687 2733 
Q 2419 3097 1959 3097 
z
M 1959 3584 
Q 2709 3584 3137 3096 
Q 3566 2609 3566 1747 
Q 3566 888 3137 398 
Q 2709 -91 1959 -91 
Q 1206 -91 779 398 
Q 353 888 353 1747 
Q 353 2609 779 3096 
Q 1206 3584 1959 3584 
z
" transform="scale(0.015625)"/>
       <path id="DejaVuSans-66" d="M 2375 4863 
L 2375 4384 
L 1825 4384 
Q 1516 4384 1395 4259 
Q 1275 4134 1275 3809 
L 1275 3500 
L 2222 3500 
L 2222 3053 
L 1275 3053 
L 1275 0 
L 697 0 
L 697 3053 
L 147 3053 
L 147 3500 
L 697 3500 
L 697 3744 
Q 697 4328 969 4595 
Q 1241 4863 1831 4863 
L 2375 4863 
z
" transform="scale(0.015625)"/>
       <path id="DejaVuSans-4d" d="M 628 4666 
L 1569 4666 
L 2759 1491 
L 3956 4666 
L 4897 4666 
L 4897 0 
L 4281 0 
L 4281 4097 
L 3078 897 
L 2444 897 
L 1241 4097 
L 1241 0 
L 628 0 
L 628 4666 
z
" transform="scale(0.015625)"/>
       <path id="DejaVuSans-69" d="M 603 3500 
L 1178 3500 
L 1178 0 
L 603 0 
L 603 3500 
z
M 603 4863 
L 1178 4863 
L 1178 4134 
L 603 4134 
L 603 4863 
z
" transform="scale(0.015625)"/>
       <path id="DejaVuSans-63" d="M 3122 3366 
L 3122 2828 
Q 2878 2963 2633 3030 
Q 2388 3097 2138 3097 
Q 1578 3097 1268 2742 
Q 959 2388 959 1747 
Q 959 1106 1268 751 
Q 1578 397 2138 397 
Q 2388 397 2633 464 
Q 2878 531 3122 666 
L 3122 134 
Q 2881 22 2623 -34 
Q 2366 -91 2075 -91 
Q 1284 -91 818 406 
Q 353 903 353 1747 
Q 353 2603 823 3093 
Q 1294 3584 2113 3584 
Q 2378 3584 2631 3529 
Q 2884 3475 3122 3366 
z
" transform="scale(0.015625)"/>
       <path id="DejaVuSans-6e" d="M 3513 2113 
L 3513 0 
L 2938 0 
L 2938 2094 
Q 2938 2591 2744 2837 
Q 2550 3084 2163 3084 
Q 1697 3084 1428 2787 
Q 1159 2491 1159 1978 
L 1159 0 
L 581 0 
L 581 3500 
L 1159 3500 
L 1159 2956 
Q 1366 3272 1645 3428 
Q 1925 3584 2291 3584 
Q 2894 3584 3203 3211 
Q 3513 2838 3513 2113 
z
" transform="scale(0.015625)"/>
       <path id="DejaVuSans-54" d="M -19 4666 
L 3928 4666 
L 3928 4134 
L 2272 4134 
L 2272 0 
L 1638 0 
L 1638 4134 
L -19 4134 
L -19 4666 
z
" transform="scale(0.015625)"/>
       <path id="DejaVuSans-61" d="M 2194 1759 
Q 1497 1759 1228 1600 
Q 959 1441 959 1056 
Q 959 750 1161 570 
Q 1363 391 1709 391 
Q 2188 391 2477 730 
Q 2766 1069 2766 1631 
L 2766 1759 
L 2194 1759 
z
M 3341 1997 
L 3341 0 
L 2766 0 
L 2766 531 
Q 2569 213 2275 61 
Q 1981 -91 1556 -91 
Q 1019 -91 701 211 
Q 384 513 384 1019 
Q 384 1609 779 1909 
Q 1175 2209 1959 2209 
L 2766 2209 
L 2766 2266 
Q 2766 2663 2505 2880 
Q 2244 3097 1772 3097 
Q 1472 3097 1187 3025 
Q 903 2953 641 2809 
L 641 3341 
Q 956 3463 1253 3523 
Q 1550 3584 1831 3584 
Q 2591 3584 2966 3190 
Q 3341 2797 3341 1997 
z
" transform="scale(0.015625)"/>
       <path id="DejaVuSans-74" d="M 1172 4494 
L 1172 3500 
L 2356 3500 
L 2356 3053 
L 1172 3053 
L 1172 1153 
Q 1172 725 1289 603 
Q 1406 481 1766 481 
L 2356 481 
L 2356 0 
L 1766 0 
Q 1100 0 847 248 
Q 594 497 594 1153 
L 594 3053 
L 172 3053 
L 172 3500 
L 594 3500 
L 594 4494 
L 1172 4494 
z
" transform="scale(0.015625)"/>
       <path id="DejaVuSans-47" d="M 3809 666 
L 3809 1919 
L 2778 1919 
L 2778 2438 
L 4434 2438 
L 4434 434 
Q 4069 175 3628 42 
Q 3188 -91 2688 -91 
Q 1594 -91 976 548 
Q 359 1188 359 2328 
Q 359 3472 976 4111 
Q 1594 4750 2688 4750 
Q 3144 4750 3555 4637 
Q 3966 4525 4313 4306 
L 4313 3634 
Q 3963 3931 3569 4081 
Q 3175 4231 2741 4231 
Q 1884 4231 1454 3753 
Q 1025 3275 1025 2328 
Q 1025 1384 1454 906 
Q 1884 428 2741 428 
Q 3075 428 3337 486 
Q 3600 544 3809 666 
z
" transform="scale(0.015625)"/>
       <path id="DejaVuSans-70" d="M 1159 525 
L 1159 -1331 
L 581 -1331 
L 581 3500 
L 1159 3500 
L 1159 2969 
Q 1341 3281 1617 3432 
Q 1894 3584 2278 3584 
Q 2916 3584 3314 3078 
Q 3713 2572 3713 1747 
Q 3713 922 3314 415 
Q 2916 -91 2278 -91 
Q 1894 -91 1617 61 
Q 1341 213 1159 525 
z
M 3116 1747 
Q 3116 2381 2855 2742 
Q 2594 3103 2138 3103 
Q 1681 3103 1420 2742 
Q 1159 2381 1159 1747 
Q 1159 1113 1420 752 
Q 1681 391 2138 391 
Q 2594 391 2855 752 
Q 3116 1113 3116 1747 
z
" transform="scale(0.015625)"/>
      </defs>
      <use xlink:href="#DejaVuSans-4e"/>
      <use xlink:href="#DejaVuSans-75" x="74.804688"/>
      <use xlink:href="#DejaVuSans-6d" x="138.183594"/>
      <use xlink:href="#DejaVuSans-62" x="235.595703"/>
      <use xlink:href="#DejaVuSans-65" x="299.072266"/>
      <use xlink:href="#DejaVuSans-72" x="360.595703"/>
      <use xlink:href="#DejaVuSans-20" x="401.708984"/>
      <use xlink:href="#DejaVuSans-6f" x="433.496094"/>
      <use xlink:href="#DejaVuSans-66" x="494.677734"/>
      <use xlink:href="#DejaVuSans-20" x="529.882812"/>
      <use xlink:href="#DejaVuSans-4d" x="561.669922"/>
      <use xlink:href="#DejaVuSans-69" x="647.949219"/>
      <use xlink:href="#DejaVuSans-63" x="675.732422"/>
      <use xlink:href="#DejaVuSans-65" x="730.712891"/>
      <use xlink:href="#DejaVuSans-20" x="792.236328"/>
      <use xlink:href="#DejaVuSans-69" x="824.023438"/>
      <use xlink:href="#DejaVuSans-6e" x="851.806641"/>
      <use xlink:href="#DejaVuSans-20" x="915.185547"/>
      <use xlink:href="#DejaVuSans-54" x="946.972656"/>
      <use xlink:href="#DejaVuSans-72" x="993.306641"/>
      <use xlink:href="#DejaVuSans-65" x="1032.169922"/>
      <use xlink:href="#DejaVuSans-61" x="1093.693359"/>
      <use xlink:href="#DejaVuSans-74" x="1154.972656"/>
      <use xlink:href="#DejaVuSans-6d" x="1194.181641"/>
      <use xlink:href="#DejaVuSans-65" x="1291.59375"/>
      <use xlink:href="#DejaVuSans-6e" x="1353.117188"/>
      <use xlink:href="#DejaVuSans-74" x="1416.496094"/>
      <use xlink:href="#DejaVuSans-20" x="1455.705078"/>
      <use xlink:href="#DejaVuSans-47" x="1487.492188"/>
      <use xlink:href="#DejaVuSans-72" x="1564.982422"/>
      <use xlink:href="#DejaVuSans-6f" x="1603.845703"/>
      <use xlink:href="#DejaVuSans-75" x="1665.027344"/>
      <use xlink:href="#DejaVuSans-70" x="1728.40625"/>
     </g>
    </g>
   </g>
   <g id="matplotlib.axis_2">
    <g id="ytick_1">
     <g id="line2d_11">
      <path d="M 32.81 178.36 
L 434.16 178.36 
" clip-path="url(#pa8d218ff50)" style="fill: none; stroke-dasharray: 2.96,1.28; stroke-dashoffset: 0; stroke: #000000; stroke-opacity: 0.3; stroke-width: 0.8"/>
     </g>
     <g id="line2d_12">
      <defs>
       <path id="m3e79528f5a" d="M 0 0 
L -3.5 0 
" style="stroke: #000000; stroke-width: 0.8"/>
      </defs>
      <g>
       <use xlink:href="#m3e79528f5a" x="32.81" y="178.36" style="stroke: #000000; stroke-width: 0.8"/>
      </g>
     </g>
     <g id="text_12">
      <!-- 0.0 -->
      <g transform="translate(16.268125 180.639531) scale(0.06 -0.06)">
       <defs>
        <path id="DejaVuSans-2e" d="M 684 794 
L 1344 794 
L 1344 0 
L 684 0 
L 684 794 
z
" transform="scale(0.015625)"/>
       </defs>
       <use xlink:href="#DejaVuSans-30"/>
       <use xlink:href="#DejaVuSans-2e" x="63.623047"/>
       <use xlink:href="#DejaVuSans-30" x="95.410156"/>
      </g>
     </g>
    </g>
    <g id="ytick_2">
     <g id="line2d_13">
      <path d="M 32.81 146.288 
L 434.16 146.288 
" clip-path="url(#pa8d218ff50)" style="fill: none; stroke-dasharray: 2.96,1.28; stroke-dashoffset: 0; stroke: #000000; stroke-opacity: 0.3; stroke-width: 0.8"/>
     </g>
     <g id="line2d_14">
      <g>
       <use xlink:href="#m3e79528f5a" x="32.81" y="146.288" style="stroke: #000000; stroke-width: 0.8"/>
      </g>
     </g>
     <g id="text_13">
      <!-- 0.2 -->
      <g transform="translate(16.268125 148.567531) scale(0.06 -0.06)">
       <use xlink:href="#DejaVuSans-30"/>
       <use xlink:href="#DejaVuSans-2e" x="63.623047"/>
       <use xlink:href="#DejaVuSans-32" x="95.410156"/>
      </g>
     </g>
    </g>
    <g id="ytick_3">
     <g id="line2d_15">
      <path d="M 32.81 114.216 
L 434.16 114.216 
" clip-path="url(#pa8d218ff50)" style="fill: none; stroke-dasharray: 2.96,1.28; stroke-dashoffset: 0; stroke: #000000; stroke-opacity: 0.3; stroke-width: 0.8"/>
     </g>
     <g id="line2d_16">
      <g>
       <use xlink:href="#m3e79528f5a" x="32.81" y="114.216" style="stroke: #000000; stroke-width: 0.8"/>
      </g>
     </g>
     <g id="text_14">
      <!-- 0.4 -->
      <g transform="translate(16.268125 116.495531) scale(0.06 -0.06)">
       <use xlink:href="#DejaVuSans-30"/>
       <use xlink:href="#DejaVuSans-2e" x="63.623047"/>
       <use xlink:href="#DejaVuSans-34" x="95.410156"/>
      </g>
     </g>
    </g>
    <g id="ytick_4">
     <g id="line2d_17">
      <path d="M 32.81 82.144 
L 434.16 82.144 
" clip-path="url(#pa8d218ff50)" style="fill: none; stroke-dasharray: 2.96,1.28; stroke-dashoffset: 0; stroke: #000000; stroke-opacity: 0.3; stroke-width: 0.8"/>
     </g>
     <g id="line2d_18">
      <g>
       <use xlink:href="#m3e79528f5a" x="32.81" y="82.144" style="stroke: #000000; stroke-width: 0.8"/>
      </g>
     </g>
     <g id="text_15">
      <!-- 0.6 -->
      <g transform="translate(16.268125 84.423531) scale(0.06 -0.06)">
       <use xlink:href="#DejaVuSans-30"/>
       <use xlink:href="#DejaVuSans-2e" x="63.623047"/>
       <use xlink:href="#DejaVuSans-36" x="95.410156"/>
      </g>
     </g>
    </g>
    <g id="ytick_5">
     <g id="line2d_19">
      <path d="M 32.81 50.072 
L 434.16 50.072 
" clip-path="url(#pa8d218ff50)" style="fill: none; stroke-dasharray: 2.96,1.28; stroke-dashoffset: 0; stroke: #000000; stroke-opacity: 0.3; stroke-width: 0.8"/>
     </g>
     <g id="line2d_20">
      <g>
       <use xlink:href="#m3e79528f5a" x="32.81" y="50.072" style="stroke: #000000; stroke-width: 0.8"/>
      </g>
     </g>
     <g id="text_16">
      <!-- 0.8 -->
      <g transform="translate(16.268125 52.351531) scale(0.06 -0.06)">
       <use xlink:href="#DejaVuSans-30"/>
       <use xlink:href="#DejaVuSans-2e" x="63.623047"/>
       <use xlink:href="#DejaVuSans-38" x="95.410156"/>
      </g>
     </g>
    </g>
    <g id="ytick_6">
     <g id="line2d_21">
      <path d="M 32.81 18 
L 434.16 18 
" clip-path="url(#pa8d218ff50)" style="fill: none; stroke-dasharray: 2.96,1.28; stroke-dashoffset: 0; stroke: #000000; stroke-opacity: 0.3; stroke-width: 0.8"/>
     </g>
     <g id="line2d_22">
      <g>
       <use xlink:href="#m3e79528f5a" x="32.81" y="18" style="stroke: #000000; stroke-width: 0.8"/>
      </g>
     </g>
     <g id="text_17">
      <!-- 1.0 -->
      <g transform="translate(16.268125 20.279531) scale(0.06 -0.06)">
       <use xlink:href="#DejaVuSans-31"/>
       <use xlink:href="#DejaVuSans-2e" x="63.623047"/>
       <use xlink:href="#DejaVuSans-30" x="95.410156"/>
      </g>
     </g>
    </g>
    <g id="text_18">
     <!-- Fraction of Overlapping Hits -->
     <g transform="translate(11.020312 140.072656) rotate(-90) scale(0.06 -0.06)">
      <defs>
       <path id="DejaVuSans-46" d="M 628 4666 
L 3309 4666 
L 3309 4134 
L 1259 4134 
L 1259 2759 
L 3109 2759 
L 3109 2228 
L 1259 2228 
L 1259 0 
L 628 0 
L 628 4666 
z
" transform="scale(0.015625)"/>
       <path id="DejaVuSans-4f" d="M 2522 4238 
Q 1834 4238 1429 3725 
Q 1025 3213 1025 2328 
Q 1025 1447 1429 934 
Q 1834 422 2522 422 
Q 3209 422 3611 934 
Q 4013 1447 4013 2328 
Q 4013 3213 3611 3725 
Q 3209 4238 2522 4238 
z
M 2522 4750 
Q 3503 4750 4090 4092 
Q 4678 3434 4678 2328 
Q 4678 1225 4090 567 
Q 3503 -91 2522 -91 
Q 1538 -91 948 565 
Q 359 1222 359 2328 
Q 359 3434 948 4092 
Q 1538 4750 2522 4750 
z
" transform="scale(0.015625)"/>
       <path id="DejaVuSans-76" d="M 191 3500 
L 800 3500 
L 1894 563 
L 2988 3500 
L 3597 3500 
L 2284 0 
L 1503 0 
L 191 3500 
z
" transform="scale(0.015625)"/>
       <path id="DejaVuSans-6c" d="M 603 4863 
L 1178 4863 
L 1178 0 
L 603 0 
L 603 4863 
z
" transform="scale(0.015625)"/>
       <path id="DejaVuSans-67" d="M 2906 1791 
Q 2906 2416 2648 2759 
Q 2391 3103 1925 3103 
Q 1463 3103 1205 2759 
Q 947 2416 947 1791 
Q 947 1169 1205 825 
Q 1463 481 1925 481 
Q 2391 481 2648 825 
Q 2906 1169 2906 1791 
z
M 3481 434 
Q 3481 -459 3084 -895 
Q 2688 -1331 1869 -1331 
Q 1566 -1331 1297 -1286 
Q 1028 -1241 775 -1147 
L 775 -588 
Q 1028 -725 1275 -790 
Q 1522 -856 1778 -856 
Q 2344 -856 2625 -561 
Q 2906 -266 2906 331 
L 2906 616 
Q 2728 306 2450 153 
Q 2172 0 1784 0 
Q 1141 0 747 490 
Q 353 981 353 1791 
Q 353 2603 747 3093 
Q 1141 3584 1784 3584 
Q 2172 3584 2450 3431 
Q 2728 3278 2906 2969 
L 2906 3500 
L 3481 3500 
L 3481 434 
z
" transform="scale(0.015625)"/>
       <path id="DejaVuSans-48" d="M 628 4666 
L 1259 4666 
L 1259 2753 
L 3553 2753 
L 3553 4666 
L 4184 4666 
L 4184 0 
L 3553 0 
L 3553 2222 
L 1259 2222 
L 1259 0 
L 628 0 
L 628 4666 
z
" transform="scale(0.015625)"/>
       <path id="DejaVuSans-73" d="M 2834 3397 
L 2834 2853 
Q 2591 2978 2328 3040 
Q 2066 3103 1784 3103 
Q 1356 3103 1142 2972 
Q 928 2841 928 2578 
Q 928 2378 1081 2264 
Q 1234 2150 1697 2047 
L 1894 2003 
Q 2506 1872 2764 1633 
Q 3022 1394 3022 966 
Q 3022 478 2636 193 
Q 2250 -91 1575 -91 
Q 1294 -91 989 -36 
Q 684 19 347 128 
L 347 722 
Q 666 556 975 473 
Q 1284 391 1588 391 
Q 1994 391 2212 530 
Q 2431 669 2431 922 
Q 2431 1156 2273 1281 
Q 2116 1406 1581 1522 
L 1381 1569 
Q 847 1681 609 1914 
Q 372 2147 372 2553 
Q 372 3047 722 3315 
Q 1072 3584 1716 3584 
Q 2034 3584 2315 3537 
Q 2597 3491 2834 3397 
z
" transform="scale(0.015625)"/>
      </defs>
      <use xlink:href="#DejaVuSans-46"/>
      <use xlink:href="#DejaVuSans-72" x="50.269531"/>
      <use xlink:href="#DejaVuSans-61" x="91.382812"/>
      <use xlink:href="#DejaVuSans-63" x="152.662109"/>
      <use xlink:href="#DejaVuSans-74" x="207.642578"/>
      <use xlink:href="#DejaVuSans-69" x="246.851562"/>
      <use xlink:href="#DejaVuSans-6f" x="274.634766"/>
      <use xlink:href="#DejaVuSans-6e" x="335.816406"/>
      <use xlink:href="#DejaVuSans-20" x="399.195312"/>
      <use xlink:href="#DejaVuSans-6f" x="430.982422"/>
      <use xlink:href="#DejaVuSans-66" x="492.164062"/>
      <use xlink:href="#DejaVuSans-20" x="527.369141"/>
      <use xlink:href="#DejaVuSans-4f" x="559.15625"/>
      <use xlink:href="#DejaVuSans-76" x="637.867188"/>
      <use xlink:href="#DejaVuSans-65" x="697.046875"/>
      <use xlink:href="#DejaVuSans-72" x="758.570312"/>
      <use xlink:href="#DejaVuSans-6c" x="799.683594"/>
      <use xlink:href="#DejaVuSans-61" x="827.466797"/>
      <use xlink:href="#DejaVuSans-70" x="888.746094"/>
      <use xlink:href="#DejaVuSans-70" x="952.222656"/>
      <use xlink:href="#DejaVuSans-69" x="1015.699219"/>
      <use xlink:href="#DejaVuSans-6e" x="1043.482422"/>
      <use xlink:href="#DejaVuSans-67" x="1106.861328"/>
      <use xlink:href="#DejaVuSans-20" x="1170.337891"/>
      <use xlink:href="#DejaVuSans-48" x="1202.125"/>
      <use xlink:href="#DejaVuSans-69" x="1277.320312"/>
      <use xlink:href="#DejaVuSans-74" x="1305.103516"/>
      <use xlink:href="#DejaVuSans-73" x="1344.3125"/>
     </g>
    </g>
   </g>
   <g id="line2d_23">
    <path d="M 52.8775 178.36 
L 52.8775 66.805217 
" clip-path="url(#pa8d218ff50)" style="fill: none; stroke: #1a1a1a; stroke-linecap: square"/>
   </g>
   <g id="line2d_24">
    <path d="M 52.8775 171.387826 
L 52.8775 122.582609 
" clip-path="url(#pa8d218ff50)" style="fill: none; stroke: #1a1a1a; stroke-width: 2; stroke-linecap: square"/>
   </g>
   <g id="line2d_25">
    <path d="M 52.8775 146.985217 
" clip-path="url(#pa8d218ff50)" style="fill: none; stroke: #fa8072; stroke-width: 1.5; stroke-linecap: square"/>
    <defs>
     <path id="m91ba4c9ad4" d="M 0.833333 0 
L -0.833333 -0 
" style="stroke: #ffffff; stroke-width: 0.4"/>
    </defs>
    <g clip-path="url(#pa8d218ff50)">
     <use xlink:href="#m91ba4c9ad4" x="52.8775" y="146.985217" style="fill: #ffffff; stroke: #ffffff; stroke-width: 0.4"/>
    </g>
   </g>
   <g id="line2d_26">
    <path d="M 93.0125 171.387826 
L 93.0125 24.972174 
" clip-path="url(#pa8d218ff50)" style="fill: none; stroke: #1a1a1a; stroke-linecap: square"/>
   </g>
   <g id="line2d_27">
    <path d="M 93.0125 136.526957 
L 93.0125 73.777391 
" clip-path="url(#pa8d218ff50)" style="fill: none; stroke: #1a1a1a; stroke-width: 2; stroke-linecap: square"/>
   </g>
   <g id="line2d_28">
    <path d="M 93.0125 101.666087 
" clip-path="url(#pa8d218ff50)" style="fill: none; stroke: #fa8072; stroke-width: 1.5; stroke-linecap: square"/>
    <g clip-path="url(#pa8d218ff50)">
     <use xlink:href="#m91ba4c9ad4" x="93.0125" y="101.666087" style="fill: #ffffff; stroke: #ffffff; stroke-width: 0.4"/>
    </g>
   </g>
   <g id="line2d_29">
    <path d="M 133.1475 164.415652 
L 133.1475 24.972174 
" clip-path="url(#pa8d218ff50)" style="fill: none; stroke: #1a1a1a; stroke-linecap: square"/>
   </g>
   <g id="line2d_30">
    <path d="M 133.1475 122.582609 
L 133.1475 66.805217 
" clip-path="url(#pa8d218ff50)" style="fill: none; stroke: #1a1a1a; stroke-width: 2; stroke-linecap: square"/>
   </g>
   <g id="line2d_31">
    <path d="M 133.1475 87.721739 
" clip-path="url(#pa8d218ff50)" style="fill: none; stroke: #fa8072; stroke-width: 1.5; stroke-linecap: square"/>
    <g clip-path="url(#pa8d218ff50)">
     <use xlink:href="#m91ba4c9ad4" x="133.1475" y="87.721739" style="fill: #ffffff; stroke: #ffffff; stroke-width: 0.4"/>
    </g>
   </g>
   <g id="line2d_32">
    <path d="M 173.2825 122.582609 
L 173.2825 18 
" clip-path="url(#pa8d218ff50)" style="fill: none; stroke: #1a1a1a; stroke-linecap: square"/>
   </g>
   <g id="line2d_33">
    <path d="M 173.2825 73.777391 
L 173.2825 26.715217 
" clip-path="url(#pa8d218ff50)" style="fill: none; stroke: #1a1a1a; stroke-width: 2; stroke-linecap: square"/>
   </g>
   <g id="line2d_34">
    <path d="M 173.2825 45.888696 
" clip-path="url(#pa8d218ff50)" style="fill: none; stroke: #fa8072; stroke-width: 1.5; stroke-linecap: square"/>
    <g clip-path="url(#pa8d218ff50)">
     <use xlink:href="#m91ba4c9ad4" x="173.2825" y="45.888696" style="fill: #ffffff; stroke: #ffffff; stroke-width: 0.4"/>
    </g>
   </g>
   <g id="line2d_35">
    <path d="M 213.4175 115.610435 
L 213.4175 18 
" clip-path="url(#pa8d218ff50)" style="fill: none; stroke: #1a1a1a; stroke-linecap: square"/>
   </g>
   <g id="line2d_36">
    <path d="M 213.4175 73.777391 
L 213.4175 24.972174 
" clip-path="url(#pa8d218ff50)" style="fill: none; stroke: #1a1a1a; stroke-width: 2; stroke-linecap: square"/>
   </g>
   <g id="line2d_37">
    <path d="M 213.4175 52.86087 
" clip-path="url(#pa8d218ff50)" style="fill: none; stroke: #fa8072; stroke-width: 1.5; stroke-linecap: square"/>
    <g clip-path="url(#pa8d218ff50)">
     <use xlink:href="#m91ba4c9ad4" x="213.4175" y="52.86087" style="fill: #ffffff; stroke: #ffffff; stroke-width: 0.4"/>
    </g>
   </g>
   <g id="line2d_38">
    <path d="M 253.5525 59.833043 
L 253.5525 18 
" clip-path="url(#pa8d218ff50)" style="fill: none; stroke: #1a1a1a; stroke-linecap: square"/>
   </g>
   <g id="line2d_39">
    <path d="M 253.5525 52.86087 
L 253.5525 24.972174 
" clip-path="url(#pa8d218ff50)" style="fill: none; stroke: #1a1a1a; stroke-width: 2; stroke-linecap: square"/>
   </g>
   <g id="line2d_40">
    <path d="M 253.5525 42.402609 
" clip-path="url(#pa8d218ff50)" style="fill: none; stroke: #fa8072; stroke-width: 1.5; stroke-linecap: square"/>
    <g clip-path="url(#pa8d218ff50)">
     <use xlink:href="#m91ba4c9ad4" x="253.5525" y="42.402609" style="fill: #ffffff; stroke: #ffffff; stroke-width: 0.4"/>
    </g>
   </g>
   <g id="line2d_41">
    <path d="M 293.6875 66.805217 
L 293.6875 18 
" clip-path="url(#pa8d218ff50)" style="fill: none; stroke: #1a1a1a; stroke-linecap: square"/>
   </g>
   <g id="line2d_42">
    <path d="M 293.6875 45.888696 
L 293.6875 24.972174 
" clip-path="url(#pa8d218ff50)" style="fill: none; stroke: #1a1a1a; stroke-width: 2; stroke-linecap: square"/>
   </g>
   <g id="line2d_43">
    <path d="M 293.6875 35.430435 
" clip-path="url(#pa8d218ff50)" style="fill: none; stroke: #fa8072; stroke-width: 1.5; stroke-linecap: square"/>
    <g clip-path="url(#pa8d218ff50)">
     <use xlink:href="#m91ba4c9ad4" x="293.6875" y="35.430435" style="fill: #ffffff; stroke: #ffffff; stroke-width: 0.4"/>
    </g>
   </g>
   <g id="line2d_44">
    <path d="M 333.8225 52.86087 
L 333.8225 18 
" clip-path="url(#pa8d218ff50)" style="fill: none; stroke: #1a1a1a; stroke-linecap: square"/>
   </g>
   <g id="line2d_45">
    <path d="M 333.8225 38.916522 
L 333.8225 18 
" clip-path="url(#pa8d218ff50)" style="fill: none; stroke: #1a1a1a; stroke-width: 2; stroke-linecap: square"/>
   </g>
   <g id="line2d_46">
    <path d="M 333.8225 24.972174 
" clip-path="url(#pa8d218ff50)" style="fill: none; stroke: #fa8072; stroke-width: 1.5; stroke-linecap: square"/>
    <g clip-path="url(#pa8d218ff50)">
     <use xlink:href="#m91ba4c9ad4" x="333.8225" y="24.972174" style="fill: #ffffff; stroke: #ffffff; stroke-width: 0.4"/>
    </g>
   </g>
   <g id="line2d_47">
    <path d="M 373.9575 45.888696 
L 373.9575 18 
" clip-path="url(#pa8d218ff50)" style="fill: none; stroke: #1a1a1a; stroke-linecap: square"/>
   </g>
   <g id="line2d_48">
    <path d="M 373.9575 31.944348 
L 373.9575 18 
" clip-path="url(#pa8d218ff50)" style="fill: none; stroke: #1a1a1a; stroke-width: 2; stroke-linecap: square"/>
   </g>
   <g id="line2d_49">
    <path d="M 373.9575 24.972174 
" clip-path="url(#pa8d218ff50)" style="fill: none; stroke: #fa8072; stroke-width: 1.5; stroke-linecap: square"/>
    <g clip-path="url(#pa8d218ff50)">
     <use xlink:href="#m91ba4c9ad4" x="373.9575" y="24.972174" style="fill: #ffffff; stroke: #ffffff; stroke-width: 0.4"/>
    </g>
   </g>
   <g id="line2d_50">
    <path d="M 414.0925 31.944348 
L 414.0925 18 
" clip-path="url(#pa8d218ff50)" style="fill: none; stroke: #1a1a1a; stroke-linecap: square"/>
   </g>
   <g id="line2d_51">
    <path d="M 414.0925 24.972174 
L 414.0925 18 
" clip-path="url(#pa8d218ff50)" style="fill: none; stroke: #1a1a1a; stroke-width: 2; stroke-linecap: square"/>
   </g>
   <g id="line2d_52">
    <path d="M 414.0925 18 
" clip-path="url(#pa8d218ff50)" style="fill: none; stroke: #fa8072; stroke-width: 1.5; stroke-linecap: square"/>
    <g clip-path="url(#pa8d218ff50)">
     <use xlink:href="#m91ba4c9ad4" x="414.0925" y="18" style="fill: #ffffff; stroke: #ffffff; stroke-width: 0.4"/>
    </g>
   </g>
   <g id="line2d_53">
    <path d="M 52.8775 146.985217 
L 93.0125 101.666087 
L 133.1475 87.721739 
L 173.2825 45.888696 
L 213.4175 52.86087 
L 253.5525 42.402609 
L 293.6875 35.430435 
L 333.8225 24.972174 
L 373.9575 24.972174 
L 414.0925 18 
" clip-path="url(#pa8d218ff50)" style="fill: none; stroke: #8b0000; stroke-linecap: square"/>
    <defs>
     <path id="m51a1ad8b7c" d="M 0 1.253314 
C 0.332383 1.253314 0.651197 1.121257 0.886227 0.886227 
C 1.121257 0.651197 1.253314 0.332383 1.253314 0 
C 1.253314 -0.332383 1.121257 -0.651197 0.886227 -0.886227 
C 0.651197 -1.121257 0.332383 -1.253314 0 -1.253314 
C -0.332383 -1.253314 -0.651197 -1.121257 -0.886227 -0.886227 
C -1.121257 -0.651197 -1.253314 -0.332383 -1.253314 0 
C -1.253314 0.332383 -1.121257 0.651197 -0.886227 0.886227 
C -0.651197 1.121257 -0.332383 1.253314 0 1.253314 
z
" style="stroke: #8b0000; stroke-width: 0.75"/>
    </defs>
    <g clip-path="url(#pa8d218ff50)">
     <use xlink:href="#m51a1ad8b7c" x="52.8775" y="146.985217" style="fill: #8b0000; stroke: #8b0000; stroke-width: 0.75"/>
     <use xlink:href="#m51a1ad8b7c" x="93.0125" y="101.666087" style="fill: #8b0000; stroke: #8b0000; stroke-width: 0.75"/>
     <use xlink:href="#m51a1ad8b7c" x="133.1475" y="87.721739" style="fill: #8b0000; stroke: #8b0000; stroke-width: 0.75"/>
     <use xlink:href="#m51a1ad8b7c" x="173.2825" y="45.888696" style="fill: #8b0000; stroke: #8b0000; stroke-width: 0.75"/>
     <use xlink:href="#m51a1ad8b7c" x="213.4175" y="52.86087" style="fill: #8b0000; stroke: #8b0000; stroke-width: 0.75"/>
     <use xlink:href="#m51a1ad8b7c" x="253.5525" y="42.402609" style="fill: #8b0000; stroke: #8b0000; stroke-width: 0.75"/>
     <use xlink:href="#m51a1ad8b7c" x="293.6875" y="35.430435" style="fill: #8b0000; stroke: #8b0000; stroke-width: 0.75"/>
     <use xlink:href="#m51a1ad8b7c" x="333.8225" y="24.972174" style="fill: #8b0000; stroke: #8b0000; stroke-width: 0.75"/>
     <use xlink:href="#m51a1ad8b7c" x="373.9575" y="24.972174" style="fill: #8b0000; stroke: #8b0000; stroke-width: 0.75"/>
     <use xlink:href="#m51a1ad8b7c" x="414.0925" y="18" style="fill: #8b0000; stroke: #8b0000; stroke-width: 0.75"/>
    </g>
   </g>
   <g id="line2d_54">
    <path clip-path="url(#pa8d218ff50)" style="fill: none; stroke: #8b0000; stroke-linecap: square"/>
   </g>
   <g id="line2d_55">
    <path clip-path="url(#pa8d218ff50)" style="fill: none; stroke: #8b0000; stroke-linecap: square"/>
   </g>
   <g id="line2d_56">
    <path clip-path="url(#pa8d218ff50)" style="fill: none; stroke: #8b0000; stroke-linecap: square"/>
   </g>
   <g id="line2d_57">
    <path clip-path="url(#pa8d218ff50)" style="fill: none; stroke: #8b0000; stroke-linecap: square"/>
   </g>
   <g id="line2d_58">
    <path clip-path="url(#pa8d218ff50)" style="fill: none; stroke: #8b0000; stroke-linecap: square"/>
   </g>
   <g id="line2d_59">
    <path clip-path="url(#pa8d218ff50)" style="fill: none; stroke: #8b0000; stroke-linecap: square"/>
   </g>
   <g id="line2d_60">
    <path clip-path="url(#pa8d218ff50)" style="fill: none; stroke: #8b0000; stroke-linecap: square"/>
   </g>
   <g id="line2d_61">
    <path clip-path="url(#pa8d218ff50)" style="fill: none; stroke: #8b0000; stroke-linecap: square"/>
   </g>
   <g id="line2d_62">
    <path clip-path="url(#pa8d218ff50)" style="fill: none; stroke: #8b0000; stroke-linecap: square"/>
   </g>
   <g id="line2d_63">
    <path clip-path="url(#pa8d218ff50)" style="fill: none; stroke: #8b0000; stroke-linecap: square"/>
   </g>
   <g id="patch_3">
    <path d="M 32.81 178.36 
L 32.81 18 
" style="fill: none; stroke: #000000; stroke-width: 0.8; stroke-linejoin: miter; stroke-linecap: square"/>
   </g>
   <g id="patch_4">
    <path d="M 434.16 178.36 
L 434.16 18 
" style="fill: none; stroke: #000000; stroke-width: 0.8; stroke-linejoin: miter; stroke-linecap: square"/>
   </g>
   <g id="patch_5">
    <path d="M 32.81 178.36 
L 434.16 178.36 
" style="fill: none; stroke: #000000; stroke-width: 0.8; stroke-linejoin: miter; stroke-linecap: square"/>
   </g>
   <g id="patch_6">
    <path d="M 32.81 18 
L 434.16 18 
" style="fill: none; stroke: #000000; stroke-width: 0.8; stroke-linejoin: miter; stroke-linecap: square"/>
   </g>
   <g id="text_19">
    <!-- Fraction of Overlapping Hits in Bootstraps compared to Standard -->
    <g transform="translate(116.719 12) scale(0.072 -0.072)">
     <defs>
      <path id="DejaVuSans-42" d="M 1259 2228 
L 1259 519 
L 2272 519 
Q 2781 519 3026 730 
Q 3272 941 3272 1375 
Q 3272 1813 3026 2020 
Q 2781 2228 2272 2228 
L 1259 2228 
z
M 1259 4147 
L 1259 2741 
L 2194 2741 
Q 2656 2741 2882 2914 
Q 3109 3088 3109 3444 
Q 3109 3797 2882 3972 
Q 2656 4147 2194 4147 
L 1259 4147 
z
M 628 4666 
L 2241 4666 
Q 2963 4666 3353 4366 
Q 3744 4066 3744 3513 
Q 3744 3084 3544 2831 
Q 3344 2578 2956 2516 
Q 3422 2416 3680 2098 
Q 3938 1781 3938 1306 
Q 3938 681 3513 340 
Q 3088 0 2303 0 
L 628 0 
L 628 4666 
z
" transform="scale(0.015625)"/>
      <path id="DejaVuSans-64" d="M 2906 2969 
L 2906 4863 
L 3481 4863 
L 3481 0 
L 2906 0 
L 2906 525 
Q 2725 213 2448 61 
Q 2172 -91 1784 -91 
Q 1150 -91 751 415 
Q 353 922 353 1747 
Q 353 2572 751 3078 
Q 1150 3584 1784 3584 
Q 2172 3584 2448 3432 
Q 2725 3281 2906 2969 
z
M 947 1747 
Q 947 1113 1208 752 
Q 1469 391 1925 391 
Q 2381 391 2643 752 
Q 2906 1113 2906 1747 
Q 2906 2381 2643 2742 
Q 2381 3103 1925 3103 
Q 1469 3103 1208 2742 
Q 947 2381 947 1747 
z
" transform="scale(0.015625)"/>
      <path id="DejaVuSans-53" d="M 3425 4513 
L 3425 3897 
Q 3066 4069 2747 4153 
Q 2428 4238 2131 4238 
Q 1616 4238 1336 4038 
Q 1056 3838 1056 3469 
Q 1056 3159 1242 3001 
Q 1428 2844 1947 2747 
L 2328 2669 
Q 3034 2534 3370 2195 
Q 3706 1856 3706 1288 
Q 3706 609 3251 259 
Q 2797 -91 1919 -91 
Q 1588 -91 1214 -16 
Q 841 59 441 206 
L 441 856 
Q 825 641 1194 531 
Q 1563 422 1919 422 
Q 2459 422 2753 634 
Q 3047 847 3047 1241 
Q 3047 1584 2836 1778 
Q 2625 1972 2144 2069 
L 1759 2144 
Q 1053 2284 737 2584 
Q 422 2884 422 3419 
Q 422 4038 858 4394 
Q 1294 4750 2059 4750 
Q 2388 4750 2728 4690 
Q 3069 4631 3425 4513 
z
" transform="scale(0.015625)"/>
     </defs>
     <use xlink:href="#DejaVuSans-46"/>
     <use xlink:href="#DejaVuSans-72" x="50.269531"/>
     <use xlink:href="#DejaVuSans-61" x="91.382812"/>
     <use xlink:href="#DejaVuSans-63" x="152.662109"/>
     <use xlink:href="#DejaVuSans-74" x="207.642578"/>
     <use xlink:href="#DejaVuSans-69" x="246.851562"/>
     <use xlink:href="#DejaVuSans-6f" x="274.634766"/>
     <use xlink:href="#DejaVuSans-6e" x="335.816406"/>
     <use xlink:href="#DejaVuSans-20" x="399.195312"/>
     <use xlink:href="#DejaVuSans-6f" x="430.982422"/>
     <use xlink:href="#DejaVuSans-66" x="492.164062"/>
     <use xlink:href="#DejaVuSans-20" x="527.369141"/>
     <use xlink:href="#DejaVuSans-4f" x="559.15625"/>
     <use xlink:href="#DejaVuSans-76" x="637.867188"/>
     <use xlink:href="#DejaVuSans-65" x="697.046875"/>
     <use xlink:href="#DejaVuSans-72" x="758.570312"/>
     <use xlink:href="#DejaVuSans-6c" x="799.683594"/>
     <use xlink:href="#DejaVuSans-61" x="827.466797"/>
     <use xlink:href="#DejaVuSans-70" x="888.746094"/>
     <use xlink:href="#DejaVuSans-70" x="952.222656"/>
     <use xlink:href="#DejaVuSans-69" x="1015.699219"/>
     <use xlink:href="#DejaVuSans-6e" x="1043.482422"/>
     <use xlink:href="#DejaVuSans-67" x="1106.861328"/>
     <use xlink:href="#DejaVuSans-20" x="1170.337891"/>
     <use xlink:href="#DejaVuSans-48" x="1202.125"/>
     <use xlink:href="#DejaVuSans-69" x="1277.320312"/>
     <use xlink:href="#DejaVuSans-74" x="1305.103516"/>
     <use xlink:href="#DejaVuSans-73" x="1344.3125"/>
     <use xlink:href="#DejaVuSans-20" x="1396.412109"/>
     <use xlink:href="#DejaVuSans-69" x="1428.199219"/>
     <use xlink:href="#DejaVuSans-6e" x="1455.982422"/>
     <use xlink:href="#DejaVuSans-20" x="1519.361328"/>
     <use xlink:href="#DejaVuSans-42" x="1551.148438"/>
     <use xlink:href="#DejaVuSans-6f" x="1619.751953"/>
     <use xlink:href="#DejaVuSans-6f" x="1680.933594"/>
     <use xlink:href="#DejaVuSans-74" x="1742.115234"/>
     <use xlink:href="#DejaVuSans-73" x="1781.324219"/>
     <use xlink:href="#DejaVuSans-74" x="1833.423828"/>
     <use xlink:href="#DejaVuSans-72" x="1872.632812"/>
     <use xlink:href="#DejaVuSans-61" x="1913.746094"/>
     <use xlink:href="#DejaVuSans-70" x="1975.025391"/>
     <use xlink:href="#DejaVuSans-73" x="2038.501953"/>
     <use xlink:href="#DejaVuSans-20" x="2090.601562"/>
     <use xlink:href="#DejaVuSans-63" x="2122.388672"/>
     <use xlink:href="#DejaVuSans-6f" x="2177.369141"/>
     <use xlink:href="#DejaVuSans-6d" x="2238.550781"/>
     <use xlink:href="#DejaVuSans-70" x="2335.962891"/>
     <use xlink:href="#DejaVuSans-61" x="2399.439453"/>
     <use xlink:href="#DejaVuSans-72" x="2460.71875"/>
     <use xlink:href="#DejaVuSans-65" x="2499.582031"/>
     <use xlink:href="#DejaVuSans-64" x="2561.105469"/>
     <use xlink:href="#DejaVuSans-20" x="2624.582031"/>
     <use xlink:href="#DejaVuSans-74" x="2656.369141"/>
     <use xlink:href="#DejaVuSans-6f" x="2695.578125"/>
     <use xlink:href="#DejaVuSans-20" x="2756.759766"/>
     <use xlink:href="#DejaVuSans-53" x="2788.546875"/>
     <use xlink:href="#DejaVuSans-74" x="2852.023438"/>
     <use xlink:href="#DejaVuSans-61" x="2891.232422"/>
     <use xlink:href="#DejaVuSans-6e" x="2952.511719"/>
     <use xlink:href="#DejaVuSans-64" x="3015.890625"/>
     <use xlink:href="#DejaVuSans-61" x="3079.367188"/>
     <use xlink:href="#DejaVuSans-72" x="3140.646484"/>
     <use xlink:href="#DejaVuSans-64" x="3180.009766"/>
    </g>
   </g>
  </g>
 </g>
 <defs>
  <clipPath id="pa8d218ff50">
   <rect x="32.81" y="18" width="401.35" height="160.36"/>
  </clipPath>
 </defs>
</svg>
