<?xml version="1.0" encoding="utf-8" standalone="no"?>
<!DOCTYPE svg PUBLIC "-//W3C//DTD SVG 1.1//EN"
  "http://www.w3.org/Graphics/SVG/1.1/DTD/svg11.dtd">
<svg xmlns:xlink="http://www.w3.org/1999/xlink" width="293.76pt" height="138.24pt" viewBox="0 0 293.76 138.24" xmlns="http://www.w3.org/2000/svg" version="1.1">
 <metadata>
  <rdf:RDF xmlns:dc="http://purl.org/dc/elements/1.1/" xmlns:cc="http://creativecommons.org/ns#" xmlns:rdf="http://www.w3.org/1999/02/22-rdf-syntax-ns#">
   <cc:Work>
    <dc:type rdf:resource="http://purl.org/dc/dcmitype/StillImage"/>
    <dc:date>2024-07-16T18:03:53.178324</dc:date>
    <dc:format>image/svg+xml</dc:format>
    <dc:creator>
     <cc:Agent>
      <dc:title>Matplotlib v3.9.1, https://matplotlib.org/</dc:title>
     </cc:Agent>
    </dc:creator>
   </cc:Work>
  </rdf:RDF>
 </metadata>
 <defs>
  <style type="text/css">*{stroke-linejoin: round; stroke-linecap: butt}</style>
 </defs>
 <g id="figure_1">
  <g id="patch_1">
   <path d="M 0 138.24 
L 293.76 138.24 
L 293.76 0 
L 0 0 
z
" style="fill: #ffffff"/>
  </g>
  <g id="axes_1">
   <g id="patch_2">
    <path d="M 32.81 109.24 
L 287.28 109.24 
L 287.28 18 
L 32.81 18 
z
" style="fill: #ffffff"/>
   </g>
   <g id="PolyCollection_1">
    <path d="M 45.919842 114.518574 
L 45.147158 114.518574 
L 45.025893 114.148617 
L 44.879131 113.77866 
L 44.705695 113.408703 
L 44.505654 113.038747 
L 44.280564 112.66879 
L 44.033605 112.298833 
L 43.76956 111.928876 
L 43.494621 111.55892 
L 43.216011 111.188963 
L 42.941463 110.819006 
L 42.67861 110.449049 
L 42.434367 110.079093 
L 42.214395 109.709136 
L 42.022734 109.339179 
L 41.861665 108.969222 
L 41.731824 108.599266 
L 41.632545 108.229309 
L 41.562376 107.859352 
L 41.519656 107.489395 
L 41.503048 107.119439 
L 41.511926 106.749482 
L 41.546523 106.379525 
L 41.607827 106.009568 
L 41.697222 105.639611 
L 41.815954 105.269655 
L 41.964515 104.899698 
L 42.142056 104.529741 
L 42.345948 104.159784 
L 42.57155 103.789828 
L 42.81225 103.419871 
L 43.059753 103.049914 
L 43.304584 102.679957 
L 43.536745 102.310001 
L 43.746433 101.940044 
L 43.924739 101.570087 
L 44.064276 101.20013 
L 44.159672 100.830174 
L 44.207908 100.460217 
L 44.208488 100.09026 
L 44.163449 99.720303 
L 44.077193 99.350347 
L 43.956189 98.98039 
L 43.808533 98.610433 
L 43.643392 98.240476 
L 43.470385 97.87052 
L 43.298921 97.500563 
L 43.137571 97.130606 
L 42.993524 96.760649 
L 42.872194 96.390693 
L 42.777022 96.020736 
L 42.709491 95.650779 
L 42.669356 95.280822 
L 42.655037 94.910866 
L 42.66411 94.540909 
L 42.693816 94.170952 
L 42.741489 93.800995 
L 42.804833 93.431039 
L 42.882003 93.061082 
L 42.971471 92.691125 
L 43.071709 92.321168 
L 43.180723 91.951212 
L 43.295544 91.581255 
L 43.411731 91.211298 
L 43.52298 90.841341 
L 43.6209 90.471385 
L 43.695011 90.101428 
L 43.732979 89.731471 
L 43.721117 89.361514 
L 43.645137 88.991558 
L 43.491147 88.621601 
L 43.246835 88.251644 
L 42.90281 87.881687 
L 42.453989 87.511731 
L 41.900916 87.141774 
L 41.250863 86.771817 
L 40.518545 86.40186 
L 39.726278 86.031904 
L 38.903441 85.661947 
L 38.085188 85.29199 
L 37.310405 84.922033 
L 36.619054 84.552077 
L 36.049121 84.18212 
L 35.63349 83.812163 
L 35.397096 83.442206 
L 35.3547 83.07225 
L 35.509581 82.702293 
L 35.853307 82.332336 
L 36.366616 81.962379 
L 37.021305 81.592423 
L 37.782853 81.222466 
L 38.613483 80.852509 
L 39.475252 80.482552 
L 40.332868 80.112596 
L 41.155926 79.742639 
L 41.920411 79.372682 
L 42.609407 79.002725 
L 43.213057 78.632769 
L 43.727917 78.262812 
L 44.155874 77.892855 
L 46.911126 77.892855 
L 46.911126 77.892855 
L 47.339083 78.262812 
L 47.853943 78.632769 
L 48.457593 79.002725 
L 49.146589 79.372682 
L 49.911074 79.742639 
L 50.734132 80.112596 
L 51.591748 80.482552 
L 52.453517 80.852509 
L 53.284147 81.222466 
L 54.045695 81.592423 
L 54.700384 81.962379 
L 55.213693 82.332336 
L 55.557419 82.702293 
L 55.7123 83.07225 
L 55.669904 83.442206 
L 55.43351 83.812163 
L 55.017879 84.18212 
L 54.447946 84.552077 
L 53.756595 84.922033 
L 52.981812 85.29199 
L 52.163559 85.661947 
L 51.340722 86.031904 
L 50.548455 86.40186 
L 49.816137 86.771817 
L 49.166084 87.141774 
L 48.613011 87.511731 
L 48.16419 87.881687 
L 47.820165 88.251644 
L 47.575853 88.621601 
L 47.421863 88.991558 
L 47.345883 89.361514 
L 47.334021 89.731471 
L 47.371989 90.101428 
L 47.4461 90.471385 
L 47.54402 90.841341 
L 47.655269 91.211298 
L 47.771456 91.581255 
L 47.886277 91.951212 
L 47.995291 92.321168 
L 48.095529 92.691125 
L 48.184997 93.061082 
L 48.262167 93.431039 
L 48.325511 93.800995 
L 48.373184 94.170952 
L 48.40289 94.540909 
L 48.411963 94.910866 
L 48.397644 95.280822 
L 48.357509 95.650779 
L 48.289978 96.020736 
L 48.194806 96.390693 
L 48.073476 96.760649 
L 47.929429 97.130606 
L 47.768079 97.500563 
L 47.596615 97.87052 
L 47.423608 98.240476 
L 47.258467 98.610433 
L 47.110811 98.98039 
L 46.989807 99.350347 
L 46.903551 99.720303 
L 46.858512 100.09026 
L 46.859092 100.460217 
L 46.907328 100.830174 
L 47.002724 101.20013 
L 47.142261 101.570087 
L 47.320567 101.940044 
L 47.530255 102.310001 
L 47.762416 102.679957 
L 48.007247 103.049914 
L 48.25475 103.419871 
L 48.49545 103.789828 
L 48.721052 104.159784 
L 48.924944 104.529741 
L 49.102485 104.899698 
L 49.251046 105.269655 
L 49.369778 105.639611 
L 49.459173 106.009568 
L 49.520477 106.379525 
L 49.555074 106.749482 
L 49.563952 107.119439 
L 49.547344 107.489395 
L 49.504624 107.859352 
L 49.434455 108.229309 
L 49.335176 108.599266 
L 49.205335 108.969222 
L 49.044266 109.339179 
L 48.852605 109.709136 
L 48.632633 110.079093 
L 48.38839 110.449049 
L 48.125537 110.819006 
L 47.850989 111.188963 
L 47.572379 111.55892 
L 47.29744 111.928876 
L 47.033395 112.298833 
L 46.786436 112.66879 
L 46.561346 113.038747 
L 46.361305 113.408703 
L 46.187869 113.77866 
L 46.041107 114.148617 
L 45.919842 114.518574 
L 45.919842 114.518574 
z
" clip-path="url(#pbf65521d0a)" style="fill: none; stroke: #fa8072; stroke-opacity: 0.8; stroke-width: 2"/>
   </g>
   <g id="PolyCollection_2">
    <path d="M 71.195311 113.366096 
L 70.765689 113.366096 
L 70.674518 112.624443 
L 70.556419 111.88279 
L 70.408326 111.141137 
L 70.228587 110.399485 
L 70.017523 109.657832 
L 69.777861 108.916179 
L 69.514966 108.174527 
L 69.236814 107.432874 
L 68.953671 106.691221 
L 68.677507 105.949568 
L 68.421178 105.207916 
L 68.19746 104.466263 
L 68.018011 103.72461 
L 67.892349 102.982957 
L 67.826938 102.241305 
L 67.824477 101.499652 
L 67.883474 100.757999 
L 67.998181 100.016347 
L 68.158939 99.274694 
L 68.352912 98.533041 
L 68.565156 97.791388 
L 68.779895 97.049736 
L 68.981843 96.308083 
L 69.157411 95.56643 
L 69.295669 94.824778 
L 69.388983 94.083125 
L 69.433299 93.341472 
L 69.42812 92.599819 
L 69.376246 91.858167 
L 69.283348 91.116514 
L 69.157454 90.374861 
L 69.008397 89.633208 
L 68.847235 88.891556 
L 68.685658 88.149903 
L 68.535365 87.40825 
L 68.407391 86.666598 
L 68.311409 85.924945 
L 68.255017 85.183292 
L 68.243085 84.441639 
L 68.277229 83.699987 
L 68.355522 82.958334 
L 68.472511 82.216681 
L 68.619589 81.475028 
L 68.785708 80.733376 
L 68.958357 79.991723 
L 69.124689 79.25007 
L 69.272641 78.508418 
L 69.391924 77.766765 
L 69.47476 77.025112 
L 69.516327 76.283459 
L 69.514897 75.541807 
L 69.471699 74.800154 
L 69.390566 74.058501 
L 69.277437 73.316848 
L 69.139758 72.575196 
L 68.985857 71.833543 
L 68.824329 71.09189 
L 68.663489 70.350238 
L 68.510902 69.608585 
L 68.373044 68.866932 
L 68.255077 68.125279 
L 68.160761 67.383627 
L 68.092472 66.641974 
L 68.051319 65.900321 
L 68.037337 65.158668 
L 68.049731 64.417016 
L 68.087127 63.675363 
L 68.147829 62.93371 
L 68.230019 62.192058 
L 68.331886 61.450405 
L 68.451661 60.708752 
L 68.587553 59.967099 
L 68.737598 59.225447 
L 68.899474 58.483794 
L 69.07032 57.742141 
L 69.246638 57.000488 
L 69.424328 56.258836 
L 69.598875 55.517183 
L 69.76569 54.77553 
L 69.92056 54.033878 
L 70.060108 53.292225 
L 70.182185 52.550572 
L 70.286107 51.808919 
L 70.372663 51.067267 
L 70.443906 50.325614 
L 70.502756 49.583961 
L 70.552503 48.842308 
L 70.596299 48.100656 
L 70.63674 47.359003 
L 70.675609 46.61735 
L 70.713794 45.875698 
L 70.751375 45.134045 
L 70.787841 44.392392 
L 70.822351 43.650739 
L 70.854004 42.909087 
L 70.882051 42.167434 
L 70.906018 41.425781 
L 70.925763 40.684128 
L 70.941443 39.942476 
L 71.019557 39.942476 
L 71.019557 39.942476 
L 71.035237 40.684128 
L 71.054982 41.425781 
L 71.078949 42.167434 
L 71.106996 42.909087 
L 71.138649 43.650739 
L 71.173159 44.392392 
L 71.209625 45.134045 
L 71.247206 45.875698 
L 71.285391 46.61735 
L 71.32426 47.359003 
L 71.364701 48.100656 
L 71.408497 48.842308 
L 71.458244 49.583961 
L 71.517094 50.325614 
L 71.588337 51.067267 
L 71.674893 51.808919 
L 71.778815 52.550572 
L 71.900892 53.292225 
L 72.04044 54.033878 
L 72.19531 54.77553 
L 72.362125 55.517183 
L 72.536672 56.258836 
L 72.714362 57.000488 
L 72.89068 57.742141 
L 73.061526 58.483794 
L 73.223402 59.225447 
L 73.373447 59.967099 
L 73.509339 60.708752 
L 73.629114 61.450405 
L 73.730981 62.192058 
L 73.813171 62.93371 
L 73.873873 63.675363 
L 73.911269 64.417016 
L 73.923663 65.158668 
L 73.909681 65.900321 
L 73.868528 66.641974 
L 73.800239 67.383627 
L 73.705923 68.125279 
L 73.587956 68.866932 
L 73.450098 69.608585 
L 73.297511 70.350238 
L 73.136671 71.09189 
L 72.975143 71.833543 
L 72.821242 72.575196 
L 72.683563 73.316848 
L 72.570434 74.058501 
L 72.489301 74.800154 
L 72.446103 75.541807 
L 72.444673 76.283459 
L 72.48624 77.025112 
L 72.569076 77.766765 
L 72.688359 78.508418 
L 72.836311 79.25007 
L 73.002643 79.991723 
L 73.175292 80.733376 
L 73.341411 81.475028 
L 73.488489 82.216681 
L 73.605478 82.958334 
L 73.683771 83.699987 
L 73.717915 84.441639 
L 73.705983 85.183292 
L 73.649591 85.924945 
L 73.553609 86.666598 
L 73.425635 87.40825 
L 73.275342 88.149903 
L 73.113765 88.891556 
L 72.952603 89.633208 
L 72.803546 90.374861 
L 72.677652 91.116514 
L 72.584754 91.858167 
L 72.53288 92.599819 
L 72.527701 93.341472 
L 72.572017 94.083125 
L 72.665331 94.824778 
L 72.803589 95.56643 
L 72.979157 96.308083 
L 73.181105 97.049736 
L 73.395844 97.791388 
L 73.608088 98.533041 
L 73.802061 99.274694 
L 73.962819 100.016347 
L 74.077526 100.757999 
L 74.136523 101.499652 
L 74.134062 102.241305 
L 74.068651 102.982957 
L 73.942989 103.72461 
L 73.76354 104.466263 
L 73.539822 105.207916 
L 73.283493 105.949568 
L 73.007329 106.691221 
L 72.724186 107.432874 
L 72.446034 108.174527 
L 72.183139 108.916179 
L 71.943477 109.657832 
L 71.732413 110.399485 
L 71.552674 111.141137 
L 71.404581 111.88279 
L 71.286482 112.624443 
L 71.195311 113.366096 
L 71.195311 113.366096 
z
" clip-path="url(#pbf65521d0a)" style="fill: none; stroke: #fa8072; stroke-opacity: 0.8; stroke-width: 2"/>
   </g>
   <g id="PolyCollection_3">
    <path d="M 96.504506 112.789586 
L 96.350494 112.789586 
L 96.307702 111.884034 
L 96.250159 110.978482 
L 96.177447 110.07293 
L 96.0912 109.167378 
L 95.995261 108.261826 
L 95.895177 107.356274 
L 95.797037 106.450722 
L 95.70588 105.54517 
L 95.624146 104.639618 
L 95.550691 103.734066 
L 95.480746 102.828514 
L 95.406887 101.922962 
L 95.32072 101.01741 
L 95.21475 100.111858 
L 95.083876 99.206306 
L 94.926128 98.300754 
L 94.742582 97.395202 
L 94.536642 96.48965 
L 94.31307 95.584098 
L 94.0771 94.678546 
L 93.833885 93.772994 
L 93.588324 92.867442 
L 93.345236 91.96189 
L 93.109753 91.056338 
L 92.887773 90.150786 
L 92.686359 89.245234 
L 92.513901 88.339682 
L 92.379917 87.43413 
L 92.294358 86.528578 
L 92.266352 85.623026 
L 92.302494 84.717474 
L 92.404968 83.811922 
L 92.57005 82.90637 
L 92.787574 82.000818 
L 93.041778 81.095266 
L 93.313527 80.189714 
L 93.583397 79.284162 
L 93.834708 78.37861 
L 94.055622 77.473058 
L 94.239741 76.567506 
L 94.385223 75.661954 
L 94.492972 74.756402 
L 94.564738 73.85085 
L 94.601933 72.945298 
L 94.605579 72.039746 
L 94.577312 71.134194 
L 94.5209 70.228642 
L 94.443495 69.32309 
L 94.355907 68.417538 
L 94.271568 67.511986 
L 94.20438 66.606434 
L 94.16609 65.700882 
L 94.164033 64.79533 
L 94.199947 63.889778 
L 94.270142 62.984226 
L 94.366841 62.078674 
L 94.480172 61.173122 
L 94.600191 60.26757 
L 94.718499 59.362018 
L 94.829216 58.456466 
L 94.929336 57.550914 
L 95.018573 56.645362 
L 95.098856 55.73981 
L 95.173593 54.834258 
L 95.246833 53.928706 
L 95.322424 53.023154 
L 95.403315 52.117602 
L 95.491081 51.21205 
L 95.585753 50.306498 
L 95.685909 49.400946 
L 95.788984 48.495394 
L 95.891676 47.589842 
L 95.990408 46.68429 
L 96.081758 45.778738 
L 96.162841 44.873186 
L 96.231587 43.967634 
L 96.286859 43.062082 
L 96.328404 42.15653 
L 96.35663 41.250978 
L 96.372298 40.345426 
L 96.376251 39.439874 
L 96.369286 38.534322 
L 96.35225 37.62877 
L 96.326331 36.723218 
L 96.293444 35.817666 
L 96.256513 34.912114 
L 96.219484 34.006562 
L 96.186944 33.10101 
L 96.163392 32.195458 
L 96.152331 31.289906 
L 96.15548 30.384354 
L 96.172373 29.478802 
L 96.200481 28.57325 
L 96.23585 27.667698 
L 96.274003 26.762146 
L 96.310864 25.856594 
L 96.343417 24.951042 
L 96.369992 24.04549 
L 96.390185 23.139938 
L 96.464815 23.139938 
L 96.464815 23.139938 
L 96.485008 24.04549 
L 96.511583 24.951042 
L 96.544136 25.856594 
L 96.580997 26.762146 
L 96.61915 27.667698 
L 96.654519 28.57325 
L 96.682627 29.478802 
L 96.69952 30.384354 
L 96.702669 31.289906 
L 96.691608 32.195458 
L 96.668056 33.10101 
L 96.635516 34.006562 
L 96.598487 34.912114 
L 96.561556 35.817666 
L 96.528669 36.723218 
L 96.50275 37.62877 
L 96.485714 38.534322 
L 96.478749 39.439874 
L 96.482702 40.345426 
L 96.49837 41.250978 
L 96.526596 42.15653 
L 96.568141 43.062082 
L 96.623413 43.967634 
L 96.692159 44.873186 
L 96.773242 45.778738 
L 96.864592 46.68429 
L 96.963324 47.589842 
L 97.066016 48.495394 
L 97.169091 49.400946 
L 97.269247 50.306498 
L 97.363919 51.21205 
L 97.451685 52.117602 
L 97.532576 53.023154 
L 97.608167 53.928706 
L 97.681407 54.834258 
L 97.756144 55.73981 
L 97.836427 56.645362 
L 97.925664 57.550914 
L 98.025784 58.456466 
L 98.136501 59.362018 
L 98.254809 60.26757 
L 98.374828 61.173122 
L 98.488159 62.078674 
L 98.584858 62.984226 
L 98.655053 63.889778 
L 98.690967 64.79533 
L 98.68891 65.700882 
L 98.65062 66.606434 
L 98.583432 67.511986 
L 98.499093 68.417538 
L 98.411505 69.32309 
L 98.3341 70.228642 
L 98.277688 71.134194 
L 98.249421 72.039746 
L 98.253067 72.945298 
L 98.290262 73.85085 
L 98.362028 74.756402 
L 98.469777 75.661954 
L 98.615259 76.567506 
L 98.799378 77.473058 
L 99.020292 78.37861 
L 99.271603 79.284162 
L 99.541473 80.189714 
L 99.813222 81.095266 
L 100.067426 82.000818 
L 100.28495 82.90637 
L 100.450032 83.811922 
L 100.552506 84.717474 
L 100.588648 85.623026 
L 100.560642 86.528578 
L 100.475083 87.43413 
L 100.341099 88.339682 
L 100.168641 89.245234 
L 99.967227 90.150786 
L 99.745247 91.056338 
L 99.509764 91.96189 
L 99.266676 92.867442 
L 99.021115 93.772994 
L 98.7779 94.678546 
L 98.54193 95.584098 
L 98.318358 96.48965 
L 98.112418 97.395202 
L 97.928872 98.300754 
L 97.771124 99.206306 
L 97.64025 100.111858 
L 97.53428 101.01741 
L 97.448113 101.922962 
L 97.374254 102.828514 
L 97.304309 103.734066 
L 97.230854 104.639618 
L 97.14912 105.54517 
L 97.057963 106.450722 
L 96.959823 107.356274 
L 96.859739 108.261826 
L 96.7638 109.167378 
L 96.677553 110.07293 
L 96.604841 110.978482 
L 96.547298 111.884034 
L 96.504506 112.789586 
L 96.504506 112.789586 
z
" clip-path="url(#pbf65521d0a)" style="fill: none; stroke: #fa8072; stroke-opacity: 0.8; stroke-width: 2"/>
   </g>
   <g id="PolyCollection_4">
    <path d="M 121.914181 109.744581 
L 121.834819 109.744581 
L 121.81379 108.812772 
L 121.784616 107.880962 
L 121.745519 106.949152 
L 121.694792 106.017342 
L 121.630907 105.085533 
L 121.552581 104.153723 
L 121.458801 103.221913 
L 121.348814 102.290103 
L 121.22214 101.358294 
L 121.078633 100.426484 
L 120.91866 99.494674 
L 120.743383 98.562865 
L 120.555115 97.631055 
L 120.357662 96.699245 
L 120.156526 95.767435 
L 119.958866 94.835626 
L 119.77313 93.903816 
L 119.608375 92.972006 
L 119.47333 92.040197 
L 119.375334 91.108387 
L 119.319318 90.176577 
L 119.306983 89.244767 
L 119.336305 88.312958 
L 119.401469 87.381148 
L 119.493261 86.449338 
L 119.599924 85.517528 
L 119.708396 84.585719 
L 119.805813 83.653909 
L 119.881101 82.722099 
L 119.926444 81.79029 
L 119.93838 80.85848 
L 119.918305 79.92667 
L 119.872218 78.99486 
L 119.809639 78.063051 
L 119.741815 77.131241 
L 119.679516 76.199431 
L 119.630881 75.267622 
L 119.59986 74.335812 
L 119.5857 73.404002 
L 119.583657 72.472192 
L 119.586785 71.540383 
L 119.588267 70.608573 
L 119.583583 69.676763 
L 119.571828 68.744953 
L 119.555771 67.813144 
L 119.540701 66.881334 
L 119.532499 65.949524 
L 119.535635 65.017715 
L 119.551782 64.085905 
L 119.579467 63.154095 
L 119.6148 62.222285 
L 119.652922 61.290476 
L 119.689644 60.358666 
L 119.722692 59.426856 
L 119.75222 58.495047 
L 119.780516 57.563237 
L 119.811094 56.631427 
L 119.847533 55.699617 
L 119.892416 54.767808 
L 119.946653 53.835998 
L 120.009268 52.904188 
L 120.077643 51.972378 
L 120.148071 51.040569 
L 120.216462 50.108759 
L 120.279071 49.176949 
L 120.33314 48.24514 
L 120.377394 47.31333 
L 120.412338 46.38152 
L 120.440338 45.44971 
L 120.465426 44.517901 
L 120.492836 43.586091 
L 120.528261 42.654281 
L 120.57693 41.722472 
L 120.642636 40.790662 
L 120.726903 39.858852 
L 120.8285 38.927042 
L 120.94343 37.995233 
L 121.065449 37.063423 
L 121.18702 36.131613 
L 121.300511 35.199803 
L 121.399398 34.267994 
L 121.479225 33.336184 
L 121.538151 32.404374 
L 121.577025 31.472565 
L 121.599011 30.540755 
L 121.608864 29.608945 
L 121.612039 28.677135 
L 121.613773 27.745326 
L 121.618319 26.813516 
L 121.628432 25.881706 
L 121.645191 24.949897 
L 121.668128 24.018087 
L 121.695613 23.086277 
L 121.72538 22.154467 
L 121.755063 21.222658 
L 121.782629 20.290848 
L 121.806654 19.359038 
L 121.826403 18.427228 
L 121.841772 17.495419 
L 121.907228 17.495419 
L 121.907228 17.495419 
L 121.922597 18.427228 
L 121.942346 19.359038 
L 121.966371 20.290848 
L 121.993937 21.222658 
L 122.02362 22.154467 
L 122.053387 23.086277 
L 122.080872 24.018087 
L 122.103809 24.949897 
L 122.120568 25.881706 
L 122.130681 26.813516 
L 122.135227 27.745326 
L 122.136961 28.677135 
L 122.140136 29.608945 
L 122.149989 30.540755 
L 122.171975 31.472565 
L 122.210849 32.404374 
L 122.269775 33.336184 
L 122.349602 34.267994 
L 122.448489 35.199803 
L 122.56198 36.131613 
L 122.683551 37.063423 
L 122.80557 37.995233 
L 122.9205 38.927042 
L 123.022097 39.858852 
L 123.106364 40.790662 
L 123.17207 41.722472 
L 123.220739 42.654281 
L 123.256164 43.586091 
L 123.283574 44.517901 
L 123.308662 45.44971 
L 123.336662 46.38152 
L 123.371606 47.31333 
L 123.41586 48.24514 
L 123.469929 49.176949 
L 123.532538 50.108759 
L 123.600929 51.040569 
L 123.671357 51.972378 
L 123.739732 52.904188 
L 123.802347 53.835998 
L 123.856584 54.767808 
L 123.901467 55.699617 
L 123.937906 56.631427 
L 123.968484 57.563237 
L 123.99678 58.495047 
L 124.026308 59.426856 
L 124.059356 60.358666 
L 124.096078 61.290476 
L 124.1342 62.222285 
L 124.169533 63.154095 
L 124.197218 64.085905 
L 124.213365 65.017715 
L 124.216501 65.949524 
L 124.208299 66.881334 
L 124.193229 67.813144 
L 124.177172 68.744953 
L 124.165417 69.676763 
L 124.160733 70.608573 
L 124.162215 71.540383 
L 124.165343 72.472192 
L 124.1633 73.404002 
L 124.14914 74.335812 
L 124.118119 75.267622 
L 124.069484 76.199431 
L 124.007185 77.131241 
L 123.939361 78.063051 
L 123.876782 78.99486 
L 123.830695 79.92667 
L 123.81062 80.85848 
L 123.822556 81.79029 
L 123.867899 82.722099 
L 123.943187 83.653909 
L 124.040604 84.585719 
L 124.149076 85.517528 
L 124.255739 86.449338 
L 124.347531 87.381148 
L 124.412695 88.312958 
L 124.442017 89.244767 
L 124.429682 90.176577 
L 124.373666 91.108387 
L 124.27567 92.040197 
L 124.140625 92.972006 
L 123.97587 93.903816 
L 123.790134 94.835626 
L 123.592474 95.767435 
L 123.391338 96.699245 
L 123.193885 97.631055 
L 123.005617 98.562865 
L 122.83034 99.494674 
L 122.670367 100.426484 
L 122.52686 101.358294 
L 122.400186 102.290103 
L 122.290199 103.221913 
L 122.196419 104.153723 
L 122.118093 105.085533 
L 122.054208 106.017342 
L 122.003481 106.949152 
L 121.964384 107.880962 
L 121.93521 108.812772 
L 121.914181 109.744581 
L 121.914181 109.744581 
z
" clip-path="url(#pbf65521d0a)" style="fill: none; stroke: #fa8072; stroke-opacity: 0.8; stroke-width: 2"/>
   </g>
   <g id="PolyCollection_5">
    <path d="M 147.349616 115.251993 
L 147.293384 115.251993 
L 147.28076 114.252809 
L 147.264545 113.253624 
L 147.24463 112.25444 
L 147.221261 111.255256 
L 147.195061 110.256072 
L 147.166984 109.256888 
L 147.138153 108.257704 
L 147.109627 107.25852 
L 147.082125 106.259336 
L 147.055777 105.260152 
L 147.029971 104.260968 
L 147.003364 103.261784 
L 146.97405 102.2626 
L 146.93988 101.263416 
L 146.898857 100.264231 
L 146.849499 99.265047 
L 146.791105 98.265863 
L 146.723834 97.266679 
L 146.648583 96.267495 
L 146.56671 95.268311 
L 146.479627 94.269127 
L 146.388405 93.269943 
L 146.293446 92.270759 
L 146.194333 91.271575 
L 146.089918 90.272391 
L 145.978643 89.273207 
L 145.859088 88.274023 
L 145.730649 87.274839 
L 145.594211 86.275654 
L 145.452666 85.27647 
L 145.311101 84.277286 
L 145.176555 83.278102 
L 145.057288 82.278918 
L 144.961658 81.279734 
L 144.896794 80.28055 
L 144.867329 79.281366 
L 144.874501 78.282182 
L 144.915825 77.282998 
L 144.985433 76.283814 
L 145.074995 75.28463 
L 145.175005 74.285446 
L 145.276139 73.286262 
L 145.370402 72.287077 
L 145.451907 71.287893 
L 145.517202 70.288709 
L 145.565246 69.289525 
L 145.597133 68.290341 
L 145.615702 67.291157 
L 145.625097 66.291973 
L 145.630287 65.292789 
L 145.636501 64.293605 
L 145.64857 63.294421 
L 145.670162 62.295237 
L 145.703028 61.296053 
L 145.746391 60.296869 
L 145.796638 59.297684 
L 145.847481 58.2985 
L 145.890632 57.299316 
L 145.916956 56.300132 
L 145.917956 55.300948 
L 145.887341 54.301764 
L 145.822387 53.30258 
L 145.724807 52.303396 
L 145.600936 51.304212 
L 145.46112 50.305028 
L 145.318397 49.305844 
L 145.186653 48.30666 
L 145.078594 47.307476 
L 145.003881 46.308292 
L 144.967797 45.309107 
L 144.970683 44.309923 
L 145.008249 43.310739 
L 145.072681 42.311555 
L 145.154304 41.312371 
L 145.243433 40.313187 
L 145.332023 39.314003 
L 145.414799 38.314819 
L 145.489676 37.315635 
L 145.55748 36.316451 
L 145.621138 35.317267 
L 145.684611 34.318083 
L 145.751864 33.318899 
L 145.826093 32.319715 
L 145.909298 31.32053 
L 146.00219 30.321346 
L 146.104322 29.322162 
L 146.214316 28.322978 
L 146.330094 27.323794 
L 146.449074 26.32461 
L 146.568328 25.325426 
L 146.684759 24.326242 
L 146.795312 23.327058 
L 146.897217 22.327874 
L 146.988249 21.32869 
L 147.066925 20.329506 
L 147.132623 19.330322 
L 147.185566 18.331137 
L 147.226701 17.331953 
L 147.257497 16.332769 
L 147.385503 16.332769 
L 147.385503 16.332769 
L 147.416299 17.331953 
L 147.457434 18.331137 
L 147.510377 19.330322 
L 147.576075 20.329506 
L 147.654751 21.32869 
L 147.745783 22.327874 
L 147.847688 23.327058 
L 147.958241 24.326242 
L 148.074672 25.325426 
L 148.193926 26.32461 
L 148.312906 27.323794 
L 148.428684 28.322978 
L 148.538678 29.322162 
L 148.64081 30.321346 
L 148.733702 31.32053 
L 148.816907 32.319715 
L 148.891136 33.318899 
L 148.958389 34.318083 
L 149.021862 35.317267 
L 149.08552 36.316451 
L 149.153324 37.315635 
L 149.228201 38.314819 
L 149.310977 39.314003 
L 149.399567 40.313187 
L 149.488696 41.312371 
L 149.570319 42.311555 
L 149.634751 43.310739 
L 149.672317 44.309923 
L 149.675203 45.309107 
L 149.639119 46.308292 
L 149.564406 47.307476 
L 149.456347 48.30666 
L 149.324603 49.305844 
L 149.18188 50.305028 
L 149.042064 51.304212 
L 148.918193 52.303396 
L 148.820613 53.30258 
L 148.755659 54.301764 
L 148.725044 55.300948 
L 148.726044 56.300132 
L 148.752368 57.299316 
L 148.795519 58.2985 
L 148.846362 59.297684 
L 148.896609 60.296869 
L 148.939972 61.296053 
L 148.972838 62.295237 
L 148.99443 63.294421 
L 149.006499 64.293605 
L 149.012713 65.292789 
L 149.017903 66.291973 
L 149.027298 67.291157 
L 149.045867 68.290341 
L 149.077754 69.289525 
L 149.125798 70.288709 
L 149.191093 71.287893 
L 149.272598 72.287077 
L 149.366861 73.286262 
L 149.467995 74.285446 
L 149.568005 75.28463 
L 149.657567 76.283814 
L 149.727175 77.282998 
L 149.768499 78.282182 
L 149.775671 79.281366 
L 149.746206 80.28055 
L 149.681342 81.279734 
L 149.585712 82.278918 
L 149.466445 83.278102 
L 149.331899 84.277286 
L 149.190334 85.27647 
L 149.048789 86.275654 
L 148.912351 87.274839 
L 148.783912 88.274023 
L 148.664357 89.273207 
L 148.553082 90.272391 
L 148.448667 91.271575 
L 148.349554 92.270759 
L 148.254595 93.269943 
L 148.163373 94.269127 
L 148.07629 95.268311 
L 147.994417 96.267495 
L 147.919166 97.266679 
L 147.851895 98.265863 
L 147.793501 99.265047 
L 147.744143 100.264231 
L 147.70312 101.263416 
L 147.66895 102.2626 
L 147.639636 103.261784 
L 147.613029 104.260968 
L 147.587223 105.260152 
L 147.560875 106.259336 
L 147.533373 107.25852 
L 147.504847 108.257704 
L 147.476016 109.256888 
L 147.447939 110.256072 
L 147.421739 111.255256 
L 147.39837 112.25444 
L 147.378455 113.253624 
L 147.36224 114.252809 
L 147.349616 115.251993 
L 147.349616 115.251993 
z
" clip-path="url(#pbf65521d0a)" style="fill: none; stroke: #fa8072; stroke-opacity: 0.8; stroke-width: 2"/>
   </g>
   <g id="PolyCollection_6">
    <path d="M 172.813024 95.472527 
L 172.723976 95.472527 
L 172.702369 94.741269 
L 172.672794 94.01001 
L 172.633409 93.278752 
L 172.582337 92.547494 
L 172.5178 91.816235 
L 172.438286 91.084977 
L 172.342734 90.353719 
L 172.230736 89.62246 
L 172.10272 88.891202 
L 171.960093 88.159944 
L 171.805295 87.428685 
L 171.641743 86.697427 
L 171.473619 85.966168 
L 171.305525 85.23491 
L 171.14204 84.503652 
L 170.987243 83.772393 
L 170.844304 83.041135 
L 170.715212 82.309877 
L 170.600713 81.578618 
L 170.500449 80.84736 
L 170.413262 80.116102 
L 170.337579 79.384843 
L 170.271773 78.653585 
L 170.214415 77.922326 
L 170.164352 77.191068 
L 170.12061 76.45981 
L 170.082171 75.728551 
L 170.047695 74.997293 
L 170.015326 74.266035 
L 169.982653 73.534776 
L 169.946902 72.803518 
L 169.905357 72.072259 
L 169.855929 71.341001 
L 169.797769 70.609743 
L 169.73175 69.878484 
L 169.660691 69.147226 
L 169.589234 68.415968 
L 169.523347 67.684709 
L 169.469554 66.953451 
L 169.43401 66.222193 
L 169.421599 65.490934 
L 169.43524 64.759676 
L 169.475477 64.028417 
L 169.540429 63.297159 
L 169.626059 62.565901 
L 169.726694 61.834642 
L 169.83572 61.103384 
L 169.946352 60.372126 
L 170.052413 59.640867 
L 170.149058 58.909609 
L 170.233378 58.178351 
L 170.304787 57.447092 
L 170.365141 56.715834 
L 170.418493 55.984575 
L 170.470498 55.253317 
L 170.527499 54.522059 
L 170.595426 53.7908 
L 170.678695 53.059542 
L 170.779315 52.328284 
L 170.896363 51.597025 
L 171.025952 50.865767 
L 171.161663 50.134509 
L 171.29537 49.40325 
L 171.418266 48.671992 
L 171.52193 47.940733 
L 171.599259 47.209475 
L 171.645155 46.478217 
L 171.656945 45.746958 
L 171.63453 45.0157 
L 171.580295 44.284442 
L 171.498843 43.553183 
L 171.396572 42.821925 
L 171.281142 42.090666 
L 171.160864 41.359408 
L 171.044079 40.62815 
L 170.938559 39.896891 
L 170.851016 39.165633 
L 170.786755 38.434375 
L 170.749482 37.703116 
L 170.741268 36.971858 
L 170.76264 36.2406 
L 170.812739 35.509341 
L 170.889532 34.778083 
L 170.990033 34.046824 
L 171.110522 33.315566 
L 171.246757 32.584308 
L 171.394169 31.853049 
L 171.548055 31.121791 
L 171.703751 30.390533 
L 171.856816 29.659274 
L 172.003208 28.928016 
L 172.139459 28.196758 
L 172.262832 27.465499 
L 172.371446 26.734241 
L 172.464336 26.002982 
L 172.54144 25.271724 
L 172.6035 24.540466 
L 172.651896 23.809207 
L 172.688433 23.077949 
L 172.848567 23.077949 
L 172.848567 23.077949 
L 172.885104 23.809207 
L 172.9335 24.540466 
L 172.99556 25.271724 
L 173.072664 26.002982 
L 173.165554 26.734241 
L 173.274168 27.465499 
L 173.397541 28.196758 
L 173.533792 28.928016 
L 173.680184 29.659274 
L 173.833249 30.390533 
L 173.988945 31.121791 
L 174.142831 31.853049 
L 174.290243 32.584308 
L 174.426478 33.315566 
L 174.546967 34.046824 
L 174.647468 34.778083 
L 174.724261 35.509341 
L 174.77436 36.2406 
L 174.795732 36.971858 
L 174.787518 37.703116 
L 174.750245 38.434375 
L 174.685984 39.165633 
L 174.598441 39.896891 
L 174.492921 40.62815 
L 174.376136 41.359408 
L 174.255858 42.090666 
L 174.140428 42.821925 
L 174.038157 43.553183 
L 173.956705 44.284442 
L 173.90247 45.0157 
L 173.880055 45.746958 
L 173.891845 46.478217 
L 173.937741 47.209475 
L 174.01507 47.940733 
L 174.118734 48.671992 
L 174.24163 49.40325 
L 174.375337 50.134509 
L 174.511048 50.865767 
L 174.640637 51.597025 
L 174.757685 52.328284 
L 174.858305 53.059542 
L 174.941574 53.7908 
L 175.009501 54.522059 
L 175.066502 55.253317 
L 175.118507 55.984575 
L 175.171859 56.715834 
L 175.232213 57.447092 
L 175.303622 58.178351 
L 175.387942 58.909609 
L 175.484587 59.640867 
L 175.590648 60.372126 
L 175.70128 61.103384 
L 175.810306 61.834642 
L 175.910941 62.565901 
L 175.996571 63.297159 
L 176.061523 64.028417 
L 176.10176 64.759676 
L 176.115401 65.490934 
L 176.10299 66.222193 
L 176.067446 66.953451 
L 176.013653 67.684709 
L 175.947766 68.415968 
L 175.876309 69.147226 
L 175.80525 69.878484 
L 175.739231 70.609743 
L 175.681071 71.341001 
L 175.631643 72.072259 
L 175.590098 72.803518 
L 175.554347 73.534776 
L 175.521674 74.266035 
L 175.489305 74.997293 
L 175.454829 75.728551 
L 175.41639 76.45981 
L 175.372648 77.191068 
L 175.322585 77.922326 
L 175.265227 78.653585 
L 175.199421 79.384843 
L 175.123738 80.116102 
L 175.036551 80.84736 
L 174.936287 81.578618 
L 174.821788 82.309877 
L 174.692696 83.041135 
L 174.549757 83.772393 
L 174.39496 84.503652 
L 174.231475 85.23491 
L 174.063381 85.966168 
L 173.895257 86.697427 
L 173.731705 87.428685 
L 173.576907 88.159944 
L 173.43428 88.891202 
L 173.306264 89.62246 
L 173.194266 90.353719 
L 173.098714 91.084977 
L 173.0192 91.816235 
L 172.954663 92.547494 
L 172.903591 93.278752 
L 172.864206 94.01001 
L 172.834631 94.741269 
L 172.813024 95.472527 
L 172.813024 95.472527 
z
" clip-path="url(#pbf65521d0a)" style="fill: none; stroke: #fa8072; stroke-opacity: 0.8; stroke-width: 2"/>
   </g>
   <g id="PolyCollection_7">
    <path d="M 198.253144 100.685206 
L 198.177856 100.685206 
L 198.159796 99.848641 
L 198.135557 99.012076 
L 198.104148 98.175511 
L 198.064843 97.338946 
L 198.017345 96.502381 
L 197.961924 95.665816 
L 197.899524 94.829251 
L 197.831811 93.992686 
L 197.761142 93.156121 
L 197.69046 92.319556 
L 197.62311 91.482991 
L 197.56259 90.646426 
L 197.512247 89.809861 
L 197.474957 88.973296 
L 197.452812 88.136731 
L 197.44686 87.300166 
L 197.456921 86.463601 
L 197.48151 85.627036 
L 197.517881 84.790471 
L 197.562173 83.953906 
L 197.609654 83.117341 
L 197.655033 82.280776 
L 197.692814 81.444211 
L 197.71768 80.607646 
L 197.724871 79.771081 
L 197.710553 78.934516 
L 197.672148 78.097951 
L 197.608607 77.261386 
L 197.520574 76.424821 
L 197.410436 75.588256 
L 197.282184 74.751691 
L 197.141109 73.915126 
L 196.993297 73.078561 
L 196.845002 72.241996 
L 196.701979 71.405431 
L 196.568892 70.568866 
L 196.448935 69.732301 
L 196.343743 68.895736 
L 196.25364 68.059171 
L 196.178131 67.222606 
L 196.116519 66.386041 
L 196.068446 65.549476 
L 196.034195 64.712911 
L 196.014631 63.876346 
L 196.010812 63.039781 
L 196.023353 62.203216 
L 196.051757 61.366651 
L 196.093908 60.530086 
L 196.145912 59.693521 
L 196.202332 58.856956 
L 196.256784 58.020391 
L 196.302754 57.183826 
L 196.334434 56.347261 
L 196.347412 55.510696 
L 196.339096 54.674131 
L 196.308845 53.837566 
L 196.257857 53.001001 
L 196.188914 52.164436 
L 196.106062 51.327871 
L 196.014318 50.491306 
L 195.919373 49.654741 
L 195.827278 48.818176 
L 195.744024 47.981611 
L 195.674989 47.145046 
L 195.624242 46.308481 
L 195.59382 45.471916 
L 195.583111 44.635351 
L 195.588565 43.798786 
L 195.603868 42.962221 
L 195.620682 42.125656 
L 195.629875 41.289091 
L 195.623054 40.452526 
L 195.594106 39.615961 
L 195.540439 38.779396 
L 195.463665 37.942831 
L 195.369604 37.106266 
L 195.267615 36.269701 
L 195.169418 35.433136 
L 195.087632 34.596571 
L 195.03427 33.760006 
L 195.01941 32.923441 
L 195.050188 32.086876 
L 195.130193 31.250311 
L 195.259272 30.413746 
L 195.433729 29.577181 
L 195.646841 28.740616 
L 195.889605 27.904051 
L 196.151631 27.067486 
L 196.422057 26.230921 
L 196.690418 25.394356 
L 196.947378 24.557791 
L 197.185289 23.721226 
L 197.398546 22.884661 
L 197.583719 22.048096 
L 197.739494 21.211531 
L 197.866429 20.374966 
L 197.966581 19.538401 
L 198.043057 18.701836 
L 198.099542 17.865271 
L 198.331458 17.865271 
L 198.331458 17.865271 
L 198.387943 18.701836 
L 198.464419 19.538401 
L 198.564571 20.374966 
L 198.691506 21.211531 
L 198.847281 22.048096 
L 199.032454 22.884661 
L 199.245711 23.721226 
L 199.483622 24.557791 
L 199.740582 25.394356 
L 200.008943 26.230921 
L 200.279369 27.067486 
L 200.541395 27.904051 
L 200.784159 28.740616 
L 200.997271 29.577181 
L 201.171728 30.413746 
L 201.300807 31.250311 
L 201.380812 32.086876 
L 201.41159 32.923441 
L 201.39673 33.760006 
L 201.343368 34.596571 
L 201.261582 35.433136 
L 201.163385 36.269701 
L 201.061396 37.106266 
L 200.967335 37.942831 
L 200.890561 38.779396 
L 200.836894 39.615961 
L 200.807946 40.452526 
L 200.801125 41.289091 
L 200.810318 42.125656 
L 200.827132 42.962221 
L 200.842435 43.798786 
L 200.847889 44.635351 
L 200.83718 45.471916 
L 200.806758 46.308481 
L 200.756011 47.145046 
L 200.686976 47.981611 
L 200.603722 48.818176 
L 200.511627 49.654741 
L 200.416682 50.491306 
L 200.324938 51.327871 
L 200.242086 52.164436 
L 200.173143 53.001001 
L 200.122155 53.837566 
L 200.091904 54.674131 
L 200.083588 55.510696 
L 200.096566 56.347261 
L 200.128246 57.183826 
L 200.174216 58.020391 
L 200.228668 58.856956 
L 200.285088 59.693521 
L 200.337092 60.530086 
L 200.379243 61.366651 
L 200.407647 62.203216 
L 200.420188 63.039781 
L 200.416369 63.876346 
L 200.396805 64.712911 
L 200.362554 65.549476 
L 200.314481 66.386041 
L 200.252869 67.222606 
L 200.17736 68.059171 
L 200.087257 68.895736 
L 199.982065 69.732301 
L 199.862108 70.568866 
L 199.729021 71.405431 
L 199.585998 72.241996 
L 199.437703 73.078561 
L 199.289891 73.915126 
L 199.148816 74.751691 
L 199.020564 75.588256 
L 198.910426 76.424821 
L 198.822393 77.261386 
L 198.758852 78.097951 
L 198.720447 78.934516 
L 198.706129 79.771081 
L 198.71332 80.607646 
L 198.738186 81.444211 
L 198.775967 82.280776 
L 198.821346 83.117341 
L 198.868827 83.953906 
L 198.913119 84.790471 
L 198.94949 85.627036 
L 198.974079 86.463601 
L 198.98414 87.300166 
L 198.978188 88.136731 
L 198.956043 88.973296 
L 198.918753 89.809861 
L 198.86841 90.646426 
L 198.80789 91.482991 
L 198.74054 92.319556 
L 198.669858 93.156121 
L 198.599189 93.992686 
L 198.531476 94.829251 
L 198.469076 95.665816 
L 198.413655 96.502381 
L 198.366157 97.338946 
L 198.326852 98.175511 
L 198.295443 99.012076 
L 198.271204 99.848641 
L 198.253144 100.685206 
L 198.253144 100.685206 
z
" clip-path="url(#pbf65521d0a)" style="fill: none; stroke: #fa8072; stroke-opacity: 0.8; stroke-width: 2"/>
   </g>
   <g id="PolyCollection_8">
    <path d="M 223.702506 95.468289 
L 223.622494 95.468289 
L 223.602985 94.69323 
L 223.576796 93.918171 
L 223.542915 93.143112 
L 223.500653 92.368052 
L 223.449791 91.592993 
L 223.390707 90.817934 
L 223.324435 90.042875 
L 223.25266 89.267815 
L 223.177636 88.492756 
L 223.102029 87.717697 
L 223.028683 86.942638 
L 222.960324 86.167579 
L 222.899225 85.392519 
L 222.846854 84.61746 
L 222.803582 83.842401 
L 222.768512 83.067342 
L 222.739516 82.292282 
L 222.713514 81.517223 
L 222.686988 80.742164 
L 222.65665 79.967105 
L 222.620121 79.192045 
L 222.576461 78.416986 
L 222.526393 77.641927 
L 222.472148 76.866868 
L 222.416949 76.091808 
L 222.36425 75.316749 
L 222.31692 74.54169 
L 222.276581 73.766631 
L 222.243254 72.991571 
L 222.215403 72.216512 
L 222.190349 71.441453 
L 222.164935 70.666394 
L 222.136297 69.891335 
L 222.102548 69.116275 
L 222.063281 68.341216 
L 222.019774 67.566157 
L 221.97489 66.791098 
L 221.932682 66.016038 
L 221.8977 65.240979 
L 221.874086 64.46592 
L 221.864514 63.690861 
L 221.869129 62.915801 
L 221.884697 62.140742 
L 221.904216 61.365683 
L 221.917249 60.590624 
L 221.911118 59.815564 
L 221.8729 59.040505 
L 221.791946 58.265446 
L 221.662394 57.490387 
L 221.485051 56.715328 
L 221.268106 55.940268 
L 221.026337 55.165209 
L 220.778919 54.39015 
L 220.546261 53.615091 
L 220.346637 52.840031 
L 220.193398 52.064972 
L 220.093399 51.289913 
L 220.046934 50.514854 
L 220.049009 49.739794 
L 220.091488 48.964735 
L 220.165389 48.189676 
L 220.262697 47.414617 
L 220.377243 46.639557 
L 220.504526 45.864498 
L 220.640718 45.089439 
L 220.781313 44.31438 
L 220.919994 43.539321 
L 221.048232 42.764261 
L 221.155855 41.989202 
L 221.232562 41.214143 
L 221.270015 40.439084 
L 221.263951 39.664024 
L 221.215726 38.888965 
L 221.132813 38.113906 
L 221.02811 37.338847 
L 220.918169 36.563787 
L 220.820786 35.788728 
L 220.752472 35.013669 
L 220.726337 34.23861 
L 220.750721 33.46355 
L 220.828687 32.688491 
L 220.958299 31.913432 
L 221.133454 31.138373 
L 221.345021 30.363313 
L 221.582069 29.588254 
L 221.83304 28.813195 
L 222.086776 28.038136 
L 222.333341 27.263077 
L 222.564617 26.488017 
L 222.774641 25.712958 
L 222.959685 24.937899 
L 223.118115 24.16284 
L 223.250074 23.38778 
L 223.357078 22.612721 
L 223.441578 21.837662 
L 223.506557 21.062603 
L 223.555193 20.287543 
L 223.5906 19.512484 
L 223.615645 18.737425 
L 223.709355 18.737425 
L 223.709355 18.737425 
L 223.7344 19.512484 
L 223.769807 20.287543 
L 223.818443 21.062603 
L 223.883422 21.837662 
L 223.967922 22.612721 
L 224.074926 23.38778 
L 224.206885 24.16284 
L 224.365315 24.937899 
L 224.550359 25.712958 
L 224.760383 26.488017 
L 224.991659 27.263077 
L 225.238224 28.038136 
L 225.49196 28.813195 
L 225.742931 29.588254 
L 225.979979 30.363313 
L 226.191546 31.138373 
L 226.366701 31.913432 
L 226.496313 32.688491 
L 226.574279 33.46355 
L 226.598663 34.23861 
L 226.572528 35.013669 
L 226.504214 35.788728 
L 226.406831 36.563787 
L 226.29689 37.338847 
L 226.192187 38.113906 
L 226.109274 38.888965 
L 226.061049 39.664024 
L 226.054985 40.439084 
L 226.092438 41.214143 
L 226.169145 41.989202 
L 226.276768 42.764261 
L 226.405006 43.539321 
L 226.543687 44.31438 
L 226.684282 45.089439 
L 226.820474 45.864498 
L 226.947757 46.639557 
L 227.062303 47.414617 
L 227.159611 48.189676 
L 227.233512 48.964735 
L 227.275991 49.739794 
L 227.278066 50.514854 
L 227.231601 51.289913 
L 227.131602 52.064972 
L 226.978363 52.840031 
L 226.778739 53.615091 
L 226.546081 54.39015 
L 226.298663 55.165209 
L 226.056894 55.940268 
L 225.839949 56.715328 
L 225.662606 57.490387 
L 225.533054 58.265446 
L 225.4521 59.040505 
L 225.413882 59.815564 
L 225.407751 60.590624 
L 225.420784 61.365683 
L 225.440303 62.140742 
L 225.455871 62.915801 
L 225.460486 63.690861 
L 225.450914 64.46592 
L 225.4273 65.240979 
L 225.392318 66.016038 
L 225.35011 66.791098 
L 225.305226 67.566157 
L 225.261719 68.341216 
L 225.222452 69.116275 
L 225.188703 69.891335 
L 225.160065 70.666394 
L 225.134651 71.441453 
L 225.109597 72.216512 
L 225.081746 72.991571 
L 225.048419 73.766631 
L 225.00808 74.54169 
L 224.96075 75.316749 
L 224.908051 76.091808 
L 224.852852 76.866868 
L 224.798607 77.641927 
L 224.748539 78.416986 
L 224.704879 79.192045 
L 224.66835 79.967105 
L 224.638012 80.742164 
L 224.611486 81.517223 
L 224.585484 82.292282 
L 224.556488 83.067342 
L 224.521418 83.842401 
L 224.478146 84.61746 
L 224.425775 85.392519 
L 224.364676 86.167579 
L 224.296317 86.942638 
L 224.222971 87.717697 
L 224.147364 88.492756 
L 224.07234 89.267815 
L 224.000565 90.042875 
L 223.934293 90.817934 
L 223.875209 91.592993 
L 223.824347 92.368052 
L 223.782085 93.143112 
L 223.748204 93.918171 
L 223.722015 94.69323 
L 223.702506 95.468289 
L 223.702506 95.468289 
z
" clip-path="url(#pbf65521d0a)" style="fill: none; stroke: #fa8072; stroke-opacity: 0.8; stroke-width: 2"/>
   </g>
   <g id="PolyCollection_9">
    <path d="M 249.18411 95.10526 
L 249.03489 95.10526 
L 248.999869 94.337535 
L 248.954812 93.569809 
L 248.899863 92.802084 
L 248.836525 92.034359 
L 248.767782 91.266634 
L 248.697891 90.498908 
L 248.631783 89.731183 
L 248.574148 88.963458 
L 248.528382 88.195732 
L 248.495679 87.428007 
L 248.474558 86.660282 
L 248.461044 85.892556 
L 248.449545 85.124831 
L 248.434273 84.357106 
L 248.410853 83.58938 
L 248.377693 82.821655 
L 248.336689 82.05393 
L 248.293032 81.286204 
L 248.254098 80.518479 
L 248.227684 79.750754 
L 248.220054 78.983029 
L 248.234278 78.215303 
L 248.269316 77.447578 
L 248.32004 76.679853 
L 248.378133 75.912127 
L 248.43359 75.144402 
L 248.476382 74.376677 
L 248.497901 73.608951 
L 248.491892 72.841226 
L 248.454781 72.073501 
L 248.38549 71.305775 
L 248.284922 70.53805 
L 248.15535 69.770325 
L 247.999889 69.002599 
L 247.82216 68.234874 
L 247.626165 67.467149 
L 247.416339 66.699424 
L 247.197667 65.931698 
L 246.9758 65.163973 
L 246.757037 64.396248 
L 246.54813 63.628522 
L 246.355908 62.860797 
L 246.186733 62.093072 
L 246.045933 61.325346 
L 245.937265 60.557621 
L 245.862535 59.789896 
L 245.821379 59.02217 
L 245.811217 58.254445 
L 245.827367 57.48672 
L 245.863332 56.718994 
L 245.911286 55.951269 
L 245.962795 55.183544 
L 246.00974 54.415819 
L 246.045337 53.648093 
L 246.065081 52.880368 
L 246.067372 52.112643 
L 246.05367 51.344917 
L 246.02808 50.577192 
L 245.996454 49.809467 
L 245.965204 49.041741 
L 245.940125 48.274016 
L 245.925486 47.506291 
L 245.923605 46.738565 
L 245.934933 45.97084 
L 245.958561 45.203115 
L 245.992936 44.435389 
L 246.036546 43.667664 
L 246.088382 42.899939 
L 246.148045 42.132214 
L 246.21552 41.364488 
L 246.290697 40.596763 
L 246.372849 39.829038 
L 246.460234 39.061312 
L 246.550031 38.293587 
L 246.638652 37.525862 
L 246.722411 36.758136 
L 246.79838 35.990411 
L 246.865203 35.222686 
L 246.92363 34.45496 
L 246.976599 33.687235 
L 247.028834 32.91951 
L 247.08603 32.151784 
L 247.153827 31.384059 
L 247.236822 30.616334 
L 247.337819 29.848609 
L 247.457455 29.080883 
L 247.59422 28.313158 
L 247.744782 27.545433 
L 247.904497 26.777707 
L 248.067979 26.009982 
L 248.229644 25.242257 
L 248.384191 24.474531 
L 248.527021 23.706806 
L 248.654562 22.939081 
L 248.764503 22.171355 
L 248.855882 21.40363 
L 248.92903 20.635905 
L 248.985361 19.868179 
L 249.027053 19.100454 
L 249.191947 19.100454 
L 249.191947 19.100454 
L 249.233639 19.868179 
L 249.28997 20.635905 
L 249.363118 21.40363 
L 249.454497 22.171355 
L 249.564438 22.939081 
L 249.691979 23.706806 
L 249.834809 24.474531 
L 249.989356 25.242257 
L 250.151021 26.009982 
L 250.314503 26.777707 
L 250.474218 27.545433 
L 250.62478 28.313158 
L 250.761545 29.080883 
L 250.881181 29.848609 
L 250.982178 30.616334 
L 251.065173 31.384059 
L 251.13297 32.151784 
L 251.190166 32.91951 
L 251.242401 33.687235 
L 251.29537 34.45496 
L 251.353797 35.222686 
L 251.42062 35.990411 
L 251.496589 36.758136 
L 251.580348 37.525862 
L 251.668969 38.293587 
L 251.758766 39.061312 
L 251.846151 39.829038 
L 251.928303 40.596763 
L 252.00348 41.364488 
L 252.070955 42.132214 
L 252.130618 42.899939 
L 252.182454 43.667664 
L 252.226064 44.435389 
L 252.260439 45.203115 
L 252.284067 45.97084 
L 252.295395 46.738565 
L 252.293514 47.506291 
L 252.278875 48.274016 
L 252.253796 49.041741 
L 252.222546 49.809467 
L 252.19092 50.577192 
L 252.16533 51.344917 
L 252.151628 52.112643 
L 252.153919 52.880368 
L 252.173663 53.648093 
L 252.20926 54.415819 
L 252.256205 55.183544 
L 252.307714 55.951269 
L 252.355668 56.718994 
L 252.391633 57.48672 
L 252.407783 58.254445 
L 252.397621 59.02217 
L 252.356465 59.789896 
L 252.281735 60.557621 
L 252.173067 61.325346 
L 252.032267 62.093072 
L 251.863092 62.860797 
L 251.67087 63.628522 
L 251.461963 64.396248 
L 251.2432 65.163973 
L 251.021333 65.931698 
L 250.802661 66.699424 
L 250.592835 67.467149 
L 250.39684 68.234874 
L 250.219111 69.002599 
L 250.06365 69.770325 
L 249.934078 70.53805 
L 249.83351 71.305775 
L 249.764219 72.073501 
L 249.727108 72.841226 
L 249.721099 73.608951 
L 249.742618 74.376677 
L 249.78541 75.144402 
L 249.840867 75.912127 
L 249.89896 76.679853 
L 249.949684 77.447578 
L 249.984722 78.215303 
L 249.998946 78.983029 
L 249.991316 79.750754 
L 249.964902 80.518479 
L 249.925968 81.286204 
L 249.882311 82.05393 
L 249.841307 82.821655 
L 249.808147 83.58938 
L 249.784727 84.357106 
L 249.769455 85.124831 
L 249.757956 85.892556 
L 249.744442 86.660282 
L 249.723321 87.428007 
L 249.690618 88.195732 
L 249.644852 88.963458 
L 249.587217 89.731183 
L 249.521109 90.498908 
L 249.451218 91.266634 
L 249.382475 92.034359 
L 249.319137 92.802084 
L 249.264188 93.569809 
L 249.219131 94.337535 
L 249.18411 95.10526 
L 249.18411 95.10526 
z
" clip-path="url(#pbf65521d0a)" style="fill: none; stroke: #fa8072; stroke-opacity: 0.8; stroke-width: 2"/>
   </g>
   <g id="PolyCollection_10">
    <path d="M 274.599096 81.71769 
L 274.513904 81.71769 
L 274.494486 81.044875 
L 274.468855 80.372059 
L 274.436122 79.699244 
L 274.395622 79.026429 
L 274.346989 78.353613 
L 274.290183 77.680798 
L 274.225461 77.007983 
L 274.153297 76.335168 
L 274.074259 75.662352 
L 273.988893 74.989537 
L 273.897616 74.316722 
L 273.800679 73.643906 
L 273.69819 72.971091 
L 273.590208 72.298276 
L 273.476894 71.625461 
L 273.358678 70.952645 
L 273.236423 70.27983 
L 273.111525 69.607015 
L 272.98592 68.934199 
L 272.861984 68.261384 
L 272.742301 67.588569 
L 272.629361 66.915754 
L 272.525232 66.242938 
L 272.431292 65.570123 
L 272.3481 64.897308 
L 272.275448 64.224492 
L 272.212592 63.551677 
L 272.158626 62.878862 
L 272.112909 62.206047 
L 272.075445 61.533231 
L 272.047119 60.860416 
L 272.029714 60.187601 
L 272.02567 59.514786 
L 272.03761 58.84197 
L 272.067699 58.169155 
L 272.116955 57.49634 
L 272.184687 56.823524 
L 272.268177 56.150709 
L 272.362727 55.477894 
L 272.46208 54.805079 
L 272.55914 54.132263 
L 272.646843 53.459448 
L 272.71901 52.786633 
L 272.77098 52.113817 
L 272.799951 51.441002 
L 272.804962 50.768187 
L 272.786586 50.095372 
L 272.746433 49.422556 
L 272.686608 48.749741 
L 272.609247 48.076926 
L 272.516231 47.40411 
L 272.409128 46.731295 
L 272.289341 46.05848 
L 272.158416 45.385665 
L 272.018415 44.712849 
L 271.87224 44.040034 
L 271.7238 43.367219 
L 271.57793 42.694403 
L 271.440015 42.021588 
L 271.315351 41.348773 
L 271.208344 40.675958 
L 271.121726 40.003142 
L 271.055982 39.330327 
L 271.009194 38.657512 
L 270.977394 37.984696 
L 270.955415 37.311881 
L 270.938106 36.639066 
L 270.921656 35.966251 
L 270.904735 35.293435 
L 270.889165 34.62062 
L 270.879936 33.947805 
L 270.884481 33.274989 
L 270.911336 32.602174 
L 270.968404 31.929359 
L 271.061211 31.256544 
L 271.19153 30.583728 
L 271.356712 29.910913 
L 271.549889 29.238098 
L 271.761042 28.565282 
L 271.978679 27.892467 
L 272.191772 27.219652 
L 272.391511 26.546837 
L 272.572533 25.874021 
L 272.733384 25.201206 
L 272.876191 24.528391 
L 273.005674 23.855575 
L 273.127764 23.18276 
L 273.248154 22.509945 
L 273.371075 21.83713 
L 273.498539 21.164314 
L 273.630135 20.491499 
L 273.763343 19.818684 
L 273.894248 19.145869 
L 274.01842 18.473053 
L 274.131774 17.800238 
L 274.231223 17.127423 
L 274.315036 16.454607 
L 274.382887 15.781792 
L 274.435666 15.108977 
L 274.677334 15.108977 
L 274.677334 15.108977 
L 274.730113 15.781792 
L 274.797964 16.454607 
L 274.881777 17.127423 
L 274.981226 17.800238 
L 275.09458 18.473053 
L 275.218752 19.145869 
L 275.349657 19.818684 
L 275.482865 20.491499 
L 275.614461 21.164314 
L 275.741925 21.83713 
L 275.864846 22.509945 
L 275.985236 23.18276 
L 276.107326 23.855575 
L 276.236809 24.528391 
L 276.379616 25.201206 
L 276.540467 25.874021 
L 276.721489 26.546837 
L 276.921228 27.219652 
L 277.134321 27.892467 
L 277.351958 28.565282 
L 277.563111 29.238098 
L 277.756288 29.910913 
L 277.92147 30.583728 
L 278.051789 31.256544 
L 278.144596 31.929359 
L 278.201664 32.602174 
L 278.228519 33.274989 
L 278.233064 33.947805 
L 278.223835 34.62062 
L 278.208265 35.293435 
L 278.191344 35.966251 
L 278.174894 36.639066 
L 278.157585 37.311881 
L 278.135606 37.984696 
L 278.103806 38.657512 
L 278.057018 39.330327 
L 277.991274 40.003142 
L 277.904656 40.675958 
L 277.797649 41.348773 
L 277.672985 42.021588 
L 277.53507 42.694403 
L 277.3892 43.367219 
L 277.24076 44.040034 
L 277.094585 44.712849 
L 276.954584 45.385665 
L 276.823659 46.05848 
L 276.703872 46.731295 
L 276.596769 47.40411 
L 276.503753 48.076926 
L 276.426392 48.749741 
L 276.366567 49.422556 
L 276.326414 50.095372 
L 276.308038 50.768187 
L 276.313049 51.441002 
L 276.34202 52.113817 
L 276.39399 52.786633 
L 276.466157 53.459448 
L 276.55386 54.132263 
L 276.65092 54.805079 
L 276.750273 55.477894 
L 276.844823 56.150709 
L 276.928313 56.823524 
L 276.996045 57.49634 
L 277.045301 58.169155 
L 277.07539 58.84197 
L 277.08733 59.514786 
L 277.083286 60.187601 
L 277.065881 60.860416 
L 277.037555 61.533231 
L 277.000091 62.206047 
L 276.954374 62.878862 
L 276.900408 63.551677 
L 276.837552 64.224492 
L 276.7649 64.897308 
L 276.681708 65.570123 
L 276.587768 66.242938 
L 276.483639 66.915754 
L 276.370699 67.588569 
L 276.251016 68.261384 
L 276.12708 68.934199 
L 276.001475 69.607015 
L 275.876577 70.27983 
L 275.754322 70.952645 
L 275.636106 71.625461 
L 275.522792 72.298276 
L 275.41481 72.971091 
L 275.312321 73.643906 
L 275.215384 74.316722 
L 275.124107 74.989537 
L 275.038741 75.662352 
L 274.959703 76.335168 
L 274.887539 77.007983 
L 274.822817 77.680798 
L 274.766011 78.353613 
L 274.717378 79.026429 
L 274.676878 79.699244 
L 274.644145 80.372059 
L 274.618514 81.044875 
L 274.599096 81.71769 
L 274.599096 81.71769 
z
" clip-path="url(#pbf65521d0a)" style="fill: none; stroke: #fa8072; stroke-opacity: 0.8; stroke-width: 2"/>
   </g>
   <g id="matplotlib.axis_1">
    <g id="xtick_1">
     <g id="line2d_1">
      <defs>
       <path id="m1f31b26abd" d="M 0 0 
L 0 3.5 
" style="stroke: #000000; stroke-width: 0.8"/>
      </defs>
      <g>
       <use xlink:href="#m1f31b26abd" x="45.5335" y="109.24" style="stroke: #000000; stroke-width: 0.8"/>
      </g>
     </g>
     <g id="text_1">
      <!-- 1 -->
      <g transform="translate(43.62475 120.799063) scale(0.06 -0.06)">
       <defs>
        <path id="DejaVuSans-31" d="M 794 531 
L 1825 531 
L 1825 4091 
L 703 3866 
L 703 4441 
L 1819 4666 
L 2450 4666 
L 2450 531 
L 3481 531 
L 3481 0 
L 794 0 
L 794 531 
z
" transform="scale(0.015625)"/>
       </defs>
       <use xlink:href="#DejaVuSans-31"/>
      </g>
     </g>
    </g>
    <g id="xtick_2">
     <g id="line2d_2">
      <g>
       <use xlink:href="#m1f31b26abd" x="70.9805" y="109.24" style="stroke: #000000; stroke-width: 0.8"/>
      </g>
     </g>
     <g id="text_2">
      <!-- 2 -->
      <g transform="translate(69.07175 120.799063) scale(0.06 -0.06)">
       <defs>
        <path id="DejaVuSans-32" d="M 1228 531 
L 3431 531 
L 3431 0 
L 469 0 
L 469 531 
Q 828 903 1448 1529 
Q 2069 2156 2228 2338 
Q 2531 2678 2651 2914 
Q 2772 3150 2772 3378 
Q 2772 3750 2511 3984 
Q 2250 4219 1831 4219 
Q 1534 4219 1204 4116 
Q 875 4013 500 3803 
L 500 4441 
Q 881 4594 1212 4672 
Q 1544 4750 1819 4750 
Q 2544 4750 2975 4387 
Q 3406 4025 3406 3419 
Q 3406 3131 3298 2873 
Q 3191 2616 2906 2266 
Q 2828 2175 2409 1742 
Q 1991 1309 1228 531 
z
" transform="scale(0.015625)"/>
       </defs>
       <use xlink:href="#DejaVuSans-32"/>
      </g>
     </g>
    </g>
    <g id="xtick_3">
     <g id="line2d_3">
      <g>
       <use xlink:href="#m1f31b26abd" x="96.4275" y="109.24" style="stroke: #000000; stroke-width: 0.8"/>
      </g>
     </g>
     <g id="text_3">
      <!-- 3 -->
      <g transform="translate(94.51875 120.799063) scale(0.06 -0.06)">
       <defs>
        <path id="DejaVuSans-33" d="M 2597 2516 
Q 3050 2419 3304 2112 
Q 3559 1806 3559 1356 
Q 3559 666 3084 287 
Q 2609 -91 1734 -91 
Q 1441 -91 1130 -33 
Q 819 25 488 141 
L 488 750 
Q 750 597 1062 519 
Q 1375 441 1716 441 
Q 2309 441 2620 675 
Q 2931 909 2931 1356 
Q 2931 1769 2642 2001 
Q 2353 2234 1838 2234 
L 1294 2234 
L 1294 2753 
L 1863 2753 
Q 2328 2753 2575 2939 
Q 2822 3125 2822 3475 
Q 2822 3834 2567 4026 
Q 2313 4219 1838 4219 
Q 1578 4219 1281 4162 
Q 984 4106 628 3988 
L 628 4550 
Q 988 4650 1302 4700 
Q 1616 4750 1894 4750 
Q 2613 4750 3031 4423 
Q 3450 4097 3450 3541 
Q 3450 3153 3228 2886 
Q 3006 2619 2597 2516 
z
" transform="scale(0.015625)"/>
       </defs>
       <use xlink:href="#DejaVuSans-33"/>
      </g>
     </g>
    </g>
    <g id="xtick_4">
     <g id="line2d_4">
      <g>
       <use xlink:href="#m1f31b26abd" x="121.8745" y="109.24" style="stroke: #000000; stroke-width: 0.8"/>
      </g>
     </g>
     <g id="text_4">
      <!-- 4 -->
      <g transform="translate(119.96575 120.799063) scale(0.06 -0.06)">
       <defs>
        <path id="DejaVuSans-34" d="M 2419 4116 
L 825 1625 
L 2419 1625 
L 2419 4116 
z
M 2253 4666 
L 3047 4666 
L 3047 1625 
L 3713 1625 
L 3713 1100 
L 3047 1100 
L 3047 0 
L 2419 0 
L 2419 1100 
L 313 1100 
L 313 1709 
L 2253 4666 
z
" transform="scale(0.015625)"/>
       </defs>
       <use xlink:href="#DejaVuSans-34"/>
      </g>
     </g>
    </g>
    <g id="xtick_5">
     <g id="line2d_5">
      <g>
       <use xlink:href="#m1f31b26abd" x="147.3215" y="109.24" style="stroke: #000000; stroke-width: 0.8"/>
      </g>
     </g>
     <g id="text_5">
      <!-- 5 -->
      <g transform="translate(145.41275 120.799063) scale(0.06 -0.06)">
       <defs>
        <path id="DejaVuSans-35" d="M 691 4666 
L 3169 4666 
L 3169 4134 
L 1269 4134 
L 1269 2991 
Q 1406 3038 1543 3061 
Q 1681 3084 1819 3084 
Q 2600 3084 3056 2656 
Q 3513 2228 3513 1497 
Q 3513 744 3044 326 
Q 2575 -91 1722 -91 
Q 1428 -91 1123 -41 
Q 819 9 494 109 
L 494 744 
Q 775 591 1075 516 
Q 1375 441 1709 441 
Q 2250 441 2565 725 
Q 2881 1009 2881 1497 
Q 2881 1984 2565 2268 
Q 2250 2553 1709 2553 
Q 1456 2553 1204 2497 
Q 953 2441 691 2322 
L 691 4666 
z
" transform="scale(0.015625)"/>
       </defs>
       <use xlink:href="#DejaVuSans-35"/>
      </g>
     </g>
    </g>
    <g id="xtick_6">
     <g id="line2d_6">
      <g>
       <use xlink:href="#m1f31b26abd" x="172.7685" y="109.24" style="stroke: #000000; stroke-width: 0.8"/>
      </g>
     </g>
     <g id="text_6">
      <!-- 6 -->
      <g transform="translate(170.85975 120.799063) scale(0.06 -0.06)">
       <defs>
        <path id="DejaVuSans-36" d="M 2113 2584 
Q 1688 2584 1439 2293 
Q 1191 2003 1191 1497 
Q 1191 994 1439 701 
Q 1688 409 2113 409 
Q 2538 409 2786 701 
Q 3034 994 3034 1497 
Q 3034 2003 2786 2293 
Q 2538 2584 2113 2584 
z
M 3366 4563 
L 3366 3988 
Q 3128 4100 2886 4159 
Q 2644 4219 2406 4219 
Q 1781 4219 1451 3797 
Q 1122 3375 1075 2522 
Q 1259 2794 1537 2939 
Q 1816 3084 2150 3084 
Q 2853 3084 3261 2657 
Q 3669 2231 3669 1497 
Q 3669 778 3244 343 
Q 2819 -91 2113 -91 
Q 1303 -91 875 529 
Q 447 1150 447 2328 
Q 447 3434 972 4092 
Q 1497 4750 2381 4750 
Q 2619 4750 2861 4703 
Q 3103 4656 3366 4563 
z
" transform="scale(0.015625)"/>
       </defs>
       <use xlink:href="#DejaVuSans-36"/>
      </g>
     </g>
    </g>
    <g id="xtick_7">
     <g id="line2d_7">
      <g>
       <use xlink:href="#m1f31b26abd" x="198.2155" y="109.24" style="stroke: #000000; stroke-width: 0.8"/>
      </g>
     </g>
     <g id="text_7">
      <!-- 7 -->
      <g transform="translate(196.30675 120.799063) scale(0.06 -0.06)">
       <defs>
        <path id="DejaVuSans-37" d="M 525 4666 
L 3525 4666 
L 3525 4397 
L 1831 0 
L 1172 0 
L 2766 4134 
L 525 4134 
L 525 4666 
z
" transform="scale(0.015625)"/>
       </defs>
       <use xlink:href="#DejaVuSans-37"/>
      </g>
     </g>
    </g>
    <g id="xtick_8">
     <g id="line2d_8">
      <g>
       <use xlink:href="#m1f31b26abd" x="223.6625" y="109.24" style="stroke: #000000; stroke-width: 0.8"/>
      </g>
     </g>
     <g id="text_8">
      <!-- 8 -->
      <g transform="translate(221.75375 120.799063) scale(0.06 -0.06)">
       <defs>
        <path id="DejaVuSans-38" d="M 2034 2216 
Q 1584 2216 1326 1975 
Q 1069 1734 1069 1313 
Q 1069 891 1326 650 
Q 1584 409 2034 409 
Q 2484 409 2743 651 
Q 3003 894 3003 1313 
Q 3003 1734 2745 1975 
Q 2488 2216 2034 2216 
z
M 1403 2484 
Q 997 2584 770 2862 
Q 544 3141 544 3541 
Q 544 4100 942 4425 
Q 1341 4750 2034 4750 
Q 2731 4750 3128 4425 
Q 3525 4100 3525 3541 
Q 3525 3141 3298 2862 
Q 3072 2584 2669 2484 
Q 3125 2378 3379 2068 
Q 3634 1759 3634 1313 
Q 3634 634 3220 271 
Q 2806 -91 2034 -91 
Q 1263 -91 848 271 
Q 434 634 434 1313 
Q 434 1759 690 2068 
Q 947 2378 1403 2484 
z
M 1172 3481 
Q 1172 3119 1398 2916 
Q 1625 2713 2034 2713 
Q 2441 2713 2670 2916 
Q 2900 3119 2900 3481 
Q 2900 3844 2670 4047 
Q 2441 4250 2034 4250 
Q 1625 4250 1398 4047 
Q 1172 3844 1172 3481 
z
" transform="scale(0.015625)"/>
       </defs>
       <use xlink:href="#DejaVuSans-38"/>
      </g>
     </g>
    </g>
    <g id="xtick_9">
     <g id="line2d_9">
      <g>
       <use xlink:href="#m1f31b26abd" x="249.1095" y="109.24" style="stroke: #000000; stroke-width: 0.8"/>
      </g>
     </g>
     <g id="text_9">
      <!-- 9 -->
      <g transform="translate(247.20075 120.799063) scale(0.06 -0.06)">
       <defs>
        <path id="DejaVuSans-39" d="M 703 97 
L 703 672 
Q 941 559 1184 500 
Q 1428 441 1663 441 
Q 2288 441 2617 861 
Q 2947 1281 2994 2138 
Q 2813 1869 2534 1725 
Q 2256 1581 1919 1581 
Q 1219 1581 811 2004 
Q 403 2428 403 3163 
Q 403 3881 828 4315 
Q 1253 4750 1959 4750 
Q 2769 4750 3195 4129 
Q 3622 3509 3622 2328 
Q 3622 1225 3098 567 
Q 2575 -91 1691 -91 
Q 1453 -91 1209 -44 
Q 966 3 703 97 
z
M 1959 2075 
Q 2384 2075 2632 2365 
Q 2881 2656 2881 3163 
Q 2881 3666 2632 3958 
Q 2384 4250 1959 4250 
Q 1534 4250 1286 3958 
Q 1038 3666 1038 3163 
Q 1038 2656 1286 2365 
Q 1534 2075 1959 2075 
z
" transform="scale(0.015625)"/>
       </defs>
       <use xlink:href="#DejaVuSans-39"/>
      </g>
     </g>
    </g>
    <g id="xtick_10">
     <g id="line2d_10">
      <g>
       <use xlink:href="#m1f31b26abd" x="274.5565" y="109.24" style="stroke: #000000; stroke-width: 0.8"/>
      </g>
     </g>
     <g id="text_10">
      <!-- 10 -->
      <g transform="translate(270.739 120.799063) scale(0.06 -0.06)">
       <defs>
        <path id="DejaVuSans-30" d="M 2034 4250 
Q 1547 4250 1301 3770 
Q 1056 3291 1056 2328 
Q 1056 1369 1301 889 
Q 1547 409 2034 409 
Q 2525 409 2770 889 
Q 3016 1369 3016 2328 
Q 3016 3291 2770 3770 
Q 2525 4250 2034 4250 
z
M 2034 4750 
Q 2819 4750 3233 4129 
Q 3647 3509 3647 2328 
Q 3647 1150 3233 529 
Q 2819 -91 2034 -91 
Q 1250 -91 836 529 
Q 422 1150 422 2328 
Q 422 3509 836 4129 
Q 1250 4750 2034 4750 
z
" transform="scale(0.015625)"/>
       </defs>
       <use xlink:href="#DejaVuSans-31"/>
       <use xlink:href="#DejaVuSans-30" x="63.623047"/>
      </g>
     </g>
    </g>
    <g id="text_11">
     <!-- Number of Mice in Treatment Group -->
     <g transform="translate(106.289219 130.605938) scale(0.06 -0.06)">
      <defs>
       <path id="DejaVuSans-4e" d="M 628 4666 
L 1478 4666 
L 3547 763 
L 3547 4666 
L 4159 4666 
L 4159 0 
L 3309 0 
L 1241 3903 
L 1241 0 
L 628 0 
L 628 4666 
z
" transform="scale(0.015625)"/>
       <path id="DejaVuSans-75" d="M 544 1381 
L 544 3500 
L 1119 3500 
L 1119 1403 
Q 1119 906 1312 657 
Q 1506 409 1894 409 
Q 2359 409 2629 706 
Q 2900 1003 2900 1516 
L 2900 3500 
L 3475 3500 
L 3475 0 
L 2900 0 
L 2900 538 
Q 2691 219 2414 64 
Q 2138 -91 1772 -91 
Q 1169 -91 856 284 
Q 544 659 544 1381 
z
M 1991 3584 
L 1991 3584 
z
" transform="scale(0.015625)"/>
       <path id="DejaVuSans-6d" d="M 3328 2828 
Q 3544 3216 3844 3400 
Q 4144 3584 4550 3584 
Q 5097 3584 5394 3201 
Q 5691 2819 5691 2113 
L 5691 0 
L 5113 0 
L 5113 2094 
Q 5113 2597 4934 2840 
Q 4756 3084 4391 3084 
Q 3944 3084 3684 2787 
Q 3425 2491 3425 1978 
L 3425 0 
L 2847 0 
L 2847 2094 
Q 2847 2600 2669 2842 
Q 2491 3084 2119 3084 
Q 1678 3084 1418 2786 
Q 1159 2488 1159 1978 
L 1159 0 
L 581 0 
L 581 3500 
L 1159 3500 
L 1159 2956 
Q 1356 3278 1631 3431 
Q 1906 3584 2284 3584 
Q 2666 3584 2933 3390 
Q 3200 3197 3328 2828 
z
" transform="scale(0.015625)"/>
       <path id="DejaVuSans-62" d="M 3116 1747 
Q 3116 2381 2855 2742 
Q 2594 3103 2138 3103 
Q 1681 3103 1420 2742 
Q 1159 2381 1159 1747 
Q 1159 1113 1420 752 
Q 1681 391 2138 391 
Q 2594 391 2855 752 
Q 3116 1113 3116 1747 
z
M 1159 2969 
Q 1341 3281 1617 3432 
Q 1894 3584 2278 3584 
Q 2916 3584 3314 3078 
Q 3713 2572 3713 1747 
Q 3713 922 3314 415 
Q 2916 -91 2278 -91 
Q 1894 -91 1617 61 
Q 1341 213 1159 525 
L 1159 0 
L 581 0 
L 581 4863 
L 1159 4863 
L 1159 2969 
z
" transform="scale(0.015625)"/>
       <path id="DejaVuSans-65" d="M 3597 1894 
L 3597 1613 
L 953 1613 
Q 991 1019 1311 708 
Q 1631 397 2203 397 
Q 2534 397 2845 478 
Q 3156 559 3463 722 
L 3463 178 
Q 3153 47 2828 -22 
Q 2503 -91 2169 -91 
Q 1331 -91 842 396 
Q 353 884 353 1716 
Q 353 2575 817 3079 
Q 1281 3584 2069 3584 
Q 2775 3584 3186 3129 
Q 3597 2675 3597 1894 
z
M 3022 2063 
Q 3016 2534 2758 2815 
Q 2500 3097 2075 3097 
Q 1594 3097 1305 2825 
Q 1016 2553 972 2059 
L 3022 2063 
z
" transform="scale(0.015625)"/>
       <path id="DejaVuSans-72" d="M 2631 2963 
Q 2534 3019 2420 3045 
Q 2306 3072 2169 3072 
Q 1681 3072 1420 2755 
Q 1159 2438 1159 1844 
L 1159 0 
L 581 0 
L 581 3500 
L 1159 3500 
L 1159 2956 
Q 1341 3275 1631 3429 
Q 1922 3584 2338 3584 
Q 2397 3584 2469 3576 
Q 2541 3569 2628 3553 
L 2631 2963 
z
" transform="scale(0.015625)"/>
       <path id="DejaVuSans-20" transform="scale(0.015625)"/>
       <path id="DejaVuSans-6f" d="M 1959 3097 
Q 1497 3097 1228 2736 
Q 959 2375 959 1747 
Q 959 1119 1226 758 
Q 1494 397 1959 397 
Q 2419 397 2687 759 
Q 2956 1122 2956 1747 
Q 2956 2369 2687 2733 
Q 2419 3097 1959 3097 
z
M 1959 3584 
Q 2709 3584 3137 3096 
Q 3566 2609 3566 1747 
Q 3566 888 3137 398 
Q 2709 -91 1959 -91 
Q 1206 -91 779 398 
Q 353 888 353 1747 
Q 353 2609 779 3096 
Q 1206 3584 1959 3584 
z
" transform="scale(0.015625)"/>
       <path id="DejaVuSans-66" d="M 2375 4863 
L 2375 4384 
L 1825 4384 
Q 1516 4384 1395 4259 
Q 1275 4134 1275 3809 
L 1275 3500 
L 2222 3500 
L 2222 3053 
L 1275 3053 
L 1275 0 
L 697 0 
L 697 3053 
L 147 3053 
L 147 3500 
L 697 3500 
L 697 3744 
Q 697 4328 969 4595 
Q 1241 4863 1831 4863 
L 2375 4863 
z
" transform="scale(0.015625)"/>
       <path id="DejaVuSans-4d" d="M 628 4666 
L 1569 4666 
L 2759 1491 
L 3956 4666 
L 4897 4666 
L 4897 0 
L 4281 0 
L 4281 4097 
L 3078 897 
L 2444 897 
L 1241 4097 
L 1241 0 
L 628 0 
L 628 4666 
z
" transform="scale(0.015625)"/>
       <path id="DejaVuSans-69" d="M 603 3500 
L 1178 3500 
L 1178 0 
L 603 0 
L 603 3500 
z
M 603 4863 
L 1178 4863 
L 1178 4134 
L 603 4134 
L 603 4863 
z
" transform="scale(0.015625)"/>
       <path id="DejaVuSans-63" d="M 3122 3366 
L 3122 2828 
Q 2878 2963 2633 3030 
Q 2388 3097 2138 3097 
Q 1578 3097 1268 2742 
Q 959 2388 959 1747 
Q 959 1106 1268 751 
Q 1578 397 2138 397 
Q 2388 397 2633 464 
Q 2878 531 3122 666 
L 3122 134 
Q 2881 22 2623 -34 
Q 2366 -91 2075 -91 
Q 1284 -91 818 406 
Q 353 903 353 1747 
Q 353 2603 823 3093 
Q 1294 3584 2113 3584 
Q 2378 3584 2631 3529 
Q 2884 3475 3122 3366 
z
" transform="scale(0.015625)"/>
       <path id="DejaVuSans-6e" d="M 3513 2113 
L 3513 0 
L 2938 0 
L 2938 2094 
Q 2938 2591 2744 2837 
Q 2550 3084 2163 3084 
Q 1697 3084 1428 2787 
Q 1159 2491 1159 1978 
L 1159 0 
L 581 0 
L 581 3500 
L 1159 3500 
L 1159 2956 
Q 1366 3272 1645 3428 
Q 1925 3584 2291 3584 
Q 2894 3584 3203 3211 
Q 3513 2838 3513 2113 
z
" transform="scale(0.015625)"/>
       <path id="DejaVuSans-54" d="M -19 4666 
L 3928 4666 
L 3928 4134 
L 2272 4134 
L 2272 0 
L 1638 0 
L 1638 4134 
L -19 4134 
L -19 4666 
z
" transform="scale(0.015625)"/>
       <path id="DejaVuSans-61" d="M 2194 1759 
Q 1497 1759 1228 1600 
Q 959 1441 959 1056 
Q 959 750 1161 570 
Q 1363 391 1709 391 
Q 2188 391 2477 730 
Q 2766 1069 2766 1631 
L 2766 1759 
L 2194 1759 
z
M 3341 1997 
L 3341 0 
L 2766 0 
L 2766 531 
Q 2569 213 2275 61 
Q 1981 -91 1556 -91 
Q 1019 -91 701 211 
Q 384 513 384 1019 
Q 384 1609 779 1909 
Q 1175 2209 1959 2209 
L 2766 2209 
L 2766 2266 
Q 2766 2663 2505 2880 
Q 2244 3097 1772 3097 
Q 1472 3097 1187 3025 
Q 903 2953 641 2809 
L 641 3341 
Q 956 3463 1253 3523 
Q 1550 3584 1831 3584 
Q 2591 3584 2966 3190 
Q 3341 2797 3341 1997 
z
" transform="scale(0.015625)"/>
       <path id="DejaVuSans-74" d="M 1172 4494 
L 1172 3500 
L 2356 3500 
L 2356 3053 
L 1172 3053 
L 1172 1153 
Q 1172 725 1289 603 
Q 1406 481 1766 481 
L 2356 481 
L 2356 0 
L 1766 0 
Q 1100 0 847 248 
Q 594 497 594 1153 
L 594 3053 
L 172 3053 
L 172 3500 
L 594 3500 
L 594 4494 
L 1172 4494 
z
" transform="scale(0.015625)"/>
       <path id="DejaVuSans-47" d="M 3809 666 
L 3809 1919 
L 2778 1919 
L 2778 2438 
L 4434 2438 
L 4434 434 
Q 4069 175 3628 42 
Q 3188 -91 2688 -91 
Q 1594 -91 976 548 
Q 359 1188 359 2328 
Q 359 3472 976 4111 
Q 1594 4750 2688 4750 
Q 3144 4750 3555 4637 
Q 3966 4525 4313 4306 
L 4313 3634 
Q 3963 3931 3569 4081 
Q 3175 4231 2741 4231 
Q 1884 4231 1454 3753 
Q 1025 3275 1025 2328 
Q 1025 1384 1454 906 
Q 1884 428 2741 428 
Q 3075 428 3337 486 
Q 3600 544 3809 666 
z
" transform="scale(0.015625)"/>
       <path id="DejaVuSans-70" d="M 1159 525 
L 1159 -1331 
L 581 -1331 
L 581 3500 
L 1159 3500 
L 1159 2969 
Q 1341 3281 1617 3432 
Q 1894 3584 2278 3584 
Q 2916 3584 3314 3078 
Q 3713 2572 3713 1747 
Q 3713 922 3314 415 
Q 2916 -91 2278 -91 
Q 1894 -91 1617 61 
Q 1341 213 1159 525 
z
M 3116 1747 
Q 3116 2381 2855 2742 
Q 2594 3103 2138 3103 
Q 1681 3103 1420 2742 
Q 1159 2381 1159 1747 
Q 1159 1113 1420 752 
Q 1681 391 2138 391 
Q 2594 391 2855 752 
Q 3116 1113 3116 1747 
z
" transform="scale(0.015625)"/>
      </defs>
      <use xlink:href="#DejaVuSans-4e"/>
      <use xlink:href="#DejaVuSans-75" x="74.804688"/>
      <use xlink:href="#DejaVuSans-6d" x="138.183594"/>
      <use xlink:href="#DejaVuSans-62" x="235.595703"/>
      <use xlink:href="#DejaVuSans-65" x="299.072266"/>
      <use xlink:href="#DejaVuSans-72" x="360.595703"/>
      <use xlink:href="#DejaVuSans-20" x="401.708984"/>
      <use xlink:href="#DejaVuSans-6f" x="433.496094"/>
      <use xlink:href="#DejaVuSans-66" x="494.677734"/>
      <use xlink:href="#DejaVuSans-20" x="529.882812"/>
      <use xlink:href="#DejaVuSans-4d" x="561.669922"/>
      <use xlink:href="#DejaVuSans-69" x="647.949219"/>
      <use xlink:href="#DejaVuSans-63" x="675.732422"/>
      <use xlink:href="#DejaVuSans-65" x="730.712891"/>
      <use xlink:href="#DejaVuSans-20" x="792.236328"/>
      <use xlink:href="#DejaVuSans-69" x="824.023438"/>
      <use xlink:href="#DejaVuSans-6e" x="851.806641"/>
      <use xlink:href="#DejaVuSans-20" x="915.185547"/>
      <use xlink:href="#DejaVuSans-54" x="946.972656"/>
      <use xlink:href="#DejaVuSans-72" x="993.306641"/>
      <use xlink:href="#DejaVuSans-65" x="1032.169922"/>
      <use xlink:href="#DejaVuSans-61" x="1093.693359"/>
      <use xlink:href="#DejaVuSans-74" x="1154.972656"/>
      <use xlink:href="#DejaVuSans-6d" x="1194.181641"/>
      <use xlink:href="#DejaVuSans-65" x="1291.59375"/>
      <use xlink:href="#DejaVuSans-6e" x="1353.117188"/>
      <use xlink:href="#DejaVuSans-74" x="1416.496094"/>
      <use xlink:href="#DejaVuSans-20" x="1455.705078"/>
      <use xlink:href="#DejaVuSans-47" x="1487.492188"/>
      <use xlink:href="#DejaVuSans-72" x="1564.982422"/>
      <use xlink:href="#DejaVuSans-6f" x="1603.845703"/>
      <use xlink:href="#DejaVuSans-75" x="1665.027344"/>
      <use xlink:href="#DejaVuSans-70" x="1728.40625"/>
     </g>
    </g>
   </g>
   <g id="matplotlib.axis_2">
    <g id="ytick_1">
     <g id="line2d_11">
      <path d="M 32.81 109.24 
L 287.28 109.24 
" clip-path="url(#pbf65521d0a)" style="fill: none; stroke-dasharray: 2.96,1.28; stroke-dashoffset: 0; stroke: #000000; stroke-opacity: 0.3; stroke-width: 0.8"/>
     </g>
     <g id="line2d_12">
      <defs>
       <path id="m34e03de450" d="M 0 0 
L -3.5 0 
" style="stroke: #000000; stroke-width: 0.8"/>
      </defs>
      <g>
       <use xlink:href="#m34e03de450" x="32.81" y="109.24" style="stroke: #000000; stroke-width: 0.8"/>
      </g>
     </g>
     <g id="text_12">
      <!-- 0.0 -->
      <g transform="translate(16.268125 111.519531) scale(0.06 -0.06)">
       <defs>
        <path id="DejaVuSans-2e" d="M 684 794 
L 1344 794 
L 1344 0 
L 684 0 
L 684 794 
z
" transform="scale(0.015625)"/>
       </defs>
       <use xlink:href="#DejaVuSans-30"/>
       <use xlink:href="#DejaVuSans-2e" x="63.623047"/>
       <use xlink:href="#DejaVuSans-30" x="95.410156"/>
      </g>
     </g>
    </g>
    <g id="ytick_2">
     <g id="line2d_13">
      <path d="M 32.81 90.992 
L 287.28 90.992 
" clip-path="url(#pbf65521d0a)" style="fill: none; stroke-dasharray: 2.96,1.28; stroke-dashoffset: 0; stroke: #000000; stroke-opacity: 0.3; stroke-width: 0.8"/>
     </g>
     <g id="line2d_14">
      <g>
       <use xlink:href="#m34e03de450" x="32.81" y="90.992" style="stroke: #000000; stroke-width: 0.8"/>
      </g>
     </g>
     <g id="text_13">
      <!-- 0.2 -->
      <g transform="translate(16.268125 93.271531) scale(0.06 -0.06)">
       <use xlink:href="#DejaVuSans-30"/>
       <use xlink:href="#DejaVuSans-2e" x="63.623047"/>
       <use xlink:href="#DejaVuSans-32" x="95.410156"/>
      </g>
     </g>
    </g>
    <g id="ytick_3">
     <g id="line2d_15">
      <path d="M 32.81 72.744 
L 287.28 72.744 
" clip-path="url(#pbf65521d0a)" style="fill: none; stroke-dasharray: 2.96,1.28; stroke-dashoffset: 0; stroke: #000000; stroke-opacity: 0.3; stroke-width: 0.8"/>
     </g>
     <g id="line2d_16">
      <g>
       <use xlink:href="#m34e03de450" x="32.81" y="72.744" style="stroke: #000000; stroke-width: 0.8"/>
      </g>
     </g>
     <g id="text_14">
      <!-- 0.4 -->
      <g transform="translate(16.268125 75.023531) scale(0.06 -0.06)">
       <use xlink:href="#DejaVuSans-30"/>
       <use xlink:href="#DejaVuSans-2e" x="63.623047"/>
       <use xlink:href="#DejaVuSans-34" x="95.410156"/>
      </g>
     </g>
    </g>
    <g id="ytick_4">
     <g id="line2d_17">
      <path d="M 32.81 54.496 
L 287.28 54.496 
" clip-path="url(#pbf65521d0a)" style="fill: none; stroke-dasharray: 2.96,1.28; stroke-dashoffset: 0; stroke: #000000; stroke-opacity: 0.3; stroke-width: 0.8"/>
     </g>
     <g id="line2d_18">
      <g>
       <use xlink:href="#m34e03de450" x="32.81" y="54.496" style="stroke: #000000; stroke-width: 0.8"/>
      </g>
     </g>
     <g id="text_15">
      <!-- 0.6 -->
      <g transform="translate(16.268125 56.775531) scale(0.06 -0.06)">
       <use xlink:href="#DejaVuSans-30"/>
       <use xlink:href="#DejaVuSans-2e" x="63.623047"/>
       <use xlink:href="#DejaVuSans-36" x="95.410156"/>
      </g>
     </g>
    </g>
    <g id="ytick_5">
     <g id="line2d_19">
      <path d="M 32.81 36.248 
L 287.28 36.248 
" clip-path="url(#pbf65521d0a)" style="fill: none; stroke-dasharray: 2.96,1.28; stroke-dashoffset: 0; stroke: #000000; stroke-opacity: 0.3; stroke-width: 0.8"/>
     </g>
     <g id="line2d_20">
      <g>
       <use xlink:href="#m34e03de450" x="32.81" y="36.248" style="stroke: #000000; stroke-width: 0.8"/>
      </g>
     </g>
     <g id="text_16">
      <!-- 0.8 -->
      <g transform="translate(16.268125 38.527531) scale(0.06 -0.06)">
       <use xlink:href="#DejaVuSans-30"/>
       <use xlink:href="#DejaVuSans-2e" x="63.623047"/>
       <use xlink:href="#DejaVuSans-38" x="95.410156"/>
      </g>
     </g>
    </g>
    <g id="ytick_6">
     <g id="line2d_21">
      <path d="M 32.81 18 
L 287.28 18 
" clip-path="url(#pbf65521d0a)" style="fill: none; stroke-dasharray: 2.96,1.28; stroke-dashoffset: 0; stroke: #000000; stroke-opacity: 0.3; stroke-width: 0.8"/>
     </g>
     <g id="line2d_22">
      <g>
       <use xlink:href="#m34e03de450" x="32.81" y="18" style="stroke: #000000; stroke-width: 0.8"/>
      </g>
     </g>
     <g id="text_17">
      <!-- 1.0 -->
      <g transform="translate(16.268125 20.279531) scale(0.06 -0.06)">
       <use xlink:href="#DejaVuSans-31"/>
       <use xlink:href="#DejaVuSans-2e" x="63.623047"/>
       <use xlink:href="#DejaVuSans-30" x="95.410156"/>
      </g>
     </g>
    </g>
    <g id="text_18">
     <!-- Fraction of Overlapping Hits -->
     <g transform="translate(11.020313 105.512656) rotate(-90) scale(0.06 -0.06)">
      <defs>
       <path id="DejaVuSans-46" d="M 628 4666 
L 3309 4666 
L 3309 4134 
L 1259 4134 
L 1259 2759 
L 3109 2759 
L 3109 2228 
L 1259 2228 
L 1259 0 
L 628 0 
L 628 4666 
z
" transform="scale(0.015625)"/>
       <path id="DejaVuSans-4f" d="M 2522 4238 
Q 1834 4238 1429 3725 
Q 1025 3213 1025 2328 
Q 1025 1447 1429 934 
Q 1834 422 2522 422 
Q 3209 422 3611 934 
Q 4013 1447 4013 2328 
Q 4013 3213 3611 3725 
Q 3209 4238 2522 4238 
z
M 2522 4750 
Q 3503 4750 4090 4092 
Q 4678 3434 4678 2328 
Q 4678 1225 4090 567 
Q 3503 -91 2522 -91 
Q 1538 -91 948 565 
Q 359 1222 359 2328 
Q 359 3434 948 4092 
Q 1538 4750 2522 4750 
z
" transform="scale(0.015625)"/>
       <path id="DejaVuSans-76" d="M 191 3500 
L 800 3500 
L 1894 563 
L 2988 3500 
L 3597 3500 
L 2284 0 
L 1503 0 
L 191 3500 
z
" transform="scale(0.015625)"/>
       <path id="DejaVuSans-6c" d="M 603 4863 
L 1178 4863 
L 1178 0 
L 603 0 
L 603 4863 
z
" transform="scale(0.015625)"/>
       <path id="DejaVuSans-67" d="M 2906 1791 
Q 2906 2416 2648 2759 
Q 2391 3103 1925 3103 
Q 1463 3103 1205 2759 
Q 947 2416 947 1791 
Q 947 1169 1205 825 
Q 1463 481 1925 481 
Q 2391 481 2648 825 
Q 2906 1169 2906 1791 
z
M 3481 434 
Q 3481 -459 3084 -895 
Q 2688 -1331 1869 -1331 
Q 1566 -1331 1297 -1286 
Q 1028 -1241 775 -1147 
L 775 -588 
Q 1028 -725 1275 -790 
Q 1522 -856 1778 -856 
Q 2344 -856 2625 -561 
Q 2906 -266 2906 331 
L 2906 616 
Q 2728 306 2450 153 
Q 2172 0 1784 0 
Q 1141 0 747 490 
Q 353 981 353 1791 
Q 353 2603 747 3093 
Q 1141 3584 1784 3584 
Q 2172 3584 2450 3431 
Q 2728 3278 2906 2969 
L 2906 3500 
L 3481 3500 
L 3481 434 
z
" transform="scale(0.015625)"/>
       <path id="DejaVuSans-48" d="M 628 4666 
L 1259 4666 
L 1259 2753 
L 3553 2753 
L 3553 4666 
L 4184 4666 
L 4184 0 
L 3553 0 
L 3553 2222 
L 1259 2222 
L 1259 0 
L 628 0 
L 628 4666 
z
" transform="scale(0.015625)"/>
       <path id="DejaVuSans-73" d="M 2834 3397 
L 2834 2853 
Q 2591 2978 2328 3040 
Q 2066 3103 1784 3103 
Q 1356 3103 1142 2972 
Q 928 2841 928 2578 
Q 928 2378 1081 2264 
Q 1234 2150 1697 2047 
L 1894 2003 
Q 2506 1872 2764 1633 
Q 3022 1394 3022 966 
Q 3022 478 2636 193 
Q 2250 -91 1575 -91 
Q 1294 -91 989 -36 
Q 684 19 347 128 
L 347 722 
Q 666 556 975 473 
Q 1284 391 1588 391 
Q 1994 391 2212 530 
Q 2431 669 2431 922 
Q 2431 1156 2273 1281 
Q 2116 1406 1581 1522 
L 1381 1569 
Q 847 1681 609 1914 
Q 372 2147 372 2553 
Q 372 3047 722 3315 
Q 1072 3584 1716 3584 
Q 2034 3584 2315 3537 
Q 2597 3491 2834 3397 
z
" transform="scale(0.015625)"/>
      </defs>
      <use xlink:href="#DejaVuSans-46"/>
      <use xlink:href="#DejaVuSans-72" x="50.269531"/>
      <use xlink:href="#DejaVuSans-61" x="91.382812"/>
      <use xlink:href="#DejaVuSans-63" x="152.662109"/>
      <use xlink:href="#DejaVuSans-74" x="207.642578"/>
      <use xlink:href="#DejaVuSans-69" x="246.851562"/>
      <use xlink:href="#DejaVuSans-6f" x="274.634766"/>
      <use xlink:href="#DejaVuSans-6e" x="335.816406"/>
      <use xlink:href="#DejaVuSans-20" x="399.195312"/>
      <use xlink:href="#DejaVuSans-6f" x="430.982422"/>
      <use xlink:href="#DejaVuSans-66" x="492.164062"/>
      <use xlink:href="#DejaVuSans-20" x="527.369141"/>
      <use xlink:href="#DejaVuSans-4f" x="559.15625"/>
      <use xlink:href="#DejaVuSans-76" x="637.867188"/>
      <use xlink:href="#DejaVuSans-65" x="697.046875"/>
      <use xlink:href="#DejaVuSans-72" x="758.570312"/>
      <use xlink:href="#DejaVuSans-6c" x="799.683594"/>
      <use xlink:href="#DejaVuSans-61" x="827.466797"/>
      <use xlink:href="#DejaVuSans-70" x="888.746094"/>
      <use xlink:href="#DejaVuSans-70" x="952.222656"/>
      <use xlink:href="#DejaVuSans-69" x="1015.699219"/>
      <use xlink:href="#DejaVuSans-6e" x="1043.482422"/>
      <use xlink:href="#DejaVuSans-67" x="1106.861328"/>
      <use xlink:href="#DejaVuSans-20" x="1170.337891"/>
      <use xlink:href="#DejaVuSans-48" x="1202.125"/>
      <use xlink:href="#DejaVuSans-69" x="1277.320312"/>
      <use xlink:href="#DejaVuSans-74" x="1305.103516"/>
      <use xlink:href="#DejaVuSans-73" x="1344.3125"/>
     </g>
    </g>
   </g>
   <g id="line2d_23">
    <path d="M 45.5335 109.24 
L 45.5335 83.171429 
" clip-path="url(#pbf65521d0a)" style="fill: none; stroke: #1a1a1a; stroke-linecap: square"/>
   </g>
   <g id="line2d_24">
    <path d="M 45.5335 104.895238 
L 45.5335 83.171429 
" clip-path="url(#pbf65521d0a)" style="fill: none; stroke: #1a1a1a; stroke-width: 2; stroke-linecap: square"/>
   </g>
   <g id="line2d_25">
    <path d="M 45.5335 83.171429 
" clip-path="url(#pbf65521d0a)" style="fill: none; stroke: #fa8072; stroke-width: 1.5; stroke-linecap: square"/>
    <defs>
     <path id="me201da86df" d="M 0.833333 0 
L -0.833333 -0 
" style="stroke: #ffffff; stroke-width: 0.4"/>
    </defs>
    <g clip-path="url(#pbf65521d0a)">
     <use xlink:href="#me201da86df" x="45.5335" y="83.171429" style="fill: #ffffff; stroke: #ffffff; stroke-width: 0.4"/>
    </g>
   </g>
   <g id="line2d_26">
    <path d="M 70.9805 104.895238 
L 70.9805 48.413333 
" clip-path="url(#pbf65521d0a)" style="fill: none; stroke: #1a1a1a; stroke-linecap: square"/>
   </g>
   <g id="line2d_27">
    <path d="M 70.9805 100.550476 
L 70.9805 65.792381 
" clip-path="url(#pbf65521d0a)" style="fill: none; stroke: #1a1a1a; stroke-width: 2; stroke-linecap: square"/>
   </g>
   <g id="line2d_28">
    <path d="M 70.9805 83.171429 
" clip-path="url(#pbf65521d0a)" style="fill: none; stroke: #fa8072; stroke-width: 1.5; stroke-linecap: square"/>
    <g clip-path="url(#pbf65521d0a)">
     <use xlink:href="#me201da86df" x="70.9805" y="83.171429" style="fill: #ffffff; stroke: #ffffff; stroke-width: 0.4"/>
    </g>
   </g>
   <g id="line2d_29">
    <path d="M 96.4275 104.895238 
L 96.4275 48.413333 
" clip-path="url(#pbf65521d0a)" style="fill: none; stroke: #1a1a1a; stroke-linecap: square"/>
   </g>
   <g id="line2d_30">
    <path d="M 96.4275 87.51619 
L 96.4275 65.792381 
" clip-path="url(#pbf65521d0a)" style="fill: none; stroke: #1a1a1a; stroke-width: 2; stroke-linecap: square"/>
   </g>
   <g id="line2d_31">
    <path d="M 96.4275 83.171429 
" clip-path="url(#pbf65521d0a)" style="fill: none; stroke: #fa8072; stroke-width: 1.5; stroke-linecap: square"/>
    <g clip-path="url(#pbf65521d0a)">
     <use xlink:href="#me201da86df" x="96.4275" y="83.171429" style="fill: #ffffff; stroke: #ffffff; stroke-width: 0.4"/>
    </g>
   </g>
   <g id="line2d_32">
    <path d="M 121.8745 100.550476 
L 121.8745 26.689524 
" clip-path="url(#pbf65521d0a)" style="fill: none; stroke: #1a1a1a; stroke-linecap: square"/>
   </g>
   <g id="line2d_33">
    <path d="M 121.8745 87.51619 
L 121.8745 57.102857 
" clip-path="url(#pbf65521d0a)" style="fill: none; stroke: #1a1a1a; stroke-width: 2; stroke-linecap: square"/>
   </g>
   <g id="line2d_34">
    <path d="M 121.8745 70.137143 
" clip-path="url(#pbf65521d0a)" style="fill: none; stroke: #fa8072; stroke-width: 1.5; stroke-linecap: square"/>
    <g clip-path="url(#pbf65521d0a)">
     <use xlink:href="#me201da86df" x="121.8745" y="70.137143" style="fill: #ffffff; stroke: #ffffff; stroke-width: 0.4"/>
    </g>
   </g>
   <g id="line2d_35">
    <path d="M 147.3215 104.895238 
L 147.3215 26.689524 
" clip-path="url(#pbf65521d0a)" style="fill: none; stroke: #1a1a1a; stroke-linecap: square"/>
   </g>
   <g id="line2d_36">
    <path d="M 147.3215 78.826667 
L 147.3215 44.068571 
" clip-path="url(#pbf65521d0a)" style="fill: none; stroke: #1a1a1a; stroke-width: 2; stroke-linecap: square"/>
   </g>
   <g id="line2d_37">
    <path d="M 147.3215 61.447619 
" clip-path="url(#pbf65521d0a)" style="fill: none; stroke: #fa8072; stroke-width: 1.5; stroke-linecap: square"/>
    <g clip-path="url(#pbf65521d0a)">
     <use xlink:href="#me201da86df" x="147.3215" y="61.447619" style="fill: #ffffff; stroke: #ffffff; stroke-width: 0.4"/>
    </g>
   </g>
   <g id="line2d_38">
    <path d="M 172.7685 87.51619 
L 172.7685 31.034286 
" clip-path="url(#pbf65521d0a)" style="fill: none; stroke: #1a1a1a; stroke-linecap: square"/>
   </g>
   <g id="line2d_39">
    <path d="M 172.7685 74.481905 
L 172.7685 52.758095 
" clip-path="url(#pbf65521d0a)" style="fill: none; stroke: #1a1a1a; stroke-width: 2; stroke-linecap: square"/>
   </g>
   <g id="line2d_40">
    <path d="M 172.7685 63.62 
" clip-path="url(#pbf65521d0a)" style="fill: none; stroke: #fa8072; stroke-width: 1.5; stroke-linecap: square"/>
    <g clip-path="url(#pbf65521d0a)">
     <use xlink:href="#me201da86df" x="172.7685" y="63.62" style="fill: #ffffff; stroke: #ffffff; stroke-width: 0.4"/>
    </g>
   </g>
   <g id="line2d_41">
    <path d="M 198.2155 91.860952 
L 198.2155 26.689524 
" clip-path="url(#pbf65521d0a)" style="fill: none; stroke: #1a1a1a; stroke-linecap: square"/>
   </g>
   <g id="line2d_42">
    <path d="M 198.2155 61.447619 
L 198.2155 35.379048 
" clip-path="url(#pbf65521d0a)" style="fill: none; stroke: #1a1a1a; stroke-width: 2; stroke-linecap: square"/>
   </g>
   <g id="line2d_43">
    <path d="M 198.2155 48.413333 
" clip-path="url(#pbf65521d0a)" style="fill: none; stroke: #fa8072; stroke-width: 1.5; stroke-linecap: square"/>
    <g clip-path="url(#pbf65521d0a)">
     <use xlink:href="#me201da86df" x="198.2155" y="48.413333" style="fill: #ffffff; stroke: #ffffff; stroke-width: 0.4"/>
    </g>
   </g>
   <g id="line2d_44">
    <path d="M 223.6625 87.51619 
L 223.6625 26.689524 
" clip-path="url(#pbf65521d0a)" style="fill: none; stroke: #1a1a1a; stroke-linecap: square"/>
   </g>
   <g id="line2d_45">
    <path d="M 223.6625 61.447619 
L 223.6625 36.465238 
" clip-path="url(#pbf65521d0a)" style="fill: none; stroke: #1a1a1a; stroke-width: 2; stroke-linecap: square"/>
   </g>
   <g id="line2d_46">
    <path d="M 223.6625 50.585714 
" clip-path="url(#pbf65521d0a)" style="fill: none; stroke: #fa8072; stroke-width: 1.5; stroke-linecap: square"/>
    <g clip-path="url(#pbf65521d0a)">
     <use xlink:href="#me201da86df" x="223.6625" y="50.585714" style="fill: #ffffff; stroke: #ffffff; stroke-width: 0.4"/>
    </g>
   </g>
   <g id="line2d_47">
    <path d="M 249.1095 87.51619 
L 249.1095 26.689524 
" clip-path="url(#pbf65521d0a)" style="fill: none; stroke: #1a1a1a; stroke-linecap: square"/>
   </g>
   <g id="line2d_48">
    <path d="M 249.1095 61.447619 
L 249.1095 39.72381 
" clip-path="url(#pbf65521d0a)" style="fill: none; stroke: #1a1a1a; stroke-width: 2; stroke-linecap: square"/>
   </g>
   <g id="line2d_49">
    <path d="M 249.1095 50.585714 
" clip-path="url(#pbf65521d0a)" style="fill: none; stroke: #fa8072; stroke-width: 1.5; stroke-linecap: square"/>
    <g clip-path="url(#pbf65521d0a)">
     <use xlink:href="#me201da86df" x="249.1095" y="50.585714" style="fill: #ffffff; stroke: #ffffff; stroke-width: 0.4"/>
    </g>
   </g>
   <g id="line2d_50">
    <path d="M 274.5565 74.481905 
L 274.5565 22.344762 
" clip-path="url(#pbf65521d0a)" style="fill: none; stroke: #1a1a1a; stroke-linecap: square"/>
   </g>
   <g id="line2d_51">
    <path d="M 274.5565 57.102857 
L 274.5565 32.120476 
" clip-path="url(#pbf65521d0a)" style="fill: none; stroke: #1a1a1a; stroke-width: 2; stroke-linecap: square"/>
   </g>
   <g id="line2d_52">
    <path d="M 274.5565 41.89619 
" clip-path="url(#pbf65521d0a)" style="fill: none; stroke: #fa8072; stroke-width: 1.5; stroke-linecap: square"/>
    <g clip-path="url(#pbf65521d0a)">
     <use xlink:href="#me201da86df" x="274.5565" y="41.89619" style="fill: #ffffff; stroke: #ffffff; stroke-width: 0.4"/>
    </g>
   </g>
   <g id="line2d_53">
    <path d="M 45.5335 83.171429 
L 70.9805 83.171429 
L 96.4275 83.171429 
L 121.8745 70.137143 
L 147.3215 61.447619 
L 172.7685 63.62 
L 198.2155 48.413333 
L 223.6625 50.585714 
L 249.1095 50.585714 
L 274.5565 41.89619 
" clip-path="url(#pbf65521d0a)" style="fill: none; stroke: #8b0000; stroke-linecap: square"/>
    <defs>
     <path id="m3ae6e8ea61" d="M 0 1.253314 
C 0.332383 1.253314 0.651197 1.121257 0.886227 0.886227 
C 1.121257 0.651197 1.253314 0.332383 1.253314 0 
C 1.253314 -0.332383 1.121257 -0.651197 0.886227 -0.886227 
C 0.651197 -1.121257 0.332383 -1.253314 0 -1.253314 
C -0.332383 -1.253314 -0.651197 -1.121257 -0.886227 -0.886227 
C -1.121257 -0.651197 -1.253314 -0.332383 -1.253314 0 
C -1.253314 0.332383 -1.121257 0.651197 -0.886227 0.886227 
C -0.651197 1.121257 -0.332383 1.253314 0 1.253314 
z
" style="stroke: #8b0000; stroke-width: 0.75"/>
    </defs>
    <g clip-path="url(#pbf65521d0a)">
     <use xlink:href="#m3ae6e8ea61" x="45.5335" y="83.171429" style="fill: #8b0000; stroke: #8b0000; stroke-width: 0.75"/>
     <use xlink:href="#m3ae6e8ea61" x="70.9805" y="83.171429" style="fill: #8b0000; stroke: #8b0000; stroke-width: 0.75"/>
     <use xlink:href="#m3ae6e8ea61" x="96.4275" y="83.171429" style="fill: #8b0000; stroke: #8b0000; stroke-width: 0.75"/>
     <use xlink:href="#m3ae6e8ea61" x="121.8745" y="70.137143" style="fill: #8b0000; stroke: #8b0000; stroke-width: 0.75"/>
     <use xlink:href="#m3ae6e8ea61" x="147.3215" y="61.447619" style="fill: #8b0000; stroke: #8b0000; stroke-width: 0.75"/>
     <use xlink:href="#m3ae6e8ea61" x="172.7685" y="63.62" style="fill: #8b0000; stroke: #8b0000; stroke-width: 0.75"/>
     <use xlink:href="#m3ae6e8ea61" x="198.2155" y="48.413333" style="fill: #8b0000; stroke: #8b0000; stroke-width: 0.75"/>
     <use xlink:href="#m3ae6e8ea61" x="223.6625" y="50.585714" style="fill: #8b0000; stroke: #8b0000; stroke-width: 0.75"/>
     <use xlink:href="#m3ae6e8ea61" x="249.1095" y="50.585714" style="fill: #8b0000; stroke: #8b0000; stroke-width: 0.75"/>
     <use xlink:href="#m3ae6e8ea61" x="274.5565" y="41.89619" style="fill: #8b0000; stroke: #8b0000; stroke-width: 0.75"/>
    </g>
   </g>
   <g id="line2d_54">
    <path clip-path="url(#pbf65521d0a)" style="fill: none; stroke: #8b0000; stroke-linecap: square"/>
   </g>
   <g id="line2d_55">
    <path clip-path="url(#pbf65521d0a)" style="fill: none; stroke: #8b0000; stroke-linecap: square"/>
   </g>
   <g id="line2d_56">
    <path clip-path="url(#pbf65521d0a)" style="fill: none; stroke: #8b0000; stroke-linecap: square"/>
   </g>
   <g id="line2d_57">
    <path clip-path="url(#pbf65521d0a)" style="fill: none; stroke: #8b0000; stroke-linecap: square"/>
   </g>
   <g id="line2d_58">
    <path clip-path="url(#pbf65521d0a)" style="fill: none; stroke: #8b0000; stroke-linecap: square"/>
   </g>
   <g id="line2d_59">
    <path clip-path="url(#pbf65521d0a)" style="fill: none; stroke: #8b0000; stroke-linecap: square"/>
   </g>
   <g id="line2d_60">
    <path clip-path="url(#pbf65521d0a)" style="fill: none; stroke: #8b0000; stroke-linecap: square"/>
   </g>
   <g id="line2d_61">
    <path clip-path="url(#pbf65521d0a)" style="fill: none; stroke: #8b0000; stroke-linecap: square"/>
   </g>
   <g id="line2d_62">
    <path clip-path="url(#pbf65521d0a)" style="fill: none; stroke: #8b0000; stroke-linecap: square"/>
   </g>
   <g id="line2d_63">
    <path clip-path="url(#pbf65521d0a)" style="fill: none; stroke: #8b0000; stroke-linecap: square"/>
   </g>
   <g id="patch_3">
    <path d="M 32.81 109.24 
L 32.81 18 
" style="fill: none; stroke: #000000; stroke-width: 0.8; stroke-linejoin: miter; stroke-linecap: square"/>
   </g>
   <g id="patch_4">
    <path d="M 287.28 109.24 
L 287.28 18 
" style="fill: none; stroke: #000000; stroke-width: 0.8; stroke-linejoin: miter; stroke-linecap: square"/>
   </g>
   <g id="patch_5">
    <path d="M 32.81 109.24 
L 287.28 109.24 
" style="fill: none; stroke: #000000; stroke-width: 0.8; stroke-linejoin: miter; stroke-linecap: square"/>
   </g>
   <g id="patch_6">
    <path d="M 32.81 18 
L 287.28 18 
" style="fill: none; stroke: #000000; stroke-width: 0.8; stroke-linejoin: miter; stroke-linecap: square"/>
   </g>
   <g id="text_19">
    <!-- Fraction of Overlapping Hits in Bootstraps compared to Standard -->
    <g transform="translate(43.279 12) scale(0.072 -0.072)">
     <defs>
      <path id="DejaVuSans-42" d="M 1259 2228 
L 1259 519 
L 2272 519 
Q 2781 519 3026 730 
Q 3272 941 3272 1375 
Q 3272 1813 3026 2020 
Q 2781 2228 2272 2228 
L 1259 2228 
z
M 1259 4147 
L 1259 2741 
L 2194 2741 
Q 2656 2741 2882 2914 
Q 3109 3088 3109 3444 
Q 3109 3797 2882 3972 
Q 2656 4147 2194 4147 
L 1259 4147 
z
M 628 4666 
L 2241 4666 
Q 2963 4666 3353 4366 
Q 3744 4066 3744 3513 
Q 3744 3084 3544 2831 
Q 3344 2578 2956 2516 
Q 3422 2416 3680 2098 
Q 3938 1781 3938 1306 
Q 3938 681 3513 340 
Q 3088 0 2303 0 
L 628 0 
L 628 4666 
z
" transform="scale(0.015625)"/>
      <path id="DejaVuSans-64" d="M 2906 2969 
L 2906 4863 
L 3481 4863 
L 3481 0 
L 2906 0 
L 2906 525 
Q 2725 213 2448 61 
Q 2172 -91 1784 -91 
Q 1150 -91 751 415 
Q 353 922 353 1747 
Q 353 2572 751 3078 
Q 1150 3584 1784 3584 
Q 2172 3584 2448 3432 
Q 2725 3281 2906 2969 
z
M 947 1747 
Q 947 1113 1208 752 
Q 1469 391 1925 391 
Q 2381 391 2643 752 
Q 2906 1113 2906 1747 
Q 2906 2381 2643 2742 
Q 2381 3103 1925 3103 
Q 1469 3103 1208 2742 
Q 947 2381 947 1747 
z
" transform="scale(0.015625)"/>
      <path id="DejaVuSans-53" d="M 3425 4513 
L 3425 3897 
Q 3066 4069 2747 4153 
Q 2428 4238 2131 4238 
Q 1616 4238 1336 4038 
Q 1056 3838 1056 3469 
Q 1056 3159 1242 3001 
Q 1428 2844 1947 2747 
L 2328 2669 
Q 3034 2534 3370 2195 
Q 3706 1856 3706 1288 
Q 3706 609 3251 259 
Q 2797 -91 1919 -91 
Q 1588 -91 1214 -16 
Q 841 59 441 206 
L 441 856 
Q 825 641 1194 531 
Q 1563 422 1919 422 
Q 2459 422 2753 634 
Q 3047 847 3047 1241 
Q 3047 1584 2836 1778 
Q 2625 1972 2144 2069 
L 1759 2144 
Q 1053 2284 737 2584 
Q 422 2884 422 3419 
Q 422 4038 858 4394 
Q 1294 4750 2059 4750 
Q 2388 4750 2728 4690 
Q 3069 4631 3425 4513 
z
" transform="scale(0.015625)"/>
     </defs>
     <use xlink:href="#DejaVuSans-46"/>
     <use xlink:href="#DejaVuSans-72" x="50.269531"/>
     <use xlink:href="#DejaVuSans-61" x="91.382812"/>
     <use xlink:href="#DejaVuSans-63" x="152.662109"/>
     <use xlink:href="#DejaVuSans-74" x="207.642578"/>
     <use xlink:href="#DejaVuSans-69" x="246.851562"/>
     <use xlink:href="#DejaVuSans-6f" x="274.634766"/>
     <use xlink:href="#DejaVuSans-6e" x="335.816406"/>
     <use xlink:href="#DejaVuSans-20" x="399.195312"/>
     <use xlink:href="#DejaVuSans-6f" x="430.982422"/>
     <use xlink:href="#DejaVuSans-66" x="492.164062"/>
     <use xlink:href="#DejaVuSans-20" x="527.369141"/>
     <use xlink:href="#DejaVuSans-4f" x="559.15625"/>
     <use xlink:href="#DejaVuSans-76" x="637.867188"/>
     <use xlink:href="#DejaVuSans-65" x="697.046875"/>
     <use xlink:href="#DejaVuSans-72" x="758.570312"/>
     <use xlink:href="#DejaVuSans-6c" x="799.683594"/>
     <use xlink:href="#DejaVuSans-61" x="827.466797"/>
     <use xlink:href="#DejaVuSans-70" x="888.746094"/>
     <use xlink:href="#DejaVuSans-70" x="952.222656"/>
     <use xlink:href="#DejaVuSans-69" x="1015.699219"/>
     <use xlink:href="#DejaVuSans-6e" x="1043.482422"/>
     <use xlink:href="#DejaVuSans-67" x="1106.861328"/>
     <use xlink:href="#DejaVuSans-20" x="1170.337891"/>
     <use xlink:href="#DejaVuSans-48" x="1202.125"/>
     <use xlink:href="#DejaVuSans-69" x="1277.320312"/>
     <use xlink:href="#DejaVuSans-74" x="1305.103516"/>
     <use xlink:href="#DejaVuSans-73" x="1344.3125"/>
     <use xlink:href="#DejaVuSans-20" x="1396.412109"/>
     <use xlink:href="#DejaVuSans-69" x="1428.199219"/>
     <use xlink:href="#DejaVuSans-6e" x="1455.982422"/>
     <use xlink:href="#DejaVuSans-20" x="1519.361328"/>
     <use xlink:href="#DejaVuSans-42" x="1551.148438"/>
     <use xlink:href="#DejaVuSans-6f" x="1619.751953"/>
     <use xlink:href="#DejaVuSans-6f" x="1680.933594"/>
     <use xlink:href="#DejaVuSans-74" x="1742.115234"/>
     <use xlink:href="#DejaVuSans-73" x="1781.324219"/>
     <use xlink:href="#DejaVuSans-74" x="1833.423828"/>
     <use xlink:href="#DejaVuSans-72" x="1872.632812"/>
     <use xlink:href="#DejaVuSans-61" x="1913.746094"/>
     <use xlink:href="#DejaVuSans-70" x="1975.025391"/>
     <use xlink:href="#DejaVuSans-73" x="2038.501953"/>
     <use xlink:href="#DejaVuSans-20" x="2090.601562"/>
     <use xlink:href="#DejaVuSans-63" x="2122.388672"/>
     <use xlink:href="#DejaVuSans-6f" x="2177.369141"/>
     <use xlink:href="#DejaVuSans-6d" x="2238.550781"/>
     <use xlink:href="#DejaVuSans-70" x="2335.962891"/>
     <use xlink:href="#DejaVuSans-61" x="2399.439453"/>
     <use xlink:href="#DejaVuSans-72" x="2460.71875"/>
     <use xlink:href="#DejaVuSans-65" x="2499.582031"/>
     <use xlink:href="#DejaVuSans-64" x="2561.105469"/>
     <use xlink:href="#DejaVuSans-20" x="2624.582031"/>
     <use xlink:href="#DejaVuSans-74" x="2656.369141"/>
     <use xlink:href="#DejaVuSans-6f" x="2695.578125"/>
     <use xlink:href="#DejaVuSans-20" x="2756.759766"/>
     <use xlink:href="#DejaVuSans-53" x="2788.546875"/>
     <use xlink:href="#DejaVuSans-74" x="2852.023438"/>
     <use xlink:href="#DejaVuSans-61" x="2891.232422"/>
     <use xlink:href="#DejaVuSans-6e" x="2952.511719"/>
     <use xlink:href="#DejaVuSans-64" x="3015.890625"/>
     <use xlink:href="#DejaVuSans-61" x="3079.367188"/>
     <use xlink:href="#DejaVuSans-72" x="3140.646484"/>
     <use xlink:href="#DejaVuSans-64" x="3180.009766"/>
    </g>
   </g>
  </g>
 </g>
 <defs>
  <clipPath id="pbf65521d0a">
   <rect x="32.81" y="18" width="254.47" height="91.24"/>
  </clipPath>
 </defs>
</svg>
