<?xml version="1.0" encoding="utf-8" standalone="no"?>
<!DOCTYPE svg PUBLIC "-//W3C//DTD SVG 1.1//EN"
  "http://www.w3.org/Graphics/SVG/1.1/DTD/svg11.dtd">
<svg xmlns:xlink="http://www.w3.org/1999/xlink" width="293.76pt" height="138.24pt" viewBox="0 0 293.76 138.24" xmlns="http://www.w3.org/2000/svg" version="1.1">
 <metadata>
  <rdf:RDF xmlns:dc="http://purl.org/dc/elements/1.1/" xmlns:cc="http://creativecommons.org/ns#" xmlns:rdf="http://www.w3.org/1999/02/22-rdf-syntax-ns#">
   <cc:Work>
    <dc:type rdf:resource="http://purl.org/dc/dcmitype/StillImage"/>
    <dc:date>2024-07-16T11:07:45.610260</dc:date>
    <dc:format>image/svg+xml</dc:format>
    <dc:creator>
     <cc:Agent>
      <dc:title>Matplotlib v3.9.1, https://matplotlib.org/</dc:title>
     </cc:Agent>
    </dc:creator>
   </cc:Work>
  </rdf:RDF>
 </metadata>
 <defs>
  <style type="text/css">*{stroke-linejoin: round; stroke-linecap: butt}</style>
 </defs>
 <g id="figure_1">
  <g id="patch_1">
   <path d="M 0 138.24 
L 293.76 138.24 
L 293.76 0 
L 0 0 
z
" style="fill: #ffffff"/>
  </g>
  <g id="axes_1">
   <g id="patch_2">
    <path d="M 32.81 109.24 
L 287.28 109.24 
L 287.28 18 
L 32.81 18 
z
" style="fill: #ffffff"/>
   </g>
   <g id="PolyCollection_1">
    <path d="M 49.087685 105.092727 
L 41.979315 105.092727 
L 41.867509 104.841377 
L 41.771537 104.590028 
L 41.691217 104.338678 
L 41.626113 104.087328 
L 41.575651 103.835978 
L 41.539219 103.584628 
L 41.516269 103.333278 
L 41.506403 103.081928 
L 41.509422 102.830579 
L 41.525357 102.579229 
L 41.554452 102.327879 
L 41.597121 102.076529 
L 41.653873 101.825179 
L 41.725211 101.573829 
L 41.811521 101.322479 
L 41.91296 101.071129 
L 42.029343 100.81978 
L 42.160059 100.56843 
L 42.304008 100.31708 
L 42.459563 100.06573 
L 42.624582 99.81438 
L 42.796439 99.56303 
L 42.972096 99.31168 
L 43.1482 99.060331 
L 43.321198 98.808981 
L 43.487463 98.557631 
L 43.643431 98.306281 
L 43.785731 98.054931 
L 43.911305 97.803581 
L 44.017513 97.552231 
L 44.102229 97.300882 
L 44.163903 97.049532 
L 44.201614 96.798182 
L 44.21509 96.546832 
L 44.204717 96.295482 
L 44.171518 96.044132 
L 44.117115 95.792782 
L 44.043673 95.541433 
L 43.953825 95.290083 
L 43.85058 95.038733 
L 43.737222 94.787383 
L 43.617193 94.536033 
L 43.493976 94.284683 
L 43.370971 94.033333 
L 43.251381 93.781983 
L 43.138108 93.530634 
L 43.03366 93.279284 
L 42.940085 93.027934 
L 42.858928 92.776584 
L 42.791221 92.525234 
L 42.737493 92.273884 
L 42.697814 92.022534 
L 42.671863 91.771185 
L 42.659006 91.519835 
L 42.658394 91.268485 
L 42.669053 91.017135 
L 42.689977 90.765785 
L 42.720196 90.514435 
L 42.758832 90.263085 
L 42.805126 90.011736 
L 42.858434 89.760386 
L 42.918198 89.509036 
L 42.983896 89.257686 
L 43.054962 89.006336 
L 43.130699 88.754986 
L 43.210183 88.503636 
L 43.292168 88.252287 
L 43.375003 88.000937 
L 43.456555 87.749587 
L 43.534168 87.498237 
L 43.604639 87.246887 
L 43.664225 86.995537 
L 43.708685 86.744187 
L 43.733355 86.492837 
L 43.733259 86.241488 
L 43.703245 85.990138 
L 43.638165 85.738788 
L 43.533069 85.487438 
L 43.383436 85.236088 
L 43.185419 84.984738 
L 42.936091 84.733388 
L 42.63371 84.482039 
L 42.277952 84.230689 
L 41.870133 83.979339 
L 41.41338 83.727989 
L 40.912745 83.476639 
L 40.375252 83.225289 
L 39.809844 82.973939 
L 39.227246 82.72259 
L 38.63972 82.47124 
L 38.060724 82.21989 
L 37.504477 81.96854 
L 36.985453 81.71719 
L 36.517827 81.46584 
L 36.11489 81.21449 
L 35.788484 80.96314 
L 35.548479 80.711791 
L 35.402322 80.460441 
L 35.3547 80.209091 
L 55.7123 80.209091 
L 55.7123 80.209091 
L 55.664678 80.460441 
L 55.518521 80.711791 
L 55.278516 80.96314 
L 54.95211 81.21449 
L 54.549173 81.46584 
L 54.081547 81.71719 
L 53.562523 81.96854 
L 53.006276 82.21989 
L 52.42728 82.47124 
L 51.839754 82.72259 
L 51.257156 82.973939 
L 50.691748 83.225289 
L 50.154255 83.476639 
L 49.65362 83.727989 
L 49.196867 83.979339 
L 48.789048 84.230689 
L 48.43329 84.482039 
L 48.130909 84.733388 
L 47.881581 84.984738 
L 47.683564 85.236088 
L 47.533931 85.487438 
L 47.428835 85.738788 
L 47.363755 85.990138 
L 47.333741 86.241488 
L 47.333645 86.492837 
L 47.358315 86.744187 
L 47.402775 86.995537 
L 47.462361 87.246887 
L 47.532832 87.498237 
L 47.610445 87.749587 
L 47.691997 88.000937 
L 47.774832 88.252287 
L 47.856817 88.503636 
L 47.936301 88.754986 
L 48.012038 89.006336 
L 48.083104 89.257686 
L 48.148802 89.509036 
L 48.208566 89.760386 
L 48.261874 90.011736 
L 48.308168 90.263085 
L 48.346804 90.514435 
L 48.377023 90.765785 
L 48.397947 91.017135 
L 48.408606 91.268485 
L 48.407994 91.519835 
L 48.395137 91.771185 
L 48.369186 92.022534 
L 48.329507 92.273884 
L 48.275779 92.525234 
L 48.208072 92.776584 
L 48.126915 93.027934 
L 48.03334 93.279284 
L 47.928892 93.530634 
L 47.815619 93.781983 
L 47.696029 94.033333 
L 47.573024 94.284683 
L 47.449807 94.536033 
L 47.329778 94.787383 
L 47.21642 95.038733 
L 47.113175 95.290083 
L 47.023327 95.541433 
L 46.949885 95.792782 
L 46.895482 96.044132 
L 46.862283 96.295482 
L 46.85191 96.546832 
L 46.865386 96.798182 
L 46.903097 97.049532 
L 46.964771 97.300882 
L 47.049487 97.552231 
L 47.155695 97.803581 
L 47.281269 98.054931 
L 47.423569 98.306281 
L 47.579537 98.557631 
L 47.745802 98.808981 
L 47.9188 99.060331 
L 48.094904 99.31168 
L 48.270561 99.56303 
L 48.442418 99.81438 
L 48.607437 100.06573 
L 48.762992 100.31708 
L 48.906941 100.56843 
L 49.037657 100.81978 
L 49.15404 101.071129 
L 49.255479 101.322479 
L 49.341789 101.573829 
L 49.413127 101.825179 
L 49.469879 102.076529 
L 49.512548 102.327879 
L 49.541643 102.579229 
L 49.557578 102.830579 
L 49.560597 103.081928 
L 49.550731 103.333278 
L 49.527781 103.584628 
L 49.491349 103.835978 
L 49.440887 104.087328 
L 49.375783 104.338678 
L 49.295463 104.590028 
L 49.199491 104.841377 
L 49.087685 105.092727 
L 49.087685 105.092727 
z
" clip-path="url(#p028868ebf9)" style="fill: none; stroke: #fa8072; stroke-opacity: 0.8; stroke-width: 2"/>
   </g>
   <g id="PolyCollection_2">
    <path d="M 73.636723 100.945455 
L 68.324277 100.945455 
L 68.161699 100.400863 
L 68.026533 99.856272 
L 67.923039 99.31168 
L 67.854414 98.767089 
L 67.822592 98.222498 
L 67.82809 97.677906 
L 67.869933 97.133315 
L 67.945646 96.588724 
L 68.051344 96.044132 
L 68.181895 95.499541 
L 68.331166 94.954949 
L 68.492332 94.410358 
L 68.658218 93.865767 
L 68.821664 93.321175 
L 68.975875 92.776584 
L 69.114723 92.231993 
L 69.233013 91.687401 
L 69.32666 91.14281 
L 69.392805 90.598219 
L 69.429857 90.053627 
L 69.437473 89.509036 
L 69.416492 88.964444 
L 69.368827 88.419853 
L 69.297337 87.875262 
L 69.205687 87.33067 
L 69.098196 86.786079 
L 68.979681 86.241488 
L 68.855306 85.696896 
L 68.730412 85.152305 
L 68.610354 84.607713 
L 68.500322 84.063122 
L 68.405152 83.518531 
L 68.329135 82.973939 
L 68.27583 82.429348 
L 68.247875 81.884757 
L 68.246837 81.340165 
L 68.273093 80.795574 
L 68.325767 80.250983 
L 68.402734 79.706391 
L 68.500696 79.1618 
L 68.615337 78.617208 
L 68.741541 78.072617 
L 68.873661 77.528026 
L 69.005822 76.983434 
L 69.132235 76.438843 
L 69.247488 75.894252 
L 69.346806 75.34966 
L 69.42626 74.805069 
L 69.482908 74.260478 
L 69.514882 73.715886 
L 69.521396 73.171295 
L 69.502719 72.626703 
L 69.460082 72.082112 
L 69.395565 71.537521 
L 69.311944 70.992929 
L 69.212534 70.448338 
L 69.101017 69.903747 
L 68.981274 69.359155 
L 68.857224 68.814564 
L 68.732676 68.269972 
L 68.611206 67.725381 
L 68.496048 67.18079 
L 68.390021 66.636198 
L 68.295474 66.091607 
L 68.214267 65.547016 
L 68.147763 65.002424 
L 68.096856 64.457833 
L 68.062003 63.913242 
L 68.043284 63.36865 
L 68.040462 62.824059 
L 68.053053 62.279467 
L 68.080398 61.734876 
L 68.121728 61.190285 
L 68.176221 60.645693 
L 68.243044 60.101102 
L 68.321378 59.556511 
L 68.410421 59.011919 
L 68.509368 58.467328 
L 68.617375 57.922736 
L 68.733515 57.378145 
L 68.856717 56.833554 
L 68.985726 56.288962 
L 69.119063 55.744371 
L 69.255026 55.19978 
L 69.391705 54.655188 
L 69.527051 54.110597 
L 69.658956 53.566006 
L 69.785374 53.021414 
L 69.904448 52.476823 
L 70.014631 51.932231 
L 70.114801 51.38764 
L 70.20433 50.843049 
L 70.283118 50.298457 
L 70.35158 49.753866 
L 70.410579 49.209275 
L 70.461331 48.664683 
L 70.505269 48.120092 
L 70.543905 47.5755 
L 70.578696 47.030909 
L 71.382304 47.030909 
L 71.382304 47.030909 
L 71.417095 47.5755 
L 71.455731 48.120092 
L 71.499669 48.664683 
L 71.550421 49.209275 
L 71.60942 49.753866 
L 71.677882 50.298457 
L 71.75667 50.843049 
L 71.846199 51.38764 
L 71.946369 51.932231 
L 72.056552 52.476823 
L 72.175626 53.021414 
L 72.302044 53.566006 
L 72.433949 54.110597 
L 72.569295 54.655188 
L 72.705974 55.19978 
L 72.841937 55.744371 
L 72.975274 56.288962 
L 73.104283 56.833554 
L 73.227485 57.378145 
L 73.343625 57.922736 
L 73.451632 58.467328 
L 73.550579 59.011919 
L 73.639622 59.556511 
L 73.717956 60.101102 
L 73.784779 60.645693 
L 73.839272 61.190285 
L 73.880602 61.734876 
L 73.907947 62.279467 
L 73.920538 62.824059 
L 73.917716 63.36865 
L 73.898997 63.913242 
L 73.864144 64.457833 
L 73.813237 65.002424 
L 73.746733 65.547016 
L 73.665526 66.091607 
L 73.570979 66.636198 
L 73.464952 67.18079 
L 73.349794 67.725381 
L 73.228324 68.269972 
L 73.103776 68.814564 
L 72.979726 69.359155 
L 72.859983 69.903747 
L 72.748466 70.448338 
L 72.649056 70.992929 
L 72.565435 71.537521 
L 72.500918 72.082112 
L 72.458281 72.626703 
L 72.439604 73.171295 
L 72.446118 73.715886 
L 72.478092 74.260478 
L 72.53474 74.805069 
L 72.614194 75.34966 
L 72.713512 75.894252 
L 72.828765 76.438843 
L 72.955178 76.983434 
L 73.087339 77.528026 
L 73.219459 78.072617 
L 73.345663 78.617208 
L 73.460304 79.1618 
L 73.558266 79.706391 
L 73.635233 80.250983 
L 73.687907 80.795574 
L 73.714163 81.340165 
L 73.713125 81.884757 
L 73.68517 82.429348 
L 73.631865 82.973939 
L 73.555848 83.518531 
L 73.460678 84.063122 
L 73.350646 84.607713 
L 73.230588 85.152305 
L 73.105694 85.696896 
L 72.981319 86.241488 
L 72.862804 86.786079 
L 72.755313 87.33067 
L 72.663663 87.875262 
L 72.592173 88.419853 
L 72.544508 88.964444 
L 72.523527 89.509036 
L 72.531143 90.053627 
L 72.568195 90.598219 
L 72.63434 91.14281 
L 72.727987 91.687401 
L 72.846277 92.231993 
L 72.985125 92.776584 
L 73.139336 93.321175 
L 73.302782 93.865767 
L 73.468668 94.410358 
L 73.629834 94.954949 
L 73.779105 95.499541 
L 73.909656 96.044132 
L 74.015354 96.588724 
L 74.091067 97.133315 
L 74.13291 97.677906 
L 74.138408 98.222498 
L 74.106586 98.767089 
L 74.037961 99.31168 
L 73.934467 99.856272 
L 73.799301 100.400863 
L 73.636723 100.945455 
L 73.636723 100.945455 
z
" clip-path="url(#p028868ebf9)" style="fill: none; stroke: #fa8072; stroke-opacity: 0.8; stroke-width: 2"/>
   </g>
   <g id="PolyCollection_3">
    <path d="M 97.208122 100.945455 
L 95.646878 100.945455 
L 95.58423 100.233297 
L 95.525784 99.521139 
L 95.468073 98.808981 
L 95.406652 98.096823 
L 95.336792 97.384665 
L 95.254198 96.672507 
L 95.155604 95.960349 
L 95.039137 95.248191 
L 94.904412 94.536033 
L 94.752378 93.823875 
L 94.585005 93.111717 
L 94.404908 92.399559 
L 94.214989 91.687401 
L 94.018181 90.975243 
L 93.817316 90.263085 
L 93.615109 89.550927 
L 93.414244 88.83877 
L 93.217524 88.126612 
L 93.02805 87.414454 
L 92.84939 86.702296 
L 92.685694 85.990138 
L 92.541734 85.27798 
L 92.42281 84.565822 
L 92.3345 83.853664 
L 92.282238 83.141506 
L 92.270723 82.429348 
L 92.303213 81.71719 
L 92.380813 81.005032 
L 92.501904 80.292874 
L 92.661869 79.580716 
L 92.853246 78.868558 
L 93.066341 78.1564 
L 93.290233 77.444242 
L 93.513993 76.732084 
L 93.727859 76.019927 
L 93.924133 75.307769 
L 94.097632 74.595611 
L 94.245632 73.883453 
L 94.367375 73.171295 
L 94.463349 72.459137 
L 94.534533 71.746979 
L 94.58185 71.034821 
L 94.605956 70.322663 
L 94.607404 69.610505 
L 94.587118 68.898347 
L 94.546985 68.186189 
L 94.490381 67.474031 
L 94.422418 66.761873 
L 94.34979 66.049715 
L 94.280203 65.337557 
L 94.221487 64.625399 
L 94.180577 63.913242 
L 94.16259 63.201084 
L 94.170199 62.488926 
L 94.203422 61.776768 
L 94.259841 61.06461 
L 94.335167 60.352452 
L 94.424 59.640294 
L 94.520634 58.928136 
L 94.619749 58.215978 
L 94.716933 57.50382 
L 94.808992 56.791662 
L 94.894068 56.079504 
L 94.971592 55.367346 
L 95.042125 54.655188 
L 95.10711 53.94303 
L 95.168573 53.230872 
L 95.228795 52.518714 
L 95.289995 51.806556 
L 95.354042 51.094399 
L 95.422249 50.382241 
L 95.495241 49.670083 
L 95.572924 48.957925 
L 95.654535 48.245767 
L 95.738757 47.533609 
L 95.82387 46.821451 
L 95.907924 46.109293 
L 95.98891 45.397135 
L 96.064922 44.684977 
L 96.134299 43.972819 
L 96.195741 43.260661 
L 96.24837 42.548503 
L 96.291742 41.836345 
L 96.325804 41.124187 
L 96.350792 40.412029 
L 96.367119 39.699871 
L 96.375258 38.987713 
L 96.375671 38.275556 
L 96.368795 37.563398 
L 96.35511 36.85124 
L 96.335259 36.139082 
L 96.310196 35.426924 
L 96.281316 34.714766 
L 96.250513 34.002608 
L 96.22012 33.29045 
L 96.192731 32.578292 
L 96.170908 31.866134 
L 96.156833 31.153976 
L 96.151977 30.441818 
L 96.703023 30.441818 
L 96.703023 30.441818 
L 96.698167 31.153976 
L 96.684092 31.866134 
L 96.662269 32.578292 
L 96.63488 33.29045 
L 96.604487 34.002608 
L 96.573684 34.714766 
L 96.544804 35.426924 
L 96.519741 36.139082 
L 96.49989 36.85124 
L 96.486205 37.563398 
L 96.479329 38.275556 
L 96.479742 38.987713 
L 96.487881 39.699871 
L 96.504208 40.412029 
L 96.529196 41.124187 
L 96.563258 41.836345 
L 96.60663 42.548503 
L 96.659259 43.260661 
L 96.720701 43.972819 
L 96.790078 44.684977 
L 96.86609 45.397135 
L 96.947076 46.109293 
L 97.03113 46.821451 
L 97.116243 47.533609 
L 97.200465 48.245767 
L 97.282076 48.957925 
L 97.359759 49.670083 
L 97.432751 50.382241 
L 97.500958 51.094399 
L 97.565005 51.806556 
L 97.626205 52.518714 
L 97.686427 53.230872 
L 97.74789 53.94303 
L 97.812875 54.655188 
L 97.883408 55.367346 
L 97.960932 56.079504 
L 98.046008 56.791662 
L 98.138067 57.50382 
L 98.235251 58.215978 
L 98.334366 58.928136 
L 98.431 59.640294 
L 98.519833 60.352452 
L 98.595159 61.06461 
L 98.651578 61.776768 
L 98.684801 62.488926 
L 98.69241 63.201084 
L 98.674423 63.913242 
L 98.633513 64.625399 
L 98.574797 65.337557 
L 98.50521 66.049715 
L 98.432582 66.761873 
L 98.364619 67.474031 
L 98.308015 68.186189 
L 98.267882 68.898347 
L 98.247596 69.610505 
L 98.249044 70.322663 
L 98.27315 71.034821 
L 98.320467 71.746979 
L 98.391651 72.459137 
L 98.487625 73.171295 
L 98.609368 73.883453 
L 98.757368 74.595611 
L 98.930867 75.307769 
L 99.127141 76.019927 
L 99.341007 76.732084 
L 99.564767 77.444242 
L 99.788659 78.1564 
L 100.001754 78.868558 
L 100.193131 79.580716 
L 100.353096 80.292874 
L 100.474187 81.005032 
L 100.551787 81.71719 
L 100.584277 82.429348 
L 100.572762 83.141506 
L 100.5205 83.853664 
L 100.43219 84.565822 
L 100.313266 85.27798 
L 100.169306 85.990138 
L 100.00561 86.702296 
L 99.82695 87.414454 
L 99.637476 88.126612 
L 99.440756 88.83877 
L 99.239891 89.550927 
L 99.037684 90.263085 
L 98.836819 90.975243 
L 98.640011 91.687401 
L 98.450092 92.399559 
L 98.269995 93.111717 
L 98.102622 93.823875 
L 97.950588 94.536033 
L 97.815863 95.248191 
L 97.699396 95.960349 
L 97.600802 96.672507 
L 97.518208 97.384665 
L 97.448348 98.096823 
L 97.386927 98.808981 
L 97.329216 99.521139 
L 97.27077 100.233297 
L 97.208122 100.945455 
L 97.208122 100.945455 
z
" clip-path="url(#p028868ebf9)" style="fill: none; stroke: #fa8072; stroke-opacity: 0.8; stroke-width: 2"/>
   </g>
   <g id="PolyCollection_4">
    <path d="M 122.649692 96.798182 
L 121.099308 96.798182 
L 120.974324 96.086024 
L 120.839199 95.373866 
L 120.694833 94.661708 
L 120.54267 93.94955 
L 120.384799 93.237392 
L 120.224017 92.525234 
L 120.063817 91.813076 
L 119.908294 91.100918 
L 119.761966 90.38876 
L 119.629508 89.676602 
L 119.515434 88.964444 
L 119.42374 88.252287 
L 119.357562 87.540129 
L 119.318866 86.827971 
L 119.30821 86.115813 
L 119.324604 85.403655 
L 119.365483 84.691497 
L 119.426802 83.979339 
L 119.503256 83.267181 
L 119.588611 82.555023 
L 119.676139 81.842865 
L 119.759114 81.130707 
L 119.831337 80.418549 
L 119.887655 79.706391 
L 119.924408 78.994233 
L 119.939766 78.282075 
L 119.933908 77.569917 
L 119.908989 76.857759 
L 119.868902 76.145601 
L 119.818817 75.433444 
L 119.764551 74.721286 
L 119.711829 74.009128 
L 119.665545 73.29697 
L 119.629138 72.584812 
L 119.604186 71.872654 
L 119.590308 71.160496 
L 119.585401 70.448338 
L 119.586177 69.73618 
L 119.588895 69.024022 
L 119.59016 68.311864 
L 119.587612 67.599706 
L 119.580372 66.887548 
L 119.569151 66.17539 
L 119.556018 65.463232 
L 119.543878 64.751074 
L 119.535795 64.038916 
L 119.534319 63.326758 
L 119.540957 62.614601 
L 119.55591 61.902443 
L 119.578108 61.190285 
L 119.605519 60.478127 
L 119.635645 59.765969 
L 119.666071 59.053811 
L 119.694962 58.341653 
L 119.721388 57.629495 
L 119.745441 56.917337 
L 119.768128 56.205179 
L 119.791097 55.493021 
L 119.816265 54.780863 
L 119.845425 54.068705 
L 119.879913 53.356547 
L 119.920385 52.644389 
L 119.966713 51.932231 
L 120.018018 51.220073 
L 120.072798 50.507916 
L 120.129131 49.795758 
L 120.184911 49.0836 
L 120.23809 48.371442 
L 120.286906 47.659284 
L 120.330078 46.947126 
L 120.366955 46.234968 
L 120.397618 45.52281 
L 120.422917 44.810652 
L 120.444448 44.098494 
L 120.464451 43.386336 
L 120.485633 42.674178 
L 120.510926 41.96202 
L 120.543186 41.249862 
L 120.584866 40.537704 
L 120.637707 39.825546 
L 120.702476 39.113388 
L 120.778805 38.40123 
L 120.865157 37.689073 
L 120.958931 36.976915 
L 121.056706 36.264757 
L 121.154576 35.552599 
L 121.248564 34.840441 
L 121.335016 34.128283 
L 121.410971 33.416125 
L 121.474419 32.703967 
L 121.524452 31.991809 
L 121.561284 31.279651 
L 121.586145 30.567493 
L 121.601077 29.855335 
L 121.608669 29.143177 
L 121.611741 28.431019 
L 121.613047 27.718861 
L 121.615008 27.006703 
L 121.619505 26.294545 
L 122.129495 26.294545 
L 122.129495 26.294545 
L 122.133992 27.006703 
L 122.135953 27.718861 
L 122.137259 28.431019 
L 122.140331 29.143177 
L 122.147923 29.855335 
L 122.162855 30.567493 
L 122.187716 31.279651 
L 122.224548 31.991809 
L 122.274581 32.703967 
L 122.338029 33.416125 
L 122.413984 34.128283 
L 122.500436 34.840441 
L 122.594424 35.552599 
L 122.692294 36.264757 
L 122.790069 36.976915 
L 122.883843 37.689073 
L 122.970195 38.40123 
L 123.046524 39.113388 
L 123.111293 39.825546 
L 123.164134 40.537704 
L 123.205814 41.249862 
L 123.238074 41.96202 
L 123.263367 42.674178 
L 123.284549 43.386336 
L 123.304552 44.098494 
L 123.326083 44.810652 
L 123.351382 45.52281 
L 123.382045 46.234968 
L 123.418922 46.947126 
L 123.462094 47.659284 
L 123.51091 48.371442 
L 123.564089 49.0836 
L 123.619869 49.795758 
L 123.676202 50.507916 
L 123.730982 51.220073 
L 123.782287 51.932231 
L 123.828615 52.644389 
L 123.869087 53.356547 
L 123.903575 54.068705 
L 123.932735 54.780863 
L 123.957903 55.493021 
L 123.980872 56.205179 
L 124.003559 56.917337 
L 124.027612 57.629495 
L 124.054038 58.341653 
L 124.082929 59.053811 
L 124.113355 59.765969 
L 124.143481 60.478127 
L 124.170892 61.190285 
L 124.19309 61.902443 
L 124.208043 62.614601 
L 124.214681 63.326758 
L 124.213205 64.038916 
L 124.205122 64.751074 
L 124.192982 65.463232 
L 124.179849 66.17539 
L 124.168628 66.887548 
L 124.161388 67.599706 
L 124.15884 68.311864 
L 124.160105 69.024022 
L 124.162823 69.73618 
L 124.163599 70.448338 
L 124.158692 71.160496 
L 124.144814 71.872654 
L 124.119862 72.584812 
L 124.083455 73.29697 
L 124.037171 74.009128 
L 123.984449 74.721286 
L 123.930183 75.433444 
L 123.880098 76.145601 
L 123.840011 76.857759 
L 123.815092 77.569917 
L 123.809234 78.282075 
L 123.824592 78.994233 
L 123.861345 79.706391 
L 123.917663 80.418549 
L 123.989886 81.130707 
L 124.072861 81.842865 
L 124.160389 82.555023 
L 124.245744 83.267181 
L 124.322198 83.979339 
L 124.383517 84.691497 
L 124.424396 85.403655 
L 124.44079 86.115813 
L 124.430134 86.827971 
L 124.391438 87.540129 
L 124.32526 88.252287 
L 124.233566 88.964444 
L 124.119492 89.676602 
L 123.987034 90.38876 
L 123.840706 91.100918 
L 123.685183 91.813076 
L 123.524983 92.525234 
L 123.364201 93.237392 
L 123.20633 93.94955 
L 123.054167 94.661708 
L 122.909801 95.373866 
L 122.774676 96.086024 
L 122.649692 96.798182 
L 122.649692 96.798182 
z
" clip-path="url(#p028868ebf9)" style="fill: none; stroke: #fa8072; stroke-opacity: 0.8; stroke-width: 2"/>
   </g>
   <g id="PolyCollection_5">
    <path d="M 147.596437 100.945455 
L 147.046563 100.945455 
L 147.026155 100.191405 
L 147.005091 99.437355 
L 146.98241 98.683306 
L 146.95705 97.929256 
L 146.927965 97.175207 
L 146.894248 96.421157 
L 146.855236 95.667107 
L 146.810584 94.913058 
L 146.760285 94.159008 
L 146.704649 93.404959 
L 146.644235 92.650909 
L 146.579739 91.89686 
L 146.511873 91.14281 
L 146.441234 90.38876 
L 146.368194 89.634711 
L 146.292822 88.880661 
L 146.214864 88.126612 
L 146.133773 87.372562 
L 146.048804 86.618512 
L 145.959167 85.864463 
L 145.864225 85.110413 
L 145.763705 84.356364 
L 145.657912 83.602314 
L 145.547903 82.848264 
L 145.435588 82.094215 
L 145.323734 81.340165 
L 145.215854 80.586116 
L 145.115977 79.832066 
L 145.028318 79.078017 
L 144.956873 78.323967 
L 144.905005 77.569917 
L 144.875055 76.815868 
L 144.868058 76.061818 
L 144.883594 75.307769 
L 144.919803 74.553719 
L 144.973559 73.799669 
L 145.040782 73.04562 
L 145.116839 72.29157 
L 145.196972 71.537521 
L 145.276699 70.783471 
L 145.35214 70.029421 
L 145.420248 69.275372 
L 145.478918 68.521322 
L 145.527017 67.767273 
L 145.564325 67.013223 
L 145.591435 66.259174 
L 145.609634 65.505124 
L 145.620766 64.751074 
L 145.62709 63.997025 
L 145.631124 63.242975 
L 145.635467 62.488926 
L 145.642591 61.734876 
L 145.654614 60.980826 
L 145.673053 60.226777 
L 145.698603 59.472727 
L 145.730949 58.718678 
L 145.76867 57.964628 
L 145.809241 57.210579 
L 145.849167 56.456529 
L 145.884246 55.702479 
L 145.909942 54.94843 
L 145.921845 54.19438 
L 145.916161 53.440331 
L 145.890182 52.686281 
L 145.842684 51.932231 
L 145.774183 51.178182 
L 145.68703 50.424132 
L 145.585304 49.670083 
L 145.474527 48.916033 
L 145.361198 48.161983 
L 145.25222 47.407934 
L 145.154263 46.653884 
L 145.073148 45.899835 
L 145.013318 45.145785 
L 144.977455 44.391736 
L 144.966299 43.637686 
L 144.978685 42.883636 
L 145.011781 42.129587 
L 145.06151 41.375537 
L 145.123087 40.621488 
L 145.191598 39.867438 
L 145.262551 39.113388 
L 145.332318 38.359339 
L 145.398424 37.605289 
L 145.459658 36.85124 
L 145.516005 36.09719 
L 145.568435 35.34314 
L 145.6186 34.589091 
L 145.668489 33.835041 
L 145.720111 33.080992 
L 145.775233 32.326942 
L 145.835212 31.572893 
L 145.900902 30.818843 
L 145.972655 30.064793 
L 146.050357 29.310744 
L 146.133502 28.556694 
L 146.221266 27.802645 
L 146.312573 27.048595 
L 146.406155 26.294545 
L 148.236845 26.294545 
L 148.236845 26.294545 
L 148.330427 27.048595 
L 148.421734 27.802645 
L 148.509498 28.556694 
L 148.592643 29.310744 
L 148.670345 30.064793 
L 148.742098 30.818843 
L 148.807788 31.572893 
L 148.867767 32.326942 
L 148.922889 33.080992 
L 148.974511 33.835041 
L 149.0244 34.589091 
L 149.074565 35.34314 
L 149.126995 36.09719 
L 149.183342 36.85124 
L 149.244576 37.605289 
L 149.310682 38.359339 
L 149.380449 39.113388 
L 149.451402 39.867438 
L 149.519913 40.621488 
L 149.58149 41.375537 
L 149.631219 42.129587 
L 149.664315 42.883636 
L 149.676701 43.637686 
L 149.665545 44.391736 
L 149.629682 45.145785 
L 149.569852 45.899835 
L 149.488737 46.653884 
L 149.39078 47.407934 
L 149.281802 48.161983 
L 149.168473 48.916033 
L 149.057696 49.670083 
L 148.95597 50.424132 
L 148.868817 51.178182 
L 148.800316 51.932231 
L 148.752818 52.686281 
L 148.726839 53.440331 
L 148.721155 54.19438 
L 148.733058 54.94843 
L 148.758754 55.702479 
L 148.793833 56.456529 
L 148.833759 57.210579 
L 148.87433 57.964628 
L 148.912051 58.718678 
L 148.944397 59.472727 
L 148.969947 60.226777 
L 148.988386 60.980826 
L 149.000409 61.734876 
L 149.007533 62.488926 
L 149.011876 63.242975 
L 149.01591 63.997025 
L 149.022234 64.751074 
L 149.033366 65.505124 
L 149.051565 66.259174 
L 149.078675 67.013223 
L 149.115983 67.767273 
L 149.164082 68.521322 
L 149.222752 69.275372 
L 149.29086 70.029421 
L 149.366301 70.783471 
L 149.446028 71.537521 
L 149.526161 72.29157 
L 149.602218 73.04562 
L 149.669441 73.799669 
L 149.723197 74.553719 
L 149.759406 75.307769 
L 149.774942 76.061818 
L 149.767945 76.815868 
L 149.737995 77.569917 
L 149.686127 78.323967 
L 149.614682 79.078017 
L 149.527023 79.832066 
L 149.427146 80.586116 
L 149.319266 81.340165 
L 149.207412 82.094215 
L 149.095097 82.848264 
L 148.985088 83.602314 
L 148.879295 84.356364 
L 148.778775 85.110413 
L 148.683833 85.864463 
L 148.594196 86.618512 
L 148.509227 87.372562 
L 148.428136 88.126612 
L 148.350178 88.880661 
L 148.274806 89.634711 
L 148.201766 90.38876 
L 148.131127 91.14281 
L 148.063261 91.89686 
L 147.998765 92.650909 
L 147.938351 93.404959 
L 147.882715 94.159008 
L 147.832416 94.913058 
L 147.787764 95.667107 
L 147.748752 96.421157 
L 147.715035 97.175207 
L 147.68595 97.929256 
L 147.66059 98.683306 
L 147.637909 99.437355 
L 147.616845 100.191405 
L 147.596437 100.945455 
L 147.596437 100.945455 
z
" clip-path="url(#p028868ebf9)" style="fill: none; stroke: #fa8072; stroke-opacity: 0.8; stroke-width: 2"/>
   </g>
   <g id="PolyCollection_6">
    <path d="M 173.711897 84.356364 
L 171.825103 84.356364 
L 171.698846 83.811772 
L 171.568893 83.267181 
L 171.437371 82.72259 
L 171.306497 82.177998 
L 171.17844 81.633407 
L 171.05518 81.088815 
L 170.938391 80.544224 
L 170.829337 79.999633 
L 170.728825 79.455041 
L 170.6372 78.91045 
L 170.554383 78.365859 
L 170.479958 77.821267 
L 170.413275 77.276676 
L 170.353566 76.732084 
L 170.30005 76.187493 
L 170.252009 75.642902 
L 170.208826 75.09831 
L 170.169989 74.553719 
L 170.13504 74.009128 
L 170.103518 73.464536 
L 170.074869 72.919945 
L 170.048377 72.375354 
L 170.023119 71.830762 
L 169.997963 71.286171 
L 169.971617 70.741579 
L 169.942736 70.196988 
L 169.91007 69.652397 
L 169.872638 69.107805 
L 169.82991 68.563214 
L 169.781957 68.018623 
L 169.729554 67.474031 
L 169.674205 66.92944 
L 169.618089 66.384848 
L 169.56392 65.840257 
L 169.514741 65.295666 
L 169.473664 64.751074 
L 169.443597 64.206483 
L 169.426987 63.661892 
L 169.425599 63.1173 
L 169.440366 62.572709 
L 169.471316 62.028118 
L 169.517573 61.483526 
L 169.577438 60.938935 
L 169.648527 60.394343 
L 169.727951 59.849752 
L 169.812527 59.305161 
L 169.899007 58.760569 
L 169.984303 58.215978 
L 170.065707 57.671387 
L 170.141087 57.126795 
L 170.209053 56.582204 
L 170.26907 56.037612 
L 170.321515 55.493021 
L 170.367652 54.94843 
L 170.409532 54.403838 
L 170.449801 53.859247 
L 170.491443 53.314656 
L 170.537471 52.770064 
L 170.590597 52.225473 
L 170.652919 51.680882 
L 170.725654 51.13629 
L 170.808969 50.591699 
L 170.901902 50.047107 
L 171.002408 49.502516 
L 171.107503 48.957925 
L 171.2135 48.413333 
L 171.316296 47.868742 
L 171.41169 47.324151 
L 171.495683 46.779559 
L 171.564747 46.234968 
L 171.616044 45.690376 
L 171.647574 45.145785 
L 171.658265 44.601194 
L 171.648003 44.056602 
L 171.617612 43.512011 
L 171.568783 42.96742 
L 171.503977 42.422828 
L 171.42629 41.878237 
L 171.339297 41.333646 
L 171.246875 40.789054 
L 171.153026 40.244463 
L 171.061688 39.699871 
L 170.976577 39.15528 
L 170.901032 38.610689 
L 170.83791 38.066097 
L 170.789503 37.521506 
L 170.757502 36.976915 
L 170.742992 36.432323 
L 170.746469 35.887732 
L 170.767886 35.34314 
L 170.806707 34.798549 
L 170.861968 34.253958 
L 170.932342 33.709366 
L 171.016204 33.164775 
L 171.111691 32.620184 
L 171.216764 32.075592 
L 171.329264 31.531001 
L 171.446966 30.98641 
L 171.567632 30.441818 
L 173.969368 30.441818 
L 173.969368 30.441818 
L 174.090034 30.98641 
L 174.207736 31.531001 
L 174.320236 32.075592 
L 174.425309 32.620184 
L 174.520796 33.164775 
L 174.604658 33.709366 
L 174.675032 34.253958 
L 174.730293 34.798549 
L 174.769114 35.34314 
L 174.790531 35.887732 
L 174.794008 36.432323 
L 174.779498 36.976915 
L 174.747497 37.521506 
L 174.69909 38.066097 
L 174.635968 38.610689 
L 174.560423 39.15528 
L 174.475312 39.699871 
L 174.383974 40.244463 
L 174.290125 40.789054 
L 174.197703 41.333646 
L 174.11071 41.878237 
L 174.033023 42.422828 
L 173.968217 42.96742 
L 173.919388 43.512011 
L 173.888997 44.056602 
L 173.878735 44.601194 
L 173.889426 45.145785 
L 173.920956 45.690376 
L 173.972253 46.234968 
L 174.041317 46.779559 
L 174.12531 47.324151 
L 174.220704 47.868742 
L 174.3235 48.413333 
L 174.429497 48.957925 
L 174.534592 49.502516 
L 174.635098 50.047107 
L 174.728031 50.591699 
L 174.811346 51.13629 
L 174.884081 51.680882 
L 174.946403 52.225473 
L 174.999529 52.770064 
L 175.045557 53.314656 
L 175.087199 53.859247 
L 175.127468 54.403838 
L 175.169348 54.94843 
L 175.215485 55.493021 
L 175.26793 56.037612 
L 175.327947 56.582204 
L 175.395913 57.126795 
L 175.471293 57.671387 
L 175.552697 58.215978 
L 175.637993 58.760569 
L 175.724473 59.305161 
L 175.809049 59.849752 
L 175.888473 60.394343 
L 175.959562 60.938935 
L 176.019427 61.483526 
L 176.065684 62.028118 
L 176.096634 62.572709 
L 176.111401 63.1173 
L 176.110013 63.661892 
L 176.093403 64.206483 
L 176.063336 64.751074 
L 176.022259 65.295666 
L 175.97308 65.840257 
L 175.918911 66.384848 
L 175.862795 66.92944 
L 175.807446 67.474031 
L 175.755043 68.018623 
L 175.70709 68.563214 
L 175.664362 69.107805 
L 175.62693 69.652397 
L 175.594264 70.196988 
L 175.565383 70.741579 
L 175.539037 71.286171 
L 175.513881 71.830762 
L 175.488623 72.375354 
L 175.462131 72.919945 
L 175.433482 73.464536 
L 175.40196 74.009128 
L 175.367011 74.553719 
L 175.328174 75.09831 
L 175.284991 75.642902 
L 175.23695 76.187493 
L 175.183434 76.732084 
L 175.123725 77.276676 
L 175.057042 77.821267 
L 174.982617 78.365859 
L 174.8998 78.91045 
L 174.808175 79.455041 
L 174.707663 79.999633 
L 174.598609 80.544224 
L 174.48182 81.088815 
L 174.35856 81.633407 
L 174.230503 82.177998 
L 174.099629 82.72259 
L 173.968107 83.267181 
L 173.838154 83.811772 
L 173.711897 84.356364 
L 173.711897 84.356364 
z
" clip-path="url(#p028868ebf9)" style="fill: none; stroke: #fa8072; stroke-opacity: 0.8; stroke-width: 2"/>
   </g>
   <g id="PolyCollection_7">
    <path d="M 198.777652 88.503636 
L 197.653348 88.503636 
L 197.602383 87.875262 
L 197.556362 87.246887 
L 197.516885 86.618512 
L 197.485354 85.990138 
L 197.462881 85.361763 
L 197.450204 84.733388 
L 197.447619 84.105014 
L 197.454936 83.476639 
L 197.471465 82.848264 
L 197.496022 82.21989 
L 197.526969 81.591515 
L 197.562273 80.96314 
L 197.599589 80.334766 
L 197.636356 79.706391 
L 197.669903 79.078017 
L 197.69756 78.449642 
L 197.71678 77.821267 
L 197.725247 77.192893 
L 197.720995 76.564518 
L 197.702501 75.936143 
L 197.668785 75.307769 
L 197.619475 74.679394 
L 197.554855 74.051019 
L 197.475884 73.422645 
L 197.384164 72.79427 
L 197.281875 72.165895 
L 197.171664 71.537521 
L 197.056483 70.909146 
L 196.939402 70.280771 
L 196.823407 69.652397 
L 196.711197 69.024022 
L 196.605022 68.395647 
L 196.506563 67.767273 
L 196.416894 67.138898 
L 196.33652 66.510523 
L 196.265485 65.882149 
L 196.203537 65.253774 
L 196.150319 64.625399 
L 196.105548 63.997025 
L 196.069144 63.36865 
L 196.041288 62.740275 
L 196.022394 62.111901 
L 196.01299 61.483526 
L 196.013545 60.855152 
L 196.024254 60.226777 
L 196.04484 59.598402 
L 196.074405 58.970028 
L 196.11136 58.341653 
L 196.153454 57.713278 
L 196.197896 57.084904 
L 196.24156 56.456529 
L 196.281232 55.828154 
L 196.313871 55.19978 
L 196.336849 54.571405 
L 196.348129 53.94303 
L 196.346385 53.314656 
L 196.331042 52.686281 
L 196.302262 52.057906 
L 196.260878 51.429532 
L 196.208307 50.801157 
L 196.146454 50.172782 
L 196.077622 49.544408 
L 196.004424 48.916033 
L 195.929692 48.287658 
L 195.856384 47.659284 
L 195.787455 47.030909 
L 195.725696 46.402534 
L 195.673545 45.77416 
L 195.632862 45.145785 
L 195.604709 44.51741 
L 195.589158 43.889036 
L 195.585166 43.260661 
L 195.590555 42.632287 
L 195.602115 42.003912 
L 195.615844 41.375537 
L 195.627312 40.747163 
L 195.632102 40.118788 
L 195.6263 39.490413 
L 195.606948 38.862039 
L 195.572425 38.233664 
L 195.522686 37.605289 
L 195.459348 36.976915 
L 195.385608 36.34854 
L 195.306001 35.720165 
L 195.22605 35.091791 
L 195.151826 34.463416 
L 195.089489 33.835041 
L 195.044839 33.206667 
L 195.022925 32.578292 
L 195.027724 31.949917 
L 195.061922 31.321543 
L 195.12679 30.693168 
L 195.222158 30.064793 
L 195.346484 29.436419 
L 195.496995 28.808044 
L 195.669892 28.179669 
L 195.860604 27.551295 
L 196.064056 26.92292 
L 196.274953 26.294545 
L 200.156047 26.294545 
L 200.156047 26.294545 
L 200.366944 26.92292 
L 200.570396 27.551295 
L 200.761108 28.179669 
L 200.934005 28.808044 
L 201.084516 29.436419 
L 201.208842 30.064793 
L 201.30421 30.693168 
L 201.369078 31.321543 
L 201.403276 31.949917 
L 201.408075 32.578292 
L 201.386161 33.206667 
L 201.341511 33.835041 
L 201.279174 34.463416 
L 201.20495 35.091791 
L 201.124999 35.720165 
L 201.045392 36.34854 
L 200.971652 36.976915 
L 200.908314 37.605289 
L 200.858575 38.233664 
L 200.824052 38.862039 
L 200.8047 39.490413 
L 200.798898 40.118788 
L 200.803688 40.747163 
L 200.815156 41.375537 
L 200.828885 42.003912 
L 200.840445 42.632287 
L 200.845834 43.260661 
L 200.841842 43.889036 
L 200.826291 44.51741 
L 200.798138 45.145785 
L 200.757455 45.77416 
L 200.705304 46.402534 
L 200.643545 47.030909 
L 200.574616 47.659284 
L 200.501308 48.287658 
L 200.426576 48.916033 
L 200.353378 49.544408 
L 200.284546 50.172782 
L 200.222693 50.801157 
L 200.170122 51.429532 
L 200.128738 52.057906 
L 200.099958 52.686281 
L 200.084615 53.314656 
L 200.082871 53.94303 
L 200.094151 54.571405 
L 200.117129 55.19978 
L 200.149768 55.828154 
L 200.18944 56.456529 
L 200.233104 57.084904 
L 200.277546 57.713278 
L 200.31964 58.341653 
L 200.356595 58.970028 
L 200.38616 59.598402 
L 200.406746 60.226777 
L 200.417455 60.855152 
L 200.41801 61.483526 
L 200.408606 62.111901 
L 200.389712 62.740275 
L 200.361856 63.36865 
L 200.325452 63.997025 
L 200.280681 64.625399 
L 200.227463 65.253774 
L 200.165515 65.882149 
L 200.09448 66.510523 
L 200.014106 67.138898 
L 199.924437 67.767273 
L 199.825978 68.395647 
L 199.719803 69.024022 
L 199.607593 69.652397 
L 199.491598 70.280771 
L 199.374517 70.909146 
L 199.259336 71.537521 
L 199.149125 72.165895 
L 199.046836 72.79427 
L 198.955116 73.422645 
L 198.876145 74.051019 
L 198.811525 74.679394 
L 198.762215 75.307769 
L 198.728499 75.936143 
L 198.710005 76.564518 
L 198.705753 77.192893 
L 198.71422 77.821267 
L 198.73344 78.449642 
L 198.761097 79.078017 
L 198.794644 79.706391 
L 198.831411 80.334766 
L 198.868727 80.96314 
L 198.904031 81.591515 
L 198.934978 82.21989 
L 198.959535 82.848264 
L 198.976064 83.476639 
L 198.983381 84.105014 
L 198.980796 84.733388 
L 198.968119 85.361763 
L 198.945646 85.990138 
L 198.914115 86.618512 
L 198.874638 87.246887 
L 198.828617 87.875262 
L 198.777652 88.503636 
L 198.777652 88.503636 
z
" clip-path="url(#p028868ebf9)" style="fill: none; stroke: #fa8072; stroke-opacity: 0.8; stroke-width: 2"/>
   </g>
   <g id="PolyCollection_8">
    <path d="M 224.241913 84.356364 
L 223.083087 84.356364 
L 223.025437 83.769881 
L 222.971012 83.183398 
L 222.920968 82.596915 
L 222.876162 82.010432 
L 222.837053 81.423949 
L 222.803627 80.837466 
L 222.77536 80.250983 
L 222.751237 79.6645 
L 222.729831 79.078017 
L 222.709448 78.491534 
L 222.688318 77.905051 
L 222.664814 77.318567 
L 222.637665 76.732084 
L 222.606138 76.145601 
L 222.570142 75.559118 
L 222.53025 74.972635 
L 222.487616 74.386152 
L 222.443804 73.799669 
L 222.40056 73.213186 
L 222.359545 72.626703 
L 222.322091 72.04022 
L 222.289004 71.453737 
L 222.260457 70.867254 
L 222.235976 70.280771 
L 222.214531 69.694288 
L 222.194699 69.107805 
L 222.174894 68.521322 
L 222.153605 67.934839 
L 222.129627 67.348356 
L 222.10225 66.761873 
L 222.071387 66.17539 
L 222.037623 65.588907 
L 222.002193 65.002424 
L 221.966879 64.415941 
L 221.933837 63.829458 
L 221.905356 63.242975 
L 221.883564 62.656492 
L 221.870099 62.070009 
L 221.865765 61.483526 
L 221.870217 60.897043 
L 221.881718 60.31056 
L 221.897031 59.724077 
L 221.911479 59.137594 
L 221.91923 58.551111 
L 221.913785 57.964628 
L 221.888671 57.378145 
L 221.838241 56.791662 
L 221.758488 56.205179 
L 221.647751 55.618696 
L 221.507176 55.032213 
L 221.340859 54.44573 
L 221.15559 53.859247 
L 220.960244 53.272764 
L 220.764877 52.686281 
L 220.579663 52.099798 
L 220.41383 51.513315 
L 220.274765 50.926832 
L 220.167405 50.340349 
L 220.094003 49.753866 
L 220.054265 49.167383 
L 220.045816 48.5809 
L 220.064869 47.994417 
L 220.106971 47.407934 
L 220.167685 46.821451 
L 220.243084 46.234968 
L 220.329993 45.648485 
L 220.425966 45.062002 
L 220.529033 44.475519 
L 220.637296 43.889036 
L 220.748497 43.302553 
L 220.859659 42.71607 
L 220.966914 42.129587 
L 221.065568 41.543104 
L 221.150419 40.956621 
L 221.216303 40.370138 
L 221.258757 39.783655 
L 221.274713 39.197172 
L 221.263084 38.610689 
L 221.225133 38.024206 
L 221.164566 37.437723 
L 221.08731 36.85124 
L 221.001015 36.264757 
L 220.914358 35.678274 
L 220.836235 35.091791 
L 220.77497 34.505308 
L 220.737641 33.918825 
L 220.729573 33.332342 
L 220.754059 32.745859 
L 220.812294 32.159376 
L 220.90349 31.572893 
L 221.025133 30.98641 
L 221.173324 30.399927 
L 221.343163 29.813444 
L 221.529131 29.226961 
L 221.72546 28.640478 
L 221.92646 28.053994 
L 222.126797 27.467511 
L 222.321725 26.881028 
L 222.507246 26.294545 
L 224.817754 26.294545 
L 224.817754 26.294545 
L 225.003275 26.881028 
L 225.198203 27.467511 
L 225.39854 28.053994 
L 225.59954 28.640478 
L 225.795869 29.226961 
L 225.981837 29.813444 
L 226.151676 30.399927 
L 226.299867 30.98641 
L 226.42151 31.572893 
L 226.512706 32.159376 
L 226.570941 32.745859 
L 226.595427 33.332342 
L 226.587359 33.918825 
L 226.55003 34.505308 
L 226.488765 35.091791 
L 226.410642 35.678274 
L 226.323985 36.264757 
L 226.23769 36.85124 
L 226.160434 37.437723 
L 226.099867 38.024206 
L 226.061916 38.610689 
L 226.050287 39.197172 
L 226.066243 39.783655 
L 226.108697 40.370138 
L 226.174581 40.956621 
L 226.259432 41.543104 
L 226.358086 42.129587 
L 226.465341 42.71607 
L 226.576503 43.302553 
L 226.687704 43.889036 
L 226.795967 44.475519 
L 226.899034 45.062002 
L 226.995007 45.648485 
L 227.081916 46.234968 
L 227.157315 46.821451 
L 227.218029 47.407934 
L 227.260131 47.994417 
L 227.279184 48.5809 
L 227.270735 49.167383 
L 227.230997 49.753866 
L 227.157595 50.340349 
L 227.050235 50.926832 
L 226.91117 51.513315 
L 226.745337 52.099798 
L 226.560123 52.686281 
L 226.364756 53.272764 
L 226.16941 53.859247 
L 225.984141 54.44573 
L 225.817824 55.032213 
L 225.677249 55.618696 
L 225.566512 56.205179 
L 225.486759 56.791662 
L 225.436329 57.378145 
L 225.411215 57.964628 
L 225.40577 58.551111 
L 225.413521 59.137594 
L 225.427969 59.724077 
L 225.443282 60.31056 
L 225.454783 60.897043 
L 225.459235 61.483526 
L 225.454901 62.070009 
L 225.441436 62.656492 
L 225.419644 63.242975 
L 225.391163 63.829458 
L 225.358121 64.415941 
L 225.322807 65.002424 
L 225.287377 65.588907 
L 225.253613 66.17539 
L 225.22275 66.761873 
L 225.195373 67.348356 
L 225.171395 67.934839 
L 225.150106 68.521322 
L 225.130301 69.107805 
L 225.110469 69.694288 
L 225.089024 70.280771 
L 225.064543 70.867254 
L 225.035996 71.453737 
L 225.002909 72.04022 
L 224.965455 72.626703 
L 224.92444 73.213186 
L 224.881196 73.799669 
L 224.837384 74.386152 
L 224.79475 74.972635 
L 224.754858 75.559118 
L 224.718862 76.145601 
L 224.687335 76.732084 
L 224.660186 77.318567 
L 224.636682 77.905051 
L 224.615552 78.491534 
L 224.595169 79.078017 
L 224.573763 79.6645 
L 224.54964 80.250983 
L 224.521373 80.837466 
L 224.487947 81.423949 
L 224.448838 82.010432 
L 224.404032 82.596915 
L 224.353988 83.183398 
L 224.299563 83.769881 
L 224.241913 84.356364 
L 224.241913 84.356364 
z
" clip-path="url(#p028868ebf9)" style="fill: none; stroke: #fa8072; stroke-opacity: 0.8; stroke-width: 2"/>
   </g>
   <g id="PolyCollection_9">
    <path d="M 249.719722 84.356364 
L 248.499278 84.356364 
L 248.48065 83.769881 
L 248.467875 83.183398 
L 248.458329 82.596915 
L 248.448976 82.010432 
L 248.436885 81.423949 
L 248.41977 80.837466 
L 248.396444 80.250983 
L 248.367122 79.6645 
L 248.333479 79.078017 
L 248.298471 78.491534 
L 248.265907 77.905051 
L 248.239867 77.318567 
L 248.224043 76.732084 
L 248.221125 76.145601 
L 248.232326 75.559118 
L 248.257136 74.972635 
L 248.293327 74.386152 
L 248.337197 73.799669 
L 248.38401 73.213186 
L 248.428535 72.626703 
L 248.465597 72.04022 
L 248.490563 71.453737 
L 248.499686 70.867254 
L 248.490292 70.280771 
L 248.46082 69.694288 
L 248.410721 69.107805 
L 248.340287 68.521322 
L 248.250448 67.934839 
L 248.142575 67.348356 
L 248.01833 66.761873 
L 247.87957 66.17539 
L 247.728305 65.588907 
L 247.566706 65.002424 
L 247.397144 64.415941 
L 247.222234 63.829458 
L 247.044869 63.242975 
L 246.868214 62.656492 
L 246.69566 62.070009 
L 246.530721 61.483526 
L 246.376882 60.897043 
L 246.237417 60.31056 
L 246.1152 59.724077 
L 246.012515 59.137594 
L 245.930918 58.551111 
L 245.871123 57.964628 
L 245.832945 57.378145 
L 245.815288 56.791662 
L 245.816168 56.205179 
L 245.832785 55.618696 
L 245.861639 55.032213 
L 245.898706 54.44573 
L 245.939673 53.859247 
L 245.980232 53.272764 
L 246.016411 52.686281 
L 246.044915 52.099798 
L 246.063423 51.513315 
L 246.070799 50.926832 
L 246.067182 50.340349 
L 246.053919 49.753866 
L 246.033362 49.167383 
L 246.008537 48.5809 
L 245.982752 47.994417 
L 245.95919 47.407934 
L 245.940564 46.821451 
L 245.928874 46.234968 
L 245.925298 45.648485 
L 245.93023 45.062002 
L 245.943422 44.475519 
L 245.964212 43.889036 
L 245.991767 43.302553 
L 246.025302 42.71607 
L 246.064237 42.129587 
L 246.108252 41.543104 
L 246.157253 40.956621 
L 246.211258 40.370138 
L 246.270222 39.783655 
L 246.333862 39.197172 
L 246.401511 38.610689 
L 246.472042 38.024206 
L 246.543899 37.437723 
L 246.615225 36.85124 
L 246.684091 36.264757 
L 246.74877 35.678274 
L 246.808033 35.091791 
L 246.861383 34.505308 
L 246.909215 33.918825 
L 246.952838 33.332342 
L 246.994371 32.745859 
L 247.03652 32.159376 
L 247.082265 31.572893 
L 247.134515 30.98641 
L 247.195777 30.399927 
L 247.26789 29.813444 
L 247.351847 29.226961 
L 247.447732 28.640478 
L 247.554748 28.053994 
L 247.671334 27.467511 
L 247.795322 26.881028 
L 247.924129 26.294545 
L 250.294871 26.294545 
L 250.294871 26.294545 
L 250.423678 26.881028 
L 250.547666 27.467511 
L 250.664252 28.053994 
L 250.771268 28.640478 
L 250.867153 29.226961 
L 250.95111 29.813444 
L 251.023223 30.399927 
L 251.084485 30.98641 
L 251.136735 31.572893 
L 251.18248 32.159376 
L 251.224629 32.745859 
L 251.266162 33.332342 
L 251.309785 33.918825 
L 251.357617 34.505308 
L 251.410967 35.091791 
L 251.47023 35.678274 
L 251.534909 36.264757 
L 251.603775 36.85124 
L 251.675101 37.437723 
L 251.746958 38.024206 
L 251.817489 38.610689 
L 251.885138 39.197172 
L 251.948778 39.783655 
L 252.007742 40.370138 
L 252.061747 40.956621 
L 252.110748 41.543104 
L 252.154763 42.129587 
L 252.193698 42.71607 
L 252.227233 43.302553 
L 252.254788 43.889036 
L 252.275578 44.475519 
L 252.28877 45.062002 
L 252.293702 45.648485 
L 252.290126 46.234968 
L 252.278436 46.821451 
L 252.25981 47.407934 
L 252.236248 47.994417 
L 252.210463 48.5809 
L 252.185638 49.167383 
L 252.165081 49.753866 
L 252.151818 50.340349 
L 252.148201 50.926832 
L 252.155577 51.513315 
L 252.174085 52.099798 
L 252.202589 52.686281 
L 252.238768 53.272764 
L 252.279327 53.859247 
L 252.320294 54.44573 
L 252.357361 55.032213 
L 252.386215 55.618696 
L 252.402832 56.205179 
L 252.403712 56.791662 
L 252.386055 57.378145 
L 252.347877 57.964628 
L 252.288082 58.551111 
L 252.206485 59.137594 
L 252.1038 59.724077 
L 251.981583 60.31056 
L 251.842118 60.897043 
L 251.688279 61.483526 
L 251.52334 62.070009 
L 251.350786 62.656492 
L 251.174131 63.242975 
L 250.996766 63.829458 
L 250.821856 64.415941 
L 250.652294 65.002424 
L 250.490695 65.588907 
L 250.33943 66.17539 
L 250.20067 66.761873 
L 250.076425 67.348356 
L 249.968552 67.934839 
L 249.878713 68.521322 
L 249.808279 69.107805 
L 249.75818 69.694288 
L 249.728708 70.280771 
L 249.719314 70.867254 
L 249.728437 71.453737 
L 249.753403 72.04022 
L 249.790465 72.626703 
L 249.83499 73.213186 
L 249.881803 73.799669 
L 249.925673 74.386152 
L 249.961864 74.972635 
L 249.986674 75.559118 
L 249.997875 76.145601 
L 249.994957 76.732084 
L 249.979133 77.318567 
L 249.953093 77.905051 
L 249.920529 78.491534 
L 249.885521 79.078017 
L 249.851878 79.6645 
L 249.822556 80.250983 
L 249.79923 80.837466 
L 249.782115 81.423949 
L 249.770024 82.010432 
L 249.760671 82.596915 
L 249.751125 83.183398 
L 249.73835 83.769881 
L 249.719722 84.356364 
L 249.719722 84.356364 
z
" clip-path="url(#p028868ebf9)" style="fill: none; stroke: #fa8072; stroke-opacity: 0.8; stroke-width: 2"/>
   </g>
   <g id="PolyCollection_10">
    <path d="M 275.19194 71.914545 
L 273.92106 71.914545 
L 273.846796 71.411846 
L 273.769112 70.909146 
L 273.68804 70.406446 
L 273.603609 69.903747 
L 273.515891 69.401047 
L 273.425052 68.898347 
L 273.331403 68.395647 
L 273.23544 67.892948 
L 273.137864 67.390248 
L 273.039583 66.887548 
L 272.941684 66.384848 
L 272.845376 65.882149 
L 272.751907 65.379449 
L 272.662474 64.876749 
L 272.578122 64.37405 
L 272.499656 63.87135 
L 272.427592 63.36865 
L 272.362129 62.86595 
L 272.303175 62.363251 
L 272.250421 61.860551 
L 272.203433 61.357851 
L 272.161785 60.855152 
L 272.12518 60.352452 
L 272.093563 59.849752 
L 272.067202 59.347052 
L 272.046714 58.844353 
L 272.033042 58.341653 
L 272.027365 57.838953 
L 272.030961 57.336253 
L 272.045019 56.833554 
L 272.070439 56.330854 
L 272.107631 55.828154 
L 272.156352 55.325455 
L 272.215607 54.822755 
L 272.283621 54.320055 
L 272.357912 53.817355 
L 272.43544 53.314656 
L 272.512824 52.811956 
L 272.586603 52.309256 
L 272.653493 51.806556 
L 272.710626 51.303857 
L 272.755725 50.801157 
L 272.787204 50.298457 
L 272.804198 49.795758 
L 272.806497 49.293058 
L 272.794441 48.790358 
L 272.768766 48.287658 
L 272.730438 47.784959 
L 272.680504 47.282259 
L 272.619974 46.779559 
L 272.549752 46.27686 
L 272.470617 45.77416 
L 272.383254 45.27146 
L 272.288331 44.76876 
L 272.186604 44.266061 
L 272.079022 43.763361 
L 271.966838 43.260661 
L 271.851667 42.757961 
L 271.735513 42.255262 
L 271.620716 41.752562 
L 271.509846 41.249862 
L 271.405516 40.747163 
L 271.310166 40.244463 
L 271.225809 39.741763 
L 271.153807 39.239063 
L 271.094696 38.736364 
L 271.048098 38.233664 
L 271.01275 37.730964 
L 270.986658 37.228264 
L 270.967363 36.725565 
L 270.952289 36.222865 
L 270.939143 35.720165 
L 270.926295 35.217466 
L 270.913093 34.714766 
L 270.900073 34.212066 
L 270.889 33.709366 
L 270.882757 33.206667 
L 270.885053 32.703967 
L 270.900005 32.201267 
L 270.931624 31.698567 
L 270.983285 31.195868 
L 271.057242 30.693168 
L 271.154262 30.190468 
L 271.27344 29.687769 
L 271.412209 29.185069 
L 271.566567 28.682369 
L 271.731481 28.179669 
L 271.901409 27.67697 
L 272.070877 27.17427 
L 272.235033 26.67157 
L 272.390096 26.168871 
L 272.533655 25.666171 
L 272.664788 25.163471 
L 272.783984 24.660771 
L 272.892912 24.158072 
L 272.994058 23.655372 
L 273.090299 23.152672 
L 273.184474 22.649972 
L 273.278991 22.147273 
L 275.834009 22.147273 
L 275.834009 22.147273 
L 275.928526 22.649972 
L 276.022701 23.152672 
L 276.118942 23.655372 
L 276.220088 24.158072 
L 276.329016 24.660771 
L 276.448212 25.163471 
L 276.579345 25.666171 
L 276.722904 26.168871 
L 276.877967 26.67157 
L 277.042123 27.17427 
L 277.211591 27.67697 
L 277.381519 28.179669 
L 277.546433 28.682369 
L 277.700791 29.185069 
L 277.83956 29.687769 
L 277.958738 30.190468 
L 278.055758 30.693168 
L 278.129715 31.195868 
L 278.181376 31.698567 
L 278.212995 32.201267 
L 278.227947 32.703967 
L 278.230243 33.206667 
L 278.224 33.709366 
L 278.212927 34.212066 
L 278.199907 34.714766 
L 278.186705 35.217466 
L 278.173857 35.720165 
L 278.160711 36.222865 
L 278.145637 36.725565 
L 278.126342 37.228264 
L 278.10025 37.730964 
L 278.064902 38.233664 
L 278.018304 38.736364 
L 277.959193 39.239063 
L 277.887191 39.741763 
L 277.802834 40.244463 
L 277.707484 40.747163 
L 277.603154 41.249862 
L 277.492284 41.752562 
L 277.377487 42.255262 
L 277.261333 42.757961 
L 277.146162 43.260661 
L 277.033978 43.763361 
L 276.926396 44.266061 
L 276.824669 44.76876 
L 276.729746 45.27146 
L 276.642383 45.77416 
L 276.563248 46.27686 
L 276.493026 46.779559 
L 276.432496 47.282259 
L 276.382562 47.784959 
L 276.344234 48.287658 
L 276.318559 48.790358 
L 276.306503 49.293058 
L 276.308802 49.795758 
L 276.325796 50.298457 
L 276.357275 50.801157 
L 276.402374 51.303857 
L 276.459507 51.806556 
L 276.526397 52.309256 
L 276.600176 52.811956 
L 276.67756 53.314656 
L 276.755088 53.817355 
L 276.829379 54.320055 
L 276.897393 54.822755 
L 276.956648 55.325455 
L 277.005369 55.828154 
L 277.042561 56.330854 
L 277.067981 56.833554 
L 277.082039 57.336253 
L 277.085635 57.838953 
L 277.079958 58.341653 
L 277.066286 58.844353 
L 277.045798 59.347052 
L 277.019437 59.849752 
L 276.98782 60.352452 
L 276.951215 60.855152 
L 276.909567 61.357851 
L 276.862579 61.860551 
L 276.809825 62.363251 
L 276.750871 62.86595 
L 276.685408 63.36865 
L 276.613344 63.87135 
L 276.534878 64.37405 
L 276.450526 64.876749 
L 276.361093 65.379449 
L 276.267624 65.882149 
L 276.171316 66.384848 
L 276.073417 66.887548 
L 275.975136 67.390248 
L 275.87756 67.892948 
L 275.781597 68.395647 
L 275.687948 68.898347 
L 275.597109 69.401047 
L 275.509391 69.903747 
L 275.42496 70.406446 
L 275.343888 70.909146 
L 275.266204 71.411846 
L 275.19194 71.914545 
L 275.19194 71.914545 
z
" clip-path="url(#p028868ebf9)" style="fill: none; stroke: #fa8072; stroke-opacity: 0.8; stroke-width: 2"/>
   </g>
   <g id="matplotlib.axis_1">
    <g id="xtick_1">
     <g id="line2d_1">
      <defs>
       <path id="m6e180f5727" d="M 0 0 
L 0 3.5 
" style="stroke: #000000; stroke-width: 0.8"/>
      </defs>
      <g>
       <use xlink:href="#m6e180f5727" x="45.5335" y="109.24" style="stroke: #000000; stroke-width: 0.8"/>
      </g>
     </g>
     <g id="text_1">
      <!-- 1 -->
      <g transform="translate(43.62475 120.799063) scale(0.06 -0.06)">
       <defs>
        <path id="DejaVuSans-31" d="M 794 531 
L 1825 531 
L 1825 4091 
L 703 3866 
L 703 4441 
L 1819 4666 
L 2450 4666 
L 2450 531 
L 3481 531 
L 3481 0 
L 794 0 
L 794 531 
z
" transform="scale(0.015625)"/>
       </defs>
       <use xlink:href="#DejaVuSans-31"/>
      </g>
     </g>
    </g>
    <g id="xtick_2">
     <g id="line2d_2">
      <g>
       <use xlink:href="#m6e180f5727" x="70.9805" y="109.24" style="stroke: #000000; stroke-width: 0.8"/>
      </g>
     </g>
     <g id="text_2">
      <!-- 2 -->
      <g transform="translate(69.07175 120.799063) scale(0.06 -0.06)">
       <defs>
        <path id="DejaVuSans-32" d="M 1228 531 
L 3431 531 
L 3431 0 
L 469 0 
L 469 531 
Q 828 903 1448 1529 
Q 2069 2156 2228 2338 
Q 2531 2678 2651 2914 
Q 2772 3150 2772 3378 
Q 2772 3750 2511 3984 
Q 2250 4219 1831 4219 
Q 1534 4219 1204 4116 
Q 875 4013 500 3803 
L 500 4441 
Q 881 4594 1212 4672 
Q 1544 4750 1819 4750 
Q 2544 4750 2975 4387 
Q 3406 4025 3406 3419 
Q 3406 3131 3298 2873 
Q 3191 2616 2906 2266 
Q 2828 2175 2409 1742 
Q 1991 1309 1228 531 
z
" transform="scale(0.015625)"/>
       </defs>
       <use xlink:href="#DejaVuSans-32"/>
      </g>
     </g>
    </g>
    <g id="xtick_3">
     <g id="line2d_3">
      <g>
       <use xlink:href="#m6e180f5727" x="96.4275" y="109.24" style="stroke: #000000; stroke-width: 0.8"/>
      </g>
     </g>
     <g id="text_3">
      <!-- 3 -->
      <g transform="translate(94.51875 120.799063) scale(0.06 -0.06)">
       <defs>
        <path id="DejaVuSans-33" d="M 2597 2516 
Q 3050 2419 3304 2112 
Q 3559 1806 3559 1356 
Q 3559 666 3084 287 
Q 2609 -91 1734 -91 
Q 1441 -91 1130 -33 
Q 819 25 488 141 
L 488 750 
Q 750 597 1062 519 
Q 1375 441 1716 441 
Q 2309 441 2620 675 
Q 2931 909 2931 1356 
Q 2931 1769 2642 2001 
Q 2353 2234 1838 2234 
L 1294 2234 
L 1294 2753 
L 1863 2753 
Q 2328 2753 2575 2939 
Q 2822 3125 2822 3475 
Q 2822 3834 2567 4026 
Q 2313 4219 1838 4219 
Q 1578 4219 1281 4162 
Q 984 4106 628 3988 
L 628 4550 
Q 988 4650 1302 4700 
Q 1616 4750 1894 4750 
Q 2613 4750 3031 4423 
Q 3450 4097 3450 3541 
Q 3450 3153 3228 2886 
Q 3006 2619 2597 2516 
z
" transform="scale(0.015625)"/>
       </defs>
       <use xlink:href="#DejaVuSans-33"/>
      </g>
     </g>
    </g>
    <g id="xtick_4">
     <g id="line2d_4">
      <g>
       <use xlink:href="#m6e180f5727" x="121.8745" y="109.24" style="stroke: #000000; stroke-width: 0.8"/>
      </g>
     </g>
     <g id="text_4">
      <!-- 4 -->
      <g transform="translate(119.96575 120.799063) scale(0.06 -0.06)">
       <defs>
        <path id="DejaVuSans-34" d="M 2419 4116 
L 825 1625 
L 2419 1625 
L 2419 4116 
z
M 2253 4666 
L 3047 4666 
L 3047 1625 
L 3713 1625 
L 3713 1100 
L 3047 1100 
L 3047 0 
L 2419 0 
L 2419 1100 
L 313 1100 
L 313 1709 
L 2253 4666 
z
" transform="scale(0.015625)"/>
       </defs>
       <use xlink:href="#DejaVuSans-34"/>
      </g>
     </g>
    </g>
    <g id="xtick_5">
     <g id="line2d_5">
      <g>
       <use xlink:href="#m6e180f5727" x="147.3215" y="109.24" style="stroke: #000000; stroke-width: 0.8"/>
      </g>
     </g>
     <g id="text_5">
      <!-- 5 -->
      <g transform="translate(145.41275 120.799063) scale(0.06 -0.06)">
       <defs>
        <path id="DejaVuSans-35" d="M 691 4666 
L 3169 4666 
L 3169 4134 
L 1269 4134 
L 1269 2991 
Q 1406 3038 1543 3061 
Q 1681 3084 1819 3084 
Q 2600 3084 3056 2656 
Q 3513 2228 3513 1497 
Q 3513 744 3044 326 
Q 2575 -91 1722 -91 
Q 1428 -91 1123 -41 
Q 819 9 494 109 
L 494 744 
Q 775 591 1075 516 
Q 1375 441 1709 441 
Q 2250 441 2565 725 
Q 2881 1009 2881 1497 
Q 2881 1984 2565 2268 
Q 2250 2553 1709 2553 
Q 1456 2553 1204 2497 
Q 953 2441 691 2322 
L 691 4666 
z
" transform="scale(0.015625)"/>
       </defs>
       <use xlink:href="#DejaVuSans-35"/>
      </g>
     </g>
    </g>
    <g id="xtick_6">
     <g id="line2d_6">
      <g>
       <use xlink:href="#m6e180f5727" x="172.7685" y="109.24" style="stroke: #000000; stroke-width: 0.8"/>
      </g>
     </g>
     <g id="text_6">
      <!-- 6 -->
      <g transform="translate(170.85975 120.799063) scale(0.06 -0.06)">
       <defs>
        <path id="DejaVuSans-36" d="M 2113 2584 
Q 1688 2584 1439 2293 
Q 1191 2003 1191 1497 
Q 1191 994 1439 701 
Q 1688 409 2113 409 
Q 2538 409 2786 701 
Q 3034 994 3034 1497 
Q 3034 2003 2786 2293 
Q 2538 2584 2113 2584 
z
M 3366 4563 
L 3366 3988 
Q 3128 4100 2886 4159 
Q 2644 4219 2406 4219 
Q 1781 4219 1451 3797 
Q 1122 3375 1075 2522 
Q 1259 2794 1537 2939 
Q 1816 3084 2150 3084 
Q 2853 3084 3261 2657 
Q 3669 2231 3669 1497 
Q 3669 778 3244 343 
Q 2819 -91 2113 -91 
Q 1303 -91 875 529 
Q 447 1150 447 2328 
Q 447 3434 972 4092 
Q 1497 4750 2381 4750 
Q 2619 4750 2861 4703 
Q 3103 4656 3366 4563 
z
" transform="scale(0.015625)"/>
       </defs>
       <use xlink:href="#DejaVuSans-36"/>
      </g>
     </g>
    </g>
    <g id="xtick_7">
     <g id="line2d_7">
      <g>
       <use xlink:href="#m6e180f5727" x="198.2155" y="109.24" style="stroke: #000000; stroke-width: 0.8"/>
      </g>
     </g>
     <g id="text_7">
      <!-- 7 -->
      <g transform="translate(196.30675 120.799063) scale(0.06 -0.06)">
       <defs>
        <path id="DejaVuSans-37" d="M 525 4666 
L 3525 4666 
L 3525 4397 
L 1831 0 
L 1172 0 
L 2766 4134 
L 525 4134 
L 525 4666 
z
" transform="scale(0.015625)"/>
       </defs>
       <use xlink:href="#DejaVuSans-37"/>
      </g>
     </g>
    </g>
    <g id="xtick_8">
     <g id="line2d_8">
      <g>
       <use xlink:href="#m6e180f5727" x="223.6625" y="109.24" style="stroke: #000000; stroke-width: 0.8"/>
      </g>
     </g>
     <g id="text_8">
      <!-- 8 -->
      <g transform="translate(221.75375 120.799063) scale(0.06 -0.06)">
       <defs>
        <path id="DejaVuSans-38" d="M 2034 2216 
Q 1584 2216 1326 1975 
Q 1069 1734 1069 1313 
Q 1069 891 1326 650 
Q 1584 409 2034 409 
Q 2484 409 2743 651 
Q 3003 894 3003 1313 
Q 3003 1734 2745 1975 
Q 2488 2216 2034 2216 
z
M 1403 2484 
Q 997 2584 770 2862 
Q 544 3141 544 3541 
Q 544 4100 942 4425 
Q 1341 4750 2034 4750 
Q 2731 4750 3128 4425 
Q 3525 4100 3525 3541 
Q 3525 3141 3298 2862 
Q 3072 2584 2669 2484 
Q 3125 2378 3379 2068 
Q 3634 1759 3634 1313 
Q 3634 634 3220 271 
Q 2806 -91 2034 -91 
Q 1263 -91 848 271 
Q 434 634 434 1313 
Q 434 1759 690 2068 
Q 947 2378 1403 2484 
z
M 1172 3481 
Q 1172 3119 1398 2916 
Q 1625 2713 2034 2713 
Q 2441 2713 2670 2916 
Q 2900 3119 2900 3481 
Q 2900 3844 2670 4047 
Q 2441 4250 2034 4250 
Q 1625 4250 1398 4047 
Q 1172 3844 1172 3481 
z
" transform="scale(0.015625)"/>
       </defs>
       <use xlink:href="#DejaVuSans-38"/>
      </g>
     </g>
    </g>
    <g id="xtick_9">
     <g id="line2d_9">
      <g>
       <use xlink:href="#m6e180f5727" x="249.1095" y="109.24" style="stroke: #000000; stroke-width: 0.8"/>
      </g>
     </g>
     <g id="text_9">
      <!-- 9 -->
      <g transform="translate(247.20075 120.799063) scale(0.06 -0.06)">
       <defs>
        <path id="DejaVuSans-39" d="M 703 97 
L 703 672 
Q 941 559 1184 500 
Q 1428 441 1663 441 
Q 2288 441 2617 861 
Q 2947 1281 2994 2138 
Q 2813 1869 2534 1725 
Q 2256 1581 1919 1581 
Q 1219 1581 811 2004 
Q 403 2428 403 3163 
Q 403 3881 828 4315 
Q 1253 4750 1959 4750 
Q 2769 4750 3195 4129 
Q 3622 3509 3622 2328 
Q 3622 1225 3098 567 
Q 2575 -91 1691 -91 
Q 1453 -91 1209 -44 
Q 966 3 703 97 
z
M 1959 2075 
Q 2384 2075 2632 2365 
Q 2881 2656 2881 3163 
Q 2881 3666 2632 3958 
Q 2384 4250 1959 4250 
Q 1534 4250 1286 3958 
Q 1038 3666 1038 3163 
Q 1038 2656 1286 2365 
Q 1534 2075 1959 2075 
z
" transform="scale(0.015625)"/>
       </defs>
       <use xlink:href="#DejaVuSans-39"/>
      </g>
     </g>
    </g>
    <g id="xtick_10">
     <g id="line2d_10">
      <g>
       <use xlink:href="#m6e180f5727" x="274.5565" y="109.24" style="stroke: #000000; stroke-width: 0.8"/>
      </g>
     </g>
     <g id="text_10">
      <!-- 10 -->
      <g transform="translate(270.739 120.799063) scale(0.06 -0.06)">
       <defs>
        <path id="DejaVuSans-30" d="M 2034 4250 
Q 1547 4250 1301 3770 
Q 1056 3291 1056 2328 
Q 1056 1369 1301 889 
Q 1547 409 2034 409 
Q 2525 409 2770 889 
Q 3016 1369 3016 2328 
Q 3016 3291 2770 3770 
Q 2525 4250 2034 4250 
z
M 2034 4750 
Q 2819 4750 3233 4129 
Q 3647 3509 3647 2328 
Q 3647 1150 3233 529 
Q 2819 -91 2034 -91 
Q 1250 -91 836 529 
Q 422 1150 422 2328 
Q 422 3509 836 4129 
Q 1250 4750 2034 4750 
z
" transform="scale(0.015625)"/>
       </defs>
       <use xlink:href="#DejaVuSans-31"/>
       <use xlink:href="#DejaVuSans-30" x="63.623047"/>
      </g>
     </g>
    </g>
    <g id="text_11">
     <!-- Number of Mice in Treatment Group -->
     <g transform="translate(106.289219 130.605938) scale(0.06 -0.06)">
      <defs>
       <path id="DejaVuSans-4e" d="M 628 4666 
L 1478 4666 
L 3547 763 
L 3547 4666 
L 4159 4666 
L 4159 0 
L 3309 0 
L 1241 3903 
L 1241 0 
L 628 0 
L 628 4666 
z
" transform="scale(0.015625)"/>
       <path id="DejaVuSans-75" d="M 544 1381 
L 544 3500 
L 1119 3500 
L 1119 1403 
Q 1119 906 1312 657 
Q 1506 409 1894 409 
Q 2359 409 2629 706 
Q 2900 1003 2900 1516 
L 2900 3500 
L 3475 3500 
L 3475 0 
L 2900 0 
L 2900 538 
Q 2691 219 2414 64 
Q 2138 -91 1772 -91 
Q 1169 -91 856 284 
Q 544 659 544 1381 
z
M 1991 3584 
L 1991 3584 
z
" transform="scale(0.015625)"/>
       <path id="DejaVuSans-6d" d="M 3328 2828 
Q 3544 3216 3844 3400 
Q 4144 3584 4550 3584 
Q 5097 3584 5394 3201 
Q 5691 2819 5691 2113 
L 5691 0 
L 5113 0 
L 5113 2094 
Q 5113 2597 4934 2840 
Q 4756 3084 4391 3084 
Q 3944 3084 3684 2787 
Q 3425 2491 3425 1978 
L 3425 0 
L 2847 0 
L 2847 2094 
Q 2847 2600 2669 2842 
Q 2491 3084 2119 3084 
Q 1678 3084 1418 2786 
Q 1159 2488 1159 1978 
L 1159 0 
L 581 0 
L 581 3500 
L 1159 3500 
L 1159 2956 
Q 1356 3278 1631 3431 
Q 1906 3584 2284 3584 
Q 2666 3584 2933 3390 
Q 3200 3197 3328 2828 
z
" transform="scale(0.015625)"/>
       <path id="DejaVuSans-62" d="M 3116 1747 
Q 3116 2381 2855 2742 
Q 2594 3103 2138 3103 
Q 1681 3103 1420 2742 
Q 1159 2381 1159 1747 
Q 1159 1113 1420 752 
Q 1681 391 2138 391 
Q 2594 391 2855 752 
Q 3116 1113 3116 1747 
z
M 1159 2969 
Q 1341 3281 1617 3432 
Q 1894 3584 2278 3584 
Q 2916 3584 3314 3078 
Q 3713 2572 3713 1747 
Q 3713 922 3314 415 
Q 2916 -91 2278 -91 
Q 1894 -91 1617 61 
Q 1341 213 1159 525 
L 1159 0 
L 581 0 
L 581 4863 
L 1159 4863 
L 1159 2969 
z
" transform="scale(0.015625)"/>
       <path id="DejaVuSans-65" d="M 3597 1894 
L 3597 1613 
L 953 1613 
Q 991 1019 1311 708 
Q 1631 397 2203 397 
Q 2534 397 2845 478 
Q 3156 559 3463 722 
L 3463 178 
Q 3153 47 2828 -22 
Q 2503 -91 2169 -91 
Q 1331 -91 842 396 
Q 353 884 353 1716 
Q 353 2575 817 3079 
Q 1281 3584 2069 3584 
Q 2775 3584 3186 3129 
Q 3597 2675 3597 1894 
z
M 3022 2063 
Q 3016 2534 2758 2815 
Q 2500 3097 2075 3097 
Q 1594 3097 1305 2825 
Q 1016 2553 972 2059 
L 3022 2063 
z
" transform="scale(0.015625)"/>
       <path id="DejaVuSans-72" d="M 2631 2963 
Q 2534 3019 2420 3045 
Q 2306 3072 2169 3072 
Q 1681 3072 1420 2755 
Q 1159 2438 1159 1844 
L 1159 0 
L 581 0 
L 581 3500 
L 1159 3500 
L 1159 2956 
Q 1341 3275 1631 3429 
Q 1922 3584 2338 3584 
Q 2397 3584 2469 3576 
Q 2541 3569 2628 3553 
L 2631 2963 
z
" transform="scale(0.015625)"/>
       <path id="DejaVuSans-20" transform="scale(0.015625)"/>
       <path id="DejaVuSans-6f" d="M 1959 3097 
Q 1497 3097 1228 2736 
Q 959 2375 959 1747 
Q 959 1119 1226 758 
Q 1494 397 1959 397 
Q 2419 397 2687 759 
Q 2956 1122 2956 1747 
Q 2956 2369 2687 2733 
Q 2419 3097 1959 3097 
z
M 1959 3584 
Q 2709 3584 3137 3096 
Q 3566 2609 3566 1747 
Q 3566 888 3137 398 
Q 2709 -91 1959 -91 
Q 1206 -91 779 398 
Q 353 888 353 1747 
Q 353 2609 779 3096 
Q 1206 3584 1959 3584 
z
" transform="scale(0.015625)"/>
       <path id="DejaVuSans-66" d="M 2375 4863 
L 2375 4384 
L 1825 4384 
Q 1516 4384 1395 4259 
Q 1275 4134 1275 3809 
L 1275 3500 
L 2222 3500 
L 2222 3053 
L 1275 3053 
L 1275 0 
L 697 0 
L 697 3053 
L 147 3053 
L 147 3500 
L 697 3500 
L 697 3744 
Q 697 4328 969 4595 
Q 1241 4863 1831 4863 
L 2375 4863 
z
" transform="scale(0.015625)"/>
       <path id="DejaVuSans-4d" d="M 628 4666 
L 1569 4666 
L 2759 1491 
L 3956 4666 
L 4897 4666 
L 4897 0 
L 4281 0 
L 4281 4097 
L 3078 897 
L 2444 897 
L 1241 4097 
L 1241 0 
L 628 0 
L 628 4666 
z
" transform="scale(0.015625)"/>
       <path id="DejaVuSans-69" d="M 603 3500 
L 1178 3500 
L 1178 0 
L 603 0 
L 603 3500 
z
M 603 4863 
L 1178 4863 
L 1178 4134 
L 603 4134 
L 603 4863 
z
" transform="scale(0.015625)"/>
       <path id="DejaVuSans-63" d="M 3122 3366 
L 3122 2828 
Q 2878 2963 2633 3030 
Q 2388 3097 2138 3097 
Q 1578 3097 1268 2742 
Q 959 2388 959 1747 
Q 959 1106 1268 751 
Q 1578 397 2138 397 
Q 2388 397 2633 464 
Q 2878 531 3122 666 
L 3122 134 
Q 2881 22 2623 -34 
Q 2366 -91 2075 -91 
Q 1284 -91 818 406 
Q 353 903 353 1747 
Q 353 2603 823 3093 
Q 1294 3584 2113 3584 
Q 2378 3584 2631 3529 
Q 2884 3475 3122 3366 
z
" transform="scale(0.015625)"/>
       <path id="DejaVuSans-6e" d="M 3513 2113 
L 3513 0 
L 2938 0 
L 2938 2094 
Q 2938 2591 2744 2837 
Q 2550 3084 2163 3084 
Q 1697 3084 1428 2787 
Q 1159 2491 1159 1978 
L 1159 0 
L 581 0 
L 581 3500 
L 1159 3500 
L 1159 2956 
Q 1366 3272 1645 3428 
Q 1925 3584 2291 3584 
Q 2894 3584 3203 3211 
Q 3513 2838 3513 2113 
z
" transform="scale(0.015625)"/>
       <path id="DejaVuSans-54" d="M -19 4666 
L 3928 4666 
L 3928 4134 
L 2272 4134 
L 2272 0 
L 1638 0 
L 1638 4134 
L -19 4134 
L -19 4666 
z
" transform="scale(0.015625)"/>
       <path id="DejaVuSans-61" d="M 2194 1759 
Q 1497 1759 1228 1600 
Q 959 1441 959 1056 
Q 959 750 1161 570 
Q 1363 391 1709 391 
Q 2188 391 2477 730 
Q 2766 1069 2766 1631 
L 2766 1759 
L 2194 1759 
z
M 3341 1997 
L 3341 0 
L 2766 0 
L 2766 531 
Q 2569 213 2275 61 
Q 1981 -91 1556 -91 
Q 1019 -91 701 211 
Q 384 513 384 1019 
Q 384 1609 779 1909 
Q 1175 2209 1959 2209 
L 2766 2209 
L 2766 2266 
Q 2766 2663 2505 2880 
Q 2244 3097 1772 3097 
Q 1472 3097 1187 3025 
Q 903 2953 641 2809 
L 641 3341 
Q 956 3463 1253 3523 
Q 1550 3584 1831 3584 
Q 2591 3584 2966 3190 
Q 3341 2797 3341 1997 
z
" transform="scale(0.015625)"/>
       <path id="DejaVuSans-74" d="M 1172 4494 
L 1172 3500 
L 2356 3500 
L 2356 3053 
L 1172 3053 
L 1172 1153 
Q 1172 725 1289 603 
Q 1406 481 1766 481 
L 2356 481 
L 2356 0 
L 1766 0 
Q 1100 0 847 248 
Q 594 497 594 1153 
L 594 3053 
L 172 3053 
L 172 3500 
L 594 3500 
L 594 4494 
L 1172 4494 
z
" transform="scale(0.015625)"/>
       <path id="DejaVuSans-47" d="M 3809 666 
L 3809 1919 
L 2778 1919 
L 2778 2438 
L 4434 2438 
L 4434 434 
Q 4069 175 3628 42 
Q 3188 -91 2688 -91 
Q 1594 -91 976 548 
Q 359 1188 359 2328 
Q 359 3472 976 4111 
Q 1594 4750 2688 4750 
Q 3144 4750 3555 4637 
Q 3966 4525 4313 4306 
L 4313 3634 
Q 3963 3931 3569 4081 
Q 3175 4231 2741 4231 
Q 1884 4231 1454 3753 
Q 1025 3275 1025 2328 
Q 1025 1384 1454 906 
Q 1884 428 2741 428 
Q 3075 428 3337 486 
Q 3600 544 3809 666 
z
" transform="scale(0.015625)"/>
       <path id="DejaVuSans-70" d="M 1159 525 
L 1159 -1331 
L 581 -1331 
L 581 3500 
L 1159 3500 
L 1159 2969 
Q 1341 3281 1617 3432 
Q 1894 3584 2278 3584 
Q 2916 3584 3314 3078 
Q 3713 2572 3713 1747 
Q 3713 922 3314 415 
Q 2916 -91 2278 -91 
Q 1894 -91 1617 61 
Q 1341 213 1159 525 
z
M 3116 1747 
Q 3116 2381 2855 2742 
Q 2594 3103 2138 3103 
Q 1681 3103 1420 2742 
Q 1159 2381 1159 1747 
Q 1159 1113 1420 752 
Q 1681 391 2138 391 
Q 2594 391 2855 752 
Q 3116 1113 3116 1747 
z
" transform="scale(0.015625)"/>
      </defs>
      <use xlink:href="#DejaVuSans-4e"/>
      <use xlink:href="#DejaVuSans-75" x="74.804688"/>
      <use xlink:href="#DejaVuSans-6d" x="138.183594"/>
      <use xlink:href="#DejaVuSans-62" x="235.595703"/>
      <use xlink:href="#DejaVuSans-65" x="299.072266"/>
      <use xlink:href="#DejaVuSans-72" x="360.595703"/>
      <use xlink:href="#DejaVuSans-20" x="401.708984"/>
      <use xlink:href="#DejaVuSans-6f" x="433.496094"/>
      <use xlink:href="#DejaVuSans-66" x="494.677734"/>
      <use xlink:href="#DejaVuSans-20" x="529.882812"/>
      <use xlink:href="#DejaVuSans-4d" x="561.669922"/>
      <use xlink:href="#DejaVuSans-69" x="647.949219"/>
      <use xlink:href="#DejaVuSans-63" x="675.732422"/>
      <use xlink:href="#DejaVuSans-65" x="730.712891"/>
      <use xlink:href="#DejaVuSans-20" x="792.236328"/>
      <use xlink:href="#DejaVuSans-69" x="824.023438"/>
      <use xlink:href="#DejaVuSans-6e" x="851.806641"/>
      <use xlink:href="#DejaVuSans-20" x="915.185547"/>
      <use xlink:href="#DejaVuSans-54" x="946.972656"/>
      <use xlink:href="#DejaVuSans-72" x="993.306641"/>
      <use xlink:href="#DejaVuSans-65" x="1032.169922"/>
      <use xlink:href="#DejaVuSans-61" x="1093.693359"/>
      <use xlink:href="#DejaVuSans-74" x="1154.972656"/>
      <use xlink:href="#DejaVuSans-6d" x="1194.181641"/>
      <use xlink:href="#DejaVuSans-65" x="1291.59375"/>
      <use xlink:href="#DejaVuSans-6e" x="1353.117188"/>
      <use xlink:href="#DejaVuSans-74" x="1416.496094"/>
      <use xlink:href="#DejaVuSans-20" x="1455.705078"/>
      <use xlink:href="#DejaVuSans-47" x="1487.492188"/>
      <use xlink:href="#DejaVuSans-72" x="1564.982422"/>
      <use xlink:href="#DejaVuSans-6f" x="1603.845703"/>
      <use xlink:href="#DejaVuSans-75" x="1665.027344"/>
      <use xlink:href="#DejaVuSans-70" x="1728.40625"/>
     </g>
    </g>
   </g>
   <g id="matplotlib.axis_2">
    <g id="ytick_1">
     <g id="line2d_11">
      <path d="M 32.81 105.092727 
L 287.28 105.092727 
" clip-path="url(#p028868ebf9)" style="fill: none; stroke-dasharray: 2.96,1.28; stroke-dashoffset: 0; stroke: #000000; stroke-opacity: 0.3; stroke-width: 0.8"/>
     </g>
     <g id="line2d_12">
      <defs>
       <path id="ma35749d8df" d="M 0 0 
L -3.5 0 
" style="stroke: #000000; stroke-width: 0.8"/>
      </defs>
      <g>
       <use xlink:href="#ma35749d8df" x="32.81" y="105.092727" style="stroke: #000000; stroke-width: 0.8"/>
      </g>
     </g>
     <g id="text_12">
      <!-- 0.0 -->
      <g transform="translate(16.268125 107.372259) scale(0.06 -0.06)">
       <defs>
        <path id="DejaVuSans-2e" d="M 684 794 
L 1344 794 
L 1344 0 
L 684 0 
L 684 794 
z
" transform="scale(0.015625)"/>
       </defs>
       <use xlink:href="#DejaVuSans-30"/>
       <use xlink:href="#DejaVuSans-2e" x="63.623047"/>
       <use xlink:href="#DejaVuSans-30" x="95.410156"/>
      </g>
     </g>
    </g>
    <g id="ytick_2">
     <g id="line2d_13">
      <path d="M 32.81 87.674182 
L 287.28 87.674182 
" clip-path="url(#p028868ebf9)" style="fill: none; stroke-dasharray: 2.96,1.28; stroke-dashoffset: 0; stroke: #000000; stroke-opacity: 0.3; stroke-width: 0.8"/>
     </g>
     <g id="line2d_14">
      <g>
       <use xlink:href="#ma35749d8df" x="32.81" y="87.674182" style="stroke: #000000; stroke-width: 0.8"/>
      </g>
     </g>
     <g id="text_13">
      <!-- 0.2 -->
      <g transform="translate(16.268125 89.953713) scale(0.06 -0.06)">
       <use xlink:href="#DejaVuSans-30"/>
       <use xlink:href="#DejaVuSans-2e" x="63.623047"/>
       <use xlink:href="#DejaVuSans-32" x="95.410156"/>
      </g>
     </g>
    </g>
    <g id="ytick_3">
     <g id="line2d_15">
      <path d="M 32.81 70.255636 
L 287.28 70.255636 
" clip-path="url(#p028868ebf9)" style="fill: none; stroke-dasharray: 2.96,1.28; stroke-dashoffset: 0; stroke: #000000; stroke-opacity: 0.3; stroke-width: 0.8"/>
     </g>
     <g id="line2d_16">
      <g>
       <use xlink:href="#ma35749d8df" x="32.81" y="70.255636" style="stroke: #000000; stroke-width: 0.8"/>
      </g>
     </g>
     <g id="text_14">
      <!-- 0.4 -->
      <g transform="translate(16.268125 72.535168) scale(0.06 -0.06)">
       <use xlink:href="#DejaVuSans-30"/>
       <use xlink:href="#DejaVuSans-2e" x="63.623047"/>
       <use xlink:href="#DejaVuSans-34" x="95.410156"/>
      </g>
     </g>
    </g>
    <g id="ytick_4">
     <g id="line2d_17">
      <path d="M 32.81 52.837091 
L 287.28 52.837091 
" clip-path="url(#p028868ebf9)" style="fill: none; stroke-dasharray: 2.96,1.28; stroke-dashoffset: 0; stroke: #000000; stroke-opacity: 0.3; stroke-width: 0.8"/>
     </g>
     <g id="line2d_18">
      <g>
       <use xlink:href="#ma35749d8df" x="32.81" y="52.837091" style="stroke: #000000; stroke-width: 0.8"/>
      </g>
     </g>
     <g id="text_15">
      <!-- 0.6 -->
      <g transform="translate(16.268125 55.116622) scale(0.06 -0.06)">
       <use xlink:href="#DejaVuSans-30"/>
       <use xlink:href="#DejaVuSans-2e" x="63.623047"/>
       <use xlink:href="#DejaVuSans-36" x="95.410156"/>
      </g>
     </g>
    </g>
    <g id="ytick_5">
     <g id="line2d_19">
      <path d="M 32.81 35.418545 
L 287.28 35.418545 
" clip-path="url(#p028868ebf9)" style="fill: none; stroke-dasharray: 2.96,1.28; stroke-dashoffset: 0; stroke: #000000; stroke-opacity: 0.3; stroke-width: 0.8"/>
     </g>
     <g id="line2d_20">
      <g>
       <use xlink:href="#ma35749d8df" x="32.81" y="35.418545" style="stroke: #000000; stroke-width: 0.8"/>
      </g>
     </g>
     <g id="text_16">
      <!-- 0.8 -->
      <g transform="translate(16.268125 37.698077) scale(0.06 -0.06)">
       <use xlink:href="#DejaVuSans-30"/>
       <use xlink:href="#DejaVuSans-2e" x="63.623047"/>
       <use xlink:href="#DejaVuSans-38" x="95.410156"/>
      </g>
     </g>
    </g>
    <g id="ytick_6">
     <g id="line2d_21">
      <path d="M 32.81 18 
L 287.28 18 
" clip-path="url(#p028868ebf9)" style="fill: none; stroke-dasharray: 2.96,1.28; stroke-dashoffset: 0; stroke: #000000; stroke-opacity: 0.3; stroke-width: 0.8"/>
     </g>
     <g id="line2d_22">
      <g>
       <use xlink:href="#ma35749d8df" x="32.81" y="18" style="stroke: #000000; stroke-width: 0.8"/>
      </g>
     </g>
     <g id="text_17">
      <!-- 1.0 -->
      <g transform="translate(16.268125 20.279531) scale(0.06 -0.06)">
       <use xlink:href="#DejaVuSans-31"/>
       <use xlink:href="#DejaVuSans-2e" x="63.623047"/>
       <use xlink:href="#DejaVuSans-30" x="95.410156"/>
      </g>
     </g>
    </g>
    <g id="text_18">
     <!-- Fraction of Overlapping Hits -->
     <g transform="translate(11.020313 105.512656) rotate(-90) scale(0.06 -0.06)">
      <defs>
       <path id="DejaVuSans-46" d="M 628 4666 
L 3309 4666 
L 3309 4134 
L 1259 4134 
L 1259 2759 
L 3109 2759 
L 3109 2228 
L 1259 2228 
L 1259 0 
L 628 0 
L 628 4666 
z
" transform="scale(0.015625)"/>
       <path id="DejaVuSans-4f" d="M 2522 4238 
Q 1834 4238 1429 3725 
Q 1025 3213 1025 2328 
Q 1025 1447 1429 934 
Q 1834 422 2522 422 
Q 3209 422 3611 934 
Q 4013 1447 4013 2328 
Q 4013 3213 3611 3725 
Q 3209 4238 2522 4238 
z
M 2522 4750 
Q 3503 4750 4090 4092 
Q 4678 3434 4678 2328 
Q 4678 1225 4090 567 
Q 3503 -91 2522 -91 
Q 1538 -91 948 565 
Q 359 1222 359 2328 
Q 359 3434 948 4092 
Q 1538 4750 2522 4750 
z
" transform="scale(0.015625)"/>
       <path id="DejaVuSans-76" d="M 191 3500 
L 800 3500 
L 1894 563 
L 2988 3500 
L 3597 3500 
L 2284 0 
L 1503 0 
L 191 3500 
z
" transform="scale(0.015625)"/>
       <path id="DejaVuSans-6c" d="M 603 4863 
L 1178 4863 
L 1178 0 
L 603 0 
L 603 4863 
z
" transform="scale(0.015625)"/>
       <path id="DejaVuSans-67" d="M 2906 1791 
Q 2906 2416 2648 2759 
Q 2391 3103 1925 3103 
Q 1463 3103 1205 2759 
Q 947 2416 947 1791 
Q 947 1169 1205 825 
Q 1463 481 1925 481 
Q 2391 481 2648 825 
Q 2906 1169 2906 1791 
z
M 3481 434 
Q 3481 -459 3084 -895 
Q 2688 -1331 1869 -1331 
Q 1566 -1331 1297 -1286 
Q 1028 -1241 775 -1147 
L 775 -588 
Q 1028 -725 1275 -790 
Q 1522 -856 1778 -856 
Q 2344 -856 2625 -561 
Q 2906 -266 2906 331 
L 2906 616 
Q 2728 306 2450 153 
Q 2172 0 1784 0 
Q 1141 0 747 490 
Q 353 981 353 1791 
Q 353 2603 747 3093 
Q 1141 3584 1784 3584 
Q 2172 3584 2450 3431 
Q 2728 3278 2906 2969 
L 2906 3500 
L 3481 3500 
L 3481 434 
z
" transform="scale(0.015625)"/>
       <path id="DejaVuSans-48" d="M 628 4666 
L 1259 4666 
L 1259 2753 
L 3553 2753 
L 3553 4666 
L 4184 4666 
L 4184 0 
L 3553 0 
L 3553 2222 
L 1259 2222 
L 1259 0 
L 628 0 
L 628 4666 
z
" transform="scale(0.015625)"/>
       <path id="DejaVuSans-73" d="M 2834 3397 
L 2834 2853 
Q 2591 2978 2328 3040 
Q 2066 3103 1784 3103 
Q 1356 3103 1142 2972 
Q 928 2841 928 2578 
Q 928 2378 1081 2264 
Q 1234 2150 1697 2047 
L 1894 2003 
Q 2506 1872 2764 1633 
Q 3022 1394 3022 966 
Q 3022 478 2636 193 
Q 2250 -91 1575 -91 
Q 1294 -91 989 -36 
Q 684 19 347 128 
L 347 722 
Q 666 556 975 473 
Q 1284 391 1588 391 
Q 1994 391 2212 530 
Q 2431 669 2431 922 
Q 2431 1156 2273 1281 
Q 2116 1406 1581 1522 
L 1381 1569 
Q 847 1681 609 1914 
Q 372 2147 372 2553 
Q 372 3047 722 3315 
Q 1072 3584 1716 3584 
Q 2034 3584 2315 3537 
Q 2597 3491 2834 3397 
z
" transform="scale(0.015625)"/>
      </defs>
      <use xlink:href="#DejaVuSans-46"/>
      <use xlink:href="#DejaVuSans-72" x="50.269531"/>
      <use xlink:href="#DejaVuSans-61" x="91.382812"/>
      <use xlink:href="#DejaVuSans-63" x="152.662109"/>
      <use xlink:href="#DejaVuSans-74" x="207.642578"/>
      <use xlink:href="#DejaVuSans-69" x="246.851562"/>
      <use xlink:href="#DejaVuSans-6f" x="274.634766"/>
      <use xlink:href="#DejaVuSans-6e" x="335.816406"/>
      <use xlink:href="#DejaVuSans-20" x="399.195312"/>
      <use xlink:href="#DejaVuSans-6f" x="430.982422"/>
      <use xlink:href="#DejaVuSans-66" x="492.164062"/>
      <use xlink:href="#DejaVuSans-20" x="527.369141"/>
      <use xlink:href="#DejaVuSans-4f" x="559.15625"/>
      <use xlink:href="#DejaVuSans-76" x="637.867188"/>
      <use xlink:href="#DejaVuSans-65" x="697.046875"/>
      <use xlink:href="#DejaVuSans-72" x="758.570312"/>
      <use xlink:href="#DejaVuSans-6c" x="799.683594"/>
      <use xlink:href="#DejaVuSans-61" x="827.466797"/>
      <use xlink:href="#DejaVuSans-70" x="888.746094"/>
      <use xlink:href="#DejaVuSans-70" x="952.222656"/>
      <use xlink:href="#DejaVuSans-69" x="1015.699219"/>
      <use xlink:href="#DejaVuSans-6e" x="1043.482422"/>
      <use xlink:href="#DejaVuSans-67" x="1106.861328"/>
      <use xlink:href="#DejaVuSans-20" x="1170.337891"/>
      <use xlink:href="#DejaVuSans-48" x="1202.125"/>
      <use xlink:href="#DejaVuSans-69" x="1277.320312"/>
      <use xlink:href="#DejaVuSans-74" x="1305.103516"/>
      <use xlink:href="#DejaVuSans-73" x="1344.3125"/>
     </g>
    </g>
   </g>
   <g id="line2d_23">
    <path d="M 45.5335 105.092727 
L 45.5335 80.209091 
" clip-path="url(#p028868ebf9)" style="fill: none; stroke: #1a1a1a; stroke-linecap: square"/>
   </g>
   <g id="line2d_24">
    <path d="M 45.5335 100.945455 
L 45.5335 80.209091 
" clip-path="url(#p028868ebf9)" style="fill: none; stroke: #1a1a1a; stroke-width: 2; stroke-linecap: square"/>
   </g>
   <g id="line2d_25">
    <path d="M 45.5335 80.209091 
" clip-path="url(#p028868ebf9)" style="fill: none; stroke: #fa8072; stroke-width: 1.5; stroke-linecap: square"/>
    <defs>
     <path id="m07505ebcbf" d="M 0.833333 0 
L -0.833333 -0 
" style="stroke: #ffffff; stroke-width: 0.4"/>
    </defs>
    <g clip-path="url(#p028868ebf9)">
     <use xlink:href="#m07505ebcbf" x="45.5335" y="80.209091" style="fill: #ffffff; stroke: #ffffff; stroke-width: 0.4"/>
    </g>
   </g>
   <g id="line2d_26">
    <path d="M 70.9805 100.945455 
L 70.9805 47.030909 
" clip-path="url(#p028868ebf9)" style="fill: none; stroke: #1a1a1a; stroke-linecap: square"/>
   </g>
   <g id="line2d_27">
    <path d="M 70.9805 96.798182 
L 70.9805 63.62 
" clip-path="url(#p028868ebf9)" style="fill: none; stroke: #1a1a1a; stroke-width: 2; stroke-linecap: square"/>
   </g>
   <g id="line2d_28">
    <path d="M 70.9805 80.209091 
" clip-path="url(#p028868ebf9)" style="fill: none; stroke: #fa8072; stroke-width: 1.5; stroke-linecap: square"/>
    <g clip-path="url(#p028868ebf9)">
     <use xlink:href="#m07505ebcbf" x="70.9805" y="80.209091" style="fill: #ffffff; stroke: #ffffff; stroke-width: 0.4"/>
    </g>
   </g>
   <g id="line2d_29">
    <path d="M 96.4275 100.945455 
L 96.4275 47.030909 
" clip-path="url(#p028868ebf9)" style="fill: none; stroke: #1a1a1a; stroke-linecap: square"/>
   </g>
   <g id="line2d_30">
    <path d="M 96.4275 84.356364 
L 96.4275 63.62 
" clip-path="url(#p028868ebf9)" style="fill: none; stroke: #1a1a1a; stroke-width: 2; stroke-linecap: square"/>
   </g>
   <g id="line2d_31">
    <path d="M 96.4275 80.209091 
" clip-path="url(#p028868ebf9)" style="fill: none; stroke: #fa8072; stroke-width: 1.5; stroke-linecap: square"/>
    <g clip-path="url(#p028868ebf9)">
     <use xlink:href="#m07505ebcbf" x="96.4275" y="80.209091" style="fill: #ffffff; stroke: #ffffff; stroke-width: 0.4"/>
    </g>
   </g>
   <g id="line2d_32">
    <path d="M 121.8745 96.798182 
L 121.8745 26.294545 
" clip-path="url(#p028868ebf9)" style="fill: none; stroke: #1a1a1a; stroke-linecap: square"/>
   </g>
   <g id="line2d_33">
    <path d="M 121.8745 84.356364 
L 121.8745 55.325455 
" clip-path="url(#p028868ebf9)" style="fill: none; stroke: #1a1a1a; stroke-width: 2; stroke-linecap: square"/>
   </g>
   <g id="line2d_34">
    <path d="M 121.8745 67.767273 
" clip-path="url(#p028868ebf9)" style="fill: none; stroke: #fa8072; stroke-width: 1.5; stroke-linecap: square"/>
    <g clip-path="url(#p028868ebf9)">
     <use xlink:href="#m07505ebcbf" x="121.8745" y="67.767273" style="fill: #ffffff; stroke: #ffffff; stroke-width: 0.4"/>
    </g>
   </g>
   <g id="line2d_35">
    <path d="M 147.3215 100.945455 
L 147.3215 26.294545 
" clip-path="url(#p028868ebf9)" style="fill: none; stroke: #1a1a1a; stroke-linecap: square"/>
   </g>
   <g id="line2d_36">
    <path d="M 147.3215 76.061818 
L 147.3215 42.883636 
" clip-path="url(#p028868ebf9)" style="fill: none; stroke: #1a1a1a; stroke-width: 2; stroke-linecap: square"/>
   </g>
   <g id="line2d_37">
    <path d="M 147.3215 59.472727 
" clip-path="url(#p028868ebf9)" style="fill: none; stroke: #fa8072; stroke-width: 1.5; stroke-linecap: square"/>
    <g clip-path="url(#p028868ebf9)">
     <use xlink:href="#m07505ebcbf" x="147.3215" y="59.472727" style="fill: #ffffff; stroke: #ffffff; stroke-width: 0.4"/>
    </g>
   </g>
   <g id="line2d_38">
    <path d="M 172.7685 84.356364 
L 172.7685 30.441818 
" clip-path="url(#p028868ebf9)" style="fill: none; stroke: #1a1a1a; stroke-linecap: square"/>
   </g>
   <g id="line2d_39">
    <path d="M 172.7685 71.914545 
L 172.7685 51.178182 
" clip-path="url(#p028868ebf9)" style="fill: none; stroke: #1a1a1a; stroke-width: 2; stroke-linecap: square"/>
   </g>
   <g id="line2d_40">
    <path d="M 172.7685 61.546364 
" clip-path="url(#p028868ebf9)" style="fill: none; stroke: #fa8072; stroke-width: 1.5; stroke-linecap: square"/>
    <g clip-path="url(#p028868ebf9)">
     <use xlink:href="#m07505ebcbf" x="172.7685" y="61.546364" style="fill: #ffffff; stroke: #ffffff; stroke-width: 0.4"/>
    </g>
   </g>
   <g id="line2d_41">
    <path d="M 198.2155 88.503636 
L 198.2155 26.294545 
" clip-path="url(#p028868ebf9)" style="fill: none; stroke: #1a1a1a; stroke-linecap: square"/>
   </g>
   <g id="line2d_42">
    <path d="M 198.2155 59.472727 
L 198.2155 34.589091 
" clip-path="url(#p028868ebf9)" style="fill: none; stroke: #1a1a1a; stroke-width: 2; stroke-linecap: square"/>
   </g>
   <g id="line2d_43">
    <path d="M 198.2155 47.030909 
" clip-path="url(#p028868ebf9)" style="fill: none; stroke: #fa8072; stroke-width: 1.5; stroke-linecap: square"/>
    <g clip-path="url(#p028868ebf9)">
     <use xlink:href="#m07505ebcbf" x="198.2155" y="47.030909" style="fill: #ffffff; stroke: #ffffff; stroke-width: 0.4"/>
    </g>
   </g>
   <g id="line2d_44">
    <path d="M 223.6625 84.356364 
L 223.6625 26.294545 
" clip-path="url(#p028868ebf9)" style="fill: none; stroke: #1a1a1a; stroke-linecap: square"/>
   </g>
   <g id="line2d_45">
    <path d="M 223.6625 59.472727 
L 223.6625 35.625909 
" clip-path="url(#p028868ebf9)" style="fill: none; stroke: #1a1a1a; stroke-width: 2; stroke-linecap: square"/>
   </g>
   <g id="line2d_46">
    <path d="M 223.6625 49.104545 
" clip-path="url(#p028868ebf9)" style="fill: none; stroke: #fa8072; stroke-width: 1.5; stroke-linecap: square"/>
    <g clip-path="url(#p028868ebf9)">
     <use xlink:href="#m07505ebcbf" x="223.6625" y="49.104545" style="fill: #ffffff; stroke: #ffffff; stroke-width: 0.4"/>
    </g>
   </g>
   <g id="line2d_47">
    <path d="M 249.1095 84.356364 
L 249.1095 26.294545 
" clip-path="url(#p028868ebf9)" style="fill: none; stroke: #1a1a1a; stroke-linecap: square"/>
   </g>
   <g id="line2d_48">
    <path d="M 249.1095 59.472727 
L 249.1095 38.736364 
" clip-path="url(#p028868ebf9)" style="fill: none; stroke: #1a1a1a; stroke-width: 2; stroke-linecap: square"/>
   </g>
   <g id="line2d_49">
    <path d="M 249.1095 49.104545 
" clip-path="url(#p028868ebf9)" style="fill: none; stroke: #fa8072; stroke-width: 1.5; stroke-linecap: square"/>
    <g clip-path="url(#p028868ebf9)">
     <use xlink:href="#m07505ebcbf" x="249.1095" y="49.104545" style="fill: #ffffff; stroke: #ffffff; stroke-width: 0.4"/>
    </g>
   </g>
   <g id="line2d_50">
    <path d="M 274.5565 71.914545 
L 274.5565 22.147273 
" clip-path="url(#p028868ebf9)" style="fill: none; stroke: #1a1a1a; stroke-linecap: square"/>
   </g>
   <g id="line2d_51">
    <path d="M 274.5565 55.325455 
L 274.5565 31.478636 
" clip-path="url(#p028868ebf9)" style="fill: none; stroke: #1a1a1a; stroke-width: 2; stroke-linecap: square"/>
   </g>
   <g id="line2d_52">
    <path d="M 274.5565 40.81 
" clip-path="url(#p028868ebf9)" style="fill: none; stroke: #fa8072; stroke-width: 1.5; stroke-linecap: square"/>
    <g clip-path="url(#p028868ebf9)">
     <use xlink:href="#m07505ebcbf" x="274.5565" y="40.81" style="fill: #ffffff; stroke: #ffffff; stroke-width: 0.4"/>
    </g>
   </g>
   <g id="line2d_53">
    <path d="M 45.5335 80.209091 
L 70.9805 80.209091 
L 96.4275 80.209091 
L 121.8745 67.767273 
L 147.3215 59.472727 
L 172.7685 61.546364 
L 198.2155 47.030909 
L 223.6625 49.104545 
L 249.1095 49.104545 
L 274.5565 40.81 
" clip-path="url(#p028868ebf9)" style="fill: none; stroke: #8b0000; stroke-linecap: square"/>
    <defs>
     <path id="m97c3788df8" d="M 0 1.253314 
C 0.332383 1.253314 0.651197 1.121257 0.886227 0.886227 
C 1.121257 0.651197 1.253314 0.332383 1.253314 0 
C 1.253314 -0.332383 1.121257 -0.651197 0.886227 -0.886227 
C 0.651197 -1.121257 0.332383 -1.253314 0 -1.253314 
C -0.332383 -1.253314 -0.651197 -1.121257 -0.886227 -0.886227 
C -1.121257 -0.651197 -1.253314 -0.332383 -1.253314 0 
C -1.253314 0.332383 -1.121257 0.651197 -0.886227 0.886227 
C -0.651197 1.121257 -0.332383 1.253314 0 1.253314 
z
" style="stroke: #8b0000; stroke-width: 0.75"/>
    </defs>
    <g clip-path="url(#p028868ebf9)">
     <use xlink:href="#m97c3788df8" x="45.5335" y="80.209091" style="fill: #8b0000; stroke: #8b0000; stroke-width: 0.75"/>
     <use xlink:href="#m97c3788df8" x="70.9805" y="80.209091" style="fill: #8b0000; stroke: #8b0000; stroke-width: 0.75"/>
     <use xlink:href="#m97c3788df8" x="96.4275" y="80.209091" style="fill: #8b0000; stroke: #8b0000; stroke-width: 0.75"/>
     <use xlink:href="#m97c3788df8" x="121.8745" y="67.767273" style="fill: #8b0000; stroke: #8b0000; stroke-width: 0.75"/>
     <use xlink:href="#m97c3788df8" x="147.3215" y="59.472727" style="fill: #8b0000; stroke: #8b0000; stroke-width: 0.75"/>
     <use xlink:href="#m97c3788df8" x="172.7685" y="61.546364" style="fill: #8b0000; stroke: #8b0000; stroke-width: 0.75"/>
     <use xlink:href="#m97c3788df8" x="198.2155" y="47.030909" style="fill: #8b0000; stroke: #8b0000; stroke-width: 0.75"/>
     <use xlink:href="#m97c3788df8" x="223.6625" y="49.104545" style="fill: #8b0000; stroke: #8b0000; stroke-width: 0.75"/>
     <use xlink:href="#m97c3788df8" x="249.1095" y="49.104545" style="fill: #8b0000; stroke: #8b0000; stroke-width: 0.75"/>
     <use xlink:href="#m97c3788df8" x="274.5565" y="40.81" style="fill: #8b0000; stroke: #8b0000; stroke-width: 0.75"/>
    </g>
   </g>
   <g id="line2d_54">
    <path clip-path="url(#p028868ebf9)" style="fill: none; stroke: #8b0000; stroke-linecap: square"/>
   </g>
   <g id="line2d_55">
    <path clip-path="url(#p028868ebf9)" style="fill: none; stroke: #8b0000; stroke-linecap: square"/>
   </g>
   <g id="line2d_56">
    <path clip-path="url(#p028868ebf9)" style="fill: none; stroke: #8b0000; stroke-linecap: square"/>
   </g>
   <g id="line2d_57">
    <path clip-path="url(#p028868ebf9)" style="fill: none; stroke: #8b0000; stroke-linecap: square"/>
   </g>
   <g id="line2d_58">
    <path clip-path="url(#p028868ebf9)" style="fill: none; stroke: #8b0000; stroke-linecap: square"/>
   </g>
   <g id="line2d_59">
    <path clip-path="url(#p028868ebf9)" style="fill: none; stroke: #8b0000; stroke-linecap: square"/>
   </g>
   <g id="line2d_60">
    <path clip-path="url(#p028868ebf9)" style="fill: none; stroke: #8b0000; stroke-linecap: square"/>
   </g>
   <g id="line2d_61">
    <path clip-path="url(#p028868ebf9)" style="fill: none; stroke: #8b0000; stroke-linecap: square"/>
   </g>
   <g id="line2d_62">
    <path clip-path="url(#p028868ebf9)" style="fill: none; stroke: #8b0000; stroke-linecap: square"/>
   </g>
   <g id="line2d_63">
    <path clip-path="url(#p028868ebf9)" style="fill: none; stroke: #8b0000; stroke-linecap: square"/>
   </g>
   <g id="patch_3">
    <path d="M 32.81 109.24 
L 32.81 18 
" style="fill: none; stroke: #000000; stroke-width: 0.8; stroke-linejoin: miter; stroke-linecap: square"/>
   </g>
   <g id="patch_4">
    <path d="M 287.28 109.24 
L 287.28 18 
" style="fill: none; stroke: #000000; stroke-width: 0.8; stroke-linejoin: miter; stroke-linecap: square"/>
   </g>
   <g id="patch_5">
    <path d="M 32.81 109.24 
L 287.28 109.24 
" style="fill: none; stroke: #000000; stroke-width: 0.8; stroke-linejoin: miter; stroke-linecap: square"/>
   </g>
   <g id="patch_6">
    <path d="M 32.81 18 
L 287.28 18 
" style="fill: none; stroke: #000000; stroke-width: 0.8; stroke-linejoin: miter; stroke-linecap: square"/>
   </g>
   <g id="text_19">
    <!-- Fraction of Overlapping Hits in Bootstraps compared to Standard -->
    <g transform="translate(43.279 12) scale(0.072 -0.072)">
     <defs>
      <path id="DejaVuSans-42" d="M 1259 2228 
L 1259 519 
L 2272 519 
Q 2781 519 3026 730 
Q 3272 941 3272 1375 
Q 3272 1813 3026 2020 
Q 2781 2228 2272 2228 
L 1259 2228 
z
M 1259 4147 
L 1259 2741 
L 2194 2741 
Q 2656 2741 2882 2914 
Q 3109 3088 3109 3444 
Q 3109 3797 2882 3972 
Q 2656 4147 2194 4147 
L 1259 4147 
z
M 628 4666 
L 2241 4666 
Q 2963 4666 3353 4366 
Q 3744 4066 3744 3513 
Q 3744 3084 3544 2831 
Q 3344 2578 2956 2516 
Q 3422 2416 3680 2098 
Q 3938 1781 3938 1306 
Q 3938 681 3513 340 
Q 3088 0 2303 0 
L 628 0 
L 628 4666 
z
" transform="scale(0.015625)"/>
      <path id="DejaVuSans-64" d="M 2906 2969 
L 2906 4863 
L 3481 4863 
L 3481 0 
L 2906 0 
L 2906 525 
Q 2725 213 2448 61 
Q 2172 -91 1784 -91 
Q 1150 -91 751 415 
Q 353 922 353 1747 
Q 353 2572 751 3078 
Q 1150 3584 1784 3584 
Q 2172 3584 2448 3432 
Q 2725 3281 2906 2969 
z
M 947 1747 
Q 947 1113 1208 752 
Q 1469 391 1925 391 
Q 2381 391 2643 752 
Q 2906 1113 2906 1747 
Q 2906 2381 2643 2742 
Q 2381 3103 1925 3103 
Q 1469 3103 1208 2742 
Q 947 2381 947 1747 
z
" transform="scale(0.015625)"/>
      <path id="DejaVuSans-53" d="M 3425 4513 
L 3425 3897 
Q 3066 4069 2747 4153 
Q 2428 4238 2131 4238 
Q 1616 4238 1336 4038 
Q 1056 3838 1056 3469 
Q 1056 3159 1242 3001 
Q 1428 2844 1947 2747 
L 2328 2669 
Q 3034 2534 3370 2195 
Q 3706 1856 3706 1288 
Q 3706 609 3251 259 
Q 2797 -91 1919 -91 
Q 1588 -91 1214 -16 
Q 841 59 441 206 
L 441 856 
Q 825 641 1194 531 
Q 1563 422 1919 422 
Q 2459 422 2753 634 
Q 3047 847 3047 1241 
Q 3047 1584 2836 1778 
Q 2625 1972 2144 2069 
L 1759 2144 
Q 1053 2284 737 2584 
Q 422 2884 422 3419 
Q 422 4038 858 4394 
Q 1294 4750 2059 4750 
Q 2388 4750 2728 4690 
Q 3069 4631 3425 4513 
z
" transform="scale(0.015625)"/>
     </defs>
     <use xlink:href="#DejaVuSans-46"/>
     <use xlink:href="#DejaVuSans-72" x="50.269531"/>
     <use xlink:href="#DejaVuSans-61" x="91.382812"/>
     <use xlink:href="#DejaVuSans-63" x="152.662109"/>
     <use xlink:href="#DejaVuSans-74" x="207.642578"/>
     <use xlink:href="#DejaVuSans-69" x="246.851562"/>
     <use xlink:href="#DejaVuSans-6f" x="274.634766"/>
     <use xlink:href="#DejaVuSans-6e" x="335.816406"/>
     <use xlink:href="#DejaVuSans-20" x="399.195312"/>
     <use xlink:href="#DejaVuSans-6f" x="430.982422"/>
     <use xlink:href="#DejaVuSans-66" x="492.164062"/>
     <use xlink:href="#DejaVuSans-20" x="527.369141"/>
     <use xlink:href="#DejaVuSans-4f" x="559.15625"/>
     <use xlink:href="#DejaVuSans-76" x="637.867188"/>
     <use xlink:href="#DejaVuSans-65" x="697.046875"/>
     <use xlink:href="#DejaVuSans-72" x="758.570312"/>
     <use xlink:href="#DejaVuSans-6c" x="799.683594"/>
     <use xlink:href="#DejaVuSans-61" x="827.466797"/>
     <use xlink:href="#DejaVuSans-70" x="888.746094"/>
     <use xlink:href="#DejaVuSans-70" x="952.222656"/>
     <use xlink:href="#DejaVuSans-69" x="1015.699219"/>
     <use xlink:href="#DejaVuSans-6e" x="1043.482422"/>
     <use xlink:href="#DejaVuSans-67" x="1106.861328"/>
     <use xlink:href="#DejaVuSans-20" x="1170.337891"/>
     <use xlink:href="#DejaVuSans-48" x="1202.125"/>
     <use xlink:href="#DejaVuSans-69" x="1277.320312"/>
     <use xlink:href="#DejaVuSans-74" x="1305.103516"/>
     <use xlink:href="#DejaVuSans-73" x="1344.3125"/>
     <use xlink:href="#DejaVuSans-20" x="1396.412109"/>
     <use xlink:href="#DejaVuSans-69" x="1428.199219"/>
     <use xlink:href="#DejaVuSans-6e" x="1455.982422"/>
     <use xlink:href="#DejaVuSans-20" x="1519.361328"/>
     <use xlink:href="#DejaVuSans-42" x="1551.148438"/>
     <use xlink:href="#DejaVuSans-6f" x="1619.751953"/>
     <use xlink:href="#DejaVuSans-6f" x="1680.933594"/>
     <use xlink:href="#DejaVuSans-74" x="1742.115234"/>
     <use xlink:href="#DejaVuSans-73" x="1781.324219"/>
     <use xlink:href="#DejaVuSans-74" x="1833.423828"/>
     <use xlink:href="#DejaVuSans-72" x="1872.632812"/>
     <use xlink:href="#DejaVuSans-61" x="1913.746094"/>
     <use xlink:href="#DejaVuSans-70" x="1975.025391"/>
     <use xlink:href="#DejaVuSans-73" x="2038.501953"/>
     <use xlink:href="#DejaVuSans-20" x="2090.601562"/>
     <use xlink:href="#DejaVuSans-63" x="2122.388672"/>
     <use xlink:href="#DejaVuSans-6f" x="2177.369141"/>
     <use xlink:href="#DejaVuSans-6d" x="2238.550781"/>
     <use xlink:href="#DejaVuSans-70" x="2335.962891"/>
     <use xlink:href="#DejaVuSans-61" x="2399.439453"/>
     <use xlink:href="#DejaVuSans-72" x="2460.71875"/>
     <use xlink:href="#DejaVuSans-65" x="2499.582031"/>
     <use xlink:href="#DejaVuSans-64" x="2561.105469"/>
     <use xlink:href="#DejaVuSans-20" x="2624.582031"/>
     <use xlink:href="#DejaVuSans-74" x="2656.369141"/>
     <use xlink:href="#DejaVuSans-6f" x="2695.578125"/>
     <use xlink:href="#DejaVuSans-20" x="2756.759766"/>
     <use xlink:href="#DejaVuSans-53" x="2788.546875"/>
     <use xlink:href="#DejaVuSans-74" x="2852.023438"/>
     <use xlink:href="#DejaVuSans-61" x="2891.232422"/>
     <use xlink:href="#DejaVuSans-6e" x="2952.511719"/>
     <use xlink:href="#DejaVuSans-64" x="3015.890625"/>
     <use xlink:href="#DejaVuSans-61" x="3079.367188"/>
     <use xlink:href="#DejaVuSans-72" x="3140.646484"/>
     <use xlink:href="#DejaVuSans-64" x="3180.009766"/>
    </g>
   </g>
  </g>
 </g>
 <defs>
  <clipPath id="p028868ebf9">
   <rect x="32.81" y="18" width="254.47" height="91.24"/>
  </clipPath>
 </defs>
</svg>
