<?xml version="1.0" encoding="utf-8" standalone="no"?>
<!DOCTYPE svg PUBLIC "-//W3C//DTD SVG 1.1//EN"
  "http://www.w3.org/Graphics/SVG/1.1/DTD/svg11.dtd">
<svg xmlns:xlink="http://www.w3.org/1999/xlink" width="440.64pt" height="207.36pt" viewBox="0 0 440.64 207.36" xmlns="http://www.w3.org/2000/svg" version="1.1">
 <metadata>
  <rdf:RDF xmlns:dc="http://purl.org/dc/elements/1.1/" xmlns:cc="http://creativecommons.org/ns#" xmlns:rdf="http://www.w3.org/1999/02/22-rdf-syntax-ns#">
   <cc:Work>
    <dc:type rdf:resource="http://purl.org/dc/dcmitype/StillImage"/>
    <dc:date>2024-09-10T17:55:16.981437</dc:date>
    <dc:format>image/svg+xml</dc:format>
    <dc:creator>
     <cc:Agent>
      <dc:title>Matplotlib v3.9.1, https://matplotlib.org/</dc:title>
     </cc:Agent>
    </dc:creator>
   </cc:Work>
  </rdf:RDF>
 </metadata>
 <defs>
  <style type="text/css">*{stroke-linejoin: round; stroke-linecap: butt}</style>
 </defs>
 <g id="figure_1">
  <g id="patch_1">
   <path d="M 0 207.36 
L 440.64 207.36 
L 440.64 0 
L 0 0 
z
" style="fill: #ffffff"/>
  </g>
  <g id="axes_1">
   <g id="patch_2">
    <path d="M 32.81 178.36 
L 434.16 178.36 
L 434.16 18 
L 32.81 18 
z
" style="fill: #ffffff"/>
   </g>
   <g id="PolyCollection_1">
    <path d="M 53.413247 195.165392 
L 52.341753 195.165392 
L 52.110122 193.699073 
L 51.807612 192.232754 
L 51.424994 190.766436 
L 50.956481 189.300117 
L 50.401375 187.833798 
L 49.765481 186.367479 
L 49.062023 184.90116 
L 48.31183 183.434841 
L 47.542634 181.968522 
L 46.787466 180.502204 
L 46.082248 179.035885 
L 45.462821 177.569566 
L 44.961751 176.103247 
L 44.605264 174.636928 
L 44.410692 173.170609 
L 44.384727 171.70429 
L 44.522693 170.237972 
L 44.808924 168.771653 
L 45.218221 167.305334 
L 45.718224 165.839015 
L 46.272433 164.372696 
L 46.843536 162.906377 
L 47.396663 161.440058 
L 47.902192 159.97374 
L 48.33779 158.507421 
L 48.689497 157.041102 
L 48.951781 155.574783 
L 49.126703 154.108464 
L 49.222393 152.642145 
L 49.251207 151.175826 
L 49.227874 149.709508 
L 49.167913 148.243189 
L 49.086462 146.77687 
L 48.99751 145.310551 
L 48.913425 143.844232 
L 48.84462 142.377913 
L 48.799217 140.911594 
L 48.782694 139.445276 
L 48.797584 137.978957 
L 48.843401 136.512638 
L 48.916924 135.046319 
L 49.012952 133.58 
L 49.125428 132.113681 
L 49.24872 130.647362 
L 49.378739 129.181044 
L 49.513559 127.714725 
L 49.653334 126.248406 
L 49.799488 124.782087 
L 49.953397 123.315768 
L 50.11491 121.849449 
L 50.281175 120.38313 
L 50.446142 118.916812 
L 50.600956 117.450493 
L 50.735239 115.984174 
L 50.838997 114.517855 
L 50.904756 113.051536 
L 50.929439 111.585217 
L 50.91555 110.118898 
L 50.871375 108.65258 
L 50.810119 107.186261 
L 50.748109 105.719942 
L 50.702398 104.253623 
L 50.688214 102.787304 
L 50.716729 101.320985 
L 50.793534 99.854666 
L 50.918058 98.388348 
L 51.083978 96.922029 
L 51.280439 95.45571 
L 51.493799 93.989391 
L 51.709511 92.523072 
L 51.913799 91.056753 
L 52.094891 89.590434 
L 52.243682 88.124116 
L 52.353885 86.657797 
L 52.42182 85.191478 
L 52.446035 83.725159 
L 52.426966 82.25884 
L 52.366768 80.792521 
L 52.269351 79.326202 
L 52.140559 77.859884 
L 51.988347 76.393565 
L 51.822792 74.927246 
L 51.65576 73.460927 
L 51.500183 71.994608 
L 51.368934 70.528289 
L 51.273479 69.06197 
L 51.222508 67.595652 
L 51.220826 66.129333 
L 51.268738 64.663014 
L 51.362056 63.196695 
L 51.492747 61.730376 
L 51.650107 60.264057 
L 51.82221 58.797738 
L 51.997392 57.33142 
L 52.165508 55.865101 
L 52.318786 54.398782 
L 52.452216 52.932463 
L 52.56349 51.466144 
L 52.652604 49.999825 
L 53.102396 49.999825 
L 53.102396 49.999825 
L 53.19151 51.466144 
L 53.302784 52.932463 
L 53.436214 54.398782 
L 53.589492 55.865101 
L 53.757608 57.33142 
L 53.93279 58.797738 
L 54.104893 60.264057 
L 54.262253 61.730376 
L 54.392944 63.196695 
L 54.486262 64.663014 
L 54.534174 66.129333 
L 54.532492 67.595652 
L 54.481521 69.06197 
L 54.386066 70.528289 
L 54.254817 71.994608 
L 54.09924 73.460927 
L 53.932208 74.927246 
L 53.766653 76.393565 
L 53.614441 77.859884 
L 53.485649 79.326202 
L 53.388232 80.792521 
L 53.328034 82.25884 
L 53.308965 83.725159 
L 53.33318 85.191478 
L 53.401115 86.657797 
L 53.511318 88.124116 
L 53.660109 89.590434 
L 53.841201 91.056753 
L 54.045489 92.523072 
L 54.261201 93.989391 
L 54.474561 95.45571 
L 54.671022 96.922029 
L 54.836942 98.388348 
L 54.961466 99.854666 
L 55.038271 101.320985 
L 55.066786 102.787304 
L 55.052602 104.253623 
L 55.006891 105.719942 
L 54.944881 107.186261 
L 54.883625 108.65258 
L 54.83945 110.118898 
L 54.825561 111.585217 
L 54.850244 113.051536 
L 54.916003 114.517855 
L 55.019761 115.984174 
L 55.154044 117.450493 
L 55.308858 118.916812 
L 55.473825 120.38313 
L 55.64009 121.849449 
L 55.801603 123.315768 
L 55.955512 124.782087 
L 56.101666 126.248406 
L 56.241441 127.714725 
L 56.376261 129.181044 
L 56.50628 130.647362 
L 56.629572 132.113681 
L 56.742048 133.58 
L 56.838076 135.046319 
L 56.911599 136.512638 
L 56.957416 137.978957 
L 56.972306 139.445276 
L 56.955783 140.911594 
L 56.91038 142.377913 
L 56.841575 143.844232 
L 56.75749 145.310551 
L 56.668538 146.77687 
L 56.587087 148.243189 
L 56.527126 149.709508 
L 56.503793 151.175826 
L 56.532607 152.642145 
L 56.628297 154.108464 
L 56.803219 155.574783 
L 57.065503 157.041102 
L 57.41721 158.507421 
L 57.852808 159.97374 
L 58.358337 161.440058 
L 58.911464 162.906377 
L 59.482567 164.372696 
L 60.036776 165.839015 
L 60.536779 167.305334 
L 60.946076 168.771653 
L 61.232307 170.237972 
L 61.370273 171.70429 
L 61.344308 173.170609 
L 61.149736 174.636928 
L 60.793249 176.103247 
L 60.292179 177.569566 
L 59.672752 179.035885 
L 58.967534 180.502204 
L 58.212366 181.968522 
L 57.44317 183.434841 
L 56.692977 184.90116 
L 55.989519 186.367479 
L 55.353625 187.833798 
L 54.798519 189.300117 
L 54.330006 190.766436 
L 53.947388 192.232754 
L 53.644878 193.699073 
L 53.413247 195.165392 
L 53.413247 195.165392 
z
" clip-path="url(#p7c5e68a7ad)" style="fill: none; stroke: #fa8072; stroke-opacity: 0.8; stroke-width: 2"/>
   </g>
   <g id="PolyCollection_2">
    <path d="M 93.081362 197.496253 
L 92.943638 197.496253 
L 92.909504 195.701142 
L 92.862955 193.906031 
L 92.801606 192.11092 
L 92.723478 190.315809 
L 92.627367 188.520698 
L 92.513224 186.725587 
L 92.382484 184.930476 
L 92.238274 183.135365 
L 92.085456 181.340254 
L 91.930445 179.545143 
L 91.780802 177.750032 
L 91.644609 175.954921 
L 91.529695 174.159811 
L 91.442787 172.3647 
L 91.388709 170.569589 
L 91.369755 168.774478 
L 91.385325 166.979367 
L 91.43192 165.184256 
L 91.503493 163.389145 
L 91.592111 161.594034 
L 91.688813 159.798923 
L 91.784503 158.003812 
L 91.870744 156.208701 
L 91.940325 154.41359 
L 91.987553 152.618479 
L 92.008273 150.823368 
L 91.999694 149.028257 
L 91.960103 147.233146 
L 91.888548 145.438035 
L 91.784563 143.642924 
L 91.647986 141.847813 
L 91.478908 140.052702 
L 91.277789 138.257592 
L 91.045759 136.462481 
L 90.785091 134.66737 
L 90.499755 132.872259 
L 90.195926 131.077148 
L 89.882238 129.282037 
L 89.569618 127.486926 
L 89.270575 125.691815 
L 88.998 123.896704 
L 88.763655 122.101593 
L 88.57667 120.306482 
L 88.44243 118.511371 
L 88.362132 116.71626 
L 88.333174 114.921149 
L 88.350282 113.126038 
L 88.407085 111.330927 
L 88.497698 109.535816 
L 88.617871 107.740705 
L 88.765344 105.945594 
L 88.939313 104.150483 
L 89.139113 102.355373 
L 89.362482 100.560262 
L 89.603903 98.765151 
L 89.853487 96.97004 
L 90.096804 95.174929 
L 90.315819 93.379818 
L 90.490878 91.584707 
L 90.603458 89.789596 
L 90.639209 87.994485 
L 90.590716 86.199374 
L 90.45941 84.404263 
L 90.256148 82.609152 
L 90.000208 80.814041 
L 89.716746 79.01893 
L 89.433091 77.223819 
L 89.174556 75.428708 
L 88.960616 73.633597 
L 88.802261 71.838486 
L 88.701105 70.043375 
L 88.650427 68.248264 
L 88.637863 66.453154 
L 88.649059 64.658043 
L 88.671398 62.862932 
L 88.696927 61.067821 
L 88.723868 59.27271 
L 88.756483 57.477599 
L 88.803502 55.682488 
L 88.875636 53.887377 
L 88.98288 52.092266 
L 89.132245 50.297155 
L 89.326375 48.502044 
L 89.563194 46.706933 
L 89.836472 44.911822 
L 90.136998 43.116711 
L 90.453976 41.3216 
L 90.77633 39.526489 
L 91.093712 37.731378 
L 91.397159 35.936267 
L 91.679436 34.141156 
L 91.935169 32.346046 
L 92.160851 30.550935 
L 92.354766 28.755824 
L 92.516857 26.960713 
L 92.648522 25.165602 
L 92.752332 23.370491 
L 92.831689 21.57538 
L 92.890443 19.780269 
L 93.134557 19.780269 
L 93.134557 19.780269 
L 93.193311 21.57538 
L 93.272668 23.370491 
L 93.376478 25.165602 
L 93.508143 26.960713 
L 93.670234 28.755824 
L 93.864149 30.550935 
L 94.089831 32.346046 
L 94.345564 34.141156 
L 94.627841 35.936267 
L 94.931288 37.731378 
L 95.24867 39.526489 
L 95.571024 41.3216 
L 95.888002 43.116711 
L 96.188528 44.911822 
L 96.461806 46.706933 
L 96.698625 48.502044 
L 96.892755 50.297155 
L 97.04212 52.092266 
L 97.149364 53.887377 
L 97.221498 55.682488 
L 97.268517 57.477599 
L 97.301132 59.27271 
L 97.328073 61.067821 
L 97.353602 62.862932 
L 97.375941 64.658043 
L 97.387137 66.453154 
L 97.374573 68.248264 
L 97.323895 70.043375 
L 97.222739 71.838486 
L 97.064384 73.633597 
L 96.850444 75.428708 
L 96.591909 77.223819 
L 96.308254 79.01893 
L 96.024792 80.814041 
L 95.768852 82.609152 
L 95.56559 84.404263 
L 95.434284 86.199374 
L 95.385791 87.994485 
L 95.421542 89.789596 
L 95.534122 91.584707 
L 95.709181 93.379818 
L 95.928196 95.174929 
L 96.171513 96.97004 
L 96.421097 98.765151 
L 96.662518 100.560262 
L 96.885887 102.355373 
L 97.085687 104.150483 
L 97.259656 105.945594 
L 97.407129 107.740705 
L 97.527302 109.535816 
L 97.617915 111.330927 
L 97.674718 113.126038 
L 97.691826 114.921149 
L 97.662868 116.71626 
L 97.58257 118.511371 
L 97.44833 120.306482 
L 97.261345 122.101593 
L 97.027 123.896704 
L 96.754425 125.691815 
L 96.455382 127.486926 
L 96.142762 129.282037 
L 95.829074 131.077148 
L 95.525245 132.872259 
L 95.239909 134.66737 
L 94.979241 136.462481 
L 94.747211 138.257592 
L 94.546092 140.052702 
L 94.377014 141.847813 
L 94.240437 143.642924 
L 94.136452 145.438035 
L 94.064897 147.233146 
L 94.025306 149.028257 
L 94.016727 150.823368 
L 94.037447 152.618479 
L 94.084675 154.41359 
L 94.154256 156.208701 
L 94.240497 158.003812 
L 94.336187 159.798923 
L 94.432889 161.594034 
L 94.521507 163.389145 
L 94.59308 165.184256 
L 94.639675 166.979367 
L 94.655245 168.774478 
L 94.636291 170.569589 
L 94.582213 172.3647 
L 94.495305 174.159811 
L 94.380391 175.954921 
L 94.244198 177.750032 
L 94.094555 179.545143 
L 93.939544 181.340254 
L 93.786726 183.135365 
L 93.642516 184.930476 
L 93.511776 186.725587 
L 93.397633 188.520698 
L 93.301522 190.315809 
L 93.223394 192.11092 
L 93.162045 193.906031 
L 93.115496 195.701142 
L 93.081362 197.496253 
L 93.081362 197.496253 
z
" clip-path="url(#p7c5e68a7ad)" style="fill: none; stroke: #fa8072; stroke-opacity: 0.8; stroke-width: 2"/>
   </g>
   <g id="PolyCollection_3">
    <path d="M 133.203188 175.036785 
L 133.091812 175.036785 
L 133.064886 173.272844 
L 133.029194 171.508904 
L 132.983685 169.744964 
L 132.927702 167.981023 
L 132.860961 166.217083 
L 132.783387 164.453143 
L 132.694836 162.689203 
L 132.594787 160.925262 
L 132.482165 159.161322 
L 132.355424 157.397382 
L 132.212974 155.633441 
L 132.053883 153.869501 
L 131.878684 152.105561 
L 131.689979 150.34162 
L 131.492576 148.57768 
L 131.292989 146.81374 
L 131.098352 145.049799 
L 130.915005 143.285859 
L 130.74717 141.521919 
L 130.596121 139.757978 
L 130.460167 137.994038 
L 130.335481 136.230098 
L 130.217596 134.466157 
L 130.103158 132.702217 
L 129.99146 130.938277 
L 129.885322 129.174337 
L 129.791061 127.410396 
L 129.71752 125.646456 
L 129.67433 123.882516 
L 129.669808 122.118575 
L 129.708894 120.354635 
L 129.791593 118.590695 
L 129.91221 116.826754 
L 130.059553 115.062814 
L 130.218087 113.298874 
L 130.369854 111.534933 
L 130.496873 109.770993 
L 130.583623 108.007053 
L 130.61924 106.243112 
L 130.599017 104.479172 
L 130.524943 102.715232 
L 130.405129 100.951291 
L 130.252165 99.187351 
L 130.080685 97.423411 
L 129.9046 95.659471 
L 129.734575 93.89553 
L 129.576342 92.13159 
L 129.430257 90.36765 
L 129.29227 88.603709 
L 129.156069 86.839769 
L 129.015886 85.075829 
L 128.869167 83.311888 
L 128.718354 81.547948 
L 128.571198 79.784008 
L 128.439439 78.020067 
L 128.336186 76.256127 
L 128.272714 74.492187 
L 128.255592 72.728246 
L 128.284957 70.964306 
L 128.354351 69.200366 
L 128.452109 67.436426 
L 128.563798 65.672485 
L 128.675046 63.908545 
L 128.774086 62.144605 
L 128.853617 60.380664 
L 128.911804 58.616724 
L 128.952459 56.852784 
L 128.984502 55.088843 
L 129.020751 53.324903 
L 129.076069 51.560963 
L 129.16495 49.797022 
L 129.298844 48.033082 
L 129.483683 46.269142 
L 129.718234 44.505201 
L 129.993784 42.741261 
L 130.295378 40.977321 
L 130.604404 39.21338 
L 130.901902 37.44944 
L 131.171811 35.6855 
L 131.403378 33.92156 
L 131.592283 32.157619 
L 131.74038 30.393679 
L 131.854352 28.629739 
L 131.943746 26.865798 
L 132.018913 25.101858 
L 132.089247 23.337918 
L 132.161973 21.573977 
L 132.241522 19.810037 
L 132.329455 18.046097 
L 132.424812 16.282156 
L 132.524745 14.518216 
L 132.625304 12.754276 
L 132.722232 10.990335 
L 132.811674 9.226395 
L 132.890692 7.462455 
L 132.957545 5.698514 
L 133.011725 3.934574 
L 133.053799 2.170634 
L 133.08511 0.406694 
L 133.20989 0.406694 
L 133.20989 0.406694 
L 133.241201 2.170634 
L 133.283275 3.934574 
L 133.337455 5.698514 
L 133.404308 7.462455 
L 133.483326 9.226395 
L 133.572768 10.990335 
L 133.669696 12.754276 
L 133.770255 14.518216 
L 133.870188 16.282156 
L 133.965545 18.046097 
L 134.053478 19.810037 
L 134.133027 21.573977 
L 134.205753 23.337918 
L 134.276087 25.101858 
L 134.351254 26.865798 
L 134.440648 28.629739 
L 134.55462 30.393679 
L 134.702717 32.157619 
L 134.891622 33.92156 
L 135.123189 35.6855 
L 135.393098 37.44944 
L 135.690596 39.21338 
L 135.999622 40.977321 
L 136.301216 42.741261 
L 136.576766 44.505201 
L 136.811317 46.269142 
L 136.996156 48.033082 
L 137.13005 49.797022 
L 137.218931 51.560963 
L 137.274249 53.324903 
L 137.310498 55.088843 
L 137.342541 56.852784 
L 137.383196 58.616724 
L 137.441383 60.380664 
L 137.520914 62.144605 
L 137.619954 63.908545 
L 137.731202 65.672485 
L 137.842891 67.436426 
L 137.940649 69.200366 
L 138.010043 70.964306 
L 138.039408 72.728246 
L 138.022286 74.492187 
L 137.958814 76.256127 
L 137.855561 78.020067 
L 137.723802 79.784008 
L 137.576646 81.547948 
L 137.425833 83.311888 
L 137.279114 85.075829 
L 137.138931 86.839769 
L 137.00273 88.603709 
L 136.864743 90.36765 
L 136.718658 92.13159 
L 136.560425 93.89553 
L 136.3904 95.659471 
L 136.214315 97.423411 
L 136.042835 99.187351 
L 135.889871 100.951291 
L 135.770057 102.715232 
L 135.695983 104.479172 
L 135.67576 106.243112 
L 135.711377 108.007053 
L 135.798127 109.770993 
L 135.925146 111.534933 
L 136.076913 113.298874 
L 136.235447 115.062814 
L 136.38279 116.826754 
L 136.503407 118.590695 
L 136.586106 120.354635 
L 136.625192 122.118575 
L 136.62067 123.882516 
L 136.57748 125.646456 
L 136.503939 127.410396 
L 136.409678 129.174337 
L 136.30354 130.938277 
L 136.191842 132.702217 
L 136.077404 134.466157 
L 135.959519 136.230098 
L 135.834833 137.994038 
L 135.698879 139.757978 
L 135.54783 141.521919 
L 135.379995 143.285859 
L 135.196648 145.049799 
L 135.002011 146.81374 
L 134.802424 148.57768 
L 134.605021 150.34162 
L 134.416316 152.105561 
L 134.241117 153.869501 
L 134.082026 155.633441 
L 133.939576 157.397382 
L 133.812835 159.161322 
L 133.700213 160.925262 
L 133.600164 162.689203 
L 133.511613 164.453143 
L 133.434039 166.217083 
L 133.367298 167.981023 
L 133.311315 169.744964 
L 133.265806 171.508904 
L 133.230114 173.272844 
L 133.203188 175.036785 
L 133.203188 175.036785 
z
" clip-path="url(#p7c5e68a7ad)" style="fill: none; stroke: #fa8072; stroke-opacity: 0.8; stroke-width: 2"/>
   </g>
   <g id="PolyCollection_4">
    <path d="M 173.340139 178.273142 
L 173.224861 178.273142 
L 173.199113 176.443821 
L 173.164951 174.614499 
L 173.120918 172.785178 
L 173.065743 170.955857 
L 172.998474 169.126535 
L 172.918596 167.297214 
L 172.826115 165.467893 
L 172.721587 163.638572 
L 172.606098 161.80925 
L 172.481197 159.979929 
L 172.348809 158.150608 
L 172.211123 156.321287 
L 172.070489 154.491965 
L 171.929319 152.662644 
L 171.789972 150.833323 
L 171.654632 149.004002 
L 171.525141 147.17468 
L 171.402796 145.345359 
L 171.288129 143.516038 
L 171.180697 141.686716 
L 171.078962 139.857395 
L 170.980315 138.028074 
L 170.881313 136.198753 
L 170.778168 134.369431 
L 170.667449 132.54011 
L 170.546933 130.710789 
L 170.416437 128.881468 
L 170.278442 127.052146 
L 170.138314 125.222825 
L 170.00398 123.393504 
L 169.884996 121.564183 
L 169.791131 119.734861 
L 169.730678 117.90554 
L 169.708833 116.076219 
L 169.726504 114.246897 
L 169.77985 112.417576 
L 169.860689 110.588255 
L 169.95775 108.758934 
L 170.058521 106.929612 
L 170.151339 105.100291 
L 170.227283 103.27097 
L 170.281503 101.441649 
L 170.31374 99.612327 
L 170.327963 97.783006 
L 170.331264 95.953685 
L 170.332256 94.124364 
L 170.339344 92.295042 
L 170.359209 90.465721 
L 170.395779 88.6364 
L 170.449827 86.807078 
L 170.519193 84.977757 
L 170.599481 83.148436 
L 170.684995 81.319115 
L 170.769677 79.489793 
L 170.84783 77.660472 
L 170.914524 75.831151 
L 170.965698 74.00183 
L 170.998061 72.172508 
L 171.008949 70.343187 
L 170.996272 68.513866 
L 170.95864 66.684545 
L 170.895648 64.855223 
L 170.80821 63.025902 
L 170.698811 61.196581 
L 170.571518 59.36726 
L 170.431677 57.537938 
L 170.285309 55.708617 
L 170.138307 53.879296 
L 169.995638 52.049974 
L 169.860741 50.220653 
L 169.735283 48.391332 
L 169.619387 46.562011 
L 169.512259 44.732689 
L 169.413099 42.903368 
L 169.322076 41.074047 
L 169.241113 39.244726 
L 169.174293 37.415404 
L 169.127762 35.586083 
L 169.109122 33.756762 
L 169.126427 31.927441 
L 169.186966 30.098119 
L 169.296059 28.268798 
L 169.456087 26.439477 
L 169.665917 24.610155 
L 169.920793 22.780834 
L 170.212712 20.951513 
L 170.531171 19.122192 
L 170.864191 17.29287 
L 171.199427 15.463549 
L 171.525239 13.634228 
L 171.831588 11.804907 
L 172.110667 9.975585 
L 172.357238 8.146264 
L 172.568661 6.316943 
L 172.744677 4.487622 
L 172.886992 2.6583 
L 172.998755 0.828979 
L 173.08399 -1 
M 173.48101 -1 
L 173.566245 0.828979 
L 173.678008 2.6583 
L 173.820323 4.487622 
L 173.996339 6.316943 
L 174.207762 8.146264 
L 174.454333 9.975585 
L 174.733412 11.804907 
L 175.039761 13.634228 
L 175.365573 15.463549 
L 175.700809 17.29287 
L 176.033829 19.122192 
L 176.352288 20.951513 
L 176.644207 22.780834 
L 176.899083 24.610155 
L 177.108913 26.439477 
L 177.268941 28.268798 
L 177.378034 30.098119 
L 177.438573 31.927441 
L 177.455878 33.756762 
L 177.437238 35.586083 
L 177.390707 37.415404 
L 177.323887 39.244726 
L 177.242924 41.074047 
L 177.151901 42.903368 
L 177.052741 44.732689 
L 176.945613 46.562011 
L 176.829717 48.391332 
L 176.704259 50.220653 
L 176.569362 52.049974 
L 176.426693 53.879296 
L 176.279691 55.708617 
L 176.133323 57.537938 
L 175.993482 59.36726 
L 175.866189 61.196581 
L 175.75679 63.025902 
L 175.669352 64.855223 
L 175.60636 66.684545 
L 175.568728 68.513866 
L 175.556051 70.343187 
L 175.566939 72.172508 
L 175.599302 74.00183 
L 175.650476 75.831151 
L 175.71717 77.660472 
L 175.795323 79.489793 
L 175.880005 81.319115 
L 175.965519 83.148436 
L 176.045807 84.977757 
L 176.115173 86.807078 
L 176.169221 88.6364 
L 176.205791 90.465721 
L 176.225656 92.295042 
L 176.232744 94.124364 
L 176.233736 95.953685 
L 176.237037 97.783006 
L 176.25126 99.612327 
L 176.283497 101.441649 
L 176.337717 103.27097 
L 176.413661 105.100291 
L 176.506479 106.929612 
L 176.60725 108.758934 
L 176.704311 110.588255 
L 176.78515 112.417576 
L 176.838496 114.246897 
L 176.856167 116.076219 
L 176.834322 117.90554 
L 176.773869 119.734861 
L 176.680004 121.564183 
L 176.56102 123.393504 
L 176.426686 125.222825 
L 176.286558 127.052146 
L 176.148563 128.881468 
L 176.018067 130.710789 
L 175.897551 132.54011 
L 175.786832 134.369431 
L 175.683687 136.198753 
L 175.584685 138.028074 
L 175.486038 139.857395 
L 175.384303 141.686716 
L 175.276871 143.516038 
L 175.162204 145.345359 
L 175.039859 147.17468 
L 174.910368 149.004002 
L 174.775028 150.833323 
L 174.635681 152.662644 
L 174.494511 154.491965 
L 174.353877 156.321287 
L 174.216191 158.150608 
L 174.083803 159.979929 
L 173.958902 161.80925 
L 173.843413 163.638572 
L 173.738885 165.467893 
L 173.646404 167.297214 
L 173.566526 169.126535 
L 173.499257 170.955857 
L 173.444082 172.785178 
L 173.400049 174.614499 
L 173.365887 176.443821 
L 173.340139 178.273142 
L 173.340139 178.273142 
" clip-path="url(#p7c5e68a7ad)" style="fill: none; stroke: #fa8072; stroke-opacity: 0.8; stroke-width: 2"/>
   </g>
   <g id="PolyCollection_5">
    <path d="M 213.489361 136.951799 
L 213.345639 136.951799 
L 213.312962 135.605122 
L 213.270177 134.258446 
L 213.216237 132.911769 
L 213.150767 131.565092 
L 213.074264 130.218416 
L 212.988209 128.871739 
L 212.895027 127.525062 
L 212.797895 126.178386 
L 212.700417 124.831709 
L 212.606207 123.485032 
L 212.518465 122.138356 
L 212.439609 120.791679 
L 212.371019 119.445002 
L 212.31292 118.098326 
L 212.264394 116.751649 
L 212.223485 115.404972 
L 212.187373 114.058296 
L 212.152563 112.711619 
L 212.115107 111.364942 
L 212.070848 110.018266 
L 212.015721 108.671589 
L 211.946121 107.324912 
L 211.859328 105.978236 
L 211.753934 104.631559 
L 211.630194 103.284883 
L 211.49017 101.938206 
L 211.33759 100.591529 
L 211.17737 99.244853 
L 211.014837 97.898176 
L 210.854801 96.551499 
L 210.700667 95.204823 
L 210.553828 93.858146 
L 210.413513 92.511469 
L 210.277171 91.164793 
L 210.14131 89.818116 
L 210.002616 88.471439 
L 209.859058 87.124763 
L 209.710724 85.778086 
L 209.560177 84.431409 
L 209.41226 83.084733 
L 209.273414 81.738056 
L 209.150682 80.391379 
L 209.050623 79.044703 
L 208.978363 77.698026 
L 208.93692 76.351349 
L 208.926918 75.004673 
L 208.946653 73.657996 
L 208.992465 72.311319 
L 209.059284 70.964643 
L 209.141248 69.617966 
L 209.232227 68.271289 
L 209.326195 66.924613 
L 209.417359 65.577936 
L 209.500073 64.231259 
L 209.568609 62.884583 
L 209.616924 61.537906 
L 209.638583 60.191229 
L 209.626999 58.844553 
L 209.576062 57.497876 
L 209.481104 56.151199 
L 209.340045 54.804523 
L 209.154435 53.457846 
L 208.930092 52.111169 
L 208.677087 50.764493 
L 208.408991 49.417816 
L 208.141459 48.071139 
L 207.89042 46.724463 
L 207.670265 45.377786 
L 207.492358 44.031109 
L 207.364168 42.684433 
L 207.289048 41.337756 
L 207.266575 39.99108 
L 207.293194 38.644403 
L 207.362896 37.297726 
L 207.467753 35.95105 
L 207.598273 34.604373 
L 207.743712 33.257696 
L 207.892579 31.91102 
L 208.033553 30.564343 
L 208.156916 29.217666 
L 208.256348 27.87099 
L 208.330743 26.524313 
L 208.385481 25.177636 
L 208.432651 23.83096 
L 208.489864 22.484283 
L 208.577665 21.137606 
L 208.71595 19.79093 
L 208.920109 18.444253 
L 209.1978 17.097576 
L 209.547106 15.7509 
L 209.956527 14.404223 
L 210.406786 13.057546 
L 210.873991 11.71087 
L 211.333392 10.364193 
L 211.7629 9.017516 
L 212.14571 7.67084 
L 212.471634 6.324163 
L 212.737144 4.977486 
L 212.944369 3.63081 
L 213.890631 3.63081 
L 213.890631 3.63081 
L 214.097856 4.977486 
L 214.363366 6.324163 
L 214.68929 7.67084 
L 215.0721 9.017516 
L 215.501608 10.364193 
L 215.961009 11.71087 
L 216.428214 13.057546 
L 216.878473 14.404223 
L 217.287894 15.7509 
L 217.6372 17.097576 
L 217.914891 18.444253 
L 218.11905 19.79093 
L 218.257335 21.137606 
L 218.345136 22.484283 
L 218.402349 23.83096 
L 218.449519 25.177636 
L 218.504257 26.524313 
L 218.578652 27.87099 
L 218.678084 29.217666 
L 218.801447 30.564343 
L 218.942421 31.91102 
L 219.091288 33.257696 
L 219.236727 34.604373 
L 219.367247 35.95105 
L 219.472104 37.297726 
L 219.541806 38.644403 
L 219.568425 39.99108 
L 219.545952 41.337756 
L 219.470832 42.684433 
L 219.342642 44.031109 
L 219.164735 45.377786 
L 218.94458 46.724463 
L 218.693541 48.071139 
L 218.426009 49.417816 
L 218.157913 50.764493 
L 217.904908 52.111169 
L 217.680565 53.457846 
L 217.494955 54.804523 
L 217.353896 56.151199 
L 217.258938 57.497876 
L 217.208001 58.844553 
L 217.196417 60.191229 
L 217.218076 61.537906 
L 217.266391 62.884583 
L 217.334927 64.231259 
L 217.417641 65.577936 
L 217.508805 66.924613 
L 217.602773 68.271289 
L 217.693752 69.617966 
L 217.775716 70.964643 
L 217.842535 72.311319 
L 217.888347 73.657996 
L 217.908082 75.004673 
L 217.89808 76.351349 
L 217.856637 77.698026 
L 217.784377 79.044703 
L 217.684318 80.391379 
L 217.561586 81.738056 
L 217.42274 83.084733 
L 217.274823 84.431409 
L 217.124276 85.778086 
L 216.975942 87.124763 
L 216.832384 88.471439 
L 216.69369 89.818116 
L 216.557829 91.164793 
L 216.421487 92.511469 
L 216.281172 93.858146 
L 216.134333 95.204823 
L 215.980199 96.551499 
L 215.820163 97.898176 
L 215.65763 99.244853 
L 215.49741 100.591529 
L 215.34483 101.938206 
L 215.204806 103.284883 
L 215.081066 104.631559 
L 214.975672 105.978236 
L 214.888879 107.324912 
L 214.819279 108.671589 
L 214.764152 110.018266 
L 214.719893 111.364942 
L 214.682437 112.711619 
L 214.647627 114.058296 
L 214.611515 115.404972 
L 214.570606 116.751649 
L 214.52208 118.098326 
L 214.463981 119.445002 
L 214.395391 120.791679 
L 214.316535 122.138356 
L 214.228793 123.485032 
L 214.134583 124.831709 
L 214.037105 126.178386 
L 213.939973 127.525062 
L 213.846791 128.871739 
L 213.760736 130.218416 
L 213.684233 131.565092 
L 213.618763 132.911769 
L 213.564823 134.258446 
L 213.522038 135.605122 
L 213.489361 136.951799 
L 213.489361 136.951799 
z
" clip-path="url(#p7c5e68a7ad)" style="fill: none; stroke: #fa8072; stroke-opacity: 0.8; stroke-width: 2"/>
   </g>
   <g id="PolyCollection_6">
    <path d="M 253.636144 119.942375 
L 253.468856 119.942375 
L 253.429608 118.798471 
L 253.379139 117.654567 
L 253.317647 116.510663 
L 253.246871 115.366759 
L 253.170233 114.222855 
L 253.092588 113.078951 
L 253.01952 111.935047 
L 252.956249 110.791144 
L 252.906329 109.64724 
L 252.87046 108.503336 
L 252.845744 107.359432 
L 252.825645 106.215528 
L 252.80079 105.071624 
L 252.760479 103.92772 
L 252.694622 102.783816 
L 252.595689 101.639912 
L 252.460227 100.496008 
L 252.289655 99.352104 
L 252.090214 98.2082 
L 251.872191 97.064296 
L 251.648673 95.920392 
L 251.434132 94.776489 
L 251.243058 93.632585 
L 251.0887 92.488681 
L 250.981836 91.344777 
L 250.929459 90.200873 
L 250.933389 89.056969 
L 250.989033 87.913065 
L 251.084733 86.769161 
L 251.202178 85.625257 
L 251.318235 84.481353 
L 251.408187 83.337449 
L 251.449867 82.193545 
L 251.427848 81.049641 
L 251.336609 79.905737 
L 251.181777 78.761833 
L 250.978941 77.61793 
L 250.750192 76.474026 
L 250.519115 75.330122 
L 250.305461 74.186218 
L 250.120812 73.042314 
L 249.966341 71.89841 
L 249.833204 70.754506 
L 249.705432 69.610602 
L 249.564548 68.466698 
L 249.394691 67.322794 
L 249.186948 66.17889 
L 248.94177 65.034986 
L 248.668877 63.891082 
L 248.384654 62.747178 
L 248.107705 61.603275 
L 247.853724 60.459371 
L 247.631057 59.315467 
L 247.438148 58.171563 
L 247.263614 57.027659 
L 247.088983 55.883755 
L 246.893449 54.739851 
L 246.659468 53.595947 
L 246.377835 52.452043 
L 246.051021 51.308139 
L 245.69397 50.164235 
L 245.332223 49.020331 
L 244.997865 47.876427 
L 244.724326 46.732523 
L 244.541259 45.58862 
L 244.470558 44.444716 
L 244.524097 43.300812 
L 244.703165 42.156908 
L 244.999114 41.013004 
L 245.394601 39.8691 
L 245.864993 38.725196 
L 246.379894 37.581292 
L 246.905057 36.437388 
L 247.405002 35.293484 
L 247.846404 34.14958 
L 248.201915 33.005676 
L 248.453704 31.861772 
L 248.595896 30.717868 
L 248.635279 29.573964 
L 248.590068 28.430061 
L 248.487045 27.286157 
L 248.357763 26.142253 
L 248.234668 24.998349 
L 248.147822 23.854445 
L 248.122567 22.710541 
L 248.178077 21.566637 
L 248.326496 20.422733 
L 248.572343 19.278829 
L 248.912083 18.134925 
L 249.334062 16.991021 
L 249.819154 15.847117 
L 250.342447 14.703213 
L 250.875972 13.559309 
L 251.392101 12.415406 
L 251.866942 11.271502 
L 252.282988 10.127598 
L 252.630487 8.983694 
L 252.907369 7.83979 
L 253.117946 6.695886 
L 253.987054 6.695886 
L 253.987054 6.695886 
L 254.197631 7.83979 
L 254.474513 8.983694 
L 254.822012 10.127598 
L 255.238058 11.271502 
L 255.712899 12.415406 
L 256.229028 13.559309 
L 256.762553 14.703213 
L 257.285846 15.847117 
L 257.770938 16.991021 
L 258.192917 18.134925 
L 258.532657 19.278829 
L 258.778504 20.422733 
L 258.926923 21.566637 
L 258.982433 22.710541 
L 258.957178 23.854445 
L 258.870332 24.998349 
L 258.747237 26.142253 
L 258.617955 27.286157 
L 258.514932 28.430061 
L 258.469721 29.573964 
L 258.509104 30.717868 
L 258.651296 31.861772 
L 258.903085 33.005676 
L 259.258596 34.14958 
L 259.699998 35.293484 
L 260.199943 36.437388 
L 260.725106 37.581292 
L 261.240007 38.725196 
L 261.710399 39.8691 
L 262.105886 41.013004 
L 262.401835 42.156908 
L 262.580903 43.300812 
L 262.634442 44.444716 
L 262.563741 45.58862 
L 262.380674 46.732523 
L 262.107135 47.876427 
L 261.772777 49.020331 
L 261.41103 50.164235 
L 261.053979 51.308139 
L 260.727165 52.452043 
L 260.445532 53.595947 
L 260.211551 54.739851 
L 260.016017 55.883755 
L 259.841386 57.027659 
L 259.666852 58.171563 
L 259.473943 59.315467 
L 259.251276 60.459371 
L 258.997295 61.603275 
L 258.720346 62.747178 
L 258.436123 63.891082 
L 258.16323 65.034986 
L 257.918052 66.17889 
L 257.710309 67.322794 
L 257.540452 68.466698 
L 257.399568 69.610602 
L 257.271796 70.754506 
L 257.138659 71.89841 
L 256.984188 73.042314 
L 256.799539 74.186218 
L 256.585885 75.330122 
L 256.354808 76.474026 
L 256.126059 77.61793 
L 255.923223 78.761833 
L 255.768391 79.905737 
L 255.677152 81.049641 
L 255.655133 82.193545 
L 255.696813 83.337449 
L 255.786765 84.481353 
L 255.902822 85.625257 
L 256.020267 86.769161 
L 256.115967 87.913065 
L 256.171611 89.056969 
L 256.175541 90.200873 
L 256.123164 91.344777 
L 256.0163 92.488681 
L 255.861942 93.632585 
L 255.670868 94.776489 
L 255.456327 95.920392 
L 255.232809 97.064296 
L 255.014786 98.2082 
L 254.815345 99.352104 
L 254.644773 100.496008 
L 254.509311 101.639912 
L 254.410378 102.783816 
L 254.344521 103.92772 
L 254.30421 105.071624 
L 254.279355 106.215528 
L 254.259256 107.359432 
L 254.23454 108.503336 
L 254.198671 109.64724 
L 254.148751 110.791144 
L 254.08548 111.935047 
L 254.012412 113.078951 
L 253.934767 114.222855 
L 253.858129 115.366759 
L 253.787353 116.510663 
L 253.725861 117.654567 
L 253.675392 118.798471 
L 253.636144 119.942375 
L 253.636144 119.942375 
z
" clip-path="url(#p7c5e68a7ad)" style="fill: none; stroke: #fa8072; stroke-opacity: 0.8; stroke-width: 2"/>
   </g>
   <g id="PolyCollection_7">
    <path d="M 293.767679 128.065924 
L 293.607321 128.065924 
L 293.568954 126.828334 
L 293.518495 125.590744 
L 293.455024 124.353154 
L 293.37872 123.115563 
L 293.291148 121.877973 
L 293.19536 120.640383 
L 293.09577 119.402793 
L 292.997783 118.165203 
L 292.907255 116.927613 
L 292.829837 115.690023 
L 292.770344 114.452433 
L 292.732194 113.214843 
L 292.716991 111.977253 
L 292.724271 110.739663 
L 292.751422 109.502073 
L 292.793805 108.264483 
L 292.845121 107.026893 
L 292.898022 105.789303 
L 292.94497 104.551713 
L 292.979216 103.314123 
L 292.995768 102.076533 
L 292.992135 100.838943 
L 292.968673 99.601353 
L 292.928437 98.363763 
L 292.876532 97.126173 
L 292.819067 95.888583 
L 292.761867 94.650993 
L 292.709134 93.413403 
L 292.662203 92.175813 
L 292.618549 90.938223 
L 292.571185 89.700633 
L 292.508638 88.463043 
L 292.415721 87.225453 
L 292.275279 85.987863 
L 292.070985 84.750273 
L 291.790946 83.512683 
L 291.43156 82.275093 
L 291.000728 81.037503 
L 290.519366 79.799913 
L 290.020371 78.562323 
L 289.544659 77.324733 
L 289.134731 76.087143 
L 288.826954 74.849553 
L 288.644342 73.611963 
L 288.591633 72.374373 
L 288.653995 71.136782 
L 288.799733 69.899192 
L 288.986325 68.661602 
L 289.168272 67.424012 
L 289.30488 66.186422 
L 289.366283 64.948832 
L 289.336671 63.711242 
L 289.214547 62.473652 
L 289.010557 61.236062 
L 288.743901 59.998472 
L 288.438421 58.760882 
L 288.119183 57.523292 
L 287.810021 56.285702 
L 287.532084 55.048112 
L 287.303177 53.810522 
L 287.137547 52.572932 
L 287.045783 51.335342 
L 287.034574 50.097752 
L 287.106227 48.860162 
L 287.257983 47.622572 
L 287.481324 46.384982 
L 287.76156 45.147392 
L 288.078007 43.909802 
L 288.404963 42.672212 
L 288.713505 41.434622 
L 288.973927 40.197032 
L 289.158482 38.959442 
L 289.24405 37.721852 
L 289.214429 36.484262 
L 289.062088 35.246672 
L 288.789301 34.009082 
L 288.408644 32.771492 
L 287.942751 31.533902 
L 287.423234 30.296312 
L 286.888628 29.058722 
L 286.381407 27.821132 
L 285.944312 26.583542 
L 285.61645 25.345952 
L 285.42972 24.108362 
L 285.406061 22.870772 
L 285.555789 21.633182 
L 285.877062 20.395591 
L 286.356344 19.158001 
L 286.969696 17.920411 
L 287.684783 16.682821 
L 288.463576 15.445231 
L 289.265632 14.207641 
L 290.051748 12.970051 
L 290.787553 11.732461 
L 291.446469 10.494871 
L 292.011544 9.257281 
L 292.475847 8.019691 
L 292.841459 6.782101 
L 293.117397 5.544511 
L 294.257603 5.544511 
L 294.257603 5.544511 
L 294.533541 6.782101 
L 294.899153 8.019691 
L 295.363456 9.257281 
L 295.928531 10.494871 
L 296.587447 11.732461 
L 297.323252 12.970051 
L 298.109368 14.207641 
L 298.911424 15.445231 
L 299.690217 16.682821 
L 300.405304 17.920411 
L 301.018656 19.158001 
L 301.497938 20.395591 
L 301.819211 21.633182 
L 301.968939 22.870772 
L 301.94528 24.108362 
L 301.75855 25.345952 
L 301.430688 26.583542 
L 300.993593 27.821132 
L 300.486372 29.058722 
L 299.951766 30.296312 
L 299.432249 31.533902 
L 298.966356 32.771492 
L 298.585699 34.009082 
L 298.312912 35.246672 
L 298.160571 36.484262 
L 298.13095 37.721852 
L 298.216518 38.959442 
L 298.401073 40.197032 
L 298.661495 41.434622 
L 298.970037 42.672212 
L 299.296993 43.909802 
L 299.61344 45.147392 
L 299.893676 46.384982 
L 300.117017 47.622572 
L 300.268773 48.860162 
L 300.340426 50.097752 
L 300.329217 51.335342 
L 300.237453 52.572932 
L 300.071823 53.810522 
L 299.842916 55.048112 
L 299.564979 56.285702 
L 299.255817 57.523292 
L 298.936579 58.760882 
L 298.631099 59.998472 
L 298.364443 61.236062 
L 298.160453 62.473652 
L 298.038329 63.711242 
L 298.008717 64.948832 
L 298.07012 66.186422 
L 298.206728 67.424012 
L 298.388675 68.661602 
L 298.575267 69.899192 
L 298.721005 71.136782 
L 298.783367 72.374373 
L 298.730658 73.611963 
L 298.548046 74.849553 
L 298.240269 76.087143 
L 297.830341 77.324733 
L 297.354629 78.562323 
L 296.855634 79.799913 
L 296.374272 81.037503 
L 295.94344 82.275093 
L 295.584054 83.512683 
L 295.304015 84.750273 
L 295.099721 85.987863 
L 294.959279 87.225453 
L 294.866362 88.463043 
L 294.803815 89.700633 
L 294.756451 90.938223 
L 294.712797 92.175813 
L 294.665866 93.413403 
L 294.613133 94.650993 
L 294.555933 95.888583 
L 294.498468 97.126173 
L 294.446563 98.363763 
L 294.406327 99.601353 
L 294.382865 100.838943 
L 294.379232 102.076533 
L 294.395784 103.314123 
L 294.43003 104.551713 
L 294.476978 105.789303 
L 294.529879 107.026893 
L 294.581195 108.264483 
L 294.623578 109.502073 
L 294.650729 110.739663 
L 294.658009 111.977253 
L 294.642806 113.214843 
L 294.604656 114.452433 
L 294.545163 115.690023 
L 294.467745 116.927613 
L 294.377217 118.165203 
L 294.27923 119.402793 
L 294.17964 120.640383 
L 294.083852 121.877973 
L 293.99628 123.115563 
L 293.919976 124.353154 
L 293.856505 125.590744 
L 293.806046 126.828334 
L 293.767679 128.065924 
L 293.767679 128.065924 
z
" clip-path="url(#p7c5e68a7ad)" style="fill: none; stroke: #fa8072; stroke-opacity: 0.8; stroke-width: 2"/>
   </g>
   <g id="PolyCollection_8">
    <path d="M 334.069925 106.154909 
L 333.575075 106.154909 
L 333.476277 105.148688 
L 333.352683 104.142467 
L 333.204218 103.136245 
L 333.03333 102.130024 
L 332.845393 101.123803 
L 332.648695 100.117582 
L 332.453899 99.11136 
L 332.272952 98.105139 
L 332.117536 97.098918 
L 331.997292 96.092696 
L 331.91814 95.086475 
L 331.881027 94.080254 
L 331.881426 93.074033 
L 331.909733 92.067811 
L 331.952558 91.06159 
L 331.994722 90.055369 
L 332.021593 89.049148 
L 332.021354 88.042926 
L 331.986763 87.036705 
L 331.916115 86.030484 
L 331.813243 85.024263 
L 331.686594 84.018041 
L 331.547618 83.01182 
L 331.408778 82.005599 
L 331.281589 80.999378 
L 331.174998 79.993156 
L 331.094364 78.986935 
L 331.041101 77.980714 
L 331.012947 76.974492 
L 331.004687 75.968271 
L 331.009122 74.96205 
L 331.018086 73.955829 
L 331.023342 72.949607 
L 331.017309 71.943386 
L 330.993581 70.937165 
L 330.94729 69.930944 
L 330.875352 68.924722 
L 330.776633 67.918501 
L 330.652034 66.91228 
L 330.504476 65.906059 
L 330.338744 64.899837 
L 330.161152 63.893616 
L 329.979036 62.887395 
L 329.8001 61.881173 
L 329.631698 60.874952 
L 329.480133 59.868731 
L 329.350068 58.86251 
L 329.244091 57.856288 
L 329.162451 56.850067 
L 329.102922 55.843846 
L 329.060789 54.837625 
L 329.028911 53.831403 
L 328.997934 52.825182 
L 328.956695 51.818961 
L 328.892947 50.81274 
L 328.794444 49.806518 
L 328.650389 48.800297 
L 328.45312 47.794076 
L 328.199793 46.787855 
L 327.893744 45.781633 
L 327.545185 44.775412 
L 327.170955 43.769191 
L 326.793195 42.762969 
L 326.43703 41.756748 
L 326.127556 40.750527 
L 325.886621 39.744306 
L 325.729939 38.738084 
L 325.665046 37.731863 
L 325.690421 36.725642 
L 325.795832 35.719421 
L 325.963749 34.713199 
L 326.171452 33.706978 
L 326.393459 32.700757 
L 326.603894 31.694536 
L 326.778626 30.688314 
L 326.897115 29.682093 
L 326.944025 28.675872 
L 326.9107 27.66965 
L 326.796484 26.663429 
L 326.609776 25.657208 
L 326.368525 24.650987 
L 326.099847 23.644765 
L 325.838422 22.638544 
L 325.623556 21.632323 
L 325.495044 20.626102 
L 325.488305 19.61988 
L 325.629533 18.613659 
L 325.931763 17.607438 
L 326.392632 16.601217 
L 326.994362 15.594995 
L 327.706033 14.588774 
L 328.487729 13.582553 
L 329.295793 12.576331 
L 330.088184 11.57011 
L 330.829055 10.563889 
L 331.491833 9.557668 
L 332.060557 8.551446 
L 332.529528 7.545225 
L 332.901671 6.539004 
L 334.743329 6.539004 
L 334.743329 6.539004 
L 335.115472 7.545225 
L 335.584443 8.551446 
L 336.153167 9.557668 
L 336.815945 10.563889 
L 337.556816 11.57011 
L 338.349207 12.576331 
L 339.157271 13.582553 
L 339.938967 14.588774 
L 340.650638 15.594995 
L 341.252368 16.601217 
L 341.713237 17.607438 
L 342.015467 18.613659 
L 342.156695 19.61988 
L 342.149956 20.626102 
L 342.021444 21.632323 
L 341.806578 22.638544 
L 341.545153 23.644765 
L 341.276475 24.650987 
L 341.035224 25.657208 
L 340.848516 26.663429 
L 340.7343 27.66965 
L 340.700975 28.675872 
L 340.747885 29.682093 
L 340.866374 30.688314 
L 341.041106 31.694536 
L 341.251541 32.700757 
L 341.473548 33.706978 
L 341.681251 34.713199 
L 341.849168 35.719421 
L 341.954579 36.725642 
L 341.979954 37.731863 
L 341.915061 38.738084 
L 341.758379 39.744306 
L 341.517444 40.750527 
L 341.20797 41.756748 
L 340.851805 42.762969 
L 340.474045 43.769191 
L 340.099815 44.775412 
L 339.751256 45.781633 
L 339.445207 46.787855 
L 339.19188 47.794076 
L 338.994611 48.800297 
L 338.850556 49.806518 
L 338.752053 50.81274 
L 338.688305 51.818961 
L 338.647066 52.825182 
L 338.616089 53.831403 
L 338.584211 54.837625 
L 338.542078 55.843846 
L 338.482549 56.850067 
L 338.400909 57.856288 
L 338.294932 58.86251 
L 338.164867 59.868731 
L 338.013302 60.874952 
L 337.8449 61.881173 
L 337.665964 62.887395 
L 337.483848 63.893616 
L 337.306256 64.899837 
L 337.140524 65.906059 
L 336.992966 66.91228 
L 336.868367 67.918501 
L 336.769648 68.924722 
L 336.69771 69.930944 
L 336.651419 70.937165 
L 336.627691 71.943386 
L 336.621658 72.949607 
L 336.626914 73.955829 
L 336.635878 74.96205 
L 336.640313 75.968271 
L 336.632053 76.974492 
L 336.603899 77.980714 
L 336.550636 78.986935 
L 336.470002 79.993156 
L 336.363411 80.999378 
L 336.236222 82.005599 
L 336.097382 83.01182 
L 335.958406 84.018041 
L 335.831757 85.024263 
L 335.728885 86.030484 
L 335.658237 87.036705 
L 335.623646 88.042926 
L 335.623407 89.049148 
L 335.650278 90.055369 
L 335.692442 91.06159 
L 335.735267 92.067811 
L 335.763574 93.074033 
L 335.763973 94.080254 
L 335.72686 95.086475 
L 335.647708 96.092696 
L 335.527464 97.098918 
L 335.372048 98.105139 
L 335.191101 99.11136 
L 334.996305 100.117582 
L 334.799607 101.123803 
L 334.61167 102.130024 
L 334.440782 103.136245 
L 334.292317 104.142467 
L 334.168723 105.148688 
L 334.069925 106.154909 
L 334.069925 106.154909 
z
" clip-path="url(#p7c5e68a7ad)" style="fill: none; stroke: #fa8072; stroke-opacity: 0.8; stroke-width: 2"/>
   </g>
   <g id="PolyCollection_9">
    <path d="M 374.152796 90.6411 
L 373.762204 90.6411 
L 373.686178 89.807437 
L 373.590543 88.973774 
L 373.474151 88.140111 
L 373.337139 87.306448 
L 373.181173 86.472785 
L 373.009502 85.639122 
L 372.826764 84.805459 
L 372.638538 83.971796 
L 372.45068 83.138133 
L 372.268541 82.30447 
L 372.096203 81.470807 
L 371.935853 80.637144 
L 371.787434 79.803481 
L 371.648626 78.969818 
L 371.51516 78.136155 
L 371.381444 77.302492 
L 371.241393 76.468829 
L 371.089379 75.635166 
L 370.921197 74.801503 
L 370.734939 73.96784 
L 370.531685 73.134177 
L 370.315885 72.300514 
L 370.095358 71.466851 
L 369.880795 70.633189 
L 369.684767 69.799526 
L 369.520308 68.965863 
L 369.399225 68.1322 
L 369.330415 67.298537 
L 369.318471 66.464874 
L 369.36285 65.631211 
L 369.457773 64.797548 
L 369.592868 63.963885 
L 369.754434 63.130222 
L 369.927082 62.296559 
L 370.095455 61.462896 
L 370.245741 60.629233 
L 370.366801 59.79557 
L 370.450791 58.961907 
L 370.493307 58.128244 
L 370.49312 57.294581 
L 370.45165 56.460918 
L 370.372311 55.627255 
L 370.259889 54.793592 
L 370.120038 53.959929 
L 369.958983 53.126266 
L 369.78342 52.292603 
L 369.600568 51.45894 
L 369.418251 50.625277 
L 369.244869 49.791614 
L 369.08915 48.957951 
L 368.959599 48.124288 
L 368.863711 47.290625 
L 368.807052 46.456962 
L 368.792428 45.623299 
L 368.819325 44.789636 
L 368.883763 43.955973 
L 368.978577 43.12231 
L 369.094051 42.288647 
L 369.218701 41.454984 
L 369.340021 40.621321 
L 369.445018 39.787658 
L 369.520469 38.953995 
L 369.552943 38.120332 
L 369.528718 37.286669 
L 369.433811 36.453006 
L 369.254294 35.619343 
L 368.977071 34.785681 
L 368.59116 33.952018 
L 368.089425 33.118355 
L 367.470534 32.284692 
L 366.740826 31.451029 
L 365.91565 30.617366 
L 365.019764 29.783703 
L 364.086485 28.95004 
L 363.155491 28.116377 
L 362.2695 27.282714 
L 361.470323 26.449051 
L 360.795008 25.615388 
L 360.272803 24.781725 
L 359.923494 23.948062 
L 359.757316 23.114399 
L 359.776224 22.280736 
L 359.975937 21.447073 
L 360.34803 20.61341 
L 360.881407 19.779747 
L 361.562794 18.946084 
L 362.376279 18.112421 
L 363.302323 17.278758 
L 364.316848 16.445095 
L 365.391011 15.611432 
L 366.492044 14.777769 
L 367.585194 13.944106 
L 368.636456 13.110443 
L 369.615545 12.27678 
L 370.498501 11.443117 
L 371.269431 10.609454 
L 371.92112 9.775791 
L 372.454495 8.942128 
L 372.877203 8.108465 
L 375.037797 8.108465 
L 375.037797 8.108465 
L 375.460505 8.942128 
L 375.99388 9.775791 
L 376.645569 10.609454 
L 377.416499 11.443117 
L 378.299455 12.27678 
L 379.278544 13.110443 
L 380.329806 13.944106 
L 381.422956 14.777769 
L 382.523989 15.611432 
L 383.598152 16.445095 
L 384.612677 17.278758 
L 385.538721 18.112421 
L 386.352206 18.946084 
L 387.033593 19.779747 
L 387.56697 20.61341 
L 387.939063 21.447073 
L 388.138776 22.280736 
L 388.157684 23.114399 
L 387.991506 23.948062 
L 387.642197 24.781725 
L 387.119992 25.615388 
L 386.444677 26.449051 
L 385.6455 27.282714 
L 384.759509 28.116377 
L 383.828515 28.95004 
L 382.895236 29.783703 
L 381.99935 30.617366 
L 381.174174 31.451029 
L 380.444466 32.284692 
L 379.825575 33.118355 
L 379.32384 33.952018 
L 378.937929 34.785681 
L 378.660706 35.619343 
L 378.481189 36.453006 
L 378.386282 37.286669 
L 378.362057 38.120332 
L 378.394531 38.953995 
L 378.469982 39.787658 
L 378.574979 40.621321 
L 378.696299 41.454984 
L 378.820949 42.288647 
L 378.936423 43.12231 
L 379.031237 43.955973 
L 379.095675 44.789636 
L 379.122572 45.623299 
L 379.107948 46.456962 
L 379.051289 47.290625 
L 378.955401 48.124288 
L 378.82585 48.957951 
L 378.670131 49.791614 
L 378.496749 50.625277 
L 378.314432 51.45894 
L 378.13158 52.292603 
L 377.956017 53.126266 
L 377.794962 53.959929 
L 377.655111 54.793592 
L 377.542689 55.627255 
L 377.46335 56.460918 
L 377.42188 57.294581 
L 377.421693 58.128244 
L 377.464209 58.961907 
L 377.548199 59.79557 
L 377.669259 60.629233 
L 377.819545 61.462896 
L 377.987918 62.296559 
L 378.160566 63.130222 
L 378.322132 63.963885 
L 378.457227 64.797548 
L 378.55215 65.631211 
L 378.596529 66.464874 
L 378.584585 67.298537 
L 378.515775 68.1322 
L 378.394692 68.965863 
L 378.230233 69.799526 
L 378.034205 70.633189 
L 377.819642 71.466851 
L 377.599115 72.300514 
L 377.383315 73.134177 
L 377.180061 73.96784 
L 376.993803 74.801503 
L 376.825621 75.635166 
L 376.673607 76.468829 
L 376.533556 77.302492 
L 376.39984 78.136155 
L 376.266374 78.969818 
L 376.127566 79.803481 
L 375.979147 80.637144 
L 375.818797 81.470807 
L 375.646459 82.30447 
L 375.46432 83.138133 
L 375.276462 83.971796 
L 375.088236 84.805459 
L 374.905498 85.639122 
L 374.733827 86.472785 
L 374.577861 87.306448 
L 374.440849 88.140111 
L 374.324457 88.973774 
L 374.228822 89.807437 
L 374.152796 90.6411 
L 374.152796 90.6411 
z
" clip-path="url(#p7c5e68a7ad)" style="fill: none; stroke: #fa8072; stroke-opacity: 0.8; stroke-width: 2"/>
   </g>
   <g id="PolyCollection_10">
    <path d="M 414.18569 118.777432 
L 413.99931 118.777432 
L 413.951012 117.657062 
L 413.887922 116.536692 
L 413.810799 115.416323 
L 413.723092 114.295953 
L 413.631168 113.175583 
L 413.543832 112.055213 
L 413.471067 110.934844 
L 413.422202 109.814474 
L 413.403957 108.694104 
L 413.41893 107.573735 
L 413.464985 106.453365 
L 413.535754 105.332995 
L 413.62208 104.212625 
L 413.713947 103.092256 
L 413.802341 101.971886 
L 413.880564 100.851516 
L 413.94477 99.731146 
L 413.993748 98.610777 
L 414.028179 97.490407 
L 414.049687 96.370037 
L 414.05992 95.249668 
L 414.059879 94.129298 
L 414.049558 93.008928 
L 414.027947 91.888558 
L 413.99338 90.768189 
L 413.944215 89.647819 
L 413.879713 88.527449 
L 413.80096 87.407079 
L 413.71151 86.28671 
L 413.617453 85.16634 
L 413.526621 84.04597 
L 413.446916 82.925601 
L 413.383977 81.805231 
L 413.338764 80.684861 
L 413.305752 79.564491 
L 413.272471 78.444122 
L 413.220843 77.323752 
L 413.130355 76.203382 
L 412.982613 75.083013 
L 412.76634 73.962643 
L 412.481565 72.842273 
L 412.141752 71.721903 
L 411.772932 70.601534 
L 411.409706 69.481164 
L 411.088862 68.360794 
L 410.842228 67.240424 
L 410.690718 66.120055 
L 410.641157 64.999685 
L 410.686524 63.879315 
L 410.809049 62.758946 
L 410.984744 61.638576 
L 411.18773 60.518206 
L 411.39322 59.397836 
L 411.578867 58.277467 
L 411.724998 57.157097 
L 411.814582 56.036727 
L 411.833688 54.916358 
L 411.772674 53.795988 
L 411.627833 52.675618 
L 411.402792 51.555248 
L 411.108912 50.434879 
L 410.764155 49.314509 
L 410.390448 48.194139 
L 410.010169 47.073769 
L 409.642762 45.9534 
L 409.302498 44.83303 
L 408.997843 43.71266 
L 408.732231 42.592291 
L 408.505416 41.471921 
L 408.314552 40.351551 
L 408.154525 39.231181 
L 408.017679 38.110812 
L 407.89343 36.990442 
L 407.768178 35.870072 
L 407.625598 34.749702 
L 407.446999 33.629333 
L 407.21148 32.508963 
L 406.895943 31.388593 
L 406.47548 30.268224 
L 405.924968 29.147854 
L 405.22272 28.027484 
L 404.356676 26.907114 
L 403.33289 25.786745 
L 402.184919 24.666375 
L 400.981327 23.546005 
L 399.827498 22.425636 
L 398.858107 21.305266 
L 398.218685 20.184896 
L 398.0385 19.064526 
L 398.401115 17.944157 
L 399.321441 16.823787 
L 400.737269 15.703417 
L 402.518984 14.583047 
L 404.495093 13.462678 
L 406.485955 12.342308 
L 408.335883 11.221938 
L 409.935352 10.101569 
L 411.229315 8.981199 
L 412.212475 7.860829 
L 415.972525 7.860829 
L 415.972525 7.860829 
L 416.955685 8.981199 
L 418.249648 10.101569 
L 419.849117 11.221938 
L 421.699045 12.342308 
L 423.689907 13.462678 
L 425.666016 14.583047 
L 427.447731 15.703417 
L 428.863559 16.823787 
L 429.783885 17.944157 
L 430.1465 19.064526 
L 429.966315 20.184896 
L 429.326893 21.305266 
L 428.357502 22.425636 
L 427.203673 23.546005 
L 426.000081 24.666375 
L 424.85211 25.786745 
L 423.828324 26.907114 
L 422.96228 28.027484 
L 422.260032 29.147854 
L 421.70952 30.268224 
L 421.289057 31.388593 
L 420.97352 32.508963 
L 420.738001 33.629333 
L 420.559402 34.749702 
L 420.416822 35.870072 
L 420.29157 36.990442 
L 420.167321 38.110812 
L 420.030475 39.231181 
L 419.870448 40.351551 
L 419.679584 41.471921 
L 419.452769 42.592291 
L 419.187157 43.71266 
L 418.882502 44.83303 
L 418.542238 45.9534 
L 418.174831 47.073769 
L 417.794552 48.194139 
L 417.420845 49.314509 
L 417.076088 50.434879 
L 416.782208 51.555248 
L 416.557167 52.675618 
L 416.412326 53.795988 
L 416.351312 54.916358 
L 416.370418 56.036727 
L 416.460002 57.157097 
L 416.606133 58.277467 
L 416.79178 59.397836 
L 416.99727 60.518206 
L 417.200256 61.638576 
L 417.375951 62.758946 
L 417.498476 63.879315 
L 417.543843 64.999685 
L 417.494282 66.120055 
L 417.342772 67.240424 
L 417.096138 68.360794 
L 416.775294 69.481164 
L 416.412068 70.601534 
L 416.043248 71.721903 
L 415.703435 72.842273 
L 415.41866 73.962643 
L 415.202387 75.083013 
L 415.054645 76.203382 
L 414.964157 77.323752 
L 414.912529 78.444122 
L 414.879248 79.564491 
L 414.846236 80.684861 
L 414.801023 81.805231 
L 414.738084 82.925601 
L 414.658379 84.04597 
L 414.567547 85.16634 
L 414.47349 86.28671 
L 414.38404 87.407079 
L 414.305287 88.527449 
L 414.240785 89.647819 
L 414.19162 90.768189 
L 414.157053 91.888558 
L 414.135442 93.008928 
L 414.125121 94.129298 
L 414.12508 95.249668 
L 414.135313 96.370037 
L 414.156821 97.490407 
L 414.191252 98.610777 
L 414.24023 99.731146 
L 414.304436 100.851516 
L 414.382659 101.971886 
L 414.471053 103.092256 
L 414.56292 104.212625 
L 414.649246 105.332995 
L 414.720015 106.453365 
L 414.76607 107.573735 
L 414.781043 108.694104 
L 414.762798 109.814474 
L 414.713933 110.934844 
L 414.641168 112.055213 
L 414.553832 113.175583 
L 414.461908 114.295953 
L 414.374201 115.416323 
L 414.297078 116.536692 
L 414.233988 117.657062 
L 414.18569 118.777432 
L 414.18569 118.777432 
z
" clip-path="url(#p7c5e68a7ad)" style="fill: none; stroke: #fa8072; stroke-opacity: 0.8; stroke-width: 2"/>
   </g>
   <g id="matplotlib.axis_1">
    <g id="xtick_1">
     <g id="line2d_1">
      <defs>
       <path id="m28961b1882" d="M 0 0 
L 0 3.5 
" style="stroke: #000000; stroke-width: 0.8"/>
      </defs>
      <g>
       <use xlink:href="#m28961b1882" x="52.8775" y="178.36" style="stroke: #000000; stroke-width: 0.8"/>
      </g>
     </g>
     <g id="text_1">
      <!-- 1 -->
      <g transform="translate(50.96875 189.919063) scale(0.06 -0.06)">
       <defs>
        <path id="DejaVuSans-31" d="M 794 531 
L 1825 531 
L 1825 4091 
L 703 3866 
L 703 4441 
L 1819 4666 
L 2450 4666 
L 2450 531 
L 3481 531 
L 3481 0 
L 794 0 
L 794 531 
z
" transform="scale(0.015625)"/>
       </defs>
       <use xlink:href="#DejaVuSans-31"/>
      </g>
     </g>
    </g>
    <g id="xtick_2">
     <g id="line2d_2">
      <g>
       <use xlink:href="#m28961b1882" x="93.0125" y="178.36" style="stroke: #000000; stroke-width: 0.8"/>
      </g>
     </g>
     <g id="text_2">
      <!-- 2 -->
      <g transform="translate(91.10375 189.919063) scale(0.06 -0.06)">
       <defs>
        <path id="DejaVuSans-32" d="M 1228 531 
L 3431 531 
L 3431 0 
L 469 0 
L 469 531 
Q 828 903 1448 1529 
Q 2069 2156 2228 2338 
Q 2531 2678 2651 2914 
Q 2772 3150 2772 3378 
Q 2772 3750 2511 3984 
Q 2250 4219 1831 4219 
Q 1534 4219 1204 4116 
Q 875 4013 500 3803 
L 500 4441 
Q 881 4594 1212 4672 
Q 1544 4750 1819 4750 
Q 2544 4750 2975 4387 
Q 3406 4025 3406 3419 
Q 3406 3131 3298 2873 
Q 3191 2616 2906 2266 
Q 2828 2175 2409 1742 
Q 1991 1309 1228 531 
z
" transform="scale(0.015625)"/>
       </defs>
       <use xlink:href="#DejaVuSans-32"/>
      </g>
     </g>
    </g>
    <g id="xtick_3">
     <g id="line2d_3">
      <g>
       <use xlink:href="#m28961b1882" x="133.1475" y="178.36" style="stroke: #000000; stroke-width: 0.8"/>
      </g>
     </g>
     <g id="text_3">
      <!-- 3 -->
      <g transform="translate(131.23875 189.919063) scale(0.06 -0.06)">
       <defs>
        <path id="DejaVuSans-33" d="M 2597 2516 
Q 3050 2419 3304 2112 
Q 3559 1806 3559 1356 
Q 3559 666 3084 287 
Q 2609 -91 1734 -91 
Q 1441 -91 1130 -33 
Q 819 25 488 141 
L 488 750 
Q 750 597 1062 519 
Q 1375 441 1716 441 
Q 2309 441 2620 675 
Q 2931 909 2931 1356 
Q 2931 1769 2642 2001 
Q 2353 2234 1838 2234 
L 1294 2234 
L 1294 2753 
L 1863 2753 
Q 2328 2753 2575 2939 
Q 2822 3125 2822 3475 
Q 2822 3834 2567 4026 
Q 2313 4219 1838 4219 
Q 1578 4219 1281 4162 
Q 984 4106 628 3988 
L 628 4550 
Q 988 4650 1302 4700 
Q 1616 4750 1894 4750 
Q 2613 4750 3031 4423 
Q 3450 4097 3450 3541 
Q 3450 3153 3228 2886 
Q 3006 2619 2597 2516 
z
" transform="scale(0.015625)"/>
       </defs>
       <use xlink:href="#DejaVuSans-33"/>
      </g>
     </g>
    </g>
    <g id="xtick_4">
     <g id="line2d_4">
      <g>
       <use xlink:href="#m28961b1882" x="173.2825" y="178.36" style="stroke: #000000; stroke-width: 0.8"/>
      </g>
     </g>
     <g id="text_4">
      <!-- 4 -->
      <g transform="translate(171.37375 189.919063) scale(0.06 -0.06)">
       <defs>
        <path id="DejaVuSans-34" d="M 2419 4116 
L 825 1625 
L 2419 1625 
L 2419 4116 
z
M 2253 4666 
L 3047 4666 
L 3047 1625 
L 3713 1625 
L 3713 1100 
L 3047 1100 
L 3047 0 
L 2419 0 
L 2419 1100 
L 313 1100 
L 313 1709 
L 2253 4666 
z
" transform="scale(0.015625)"/>
       </defs>
       <use xlink:href="#DejaVuSans-34"/>
      </g>
     </g>
    </g>
    <g id="xtick_5">
     <g id="line2d_5">
      <g>
       <use xlink:href="#m28961b1882" x="213.4175" y="178.36" style="stroke: #000000; stroke-width: 0.8"/>
      </g>
     </g>
     <g id="text_5">
      <!-- 5 -->
      <g transform="translate(211.50875 189.919063) scale(0.06 -0.06)">
       <defs>
        <path id="DejaVuSans-35" d="M 691 4666 
L 3169 4666 
L 3169 4134 
L 1269 4134 
L 1269 2991 
Q 1406 3038 1543 3061 
Q 1681 3084 1819 3084 
Q 2600 3084 3056 2656 
Q 3513 2228 3513 1497 
Q 3513 744 3044 326 
Q 2575 -91 1722 -91 
Q 1428 -91 1123 -41 
Q 819 9 494 109 
L 494 744 
Q 775 591 1075 516 
Q 1375 441 1709 441 
Q 2250 441 2565 725 
Q 2881 1009 2881 1497 
Q 2881 1984 2565 2268 
Q 2250 2553 1709 2553 
Q 1456 2553 1204 2497 
Q 953 2441 691 2322 
L 691 4666 
z
" transform="scale(0.015625)"/>
       </defs>
       <use xlink:href="#DejaVuSans-35"/>
      </g>
     </g>
    </g>
    <g id="xtick_6">
     <g id="line2d_6">
      <g>
       <use xlink:href="#m28961b1882" x="253.5525" y="178.36" style="stroke: #000000; stroke-width: 0.8"/>
      </g>
     </g>
     <g id="text_6">
      <!-- 6 -->
      <g transform="translate(251.64375 189.919063) scale(0.06 -0.06)">
       <defs>
        <path id="DejaVuSans-36" d="M 2113 2584 
Q 1688 2584 1439 2293 
Q 1191 2003 1191 1497 
Q 1191 994 1439 701 
Q 1688 409 2113 409 
Q 2538 409 2786 701 
Q 3034 994 3034 1497 
Q 3034 2003 2786 2293 
Q 2538 2584 2113 2584 
z
M 3366 4563 
L 3366 3988 
Q 3128 4100 2886 4159 
Q 2644 4219 2406 4219 
Q 1781 4219 1451 3797 
Q 1122 3375 1075 2522 
Q 1259 2794 1537 2939 
Q 1816 3084 2150 3084 
Q 2853 3084 3261 2657 
Q 3669 2231 3669 1497 
Q 3669 778 3244 343 
Q 2819 -91 2113 -91 
Q 1303 -91 875 529 
Q 447 1150 447 2328 
Q 447 3434 972 4092 
Q 1497 4750 2381 4750 
Q 2619 4750 2861 4703 
Q 3103 4656 3366 4563 
z
" transform="scale(0.015625)"/>
       </defs>
       <use xlink:href="#DejaVuSans-36"/>
      </g>
     </g>
    </g>
    <g id="xtick_7">
     <g id="line2d_7">
      <g>
       <use xlink:href="#m28961b1882" x="293.6875" y="178.36" style="stroke: #000000; stroke-width: 0.8"/>
      </g>
     </g>
     <g id="text_7">
      <!-- 7 -->
      <g transform="translate(291.77875 189.919063) scale(0.06 -0.06)">
       <defs>
        <path id="DejaVuSans-37" d="M 525 4666 
L 3525 4666 
L 3525 4397 
L 1831 0 
L 1172 0 
L 2766 4134 
L 525 4134 
L 525 4666 
z
" transform="scale(0.015625)"/>
       </defs>
       <use xlink:href="#DejaVuSans-37"/>
      </g>
     </g>
    </g>
    <g id="xtick_8">
     <g id="line2d_8">
      <g>
       <use xlink:href="#m28961b1882" x="333.8225" y="178.36" style="stroke: #000000; stroke-width: 0.8"/>
      </g>
     </g>
     <g id="text_8">
      <!-- 8 -->
      <g transform="translate(331.91375 189.919063) scale(0.06 -0.06)">
       <defs>
        <path id="DejaVuSans-38" d="M 2034 2216 
Q 1584 2216 1326 1975 
Q 1069 1734 1069 1313 
Q 1069 891 1326 650 
Q 1584 409 2034 409 
Q 2484 409 2743 651 
Q 3003 894 3003 1313 
Q 3003 1734 2745 1975 
Q 2488 2216 2034 2216 
z
M 1403 2484 
Q 997 2584 770 2862 
Q 544 3141 544 3541 
Q 544 4100 942 4425 
Q 1341 4750 2034 4750 
Q 2731 4750 3128 4425 
Q 3525 4100 3525 3541 
Q 3525 3141 3298 2862 
Q 3072 2584 2669 2484 
Q 3125 2378 3379 2068 
Q 3634 1759 3634 1313 
Q 3634 634 3220 271 
Q 2806 -91 2034 -91 
Q 1263 -91 848 271 
Q 434 634 434 1313 
Q 434 1759 690 2068 
Q 947 2378 1403 2484 
z
M 1172 3481 
Q 1172 3119 1398 2916 
Q 1625 2713 2034 2713 
Q 2441 2713 2670 2916 
Q 2900 3119 2900 3481 
Q 2900 3844 2670 4047 
Q 2441 4250 2034 4250 
Q 1625 4250 1398 4047 
Q 1172 3844 1172 3481 
z
" transform="scale(0.015625)"/>
       </defs>
       <use xlink:href="#DejaVuSans-38"/>
      </g>
     </g>
    </g>
    <g id="xtick_9">
     <g id="line2d_9">
      <g>
       <use xlink:href="#m28961b1882" x="373.9575" y="178.36" style="stroke: #000000; stroke-width: 0.8"/>
      </g>
     </g>
     <g id="text_9">
      <!-- 9 -->
      <g transform="translate(372.04875 189.919063) scale(0.06 -0.06)">
       <defs>
        <path id="DejaVuSans-39" d="M 703 97 
L 703 672 
Q 941 559 1184 500 
Q 1428 441 1663 441 
Q 2288 441 2617 861 
Q 2947 1281 2994 2138 
Q 2813 1869 2534 1725 
Q 2256 1581 1919 1581 
Q 1219 1581 811 2004 
Q 403 2428 403 3163 
Q 403 3881 828 4315 
Q 1253 4750 1959 4750 
Q 2769 4750 3195 4129 
Q 3622 3509 3622 2328 
Q 3622 1225 3098 567 
Q 2575 -91 1691 -91 
Q 1453 -91 1209 -44 
Q 966 3 703 97 
z
M 1959 2075 
Q 2384 2075 2632 2365 
Q 2881 2656 2881 3163 
Q 2881 3666 2632 3958 
Q 2384 4250 1959 4250 
Q 1534 4250 1286 3958 
Q 1038 3666 1038 3163 
Q 1038 2656 1286 2365 
Q 1534 2075 1959 2075 
z
" transform="scale(0.015625)"/>
       </defs>
       <use xlink:href="#DejaVuSans-39"/>
      </g>
     </g>
    </g>
    <g id="xtick_10">
     <g id="line2d_10">
      <g>
       <use xlink:href="#m28961b1882" x="414.0925" y="178.36" style="stroke: #000000; stroke-width: 0.8"/>
      </g>
     </g>
     <g id="text_10">
      <!-- 10 -->
      <g transform="translate(410.275 189.919063) scale(0.06 -0.06)">
       <defs>
        <path id="DejaVuSans-30" d="M 2034 4250 
Q 1547 4250 1301 3770 
Q 1056 3291 1056 2328 
Q 1056 1369 1301 889 
Q 1547 409 2034 409 
Q 2525 409 2770 889 
Q 3016 1369 3016 2328 
Q 3016 3291 2770 3770 
Q 2525 4250 2034 4250 
z
M 2034 4750 
Q 2819 4750 3233 4129 
Q 3647 3509 3647 2328 
Q 3647 1150 3233 529 
Q 2819 -91 2034 -91 
Q 1250 -91 836 529 
Q 422 1150 422 2328 
Q 422 3509 836 4129 
Q 1250 4750 2034 4750 
z
" transform="scale(0.015625)"/>
       </defs>
       <use xlink:href="#DejaVuSans-31"/>
       <use xlink:href="#DejaVuSans-30" x="63.623047"/>
      </g>
     </g>
    </g>
    <g id="text_11">
     <!-- Number of Mice in Treatment Group -->
     <g transform="translate(179.729219 199.725938) scale(0.06 -0.06)">
      <defs>
       <path id="DejaVuSans-4e" d="M 628 4666 
L 1478 4666 
L 3547 763 
L 3547 4666 
L 4159 4666 
L 4159 0 
L 3309 0 
L 1241 3903 
L 1241 0 
L 628 0 
L 628 4666 
z
" transform="scale(0.015625)"/>
       <path id="DejaVuSans-75" d="M 544 1381 
L 544 3500 
L 1119 3500 
L 1119 1403 
Q 1119 906 1312 657 
Q 1506 409 1894 409 
Q 2359 409 2629 706 
Q 2900 1003 2900 1516 
L 2900 3500 
L 3475 3500 
L 3475 0 
L 2900 0 
L 2900 538 
Q 2691 219 2414 64 
Q 2138 -91 1772 -91 
Q 1169 -91 856 284 
Q 544 659 544 1381 
z
M 1991 3584 
L 1991 3584 
z
" transform="scale(0.015625)"/>
       <path id="DejaVuSans-6d" d="M 3328 2828 
Q 3544 3216 3844 3400 
Q 4144 3584 4550 3584 
Q 5097 3584 5394 3201 
Q 5691 2819 5691 2113 
L 5691 0 
L 5113 0 
L 5113 2094 
Q 5113 2597 4934 2840 
Q 4756 3084 4391 3084 
Q 3944 3084 3684 2787 
Q 3425 2491 3425 1978 
L 3425 0 
L 2847 0 
L 2847 2094 
Q 2847 2600 2669 2842 
Q 2491 3084 2119 3084 
Q 1678 3084 1418 2786 
Q 1159 2488 1159 1978 
L 1159 0 
L 581 0 
L 581 3500 
L 1159 3500 
L 1159 2956 
Q 1356 3278 1631 3431 
Q 1906 3584 2284 3584 
Q 2666 3584 2933 3390 
Q 3200 3197 3328 2828 
z
" transform="scale(0.015625)"/>
       <path id="DejaVuSans-62" d="M 3116 1747 
Q 3116 2381 2855 2742 
Q 2594 3103 2138 3103 
Q 1681 3103 1420 2742 
Q 1159 2381 1159 1747 
Q 1159 1113 1420 752 
Q 1681 391 2138 391 
Q 2594 391 2855 752 
Q 3116 1113 3116 1747 
z
M 1159 2969 
Q 1341 3281 1617 3432 
Q 1894 3584 2278 3584 
Q 2916 3584 3314 3078 
Q 3713 2572 3713 1747 
Q 3713 922 3314 415 
Q 2916 -91 2278 -91 
Q 1894 -91 1617 61 
Q 1341 213 1159 525 
L 1159 0 
L 581 0 
L 581 4863 
L 1159 4863 
L 1159 2969 
z
" transform="scale(0.015625)"/>
       <path id="DejaVuSans-65" d="M 3597 1894 
L 3597 1613 
L 953 1613 
Q 991 1019 1311 708 
Q 1631 397 2203 397 
Q 2534 397 2845 478 
Q 3156 559 3463 722 
L 3463 178 
Q 3153 47 2828 -22 
Q 2503 -91 2169 -91 
Q 1331 -91 842 396 
Q 353 884 353 1716 
Q 353 2575 817 3079 
Q 1281 3584 2069 3584 
Q 2775 3584 3186 3129 
Q 3597 2675 3597 1894 
z
M 3022 2063 
Q 3016 2534 2758 2815 
Q 2500 3097 2075 3097 
Q 1594 3097 1305 2825 
Q 1016 2553 972 2059 
L 3022 2063 
z
" transform="scale(0.015625)"/>
       <path id="DejaVuSans-72" d="M 2631 2963 
Q 2534 3019 2420 3045 
Q 2306 3072 2169 3072 
Q 1681 3072 1420 2755 
Q 1159 2438 1159 1844 
L 1159 0 
L 581 0 
L 581 3500 
L 1159 3500 
L 1159 2956 
Q 1341 3275 1631 3429 
Q 1922 3584 2338 3584 
Q 2397 3584 2469 3576 
Q 2541 3569 2628 3553 
L 2631 2963 
z
" transform="scale(0.015625)"/>
       <path id="DejaVuSans-20" transform="scale(0.015625)"/>
       <path id="DejaVuSans-6f" d="M 1959 3097 
Q 1497 3097 1228 2736 
Q 959 2375 959 1747 
Q 959 1119 1226 758 
Q 1494 397 1959 397 
Q 2419 397 2687 759 
Q 2956 1122 2956 1747 
Q 2956 2369 2687 2733 
Q 2419 3097 1959 3097 
z
M 1959 3584 
Q 2709 3584 3137 3096 
Q 3566 2609 3566 1747 
Q 3566 888 3137 398 
Q 2709 -91 1959 -91 
Q 1206 -91 779 398 
Q 353 888 353 1747 
Q 353 2609 779 3096 
Q 1206 3584 1959 3584 
z
" transform="scale(0.015625)"/>
       <path id="DejaVuSans-66" d="M 2375 4863 
L 2375 4384 
L 1825 4384 
Q 1516 4384 1395 4259 
Q 1275 4134 1275 3809 
L 1275 3500 
L 2222 3500 
L 2222 3053 
L 1275 3053 
L 1275 0 
L 697 0 
L 697 3053 
L 147 3053 
L 147 3500 
L 697 3500 
L 697 3744 
Q 697 4328 969 4595 
Q 1241 4863 1831 4863 
L 2375 4863 
z
" transform="scale(0.015625)"/>
       <path id="DejaVuSans-4d" d="M 628 4666 
L 1569 4666 
L 2759 1491 
L 3956 4666 
L 4897 4666 
L 4897 0 
L 4281 0 
L 4281 4097 
L 3078 897 
L 2444 897 
L 1241 4097 
L 1241 0 
L 628 0 
L 628 4666 
z
" transform="scale(0.015625)"/>
       <path id="DejaVuSans-69" d="M 603 3500 
L 1178 3500 
L 1178 0 
L 603 0 
L 603 3500 
z
M 603 4863 
L 1178 4863 
L 1178 4134 
L 603 4134 
L 603 4863 
z
" transform="scale(0.015625)"/>
       <path id="DejaVuSans-63" d="M 3122 3366 
L 3122 2828 
Q 2878 2963 2633 3030 
Q 2388 3097 2138 3097 
Q 1578 3097 1268 2742 
Q 959 2388 959 1747 
Q 959 1106 1268 751 
Q 1578 397 2138 397 
Q 2388 397 2633 464 
Q 2878 531 3122 666 
L 3122 134 
Q 2881 22 2623 -34 
Q 2366 -91 2075 -91 
Q 1284 -91 818 406 
Q 353 903 353 1747 
Q 353 2603 823 3093 
Q 1294 3584 2113 3584 
Q 2378 3584 2631 3529 
Q 2884 3475 3122 3366 
z
" transform="scale(0.015625)"/>
       <path id="DejaVuSans-6e" d="M 3513 2113 
L 3513 0 
L 2938 0 
L 2938 2094 
Q 2938 2591 2744 2837 
Q 2550 3084 2163 3084 
Q 1697 3084 1428 2787 
Q 1159 2491 1159 1978 
L 1159 0 
L 581 0 
L 581 3500 
L 1159 3500 
L 1159 2956 
Q 1366 3272 1645 3428 
Q 1925 3584 2291 3584 
Q 2894 3584 3203 3211 
Q 3513 2838 3513 2113 
z
" transform="scale(0.015625)"/>
       <path id="DejaVuSans-54" d="M -19 4666 
L 3928 4666 
L 3928 4134 
L 2272 4134 
L 2272 0 
L 1638 0 
L 1638 4134 
L -19 4134 
L -19 4666 
z
" transform="scale(0.015625)"/>
       <path id="DejaVuSans-61" d="M 2194 1759 
Q 1497 1759 1228 1600 
Q 959 1441 959 1056 
Q 959 750 1161 570 
Q 1363 391 1709 391 
Q 2188 391 2477 730 
Q 2766 1069 2766 1631 
L 2766 1759 
L 2194 1759 
z
M 3341 1997 
L 3341 0 
L 2766 0 
L 2766 531 
Q 2569 213 2275 61 
Q 1981 -91 1556 -91 
Q 1019 -91 701 211 
Q 384 513 384 1019 
Q 384 1609 779 1909 
Q 1175 2209 1959 2209 
L 2766 2209 
L 2766 2266 
Q 2766 2663 2505 2880 
Q 2244 3097 1772 3097 
Q 1472 3097 1187 3025 
Q 903 2953 641 2809 
L 641 3341 
Q 956 3463 1253 3523 
Q 1550 3584 1831 3584 
Q 2591 3584 2966 3190 
Q 3341 2797 3341 1997 
z
" transform="scale(0.015625)"/>
       <path id="DejaVuSans-74" d="M 1172 4494 
L 1172 3500 
L 2356 3500 
L 2356 3053 
L 1172 3053 
L 1172 1153 
Q 1172 725 1289 603 
Q 1406 481 1766 481 
L 2356 481 
L 2356 0 
L 1766 0 
Q 1100 0 847 248 
Q 594 497 594 1153 
L 594 3053 
L 172 3053 
L 172 3500 
L 594 3500 
L 594 4494 
L 1172 4494 
z
" transform="scale(0.015625)"/>
       <path id="DejaVuSans-47" d="M 3809 666 
L 3809 1919 
L 2778 1919 
L 2778 2438 
L 4434 2438 
L 4434 434 
Q 4069 175 3628 42 
Q 3188 -91 2688 -91 
Q 1594 -91 976 548 
Q 359 1188 359 2328 
Q 359 3472 976 4111 
Q 1594 4750 2688 4750 
Q 3144 4750 3555 4637 
Q 3966 4525 4313 4306 
L 4313 3634 
Q 3963 3931 3569 4081 
Q 3175 4231 2741 4231 
Q 1884 4231 1454 3753 
Q 1025 3275 1025 2328 
Q 1025 1384 1454 906 
Q 1884 428 2741 428 
Q 3075 428 3337 486 
Q 3600 544 3809 666 
z
" transform="scale(0.015625)"/>
       <path id="DejaVuSans-70" d="M 1159 525 
L 1159 -1331 
L 581 -1331 
L 581 3500 
L 1159 3500 
L 1159 2969 
Q 1341 3281 1617 3432 
Q 1894 3584 2278 3584 
Q 2916 3584 3314 3078 
Q 3713 2572 3713 1747 
Q 3713 922 3314 415 
Q 2916 -91 2278 -91 
Q 1894 -91 1617 61 
Q 1341 213 1159 525 
z
M 3116 1747 
Q 3116 2381 2855 2742 
Q 2594 3103 2138 3103 
Q 1681 3103 1420 2742 
Q 1159 2381 1159 1747 
Q 1159 1113 1420 752 
Q 1681 391 2138 391 
Q 2594 391 2855 752 
Q 3116 1113 3116 1747 
z
" transform="scale(0.015625)"/>
      </defs>
      <use xlink:href="#DejaVuSans-4e"/>
      <use xlink:href="#DejaVuSans-75" x="74.804688"/>
      <use xlink:href="#DejaVuSans-6d" x="138.183594"/>
      <use xlink:href="#DejaVuSans-62" x="235.595703"/>
      <use xlink:href="#DejaVuSans-65" x="299.072266"/>
      <use xlink:href="#DejaVuSans-72" x="360.595703"/>
      <use xlink:href="#DejaVuSans-20" x="401.708984"/>
      <use xlink:href="#DejaVuSans-6f" x="433.496094"/>
      <use xlink:href="#DejaVuSans-66" x="494.677734"/>
      <use xlink:href="#DejaVuSans-20" x="529.882812"/>
      <use xlink:href="#DejaVuSans-4d" x="561.669922"/>
      <use xlink:href="#DejaVuSans-69" x="647.949219"/>
      <use xlink:href="#DejaVuSans-63" x="675.732422"/>
      <use xlink:href="#DejaVuSans-65" x="730.712891"/>
      <use xlink:href="#DejaVuSans-20" x="792.236328"/>
      <use xlink:href="#DejaVuSans-69" x="824.023438"/>
      <use xlink:href="#DejaVuSans-6e" x="851.806641"/>
      <use xlink:href="#DejaVuSans-20" x="915.185547"/>
      <use xlink:href="#DejaVuSans-54" x="946.972656"/>
      <use xlink:href="#DejaVuSans-72" x="993.306641"/>
      <use xlink:href="#DejaVuSans-65" x="1032.169922"/>
      <use xlink:href="#DejaVuSans-61" x="1093.693359"/>
      <use xlink:href="#DejaVuSans-74" x="1154.972656"/>
      <use xlink:href="#DejaVuSans-6d" x="1194.181641"/>
      <use xlink:href="#DejaVuSans-65" x="1291.59375"/>
      <use xlink:href="#DejaVuSans-6e" x="1353.117188"/>
      <use xlink:href="#DejaVuSans-74" x="1416.496094"/>
      <use xlink:href="#DejaVuSans-20" x="1455.705078"/>
      <use xlink:href="#DejaVuSans-47" x="1487.492188"/>
      <use xlink:href="#DejaVuSans-72" x="1564.982422"/>
      <use xlink:href="#DejaVuSans-6f" x="1603.845703"/>
      <use xlink:href="#DejaVuSans-75" x="1665.027344"/>
      <use xlink:href="#DejaVuSans-70" x="1728.40625"/>
     </g>
    </g>
   </g>
   <g id="matplotlib.axis_2">
    <g id="ytick_1">
     <g id="line2d_11">
      <path d="M 32.81 178.36 
L 434.16 178.36 
" clip-path="url(#p7c5e68a7ad)" style="fill: none; stroke-dasharray: 2.96,1.28; stroke-dashoffset: 0; stroke: #000000; stroke-opacity: 0.3; stroke-width: 0.8"/>
     </g>
     <g id="line2d_12">
      <defs>
       <path id="mb5cd8eb29e" d="M 0 0 
L -3.5 0 
" style="stroke: #000000; stroke-width: 0.8"/>
      </defs>
      <g>
       <use xlink:href="#mb5cd8eb29e" x="32.81" y="178.36" style="stroke: #000000; stroke-width: 0.8"/>
      </g>
     </g>
     <g id="text_12">
      <!-- 0.0 -->
      <g transform="translate(16.268125 180.639531) scale(0.06 -0.06)">
       <defs>
        <path id="DejaVuSans-2e" d="M 684 794 
L 1344 794 
L 1344 0 
L 684 0 
L 684 794 
z
" transform="scale(0.015625)"/>
       </defs>
       <use xlink:href="#DejaVuSans-30"/>
       <use xlink:href="#DejaVuSans-2e" x="63.623047"/>
       <use xlink:href="#DejaVuSans-30" x="95.410156"/>
      </g>
     </g>
    </g>
    <g id="ytick_2">
     <g id="line2d_13">
      <path d="M 32.81 146.288 
L 434.16 146.288 
" clip-path="url(#p7c5e68a7ad)" style="fill: none; stroke-dasharray: 2.96,1.28; stroke-dashoffset: 0; stroke: #000000; stroke-opacity: 0.3; stroke-width: 0.8"/>
     </g>
     <g id="line2d_14">
      <g>
       <use xlink:href="#mb5cd8eb29e" x="32.81" y="146.288" style="stroke: #000000; stroke-width: 0.8"/>
      </g>
     </g>
     <g id="text_13">
      <!-- 0.2 -->
      <g transform="translate(16.268125 148.567531) scale(0.06 -0.06)">
       <use xlink:href="#DejaVuSans-30"/>
       <use xlink:href="#DejaVuSans-2e" x="63.623047"/>
       <use xlink:href="#DejaVuSans-32" x="95.410156"/>
      </g>
     </g>
    </g>
    <g id="ytick_3">
     <g id="line2d_15">
      <path d="M 32.81 114.216 
L 434.16 114.216 
" clip-path="url(#p7c5e68a7ad)" style="fill: none; stroke-dasharray: 2.96,1.28; stroke-dashoffset: 0; stroke: #000000; stroke-opacity: 0.3; stroke-width: 0.8"/>
     </g>
     <g id="line2d_16">
      <g>
       <use xlink:href="#mb5cd8eb29e" x="32.81" y="114.216" style="stroke: #000000; stroke-width: 0.8"/>
      </g>
     </g>
     <g id="text_14">
      <!-- 0.4 -->
      <g transform="translate(16.268125 116.495531) scale(0.06 -0.06)">
       <use xlink:href="#DejaVuSans-30"/>
       <use xlink:href="#DejaVuSans-2e" x="63.623047"/>
       <use xlink:href="#DejaVuSans-34" x="95.410156"/>
      </g>
     </g>
    </g>
    <g id="ytick_4">
     <g id="line2d_17">
      <path d="M 32.81 82.144 
L 434.16 82.144 
" clip-path="url(#p7c5e68a7ad)" style="fill: none; stroke-dasharray: 2.96,1.28; stroke-dashoffset: 0; stroke: #000000; stroke-opacity: 0.3; stroke-width: 0.8"/>
     </g>
     <g id="line2d_18">
      <g>
       <use xlink:href="#mb5cd8eb29e" x="32.81" y="82.144" style="stroke: #000000; stroke-width: 0.8"/>
      </g>
     </g>
     <g id="text_15">
      <!-- 0.6 -->
      <g transform="translate(16.268125 84.423531) scale(0.06 -0.06)">
       <use xlink:href="#DejaVuSans-30"/>
       <use xlink:href="#DejaVuSans-2e" x="63.623047"/>
       <use xlink:href="#DejaVuSans-36" x="95.410156"/>
      </g>
     </g>
    </g>
    <g id="ytick_5">
     <g id="line2d_19">
      <path d="M 32.81 50.072 
L 434.16 50.072 
" clip-path="url(#p7c5e68a7ad)" style="fill: none; stroke-dasharray: 2.96,1.28; stroke-dashoffset: 0; stroke: #000000; stroke-opacity: 0.3; stroke-width: 0.8"/>
     </g>
     <g id="line2d_20">
      <g>
       <use xlink:href="#mb5cd8eb29e" x="32.81" y="50.072" style="stroke: #000000; stroke-width: 0.8"/>
      </g>
     </g>
     <g id="text_16">
      <!-- 0.8 -->
      <g transform="translate(16.268125 52.351531) scale(0.06 -0.06)">
       <use xlink:href="#DejaVuSans-30"/>
       <use xlink:href="#DejaVuSans-2e" x="63.623047"/>
       <use xlink:href="#DejaVuSans-38" x="95.410156"/>
      </g>
     </g>
    </g>
    <g id="ytick_6">
     <g id="line2d_21">
      <path d="M 32.81 18 
L 434.16 18 
" clip-path="url(#p7c5e68a7ad)" style="fill: none; stroke-dasharray: 2.96,1.28; stroke-dashoffset: 0; stroke: #000000; stroke-opacity: 0.3; stroke-width: 0.8"/>
     </g>
     <g id="line2d_22">
      <g>
       <use xlink:href="#mb5cd8eb29e" x="32.81" y="18" style="stroke: #000000; stroke-width: 0.8"/>
      </g>
     </g>
     <g id="text_17">
      <!-- 1.0 -->
      <g transform="translate(16.268125 20.279531) scale(0.06 -0.06)">
       <use xlink:href="#DejaVuSans-31"/>
       <use xlink:href="#DejaVuSans-2e" x="63.623047"/>
       <use xlink:href="#DejaVuSans-30" x="95.410156"/>
      </g>
     </g>
    </g>
    <g id="text_18">
     <!-- Fraction of Overlapping Hits -->
     <g transform="translate(11.020312 140.072656) rotate(-90) scale(0.06 -0.06)">
      <defs>
       <path id="DejaVuSans-46" d="M 628 4666 
L 3309 4666 
L 3309 4134 
L 1259 4134 
L 1259 2759 
L 3109 2759 
L 3109 2228 
L 1259 2228 
L 1259 0 
L 628 0 
L 628 4666 
z
" transform="scale(0.015625)"/>
       <path id="DejaVuSans-4f" d="M 2522 4238 
Q 1834 4238 1429 3725 
Q 1025 3213 1025 2328 
Q 1025 1447 1429 934 
Q 1834 422 2522 422 
Q 3209 422 3611 934 
Q 4013 1447 4013 2328 
Q 4013 3213 3611 3725 
Q 3209 4238 2522 4238 
z
M 2522 4750 
Q 3503 4750 4090 4092 
Q 4678 3434 4678 2328 
Q 4678 1225 4090 567 
Q 3503 -91 2522 -91 
Q 1538 -91 948 565 
Q 359 1222 359 2328 
Q 359 3434 948 4092 
Q 1538 4750 2522 4750 
z
" transform="scale(0.015625)"/>
       <path id="DejaVuSans-76" d="M 191 3500 
L 800 3500 
L 1894 563 
L 2988 3500 
L 3597 3500 
L 2284 0 
L 1503 0 
L 191 3500 
z
" transform="scale(0.015625)"/>
       <path id="DejaVuSans-6c" d="M 603 4863 
L 1178 4863 
L 1178 0 
L 603 0 
L 603 4863 
z
" transform="scale(0.015625)"/>
       <path id="DejaVuSans-67" d="M 2906 1791 
Q 2906 2416 2648 2759 
Q 2391 3103 1925 3103 
Q 1463 3103 1205 2759 
Q 947 2416 947 1791 
Q 947 1169 1205 825 
Q 1463 481 1925 481 
Q 2391 481 2648 825 
Q 2906 1169 2906 1791 
z
M 3481 434 
Q 3481 -459 3084 -895 
Q 2688 -1331 1869 -1331 
Q 1566 -1331 1297 -1286 
Q 1028 -1241 775 -1147 
L 775 -588 
Q 1028 -725 1275 -790 
Q 1522 -856 1778 -856 
Q 2344 -856 2625 -561 
Q 2906 -266 2906 331 
L 2906 616 
Q 2728 306 2450 153 
Q 2172 0 1784 0 
Q 1141 0 747 490 
Q 353 981 353 1791 
Q 353 2603 747 3093 
Q 1141 3584 1784 3584 
Q 2172 3584 2450 3431 
Q 2728 3278 2906 2969 
L 2906 3500 
L 3481 3500 
L 3481 434 
z
" transform="scale(0.015625)"/>
       <path id="DejaVuSans-48" d="M 628 4666 
L 1259 4666 
L 1259 2753 
L 3553 2753 
L 3553 4666 
L 4184 4666 
L 4184 0 
L 3553 0 
L 3553 2222 
L 1259 2222 
L 1259 0 
L 628 0 
L 628 4666 
z
" transform="scale(0.015625)"/>
       <path id="DejaVuSans-73" d="M 2834 3397 
L 2834 2853 
Q 2591 2978 2328 3040 
Q 2066 3103 1784 3103 
Q 1356 3103 1142 2972 
Q 928 2841 928 2578 
Q 928 2378 1081 2264 
Q 1234 2150 1697 2047 
L 1894 2003 
Q 2506 1872 2764 1633 
Q 3022 1394 3022 966 
Q 3022 478 2636 193 
Q 2250 -91 1575 -91 
Q 1294 -91 989 -36 
Q 684 19 347 128 
L 347 722 
Q 666 556 975 473 
Q 1284 391 1588 391 
Q 1994 391 2212 530 
Q 2431 669 2431 922 
Q 2431 1156 2273 1281 
Q 2116 1406 1581 1522 
L 1381 1569 
Q 847 1681 609 1914 
Q 372 2147 372 2553 
Q 372 3047 722 3315 
Q 1072 3584 1716 3584 
Q 2034 3584 2315 3537 
Q 2597 3491 2834 3397 
z
" transform="scale(0.015625)"/>
      </defs>
      <use xlink:href="#DejaVuSans-46"/>
      <use xlink:href="#DejaVuSans-72" x="50.269531"/>
      <use xlink:href="#DejaVuSans-61" x="91.382812"/>
      <use xlink:href="#DejaVuSans-63" x="152.662109"/>
      <use xlink:href="#DejaVuSans-74" x="207.642578"/>
      <use xlink:href="#DejaVuSans-69" x="246.851562"/>
      <use xlink:href="#DejaVuSans-6f" x="274.634766"/>
      <use xlink:href="#DejaVuSans-6e" x="335.816406"/>
      <use xlink:href="#DejaVuSans-20" x="399.195312"/>
      <use xlink:href="#DejaVuSans-6f" x="430.982422"/>
      <use xlink:href="#DejaVuSans-66" x="492.164062"/>
      <use xlink:href="#DejaVuSans-20" x="527.369141"/>
      <use xlink:href="#DejaVuSans-4f" x="559.15625"/>
      <use xlink:href="#DejaVuSans-76" x="637.867188"/>
      <use xlink:href="#DejaVuSans-65" x="697.046875"/>
      <use xlink:href="#DejaVuSans-72" x="758.570312"/>
      <use xlink:href="#DejaVuSans-6c" x="799.683594"/>
      <use xlink:href="#DejaVuSans-61" x="827.466797"/>
      <use xlink:href="#DejaVuSans-70" x="888.746094"/>
      <use xlink:href="#DejaVuSans-70" x="952.222656"/>
      <use xlink:href="#DejaVuSans-69" x="1015.699219"/>
      <use xlink:href="#DejaVuSans-6e" x="1043.482422"/>
      <use xlink:href="#DejaVuSans-67" x="1106.861328"/>
      <use xlink:href="#DejaVuSans-20" x="1170.337891"/>
      <use xlink:href="#DejaVuSans-48" x="1202.125"/>
      <use xlink:href="#DejaVuSans-69" x="1277.320312"/>
      <use xlink:href="#DejaVuSans-74" x="1305.103516"/>
      <use xlink:href="#DejaVuSans-73" x="1344.3125"/>
     </g>
    </g>
   </g>
   <g id="line2d_23">
    <path d="M 52.8775 178.36 
L 52.8775 66.805217 
" clip-path="url(#p7c5e68a7ad)" style="fill: none; stroke: #1a1a1a; stroke-linecap: square"/>
   </g>
   <g id="line2d_24">
    <path d="M 52.8775 171.387826 
L 52.8775 122.582609 
" clip-path="url(#p7c5e68a7ad)" style="fill: none; stroke: #1a1a1a; stroke-width: 2; stroke-linecap: square"/>
   </g>
   <g id="line2d_25">
    <path d="M 52.8775 150.471304 
" clip-path="url(#p7c5e68a7ad)" style="fill: none; stroke: #fa8072; stroke-width: 1.5; stroke-linecap: square"/>
    <defs>
     <path id="ma848947e49" d="M 0.833333 0 
L -0.833333 -0 
" style="stroke: #ffffff; stroke-width: 0.4"/>
    </defs>
    <g clip-path="url(#p7c5e68a7ad)">
     <use xlink:href="#ma848947e49" x="52.8775" y="150.471304" style="fill: #ffffff; stroke: #ffffff; stroke-width: 0.4"/>
    </g>
   </g>
   <g id="line2d_26">
    <path d="M 93.0125 178.36 
L 93.0125 38.916522 
" clip-path="url(#p7c5e68a7ad)" style="fill: none; stroke: #1a1a1a; stroke-linecap: square"/>
   </g>
   <g id="line2d_27">
    <path d="M 93.0125 122.582609 
L 93.0125 66.805217 
" clip-path="url(#p7c5e68a7ad)" style="fill: none; stroke: #1a1a1a; stroke-width: 2; stroke-linecap: square"/>
   </g>
   <g id="line2d_28">
    <path d="M 93.0125 101.666087 
" clip-path="url(#p7c5e68a7ad)" style="fill: none; stroke: #fa8072; stroke-width: 1.5; stroke-linecap: square"/>
    <g clip-path="url(#p7c5e68a7ad)">
     <use xlink:href="#ma848947e49" x="93.0125" y="101.666087" style="fill: #ffffff; stroke: #ffffff; stroke-width: 0.4"/>
    </g>
   </g>
   <g id="line2d_29">
    <path d="M 133.1475 157.443478 
L 133.1475 18 
" clip-path="url(#p7c5e68a7ad)" style="fill: none; stroke: #1a1a1a; stroke-linecap: square"/>
   </g>
   <g id="line2d_30">
    <path d="M 133.1475 115.610435 
L 133.1475 59.833043 
" clip-path="url(#p7c5e68a7ad)" style="fill: none; stroke: #1a1a1a; stroke-width: 2; stroke-linecap: square"/>
   </g>
   <g id="line2d_31">
    <path d="M 133.1475 80.749565 
" clip-path="url(#p7c5e68a7ad)" style="fill: none; stroke: #fa8072; stroke-width: 1.5; stroke-linecap: square"/>
    <g clip-path="url(#p7c5e68a7ad)">
     <use xlink:href="#ma848947e49" x="133.1475" y="80.749565" style="fill: #ffffff; stroke: #ffffff; stroke-width: 0.4"/>
    </g>
   </g>
   <g id="line2d_32">
    <path d="M 173.2825 157.443478 
L 173.2825 18 
" clip-path="url(#p7c5e68a7ad)" style="fill: none; stroke: #1a1a1a; stroke-linecap: square"/>
   </g>
   <g id="line2d_33">
    <path d="M 173.2825 115.610435 
L 173.2825 40.659565 
" clip-path="url(#p7c5e68a7ad)" style="fill: none; stroke: #1a1a1a; stroke-width: 2; stroke-linecap: square"/>
   </g>
   <g id="line2d_34">
    <path d="M 173.2825 80.749565 
" clip-path="url(#p7c5e68a7ad)" style="fill: none; stroke: #fa8072; stroke-width: 1.5; stroke-linecap: square"/>
    <g clip-path="url(#p7c5e68a7ad)">
     <use xlink:href="#ma848947e49" x="173.2825" y="80.749565" style="fill: #ffffff; stroke: #ffffff; stroke-width: 0.4"/>
    </g>
   </g>
   <g id="line2d_35">
    <path d="M 213.4175 122.582609 
L 213.4175 18 
" clip-path="url(#p7c5e68a7ad)" style="fill: none; stroke: #1a1a1a; stroke-linecap: square"/>
   </g>
   <g id="line2d_36">
    <path d="M 213.4175 79.006522 
L 213.4175 31.944348 
" clip-path="url(#p7c5e68a7ad)" style="fill: none; stroke: #1a1a1a; stroke-width: 2; stroke-linecap: square"/>
   </g>
   <g id="line2d_37">
    <path d="M 213.4175 49.374783 
" clip-path="url(#p7c5e68a7ad)" style="fill: none; stroke: #fa8072; stroke-width: 1.5; stroke-linecap: square"/>
    <g clip-path="url(#p7c5e68a7ad)">
     <use xlink:href="#ma848947e49" x="213.4175" y="49.374783" style="fill: #ffffff; stroke: #ffffff; stroke-width: 0.4"/>
    </g>
   </g>
   <g id="line2d_38">
    <path d="M 253.5525 87.721739 
L 253.5525 18 
" clip-path="url(#p7c5e68a7ad)" style="fill: none; stroke: #1a1a1a; stroke-linecap: square"/>
   </g>
   <g id="line2d_39">
    <path d="M 253.5525 59.833043 
L 253.5525 38.916522 
" clip-path="url(#p7c5e68a7ad)" style="fill: none; stroke: #1a1a1a; stroke-width: 2; stroke-linecap: square"/>
   </g>
   <g id="line2d_40">
    <path d="M 253.5525 45.888696 
" clip-path="url(#p7c5e68a7ad)" style="fill: none; stroke: #fa8072; stroke-width: 1.5; stroke-linecap: square"/>
    <g clip-path="url(#p7c5e68a7ad)">
     <use xlink:href="#ma848947e49" x="253.5525" y="45.888696" style="fill: #ffffff; stroke: #ffffff; stroke-width: 0.4"/>
    </g>
   </g>
   <g id="line2d_41">
    <path d="M 293.6875 115.610435 
L 293.6875 18 
" clip-path="url(#p7c5e68a7ad)" style="fill: none; stroke: #1a1a1a; stroke-linecap: square"/>
   </g>
   <g id="line2d_42">
    <path d="M 293.6875 65.062174 
L 293.6875 24.972174 
" clip-path="url(#p7c5e68a7ad)" style="fill: none; stroke: #1a1a1a; stroke-width: 2; stroke-linecap: square"/>
   </g>
   <g id="line2d_43">
    <path d="M 293.6875 45.888696 
" clip-path="url(#p7c5e68a7ad)" style="fill: none; stroke: #fa8072; stroke-width: 1.5; stroke-linecap: square"/>
    <g clip-path="url(#p7c5e68a7ad)">
     <use xlink:href="#ma848947e49" x="293.6875" y="45.888696" style="fill: #ffffff; stroke: #ffffff; stroke-width: 0.4"/>
    </g>
   </g>
   <g id="line2d_44">
    <path d="M 333.8225 94.693913 
L 333.8225 18 
" clip-path="url(#p7c5e68a7ad)" style="fill: none; stroke: #1a1a1a; stroke-linecap: square"/>
   </g>
   <g id="line2d_45">
    <path d="M 333.8225 59.833043 
L 333.8225 24.972174 
" clip-path="url(#p7c5e68a7ad)" style="fill: none; stroke: #1a1a1a; stroke-width: 2; stroke-linecap: square"/>
   </g>
   <g id="line2d_46">
    <path d="M 333.8225 38.916522 
" clip-path="url(#p7c5e68a7ad)" style="fill: none; stroke: #fa8072; stroke-width: 1.5; stroke-linecap: square"/>
    <g clip-path="url(#p7c5e68a7ad)">
     <use xlink:href="#ma848947e49" x="333.8225" y="38.916522" style="fill: #ffffff; stroke: #ffffff; stroke-width: 0.4"/>
    </g>
   </g>
   <g id="line2d_47">
    <path d="M 373.9575 80.749565 
L 373.9575 18 
" clip-path="url(#p7c5e68a7ad)" style="fill: none; stroke: #1a1a1a; stroke-linecap: square"/>
   </g>
   <g id="line2d_48">
    <path d="M 373.9575 52.86087 
L 373.9575 24.972174 
" clip-path="url(#p7c5e68a7ad)" style="fill: none; stroke: #1a1a1a; stroke-width: 2; stroke-linecap: square"/>
   </g>
   <g id="line2d_49">
    <path d="M 373.9575 28.458261 
" clip-path="url(#p7c5e68a7ad)" style="fill: none; stroke: #fa8072; stroke-width: 1.5; stroke-linecap: square"/>
    <g clip-path="url(#p7c5e68a7ad)">
     <use xlink:href="#ma848947e49" x="373.9575" y="28.458261" style="fill: #ffffff; stroke: #ffffff; stroke-width: 0.4"/>
    </g>
   </g>
   <g id="line2d_50">
    <path d="M 414.0925 80.749565 
L 414.0925 18 
" clip-path="url(#p7c5e68a7ad)" style="fill: none; stroke: #1a1a1a; stroke-linecap: square"/>
   </g>
   <g id="line2d_51">
    <path d="M 414.0925 44.145652 
L 414.0925 18 
" clip-path="url(#p7c5e68a7ad)" style="fill: none; stroke: #1a1a1a; stroke-width: 2; stroke-linecap: square"/>
   </g>
   <g id="line2d_52">
    <path d="M 414.0925 24.972174 
" clip-path="url(#p7c5e68a7ad)" style="fill: none; stroke: #fa8072; stroke-width: 1.5; stroke-linecap: square"/>
    <g clip-path="url(#p7c5e68a7ad)">
     <use xlink:href="#ma848947e49" x="414.0925" y="24.972174" style="fill: #ffffff; stroke: #ffffff; stroke-width: 0.4"/>
    </g>
   </g>
   <g id="line2d_53">
    <path d="M 52.8775 150.471304 
L 93.0125 101.666087 
L 133.1475 80.749565 
L 173.2825 80.749565 
L 213.4175 49.374783 
L 253.5525 45.888696 
L 293.6875 45.888696 
L 333.8225 38.916522 
L 373.9575 28.458261 
L 414.0925 24.972174 
" clip-path="url(#p7c5e68a7ad)" style="fill: none; stroke: #8b0000; stroke-linecap: square"/>
    <defs>
     <path id="m04ab75b243" d="M 0 1.253314 
C 0.332383 1.253314 0.651197 1.121257 0.886227 0.886227 
C 1.121257 0.651197 1.253314 0.332383 1.253314 0 
C 1.253314 -0.332383 1.121257 -0.651197 0.886227 -0.886227 
C 0.651197 -1.121257 0.332383 -1.253314 0 -1.253314 
C -0.332383 -1.253314 -0.651197 -1.121257 -0.886227 -0.886227 
C -1.121257 -0.651197 -1.253314 -0.332383 -1.253314 0 
C -1.253314 0.332383 -1.121257 0.651197 -0.886227 0.886227 
C -0.651197 1.121257 -0.332383 1.253314 0 1.253314 
z
" style="stroke: #8b0000; stroke-width: 0.75"/>
    </defs>
    <g clip-path="url(#p7c5e68a7ad)">
     <use xlink:href="#m04ab75b243" x="52.8775" y="150.471304" style="fill: #8b0000; stroke: #8b0000; stroke-width: 0.75"/>
     <use xlink:href="#m04ab75b243" x="93.0125" y="101.666087" style="fill: #8b0000; stroke: #8b0000; stroke-width: 0.75"/>
     <use xlink:href="#m04ab75b243" x="133.1475" y="80.749565" style="fill: #8b0000; stroke: #8b0000; stroke-width: 0.75"/>
     <use xlink:href="#m04ab75b243" x="173.2825" y="80.749565" style="fill: #8b0000; stroke: #8b0000; stroke-width: 0.75"/>
     <use xlink:href="#m04ab75b243" x="213.4175" y="49.374783" style="fill: #8b0000; stroke: #8b0000; stroke-width: 0.75"/>
     <use xlink:href="#m04ab75b243" x="253.5525" y="45.888696" style="fill: #8b0000; stroke: #8b0000; stroke-width: 0.75"/>
     <use xlink:href="#m04ab75b243" x="293.6875" y="45.888696" style="fill: #8b0000; stroke: #8b0000; stroke-width: 0.75"/>
     <use xlink:href="#m04ab75b243" x="333.8225" y="38.916522" style="fill: #8b0000; stroke: #8b0000; stroke-width: 0.75"/>
     <use xlink:href="#m04ab75b243" x="373.9575" y="28.458261" style="fill: #8b0000; stroke: #8b0000; stroke-width: 0.75"/>
     <use xlink:href="#m04ab75b243" x="414.0925" y="24.972174" style="fill: #8b0000; stroke: #8b0000; stroke-width: 0.75"/>
    </g>
   </g>
   <g id="line2d_54">
    <path clip-path="url(#p7c5e68a7ad)" style="fill: none; stroke: #8b0000; stroke-linecap: square"/>
   </g>
   <g id="line2d_55">
    <path clip-path="url(#p7c5e68a7ad)" style="fill: none; stroke: #8b0000; stroke-linecap: square"/>
   </g>
   <g id="line2d_56">
    <path clip-path="url(#p7c5e68a7ad)" style="fill: none; stroke: #8b0000; stroke-linecap: square"/>
   </g>
   <g id="line2d_57">
    <path clip-path="url(#p7c5e68a7ad)" style="fill: none; stroke: #8b0000; stroke-linecap: square"/>
   </g>
   <g id="line2d_58">
    <path clip-path="url(#p7c5e68a7ad)" style="fill: none; stroke: #8b0000; stroke-linecap: square"/>
   </g>
   <g id="line2d_59">
    <path clip-path="url(#p7c5e68a7ad)" style="fill: none; stroke: #8b0000; stroke-linecap: square"/>
   </g>
   <g id="line2d_60">
    <path clip-path="url(#p7c5e68a7ad)" style="fill: none; stroke: #8b0000; stroke-linecap: square"/>
   </g>
   <g id="line2d_61">
    <path clip-path="url(#p7c5e68a7ad)" style="fill: none; stroke: #8b0000; stroke-linecap: square"/>
   </g>
   <g id="line2d_62">
    <path clip-path="url(#p7c5e68a7ad)" style="fill: none; stroke: #8b0000; stroke-linecap: square"/>
   </g>
   <g id="line2d_63">
    <path clip-path="url(#p7c5e68a7ad)" style="fill: none; stroke: #8b0000; stroke-linecap: square"/>
   </g>
   <g id="patch_3">
    <path d="M 32.81 178.36 
L 32.81 18 
" style="fill: none; stroke: #000000; stroke-width: 0.8; stroke-linejoin: miter; stroke-linecap: square"/>
   </g>
   <g id="patch_4">
    <path d="M 434.16 178.36 
L 434.16 18 
" style="fill: none; stroke: #000000; stroke-width: 0.8; stroke-linejoin: miter; stroke-linecap: square"/>
   </g>
   <g id="patch_5">
    <path d="M 32.81 178.36 
L 434.16 178.36 
" style="fill: none; stroke: #000000; stroke-width: 0.8; stroke-linejoin: miter; stroke-linecap: square"/>
   </g>
   <g id="patch_6">
    <path d="M 32.81 18 
L 434.16 18 
" style="fill: none; stroke: #000000; stroke-width: 0.8; stroke-linejoin: miter; stroke-linecap: square"/>
   </g>
   <g id="text_19">
    <!-- Fraction of Overlapping Hits in Bootstraps compared to Standard -->
    <g transform="translate(116.719 12) scale(0.072 -0.072)">
     <defs>
      <path id="DejaVuSans-42" d="M 1259 2228 
L 1259 519 
L 2272 519 
Q 2781 519 3026 730 
Q 3272 941 3272 1375 
Q 3272 1813 3026 2020 
Q 2781 2228 2272 2228 
L 1259 2228 
z
M 1259 4147 
L 1259 2741 
L 2194 2741 
Q 2656 2741 2882 2914 
Q 3109 3088 3109 3444 
Q 3109 3797 2882 3972 
Q 2656 4147 2194 4147 
L 1259 4147 
z
M 628 4666 
L 2241 4666 
Q 2963 4666 3353 4366 
Q 3744 4066 3744 3513 
Q 3744 3084 3544 2831 
Q 3344 2578 2956 2516 
Q 3422 2416 3680 2098 
Q 3938 1781 3938 1306 
Q 3938 681 3513 340 
Q 3088 0 2303 0 
L 628 0 
L 628 4666 
z
" transform="scale(0.015625)"/>
      <path id="DejaVuSans-64" d="M 2906 2969 
L 2906 4863 
L 3481 4863 
L 3481 0 
L 2906 0 
L 2906 525 
Q 2725 213 2448 61 
Q 2172 -91 1784 -91 
Q 1150 -91 751 415 
Q 353 922 353 1747 
Q 353 2572 751 3078 
Q 1150 3584 1784 3584 
Q 2172 3584 2448 3432 
Q 2725 3281 2906 2969 
z
M 947 1747 
Q 947 1113 1208 752 
Q 1469 391 1925 391 
Q 2381 391 2643 752 
Q 2906 1113 2906 1747 
Q 2906 2381 2643 2742 
Q 2381 3103 1925 3103 
Q 1469 3103 1208 2742 
Q 947 2381 947 1747 
z
" transform="scale(0.015625)"/>
      <path id="DejaVuSans-53" d="M 3425 4513 
L 3425 3897 
Q 3066 4069 2747 4153 
Q 2428 4238 2131 4238 
Q 1616 4238 1336 4038 
Q 1056 3838 1056 3469 
Q 1056 3159 1242 3001 
Q 1428 2844 1947 2747 
L 2328 2669 
Q 3034 2534 3370 2195 
Q 3706 1856 3706 1288 
Q 3706 609 3251 259 
Q 2797 -91 1919 -91 
Q 1588 -91 1214 -16 
Q 841 59 441 206 
L 441 856 
Q 825 641 1194 531 
Q 1563 422 1919 422 
Q 2459 422 2753 634 
Q 3047 847 3047 1241 
Q 3047 1584 2836 1778 
Q 2625 1972 2144 2069 
L 1759 2144 
Q 1053 2284 737 2584 
Q 422 2884 422 3419 
Q 422 4038 858 4394 
Q 1294 4750 2059 4750 
Q 2388 4750 2728 4690 
Q 3069 4631 3425 4513 
z
" transform="scale(0.015625)"/>
     </defs>
     <use xlink:href="#DejaVuSans-46"/>
     <use xlink:href="#DejaVuSans-72" x="50.269531"/>
     <use xlink:href="#DejaVuSans-61" x="91.382812"/>
     <use xlink:href="#DejaVuSans-63" x="152.662109"/>
     <use xlink:href="#DejaVuSans-74" x="207.642578"/>
     <use xlink:href="#DejaVuSans-69" x="246.851562"/>
     <use xlink:href="#DejaVuSans-6f" x="274.634766"/>
     <use xlink:href="#DejaVuSans-6e" x="335.816406"/>
     <use xlink:href="#DejaVuSans-20" x="399.195312"/>
     <use xlink:href="#DejaVuSans-6f" x="430.982422"/>
     <use xlink:href="#DejaVuSans-66" x="492.164062"/>
     <use xlink:href="#DejaVuSans-20" x="527.369141"/>
     <use xlink:href="#DejaVuSans-4f" x="559.15625"/>
     <use xlink:href="#DejaVuSans-76" x="637.867188"/>
     <use xlink:href="#DejaVuSans-65" x="697.046875"/>
     <use xlink:href="#DejaVuSans-72" x="758.570312"/>
     <use xlink:href="#DejaVuSans-6c" x="799.683594"/>
     <use xlink:href="#DejaVuSans-61" x="827.466797"/>
     <use xlink:href="#DejaVuSans-70" x="888.746094"/>
     <use xlink:href="#DejaVuSans-70" x="952.222656"/>
     <use xlink:href="#DejaVuSans-69" x="1015.699219"/>
     <use xlink:href="#DejaVuSans-6e" x="1043.482422"/>
     <use xlink:href="#DejaVuSans-67" x="1106.861328"/>
     <use xlink:href="#DejaVuSans-20" x="1170.337891"/>
     <use xlink:href="#DejaVuSans-48" x="1202.125"/>
     <use xlink:href="#DejaVuSans-69" x="1277.320312"/>
     <use xlink:href="#DejaVuSans-74" x="1305.103516"/>
     <use xlink:href="#DejaVuSans-73" x="1344.3125"/>
     <use xlink:href="#DejaVuSans-20" x="1396.412109"/>
     <use xlink:href="#DejaVuSans-69" x="1428.199219"/>
     <use xlink:href="#DejaVuSans-6e" x="1455.982422"/>
     <use xlink:href="#DejaVuSans-20" x="1519.361328"/>
     <use xlink:href="#DejaVuSans-42" x="1551.148438"/>
     <use xlink:href="#DejaVuSans-6f" x="1619.751953"/>
     <use xlink:href="#DejaVuSans-6f" x="1680.933594"/>
     <use xlink:href="#DejaVuSans-74" x="1742.115234"/>
     <use xlink:href="#DejaVuSans-73" x="1781.324219"/>
     <use xlink:href="#DejaVuSans-74" x="1833.423828"/>
     <use xlink:href="#DejaVuSans-72" x="1872.632812"/>
     <use xlink:href="#DejaVuSans-61" x="1913.746094"/>
     <use xlink:href="#DejaVuSans-70" x="1975.025391"/>
     <use xlink:href="#DejaVuSans-73" x="2038.501953"/>
     <use xlink:href="#DejaVuSans-20" x="2090.601562"/>
     <use xlink:href="#DejaVuSans-63" x="2122.388672"/>
     <use xlink:href="#DejaVuSans-6f" x="2177.369141"/>
     <use xlink:href="#DejaVuSans-6d" x="2238.550781"/>
     <use xlink:href="#DejaVuSans-70" x="2335.962891"/>
     <use xlink:href="#DejaVuSans-61" x="2399.439453"/>
     <use xlink:href="#DejaVuSans-72" x="2460.71875"/>
     <use xlink:href="#DejaVuSans-65" x="2499.582031"/>
     <use xlink:href="#DejaVuSans-64" x="2561.105469"/>
     <use xlink:href="#DejaVuSans-20" x="2624.582031"/>
     <use xlink:href="#DejaVuSans-74" x="2656.369141"/>
     <use xlink:href="#DejaVuSans-6f" x="2695.578125"/>
     <use xlink:href="#DejaVuSans-20" x="2756.759766"/>
     <use xlink:href="#DejaVuSans-53" x="2788.546875"/>
     <use xlink:href="#DejaVuSans-74" x="2852.023438"/>
     <use xlink:href="#DejaVuSans-61" x="2891.232422"/>
     <use xlink:href="#DejaVuSans-6e" x="2952.511719"/>
     <use xlink:href="#DejaVuSans-64" x="3015.890625"/>
     <use xlink:href="#DejaVuSans-61" x="3079.367188"/>
     <use xlink:href="#DejaVuSans-72" x="3140.646484"/>
     <use xlink:href="#DejaVuSans-64" x="3180.009766"/>
    </g>
   </g>
  </g>
 </g>
 <defs>
  <clipPath id="p7c5e68a7ad">
   <rect x="32.81" y="18" width="401.35" height="160.36"/>
  </clipPath>
 </defs>
</svg>
