<?xml version="1.0" encoding="utf-8" standalone="no"?>
<!DOCTYPE svg PUBLIC "-//W3C//DTD SVG 1.1//EN"
  "http://www.w3.org/Graphics/SVG/1.1/DTD/svg11.dtd">
<svg xmlns:xlink="http://www.w3.org/1999/xlink" width="293.76pt" height="138.24pt" viewBox="0 0 293.76 138.24" xmlns="http://www.w3.org/2000/svg" version="1.1">
 <metadata>
  <rdf:RDF xmlns:dc="http://purl.org/dc/elements/1.1/" xmlns:cc="http://creativecommons.org/ns#" xmlns:rdf="http://www.w3.org/1999/02/22-rdf-syntax-ns#">
   <cc:Work>
    <dc:type rdf:resource="http://purl.org/dc/dcmitype/StillImage"/>
    <dc:date>2024-07-16T11:07:45.883758</dc:date>
    <dc:format>image/svg+xml</dc:format>
    <dc:creator>
     <cc:Agent>
      <dc:title>Matplotlib v3.9.1, https://matplotlib.org/</dc:title>
     </cc:Agent>
    </dc:creator>
   </cc:Work>
  </rdf:RDF>
 </metadata>
 <defs>
  <style type="text/css">*{stroke-linejoin: round; stroke-linecap: butt}</style>
 </defs>
 <g id="figure_1">
  <g id="patch_1">
   <path d="M 0 138.24 
L 293.76 138.24 
L 293.76 0 
L 0 0 
z
" style="fill: #ffffff"/>
  </g>
  <g id="axes_1">
   <g id="patch_2">
    <path d="M 32.81 85.96 
L 287.28 85.96 
L 287.28 18 
L 32.81 18 
z
" style="fill: #ffffff"/>
   </g>
   <g id="patch_3">
    <path d="M 34.021762 85.96 
L 43.715857 85.96 
L 43.715857 78.470127 
L 34.021762 78.470127 
z
" clip-path="url(#p39e7c3d4e6)" style="fill: #117a7a"/>
   </g>
   <g id="patch_4">
    <path d="M 46.139381 85.96 
L 55.833476 85.96 
L 55.833476 77.056943 
L 46.139381 77.056943 
z
" clip-path="url(#p39e7c3d4e6)" style="fill: #117a7a"/>
   </g>
   <g id="patch_5">
    <path d="M 58.257 85.96 
L 67.951095 85.96 
L 67.951095 77.056943 
L 58.257 77.056943 
z
" clip-path="url(#p39e7c3d4e6)" style="fill: #117a7a"/>
   </g>
   <g id="patch_6">
    <path d="M 70.374619 85.96 
L 80.068714 85.96 
L 80.068714 73.382666 
L 70.374619 73.382666 
z
" clip-path="url(#p39e7c3d4e6)" style="fill: #117a7a"/>
   </g>
   <g id="patch_7">
    <path d="M 82.492238 85.96 
L 92.186333 85.96 
L 92.186333 69.708388 
L 82.492238 69.708388 
z
" clip-path="url(#p39e7c3d4e6)" style="fill: #117a7a"/>
   </g>
   <g id="patch_8">
    <path d="M 94.609857 85.96 
L 104.303952 85.96 
L 104.303952 68.860478 
L 94.609857 68.860478 
z
" clip-path="url(#p39e7c3d4e6)" style="fill: #117a7a"/>
   </g>
   <g id="patch_9">
    <path d="M 106.727476 85.96 
L 116.421571 85.96 
L 116.421571 60.664013 
L 106.727476 60.664013 
z
" clip-path="url(#p39e7c3d4e6)" style="fill: #117a7a"/>
   </g>
   <g id="patch_10">
    <path d="M 118.845095 85.96 
L 128.53919 85.96 
L 128.53919 54.304687 
L 118.845095 54.304687 
z
" clip-path="url(#p39e7c3d4e6)" style="fill: #117a7a"/>
   </g>
   <g id="patch_11">
    <path d="M 130.962714 85.96 
L 140.65681 85.96 
L 140.65681 52.891503 
L 130.962714 52.891503 
z
" clip-path="url(#p39e7c3d4e6)" style="fill: #117a7a"/>
   </g>
   <g id="patch_12">
    <path d="M 143.080333 85.96 
L 152.774429 85.96 
L 152.774429 51.902275 
L 143.080333 51.902275 
z
" clip-path="url(#p39e7c3d4e6)" style="fill: #117a7a"/>
   </g>
   <g id="patch_13">
    <path d="M 155.197952 85.96 
L 164.892048 85.96 
L 164.892048 51.47832 
L 155.197952 51.47832 
z
" clip-path="url(#p39e7c3d4e6)" style="fill: #117a7a"/>
   </g>
   <g id="patch_14">
    <path d="M 167.315571 85.96 
L 177.009667 85.96 
L 177.009667 51.337001 
L 167.315571 51.337001 
z
" clip-path="url(#p39e7c3d4e6)" style="fill: #117a7a"/>
   </g>
   <g id="patch_15">
    <path d="M 179.43319 85.96 
L 189.127286 85.96 
L 189.127286 51.195683 
L 179.43319 51.195683 
z
" clip-path="url(#p39e7c3d4e6)" style="fill: #117a7a"/>
   </g>
   <g id="patch_16">
    <path d="M 191.55081 85.96 
L 201.244905 85.96 
L 201.244905 48.934589 
L 191.55081 48.934589 
z
" clip-path="url(#p39e7c3d4e6)" style="fill: #117a7a"/>
   </g>
   <g id="patch_17">
    <path d="M 203.668429 85.96 
L 213.362524 85.96 
L 213.362524 46.532177 
L 203.668429 46.532177 
z
" clip-path="url(#p39e7c3d4e6)" style="fill: #117a7a"/>
   </g>
   <g id="patch_18">
    <path d="M 215.786048 85.96 
L 225.480143 85.96 
L 225.480143 43.988447 
L 215.786048 43.988447 
z
" clip-path="url(#p39e7c3d4e6)" style="fill: #117a7a"/>
   </g>
   <g id="patch_19">
    <path d="M 227.903667 85.96 
L 237.597762 85.96 
L 237.597762 43.988447 
L 227.903667 43.988447 
z
" clip-path="url(#p39e7c3d4e6)" style="fill: #117a7a"/>
   </g>
   <g id="patch_20">
    <path d="M 240.021286 85.96 
L 249.715381 85.96 
L 249.715381 27.030243 
L 240.021286 27.030243 
z
" clip-path="url(#p39e7c3d4e6)" style="fill: #117a7a"/>
   </g>
   <g id="patch_21">
    <path d="M 252.138905 85.96 
L 261.833 85.96 
L 261.833 23.638603 
L 252.138905 23.638603 
z
" clip-path="url(#p39e7c3d4e6)" style="fill: #117a7a"/>
   </g>
   <g id="patch_22">
    <path d="M 264.256524 85.96 
L 273.950619 85.96 
L 273.950619 22.790692 
L 264.256524 22.790692 
z
" clip-path="url(#p39e7c3d4e6)" style="fill: #117a7a"/>
   </g>
   <g id="patch_23">
    <path d="M 276.374143 85.96 
L 286.068238 85.96 
L 286.068238 21.23619 
L 276.374143 21.23619 
z
" clip-path="url(#p39e7c3d4e6)" style="fill: #117a7a"/>
   </g>
   <g id="matplotlib.axis_1">
    <g id="xtick_1">
     <g id="line2d_1">
      <defs>
       <path id="m57657e49f6" d="M 0 0 
L 0 3.5 
" style="stroke: #000000; stroke-width: 0.8"/>
      </defs>
      <g>
       <use xlink:href="#m57657e49f6" x="38.86881" y="85.96" style="stroke: #000000; stroke-width: 0.8"/>
      </g>
     </g>
     <g id="text_1">
      <!-- Rngtt -->
      <g transform="translate(40.524435 109.445) rotate(-90) scale(0.06 -0.06)">
       <defs>
        <path id="DejaVuSans-Oblique-52" d="M 1613 4147 
L 1294 2491 
L 2106 2491 
Q 2584 2491 2879 2755 
Q 3175 3019 3175 3444 
Q 3175 3784 2976 3965 
Q 2778 4147 2406 4147 
L 1613 4147 
z
M 2772 2241 
Q 2972 2194 3105 2009 
Q 3238 1825 3413 1275 
L 3809 0 
L 3144 0 
L 2778 1197 
Q 2638 1659 2453 1815 
Q 2269 1972 1888 1972 
L 1191 1972 
L 806 0 
L 172 0 
L 1081 4666 
L 2503 4666 
Q 3150 4666 3495 4373 
Q 3841 4081 3841 3531 
Q 3841 3044 3547 2687 
Q 3253 2331 2772 2241 
z
" transform="scale(0.015625)"/>
        <path id="DejaVuSans-Oblique-6e" d="M 3566 2113 
L 3156 0 
L 2578 0 
L 2988 2091 
Q 3016 2238 3031 2350 
Q 3047 2463 3047 2528 
Q 3047 2791 2881 2937 
Q 2716 3084 2419 3084 
Q 1956 3084 1622 2776 
Q 1288 2469 1184 1941 
L 800 0 
L 225 0 
L 903 3500 
L 1478 3500 
L 1363 2950 
Q 1603 3253 1940 3418 
Q 2278 3584 2650 3584 
Q 3113 3584 3367 3334 
Q 3622 3084 3622 2631 
Q 3622 2519 3608 2391 
Q 3594 2263 3566 2113 
z
" transform="scale(0.015625)"/>
        <path id="DejaVuSans-Oblique-67" d="M 3816 3500 
L 3219 434 
Q 3047 -456 2561 -893 
Q 2075 -1331 1253 -1331 
Q 950 -1331 690 -1286 
Q 431 -1241 206 -1147 
L 313 -588 
Q 525 -725 762 -790 
Q 1000 -856 1269 -856 
Q 1816 -856 2167 -557 
Q 2519 -259 2631 300 
L 2681 563 
Q 2441 288 2122 144 
Q 1803 0 1434 0 
Q 903 0 598 351 
Q 294 703 294 1319 
Q 294 1803 478 2267 
Q 663 2731 997 3091 
Q 1219 3328 1514 3456 
Q 1809 3584 2131 3584 
Q 2484 3584 2746 3420 
Q 3009 3256 3138 2956 
L 3238 3500 
L 3816 3500 
z
M 2950 2216 
Q 2950 2641 2750 2872 
Q 2550 3103 2181 3103 
Q 1953 3103 1747 3012 
Q 1541 2922 1394 2759 
Q 1156 2491 1023 2127 
Q 891 1763 891 1375 
Q 891 944 1092 712 
Q 1294 481 1672 481 
Q 2219 481 2584 976 
Q 2950 1472 2950 2216 
z
" transform="scale(0.015625)"/>
        <path id="DejaVuSans-Oblique-74" d="M 2706 3500 
L 2619 3053 
L 1472 3053 
L 1100 1153 
Q 1081 1047 1072 975 
Q 1063 903 1063 863 
Q 1063 663 1183 572 
Q 1303 481 1569 481 
L 2150 481 
L 2053 0 
L 1503 0 
Q 991 0 739 200 
Q 488 400 488 806 
Q 488 878 497 964 
Q 506 1050 525 1153 
L 897 3053 
L 409 3053 
L 500 3500 
L 978 3500 
L 1172 4494 
L 1747 4494 
L 1556 3500 
L 2706 3500 
z
" transform="scale(0.015625)"/>
       </defs>
       <use xlink:href="#DejaVuSans-Oblique-52"/>
       <use xlink:href="#DejaVuSans-Oblique-6e" x="69.482422"/>
       <use xlink:href="#DejaVuSans-Oblique-67" x="132.861328"/>
       <use xlink:href="#DejaVuSans-Oblique-74" x="196.337891"/>
       <use xlink:href="#DejaVuSans-Oblique-74" x="235.546875"/>
      </g>
     </g>
    </g>
    <g id="xtick_2">
     <g id="line2d_2">
      <g>
       <use xlink:href="#m57657e49f6" x="50.986429" y="85.96" style="stroke: #000000; stroke-width: 0.8"/>
      </g>
     </g>
     <g id="text_2">
      <!-- Yars -->
      <g transform="translate(52.642054 105.34625) rotate(-90) scale(0.06 -0.06)">
       <defs>
        <path id="DejaVuSans-Oblique-59" d="M 403 4666 
L 1081 4666 
L 1953 2747 
L 3616 4666 
L 4325 4666 
L 2209 2222 
L 1778 0 
L 1147 0 
L 1575 2222 
L 403 4666 
z
" transform="scale(0.015625)"/>
        <path id="DejaVuSans-Oblique-61" d="M 3438 1997 
L 3047 0 
L 2472 0 
L 2578 531 
Q 2325 219 2001 64 
Q 1678 -91 1281 -91 
Q 834 -91 548 182 
Q 263 456 263 884 
Q 263 1497 752 1853 
Q 1241 2209 2100 2209 
L 2900 2209 
L 2931 2363 
Q 2938 2388 2941 2417 
Q 2944 2447 2944 2509 
Q 2944 2788 2717 2942 
Q 2491 3097 2081 3097 
Q 1800 3097 1504 3025 
Q 1209 2953 897 2809 
L 997 3341 
Q 1322 3463 1633 3523 
Q 1944 3584 2234 3584 
Q 2853 3584 3176 3315 
Q 3500 3047 3500 2534 
Q 3500 2431 3484 2292 
Q 3469 2153 3438 1997 
z
M 2816 1759 
L 2241 1759 
Q 1534 1759 1195 1570 
Q 856 1381 856 984 
Q 856 709 1029 553 
Q 1203 397 1509 397 
Q 1978 397 2328 733 
Q 2678 1069 2791 1631 
L 2816 1759 
z
" transform="scale(0.015625)"/>
        <path id="DejaVuSans-Oblique-72" d="M 2853 2969 
Q 2766 3016 2653 3041 
Q 2541 3066 2413 3066 
Q 1953 3066 1609 2717 
Q 1266 2369 1153 1784 
L 800 0 
L 225 0 
L 909 3500 
L 1484 3500 
L 1375 2956 
Q 1603 3259 1920 3421 
Q 2238 3584 2597 3584 
Q 2691 3584 2781 3573 
Q 2872 3563 2963 3538 
L 2853 2969 
z
" transform="scale(0.015625)"/>
        <path id="DejaVuSans-Oblique-73" d="M 3200 3397 
L 3091 2853 
Q 2863 2978 2609 3040 
Q 2356 3103 2088 3103 
Q 1634 3103 1373 2948 
Q 1113 2794 1113 2528 
Q 1113 2219 1719 2053 
Q 1766 2041 1788 2034 
L 1972 1978 
Q 2547 1819 2739 1644 
Q 2931 1469 2931 1166 
Q 2931 609 2489 259 
Q 2047 -91 1331 -91 
Q 1053 -91 747 -37 
Q 441 16 72 128 
L 184 722 
Q 500 559 806 475 
Q 1113 391 1394 391 
Q 1816 391 2080 572 
Q 2344 753 2344 1031 
Q 2344 1331 1650 1516 
L 1591 1531 
L 1394 1581 
Q 956 1697 753 1886 
Q 550 2075 550 2369 
Q 550 2928 970 3256 
Q 1391 3584 2113 3584 
Q 2397 3584 2667 3537 
Q 2938 3491 3200 3397 
z
" transform="scale(0.015625)"/>
       </defs>
       <use xlink:href="#DejaVuSans-Oblique-59"/>
       <use xlink:href="#DejaVuSans-Oblique-61" x="51.958984"/>
       <use xlink:href="#DejaVuSans-Oblique-72" x="113.238281"/>
       <use xlink:href="#DejaVuSans-Oblique-73" x="154.351562"/>
      </g>
     </g>
    </g>
    <g id="xtick_3">
     <g id="line2d_3">
      <g>
       <use xlink:href="#m57657e49f6" x="63.104048" y="85.96" style="stroke: #000000; stroke-width: 0.8"/>
      </g>
     </g>
     <g id="text_3">
      <!-- Hmgcs1 -->
      <g transform="translate(64.759673 117.367813) rotate(-90) scale(0.06 -0.06)">
       <defs>
        <path id="DejaVuSans-Oblique-48" d="M 1081 4666 
L 1716 4666 
L 1344 2753 
L 3634 2753 
L 4006 4666 
L 4641 4666 
L 3731 0 
L 3097 0 
L 3531 2222 
L 1241 2222 
L 806 0 
L 172 0 
L 1081 4666 
z
" transform="scale(0.015625)"/>
        <path id="DejaVuSans-Oblique-6d" d="M 5747 2113 
L 5338 0 
L 4763 0 
L 5166 2094 
Q 5191 2228 5203 2325 
Q 5216 2422 5216 2491 
Q 5216 2772 5059 2928 
Q 4903 3084 4622 3084 
Q 4203 3084 3875 2770 
Q 3547 2456 3450 1953 
L 3066 0 
L 2491 0 
L 2900 2094 
Q 2925 2209 2937 2307 
Q 2950 2406 2950 2484 
Q 2950 2769 2794 2926 
Q 2638 3084 2363 3084 
Q 1938 3084 1609 2770 
Q 1281 2456 1184 1953 
L 800 0 
L 225 0 
L 909 3500 
L 1484 3500 
L 1375 2956 
Q 1609 3263 1923 3423 
Q 2238 3584 2597 3584 
Q 2978 3584 3223 3384 
Q 3469 3184 3519 2828 
Q 3781 3197 4126 3390 
Q 4472 3584 4856 3584 
Q 5306 3584 5551 3325 
Q 5797 3066 5797 2591 
Q 5797 2488 5784 2364 
Q 5772 2241 5747 2113 
z
" transform="scale(0.015625)"/>
        <path id="DejaVuSans-Oblique-63" d="M 3431 3366 
L 3316 2797 
Q 3109 2947 2876 3022 
Q 2644 3097 2394 3097 
Q 2119 3097 1870 3000 
Q 1622 2903 1453 2725 
Q 1184 2453 1037 2087 
Q 891 1722 891 1331 
Q 891 859 1127 628 
Q 1363 397 1844 397 
Q 2081 397 2348 469 
Q 2616 541 2906 684 
L 2797 116 
Q 2547 13 2283 -39 
Q 2019 -91 1741 -91 
Q 1044 -91 669 257 
Q 294 606 294 1253 
Q 294 1797 489 2255 
Q 684 2713 1069 3078 
Q 1331 3328 1684 3456 
Q 2038 3584 2456 3584 
Q 2700 3584 2940 3529 
Q 3181 3475 3431 3366 
z
" transform="scale(0.015625)"/>
        <path id="DejaVuSans-Oblique-31" d="M 416 531 
L 1447 531 
L 2144 4122 
L 978 3897 
L 1088 4441 
L 2247 4666 
L 2881 4666 
L 2075 531 
L 3103 531 
L 3003 0 
L 313 0 
L 416 531 
z
" transform="scale(0.015625)"/>
       </defs>
       <use xlink:href="#DejaVuSans-Oblique-48"/>
       <use xlink:href="#DejaVuSans-Oblique-6d" x="75.195312"/>
       <use xlink:href="#DejaVuSans-Oblique-67" x="172.607422"/>
       <use xlink:href="#DejaVuSans-Oblique-63" x="236.083984"/>
       <use xlink:href="#DejaVuSans-Oblique-73" x="291.064453"/>
       <use xlink:href="#DejaVuSans-Oblique-31" x="343.164062"/>
      </g>
     </g>
    </g>
    <g id="xtick_4">
     <g id="line2d_4">
      <g>
       <use xlink:href="#m57657e49f6" x="75.221667" y="85.96" style="stroke: #000000; stroke-width: 0.8"/>
      </g>
     </g>
     <g id="text_4">
      <!-- Aars -->
      <g transform="translate(76.877292 106.333438) rotate(-90) scale(0.06 -0.06)">
       <defs>
        <path id="DejaVuSans-Oblique-41" d="M 2356 4666 
L 3072 4666 
L 3938 0 
L 3278 0 
L 3084 1197 
L 984 1197 
L 325 0 
L -341 0 
L 2356 4666 
z
M 2584 4044 
L 1275 1722 
L 2988 1722 
L 2584 4044 
z
" transform="scale(0.015625)"/>
       </defs>
       <use xlink:href="#DejaVuSans-Oblique-41"/>
       <use xlink:href="#DejaVuSans-Oblique-61" x="68.408203"/>
       <use xlink:href="#DejaVuSans-Oblique-72" x="129.6875"/>
       <use xlink:href="#DejaVuSans-Oblique-73" x="170.800781"/>
      </g>
     </g>
    </g>
    <g id="xtick_5">
     <g id="line2d_5">
      <g>
       <use xlink:href="#m57657e49f6" x="87.339286" y="85.96" style="stroke: #000000; stroke-width: 0.8"/>
      </g>
     </g>
     <g id="text_5">
      <!-- Sacm1l -->
      <g transform="translate(88.994911 115.07375) rotate(-90) scale(0.06 -0.06)">
       <defs>
        <path id="DejaVuSans-Oblique-53" d="M 3859 4513 
L 3738 3897 
Q 3422 4066 3111 4152 
Q 2800 4238 2509 4238 
Q 1944 4238 1609 3991 
Q 1275 3744 1275 3334 
Q 1275 3109 1398 2989 
Q 1522 2869 2034 2731 
L 2413 2638 
Q 3053 2472 3303 2217 
Q 3553 1963 3553 1503 
Q 3553 797 2998 353 
Q 2444 -91 1538 -91 
Q 1166 -91 791 -17 
Q 416 56 38 206 
L 166 856 
Q 513 641 861 531 
Q 1209 422 1556 422 
Q 2147 422 2503 684 
Q 2859 947 2859 1369 
Q 2859 1650 2717 1795 
Q 2575 1941 2106 2059 
L 1728 2156 
Q 1081 2325 845 2545 
Q 609 2766 609 3163 
Q 609 3859 1145 4304 
Q 1681 4750 2541 4750 
Q 2875 4750 3203 4690 
Q 3531 4631 3859 4513 
z
" transform="scale(0.015625)"/>
        <path id="DejaVuSans-Oblique-6c" d="M 1172 4863 
L 1747 4863 
L 800 0 
L 225 0 
L 1172 4863 
z
" transform="scale(0.015625)"/>
       </defs>
       <use xlink:href="#DejaVuSans-Oblique-53"/>
       <use xlink:href="#DejaVuSans-Oblique-61" x="63.476562"/>
       <use xlink:href="#DejaVuSans-Oblique-63" x="124.755859"/>
       <use xlink:href="#DejaVuSans-Oblique-6d" x="179.736328"/>
       <use xlink:href="#DejaVuSans-Oblique-31" x="277.148438"/>
       <use xlink:href="#DejaVuSans-Oblique-6c" x="340.771484"/>
      </g>
     </g>
    </g>
    <g id="xtick_6">
     <g id="line2d_6">
      <g>
       <use xlink:href="#m57657e49f6" x="99.456905" y="85.96" style="stroke: #000000; stroke-width: 0.8"/>
      </g>
     </g>
     <g id="text_6">
      <!-- Ctdp1 -->
      <g transform="translate(101.11253 110.9375) rotate(-90) scale(0.06 -0.06)">
       <defs>
        <path id="DejaVuSans-Oblique-43" d="M 4447 4306 
L 4319 3641 
Q 4019 3944 3683 4091 
Q 3347 4238 2956 4238 
Q 2422 4238 2017 3981 
Q 1613 3725 1319 3200 
Q 1131 2863 1032 2486 
Q 934 2109 934 1728 
Q 934 1091 1264 756 
Q 1594 422 2222 422 
Q 2656 422 3056 561 
Q 3456 700 3834 978 
L 3688 231 
Q 3316 72 2936 -9 
Q 2556 -91 2175 -91 
Q 1278 -91 773 396 
Q 269 884 269 1753 
Q 269 2309 461 2846 
Q 653 3384 1013 3828 
Q 1394 4300 1883 4525 
Q 2372 4750 3022 4750 
Q 3422 4750 3780 4639 
Q 4138 4528 4447 4306 
z
" transform="scale(0.015625)"/>
        <path id="DejaVuSans-Oblique-64" d="M 2675 525 
Q 2444 222 2128 65 
Q 1813 -91 1428 -91 
Q 903 -91 598 267 
Q 294 625 294 1247 
Q 294 1766 478 2236 
Q 663 2706 1013 3078 
Q 1244 3325 1534 3454 
Q 1825 3584 2144 3584 
Q 2481 3584 2739 3421 
Q 2997 3259 3138 2956 
L 3513 4863 
L 4091 4863 
L 3144 0 
L 2566 0 
L 2675 525 
z
M 891 1350 
Q 891 897 1095 644 
Q 1300 391 1663 391 
Q 1931 391 2161 520 
Q 2391 650 2566 903 
Q 2750 1166 2856 1509 
Q 2963 1853 2963 2188 
Q 2963 2622 2758 2865 
Q 2553 3109 2194 3109 
Q 1922 3109 1687 2981 
Q 1453 2853 1288 2613 
Q 1106 2353 998 2009 
Q 891 1666 891 1350 
z
" transform="scale(0.015625)"/>
        <path id="DejaVuSans-Oblique-70" d="M 3175 2156 
Q 3175 2616 2975 2859 
Q 2775 3103 2400 3103 
Q 2144 3103 1911 2972 
Q 1678 2841 1497 2591 
Q 1319 2344 1212 1994 
Q 1106 1644 1106 1300 
Q 1106 863 1306 627 
Q 1506 391 1875 391 
Q 2147 391 2380 519 
Q 2613 647 2778 891 
Q 2956 1147 3065 1494 
Q 3175 1841 3175 2156 
z
M 1394 2969 
Q 1625 3272 1939 3428 
Q 2253 3584 2638 3584 
Q 3175 3584 3472 3232 
Q 3769 2881 3769 2247 
Q 3769 1728 3584 1258 
Q 3400 788 3053 416 
Q 2822 169 2531 39 
Q 2241 -91 1919 -91 
Q 1547 -91 1294 64 
Q 1041 219 916 525 
L 556 -1331 
L -19 -1331 
L 922 3500 
L 1497 3500 
L 1394 2969 
z
" transform="scale(0.015625)"/>
       </defs>
       <use xlink:href="#DejaVuSans-Oblique-43"/>
       <use xlink:href="#DejaVuSans-Oblique-74" x="69.824219"/>
       <use xlink:href="#DejaVuSans-Oblique-64" x="109.033203"/>
       <use xlink:href="#DejaVuSans-Oblique-70" x="172.509766"/>
       <use xlink:href="#DejaVuSans-Oblique-31" x="235.986328"/>
      </g>
     </g>
    </g>
    <g id="xtick_7">
     <g id="line2d_7">
      <g>
       <use xlink:href="#m57657e49f6" x="111.574524" y="85.96" style="stroke: #000000; stroke-width: 0.8"/>
      </g>
     </g>
     <g id="text_7">
      <!-- Nsf -->
      <g transform="translate(113.230149 102.686563) rotate(-90) scale(0.06 -0.06)">
       <defs>
        <path id="DejaVuSans-Oblique-4e" d="M 1081 4666 
L 1931 4666 
L 3219 666 
L 4000 4666 
L 4616 4666 
L 3706 0 
L 2853 0 
L 1569 4025 
L 788 0 
L 172 0 
L 1081 4666 
z
" transform="scale(0.015625)"/>
        <path id="DejaVuSans-Oblique-66" d="M 3059 4863 
L 2969 4384 
L 2419 4384 
Q 2106 4384 1964 4261 
Q 1822 4138 1753 3809 
L 1691 3500 
L 2638 3500 
L 2553 3053 
L 1606 3053 
L 1013 0 
L 434 0 
L 1031 3053 
L 481 3053 
L 563 3500 
L 1113 3500 
L 1159 3744 
Q 1278 4363 1576 4613 
Q 1875 4863 2516 4863 
L 3059 4863 
z
" transform="scale(0.015625)"/>
       </defs>
       <use xlink:href="#DejaVuSans-Oblique-4e"/>
       <use xlink:href="#DejaVuSans-Oblique-73" x="74.804688"/>
       <use xlink:href="#DejaVuSans-Oblique-66" x="126.904297"/>
      </g>
     </g>
    </g>
    <g id="xtick_8">
     <g id="line2d_8">
      <g>
       <use xlink:href="#m57657e49f6" x="123.692143" y="85.96" style="stroke: #000000; stroke-width: 0.8"/>
      </g>
     </g>
     <g id="text_8">
      <!-- Taf1 -->
      <g transform="translate(125.347768 105.60125) rotate(-90) scale(0.06 -0.06)">
       <defs>
        <path id="DejaVuSans-Oblique-54" d="M 378 4666 
L 4325 4666 
L 4225 4134 
L 2559 4134 
L 1759 0 
L 1125 0 
L 1925 4134 
L 275 4134 
L 378 4666 
z
" transform="scale(0.015625)"/>
       </defs>
       <use xlink:href="#DejaVuSans-Oblique-54"/>
       <use xlink:href="#DejaVuSans-Oblique-61" x="50.583984"/>
       <use xlink:href="#DejaVuSans-Oblique-66" x="111.863281"/>
       <use xlink:href="#DejaVuSans-Oblique-31" x="147.068359"/>
      </g>
     </g>
    </g>
    <g id="xtick_9">
     <g id="line2d_9">
      <g>
       <use xlink:href="#m57657e49f6" x="135.809762" y="85.96" style="stroke: #000000; stroke-width: 0.8"/>
      </g>
     </g>
     <g id="text_9">
      <!-- Caml -->
      <g transform="translate(137.465387 108.337813) rotate(-90) scale(0.06 -0.06)">
       <use xlink:href="#DejaVuSans-Oblique-43"/>
       <use xlink:href="#DejaVuSans-Oblique-61" x="69.824219"/>
       <use xlink:href="#DejaVuSans-Oblique-6d" x="131.103516"/>
       <use xlink:href="#DejaVuSans-Oblique-6c" x="228.515625"/>
      </g>
     </g>
    </g>
    <g id="xtick_10">
     <g id="line2d_10">
      <g>
       <use xlink:href="#m57657e49f6" x="147.927381" y="85.96" style="stroke: #000000; stroke-width: 0.8"/>
      </g>
     </g>
     <g id="text_10">
      <!-- Slc18a1 -->
      <g transform="translate(149.583006 116.864375) rotate(-90) scale(0.06 -0.06)">
       <defs>
        <path id="DejaVuSans-Oblique-38" d="M 2847 1416 
Q 2847 1769 2600 1992 
Q 2353 2216 1953 2216 
Q 1466 2216 1148 1923 
Q 831 1631 831 1184 
Q 831 828 1073 618 
Q 1316 409 1728 409 
Q 2219 409 2533 693 
Q 2847 978 2847 1416 
z
M 3169 3591 
Q 3169 3888 2950 4069 
Q 2731 4250 2369 4250 
Q 1941 4250 1664 4009 
Q 1388 3769 1388 3406 
Q 1388 3094 1605 2903 
Q 1822 2713 2181 2713 
Q 2613 2713 2891 2961 
Q 3169 3209 3169 3591 
z
M 2741 2456 
Q 3094 2322 3281 2050 
Q 3469 1778 3469 1394 
Q 3469 747 2969 328 
Q 2469 -91 1678 -91 
Q 1006 -91 609 239 
Q 213 569 213 1119 
Q 213 1619 553 2008 
Q 894 2397 1441 2503 
Q 1113 2616 941 2852 
Q 769 3088 769 3425 
Q 769 3991 1239 4370 
Q 1709 4750 2431 4750 
Q 3034 4750 3414 4442 
Q 3794 4134 3794 3659 
Q 3794 3247 3511 2923 
Q 3228 2600 2741 2456 
z
" transform="scale(0.015625)"/>
       </defs>
       <use xlink:href="#DejaVuSans-Oblique-53"/>
       <use xlink:href="#DejaVuSans-Oblique-6c" x="63.476562"/>
       <use xlink:href="#DejaVuSans-Oblique-63" x="91.259766"/>
       <use xlink:href="#DejaVuSans-Oblique-31" x="146.240234"/>
       <use xlink:href="#DejaVuSans-Oblique-38" x="209.863281"/>
       <use xlink:href="#DejaVuSans-Oblique-61" x="273.486328"/>
       <use xlink:href="#DejaVuSans-Oblique-31" x="334.765625"/>
      </g>
     </g>
    </g>
    <g id="xtick_11">
     <g id="line2d_11">
      <g>
       <use xlink:href="#m57657e49f6" x="160.045" y="85.96" style="stroke: #000000; stroke-width: 0.8"/>
      </g>
     </g>
     <g id="text_11">
      <!-- Ptpn23 -->
      <g transform="translate(161.700625 114.176563) rotate(-90) scale(0.06 -0.06)">
       <defs>
        <path id="DejaVuSans-Oblique-50" d="M 1081 4666 
L 2541 4666 
Q 3178 4666 3512 4369 
Q 3847 4072 3847 3500 
Q 3847 2731 3353 2303 
Q 2859 1875 1966 1875 
L 1172 1875 
L 806 0 
L 172 0 
L 1081 4666 
z
M 1613 4147 
L 1275 2394 
L 2069 2394 
Q 2606 2394 2893 2669 
Q 3181 2944 3181 3456 
Q 3181 3784 2986 3965 
Q 2791 4147 2438 4147 
L 1613 4147 
z
" transform="scale(0.015625)"/>
        <path id="DejaVuSans-Oblique-32" d="M 2950 2253 
L 934 525 
L 3163 525 
L 3053 0 
L 25 0 
L 128 531 
L 2234 2338 
Q 2656 2703 2832 2979 
Q 3009 3256 3009 3547 
Q 3009 3850 2796 4040 
Q 2584 4231 2241 4231 
Q 1944 4231 1581 4125 
Q 1219 4019 806 3816 
L 922 4441 
Q 1309 4594 1662 4672 
Q 2016 4750 2316 4750 
Q 2928 4750 3301 4425 
Q 3675 4100 3675 3572 
Q 3675 3216 3497 2892 
Q 3319 2569 2950 2253 
z
" transform="scale(0.015625)"/>
        <path id="DejaVuSans-Oblique-33" d="M 1013 4550 
Q 1356 4650 1679 4700 
Q 2003 4750 2316 4750 
Q 2934 4750 3296 4475 
Q 3659 4200 3659 3738 
Q 3659 3284 3373 2959 
Q 3088 2634 2584 2516 
Q 2978 2403 3162 2165 
Q 3347 1928 3347 1538 
Q 3347 1163 3167 834 
Q 2988 506 2650 269 
Q 2394 88 2037 -1 
Q 1681 -91 1216 -91 
Q 922 -91 622 -33 
Q 322 25 13 141 
L 128 738 
Q 422 575 720 495 
Q 1019 416 1331 416 
Q 1947 416 2330 733 
Q 2713 1050 2713 1556 
Q 2713 1881 2469 2057 
Q 2225 2234 1772 2234 
L 1228 2234 
L 1325 2747 
L 1900 2747 
Q 2419 2747 2717 2984 
Q 3016 3222 3016 3628 
Q 3016 3922 2797 4083 
Q 2578 4244 2181 4244 
Q 1881 4244 1567 4180 
Q 1253 4116 916 3988 
L 1013 4550 
z
" transform="scale(0.015625)"/>
       </defs>
       <use xlink:href="#DejaVuSans-Oblique-50"/>
       <use xlink:href="#DejaVuSans-Oblique-74" x="60.302734"/>
       <use xlink:href="#DejaVuSans-Oblique-70" x="99.511719"/>
       <use xlink:href="#DejaVuSans-Oblique-6e" x="162.988281"/>
       <use xlink:href="#DejaVuSans-Oblique-32" x="226.367188"/>
       <use xlink:href="#DejaVuSans-Oblique-33" x="289.990234"/>
      </g>
     </g>
    </g>
    <g id="xtick_12">
     <g id="line2d_12">
      <g>
       <use xlink:href="#m57657e49f6" x="172.162619" y="85.96" style="stroke: #000000; stroke-width: 0.8"/>
      </g>
     </g>
     <g id="text_12">
      <!-- Atp6v1c1 -->
      <g transform="translate(173.818244 121.528438) rotate(-90) scale(0.06 -0.06)">
       <defs>
        <path id="DejaVuSans-Oblique-36" d="M 2938 1728 
Q 2938 2125 2734 2354 
Q 2531 2584 2181 2584 
Q 1697 2584 1367 2211 
Q 1038 1838 1038 1288 
Q 1038 875 1239 642 
Q 1441 409 1797 409 
Q 2284 409 2611 792 
Q 2938 1175 2938 1728 
z
M 3788 4556 
L 3681 3981 
Q 3500 4100 3265 4162 
Q 3031 4225 2766 4225 
Q 2119 4225 1726 3819 
Q 1334 3413 1141 2547 
Q 1369 2813 1670 2948 
Q 1972 3084 2322 3084 
Q 2894 3084 3233 2754 
Q 3572 2425 3572 1869 
Q 3572 1413 3405 1020 
Q 3238 628 2919 331 
Q 2700 128 2409 18 
Q 2119 -91 1791 -91 
Q 1147 -91 775 318 
Q 403 728 403 1441 
Q 403 2103 573 2717 
Q 744 3331 1050 3781 
Q 1372 4256 1830 4503 
Q 2288 4750 2841 4750 
Q 3084 4750 3321 4701 
Q 3559 4653 3788 4556 
z
" transform="scale(0.015625)"/>
        <path id="DejaVuSans-Oblique-76" d="M 459 3500 
L 1069 3500 
L 1581 525 
L 3256 3500 
L 3866 3500 
L 1875 0 
L 1100 0 
L 459 3500 
z
" transform="scale(0.015625)"/>
       </defs>
       <use xlink:href="#DejaVuSans-Oblique-41"/>
       <use xlink:href="#DejaVuSans-Oblique-74" x="68.408203"/>
       <use xlink:href="#DejaVuSans-Oblique-70" x="107.617188"/>
       <use xlink:href="#DejaVuSans-Oblique-36" x="171.09375"/>
       <use xlink:href="#DejaVuSans-Oblique-76" x="234.716797"/>
       <use xlink:href="#DejaVuSans-Oblique-31" x="293.896484"/>
       <use xlink:href="#DejaVuSans-Oblique-63" x="357.519531"/>
       <use xlink:href="#DejaVuSans-Oblique-31" x="412.5"/>
      </g>
     </g>
    </g>
    <g id="xtick_13">
     <g id="line2d_13">
      <g>
       <use xlink:href="#m57657e49f6" x="184.280238" y="85.96" style="stroke: #000000; stroke-width: 0.8"/>
      </g>
     </g>
     <g id="text_13">
      <!-- Trappc3 -->
      <g transform="translate(185.935863 117.037813) rotate(-90) scale(0.06 -0.06)">
       <use xlink:href="#DejaVuSans-Oblique-54"/>
       <use xlink:href="#DejaVuSans-Oblique-72" x="53.333984"/>
       <use xlink:href="#DejaVuSans-Oblique-61" x="94.447266"/>
       <use xlink:href="#DejaVuSans-Oblique-70" x="155.726562"/>
       <use xlink:href="#DejaVuSans-Oblique-70" x="219.203125"/>
       <use xlink:href="#DejaVuSans-Oblique-63" x="282.679688"/>
       <use xlink:href="#DejaVuSans-Oblique-33" x="337.660156"/>
      </g>
     </g>
    </g>
    <g id="xtick_14">
     <g id="line2d_14">
      <g>
       <use xlink:href="#m57657e49f6" x="196.397857" y="85.96" style="stroke: #000000; stroke-width: 0.8"/>
      </g>
     </g>
     <g id="text_14">
      <!-- Hspa5 -->
      <g transform="translate(198.053482 111.90125) rotate(-90) scale(0.06 -0.06)">
       <defs>
        <path id="DejaVuSans-Oblique-35" d="M 3719 4666 
L 3622 4141 
L 1691 4141 
L 1466 2988 
Q 1609 3034 1757 3056 
Q 1906 3078 2059 3078 
Q 2706 3078 3081 2731 
Q 3456 2384 3456 1791 
Q 3456 1375 3264 994 
Q 3072 613 2719 325 
Q 2469 125 2108 17 
Q 1747 -91 1319 -91 
Q 1038 -91 744 -41 
Q 450 9 128 109 
L 244 697 
Q 531 556 820 486 
Q 1109 416 1403 416 
Q 2013 416 2411 781 
Q 2809 1147 2809 1697 
Q 2809 2103 2548 2328 
Q 2288 2553 1819 2553 
Q 1572 2553 1305 2495 
Q 1038 2438 756 2322 
L 1209 4666 
L 3719 4666 
z
" transform="scale(0.015625)"/>
       </defs>
       <use xlink:href="#DejaVuSans-Oblique-48"/>
       <use xlink:href="#DejaVuSans-Oblique-73" x="75.195312"/>
       <use xlink:href="#DejaVuSans-Oblique-70" x="127.294922"/>
       <use xlink:href="#DejaVuSans-Oblique-61" x="190.771484"/>
       <use xlink:href="#DejaVuSans-Oblique-35" x="252.050781"/>
      </g>
     </g>
    </g>
    <g id="xtick_15">
     <g id="line2d_15">
      <g>
       <use xlink:href="#m57657e49f6" x="208.515476" y="85.96" style="stroke: #000000; stroke-width: 0.8"/>
      </g>
     </g>
     <g id="text_15">
      <!-- Rabggta -->
      <g transform="translate(210.171101 118.262188) rotate(-90) scale(0.06 -0.06)">
       <defs>
        <path id="DejaVuSans-Oblique-62" d="M 3169 2138 
Q 3169 2591 2961 2847 
Q 2753 3103 2388 3103 
Q 2122 3103 1889 2973 
Q 1656 2844 1484 2597 
Q 1303 2338 1198 1995 
Q 1094 1653 1094 1313 
Q 1094 881 1298 636 
Q 1503 391 1863 391 
Q 2134 391 2365 517 
Q 2597 644 2772 891 
Q 2950 1147 3059 1487 
Q 3169 1828 3169 2138 
z
M 1381 2969 
Q 1594 3256 1914 3420 
Q 2234 3584 2584 3584 
Q 3122 3584 3439 3221 
Q 3756 2859 3756 2241 
Q 3756 1734 3570 1259 
Q 3384 784 3041 416 
Q 2816 172 2522 40 
Q 2228 -91 1906 -91 
Q 1566 -91 1316 65 
Q 1066 222 909 531 
L 806 0 
L 231 0 
L 1178 4863 
L 1753 4863 
L 1381 2969 
z
" transform="scale(0.015625)"/>
       </defs>
       <use xlink:href="#DejaVuSans-Oblique-52"/>
       <use xlink:href="#DejaVuSans-Oblique-61" x="69.482422"/>
       <use xlink:href="#DejaVuSans-Oblique-62" x="130.761719"/>
       <use xlink:href="#DejaVuSans-Oblique-67" x="194.238281"/>
       <use xlink:href="#DejaVuSans-Oblique-67" x="257.714844"/>
       <use xlink:href="#DejaVuSans-Oblique-74" x="321.191406"/>
       <use xlink:href="#DejaVuSans-Oblique-61" x="360.400391"/>
      </g>
     </g>
    </g>
    <g id="xtick_16">
     <g id="line2d_16">
      <g>
       <use xlink:href="#m57657e49f6" x="220.633095" y="85.96" style="stroke: #000000; stroke-width: 0.8"/>
      </g>
     </g>
     <g id="text_16">
      <!-- Hmgcr -->
      <g transform="translate(222.28872 112.89125) rotate(-90) scale(0.06 -0.06)">
       <use xlink:href="#DejaVuSans-Oblique-48"/>
       <use xlink:href="#DejaVuSans-Oblique-6d" x="75.195312"/>
       <use xlink:href="#DejaVuSans-Oblique-67" x="172.607422"/>
       <use xlink:href="#DejaVuSans-Oblique-63" x="236.083984"/>
       <use xlink:href="#DejaVuSans-Oblique-72" x="291.064453"/>
      </g>
     </g>
    </g>
    <g id="xtick_17">
     <g id="line2d_17">
      <g>
       <use xlink:href="#m57657e49f6" x="232.750714" y="85.96" style="stroke: #000000; stroke-width: 0.8"/>
      </g>
     </g>
     <g id="text_17">
      <!-- Atp6v1b2 -->
      <g transform="translate(234.406339 122.038438) rotate(-90) scale(0.06 -0.06)">
       <use xlink:href="#DejaVuSans-Oblique-41"/>
       <use xlink:href="#DejaVuSans-Oblique-74" x="68.408203"/>
       <use xlink:href="#DejaVuSans-Oblique-70" x="107.617188"/>
       <use xlink:href="#DejaVuSans-Oblique-36" x="171.09375"/>
       <use xlink:href="#DejaVuSans-Oblique-76" x="234.716797"/>
       <use xlink:href="#DejaVuSans-Oblique-31" x="293.896484"/>
       <use xlink:href="#DejaVuSans-Oblique-62" x="357.519531"/>
       <use xlink:href="#DejaVuSans-Oblique-32" x="420.996094"/>
      </g>
     </g>
    </g>
    <g id="xtick_18">
     <g id="line2d_18">
      <g>
       <use xlink:href="#m57657e49f6" x="244.868333" y="85.96" style="stroke: #000000; stroke-width: 0.8"/>
      </g>
     </g>
     <g id="text_18">
      <!-- Ddx39b -->
      <g transform="translate(246.523958 116.384375) rotate(-90) scale(0.06 -0.06)">
       <defs>
        <path id="DejaVuSans-Oblique-44" d="M 1081 4666 
L 2438 4666 
Q 3519 4666 4070 4208 
Q 4622 3750 4622 2847 
Q 4622 2250 4412 1698 
Q 4203 1147 3834 769 
Q 3463 381 2891 190 
Q 2319 0 1538 0 
L 172 0 
L 1081 4666 
z
M 1613 4147 
L 909 519 
L 1734 519 
Q 2794 519 3375 1128 
Q 3956 1738 3956 2847 
Q 3956 3519 3581 3833 
Q 3206 4147 2406 4147 
L 1613 4147 
z
" transform="scale(0.015625)"/>
        <path id="DejaVuSans-Oblique-78" d="M 3841 3500 
L 2234 1784 
L 3219 0 
L 2559 0 
L 1819 1388 
L 531 0 
L -166 0 
L 1556 1844 
L 641 3500 
L 1300 3500 
L 1972 2234 
L 3144 3500 
L 3841 3500 
z
" transform="scale(0.015625)"/>
        <path id="DejaVuSans-Oblique-39" d="M 281 103 
L 397 678 
Q 578 559 809 496 
Q 1041 434 1306 434 
Q 1953 434 2348 843 
Q 2744 1253 2938 2119 
Q 2706 1853 2401 1714 
Q 2097 1575 1747 1575 
Q 1178 1575 842 1904 
Q 506 2234 506 2791 
Q 506 3247 672 3639 
Q 838 4031 1159 4325 
Q 1378 4531 1665 4640 
Q 1953 4750 2278 4750 
Q 2925 4750 3300 4339 
Q 3675 3928 3675 3219 
Q 3675 2559 3501 1943 
Q 3328 1328 3022 878 
Q 2697 403 2240 156 
Q 1784 -91 1228 -91 
Q 988 -91 748 -42 
Q 509 6 281 103 
z
M 1131 2938 
Q 1131 2541 1337 2308 
Q 1544 2075 1894 2075 
Q 2378 2075 2706 2447 
Q 3034 2819 3034 3372 
Q 3034 3784 2831 4017 
Q 2628 4250 2272 4250 
Q 1788 4250 1459 3870 
Q 1131 3491 1131 2938 
z
" transform="scale(0.015625)"/>
       </defs>
       <use xlink:href="#DejaVuSans-Oblique-44"/>
       <use xlink:href="#DejaVuSans-Oblique-64" x="77.001953"/>
       <use xlink:href="#DejaVuSans-Oblique-78" x="140.478516"/>
       <use xlink:href="#DejaVuSans-Oblique-33" x="199.658203"/>
       <use xlink:href="#DejaVuSans-Oblique-39" x="263.28125"/>
       <use xlink:href="#DejaVuSans-Oblique-62" x="326.904297"/>
      </g>
     </g>
    </g>
    <g id="xtick_19">
     <g id="line2d_19">
      <g>
       <use xlink:href="#m57657e49f6" x="256.985952" y="85.96" style="stroke: #000000; stroke-width: 0.8"/>
      </g>
     </g>
     <g id="text_19">
      <!-- Sars -->
      <g transform="translate(258.641577 106.038125) rotate(-90) scale(0.06 -0.06)">
       <use xlink:href="#DejaVuSans-Oblique-53"/>
       <use xlink:href="#DejaVuSans-Oblique-61" x="63.476562"/>
       <use xlink:href="#DejaVuSans-Oblique-72" x="124.755859"/>
       <use xlink:href="#DejaVuSans-Oblique-73" x="165.869141"/>
      </g>
     </g>
    </g>
    <g id="xtick_20">
     <g id="line2d_20">
      <g>
       <use xlink:href="#m57657e49f6" x="269.103571" y="85.96" style="stroke: #000000; stroke-width: 0.8"/>
      </g>
     </g>
     <g id="text_20">
      <!-- Hars -->
      <g transform="translate(270.759196 106.74125) rotate(-90) scale(0.06 -0.06)">
       <use xlink:href="#DejaVuSans-Oblique-48"/>
       <use xlink:href="#DejaVuSans-Oblique-61" x="75.195312"/>
       <use xlink:href="#DejaVuSans-Oblique-72" x="136.474609"/>
       <use xlink:href="#DejaVuSans-Oblique-73" x="177.587891"/>
      </g>
     </g>
    </g>
    <g id="xtick_21">
     <g id="line2d_21">
      <g>
       <use xlink:href="#m57657e49f6" x="281.22119" y="85.96" style="stroke: #000000; stroke-width: 0.8"/>
      </g>
     </g>
     <g id="text_21">
      <!-- Wars -->
      <g transform="translate(282.876815 107.831563) rotate(-90) scale(0.06 -0.06)">
       <defs>
        <path id="DejaVuSans-Oblique-57" d="M 616 4666 
L 1228 4666 
L 1453 697 
L 3213 4666 
L 3916 4666 
L 4147 697 
L 5888 4666 
L 6528 4666 
L 4453 0 
L 3659 0 
L 3444 3891 
L 1697 0 
L 903 0 
L 616 4666 
z
" transform="scale(0.015625)"/>
       </defs>
       <use xlink:href="#DejaVuSans-Oblique-57"/>
       <use xlink:href="#DejaVuSans-Oblique-61" x="93.376953"/>
       <use xlink:href="#DejaVuSans-Oblique-72" x="154.65625"/>
       <use xlink:href="#DejaVuSans-Oblique-73" x="195.769531"/>
      </g>
     </g>
    </g>
    <g id="text_22">
     <!-- Gene -->
     <g transform="translate(152.127344 130.5975) scale(0.06 -0.06)">
      <defs>
       <path id="DejaVuSans-47" d="M 3809 666 
L 3809 1919 
L 2778 1919 
L 2778 2438 
L 4434 2438 
L 4434 434 
Q 4069 175 3628 42 
Q 3188 -91 2688 -91 
Q 1594 -91 976 548 
Q 359 1188 359 2328 
Q 359 3472 976 4111 
Q 1594 4750 2688 4750 
Q 3144 4750 3555 4637 
Q 3966 4525 4313 4306 
L 4313 3634 
Q 3963 3931 3569 4081 
Q 3175 4231 2741 4231 
Q 1884 4231 1454 3753 
Q 1025 3275 1025 2328 
Q 1025 1384 1454 906 
Q 1884 428 2741 428 
Q 3075 428 3337 486 
Q 3600 544 3809 666 
z
" transform="scale(0.015625)"/>
       <path id="DejaVuSans-65" d="M 3597 1894 
L 3597 1613 
L 953 1613 
Q 991 1019 1311 708 
Q 1631 397 2203 397 
Q 2534 397 2845 478 
Q 3156 559 3463 722 
L 3463 178 
Q 3153 47 2828 -22 
Q 2503 -91 2169 -91 
Q 1331 -91 842 396 
Q 353 884 353 1716 
Q 353 2575 817 3079 
Q 1281 3584 2069 3584 
Q 2775 3584 3186 3129 
Q 3597 2675 3597 1894 
z
M 3022 2063 
Q 3016 2534 2758 2815 
Q 2500 3097 2075 3097 
Q 1594 3097 1305 2825 
Q 1016 2553 972 2059 
L 3022 2063 
z
" transform="scale(0.015625)"/>
       <path id="DejaVuSans-6e" d="M 3513 2113 
L 3513 0 
L 2938 0 
L 2938 2094 
Q 2938 2591 2744 2837 
Q 2550 3084 2163 3084 
Q 1697 3084 1428 2787 
Q 1159 2491 1159 1978 
L 1159 0 
L 581 0 
L 581 3500 
L 1159 3500 
L 1159 2956 
Q 1366 3272 1645 3428 
Q 1925 3584 2291 3584 
Q 2894 3584 3203 3211 
Q 3513 2838 3513 2113 
z
" transform="scale(0.015625)"/>
      </defs>
      <use xlink:href="#DejaVuSans-47"/>
      <use xlink:href="#DejaVuSans-65" x="77.490234"/>
      <use xlink:href="#DejaVuSans-6e" x="139.013672"/>
      <use xlink:href="#DejaVuSans-65" x="202.392578"/>
     </g>
    </g>
   </g>
   <g id="matplotlib.axis_2">
    <g id="ytick_1">
     <g id="line2d_22">
      <defs>
       <path id="m6ee4cc9dfb" d="M 0 0 
L -3.5 0 
" style="stroke: #000000; stroke-width: 0.8"/>
      </defs>
      <g>
       <use xlink:href="#m6ee4cc9dfb" x="32.81" y="85.96" style="stroke: #000000; stroke-width: 0.8"/>
      </g>
     </g>
     <g id="text_23">
      <!-- 0.00 -->
      <g transform="translate(12.450625 88.239531) scale(0.06 -0.06)">
       <defs>
        <path id="DejaVuSans-30" d="M 2034 4250 
Q 1547 4250 1301 3770 
Q 1056 3291 1056 2328 
Q 1056 1369 1301 889 
Q 1547 409 2034 409 
Q 2525 409 2770 889 
Q 3016 1369 3016 2328 
Q 3016 3291 2770 3770 
Q 2525 4250 2034 4250 
z
M 2034 4750 
Q 2819 4750 3233 4129 
Q 3647 3509 3647 2328 
Q 3647 1150 3233 529 
Q 2819 -91 2034 -91 
Q 1250 -91 836 529 
Q 422 1150 422 2328 
Q 422 3509 836 4129 
Q 1250 4750 2034 4750 
z
" transform="scale(0.015625)"/>
        <path id="DejaVuSans-2e" d="M 684 794 
L 1344 794 
L 1344 0 
L 684 0 
L 684 794 
z
" transform="scale(0.015625)"/>
       </defs>
       <use xlink:href="#DejaVuSans-30"/>
       <use xlink:href="#DejaVuSans-2e" x="63.623047"/>
       <use xlink:href="#DejaVuSans-30" x="95.410156"/>
       <use xlink:href="#DejaVuSans-30" x="159.033203"/>
      </g>
     </g>
    </g>
    <g id="ytick_2">
     <g id="line2d_23">
      <g>
       <use xlink:href="#m6ee4cc9dfb" x="32.81" y="69.284433" style="stroke: #000000; stroke-width: 0.8"/>
      </g>
     </g>
     <g id="text_24">
      <!-- 0.25 -->
      <g transform="translate(12.450625 71.563965) scale(0.06 -0.06)">
       <defs>
        <path id="DejaVuSans-32" d="M 1228 531 
L 3431 531 
L 3431 0 
L 469 0 
L 469 531 
Q 828 903 1448 1529 
Q 2069 2156 2228 2338 
Q 2531 2678 2651 2914 
Q 2772 3150 2772 3378 
Q 2772 3750 2511 3984 
Q 2250 4219 1831 4219 
Q 1534 4219 1204 4116 
Q 875 4013 500 3803 
L 500 4441 
Q 881 4594 1212 4672 
Q 1544 4750 1819 4750 
Q 2544 4750 2975 4387 
Q 3406 4025 3406 3419 
Q 3406 3131 3298 2873 
Q 3191 2616 2906 2266 
Q 2828 2175 2409 1742 
Q 1991 1309 1228 531 
z
" transform="scale(0.015625)"/>
        <path id="DejaVuSans-35" d="M 691 4666 
L 3169 4666 
L 3169 4134 
L 1269 4134 
L 1269 2991 
Q 1406 3038 1543 3061 
Q 1681 3084 1819 3084 
Q 2600 3084 3056 2656 
Q 3513 2228 3513 1497 
Q 3513 744 3044 326 
Q 2575 -91 1722 -91 
Q 1428 -91 1123 -41 
Q 819 9 494 109 
L 494 744 
Q 775 591 1075 516 
Q 1375 441 1709 441 
Q 2250 441 2565 725 
Q 2881 1009 2881 1497 
Q 2881 1984 2565 2268 
Q 2250 2553 1709 2553 
Q 1456 2553 1204 2497 
Q 953 2441 691 2322 
L 691 4666 
z
" transform="scale(0.015625)"/>
       </defs>
       <use xlink:href="#DejaVuSans-30"/>
       <use xlink:href="#DejaVuSans-2e" x="63.623047"/>
       <use xlink:href="#DejaVuSans-32" x="95.410156"/>
       <use xlink:href="#DejaVuSans-35" x="159.033203"/>
      </g>
     </g>
    </g>
    <g id="ytick_3">
     <g id="line2d_24">
      <g>
       <use xlink:href="#m6ee4cc9dfb" x="32.81" y="52.608867" style="stroke: #000000; stroke-width: 0.8"/>
      </g>
     </g>
     <g id="text_25">
      <!-- 0.50 -->
      <g transform="translate(12.450625 54.888398) scale(0.06 -0.06)">
       <use xlink:href="#DejaVuSans-30"/>
       <use xlink:href="#DejaVuSans-2e" x="63.623047"/>
       <use xlink:href="#DejaVuSans-35" x="95.410156"/>
       <use xlink:href="#DejaVuSans-30" x="159.033203"/>
      </g>
     </g>
    </g>
    <g id="ytick_4">
     <g id="line2d_25">
      <g>
       <use xlink:href="#m6ee4cc9dfb" x="32.81" y="35.9333" style="stroke: #000000; stroke-width: 0.8"/>
      </g>
     </g>
     <g id="text_26">
      <!-- 0.75 -->
      <g transform="translate(12.450625 38.212831) scale(0.06 -0.06)">
       <defs>
        <path id="DejaVuSans-37" d="M 525 4666 
L 3525 4666 
L 3525 4397 
L 1831 0 
L 1172 0 
L 2766 4134 
L 525 4134 
L 525 4666 
z
" transform="scale(0.015625)"/>
       </defs>
       <use xlink:href="#DejaVuSans-30"/>
       <use xlink:href="#DejaVuSans-2e" x="63.623047"/>
       <use xlink:href="#DejaVuSans-37" x="95.410156"/>
       <use xlink:href="#DejaVuSans-35" x="159.033203"/>
      </g>
     </g>
    </g>
    <g id="ytick_5">
     <g id="line2d_26">
      <g>
       <use xlink:href="#m6ee4cc9dfb" x="32.81" y="19.257733" style="stroke: #000000; stroke-width: 0.8"/>
      </g>
     </g>
     <g id="text_27">
      <!-- 1.00 -->
      <g transform="translate(12.450625 21.537265) scale(0.06 -0.06)">
       <defs>
        <path id="DejaVuSans-31" d="M 794 531 
L 1825 531 
L 1825 4091 
L 703 3866 
L 703 4441 
L 1819 4666 
L 2450 4666 
L 2450 531 
L 3481 531 
L 3481 0 
L 794 0 
L 794 531 
z
" transform="scale(0.015625)"/>
       </defs>
       <use xlink:href="#DejaVuSans-31"/>
       <use xlink:href="#DejaVuSans-2e" x="63.623047"/>
       <use xlink:href="#DejaVuSans-30" x="95.410156"/>
       <use xlink:href="#DejaVuSans-30" x="159.033203"/>
      </g>
     </g>
    </g>
    <g id="text_28">
     <!-- Proportion of Significant Tests -->
     <g transform="translate(7.202812 96.511719) rotate(-90) scale(0.06 -0.06)">
      <defs>
       <path id="DejaVuSans-50" d="M 1259 4147 
L 1259 2394 
L 2053 2394 
Q 2494 2394 2734 2622 
Q 2975 2850 2975 3272 
Q 2975 3691 2734 3919 
Q 2494 4147 2053 4147 
L 1259 4147 
z
M 628 4666 
L 2053 4666 
Q 2838 4666 3239 4311 
Q 3641 3956 3641 3272 
Q 3641 2581 3239 2228 
Q 2838 1875 2053 1875 
L 1259 1875 
L 1259 0 
L 628 0 
L 628 4666 
z
" transform="scale(0.015625)"/>
       <path id="DejaVuSans-72" d="M 2631 2963 
Q 2534 3019 2420 3045 
Q 2306 3072 2169 3072 
Q 1681 3072 1420 2755 
Q 1159 2438 1159 1844 
L 1159 0 
L 581 0 
L 581 3500 
L 1159 3500 
L 1159 2956 
Q 1341 3275 1631 3429 
Q 1922 3584 2338 3584 
Q 2397 3584 2469 3576 
Q 2541 3569 2628 3553 
L 2631 2963 
z
" transform="scale(0.015625)"/>
       <path id="DejaVuSans-6f" d="M 1959 3097 
Q 1497 3097 1228 2736 
Q 959 2375 959 1747 
Q 959 1119 1226 758 
Q 1494 397 1959 397 
Q 2419 397 2687 759 
Q 2956 1122 2956 1747 
Q 2956 2369 2687 2733 
Q 2419 3097 1959 3097 
z
M 1959 3584 
Q 2709 3584 3137 3096 
Q 3566 2609 3566 1747 
Q 3566 888 3137 398 
Q 2709 -91 1959 -91 
Q 1206 -91 779 398 
Q 353 888 353 1747 
Q 353 2609 779 3096 
Q 1206 3584 1959 3584 
z
" transform="scale(0.015625)"/>
       <path id="DejaVuSans-70" d="M 1159 525 
L 1159 -1331 
L 581 -1331 
L 581 3500 
L 1159 3500 
L 1159 2969 
Q 1341 3281 1617 3432 
Q 1894 3584 2278 3584 
Q 2916 3584 3314 3078 
Q 3713 2572 3713 1747 
Q 3713 922 3314 415 
Q 2916 -91 2278 -91 
Q 1894 -91 1617 61 
Q 1341 213 1159 525 
z
M 3116 1747 
Q 3116 2381 2855 2742 
Q 2594 3103 2138 3103 
Q 1681 3103 1420 2742 
Q 1159 2381 1159 1747 
Q 1159 1113 1420 752 
Q 1681 391 2138 391 
Q 2594 391 2855 752 
Q 3116 1113 3116 1747 
z
" transform="scale(0.015625)"/>
       <path id="DejaVuSans-74" d="M 1172 4494 
L 1172 3500 
L 2356 3500 
L 2356 3053 
L 1172 3053 
L 1172 1153 
Q 1172 725 1289 603 
Q 1406 481 1766 481 
L 2356 481 
L 2356 0 
L 1766 0 
Q 1100 0 847 248 
Q 594 497 594 1153 
L 594 3053 
L 172 3053 
L 172 3500 
L 594 3500 
L 594 4494 
L 1172 4494 
z
" transform="scale(0.015625)"/>
       <path id="DejaVuSans-69" d="M 603 3500 
L 1178 3500 
L 1178 0 
L 603 0 
L 603 3500 
z
M 603 4863 
L 1178 4863 
L 1178 4134 
L 603 4134 
L 603 4863 
z
" transform="scale(0.015625)"/>
       <path id="DejaVuSans-20" transform="scale(0.015625)"/>
       <path id="DejaVuSans-66" d="M 2375 4863 
L 2375 4384 
L 1825 4384 
Q 1516 4384 1395 4259 
Q 1275 4134 1275 3809 
L 1275 3500 
L 2222 3500 
L 2222 3053 
L 1275 3053 
L 1275 0 
L 697 0 
L 697 3053 
L 147 3053 
L 147 3500 
L 697 3500 
L 697 3744 
Q 697 4328 969 4595 
Q 1241 4863 1831 4863 
L 2375 4863 
z
" transform="scale(0.015625)"/>
       <path id="DejaVuSans-53" d="M 3425 4513 
L 3425 3897 
Q 3066 4069 2747 4153 
Q 2428 4238 2131 4238 
Q 1616 4238 1336 4038 
Q 1056 3838 1056 3469 
Q 1056 3159 1242 3001 
Q 1428 2844 1947 2747 
L 2328 2669 
Q 3034 2534 3370 2195 
Q 3706 1856 3706 1288 
Q 3706 609 3251 259 
Q 2797 -91 1919 -91 
Q 1588 -91 1214 -16 
Q 841 59 441 206 
L 441 856 
Q 825 641 1194 531 
Q 1563 422 1919 422 
Q 2459 422 2753 634 
Q 3047 847 3047 1241 
Q 3047 1584 2836 1778 
Q 2625 1972 2144 2069 
L 1759 2144 
Q 1053 2284 737 2584 
Q 422 2884 422 3419 
Q 422 4038 858 4394 
Q 1294 4750 2059 4750 
Q 2388 4750 2728 4690 
Q 3069 4631 3425 4513 
z
" transform="scale(0.015625)"/>
       <path id="DejaVuSans-67" d="M 2906 1791 
Q 2906 2416 2648 2759 
Q 2391 3103 1925 3103 
Q 1463 3103 1205 2759 
Q 947 2416 947 1791 
Q 947 1169 1205 825 
Q 1463 481 1925 481 
Q 2391 481 2648 825 
Q 2906 1169 2906 1791 
z
M 3481 434 
Q 3481 -459 3084 -895 
Q 2688 -1331 1869 -1331 
Q 1566 -1331 1297 -1286 
Q 1028 -1241 775 -1147 
L 775 -588 
Q 1028 -725 1275 -790 
Q 1522 -856 1778 -856 
Q 2344 -856 2625 -561 
Q 2906 -266 2906 331 
L 2906 616 
Q 2728 306 2450 153 
Q 2172 0 1784 0 
Q 1141 0 747 490 
Q 353 981 353 1791 
Q 353 2603 747 3093 
Q 1141 3584 1784 3584 
Q 2172 3584 2450 3431 
Q 2728 3278 2906 2969 
L 2906 3500 
L 3481 3500 
L 3481 434 
z
" transform="scale(0.015625)"/>
       <path id="DejaVuSans-63" d="M 3122 3366 
L 3122 2828 
Q 2878 2963 2633 3030 
Q 2388 3097 2138 3097 
Q 1578 3097 1268 2742 
Q 959 2388 959 1747 
Q 959 1106 1268 751 
Q 1578 397 2138 397 
Q 2388 397 2633 464 
Q 2878 531 3122 666 
L 3122 134 
Q 2881 22 2623 -34 
Q 2366 -91 2075 -91 
Q 1284 -91 818 406 
Q 353 903 353 1747 
Q 353 2603 823 3093 
Q 1294 3584 2113 3584 
Q 2378 3584 2631 3529 
Q 2884 3475 3122 3366 
z
" transform="scale(0.015625)"/>
       <path id="DejaVuSans-61" d="M 2194 1759 
Q 1497 1759 1228 1600 
Q 959 1441 959 1056 
Q 959 750 1161 570 
Q 1363 391 1709 391 
Q 2188 391 2477 730 
Q 2766 1069 2766 1631 
L 2766 1759 
L 2194 1759 
z
M 3341 1997 
L 3341 0 
L 2766 0 
L 2766 531 
Q 2569 213 2275 61 
Q 1981 -91 1556 -91 
Q 1019 -91 701 211 
Q 384 513 384 1019 
Q 384 1609 779 1909 
Q 1175 2209 1959 2209 
L 2766 2209 
L 2766 2266 
Q 2766 2663 2505 2880 
Q 2244 3097 1772 3097 
Q 1472 3097 1187 3025 
Q 903 2953 641 2809 
L 641 3341 
Q 956 3463 1253 3523 
Q 1550 3584 1831 3584 
Q 2591 3584 2966 3190 
Q 3341 2797 3341 1997 
z
" transform="scale(0.015625)"/>
       <path id="DejaVuSans-54" d="M -19 4666 
L 3928 4666 
L 3928 4134 
L 2272 4134 
L 2272 0 
L 1638 0 
L 1638 4134 
L -19 4134 
L -19 4666 
z
" transform="scale(0.015625)"/>
       <path id="DejaVuSans-73" d="M 2834 3397 
L 2834 2853 
Q 2591 2978 2328 3040 
Q 2066 3103 1784 3103 
Q 1356 3103 1142 2972 
Q 928 2841 928 2578 
Q 928 2378 1081 2264 
Q 1234 2150 1697 2047 
L 1894 2003 
Q 2506 1872 2764 1633 
Q 3022 1394 3022 966 
Q 3022 478 2636 193 
Q 2250 -91 1575 -91 
Q 1294 -91 989 -36 
Q 684 19 347 128 
L 347 722 
Q 666 556 975 473 
Q 1284 391 1588 391 
Q 1994 391 2212 530 
Q 2431 669 2431 922 
Q 2431 1156 2273 1281 
Q 2116 1406 1581 1522 
L 1381 1569 
Q 847 1681 609 1914 
Q 372 2147 372 2553 
Q 372 3047 722 3315 
Q 1072 3584 1716 3584 
Q 2034 3584 2315 3537 
Q 2597 3491 2834 3397 
z
" transform="scale(0.015625)"/>
      </defs>
      <use xlink:href="#DejaVuSans-50"/>
      <use xlink:href="#DejaVuSans-72" x="58.552734"/>
      <use xlink:href="#DejaVuSans-6f" x="97.416016"/>
      <use xlink:href="#DejaVuSans-70" x="158.597656"/>
      <use xlink:href="#DejaVuSans-6f" x="222.074219"/>
      <use xlink:href="#DejaVuSans-72" x="283.255859"/>
      <use xlink:href="#DejaVuSans-74" x="324.369141"/>
      <use xlink:href="#DejaVuSans-69" x="363.578125"/>
      <use xlink:href="#DejaVuSans-6f" x="391.361328"/>
      <use xlink:href="#DejaVuSans-6e" x="452.542969"/>
      <use xlink:href="#DejaVuSans-20" x="515.921875"/>
      <use xlink:href="#DejaVuSans-6f" x="547.708984"/>
      <use xlink:href="#DejaVuSans-66" x="608.890625"/>
      <use xlink:href="#DejaVuSans-20" x="644.095703"/>
      <use xlink:href="#DejaVuSans-53" x="675.882812"/>
      <use xlink:href="#DejaVuSans-69" x="739.359375"/>
      <use xlink:href="#DejaVuSans-67" x="767.142578"/>
      <use xlink:href="#DejaVuSans-6e" x="830.619141"/>
      <use xlink:href="#DejaVuSans-69" x="893.998047"/>
      <use xlink:href="#DejaVuSans-66" x="921.78125"/>
      <use xlink:href="#DejaVuSans-69" x="956.986328"/>
      <use xlink:href="#DejaVuSans-63" x="984.769531"/>
      <use xlink:href="#DejaVuSans-61" x="1039.75"/>
      <use xlink:href="#DejaVuSans-6e" x="1101.029297"/>
      <use xlink:href="#DejaVuSans-74" x="1164.408203"/>
      <use xlink:href="#DejaVuSans-20" x="1203.617188"/>
      <use xlink:href="#DejaVuSans-54" x="1235.404297"/>
      <use xlink:href="#DejaVuSans-65" x="1279.488281"/>
      <use xlink:href="#DejaVuSans-73" x="1341.011719"/>
      <use xlink:href="#DejaVuSans-74" x="1393.111328"/>
      <use xlink:href="#DejaVuSans-73" x="1432.320312"/>
     </g>
    </g>
   </g>
   <g id="line2d_27">
    <path clip-path="url(#p39e7c3d4e6)" style="fill: none; stroke: #424242; stroke-width: 2.25; stroke-linecap: square"/>
   </g>
   <g id="line2d_28">
    <path clip-path="url(#p39e7c3d4e6)" style="fill: none; stroke: #424242; stroke-width: 2.25; stroke-linecap: square"/>
   </g>
   <g id="line2d_29">
    <path clip-path="url(#p39e7c3d4e6)" style="fill: none; stroke: #424242; stroke-width: 2.25; stroke-linecap: square"/>
   </g>
   <g id="line2d_30">
    <path clip-path="url(#p39e7c3d4e6)" style="fill: none; stroke: #424242; stroke-width: 2.25; stroke-linecap: square"/>
   </g>
   <g id="line2d_31">
    <path clip-path="url(#p39e7c3d4e6)" style="fill: none; stroke: #424242; stroke-width: 2.25; stroke-linecap: square"/>
   </g>
   <g id="line2d_32">
    <path clip-path="url(#p39e7c3d4e6)" style="fill: none; stroke: #424242; stroke-width: 2.25; stroke-linecap: square"/>
   </g>
   <g id="line2d_33">
    <path clip-path="url(#p39e7c3d4e6)" style="fill: none; stroke: #424242; stroke-width: 2.25; stroke-linecap: square"/>
   </g>
   <g id="line2d_34">
    <path clip-path="url(#p39e7c3d4e6)" style="fill: none; stroke: #424242; stroke-width: 2.25; stroke-linecap: square"/>
   </g>
   <g id="line2d_35">
    <path clip-path="url(#p39e7c3d4e6)" style="fill: none; stroke: #424242; stroke-width: 2.25; stroke-linecap: square"/>
   </g>
   <g id="line2d_36">
    <path clip-path="url(#p39e7c3d4e6)" style="fill: none; stroke: #424242; stroke-width: 2.25; stroke-linecap: square"/>
   </g>
   <g id="line2d_37">
    <path clip-path="url(#p39e7c3d4e6)" style="fill: none; stroke: #424242; stroke-width: 2.25; stroke-linecap: square"/>
   </g>
   <g id="line2d_38">
    <path clip-path="url(#p39e7c3d4e6)" style="fill: none; stroke: #424242; stroke-width: 2.25; stroke-linecap: square"/>
   </g>
   <g id="line2d_39">
    <path clip-path="url(#p39e7c3d4e6)" style="fill: none; stroke: #424242; stroke-width: 2.25; stroke-linecap: square"/>
   </g>
   <g id="line2d_40">
    <path clip-path="url(#p39e7c3d4e6)" style="fill: none; stroke: #424242; stroke-width: 2.25; stroke-linecap: square"/>
   </g>
   <g id="line2d_41">
    <path clip-path="url(#p39e7c3d4e6)" style="fill: none; stroke: #424242; stroke-width: 2.25; stroke-linecap: square"/>
   </g>
   <g id="line2d_42">
    <path clip-path="url(#p39e7c3d4e6)" style="fill: none; stroke: #424242; stroke-width: 2.25; stroke-linecap: square"/>
   </g>
   <g id="line2d_43">
    <path clip-path="url(#p39e7c3d4e6)" style="fill: none; stroke: #424242; stroke-width: 2.25; stroke-linecap: square"/>
   </g>
   <g id="line2d_44">
    <path clip-path="url(#p39e7c3d4e6)" style="fill: none; stroke: #424242; stroke-width: 2.25; stroke-linecap: square"/>
   </g>
   <g id="line2d_45">
    <path clip-path="url(#p39e7c3d4e6)" style="fill: none; stroke: #424242; stroke-width: 2.25; stroke-linecap: square"/>
   </g>
   <g id="line2d_46">
    <path clip-path="url(#p39e7c3d4e6)" style="fill: none; stroke: #424242; stroke-width: 2.25; stroke-linecap: square"/>
   </g>
   <g id="line2d_47">
    <path clip-path="url(#p39e7c3d4e6)" style="fill: none; stroke: #424242; stroke-width: 2.25; stroke-linecap: square"/>
   </g>
   <g id="patch_24">
    <path d="M 32.81 85.96 
L 32.81 18 
" style="fill: none; stroke: #000000; stroke-width: 0.8; stroke-linejoin: miter; stroke-linecap: square"/>
   </g>
   <g id="patch_25">
    <path d="M 287.28 85.96 
L 287.28 18 
" style="fill: none; stroke: #000000; stroke-width: 0.8; stroke-linejoin: miter; stroke-linecap: square"/>
   </g>
   <g id="patch_26">
    <path d="M 32.81 85.96 
L 287.28 85.96 
" style="fill: none; stroke: #000000; stroke-width: 0.8; stroke-linejoin: miter; stroke-linecap: square"/>
   </g>
   <g id="patch_27">
    <path d="M 32.81 18 
L 287.28 18 
" style="fill: none; stroke: #000000; stroke-width: 0.8; stroke-linejoin: miter; stroke-linecap: square"/>
   </g>
   <g id="text_29">
    <!-- Distribution of gene significance across bootstraps (n=472) -->
    <g transform="translate(52.58725 12) scale(0.072 -0.072)">
     <defs>
      <path id="DejaVuSans-44" d="M 1259 4147 
L 1259 519 
L 2022 519 
Q 2988 519 3436 956 
Q 3884 1394 3884 2338 
Q 3884 3275 3436 3711 
Q 2988 4147 2022 4147 
L 1259 4147 
z
M 628 4666 
L 1925 4666 
Q 3281 4666 3915 4102 
Q 4550 3538 4550 2338 
Q 4550 1131 3912 565 
Q 3275 0 1925 0 
L 628 0 
L 628 4666 
z
" transform="scale(0.015625)"/>
      <path id="DejaVuSans-62" d="M 3116 1747 
Q 3116 2381 2855 2742 
Q 2594 3103 2138 3103 
Q 1681 3103 1420 2742 
Q 1159 2381 1159 1747 
Q 1159 1113 1420 752 
Q 1681 391 2138 391 
Q 2594 391 2855 752 
Q 3116 1113 3116 1747 
z
M 1159 2969 
Q 1341 3281 1617 3432 
Q 1894 3584 2278 3584 
Q 2916 3584 3314 3078 
Q 3713 2572 3713 1747 
Q 3713 922 3314 415 
Q 2916 -91 2278 -91 
Q 1894 -91 1617 61 
Q 1341 213 1159 525 
L 1159 0 
L 581 0 
L 581 4863 
L 1159 4863 
L 1159 2969 
z
" transform="scale(0.015625)"/>
      <path id="DejaVuSans-75" d="M 544 1381 
L 544 3500 
L 1119 3500 
L 1119 1403 
Q 1119 906 1312 657 
Q 1506 409 1894 409 
Q 2359 409 2629 706 
Q 2900 1003 2900 1516 
L 2900 3500 
L 3475 3500 
L 3475 0 
L 2900 0 
L 2900 538 
Q 2691 219 2414 64 
Q 2138 -91 1772 -91 
Q 1169 -91 856 284 
Q 544 659 544 1381 
z
M 1991 3584 
L 1991 3584 
z
" transform="scale(0.015625)"/>
      <path id="DejaVuSans-28" d="M 1984 4856 
Q 1566 4138 1362 3434 
Q 1159 2731 1159 2009 
Q 1159 1288 1364 580 
Q 1569 -128 1984 -844 
L 1484 -844 
Q 1016 -109 783 600 
Q 550 1309 550 2009 
Q 550 2706 781 3412 
Q 1013 4119 1484 4856 
L 1984 4856 
z
" transform="scale(0.015625)"/>
      <path id="DejaVuSans-3d" d="M 678 2906 
L 4684 2906 
L 4684 2381 
L 678 2381 
L 678 2906 
z
M 678 1631 
L 4684 1631 
L 4684 1100 
L 678 1100 
L 678 1631 
z
" transform="scale(0.015625)"/>
      <path id="DejaVuSans-34" d="M 2419 4116 
L 825 1625 
L 2419 1625 
L 2419 4116 
z
M 2253 4666 
L 3047 4666 
L 3047 1625 
L 3713 1625 
L 3713 1100 
L 3047 1100 
L 3047 0 
L 2419 0 
L 2419 1100 
L 313 1100 
L 313 1709 
L 2253 4666 
z
" transform="scale(0.015625)"/>
      <path id="DejaVuSans-29" d="M 513 4856 
L 1013 4856 
Q 1481 4119 1714 3412 
Q 1947 2706 1947 2009 
Q 1947 1309 1714 600 
Q 1481 -109 1013 -844 
L 513 -844 
Q 928 -128 1133 580 
Q 1338 1288 1338 2009 
Q 1338 2731 1133 3434 
Q 928 4138 513 4856 
z
" transform="scale(0.015625)"/>
     </defs>
     <use xlink:href="#DejaVuSans-44"/>
     <use xlink:href="#DejaVuSans-69" x="77.001953"/>
     <use xlink:href="#DejaVuSans-73" x="104.785156"/>
     <use xlink:href="#DejaVuSans-74" x="156.884766"/>
     <use xlink:href="#DejaVuSans-72" x="196.09375"/>
     <use xlink:href="#DejaVuSans-69" x="237.207031"/>
     <use xlink:href="#DejaVuSans-62" x="264.990234"/>
     <use xlink:href="#DejaVuSans-75" x="328.466797"/>
     <use xlink:href="#DejaVuSans-74" x="391.845703"/>
     <use xlink:href="#DejaVuSans-69" x="431.054688"/>
     <use xlink:href="#DejaVuSans-6f" x="458.837891"/>
     <use xlink:href="#DejaVuSans-6e" x="520.019531"/>
     <use xlink:href="#DejaVuSans-20" x="583.398438"/>
     <use xlink:href="#DejaVuSans-6f" x="615.185547"/>
     <use xlink:href="#DejaVuSans-66" x="676.367188"/>
     <use xlink:href="#DejaVuSans-20" x="711.572266"/>
     <use xlink:href="#DejaVuSans-67" x="743.359375"/>
     <use xlink:href="#DejaVuSans-65" x="806.835938"/>
     <use xlink:href="#DejaVuSans-6e" x="868.359375"/>
     <use xlink:href="#DejaVuSans-65" x="931.738281"/>
     <use xlink:href="#DejaVuSans-20" x="993.261719"/>
     <use xlink:href="#DejaVuSans-73" x="1025.048828"/>
     <use xlink:href="#DejaVuSans-69" x="1077.148438"/>
     <use xlink:href="#DejaVuSans-67" x="1104.931641"/>
     <use xlink:href="#DejaVuSans-6e" x="1168.408203"/>
     <use xlink:href="#DejaVuSans-69" x="1231.787109"/>
     <use xlink:href="#DejaVuSans-66" x="1259.570312"/>
     <use xlink:href="#DejaVuSans-69" x="1294.775391"/>
     <use xlink:href="#DejaVuSans-63" x="1322.558594"/>
     <use xlink:href="#DejaVuSans-61" x="1377.539062"/>
     <use xlink:href="#DejaVuSans-6e" x="1438.818359"/>
     <use xlink:href="#DejaVuSans-63" x="1502.197266"/>
     <use xlink:href="#DejaVuSans-65" x="1557.177734"/>
     <use xlink:href="#DejaVuSans-20" x="1618.701172"/>
     <use xlink:href="#DejaVuSans-61" x="1650.488281"/>
     <use xlink:href="#DejaVuSans-63" x="1711.767578"/>
     <use xlink:href="#DejaVuSans-72" x="1766.748047"/>
     <use xlink:href="#DejaVuSans-6f" x="1805.611328"/>
     <use xlink:href="#DejaVuSans-73" x="1866.792969"/>
     <use xlink:href="#DejaVuSans-73" x="1918.892578"/>
     <use xlink:href="#DejaVuSans-20" x="1970.992188"/>
     <use xlink:href="#DejaVuSans-62" x="2002.779297"/>
     <use xlink:href="#DejaVuSans-6f" x="2066.255859"/>
     <use xlink:href="#DejaVuSans-6f" x="2127.4375"/>
     <use xlink:href="#DejaVuSans-74" x="2188.619141"/>
     <use xlink:href="#DejaVuSans-73" x="2227.828125"/>
     <use xlink:href="#DejaVuSans-74" x="2279.927734"/>
     <use xlink:href="#DejaVuSans-72" x="2319.136719"/>
     <use xlink:href="#DejaVuSans-61" x="2360.25"/>
     <use xlink:href="#DejaVuSans-70" x="2421.529297"/>
     <use xlink:href="#DejaVuSans-73" x="2485.005859"/>
     <use xlink:href="#DejaVuSans-20" x="2537.105469"/>
     <use xlink:href="#DejaVuSans-28" x="2568.892578"/>
     <use xlink:href="#DejaVuSans-6e" x="2607.90625"/>
     <use xlink:href="#DejaVuSans-3d" x="2671.285156"/>
     <use xlink:href="#DejaVuSans-34" x="2755.074219"/>
     <use xlink:href="#DejaVuSans-37" x="2818.697266"/>
     <use xlink:href="#DejaVuSans-32" x="2882.320312"/>
     <use xlink:href="#DejaVuSans-29" x="2945.943359"/>
    </g>
   </g>
  </g>
 </g>
 <defs>
  <clipPath id="p39e7c3d4e6">
   <rect x="32.81" y="18" width="254.47" height="67.96"/>
  </clipPath>
 </defs>
</svg>
