<?xml version="1.0" encoding="utf-8" standalone="no"?>
<!DOCTYPE svg PUBLIC "-//W3C//DTD SVG 1.1//EN"
  "http://www.w3.org/Graphics/SVG/1.1/DTD/svg11.dtd">
<svg xmlns:xlink="http://www.w3.org/1999/xlink" width="440.64pt" height="207.36pt" viewBox="0 0 440.64 207.36" xmlns="http://www.w3.org/2000/svg" version="1.1">
 <metadata>
  <rdf:RDF xmlns:dc="http://purl.org/dc/elements/1.1/" xmlns:cc="http://creativecommons.org/ns#" xmlns:rdf="http://www.w3.org/1999/02/22-rdf-syntax-ns#">
   <cc:Work>
    <dc:type rdf:resource="http://purl.org/dc/dcmitype/StillImage"/>
    <dc:date>2024-10-07T16:44:15.142799</dc:date>
    <dc:format>image/svg+xml</dc:format>
    <dc:creator>
     <cc:Agent>
      <dc:title>Matplotlib v3.9.1, https://matplotlib.org/</dc:title>
     </cc:Agent>
    </dc:creator>
   </cc:Work>
  </rdf:RDF>
 </metadata>
 <defs>
  <style type="text/css">*{stroke-linejoin: round; stroke-linecap: butt}</style>
 </defs>
 <g id="figure_1">
  <g id="patch_1">
   <path d="M 0 207.36 
L 440.64 207.36 
L 440.64 0 
L 0 0 
z
" style="fill: #ffffff"/>
  </g>
  <g id="axes_1">
   <g id="patch_2">
    <path d="M 32.81 178.36 
L 434.16 178.36 
L 434.16 18 
L 32.81 18 
z
" style="fill: #ffffff"/>
   </g>
   <g id="PolyCollection_1">
    <path d="M 103.857862 112.63368 
L 95.545471 112.63368 
L 94.235946 111.683644 
L 92.62679 110.733607 
L 90.687166 109.783571 
L 88.394685 108.833534 
L 85.73914 107.883498 
L 82.726167 106.933461 
L 79.380447 105.983425 
L 75.748043 105.033388 
L 71.897473 104.083352 
L 67.919179 103.133315 
L 63.923175 102.183279 
L 60.034821 101.233242 
L 56.388848 100.283206 
L 53.121992 99.333169 
L 50.364735 98.383133 
L 48.232843 97.433097 
L 46.819436 96.48306 
L 46.188333 95.533024 
L 46.369319 94.582987 
L 47.355827 93.632951 
L 49.105275 92.682914 
L 51.542049 91.732878 
L 54.562851 90.782841 
L 58.043881 89.832805 
L 61.849186 88.882768 
L 65.83938 87.932732 
L 69.879972 86.982695 
L 73.848614 86.032659 
L 77.640749 85.082623 
L 81.173348 84.132586 
L 84.386649 83.18255 
L 87.244001 82.232513 
L 89.730119 81.282477 
L 91.848139 80.33244 
L 93.61592 79.382404 
L 95.06206 78.432367 
L 96.221988 77.482331 
L 97.134457 76.532294 
L 97.838625 75.582258 
L 98.371828 74.632221 
L 98.768052 73.682185 
L 99.057038 72.732148 
L 99.263936 71.782112 
L 99.409349 70.832076 
L 99.50968 69.882039 
L 99.57763 68.932003 
L 99.62278 67.981966 
L 99.652166 67.03193 
L 99.670816 66.081893 
L 99.682205 65.131857 
L 99.68862 64.18182 
L 99.691436 63.231784 
L 99.691302 62.281747 
L 99.688233 61.331711 
L 99.681631 60.381674 
L 99.670225 59.431638 
L 99.651939 58.481602 
L 99.623689 57.531565 
L 99.581134 56.581529 
L 99.518365 55.631492 
L 99.427596 54.681456 
L 99.298854 53.731419 
L 99.119758 52.781383 
L 98.875427 51.831346 
L 98.548602 50.88131 
L 98.120067 49.931273 
L 97.569435 48.981237 
L 96.876351 48.0312 
L 96.02212 47.081164 
L 94.991715 46.131127 
L 93.776055 45.181091 
L 92.374354 44.231055 
L 90.796319 43.281018 
L 89.063868 42.330982 
L 87.212101 41.380945 
L 85.289222 40.430909 
L 83.355248 39.480872 
L 81.479404 38.530836 
L 79.736327 37.580799 
L 78.201304 36.630763 
L 76.944951 35.680726 
L 76.027861 34.73069 
L 75.495764 33.780653 
L 75.375752 32.830617 
L 75.673991 31.880581 
L 76.375194 30.930544 
L 77.443927 29.980508 
L 78.827566 29.030471 
L 80.460599 28.080435 
L 82.269745 27.130398 
L 84.179366 26.180362 
L 86.116606 25.230325 
L 88.015777 24.280289 
L 89.821672 23.330252 
L 91.491607 22.380216 
L 92.996175 21.430179 
L 94.318849 20.480143 
L 95.454656 19.530106 
L 96.408211 18.58007 
L 102.995122 18.58007 
L 102.995122 18.58007 
L 103.948677 19.530106 
L 105.084484 20.480143 
L 106.407158 21.430179 
L 107.911726 22.380216 
L 109.581661 23.330252 
L 111.387557 24.280289 
L 113.286728 25.230325 
L 115.223967 26.180362 
L 117.133589 27.130398 
L 118.942735 28.080435 
L 120.575767 29.030471 
L 121.959407 29.980508 
L 123.028139 30.930544 
L 123.729343 31.880581 
L 124.027581 32.830617 
L 123.907569 33.780653 
L 123.375472 34.73069 
L 122.458383 35.680726 
L 121.20203 36.630763 
L 119.667006 37.580799 
L 117.92393 38.530836 
L 116.048086 39.480872 
L 114.114111 40.430909 
L 112.191233 41.380945 
L 110.339465 42.330982 
L 108.607014 43.281018 
L 107.028979 44.231055 
L 105.627279 45.181091 
L 104.411618 46.131127 
L 103.381214 47.081164 
L 102.526983 48.0312 
L 101.833898 48.981237 
L 101.283266 49.931273 
L 100.854731 50.88131 
L 100.527906 51.831346 
L 100.283575 52.781383 
L 100.10448 53.731419 
L 99.975738 54.681456 
L 99.884968 55.631492 
L 99.8222 56.581529 
L 99.779644 57.531565 
L 99.751395 58.481602 
L 99.733108 59.431638 
L 99.721702 60.381674 
L 99.715101 61.331711 
L 99.712032 62.281747 
L 99.711897 63.231784 
L 99.714714 64.18182 
L 99.721128 65.131857 
L 99.732517 66.081893 
L 99.751168 67.03193 
L 99.780554 67.981966 
L 99.825703 68.932003 
L 99.893653 69.882039 
L 99.993984 70.832076 
L 100.139398 71.782112 
L 100.346295 72.732148 
L 100.635282 73.682185 
L 101.031505 74.632221 
L 101.564708 75.582258 
L 102.268876 76.532294 
L 103.181346 77.482331 
L 104.341274 78.432367 
L 105.787414 79.382404 
L 107.555195 80.33244 
L 109.673214 81.282477 
L 112.159332 82.232513 
L 115.016684 83.18255 
L 118.229985 84.132586 
L 121.762585 85.082623 
L 125.554719 86.032659 
L 129.523361 86.982695 
L 133.563953 87.932732 
L 137.554148 88.882768 
L 141.359453 89.832805 
L 144.840482 90.782841 
L 147.861284 91.732878 
L 150.298059 92.682914 
L 152.047506 93.632951 
L 153.034014 94.582987 
L 153.215 95.533024 
L 152.583897 96.48306 
L 151.170491 97.433097 
L 149.038599 98.383133 
L 146.281341 99.333169 
L 143.014485 100.283206 
L 139.368513 101.233242 
L 135.480158 102.183279 
L 131.484154 103.133315 
L 127.50586 104.083352 
L 123.65529 105.033388 
L 120.022886 105.983425 
L 116.677166 106.933461 
L 113.664193 107.883498 
L 111.008648 108.833534 
L 108.716167 109.783571 
L 106.776544 110.733607 
L 105.167388 111.683644 
L 103.857862 112.63368 
L 103.857862 112.63368 
z
" clip-path="url(#p2f8c089514)" style="fill: none; stroke: #fa8072; stroke-opacity: 0.8; stroke-width: 2"/>
   </g>
   <g id="PolyCollection_2">
    <path d="M 235.825019 99.006997 
L 231.144981 99.006997 
L 230.293471 98.129773 
L 229.244456 97.252548 
L 227.996068 96.375323 
L 226.563542 95.498099 
L 224.982419 94.620874 
L 223.309696 93.743649 
L 221.622193 92.866425 
L 220.011793 91.9892 
L 218.577737 91.111975 
L 217.41676 90.23475 
L 216.612396 89.357526 
L 216.225056 88.480301 
L 216.284539 87.603076 
L 216.786239 86.725852 
L 217.691739 85.848627 
L 218.933664 84.971402 
L 220.423973 84.094178 
L 222.064234 83.216953 
L 223.75626 82.339728 
L 225.411509 81.462503 
L 226.95806 80.585279 
L 228.344548 79.708054 
L 229.541005 78.830829 
L 230.537085 77.953605 
L 231.33847 77.07638 
L 231.962342 76.199155 
L 232.432768 75.321931 
L 232.776622 74.444706 
L 233.020416 73.567481 
L 233.188163 72.690257 
L 233.300221 71.813032 
L 233.372905 70.935807 
L 233.418666 70.058582 
L 233.446563 69.181358 
L 233.462883 68.304133 
L 233.471729 67.426908 
L 233.475507 66.549684 
L 233.475243 65.672459 
L 233.470705 64.795234 
L 233.460292 63.91801 
L 233.440666 63.040785 
L 233.406115 62.16356 
L 233.34761 61.286336 
L 233.251604 60.409111 
L 233.098618 59.531886 
L 232.86181 58.654661 
L 232.505786 57.777437 
L 231.986069 56.900212 
L 231.249723 56.022987 
L 230.237668 55.145763 
L 228.889115 54.268538 
L 227.148337 53.391313 
L 224.973538 52.514089 
L 222.347061 51.636864 
L 219.28559 50.759639 
L 215.84849 49.882414 
L 212.142221 49.00519 
L 208.318953 48.127965 
L 204.568116 47.25074 
L 201.100763 46.373516 
L 198.127943 45.496291 
L 195.835618 44.619066 
L 194.359693 43.741842 
L 193.765125 42.864617 
L 194.032747 41.987392 
L 195.056364 41.110168 
L 196.651119 40.232943 
L 198.572301 39.355718 
L 200.542174 38.478493 
L 202.281228 37.601269 
L 203.539706 36.724044 
L 204.125449 35.846819 
L 203.924733 34.969595 
L 202.913877 34.09237 
L 201.160621 33.215145 
L 198.815521 32.337921 
L 196.094718 31.460696 
L 193.256353 30.583471 
L 190.573503 29.706247 
L 188.306797 28.829022 
L 186.679766 27.951797 
L 185.859521 27.074572 
L 185.944528 26.197348 
L 186.960289 25.320123 
L 188.862672 24.442898 
L 191.54772 23.565674 
L 194.866145 22.688449 
L 198.640335 21.811224 
L 202.681775 20.934 
L 206.807038 20.056775 
L 210.850963 19.17955 
L 214.676201 18.302325 
L 218.178813 17.425101 
L 221.290069 16.547876 
L 223.974952 15.670651 
L 226.228114 14.793427 
L 228.068139 13.916202 
L 229.531001 13.038977 
L 230.663515 12.161753 
L 236.306485 12.161753 
L 236.306485 12.161753 
L 237.438999 13.038977 
L 238.901861 13.916202 
L 240.741886 14.793427 
L 242.995048 15.670651 
L 245.679931 16.547876 
L 248.791187 17.425101 
L 252.293799 18.302325 
L 256.119037 19.17955 
L 260.162962 20.056775 
L 264.288225 20.934 
L 268.329665 21.811224 
L 272.103855 22.688449 
L 275.42228 23.565674 
L 278.107328 24.442898 
L 280.009711 25.320123 
L 281.025472 26.197348 
L 281.110479 27.074572 
L 280.290234 27.951797 
L 278.663203 28.829022 
L 276.396497 29.706247 
L 273.713647 30.583471 
L 270.875282 31.460696 
L 268.154479 32.337921 
L 265.809379 33.215145 
L 264.056123 34.09237 
L 263.045267 34.969595 
L 262.844551 35.846819 
L 263.430294 36.724044 
L 264.688772 37.601269 
L 266.427826 38.478493 
L 268.397699 39.355718 
L 270.318881 40.232943 
L 271.913636 41.110168 
L 272.937253 41.987392 
L 273.204875 42.864617 
L 272.610307 43.741842 
L 271.134382 44.619066 
L 268.842057 45.496291 
L 265.869237 46.373516 
L 262.401884 47.25074 
L 258.651047 48.127965 
L 254.827779 49.00519 
L 251.12151 49.882414 
L 247.68441 50.759639 
L 244.622939 51.636864 
L 241.996462 52.514089 
L 239.821663 53.391313 
L 238.080885 54.268538 
L 236.732332 55.145763 
L 235.720277 56.022987 
L 234.983931 56.900212 
L 234.464214 57.777437 
L 234.10819 58.654661 
L 233.871382 59.531886 
L 233.718396 60.409111 
L 233.62239 61.286336 
L 233.563885 62.16356 
L 233.529334 63.040785 
L 233.509708 63.91801 
L 233.499295 64.795234 
L 233.494757 65.672459 
L 233.494493 66.549684 
L 233.498271 67.426908 
L 233.507117 68.304133 
L 233.523437 69.181358 
L 233.551334 70.058582 
L 233.597095 70.935807 
L 233.669779 71.813032 
L 233.781837 72.690257 
L 233.949584 73.567481 
L 234.193378 74.444706 
L 234.537232 75.321931 
L 235.007658 76.199155 
L 235.63153 77.07638 
L 236.432915 77.953605 
L 237.428995 78.830829 
L 238.625452 79.708054 
L 240.01194 80.585279 
L 241.558491 81.462503 
L 243.21374 82.339728 
L 244.905766 83.216953 
L 246.546027 84.094178 
L 248.036336 84.971402 
L 249.278261 85.848627 
L 250.183761 86.725852 
L 250.685461 87.603076 
L 250.744944 88.480301 
L 250.357604 89.357526 
L 249.55324 90.23475 
L 248.392263 91.111975 
L 246.958207 91.9892 
L 245.347807 92.866425 
L 243.660304 93.743649 
L 241.987581 94.620874 
L 240.406458 95.498099 
L 238.973932 96.375323 
L 237.725544 97.252548 
L 236.676529 98.129773 
L 235.825019 99.006997 
L 235.825019 99.006997 
z
" clip-path="url(#p2f8c089514)" style="fill: none; stroke: #fa8072; stroke-opacity: 0.8; stroke-width: 2"/>
   </g>
   <g id="PolyCollection_3">
    <path d="M 371.513347 116.122009 
L 363.023319 116.122009 
L 361.80219 114.949645 
L 360.348973 113.777281 
L 358.657724 112.604917 
L 356.734538 111.432554 
L 354.600018 110.26019 
L 352.290952 109.087826 
L 349.860852 107.915462 
L 347.379056 106.743098 
L 344.928235 105.570735 
L 342.600319 104.398371 
L 340.491062 103.226007 
L 338.693647 102.053643 
L 337.291921 100.881279 
L 336.353932 99.708916 
L 335.926452 98.536552 
L 336.031118 97.364188 
L 336.662616 96.191824 
L 337.789123 95.01946 
L 339.354971 93.847096 
L 341.285202 92.674733 
L 343.491509 91.502369 
L 345.878903 90.330005 
L 348.352407 89.157641 
L 350.823138 87.985277 
L 353.213248 86.812914 
L 355.459392 85.64055 
L 357.514586 84.468186 
L 359.348517 83.295822 
L 360.946516 82.123458 
L 362.307527 80.951094 
L 363.441436 79.778731 
L 364.366133 78.606367 
L 365.104623 77.434003 
L 365.682437 76.261639 
L 366.12549 75.089275 
L 366.458454 73.916912 
L 366.703665 72.744548 
L 366.880478 71.572184 
L 367.005015 70.39982 
L 367.090167 69.227456 
L 367.145788 68.055092 
L 367.178956 66.882729 
L 367.194247 65.710365 
L 367.193968 64.538001 
L 367.178301 63.365637 
L 367.145371 62.193273 
L 367.091208 61.02091 
L 367.009661 59.848546 
L 366.892271 58.676182 
L 366.728171 57.503818 
L 366.50408 56.331454 
L 366.204449 55.15909 
L 365.811857 53.986727 
L 365.30769 52.814363 
L 364.673181 51.641999 
L 363.890792 50.469635 
L 362.945902 49.297271 
L 361.828717 48.124908 
L 360.536218 46.952544 
L 359.073954 45.78018 
L 357.45743 44.607816 
L 355.712836 43.435452 
L 353.876917 42.263088 
L 351.995826 41.090725 
L 350.122958 39.918361 
L 348.315844 38.745997 
L 346.632374 37.573633 
L 345.126704 36.401269 
L 343.845295 35.228906 
L 342.823546 34.056542 
L 342.08345 32.884178 
L 341.632554 31.711814 
L 341.464352 30.53945 
L 341.560063 29.367086 
L 341.891512 28.194723 
L 342.424719 27.022359 
L 343.123691 25.849995 
L 343.953912 24.677631 
L 344.885099 23.505267 
L 345.892917 22.332904 
L 346.959537 21.16054 
L 348.073109 19.988176 
L 349.226359 18.815812 
L 350.414669 17.643448 
L 351.634014 16.471084 
L 352.879131 15.298721 
L 354.142188 14.126357 
L 355.412154 12.953993 
L 356.674871 11.781629 
L 357.91378 10.609265 
L 359.1111 9.436902 
L 360.249247 8.264538 
L 361.312253 7.092174 
L 362.286992 5.91981 
L 363.164045 4.747446 
L 363.938154 3.575083 
L 364.608244 2.402719 
L 365.177072 1.230355 
L 365.650589 0.057991 
L 368.886077 0.057991 
L 368.886077 0.057991 
L 369.359595 1.230355 
L 369.928422 2.402719 
L 370.598513 3.575083 
L 371.372622 4.747446 
L 372.249675 5.91981 
L 373.224413 7.092174 
L 374.28742 8.264538 
L 375.425566 9.436902 
L 376.622887 10.609265 
L 377.861796 11.781629 
L 379.124513 12.953993 
L 380.394478 14.126357 
L 381.657536 15.298721 
L 382.902652 16.471084 
L 384.121998 17.643448 
L 385.310308 18.815812 
L 386.463557 19.988176 
L 387.577129 21.16054 
L 388.64375 22.332904 
L 389.651567 23.505267 
L 390.582754 24.677631 
L 391.412976 25.849995 
L 392.111947 27.022359 
L 392.645155 28.194723 
L 392.976604 29.367086 
L 393.072315 30.53945 
L 392.904113 31.711814 
L 392.453216 32.884178 
L 391.713121 34.056542 
L 390.691372 35.228906 
L 389.409962 36.401269 
L 387.904292 37.573633 
L 386.220823 38.745997 
L 384.413709 39.918361 
L 382.540841 41.090725 
L 380.65975 42.263088 
L 378.82383 43.435452 
L 377.079237 44.607816 
L 375.462712 45.78018 
L 374.000448 46.952544 
L 372.707949 48.124908 
L 371.590764 49.297271 
L 370.645875 50.469635 
L 369.863486 51.641999 
L 369.228977 52.814363 
L 368.72481 53.986727 
L 368.332217 55.15909 
L 368.032587 56.331454 
L 367.808495 57.503818 
L 367.644395 58.676182 
L 367.527005 59.848546 
L 367.445459 61.02091 
L 367.391296 62.193273 
L 367.358365 63.365637 
L 367.342699 64.538001 
L 367.342419 65.710365 
L 367.357711 66.882729 
L 367.390879 68.055092 
L 367.4465 69.227456 
L 367.531652 70.39982 
L 367.656188 71.572184 
L 367.833002 72.744548 
L 368.078213 73.916912 
L 368.411177 75.089275 
L 368.854229 76.261639 
L 369.432044 77.434003 
L 370.170534 78.606367 
L 371.09523 79.778731 
L 372.229139 80.951094 
L 373.590151 82.123458 
L 375.18815 83.295822 
L 377.02208 84.468186 
L 379.077275 85.64055 
L 381.323419 86.812914 
L 383.713529 87.985277 
L 386.18426 89.157641 
L 388.657764 90.330005 
L 391.045157 91.502369 
L 393.251465 92.674733 
L 395.181696 93.847096 
L 396.747544 95.01946 
L 397.874051 96.191824 
L 398.505548 97.364188 
L 398.610215 98.536552 
L 398.182735 99.708916 
L 397.244745 100.881279 
L 395.84302 102.053643 
L 394.045605 103.226007 
L 391.936348 104.398371 
L 389.608432 105.570735 
L 387.157611 106.743098 
L 384.675815 107.915462 
L 382.245715 109.087826 
L 379.936649 110.26019 
L 377.802129 111.432554 
L 375.878943 112.604917 
L 374.187694 113.777281 
L 372.734477 114.949645 
L 371.513347 116.122009 
L 371.513347 116.122009 
z
" clip-path="url(#p2f8c089514)" style="fill: none; stroke: #fa8072; stroke-opacity: 0.8; stroke-width: 2"/>
   </g>
   <g id="matplotlib.axis_1">
    <g id="xtick_1">
     <g id="line2d_1">
      <defs>
       <path id="m710ee670bc" d="M 0 0 
L 0 3.5 
" style="stroke: #000000; stroke-width: 0.8"/>
      </defs>
      <g>
       <use xlink:href="#m710ee670bc" x="99.701667" y="178.36" style="stroke: #000000; stroke-width: 0.8"/>
      </g>
     </g>
     <g id="text_1">
      <!-- 1 -->
      <g transform="translate(97.792917 189.919063) scale(0.06 -0.06)">
       <defs>
        <path id="DejaVuSans-31" d="M 794 531 
L 1825 531 
L 1825 4091 
L 703 3866 
L 703 4441 
L 1819 4666 
L 2450 4666 
L 2450 531 
L 3481 531 
L 3481 0 
L 794 0 
L 794 531 
z
" transform="scale(0.015625)"/>
       </defs>
       <use xlink:href="#DejaVuSans-31"/>
      </g>
     </g>
    </g>
    <g id="xtick_2">
     <g id="line2d_2">
      <g>
       <use xlink:href="#m710ee670bc" x="233.485" y="178.36" style="stroke: #000000; stroke-width: 0.8"/>
      </g>
     </g>
     <g id="text_2">
      <!-- 2 -->
      <g transform="translate(231.57625 189.919063) scale(0.06 -0.06)">
       <defs>
        <path id="DejaVuSans-32" d="M 1228 531 
L 3431 531 
L 3431 0 
L 469 0 
L 469 531 
Q 828 903 1448 1529 
Q 2069 2156 2228 2338 
Q 2531 2678 2651 2914 
Q 2772 3150 2772 3378 
Q 2772 3750 2511 3984 
Q 2250 4219 1831 4219 
Q 1534 4219 1204 4116 
Q 875 4013 500 3803 
L 500 4441 
Q 881 4594 1212 4672 
Q 1544 4750 1819 4750 
Q 2544 4750 2975 4387 
Q 3406 4025 3406 3419 
Q 3406 3131 3298 2873 
Q 3191 2616 2906 2266 
Q 2828 2175 2409 1742 
Q 1991 1309 1228 531 
z
" transform="scale(0.015625)"/>
       </defs>
       <use xlink:href="#DejaVuSans-32"/>
      </g>
     </g>
    </g>
    <g id="xtick_3">
     <g id="line2d_3">
      <g>
       <use xlink:href="#m710ee670bc" x="367.268333" y="178.36" style="stroke: #000000; stroke-width: 0.8"/>
      </g>
     </g>
     <g id="text_3">
      <!-- 3 -->
      <g transform="translate(365.359583 189.919063) scale(0.06 -0.06)">
       <defs>
        <path id="DejaVuSans-33" d="M 2597 2516 
Q 3050 2419 3304 2112 
Q 3559 1806 3559 1356 
Q 3559 666 3084 287 
Q 2609 -91 1734 -91 
Q 1441 -91 1130 -33 
Q 819 25 488 141 
L 488 750 
Q 750 597 1062 519 
Q 1375 441 1716 441 
Q 2309 441 2620 675 
Q 2931 909 2931 1356 
Q 2931 1769 2642 2001 
Q 2353 2234 1838 2234 
L 1294 2234 
L 1294 2753 
L 1863 2753 
Q 2328 2753 2575 2939 
Q 2822 3125 2822 3475 
Q 2822 3834 2567 4026 
Q 2313 4219 1838 4219 
Q 1578 4219 1281 4162 
Q 984 4106 628 3988 
L 628 4550 
Q 988 4650 1302 4700 
Q 1616 4750 1894 4750 
Q 2613 4750 3031 4423 
Q 3450 4097 3450 3541 
Q 3450 3153 3228 2886 
Q 3006 2619 2597 2516 
z
" transform="scale(0.015625)"/>
       </defs>
       <use xlink:href="#DejaVuSans-33"/>
      </g>
     </g>
    </g>
    <g id="text_4">
     <!-- Number of Mice in Treatment Group -->
     <g transform="translate(179.729219 199.725938) scale(0.06 -0.06)">
      <defs>
       <path id="DejaVuSans-4e" d="M 628 4666 
L 1478 4666 
L 3547 763 
L 3547 4666 
L 4159 4666 
L 4159 0 
L 3309 0 
L 1241 3903 
L 1241 0 
L 628 0 
L 628 4666 
z
" transform="scale(0.015625)"/>
       <path id="DejaVuSans-75" d="M 544 1381 
L 544 3500 
L 1119 3500 
L 1119 1403 
Q 1119 906 1312 657 
Q 1506 409 1894 409 
Q 2359 409 2629 706 
Q 2900 1003 2900 1516 
L 2900 3500 
L 3475 3500 
L 3475 0 
L 2900 0 
L 2900 538 
Q 2691 219 2414 64 
Q 2138 -91 1772 -91 
Q 1169 -91 856 284 
Q 544 659 544 1381 
z
M 1991 3584 
L 1991 3584 
z
" transform="scale(0.015625)"/>
       <path id="DejaVuSans-6d" d="M 3328 2828 
Q 3544 3216 3844 3400 
Q 4144 3584 4550 3584 
Q 5097 3584 5394 3201 
Q 5691 2819 5691 2113 
L 5691 0 
L 5113 0 
L 5113 2094 
Q 5113 2597 4934 2840 
Q 4756 3084 4391 3084 
Q 3944 3084 3684 2787 
Q 3425 2491 3425 1978 
L 3425 0 
L 2847 0 
L 2847 2094 
Q 2847 2600 2669 2842 
Q 2491 3084 2119 3084 
Q 1678 3084 1418 2786 
Q 1159 2488 1159 1978 
L 1159 0 
L 581 0 
L 581 3500 
L 1159 3500 
L 1159 2956 
Q 1356 3278 1631 3431 
Q 1906 3584 2284 3584 
Q 2666 3584 2933 3390 
Q 3200 3197 3328 2828 
z
" transform="scale(0.015625)"/>
       <path id="DejaVuSans-62" d="M 3116 1747 
Q 3116 2381 2855 2742 
Q 2594 3103 2138 3103 
Q 1681 3103 1420 2742 
Q 1159 2381 1159 1747 
Q 1159 1113 1420 752 
Q 1681 391 2138 391 
Q 2594 391 2855 752 
Q 3116 1113 3116 1747 
z
M 1159 2969 
Q 1341 3281 1617 3432 
Q 1894 3584 2278 3584 
Q 2916 3584 3314 3078 
Q 3713 2572 3713 1747 
Q 3713 922 3314 415 
Q 2916 -91 2278 -91 
Q 1894 -91 1617 61 
Q 1341 213 1159 525 
L 1159 0 
L 581 0 
L 581 4863 
L 1159 4863 
L 1159 2969 
z
" transform="scale(0.015625)"/>
       <path id="DejaVuSans-65" d="M 3597 1894 
L 3597 1613 
L 953 1613 
Q 991 1019 1311 708 
Q 1631 397 2203 397 
Q 2534 397 2845 478 
Q 3156 559 3463 722 
L 3463 178 
Q 3153 47 2828 -22 
Q 2503 -91 2169 -91 
Q 1331 -91 842 396 
Q 353 884 353 1716 
Q 353 2575 817 3079 
Q 1281 3584 2069 3584 
Q 2775 3584 3186 3129 
Q 3597 2675 3597 1894 
z
M 3022 2063 
Q 3016 2534 2758 2815 
Q 2500 3097 2075 3097 
Q 1594 3097 1305 2825 
Q 1016 2553 972 2059 
L 3022 2063 
z
" transform="scale(0.015625)"/>
       <path id="DejaVuSans-72" d="M 2631 2963 
Q 2534 3019 2420 3045 
Q 2306 3072 2169 3072 
Q 1681 3072 1420 2755 
Q 1159 2438 1159 1844 
L 1159 0 
L 581 0 
L 581 3500 
L 1159 3500 
L 1159 2956 
Q 1341 3275 1631 3429 
Q 1922 3584 2338 3584 
Q 2397 3584 2469 3576 
Q 2541 3569 2628 3553 
L 2631 2963 
z
" transform="scale(0.015625)"/>
       <path id="DejaVuSans-20" transform="scale(0.015625)"/>
       <path id="DejaVuSans-6f" d="M 1959 3097 
Q 1497 3097 1228 2736 
Q 959 2375 959 1747 
Q 959 1119 1226 758 
Q 1494 397 1959 397 
Q 2419 397 2687 759 
Q 2956 1122 2956 1747 
Q 2956 2369 2687 2733 
Q 2419 3097 1959 3097 
z
M 1959 3584 
Q 2709 3584 3137 3096 
Q 3566 2609 3566 1747 
Q 3566 888 3137 398 
Q 2709 -91 1959 -91 
Q 1206 -91 779 398 
Q 353 888 353 1747 
Q 353 2609 779 3096 
Q 1206 3584 1959 3584 
z
" transform="scale(0.015625)"/>
       <path id="DejaVuSans-66" d="M 2375 4863 
L 2375 4384 
L 1825 4384 
Q 1516 4384 1395 4259 
Q 1275 4134 1275 3809 
L 1275 3500 
L 2222 3500 
L 2222 3053 
L 1275 3053 
L 1275 0 
L 697 0 
L 697 3053 
L 147 3053 
L 147 3500 
L 697 3500 
L 697 3744 
Q 697 4328 969 4595 
Q 1241 4863 1831 4863 
L 2375 4863 
z
" transform="scale(0.015625)"/>
       <path id="DejaVuSans-4d" d="M 628 4666 
L 1569 4666 
L 2759 1491 
L 3956 4666 
L 4897 4666 
L 4897 0 
L 4281 0 
L 4281 4097 
L 3078 897 
L 2444 897 
L 1241 4097 
L 1241 0 
L 628 0 
L 628 4666 
z
" transform="scale(0.015625)"/>
       <path id="DejaVuSans-69" d="M 603 3500 
L 1178 3500 
L 1178 0 
L 603 0 
L 603 3500 
z
M 603 4863 
L 1178 4863 
L 1178 4134 
L 603 4134 
L 603 4863 
z
" transform="scale(0.015625)"/>
       <path id="DejaVuSans-63" d="M 3122 3366 
L 3122 2828 
Q 2878 2963 2633 3030 
Q 2388 3097 2138 3097 
Q 1578 3097 1268 2742 
Q 959 2388 959 1747 
Q 959 1106 1268 751 
Q 1578 397 2138 397 
Q 2388 397 2633 464 
Q 2878 531 3122 666 
L 3122 134 
Q 2881 22 2623 -34 
Q 2366 -91 2075 -91 
Q 1284 -91 818 406 
Q 353 903 353 1747 
Q 353 2603 823 3093 
Q 1294 3584 2113 3584 
Q 2378 3584 2631 3529 
Q 2884 3475 3122 3366 
z
" transform="scale(0.015625)"/>
       <path id="DejaVuSans-6e" d="M 3513 2113 
L 3513 0 
L 2938 0 
L 2938 2094 
Q 2938 2591 2744 2837 
Q 2550 3084 2163 3084 
Q 1697 3084 1428 2787 
Q 1159 2491 1159 1978 
L 1159 0 
L 581 0 
L 581 3500 
L 1159 3500 
L 1159 2956 
Q 1366 3272 1645 3428 
Q 1925 3584 2291 3584 
Q 2894 3584 3203 3211 
Q 3513 2838 3513 2113 
z
" transform="scale(0.015625)"/>
       <path id="DejaVuSans-54" d="M -19 4666 
L 3928 4666 
L 3928 4134 
L 2272 4134 
L 2272 0 
L 1638 0 
L 1638 4134 
L -19 4134 
L -19 4666 
z
" transform="scale(0.015625)"/>
       <path id="DejaVuSans-61" d="M 2194 1759 
Q 1497 1759 1228 1600 
Q 959 1441 959 1056 
Q 959 750 1161 570 
Q 1363 391 1709 391 
Q 2188 391 2477 730 
Q 2766 1069 2766 1631 
L 2766 1759 
L 2194 1759 
z
M 3341 1997 
L 3341 0 
L 2766 0 
L 2766 531 
Q 2569 213 2275 61 
Q 1981 -91 1556 -91 
Q 1019 -91 701 211 
Q 384 513 384 1019 
Q 384 1609 779 1909 
Q 1175 2209 1959 2209 
L 2766 2209 
L 2766 2266 
Q 2766 2663 2505 2880 
Q 2244 3097 1772 3097 
Q 1472 3097 1187 3025 
Q 903 2953 641 2809 
L 641 3341 
Q 956 3463 1253 3523 
Q 1550 3584 1831 3584 
Q 2591 3584 2966 3190 
Q 3341 2797 3341 1997 
z
" transform="scale(0.015625)"/>
       <path id="DejaVuSans-74" d="M 1172 4494 
L 1172 3500 
L 2356 3500 
L 2356 3053 
L 1172 3053 
L 1172 1153 
Q 1172 725 1289 603 
Q 1406 481 1766 481 
L 2356 481 
L 2356 0 
L 1766 0 
Q 1100 0 847 248 
Q 594 497 594 1153 
L 594 3053 
L 172 3053 
L 172 3500 
L 594 3500 
L 594 4494 
L 1172 4494 
z
" transform="scale(0.015625)"/>
       <path id="DejaVuSans-47" d="M 3809 666 
L 3809 1919 
L 2778 1919 
L 2778 2438 
L 4434 2438 
L 4434 434 
Q 4069 175 3628 42 
Q 3188 -91 2688 -91 
Q 1594 -91 976 548 
Q 359 1188 359 2328 
Q 359 3472 976 4111 
Q 1594 4750 2688 4750 
Q 3144 4750 3555 4637 
Q 3966 4525 4313 4306 
L 4313 3634 
Q 3963 3931 3569 4081 
Q 3175 4231 2741 4231 
Q 1884 4231 1454 3753 
Q 1025 3275 1025 2328 
Q 1025 1384 1454 906 
Q 1884 428 2741 428 
Q 3075 428 3337 486 
Q 3600 544 3809 666 
z
" transform="scale(0.015625)"/>
       <path id="DejaVuSans-70" d="M 1159 525 
L 1159 -1331 
L 581 -1331 
L 581 3500 
L 1159 3500 
L 1159 2969 
Q 1341 3281 1617 3432 
Q 1894 3584 2278 3584 
Q 2916 3584 3314 3078 
Q 3713 2572 3713 1747 
Q 3713 922 3314 415 
Q 2916 -91 2278 -91 
Q 1894 -91 1617 61 
Q 1341 213 1159 525 
z
M 3116 1747 
Q 3116 2381 2855 2742 
Q 2594 3103 2138 3103 
Q 1681 3103 1420 2742 
Q 1159 2381 1159 1747 
Q 1159 1113 1420 752 
Q 1681 391 2138 391 
Q 2594 391 2855 752 
Q 3116 1113 3116 1747 
z
" transform="scale(0.015625)"/>
      </defs>
      <use xlink:href="#DejaVuSans-4e"/>
      <use xlink:href="#DejaVuSans-75" x="74.804688"/>
      <use xlink:href="#DejaVuSans-6d" x="138.183594"/>
      <use xlink:href="#DejaVuSans-62" x="235.595703"/>
      <use xlink:href="#DejaVuSans-65" x="299.072266"/>
      <use xlink:href="#DejaVuSans-72" x="360.595703"/>
      <use xlink:href="#DejaVuSans-20" x="401.708984"/>
      <use xlink:href="#DejaVuSans-6f" x="433.496094"/>
      <use xlink:href="#DejaVuSans-66" x="494.677734"/>
      <use xlink:href="#DejaVuSans-20" x="529.882812"/>
      <use xlink:href="#DejaVuSans-4d" x="561.669922"/>
      <use xlink:href="#DejaVuSans-69" x="647.949219"/>
      <use xlink:href="#DejaVuSans-63" x="675.732422"/>
      <use xlink:href="#DejaVuSans-65" x="730.712891"/>
      <use xlink:href="#DejaVuSans-20" x="792.236328"/>
      <use xlink:href="#DejaVuSans-69" x="824.023438"/>
      <use xlink:href="#DejaVuSans-6e" x="851.806641"/>
      <use xlink:href="#DejaVuSans-20" x="915.185547"/>
      <use xlink:href="#DejaVuSans-54" x="946.972656"/>
      <use xlink:href="#DejaVuSans-72" x="993.306641"/>
      <use xlink:href="#DejaVuSans-65" x="1032.169922"/>
      <use xlink:href="#DejaVuSans-61" x="1093.693359"/>
      <use xlink:href="#DejaVuSans-74" x="1154.972656"/>
      <use xlink:href="#DejaVuSans-6d" x="1194.181641"/>
      <use xlink:href="#DejaVuSans-65" x="1291.59375"/>
      <use xlink:href="#DejaVuSans-6e" x="1353.117188"/>
      <use xlink:href="#DejaVuSans-74" x="1416.496094"/>
      <use xlink:href="#DejaVuSans-20" x="1455.705078"/>
      <use xlink:href="#DejaVuSans-47" x="1487.492188"/>
      <use xlink:href="#DejaVuSans-72" x="1564.982422"/>
      <use xlink:href="#DejaVuSans-6f" x="1603.845703"/>
      <use xlink:href="#DejaVuSans-75" x="1665.027344"/>
      <use xlink:href="#DejaVuSans-70" x="1728.40625"/>
     </g>
    </g>
   </g>
   <g id="matplotlib.axis_2">
    <g id="ytick_1">
     <g id="line2d_4">
      <path d="M 32.81 178.36 
L 434.16 178.36 
" clip-path="url(#p2f8c089514)" style="fill: none; stroke-dasharray: 2.96,1.28; stroke-dashoffset: 0; stroke: #000000; stroke-opacity: 0.3; stroke-width: 0.8"/>
     </g>
     <g id="line2d_5">
      <defs>
       <path id="mbebe2a999e" d="M 0 0 
L -3.5 0 
" style="stroke: #000000; stroke-width: 0.8"/>
      </defs>
      <g>
       <use xlink:href="#mbebe2a999e" x="32.81" y="178.36" style="stroke: #000000; stroke-width: 0.8"/>
      </g>
     </g>
     <g id="text_5">
      <!-- 0.0 -->
      <g transform="translate(16.268125 180.639531) scale(0.06 -0.06)">
       <defs>
        <path id="DejaVuSans-30" d="M 2034 4250 
Q 1547 4250 1301 3770 
Q 1056 3291 1056 2328 
Q 1056 1369 1301 889 
Q 1547 409 2034 409 
Q 2525 409 2770 889 
Q 3016 1369 3016 2328 
Q 3016 3291 2770 3770 
Q 2525 4250 2034 4250 
z
M 2034 4750 
Q 2819 4750 3233 4129 
Q 3647 3509 3647 2328 
Q 3647 1150 3233 529 
Q 2819 -91 2034 -91 
Q 1250 -91 836 529 
Q 422 1150 422 2328 
Q 422 3509 836 4129 
Q 1250 4750 2034 4750 
z
" transform="scale(0.015625)"/>
        <path id="DejaVuSans-2e" d="M 684 794 
L 1344 794 
L 1344 0 
L 684 0 
L 684 794 
z
" transform="scale(0.015625)"/>
       </defs>
       <use xlink:href="#DejaVuSans-30"/>
       <use xlink:href="#DejaVuSans-2e" x="63.623047"/>
       <use xlink:href="#DejaVuSans-30" x="95.410156"/>
      </g>
     </g>
    </g>
    <g id="ytick_2">
     <g id="line2d_6">
      <path d="M 32.81 146.288 
L 434.16 146.288 
" clip-path="url(#p2f8c089514)" style="fill: none; stroke-dasharray: 2.96,1.28; stroke-dashoffset: 0; stroke: #000000; stroke-opacity: 0.3; stroke-width: 0.8"/>
     </g>
     <g id="line2d_7">
      <g>
       <use xlink:href="#mbebe2a999e" x="32.81" y="146.288" style="stroke: #000000; stroke-width: 0.8"/>
      </g>
     </g>
     <g id="text_6">
      <!-- 0.2 -->
      <g transform="translate(16.268125 148.567531) scale(0.06 -0.06)">
       <use xlink:href="#DejaVuSans-30"/>
       <use xlink:href="#DejaVuSans-2e" x="63.623047"/>
       <use xlink:href="#DejaVuSans-32" x="95.410156"/>
      </g>
     </g>
    </g>
    <g id="ytick_3">
     <g id="line2d_8">
      <path d="M 32.81 114.216 
L 434.16 114.216 
" clip-path="url(#p2f8c089514)" style="fill: none; stroke-dasharray: 2.96,1.28; stroke-dashoffset: 0; stroke: #000000; stroke-opacity: 0.3; stroke-width: 0.8"/>
     </g>
     <g id="line2d_9">
      <g>
       <use xlink:href="#mbebe2a999e" x="32.81" y="114.216" style="stroke: #000000; stroke-width: 0.8"/>
      </g>
     </g>
     <g id="text_7">
      <!-- 0.4 -->
      <g transform="translate(16.268125 116.495531) scale(0.06 -0.06)">
       <defs>
        <path id="DejaVuSans-34" d="M 2419 4116 
L 825 1625 
L 2419 1625 
L 2419 4116 
z
M 2253 4666 
L 3047 4666 
L 3047 1625 
L 3713 1625 
L 3713 1100 
L 3047 1100 
L 3047 0 
L 2419 0 
L 2419 1100 
L 313 1100 
L 313 1709 
L 2253 4666 
z
" transform="scale(0.015625)"/>
       </defs>
       <use xlink:href="#DejaVuSans-30"/>
       <use xlink:href="#DejaVuSans-2e" x="63.623047"/>
       <use xlink:href="#DejaVuSans-34" x="95.410156"/>
      </g>
     </g>
    </g>
    <g id="ytick_4">
     <g id="line2d_10">
      <path d="M 32.81 82.144 
L 434.16 82.144 
" clip-path="url(#p2f8c089514)" style="fill: none; stroke-dasharray: 2.96,1.28; stroke-dashoffset: 0; stroke: #000000; stroke-opacity: 0.3; stroke-width: 0.8"/>
     </g>
     <g id="line2d_11">
      <g>
       <use xlink:href="#mbebe2a999e" x="32.81" y="82.144" style="stroke: #000000; stroke-width: 0.8"/>
      </g>
     </g>
     <g id="text_8">
      <!-- 0.6 -->
      <g transform="translate(16.268125 84.423531) scale(0.06 -0.06)">
       <defs>
        <path id="DejaVuSans-36" d="M 2113 2584 
Q 1688 2584 1439 2293 
Q 1191 2003 1191 1497 
Q 1191 994 1439 701 
Q 1688 409 2113 409 
Q 2538 409 2786 701 
Q 3034 994 3034 1497 
Q 3034 2003 2786 2293 
Q 2538 2584 2113 2584 
z
M 3366 4563 
L 3366 3988 
Q 3128 4100 2886 4159 
Q 2644 4219 2406 4219 
Q 1781 4219 1451 3797 
Q 1122 3375 1075 2522 
Q 1259 2794 1537 2939 
Q 1816 3084 2150 3084 
Q 2853 3084 3261 2657 
Q 3669 2231 3669 1497 
Q 3669 778 3244 343 
Q 2819 -91 2113 -91 
Q 1303 -91 875 529 
Q 447 1150 447 2328 
Q 447 3434 972 4092 
Q 1497 4750 2381 4750 
Q 2619 4750 2861 4703 
Q 3103 4656 3366 4563 
z
" transform="scale(0.015625)"/>
       </defs>
       <use xlink:href="#DejaVuSans-30"/>
       <use xlink:href="#DejaVuSans-2e" x="63.623047"/>
       <use xlink:href="#DejaVuSans-36" x="95.410156"/>
      </g>
     </g>
    </g>
    <g id="ytick_5">
     <g id="line2d_12">
      <path d="M 32.81 50.072 
L 434.16 50.072 
" clip-path="url(#p2f8c089514)" style="fill: none; stroke-dasharray: 2.96,1.28; stroke-dashoffset: 0; stroke: #000000; stroke-opacity: 0.3; stroke-width: 0.8"/>
     </g>
     <g id="line2d_13">
      <g>
       <use xlink:href="#mbebe2a999e" x="32.81" y="50.072" style="stroke: #000000; stroke-width: 0.8"/>
      </g>
     </g>
     <g id="text_9">
      <!-- 0.8 -->
      <g transform="translate(16.268125 52.351531) scale(0.06 -0.06)">
       <defs>
        <path id="DejaVuSans-38" d="M 2034 2216 
Q 1584 2216 1326 1975 
Q 1069 1734 1069 1313 
Q 1069 891 1326 650 
Q 1584 409 2034 409 
Q 2484 409 2743 651 
Q 3003 894 3003 1313 
Q 3003 1734 2745 1975 
Q 2488 2216 2034 2216 
z
M 1403 2484 
Q 997 2584 770 2862 
Q 544 3141 544 3541 
Q 544 4100 942 4425 
Q 1341 4750 2034 4750 
Q 2731 4750 3128 4425 
Q 3525 4100 3525 3541 
Q 3525 3141 3298 2862 
Q 3072 2584 2669 2484 
Q 3125 2378 3379 2068 
Q 3634 1759 3634 1313 
Q 3634 634 3220 271 
Q 2806 -91 2034 -91 
Q 1263 -91 848 271 
Q 434 634 434 1313 
Q 434 1759 690 2068 
Q 947 2378 1403 2484 
z
M 1172 3481 
Q 1172 3119 1398 2916 
Q 1625 2713 2034 2713 
Q 2441 2713 2670 2916 
Q 2900 3119 2900 3481 
Q 2900 3844 2670 4047 
Q 2441 4250 2034 4250 
Q 1625 4250 1398 4047 
Q 1172 3844 1172 3481 
z
" transform="scale(0.015625)"/>
       </defs>
       <use xlink:href="#DejaVuSans-30"/>
       <use xlink:href="#DejaVuSans-2e" x="63.623047"/>
       <use xlink:href="#DejaVuSans-38" x="95.410156"/>
      </g>
     </g>
    </g>
    <g id="ytick_6">
     <g id="line2d_14">
      <path d="M 32.81 18 
L 434.16 18 
" clip-path="url(#p2f8c089514)" style="fill: none; stroke-dasharray: 2.96,1.28; stroke-dashoffset: 0; stroke: #000000; stroke-opacity: 0.3; stroke-width: 0.8"/>
     </g>
     <g id="line2d_15">
      <g>
       <use xlink:href="#mbebe2a999e" x="32.81" y="18" style="stroke: #000000; stroke-width: 0.8"/>
      </g>
     </g>
     <g id="text_10">
      <!-- 1.0 -->
      <g transform="translate(16.268125 20.279531) scale(0.06 -0.06)">
       <use xlink:href="#DejaVuSans-31"/>
       <use xlink:href="#DejaVuSans-2e" x="63.623047"/>
       <use xlink:href="#DejaVuSans-30" x="95.410156"/>
      </g>
     </g>
    </g>
    <g id="text_11">
     <!-- Fraction of Overlapping Hits -->
     <g transform="translate(11.020312 140.072656) rotate(-90) scale(0.06 -0.06)">
      <defs>
       <path id="DejaVuSans-46" d="M 628 4666 
L 3309 4666 
L 3309 4134 
L 1259 4134 
L 1259 2759 
L 3109 2759 
L 3109 2228 
L 1259 2228 
L 1259 0 
L 628 0 
L 628 4666 
z
" transform="scale(0.015625)"/>
       <path id="DejaVuSans-4f" d="M 2522 4238 
Q 1834 4238 1429 3725 
Q 1025 3213 1025 2328 
Q 1025 1447 1429 934 
Q 1834 422 2522 422 
Q 3209 422 3611 934 
Q 4013 1447 4013 2328 
Q 4013 3213 3611 3725 
Q 3209 4238 2522 4238 
z
M 2522 4750 
Q 3503 4750 4090 4092 
Q 4678 3434 4678 2328 
Q 4678 1225 4090 567 
Q 3503 -91 2522 -91 
Q 1538 -91 948 565 
Q 359 1222 359 2328 
Q 359 3434 948 4092 
Q 1538 4750 2522 4750 
z
" transform="scale(0.015625)"/>
       <path id="DejaVuSans-76" d="M 191 3500 
L 800 3500 
L 1894 563 
L 2988 3500 
L 3597 3500 
L 2284 0 
L 1503 0 
L 191 3500 
z
" transform="scale(0.015625)"/>
       <path id="DejaVuSans-6c" d="M 603 4863 
L 1178 4863 
L 1178 0 
L 603 0 
L 603 4863 
z
" transform="scale(0.015625)"/>
       <path id="DejaVuSans-67" d="M 2906 1791 
Q 2906 2416 2648 2759 
Q 2391 3103 1925 3103 
Q 1463 3103 1205 2759 
Q 947 2416 947 1791 
Q 947 1169 1205 825 
Q 1463 481 1925 481 
Q 2391 481 2648 825 
Q 2906 1169 2906 1791 
z
M 3481 434 
Q 3481 -459 3084 -895 
Q 2688 -1331 1869 -1331 
Q 1566 -1331 1297 -1286 
Q 1028 -1241 775 -1147 
L 775 -588 
Q 1028 -725 1275 -790 
Q 1522 -856 1778 -856 
Q 2344 -856 2625 -561 
Q 2906 -266 2906 331 
L 2906 616 
Q 2728 306 2450 153 
Q 2172 0 1784 0 
Q 1141 0 747 490 
Q 353 981 353 1791 
Q 353 2603 747 3093 
Q 1141 3584 1784 3584 
Q 2172 3584 2450 3431 
Q 2728 3278 2906 2969 
L 2906 3500 
L 3481 3500 
L 3481 434 
z
" transform="scale(0.015625)"/>
       <path id="DejaVuSans-48" d="M 628 4666 
L 1259 4666 
L 1259 2753 
L 3553 2753 
L 3553 4666 
L 4184 4666 
L 4184 0 
L 3553 0 
L 3553 2222 
L 1259 2222 
L 1259 0 
L 628 0 
L 628 4666 
z
" transform="scale(0.015625)"/>
       <path id="DejaVuSans-73" d="M 2834 3397 
L 2834 2853 
Q 2591 2978 2328 3040 
Q 2066 3103 1784 3103 
Q 1356 3103 1142 2972 
Q 928 2841 928 2578 
Q 928 2378 1081 2264 
Q 1234 2150 1697 2047 
L 1894 2003 
Q 2506 1872 2764 1633 
Q 3022 1394 3022 966 
Q 3022 478 2636 193 
Q 2250 -91 1575 -91 
Q 1294 -91 989 -36 
Q 684 19 347 128 
L 347 722 
Q 666 556 975 473 
Q 1284 391 1588 391 
Q 1994 391 2212 530 
Q 2431 669 2431 922 
Q 2431 1156 2273 1281 
Q 2116 1406 1581 1522 
L 1381 1569 
Q 847 1681 609 1914 
Q 372 2147 372 2553 
Q 372 3047 722 3315 
Q 1072 3584 1716 3584 
Q 2034 3584 2315 3537 
Q 2597 3491 2834 3397 
z
" transform="scale(0.015625)"/>
      </defs>
      <use xlink:href="#DejaVuSans-46"/>
      <use xlink:href="#DejaVuSans-72" x="50.269531"/>
      <use xlink:href="#DejaVuSans-61" x="91.382812"/>
      <use xlink:href="#DejaVuSans-63" x="152.662109"/>
      <use xlink:href="#DejaVuSans-74" x="207.642578"/>
      <use xlink:href="#DejaVuSans-69" x="246.851562"/>
      <use xlink:href="#DejaVuSans-6f" x="274.634766"/>
      <use xlink:href="#DejaVuSans-6e" x="335.816406"/>
      <use xlink:href="#DejaVuSans-20" x="399.195312"/>
      <use xlink:href="#DejaVuSans-6f" x="430.982422"/>
      <use xlink:href="#DejaVuSans-66" x="492.164062"/>
      <use xlink:href="#DejaVuSans-20" x="527.369141"/>
      <use xlink:href="#DejaVuSans-4f" x="559.15625"/>
      <use xlink:href="#DejaVuSans-76" x="637.867188"/>
      <use xlink:href="#DejaVuSans-65" x="697.046875"/>
      <use xlink:href="#DejaVuSans-72" x="758.570312"/>
      <use xlink:href="#DejaVuSans-6c" x="799.683594"/>
      <use xlink:href="#DejaVuSans-61" x="827.466797"/>
      <use xlink:href="#DejaVuSans-70" x="888.746094"/>
      <use xlink:href="#DejaVuSans-70" x="952.222656"/>
      <use xlink:href="#DejaVuSans-69" x="1015.699219"/>
      <use xlink:href="#DejaVuSans-6e" x="1043.482422"/>
      <use xlink:href="#DejaVuSans-67" x="1106.861328"/>
      <use xlink:href="#DejaVuSans-20" x="1170.337891"/>
      <use xlink:href="#DejaVuSans-48" x="1202.125"/>
      <use xlink:href="#DejaVuSans-69" x="1277.320312"/>
      <use xlink:href="#DejaVuSans-74" x="1305.103516"/>
      <use xlink:href="#DejaVuSans-73" x="1344.3125"/>
     </g>
    </g>
   </g>
   <g id="line2d_16">
    <path d="M 99.701667 98.18 
L 99.701667 33.03375 
" clip-path="url(#p2f8c089514)" style="fill: none; stroke: #1a1a1a; stroke-linecap: square"/>
   </g>
   <g id="line2d_17">
    <path d="M 99.701667 98.18 
L 99.701667 33.03375 
" clip-path="url(#p2f8c089514)" style="fill: none; stroke: #1a1a1a; stroke-width: 2; stroke-linecap: square"/>
   </g>
   <g id="line2d_18">
    <path d="M 99.701667 93.16875 
" clip-path="url(#p2f8c089514)" style="fill: none; stroke: #fa8072; stroke-width: 1.5; stroke-linecap: square"/>
    <defs>
     <path id="ma0e816e5e8" d="M 0.833333 0 
L -0.833333 -0 
" style="stroke: #ffffff; stroke-width: 0.4"/>
    </defs>
    <g clip-path="url(#p2f8c089514)">
     <use xlink:href="#ma0e816e5e8" x="99.701667" y="93.16875" style="fill: #ffffff; stroke: #ffffff; stroke-width: 0.4"/>
    </g>
   </g>
   <g id="line2d_19">
    <path d="M 233.485 43.05625 
L 233.485 23.01125 
" clip-path="url(#p2f8c089514)" style="fill: none; stroke: #1a1a1a; stroke-linecap: square"/>
   </g>
   <g id="line2d_20">
    <path d="M 233.485 43.05625 
L 233.485 28.0225 
" clip-path="url(#p2f8c089514)" style="fill: none; stroke: #1a1a1a; stroke-width: 2; stroke-linecap: square"/>
   </g>
   <g id="line2d_21">
    <path d="M 233.485 43.05625 
" clip-path="url(#p2f8c089514)" style="fill: none; stroke: #fa8072; stroke-width: 1.5; stroke-linecap: square"/>
    <g clip-path="url(#p2f8c089514)">
     <use xlink:href="#ma0e816e5e8" x="233.485" y="43.05625" style="fill: #ffffff; stroke: #ffffff; stroke-width: 0.4"/>
    </g>
   </g>
   <g id="line2d_22">
    <path d="M 367.268333 98.18 
L 367.268333 18 
" clip-path="url(#p2f8c089514)" style="fill: none; stroke: #1a1a1a; stroke-linecap: square"/>
   </g>
   <g id="line2d_23">
    <path d="M 367.268333 98.18 
L 367.268333 33.03375 
" clip-path="url(#p2f8c089514)" style="fill: none; stroke: #1a1a1a; stroke-width: 2; stroke-linecap: square"/>
   </g>
   <g id="line2d_24">
    <path d="M 367.268333 33.03375 
" clip-path="url(#p2f8c089514)" style="fill: none; stroke: #fa8072; stroke-width: 1.5; stroke-linecap: square"/>
    <g clip-path="url(#p2f8c089514)">
     <use xlink:href="#ma0e816e5e8" x="367.268333" y="33.03375" style="fill: #ffffff; stroke: #ffffff; stroke-width: 0.4"/>
    </g>
   </g>
   <g id="line2d_25">
    <path d="M 99.701667 93.16875 
L 233.485 43.05625 
L 367.268333 33.03375 
" clip-path="url(#p2f8c089514)" style="fill: none; stroke: #8b0000; stroke-linecap: square"/>
    <defs>
     <path id="mf78f23c930" d="M 0 1.253314 
C 0.332383 1.253314 0.651197 1.121257 0.886227 0.886227 
C 1.121257 0.651197 1.253314 0.332383 1.253314 0 
C 1.253314 -0.332383 1.121257 -0.651197 0.886227 -0.886227 
C 0.651197 -1.121257 0.332383 -1.253314 0 -1.253314 
C -0.332383 -1.253314 -0.651197 -1.121257 -0.886227 -0.886227 
C -1.121257 -0.651197 -1.253314 -0.332383 -1.253314 0 
C -1.253314 0.332383 -1.121257 0.651197 -0.886227 0.886227 
C -0.651197 1.121257 -0.332383 1.253314 0 1.253314 
z
" style="stroke: #8b0000; stroke-width: 0.75"/>
    </defs>
    <g clip-path="url(#p2f8c089514)">
     <use xlink:href="#mf78f23c930" x="99.701667" y="93.16875" style="fill: #8b0000; stroke: #8b0000; stroke-width: 0.75"/>
     <use xlink:href="#mf78f23c930" x="233.485" y="43.05625" style="fill: #8b0000; stroke: #8b0000; stroke-width: 0.75"/>
     <use xlink:href="#mf78f23c930" x="367.268333" y="33.03375" style="fill: #8b0000; stroke: #8b0000; stroke-width: 0.75"/>
    </g>
   </g>
   <g id="line2d_26">
    <path clip-path="url(#p2f8c089514)" style="fill: none; stroke: #8b0000; stroke-linecap: square"/>
   </g>
   <g id="line2d_27">
    <path clip-path="url(#p2f8c089514)" style="fill: none; stroke: #8b0000; stroke-linecap: square"/>
   </g>
   <g id="line2d_28">
    <path clip-path="url(#p2f8c089514)" style="fill: none; stroke: #8b0000; stroke-linecap: square"/>
   </g>
   <g id="patch_3">
    <path d="M 32.81 178.36 
L 32.81 18 
" style="fill: none; stroke: #000000; stroke-width: 0.8; stroke-linejoin: miter; stroke-linecap: square"/>
   </g>
   <g id="patch_4">
    <path d="M 434.16 178.36 
L 434.16 18 
" style="fill: none; stroke: #000000; stroke-width: 0.8; stroke-linejoin: miter; stroke-linecap: square"/>
   </g>
   <g id="patch_5">
    <path d="M 32.81 178.36 
L 434.16 178.36 
" style="fill: none; stroke: #000000; stroke-width: 0.8; stroke-linejoin: miter; stroke-linecap: square"/>
   </g>
   <g id="patch_6">
    <path d="M 32.81 18 
L 434.16 18 
" style="fill: none; stroke: #000000; stroke-width: 0.8; stroke-linejoin: miter; stroke-linecap: square"/>
   </g>
   <g id="text_12">
    <!-- Fraction of Overlapping Hits in Bootstraps compared to Standard -->
    <g transform="translate(116.719 12) scale(0.072 -0.072)">
     <defs>
      <path id="DejaVuSans-42" d="M 1259 2228 
L 1259 519 
L 2272 519 
Q 2781 519 3026 730 
Q 3272 941 3272 1375 
Q 3272 1813 3026 2020 
Q 2781 2228 2272 2228 
L 1259 2228 
z
M 1259 4147 
L 1259 2741 
L 2194 2741 
Q 2656 2741 2882 2914 
Q 3109 3088 3109 3444 
Q 3109 3797 2882 3972 
Q 2656 4147 2194 4147 
L 1259 4147 
z
M 628 4666 
L 2241 4666 
Q 2963 4666 3353 4366 
Q 3744 4066 3744 3513 
Q 3744 3084 3544 2831 
Q 3344 2578 2956 2516 
Q 3422 2416 3680 2098 
Q 3938 1781 3938 1306 
Q 3938 681 3513 340 
Q 3088 0 2303 0 
L 628 0 
L 628 4666 
z
" transform="scale(0.015625)"/>
      <path id="DejaVuSans-64" d="M 2906 2969 
L 2906 4863 
L 3481 4863 
L 3481 0 
L 2906 0 
L 2906 525 
Q 2725 213 2448 61 
Q 2172 -91 1784 -91 
Q 1150 -91 751 415 
Q 353 922 353 1747 
Q 353 2572 751 3078 
Q 1150 3584 1784 3584 
Q 2172 3584 2448 3432 
Q 2725 3281 2906 2969 
z
M 947 1747 
Q 947 1113 1208 752 
Q 1469 391 1925 391 
Q 2381 391 2643 752 
Q 2906 1113 2906 1747 
Q 2906 2381 2643 2742 
Q 2381 3103 1925 3103 
Q 1469 3103 1208 2742 
Q 947 2381 947 1747 
z
" transform="scale(0.015625)"/>
      <path id="DejaVuSans-53" d="M 3425 4513 
L 3425 3897 
Q 3066 4069 2747 4153 
Q 2428 4238 2131 4238 
Q 1616 4238 1336 4038 
Q 1056 3838 1056 3469 
Q 1056 3159 1242 3001 
Q 1428 2844 1947 2747 
L 2328 2669 
Q 3034 2534 3370 2195 
Q 3706 1856 3706 1288 
Q 3706 609 3251 259 
Q 2797 -91 1919 -91 
Q 1588 -91 1214 -16 
Q 841 59 441 206 
L 441 856 
Q 825 641 1194 531 
Q 1563 422 1919 422 
Q 2459 422 2753 634 
Q 3047 847 3047 1241 
Q 3047 1584 2836 1778 
Q 2625 1972 2144 2069 
L 1759 2144 
Q 1053 2284 737 2584 
Q 422 2884 422 3419 
Q 422 4038 858 4394 
Q 1294 4750 2059 4750 
Q 2388 4750 2728 4690 
Q 3069 4631 3425 4513 
z
" transform="scale(0.015625)"/>
     </defs>
     <use xlink:href="#DejaVuSans-46"/>
     <use xlink:href="#DejaVuSans-72" x="50.269531"/>
     <use xlink:href="#DejaVuSans-61" x="91.382812"/>
     <use xlink:href="#DejaVuSans-63" x="152.662109"/>
     <use xlink:href="#DejaVuSans-74" x="207.642578"/>
     <use xlink:href="#DejaVuSans-69" x="246.851562"/>
     <use xlink:href="#DejaVuSans-6f" x="274.634766"/>
     <use xlink:href="#DejaVuSans-6e" x="335.816406"/>
     <use xlink:href="#DejaVuSans-20" x="399.195312"/>
     <use xlink:href="#DejaVuSans-6f" x="430.982422"/>
     <use xlink:href="#DejaVuSans-66" x="492.164062"/>
     <use xlink:href="#DejaVuSans-20" x="527.369141"/>
     <use xlink:href="#DejaVuSans-4f" x="559.15625"/>
     <use xlink:href="#DejaVuSans-76" x="637.867188"/>
     <use xlink:href="#DejaVuSans-65" x="697.046875"/>
     <use xlink:href="#DejaVuSans-72" x="758.570312"/>
     <use xlink:href="#DejaVuSans-6c" x="799.683594"/>
     <use xlink:href="#DejaVuSans-61" x="827.466797"/>
     <use xlink:href="#DejaVuSans-70" x="888.746094"/>
     <use xlink:href="#DejaVuSans-70" x="952.222656"/>
     <use xlink:href="#DejaVuSans-69" x="1015.699219"/>
     <use xlink:href="#DejaVuSans-6e" x="1043.482422"/>
     <use xlink:href="#DejaVuSans-67" x="1106.861328"/>
     <use xlink:href="#DejaVuSans-20" x="1170.337891"/>
     <use xlink:href="#DejaVuSans-48" x="1202.125"/>
     <use xlink:href="#DejaVuSans-69" x="1277.320312"/>
     <use xlink:href="#DejaVuSans-74" x="1305.103516"/>
     <use xlink:href="#DejaVuSans-73" x="1344.3125"/>
     <use xlink:href="#DejaVuSans-20" x="1396.412109"/>
     <use xlink:href="#DejaVuSans-69" x="1428.199219"/>
     <use xlink:href="#DejaVuSans-6e" x="1455.982422"/>
     <use xlink:href="#DejaVuSans-20" x="1519.361328"/>
     <use xlink:href="#DejaVuSans-42" x="1551.148438"/>
     <use xlink:href="#DejaVuSans-6f" x="1619.751953"/>
     <use xlink:href="#DejaVuSans-6f" x="1680.933594"/>
     <use xlink:href="#DejaVuSans-74" x="1742.115234"/>
     <use xlink:href="#DejaVuSans-73" x="1781.324219"/>
     <use xlink:href="#DejaVuSans-74" x="1833.423828"/>
     <use xlink:href="#DejaVuSans-72" x="1872.632812"/>
     <use xlink:href="#DejaVuSans-61" x="1913.746094"/>
     <use xlink:href="#DejaVuSans-70" x="1975.025391"/>
     <use xlink:href="#DejaVuSans-73" x="2038.501953"/>
     <use xlink:href="#DejaVuSans-20" x="2090.601562"/>
     <use xlink:href="#DejaVuSans-63" x="2122.388672"/>
     <use xlink:href="#DejaVuSans-6f" x="2177.369141"/>
     <use xlink:href="#DejaVuSans-6d" x="2238.550781"/>
     <use xlink:href="#DejaVuSans-70" x="2335.962891"/>
     <use xlink:href="#DejaVuSans-61" x="2399.439453"/>
     <use xlink:href="#DejaVuSans-72" x="2460.71875"/>
     <use xlink:href="#DejaVuSans-65" x="2499.582031"/>
     <use xlink:href="#DejaVuSans-64" x="2561.105469"/>
     <use xlink:href="#DejaVuSans-20" x="2624.582031"/>
     <use xlink:href="#DejaVuSans-74" x="2656.369141"/>
     <use xlink:href="#DejaVuSans-6f" x="2695.578125"/>
     <use xlink:href="#DejaVuSans-20" x="2756.759766"/>
     <use xlink:href="#DejaVuSans-53" x="2788.546875"/>
     <use xlink:href="#DejaVuSans-74" x="2852.023438"/>
     <use xlink:href="#DejaVuSans-61" x="2891.232422"/>
     <use xlink:href="#DejaVuSans-6e" x="2952.511719"/>
     <use xlink:href="#DejaVuSans-64" x="3015.890625"/>
     <use xlink:href="#DejaVuSans-61" x="3079.367188"/>
     <use xlink:href="#DejaVuSans-72" x="3140.646484"/>
     <use xlink:href="#DejaVuSans-64" x="3180.009766"/>
    </g>
   </g>
  </g>
 </g>
 <defs>
  <clipPath id="p2f8c089514">
   <rect x="32.81" y="18" width="401.35" height="160.36"/>
  </clipPath>
 </defs>
</svg>
